<?xml version="1.0" encoding="utf-8" standalone="no"?>
<!DOCTYPE svg PUBLIC "-//W3C//DTD SVG 1.1//EN"
  "http://www.w3.org/Graphics/SVG/1.1/DTD/svg11.dtd">
<!-- Created with matplotlib (https://matplotlib.org/) -->
<svg height="360pt" version="1.1" viewBox="0 0 1008 360" width="1008pt" xmlns="http://www.w3.org/2000/svg" xmlns:xlink="http://www.w3.org/1999/xlink">
 <defs>
  <style type="text/css">
*{stroke-linecap:butt;stroke-linejoin:round;}
  </style>
 </defs>
 <g id="figure_1">
  <g id="patch_1">
   <path d="M 0 360 
L 1008 360 
L 1008 0 
L 0 0 
z
" style="fill:none;"/>
  </g>
  <g id="axes_1">
   <g id="patch_2">
    <path d="M 79.675 309.2 
L 487.475 309.2 
L 487.475 16.3 
L 79.675 16.3 
z
" style="fill:none;"/>
   </g>
   <g id="matplotlib.axis_1">
    <g id="xtick_1">
     <g id="line2d_1">
      <defs>
       <path d="M 0 0 
L 0 3.5 
" id="m2af74108c4" style="stroke:#000000;stroke-width:0.8;"/>
      </defs>
      <g>
       <use style="stroke:#000000;stroke-width:0.8;" x="79.675" xlink:href="#m2af74108c4" y="309.2"/>
      </g>
     </g>
     <g id="text_1">
      <!-- 0.0 -->
      <defs>
       <path d="M 31.78125 66.40625 
Q 24.171875 66.40625 20.328125 58.90625 
Q 16.5 51.421875 16.5 36.375 
Q 16.5 21.390625 20.328125 13.890625 
Q 24.171875 6.390625 31.78125 6.390625 
Q 39.453125 6.390625 43.28125 13.890625 
Q 47.125 21.390625 47.125 36.375 
Q 47.125 51.421875 43.28125 58.90625 
Q 39.453125 66.40625 31.78125 66.40625 
z
M 31.78125 74.21875 
Q 44.046875 74.21875 50.515625 64.515625 
Q 56.984375 54.828125 56.984375 36.375 
Q 56.984375 17.96875 50.515625 8.265625 
Q 44.046875 -1.421875 31.78125 -1.421875 
Q 19.53125 -1.421875 13.0625 8.265625 
Q 6.59375 17.96875 6.59375 36.375 
Q 6.59375 54.828125 13.0625 64.515625 
Q 19.53125 74.21875 31.78125 74.21875 
z
" id="DejaVuSans-48"/>
       <path d="M 10.6875 12.40625 
L 21 12.40625 
L 21 0 
L 10.6875 0 
z
" id="DejaVuSans-46"/>
      </defs>
      <g transform="translate(68.542813 326.837813)scale(0.14 -0.14)">
       <use xlink:href="#DejaVuSans-48"/>
       <use x="63.623047" xlink:href="#DejaVuSans-46"/>
       <use x="95.410156" xlink:href="#DejaVuSans-48"/>
      </g>
     </g>
    </g>
    <g id="xtick_2">
     <g id="line2d_2">
      <g>
       <use style="stroke:#000000;stroke-width:0.8;" x="161.235" xlink:href="#m2af74108c4" y="309.2"/>
      </g>
     </g>
     <g id="text_2">
      <!-- 0.2 -->
      <defs>
       <path d="M 19.1875 8.296875 
L 53.609375 8.296875 
L 53.609375 0 
L 7.328125 0 
L 7.328125 8.296875 
Q 12.9375 14.109375 22.625 23.890625 
Q 32.328125 33.6875 34.8125 36.53125 
Q 39.546875 41.84375 41.421875 45.53125 
Q 43.3125 49.21875 43.3125 52.78125 
Q 43.3125 58.59375 39.234375 62.25 
Q 35.15625 65.921875 28.609375 65.921875 
Q 23.96875 65.921875 18.8125 64.3125 
Q 13.671875 62.703125 7.8125 59.421875 
L 7.8125 69.390625 
Q 13.765625 71.78125 18.9375 73 
Q 24.125 74.21875 28.421875 74.21875 
Q 39.75 74.21875 46.484375 68.546875 
Q 53.21875 62.890625 53.21875 53.421875 
Q 53.21875 48.921875 51.53125 44.890625 
Q 49.859375 40.875 45.40625 35.40625 
Q 44.1875 33.984375 37.640625 27.21875 
Q 31.109375 20.453125 19.1875 8.296875 
z
" id="DejaVuSans-50"/>
      </defs>
      <g transform="translate(150.102813 326.837813)scale(0.14 -0.14)">
       <use xlink:href="#DejaVuSans-48"/>
       <use x="63.623047" xlink:href="#DejaVuSans-46"/>
       <use x="95.410156" xlink:href="#DejaVuSans-50"/>
      </g>
     </g>
    </g>
    <g id="xtick_3">
     <g id="line2d_3">
      <g>
       <use style="stroke:#000000;stroke-width:0.8;" x="242.795" xlink:href="#m2af74108c4" y="309.2"/>
      </g>
     </g>
     <g id="text_3">
      <!-- 0.4 -->
      <defs>
       <path d="M 37.796875 64.3125 
L 12.890625 25.390625 
L 37.796875 25.390625 
z
M 35.203125 72.90625 
L 47.609375 72.90625 
L 47.609375 25.390625 
L 58.015625 25.390625 
L 58.015625 17.1875 
L 47.609375 17.1875 
L 47.609375 0 
L 37.796875 0 
L 37.796875 17.1875 
L 4.890625 17.1875 
L 4.890625 26.703125 
z
" id="DejaVuSans-52"/>
      </defs>
      <g transform="translate(231.662813 326.837813)scale(0.14 -0.14)">
       <use xlink:href="#DejaVuSans-48"/>
       <use x="63.623047" xlink:href="#DejaVuSans-46"/>
       <use x="95.410156" xlink:href="#DejaVuSans-52"/>
      </g>
     </g>
    </g>
    <g id="xtick_4">
     <g id="line2d_4">
      <g>
       <use style="stroke:#000000;stroke-width:0.8;" x="324.355" xlink:href="#m2af74108c4" y="309.2"/>
      </g>
     </g>
     <g id="text_4">
      <!-- 0.6 -->
      <defs>
       <path d="M 33.015625 40.375 
Q 26.375 40.375 22.484375 35.828125 
Q 18.609375 31.296875 18.609375 23.390625 
Q 18.609375 15.53125 22.484375 10.953125 
Q 26.375 6.390625 33.015625 6.390625 
Q 39.65625 6.390625 43.53125 10.953125 
Q 47.40625 15.53125 47.40625 23.390625 
Q 47.40625 31.296875 43.53125 35.828125 
Q 39.65625 40.375 33.015625 40.375 
z
M 52.59375 71.296875 
L 52.59375 62.3125 
Q 48.875 64.0625 45.09375 64.984375 
Q 41.3125 65.921875 37.59375 65.921875 
Q 27.828125 65.921875 22.671875 59.328125 
Q 17.53125 52.734375 16.796875 39.40625 
Q 19.671875 43.65625 24.015625 45.921875 
Q 28.375 48.1875 33.59375 48.1875 
Q 44.578125 48.1875 50.953125 41.515625 
Q 57.328125 34.859375 57.328125 23.390625 
Q 57.328125 12.15625 50.6875 5.359375 
Q 44.046875 -1.421875 33.015625 -1.421875 
Q 20.359375 -1.421875 13.671875 8.265625 
Q 6.984375 17.96875 6.984375 36.375 
Q 6.984375 53.65625 15.1875 63.9375 
Q 23.390625 74.21875 37.203125 74.21875 
Q 40.921875 74.21875 44.703125 73.484375 
Q 48.484375 72.75 52.59375 71.296875 
z
" id="DejaVuSans-54"/>
      </defs>
      <g transform="translate(313.222813 326.837813)scale(0.14 -0.14)">
       <use xlink:href="#DejaVuSans-48"/>
       <use x="63.623047" xlink:href="#DejaVuSans-46"/>
       <use x="95.410156" xlink:href="#DejaVuSans-54"/>
      </g>
     </g>
    </g>
    <g id="xtick_5">
     <g id="line2d_5">
      <g>
       <use style="stroke:#000000;stroke-width:0.8;" x="405.915" xlink:href="#m2af74108c4" y="309.2"/>
      </g>
     </g>
     <g id="text_5">
      <!-- 0.8 -->
      <defs>
       <path d="M 31.78125 34.625 
Q 24.75 34.625 20.71875 30.859375 
Q 16.703125 27.09375 16.703125 20.515625 
Q 16.703125 13.921875 20.71875 10.15625 
Q 24.75 6.390625 31.78125 6.390625 
Q 38.8125 6.390625 42.859375 10.171875 
Q 46.921875 13.96875 46.921875 20.515625 
Q 46.921875 27.09375 42.890625 30.859375 
Q 38.875 34.625 31.78125 34.625 
z
M 21.921875 38.8125 
Q 15.578125 40.375 12.03125 44.71875 
Q 8.5 49.078125 8.5 55.328125 
Q 8.5 64.0625 14.71875 69.140625 
Q 20.953125 74.21875 31.78125 74.21875 
Q 42.671875 74.21875 48.875 69.140625 
Q 55.078125 64.0625 55.078125 55.328125 
Q 55.078125 49.078125 51.53125 44.71875 
Q 48 40.375 41.703125 38.8125 
Q 48.828125 37.15625 52.796875 32.3125 
Q 56.78125 27.484375 56.78125 20.515625 
Q 56.78125 9.90625 50.3125 4.234375 
Q 43.84375 -1.421875 31.78125 -1.421875 
Q 19.734375 -1.421875 13.25 4.234375 
Q 6.78125 9.90625 6.78125 20.515625 
Q 6.78125 27.484375 10.78125 32.3125 
Q 14.796875 37.15625 21.921875 38.8125 
z
M 18.3125 54.390625 
Q 18.3125 48.734375 21.84375 45.5625 
Q 25.390625 42.390625 31.78125 42.390625 
Q 38.140625 42.390625 41.71875 45.5625 
Q 45.3125 48.734375 45.3125 54.390625 
Q 45.3125 60.0625 41.71875 63.234375 
Q 38.140625 66.40625 31.78125 66.40625 
Q 25.390625 66.40625 21.84375 63.234375 
Q 18.3125 60.0625 18.3125 54.390625 
z
" id="DejaVuSans-56"/>
      </defs>
      <g transform="translate(394.782813 326.837813)scale(0.14 -0.14)">
       <use xlink:href="#DejaVuSans-48"/>
       <use x="63.623047" xlink:href="#DejaVuSans-46"/>
       <use x="95.410156" xlink:href="#DejaVuSans-56"/>
      </g>
     </g>
    </g>
    <g id="xtick_6">
     <g id="line2d_6">
      <g>
       <use style="stroke:#000000;stroke-width:0.8;" x="487.475" xlink:href="#m2af74108c4" y="309.2"/>
      </g>
     </g>
     <g id="text_6">
      <!-- 1.0 -->
      <defs>
       <path d="M 12.40625 8.296875 
L 28.515625 8.296875 
L 28.515625 63.921875 
L 10.984375 60.40625 
L 10.984375 69.390625 
L 28.421875 72.90625 
L 38.28125 72.90625 
L 38.28125 8.296875 
L 54.390625 8.296875 
L 54.390625 0 
L 12.40625 0 
z
" id="DejaVuSans-49"/>
      </defs>
      <g transform="translate(476.342813 326.837813)scale(0.14 -0.14)">
       <use xlink:href="#DejaVuSans-49"/>
       <use x="63.623047" xlink:href="#DejaVuSans-46"/>
       <use x="95.410156" xlink:href="#DejaVuSans-48"/>
      </g>
     </g>
    </g>
    <g id="text_7">
     <!-- Action entropy -->
     <defs>
      <path d="M 34.1875 63.1875 
L 20.796875 26.90625 
L 47.609375 26.90625 
z
M 28.609375 72.90625 
L 39.796875 72.90625 
L 67.578125 0 
L 57.328125 0 
L 50.6875 18.703125 
L 17.828125 18.703125 
L 11.1875 0 
L 0.78125 0 
z
" id="DejaVuSans-65"/>
      <path d="M 48.78125 52.59375 
L 48.78125 44.1875 
Q 44.96875 46.296875 41.140625 47.34375 
Q 37.3125 48.390625 33.40625 48.390625 
Q 24.65625 48.390625 19.8125 42.84375 
Q 14.984375 37.3125 14.984375 27.296875 
Q 14.984375 17.28125 19.8125 11.734375 
Q 24.65625 6.203125 33.40625 6.203125 
Q 37.3125 6.203125 41.140625 7.25 
Q 44.96875 8.296875 48.78125 10.40625 
L 48.78125 2.09375 
Q 45.015625 0.34375 40.984375 -0.53125 
Q 36.96875 -1.421875 32.421875 -1.421875 
Q 20.0625 -1.421875 12.78125 6.34375 
Q 5.515625 14.109375 5.515625 27.296875 
Q 5.515625 40.671875 12.859375 48.328125 
Q 20.21875 56 33.015625 56 
Q 37.15625 56 41.109375 55.140625 
Q 45.0625 54.296875 48.78125 52.59375 
z
" id="DejaVuSans-99"/>
      <path d="M 18.3125 70.21875 
L 18.3125 54.6875 
L 36.8125 54.6875 
L 36.8125 47.703125 
L 18.3125 47.703125 
L 18.3125 18.015625 
Q 18.3125 11.328125 20.140625 9.421875 
Q 21.96875 7.515625 27.59375 7.515625 
L 36.8125 7.515625 
L 36.8125 0 
L 27.59375 0 
Q 17.1875 0 13.234375 3.875 
Q 9.28125 7.765625 9.28125 18.015625 
L 9.28125 47.703125 
L 2.6875 47.703125 
L 2.6875 54.6875 
L 9.28125 54.6875 
L 9.28125 70.21875 
z
" id="DejaVuSans-116"/>
      <path d="M 9.421875 54.6875 
L 18.40625 54.6875 
L 18.40625 0 
L 9.421875 0 
z
M 9.421875 75.984375 
L 18.40625 75.984375 
L 18.40625 64.59375 
L 9.421875 64.59375 
z
" id="DejaVuSans-105"/>
      <path d="M 30.609375 48.390625 
Q 23.390625 48.390625 19.1875 42.75 
Q 14.984375 37.109375 14.984375 27.296875 
Q 14.984375 17.484375 19.15625 11.84375 
Q 23.34375 6.203125 30.609375 6.203125 
Q 37.796875 6.203125 41.984375 11.859375 
Q 46.1875 17.53125 46.1875 27.296875 
Q 46.1875 37.015625 41.984375 42.703125 
Q 37.796875 48.390625 30.609375 48.390625 
z
M 30.609375 56 
Q 42.328125 56 49.015625 48.375 
Q 55.71875 40.765625 55.71875 27.296875 
Q 55.71875 13.875 49.015625 6.21875 
Q 42.328125 -1.421875 30.609375 -1.421875 
Q 18.84375 -1.421875 12.171875 6.21875 
Q 5.515625 13.875 5.515625 27.296875 
Q 5.515625 40.765625 12.171875 48.375 
Q 18.84375 56 30.609375 56 
z
" id="DejaVuSans-111"/>
      <path d="M 54.890625 33.015625 
L 54.890625 0 
L 45.90625 0 
L 45.90625 32.71875 
Q 45.90625 40.484375 42.875 44.328125 
Q 39.84375 48.1875 33.796875 48.1875 
Q 26.515625 48.1875 22.3125 43.546875 
Q 18.109375 38.921875 18.109375 30.90625 
L 18.109375 0 
L 9.078125 0 
L 9.078125 54.6875 
L 18.109375 54.6875 
L 18.109375 46.1875 
Q 21.34375 51.125 25.703125 53.5625 
Q 30.078125 56 35.796875 56 
Q 45.21875 56 50.046875 50.171875 
Q 54.890625 44.34375 54.890625 33.015625 
z
" id="DejaVuSans-110"/>
      <path id="DejaVuSans-32"/>
      <path d="M 56.203125 29.59375 
L 56.203125 25.203125 
L 14.890625 25.203125 
Q 15.484375 15.921875 20.484375 11.0625 
Q 25.484375 6.203125 34.421875 6.203125 
Q 39.59375 6.203125 44.453125 7.46875 
Q 49.3125 8.734375 54.109375 11.28125 
L 54.109375 2.78125 
Q 49.265625 0.734375 44.1875 -0.34375 
Q 39.109375 -1.421875 33.890625 -1.421875 
Q 20.796875 -1.421875 13.15625 6.1875 
Q 5.515625 13.8125 5.515625 26.8125 
Q 5.515625 40.234375 12.765625 48.109375 
Q 20.015625 56 32.328125 56 
Q 43.359375 56 49.78125 48.890625 
Q 56.203125 41.796875 56.203125 29.59375 
z
M 47.21875 32.234375 
Q 47.125 39.59375 43.09375 43.984375 
Q 39.0625 48.390625 32.421875 48.390625 
Q 24.90625 48.390625 20.390625 44.140625 
Q 15.875 39.890625 15.1875 32.171875 
z
" id="DejaVuSans-101"/>
      <path d="M 41.109375 46.296875 
Q 39.59375 47.171875 37.8125 47.578125 
Q 36.03125 48 33.890625 48 
Q 26.265625 48 22.1875 43.046875 
Q 18.109375 38.09375 18.109375 28.8125 
L 18.109375 0 
L 9.078125 0 
L 9.078125 54.6875 
L 18.109375 54.6875 
L 18.109375 46.1875 
Q 20.953125 51.171875 25.484375 53.578125 
Q 30.03125 56 36.53125 56 
Q 37.453125 56 38.578125 55.875 
Q 39.703125 55.765625 41.0625 55.515625 
z
" id="DejaVuSans-114"/>
      <path d="M 18.109375 8.203125 
L 18.109375 -20.796875 
L 9.078125 -20.796875 
L 9.078125 54.6875 
L 18.109375 54.6875 
L 18.109375 46.390625 
Q 20.953125 51.265625 25.265625 53.625 
Q 29.59375 56 35.59375 56 
Q 45.5625 56 51.78125 48.09375 
Q 58.015625 40.1875 58.015625 27.296875 
Q 58.015625 14.40625 51.78125 6.484375 
Q 45.5625 -1.421875 35.59375 -1.421875 
Q 29.59375 -1.421875 25.265625 0.953125 
Q 20.953125 3.328125 18.109375 8.203125 
z
M 48.6875 27.296875 
Q 48.6875 37.203125 44.609375 42.84375 
Q 40.53125 48.484375 33.40625 48.484375 
Q 26.265625 48.484375 22.1875 42.84375 
Q 18.109375 37.203125 18.109375 27.296875 
Q 18.109375 17.390625 22.1875 11.75 
Q 26.265625 6.109375 33.40625 6.109375 
Q 40.53125 6.109375 44.609375 11.75 
Q 48.6875 17.390625 48.6875 27.296875 
z
" id="DejaVuSans-112"/>
      <path d="M 32.171875 -5.078125 
Q 28.375 -14.84375 24.75 -17.8125 
Q 21.140625 -20.796875 15.09375 -20.796875 
L 7.90625 -20.796875 
L 7.90625 -13.28125 
L 13.1875 -13.28125 
Q 16.890625 -13.28125 18.9375 -11.515625 
Q 21 -9.765625 23.484375 -3.21875 
L 25.09375 0.875 
L 2.984375 54.6875 
L 12.5 54.6875 
L 29.59375 11.921875 
L 46.6875 54.6875 
L 56.203125 54.6875 
z
" id="DejaVuSans-121"/>
     </defs>
     <g transform="translate(224.715 345.906875)scale(0.16 -0.16)">
      <use xlink:href="#DejaVuSans-65"/>
      <use x="68.392578" xlink:href="#DejaVuSans-99"/>
      <use x="123.373047" xlink:href="#DejaVuSans-116"/>
      <use x="162.582031" xlink:href="#DejaVuSans-105"/>
      <use x="190.365234" xlink:href="#DejaVuSans-111"/>
      <use x="251.546875" xlink:href="#DejaVuSans-110"/>
      <use x="314.925781" xlink:href="#DejaVuSans-32"/>
      <use x="346.712891" xlink:href="#DejaVuSans-101"/>
      <use x="408.236328" xlink:href="#DejaVuSans-110"/>
      <use x="471.615234" xlink:href="#DejaVuSans-116"/>
      <use x="510.824219" xlink:href="#DejaVuSans-114"/>
      <use x="551.90625" xlink:href="#DejaVuSans-111"/>
      <use x="613.087891" xlink:href="#DejaVuSans-112"/>
      <use x="676.564453" xlink:href="#DejaVuSans-121"/>
     </g>
    </g>
   </g>
   <g id="matplotlib.axis_2">
    <g id="ytick_1">
     <g id="line2d_7">
      <defs>
       <path d="M 0 0 
L -3.5 0 
" id="m0ebfc39cae" style="stroke:#000000;stroke-width:0.8;"/>
      </defs>
      <g>
       <use style="stroke:#000000;stroke-width:0.8;" x="79.675" xlink:href="#m0ebfc39cae" y="309.2"/>
      </g>
     </g>
     <g id="text_8">
      <!-- −0.15 -->
      <defs>
       <path d="M 10.59375 35.5 
L 73.1875 35.5 
L 73.1875 27.203125 
L 10.59375 27.203125 
z
" id="DejaVuSans-8722"/>
       <path d="M 10.796875 72.90625 
L 49.515625 72.90625 
L 49.515625 64.59375 
L 19.828125 64.59375 
L 19.828125 46.734375 
Q 21.96875 47.46875 24.109375 47.828125 
Q 26.265625 48.1875 28.421875 48.1875 
Q 40.625 48.1875 47.75 41.5 
Q 54.890625 34.8125 54.890625 23.390625 
Q 54.890625 11.625 47.5625 5.09375 
Q 40.234375 -1.421875 26.90625 -1.421875 
Q 22.3125 -1.421875 17.546875 -0.640625 
Q 12.796875 0.140625 7.71875 1.703125 
L 7.71875 11.625 
Q 12.109375 9.234375 16.796875 8.0625 
Q 21.484375 6.890625 26.703125 6.890625 
Q 35.15625 6.890625 40.078125 11.328125 
Q 45.015625 15.765625 45.015625 23.390625 
Q 45.015625 31 40.078125 35.4375 
Q 35.15625 39.890625 26.703125 39.890625 
Q 22.75 39.890625 18.8125 39.015625 
Q 14.890625 38.140625 10.796875 36.28125 
z
" id="DejaVuSans-53"/>
      </defs>
      <g transform="translate(29.771563 314.518906)scale(0.14 -0.14)">
       <use xlink:href="#DejaVuSans-8722"/>
       <use x="83.789062" xlink:href="#DejaVuSans-48"/>
       <use x="147.412109" xlink:href="#DejaVuSans-46"/>
       <use x="179.199219" xlink:href="#DejaVuSans-49"/>
       <use x="242.822266" xlink:href="#DejaVuSans-53"/>
      </g>
     </g>
    </g>
    <g id="ytick_2">
     <g id="line2d_8">
      <g>
       <use style="stroke:#000000;stroke-width:0.8;" x="79.675" xlink:href="#m0ebfc39cae" y="276.655556"/>
      </g>
     </g>
     <g id="text_9">
      <!-- −0.10 -->
      <g transform="translate(29.771563 281.974462)scale(0.14 -0.14)">
       <use xlink:href="#DejaVuSans-8722"/>
       <use x="83.789062" xlink:href="#DejaVuSans-48"/>
       <use x="147.412109" xlink:href="#DejaVuSans-46"/>
       <use x="179.199219" xlink:href="#DejaVuSans-49"/>
       <use x="242.822266" xlink:href="#DejaVuSans-48"/>
      </g>
     </g>
    </g>
    <g id="ytick_3">
     <g id="line2d_9">
      <g>
       <use style="stroke:#000000;stroke-width:0.8;" x="79.675" xlink:href="#m0ebfc39cae" y="244.111111"/>
      </g>
     </g>
     <g id="text_10">
      <!-- −0.05 -->
      <g transform="translate(29.771563 249.430017)scale(0.14 -0.14)">
       <use xlink:href="#DejaVuSans-8722"/>
       <use x="83.789062" xlink:href="#DejaVuSans-48"/>
       <use x="147.412109" xlink:href="#DejaVuSans-46"/>
       <use x="179.199219" xlink:href="#DejaVuSans-48"/>
       <use x="242.822266" xlink:href="#DejaVuSans-53"/>
      </g>
     </g>
    </g>
    <g id="ytick_4">
     <g id="line2d_10">
      <g>
       <use style="stroke:#000000;stroke-width:0.8;" x="79.675" xlink:href="#m0ebfc39cae" y="211.566667"/>
      </g>
     </g>
     <g id="text_11">
      <!-- 0.00 -->
      <g transform="translate(41.503125 216.885573)scale(0.14 -0.14)">
       <use xlink:href="#DejaVuSans-48"/>
       <use x="63.623047" xlink:href="#DejaVuSans-46"/>
       <use x="95.410156" xlink:href="#DejaVuSans-48"/>
       <use x="159.033203" xlink:href="#DejaVuSans-48"/>
      </g>
     </g>
    </g>
    <g id="ytick_5">
     <g id="line2d_11">
      <g>
       <use style="stroke:#000000;stroke-width:0.8;" x="79.675" xlink:href="#m0ebfc39cae" y="179.022222"/>
      </g>
     </g>
     <g id="text_12">
      <!-- 0.05 -->
      <g transform="translate(41.503125 184.341128)scale(0.14 -0.14)">
       <use xlink:href="#DejaVuSans-48"/>
       <use x="63.623047" xlink:href="#DejaVuSans-46"/>
       <use x="95.410156" xlink:href="#DejaVuSans-48"/>
       <use x="159.033203" xlink:href="#DejaVuSans-53"/>
      </g>
     </g>
    </g>
    <g id="ytick_6">
     <g id="line2d_12">
      <g>
       <use style="stroke:#000000;stroke-width:0.8;" x="79.675" xlink:href="#m0ebfc39cae" y="146.477778"/>
      </g>
     </g>
     <g id="text_13">
      <!-- 0.10 -->
      <g transform="translate(41.503125 151.796684)scale(0.14 -0.14)">
       <use xlink:href="#DejaVuSans-48"/>
       <use x="63.623047" xlink:href="#DejaVuSans-46"/>
       <use x="95.410156" xlink:href="#DejaVuSans-49"/>
       <use x="159.033203" xlink:href="#DejaVuSans-48"/>
      </g>
     </g>
    </g>
    <g id="ytick_7">
     <g id="line2d_13">
      <g>
       <use style="stroke:#000000;stroke-width:0.8;" x="79.675" xlink:href="#m0ebfc39cae" y="113.933333"/>
      </g>
     </g>
     <g id="text_14">
      <!-- 0.15 -->
      <g transform="translate(41.503125 119.25224)scale(0.14 -0.14)">
       <use xlink:href="#DejaVuSans-48"/>
       <use x="63.623047" xlink:href="#DejaVuSans-46"/>
       <use x="95.410156" xlink:href="#DejaVuSans-49"/>
       <use x="159.033203" xlink:href="#DejaVuSans-53"/>
      </g>
     </g>
    </g>
    <g id="ytick_8">
     <g id="line2d_14">
      <g>
       <use style="stroke:#000000;stroke-width:0.8;" x="79.675" xlink:href="#m0ebfc39cae" y="81.388889"/>
      </g>
     </g>
     <g id="text_15">
      <!-- 0.20 -->
      <g transform="translate(41.503125 86.707795)scale(0.14 -0.14)">
       <use xlink:href="#DejaVuSans-48"/>
       <use x="63.623047" xlink:href="#DejaVuSans-46"/>
       <use x="95.410156" xlink:href="#DejaVuSans-50"/>
       <use x="159.033203" xlink:href="#DejaVuSans-48"/>
      </g>
     </g>
    </g>
    <g id="ytick_9">
     <g id="line2d_15">
      <g>
       <use style="stroke:#000000;stroke-width:0.8;" x="79.675" xlink:href="#m0ebfc39cae" y="48.844444"/>
      </g>
     </g>
     <g id="text_16">
      <!-- 0.25 -->
      <g transform="translate(41.503125 54.163351)scale(0.14 -0.14)">
       <use xlink:href="#DejaVuSans-48"/>
       <use x="63.623047" xlink:href="#DejaVuSans-46"/>
       <use x="95.410156" xlink:href="#DejaVuSans-50"/>
       <use x="159.033203" xlink:href="#DejaVuSans-53"/>
      </g>
     </g>
    </g>
    <g id="ytick_10">
     <g id="line2d_16">
      <g>
       <use style="stroke:#000000;stroke-width:0.8;" x="79.675" xlink:href="#m0ebfc39cae" y="16.3"/>
      </g>
     </g>
     <g id="text_17">
      <!-- 0.30 -->
      <defs>
       <path d="M 40.578125 39.3125 
Q 47.65625 37.796875 51.625 33 
Q 55.609375 28.21875 55.609375 21.1875 
Q 55.609375 10.40625 48.1875 4.484375 
Q 40.765625 -1.421875 27.09375 -1.421875 
Q 22.515625 -1.421875 17.65625 -0.515625 
Q 12.796875 0.390625 7.625 2.203125 
L 7.625 11.71875 
Q 11.71875 9.328125 16.59375 8.109375 
Q 21.484375 6.890625 26.8125 6.890625 
Q 36.078125 6.890625 40.9375 10.546875 
Q 45.796875 14.203125 45.796875 21.1875 
Q 45.796875 27.640625 41.28125 31.265625 
Q 36.765625 34.90625 28.71875 34.90625 
L 20.21875 34.90625 
L 20.21875 43.015625 
L 29.109375 43.015625 
Q 36.375 43.015625 40.234375 45.921875 
Q 44.09375 48.828125 44.09375 54.296875 
Q 44.09375 59.90625 40.109375 62.90625 
Q 36.140625 65.921875 28.71875 65.921875 
Q 24.65625 65.921875 20.015625 65.03125 
Q 15.375 64.15625 9.8125 62.3125 
L 9.8125 71.09375 
Q 15.4375 72.65625 20.34375 73.4375 
Q 25.25 74.21875 29.59375 74.21875 
Q 40.828125 74.21875 47.359375 69.109375 
Q 53.90625 64.015625 53.90625 55.328125 
Q 53.90625 49.265625 50.4375 45.09375 
Q 46.96875 40.921875 40.578125 39.3125 
z
" id="DejaVuSans-51"/>
      </defs>
      <g transform="translate(41.503125 21.618906)scale(0.14 -0.14)">
       <use xlink:href="#DejaVuSans-48"/>
       <use x="63.623047" xlink:href="#DejaVuSans-46"/>
       <use x="95.410156" xlink:href="#DejaVuSans-51"/>
       <use x="159.033203" xlink:href="#DejaVuSans-48"/>
      </g>
     </g>
    </g>
    <g id="text_18">
     <!-- Gain -->
     <defs>
      <path d="M 59.515625 10.40625 
L 59.515625 29.984375 
L 43.40625 29.984375 
L 43.40625 38.09375 
L 69.28125 38.09375 
L 69.28125 6.78125 
Q 63.578125 2.734375 56.6875 0.65625 
Q 49.8125 -1.421875 42 -1.421875 
Q 24.90625 -1.421875 15.25 8.5625 
Q 5.609375 18.5625 5.609375 36.375 
Q 5.609375 54.25 15.25 64.234375 
Q 24.90625 74.21875 42 74.21875 
Q 49.125 74.21875 55.546875 72.453125 
Q 61.96875 70.703125 67.390625 67.28125 
L 67.390625 56.78125 
Q 61.921875 61.421875 55.765625 63.765625 
Q 49.609375 66.109375 42.828125 66.109375 
Q 29.4375 66.109375 22.71875 58.640625 
Q 16.015625 51.171875 16.015625 36.375 
Q 16.015625 21.625 22.71875 14.15625 
Q 29.4375 6.6875 42.828125 6.6875 
Q 48.046875 6.6875 52.140625 7.59375 
Q 56.25 8.5 59.515625 10.40625 
z
" id="DejaVuSans-71"/>
      <path d="M 34.28125 27.484375 
Q 23.390625 27.484375 19.1875 25 
Q 14.984375 22.515625 14.984375 16.5 
Q 14.984375 11.71875 18.140625 8.90625 
Q 21.296875 6.109375 26.703125 6.109375 
Q 34.1875 6.109375 38.703125 11.40625 
Q 43.21875 16.703125 43.21875 25.484375 
L 43.21875 27.484375 
z
M 52.203125 31.203125 
L 52.203125 0 
L 43.21875 0 
L 43.21875 8.296875 
Q 40.140625 3.328125 35.546875 0.953125 
Q 30.953125 -1.421875 24.3125 -1.421875 
Q 15.921875 -1.421875 10.953125 3.296875 
Q 6 8.015625 6 15.921875 
Q 6 25.140625 12.171875 29.828125 
Q 18.359375 34.515625 30.609375 34.515625 
L 43.21875 34.515625 
L 43.21875 35.40625 
Q 43.21875 41.609375 39.140625 45 
Q 35.0625 48.390625 27.6875 48.390625 
Q 23 48.390625 18.546875 47.265625 
Q 14.109375 46.140625 10.015625 43.890625 
L 10.015625 52.203125 
Q 14.9375 54.109375 19.578125 55.046875 
Q 24.21875 56 28.609375 56 
Q 40.484375 56 46.34375 49.84375 
Q 52.203125 43.703125 52.203125 31.203125 
z
" id="DejaVuSans-97"/>
     </defs>
     <g transform="translate(22.444063 181.14375)rotate(-90)scale(0.16 -0.16)">
      <use xlink:href="#DejaVuSans-71"/>
      <use x="77.490234" xlink:href="#DejaVuSans-97"/>
      <use x="138.769531" xlink:href="#DejaVuSans-105"/>
      <use x="166.552734" xlink:href="#DejaVuSans-110"/>
     </g>
    </g>
   </g>
   <g id="line2d_17">
    <path clip-path="url(#p0af3c7b17a)" d="M 79.675 181.930624 
L 98.352245 182.190998 
L 112.895215 182.452373 
L 125.868261 182.714754 
L 137.816404 182.978146 
L 148.99845 183.242555 
L 159.566801 183.507985 
L 169.622128 183.774441 
L 179.235962 184.041929 
L 188.461762 184.310454 
L 197.341006 184.58002 
L 205.90681 184.850634 
L 214.186227 185.122299 
L 222.201768 185.395022 
L 229.972454 185.668806 
L 237.51457 185.943659 
L 244.84221 186.219584 
L 251.967693 186.496587 
L 258.901871 186.774673 
L 265.654381 187.053848 
L 272.233831 187.334116 
L 278.647957 187.615483 
L 284.903749 187.897954 
L 291.007549 188.181534 
L 296.965139 188.466229 
L 302.781809 188.752044 
L 308.462417 189.038984 
L 314.011438 189.327055 
L 319.433006 189.616262 
L 324.730953 189.906609 
L 329.908836 190.198104 
L 334.969969 190.49075 
L 339.917441 190.784553 
L 344.754144 191.079519 
L 349.482782 191.375653 
L 354.105897 191.67296 
L 358.625874 191.971446 
L 363.044961 192.271116 
L 367.365275 192.571976 
L 371.588815 192.874031 
L 375.717469 193.177285 
L 379.753026 193.481746 
L 383.697176 193.787418 
L 387.551526 194.094307 
L 391.317598 194.402417 
L 394.996838 194.711756 
L 398.590621 195.022327 
L 402.100256 195.334137 
L 405.526987 195.64719 
L 408.872001 195.961493 
L 412.136428 196.277051 
L 415.321347 196.593869 
L 418.427787 196.911953 
L 421.456729 197.231308 
L 424.409112 197.55194 
L 427.285832 197.873854 
L 430.087745 198.197056 
L 432.81567 198.521551 
L 435.470389 198.847345 
L 438.052651 199.174443 
L 440.563171 199.502851 
L 443.002634 199.832574 
L 445.371695 200.163618 
L 447.670981 200.495987 
L 449.901089 200.829689 
L 452.062593 201.164727 
L 454.156041 201.501109 
L 456.181956 201.838838 
L 458.140838 202.177921 
L 460.033164 202.518363 
L 461.859392 202.860169 
L 463.619956 203.203346 
L 465.315272 203.547898 
L 466.945735 203.893831 
L 468.511722 204.24115 
L 470.013591 204.589861 
L 471.451682 204.939969 
L 472.82632 205.291481 
L 474.137811 205.6444 
L 475.386444 205.998733 
L 476.572495 206.354484 
L 477.69622 206.711661 
L 478.757865 207.070266 
L 479.757657 207.430308 
L 480.69581 207.791789 
L 481.572524 208.154717 
L 482.387985 208.519095 
L 483.142363 208.88493 
L 483.835817 209.252228 
L 484.468492 209.620992 
L 485.04052 209.991229 
L 485.552019 210.362943 
L 486.003095 210.736141 
L 486.39384 211.110827 
L 486.724335 211.487006 
L 486.994648 211.864685 
L 487.204834 212.243867 
L 487.354937 212.624558 
L 487.444986 213.006764 
L 487.475 213.390489 
" style="fill:none;stroke:#0000ff;stroke-linecap:square;stroke-width:1.5;"/>
   </g>
   <g id="line2d_18">
    <path clip-path="url(#p0af3c7b17a)" d="M 79.675 121.991612 
L 98.352245 122.636592 
L 112.895215 123.28323 
L 125.868261 123.93153 
L 137.816404 124.581496 
L 148.99845 125.233133 
L 159.566801 125.886444 
L 169.622128 126.541434 
L 179.235962 127.198106 
L 188.461762 127.856464 
L 197.341006 128.516512 
L 205.90681 129.178254 
L 214.186227 129.841693 
L 222.201768 130.506834 
L 229.972454 131.173679 
L 237.51457 131.842233 
L 244.84221 132.512498 
L 251.967693 133.184479 
L 258.901871 133.858178 
L 265.654381 134.533599 
L 272.233831 135.210745 
L 278.647957 135.88962 
L 284.903749 136.570226 
L 291.007549 137.252566 
L 296.965139 137.936643 
L 302.781809 138.622461 
L 308.462417 139.310023 
L 314.011438 139.999329 
L 319.433006 140.690385 
L 324.730953 141.383192 
L 329.908836 142.077752 
L 334.969969 142.774068 
L 339.917441 143.472143 
L 344.754144 144.171978 
L 349.482782 144.873577 
L 354.105897 145.57694 
L 358.625874 146.282071 
L 363.044961 146.988971 
L 367.365275 147.697641 
L 371.588815 148.408084 
L 375.717469 149.120301 
L 379.753026 149.834295 
L 383.697176 150.550065 
L 387.551526 151.267614 
L 391.317598 151.986944 
L 394.996838 152.708054 
L 398.590621 153.430947 
L 402.100256 154.155623 
L 405.526987 154.882083 
L 408.872001 155.610328 
L 412.136428 156.340358 
L 415.321347 157.072175 
L 418.427787 157.805778 
L 421.456729 158.541168 
L 424.409112 159.278345 
L 427.285832 160.017309 
L 430.087745 160.75806 
L 432.81567 161.500598 
L 435.470389 162.244923 
L 438.052651 162.991034 
L 440.563171 163.738931 
L 443.002634 164.488613 
L 445.371695 165.240079 
L 447.670981 165.993329 
L 449.901089 166.748361 
L 452.062593 167.505174 
L 454.156041 168.263767 
L 456.181956 169.024138 
L 458.140838 169.786286 
L 460.033164 170.550209 
L 461.859392 171.315905 
L 463.619956 172.083372 
L 465.315272 172.852608 
L 466.945735 173.62361 
L 468.511722 174.396377 
L 470.013591 175.170904 
L 471.451682 175.94719 
L 472.82632 176.725232 
L 474.137811 177.505026 
L 475.386444 178.286569 
L 476.572495 179.069857 
L 477.69622 179.854887 
L 478.757865 180.641656 
L 479.757657 181.430158 
L 480.69581 182.22039 
L 481.572524 183.012348 
L 482.387985 183.806027 
L 483.142363 184.601421 
L 483.835817 185.398527 
L 484.468492 186.197339 
L 485.04052 186.997853 
L 485.552019 187.800061 
L 486.003095 188.603959 
L 486.39384 189.409541 
L 486.724335 190.2168 
L 486.994648 191.025731 
L 487.204834 191.836327 
L 487.354937 192.648581 
L 487.444986 193.462486 
L 487.475 194.278035 
" style="fill:none;stroke:#0000ff;stroke-linecap:square;stroke-opacity:0.7;stroke-width:1.5;"/>
   </g>
   <g id="line2d_19">
    <path clip-path="url(#p0af3c7b17a)" d="M 79.675 44.518731 
L 98.352245 45.664672 
L 112.895215 46.812333 
L 125.868261 47.961709 
L 137.816404 49.112795 
L 148.99845 50.265587 
L 159.566801 51.420077 
L 169.622128 52.576262 
L 179.235962 53.734135 
L 188.461762 54.893691 
L 197.341006 56.054923 
L 205.90681 57.217825 
L 214.186227 58.38239 
L 222.201768 59.548612 
L 229.972454 60.716483 
L 237.51457 61.885997 
L 244.84221 63.057145 
L 251.967693 64.229921 
L 258.901871 65.404317 
L 265.654381 66.580324 
L 272.233831 67.757934 
L 278.647957 68.937138 
L 284.903749 70.117928 
L 291.007549 71.300295 
L 296.965139 72.484229 
L 302.781809 73.669721 
L 308.462417 74.856761 
L 314.011438 76.04534 
L 319.433006 77.235446 
L 324.730953 78.427069 
L 329.908836 79.6202 
L 334.969969 80.814825 
L 339.917441 82.010935 
L 344.754144 83.208518 
L 349.482782 84.407561 
L 354.105897 85.608053 
L 358.625874 86.809981 
L 363.044961 88.013333 
L 367.365275 89.218096 
L 371.588815 90.424256 
L 375.717469 91.6318 
L 379.753026 92.840714 
L 383.697176 94.050984 
L 387.551526 95.262596 
L 391.317598 96.475534 
L 394.996838 97.689784 
L 398.590621 98.905331 
L 402.100256 100.122158 
L 405.526987 101.34025 
L 408.872001 102.559591 
L 412.136428 103.780164 
L 415.321347 105.001952 
L 418.427787 106.224937 
L 421.456729 107.449103 
L 424.409112 108.674431 
L 427.285832 109.900904 
L 430.087745 111.128501 
L 432.81567 112.357205 
L 435.470389 113.586996 
L 438.052651 114.817855 
L 440.563171 116.049761 
L 443.002634 117.282695 
L 445.371695 118.516635 
L 447.670981 119.75156 
L 449.901089 120.987449 
L 452.062593 122.22428 
L 454.156041 123.462031 
L 456.181956 124.70068 
L 458.140838 125.940202 
L 460.033164 127.180576 
L 461.859392 128.421776 
L 463.619956 129.66378 
L 465.315272 130.906562 
L 466.945735 132.150098 
L 468.511722 133.394361 
L 470.013591 134.639328 
L 471.451682 135.88497 
L 472.82632 137.131262 
L 474.137811 138.378177 
L 475.386444 139.625687 
L 476.572495 140.873765 
L 477.69622 142.122381 
L 478.757865 143.371508 
L 479.757657 144.621116 
L 480.69581 145.871176 
L 481.572524 147.121657 
L 482.387985 148.372529 
L 483.142363 149.623761 
L 483.835817 150.875322 
L 484.468492 152.12718 
L 485.04052 153.379302 
L 485.552019 154.631657 
L 486.003095 155.884209 
L 486.39384 157.136926 
L 486.724335 158.389774 
L 486.994648 159.642718 
L 487.204834 160.895722 
L 487.354937 162.148751 
L 487.444986 163.401769 
L 487.475 164.654739 
" style="fill:none;stroke:#0000ff;stroke-linecap:square;stroke-opacity:0.5;stroke-width:1.5;"/>
   </g>
   <g id="line2d_20">
    <path clip-path="url(#p0af3c7b17a)" d="M 79.675 211.566667 
L 487.475 211.566667 
" style="fill:none;stroke:#000000;stroke-linecap:square;stroke-width:1.5;"/>
   </g>
   <g id="patch_3">
    <path d="M 79.675 309.2 
L 79.675 16.3 
" style="fill:none;stroke:#000000;stroke-linecap:square;stroke-linejoin:miter;stroke-width:0.8;"/>
   </g>
   <g id="patch_4">
    <path d="M 487.475 309.2 
L 487.475 16.3 
" style="fill:none;stroke:#000000;stroke-linecap:square;stroke-linejoin:miter;stroke-width:0.8;"/>
   </g>
   <g id="patch_5">
    <path d="M 79.675 309.2 
L 487.475 309.2 
" style="fill:none;stroke:#000000;stroke-linecap:square;stroke-linejoin:miter;stroke-width:0.8;"/>
   </g>
   <g id="patch_6">
    <path d="M 79.675 16.3 
L 487.475 16.3 
" style="fill:none;stroke:#000000;stroke-linecap:square;stroke-linejoin:miter;stroke-width:0.8;"/>
   </g>
  </g>
  <g id="axes_2">
   <g id="patch_7">
    <path d="M 578.275 309.2 
L 986.075 309.2 
L 986.075 16.3 
L 578.275 16.3 
z
" style="fill:none;"/>
   </g>
   <g id="matplotlib.axis_3">
    <g id="xtick_7">
     <g id="line2d_21">
      <g>
       <use style="stroke:#000000;stroke-width:0.8;" x="578.275" xlink:href="#m2af74108c4" y="309.2"/>
      </g>
     </g>
     <g id="text_19">
      <!-- 0.0 -->
      <g transform="translate(567.142813 326.837813)scale(0.14 -0.14)">
       <use xlink:href="#DejaVuSans-48"/>
       <use x="63.623047" xlink:href="#DejaVuSans-46"/>
       <use x="95.410156" xlink:href="#DejaVuSans-48"/>
      </g>
     </g>
    </g>
    <g id="xtick_8">
     <g id="line2d_22">
      <g>
       <use style="stroke:#000000;stroke-width:0.8;" x="659.835" xlink:href="#m2af74108c4" y="309.2"/>
      </g>
     </g>
     <g id="text_20">
      <!-- 0.2 -->
      <g transform="translate(648.702813 326.837813)scale(0.14 -0.14)">
       <use xlink:href="#DejaVuSans-48"/>
       <use x="63.623047" xlink:href="#DejaVuSans-46"/>
       <use x="95.410156" xlink:href="#DejaVuSans-50"/>
      </g>
     </g>
    </g>
    <g id="xtick_9">
     <g id="line2d_23">
      <g>
       <use style="stroke:#000000;stroke-width:0.8;" x="741.395" xlink:href="#m2af74108c4" y="309.2"/>
      </g>
     </g>
     <g id="text_21">
      <!-- 0.4 -->
      <g transform="translate(730.262813 326.837813)scale(0.14 -0.14)">
       <use xlink:href="#DejaVuSans-48"/>
       <use x="63.623047" xlink:href="#DejaVuSans-46"/>
       <use x="95.410156" xlink:href="#DejaVuSans-52"/>
      </g>
     </g>
    </g>
    <g id="xtick_10">
     <g id="line2d_24">
      <g>
       <use style="stroke:#000000;stroke-width:0.8;" x="822.955" xlink:href="#m2af74108c4" y="309.2"/>
      </g>
     </g>
     <g id="text_22">
      <!-- 0.6 -->
      <g transform="translate(811.822813 326.837813)scale(0.14 -0.14)">
       <use xlink:href="#DejaVuSans-48"/>
       <use x="63.623047" xlink:href="#DejaVuSans-46"/>
       <use x="95.410156" xlink:href="#DejaVuSans-54"/>
      </g>
     </g>
    </g>
    <g id="xtick_11">
     <g id="line2d_25">
      <g>
       <use style="stroke:#000000;stroke-width:0.8;" x="904.515" xlink:href="#m2af74108c4" y="309.2"/>
      </g>
     </g>
     <g id="text_23">
      <!-- 0.8 -->
      <g transform="translate(893.382813 326.837813)scale(0.14 -0.14)">
       <use xlink:href="#DejaVuSans-48"/>
       <use x="63.623047" xlink:href="#DejaVuSans-46"/>
       <use x="95.410156" xlink:href="#DejaVuSans-56"/>
      </g>
     </g>
    </g>
    <g id="xtick_12">
     <g id="line2d_26">
      <g>
       <use style="stroke:#000000;stroke-width:0.8;" x="986.075" xlink:href="#m2af74108c4" y="309.2"/>
      </g>
     </g>
     <g id="text_24">
      <!-- 1.0 -->
      <g transform="translate(974.942813 326.837813)scale(0.14 -0.14)">
       <use xlink:href="#DejaVuSans-49"/>
       <use x="63.623047" xlink:href="#DejaVuSans-46"/>
       <use x="95.410156" xlink:href="#DejaVuSans-48"/>
      </g>
     </g>
    </g>
    <g id="text_25">
     <!-- Action entropy -->
     <g transform="translate(723.315 345.906875)scale(0.16 -0.16)">
      <use xlink:href="#DejaVuSans-65"/>
      <use x="68.392578" xlink:href="#DejaVuSans-99"/>
      <use x="123.373047" xlink:href="#DejaVuSans-116"/>
      <use x="162.582031" xlink:href="#DejaVuSans-105"/>
      <use x="190.365234" xlink:href="#DejaVuSans-111"/>
      <use x="251.546875" xlink:href="#DejaVuSans-110"/>
      <use x="314.925781" xlink:href="#DejaVuSans-32"/>
      <use x="346.712891" xlink:href="#DejaVuSans-101"/>
      <use x="408.236328" xlink:href="#DejaVuSans-110"/>
      <use x="471.615234" xlink:href="#DejaVuSans-116"/>
      <use x="510.824219" xlink:href="#DejaVuSans-114"/>
      <use x="551.90625" xlink:href="#DejaVuSans-111"/>
      <use x="613.087891" xlink:href="#DejaVuSans-112"/>
      <use x="676.564453" xlink:href="#DejaVuSans-121"/>
     </g>
    </g>
   </g>
   <g id="matplotlib.axis_4">
    <g id="ytick_11">
     <g id="line2d_27">
      <g>
       <use style="stroke:#000000;stroke-width:0.8;" x="578.275" xlink:href="#m0ebfc39cae" y="309.2"/>
      </g>
     </g>
     <g id="text_26">
      <!-- −0.15 -->
      <g transform="translate(528.371563 314.518906)scale(0.14 -0.14)">
       <use xlink:href="#DejaVuSans-8722"/>
       <use x="83.789062" xlink:href="#DejaVuSans-48"/>
       <use x="147.412109" xlink:href="#DejaVuSans-46"/>
       <use x="179.199219" xlink:href="#DejaVuSans-49"/>
       <use x="242.822266" xlink:href="#DejaVuSans-53"/>
      </g>
     </g>
    </g>
    <g id="ytick_12">
     <g id="line2d_28">
      <g>
       <use style="stroke:#000000;stroke-width:0.8;" x="578.275" xlink:href="#m0ebfc39cae" y="276.655556"/>
      </g>
     </g>
     <g id="text_27">
      <!-- −0.10 -->
      <g transform="translate(528.371563 281.974462)scale(0.14 -0.14)">
       <use xlink:href="#DejaVuSans-8722"/>
       <use x="83.789062" xlink:href="#DejaVuSans-48"/>
       <use x="147.412109" xlink:href="#DejaVuSans-46"/>
       <use x="179.199219" xlink:href="#DejaVuSans-49"/>
       <use x="242.822266" xlink:href="#DejaVuSans-48"/>
      </g>
     </g>
    </g>
    <g id="ytick_13">
     <g id="line2d_29">
      <g>
       <use style="stroke:#000000;stroke-width:0.8;" x="578.275" xlink:href="#m0ebfc39cae" y="244.111111"/>
      </g>
     </g>
     <g id="text_28">
      <!-- −0.05 -->
      <g transform="translate(528.371563 249.430017)scale(0.14 -0.14)">
       <use xlink:href="#DejaVuSans-8722"/>
       <use x="83.789062" xlink:href="#DejaVuSans-48"/>
       <use x="147.412109" xlink:href="#DejaVuSans-46"/>
       <use x="179.199219" xlink:href="#DejaVuSans-48"/>
       <use x="242.822266" xlink:href="#DejaVuSans-53"/>
      </g>
     </g>
    </g>
    <g id="ytick_14">
     <g id="line2d_30">
      <g>
       <use style="stroke:#000000;stroke-width:0.8;" x="578.275" xlink:href="#m0ebfc39cae" y="211.566667"/>
      </g>
     </g>
     <g id="text_29">
      <!-- 0.00 -->
      <g transform="translate(540.103125 216.885573)scale(0.14 -0.14)">
       <use xlink:href="#DejaVuSans-48"/>
       <use x="63.623047" xlink:href="#DejaVuSans-46"/>
       <use x="95.410156" xlink:href="#DejaVuSans-48"/>
       <use x="159.033203" xlink:href="#DejaVuSans-48"/>
      </g>
     </g>
    </g>
    <g id="ytick_15">
     <g id="line2d_31">
      <g>
       <use style="stroke:#000000;stroke-width:0.8;" x="578.275" xlink:href="#m0ebfc39cae" y="179.022222"/>
      </g>
     </g>
     <g id="text_30">
      <!-- 0.05 -->
      <g transform="translate(540.103125 184.341128)scale(0.14 -0.14)">
       <use xlink:href="#DejaVuSans-48"/>
       <use x="63.623047" xlink:href="#DejaVuSans-46"/>
       <use x="95.410156" xlink:href="#DejaVuSans-48"/>
       <use x="159.033203" xlink:href="#DejaVuSans-53"/>
      </g>
     </g>
    </g>
    <g id="ytick_16">
     <g id="line2d_32">
      <g>
       <use style="stroke:#000000;stroke-width:0.8;" x="578.275" xlink:href="#m0ebfc39cae" y="146.477778"/>
      </g>
     </g>
     <g id="text_31">
      <!-- 0.10 -->
      <g transform="translate(540.103125 151.796684)scale(0.14 -0.14)">
       <use xlink:href="#DejaVuSans-48"/>
       <use x="63.623047" xlink:href="#DejaVuSans-46"/>
       <use x="95.410156" xlink:href="#DejaVuSans-49"/>
       <use x="159.033203" xlink:href="#DejaVuSans-48"/>
      </g>
     </g>
    </g>
    <g id="ytick_17">
     <g id="line2d_33">
      <g>
       <use style="stroke:#000000;stroke-width:0.8;" x="578.275" xlink:href="#m0ebfc39cae" y="113.933333"/>
      </g>
     </g>
     <g id="text_32">
      <!-- 0.15 -->
      <g transform="translate(540.103125 119.25224)scale(0.14 -0.14)">
       <use xlink:href="#DejaVuSans-48"/>
       <use x="63.623047" xlink:href="#DejaVuSans-46"/>
       <use x="95.410156" xlink:href="#DejaVuSans-49"/>
       <use x="159.033203" xlink:href="#DejaVuSans-53"/>
      </g>
     </g>
    </g>
    <g id="ytick_18">
     <g id="line2d_34">
      <g>
       <use style="stroke:#000000;stroke-width:0.8;" x="578.275" xlink:href="#m0ebfc39cae" y="81.388889"/>
      </g>
     </g>
     <g id="text_33">
      <!-- 0.20 -->
      <g transform="translate(540.103125 86.707795)scale(0.14 -0.14)">
       <use xlink:href="#DejaVuSans-48"/>
       <use x="63.623047" xlink:href="#DejaVuSans-46"/>
       <use x="95.410156" xlink:href="#DejaVuSans-50"/>
       <use x="159.033203" xlink:href="#DejaVuSans-48"/>
      </g>
     </g>
    </g>
    <g id="ytick_19">
     <g id="line2d_35">
      <g>
       <use style="stroke:#000000;stroke-width:0.8;" x="578.275" xlink:href="#m0ebfc39cae" y="48.844444"/>
      </g>
     </g>
     <g id="text_34">
      <!-- 0.25 -->
      <g transform="translate(540.103125 54.163351)scale(0.14 -0.14)">
       <use xlink:href="#DejaVuSans-48"/>
       <use x="63.623047" xlink:href="#DejaVuSans-46"/>
       <use x="95.410156" xlink:href="#DejaVuSans-50"/>
       <use x="159.033203" xlink:href="#DejaVuSans-53"/>
      </g>
     </g>
    </g>
    <g id="ytick_20">
     <g id="line2d_36">
      <g>
       <use style="stroke:#000000;stroke-width:0.8;" x="578.275" xlink:href="#m0ebfc39cae" y="16.3"/>
      </g>
     </g>
     <g id="text_35">
      <!-- 0.30 -->
      <g transform="translate(540.103125 21.618906)scale(0.14 -0.14)">
       <use xlink:href="#DejaVuSans-48"/>
       <use x="63.623047" xlink:href="#DejaVuSans-46"/>
       <use x="95.410156" xlink:href="#DejaVuSans-51"/>
       <use x="159.033203" xlink:href="#DejaVuSans-48"/>
      </g>
     </g>
    </g>
    <g id="text_36">
     <!-- Gain -->
     <g transform="translate(521.044063 181.14375)rotate(-90)scale(0.16 -0.16)">
      <use xlink:href="#DejaVuSans-71"/>
      <use x="77.490234" xlink:href="#DejaVuSans-97"/>
      <use x="138.769531" xlink:href="#DejaVuSans-105"/>
      <use x="166.552734" xlink:href="#DejaVuSans-110"/>
     </g>
    </g>
   </g>
   <g id="line2d_37">
    <path clip-path="url(#pb62646f962)" d="M 578.275 210.61794 
L 596.952245 210.992155 
L 611.495215 211.367861 
L 624.468261 211.745065 
L 636.416404 212.123771 
L 647.59845 212.503984 
L 658.166801 212.88571 
L 668.222128 213.268954 
L 677.835962 213.653721 
L 687.061762 214.040016 
L 695.941006 214.427844 
L 704.50681 214.81721 
L 712.786227 215.208119 
L 720.801768 215.600577 
L 728.572454 215.994588 
L 736.11457 216.390157 
L 743.44221 216.787289 
L 750.567693 217.18599 
L 757.501871 217.586263 
L 764.254381 217.988114 
L 770.833831 218.391548 
L 777.247957 218.796569 
L 783.503749 219.203182 
L 789.607549 219.611393 
L 795.565139 220.021205 
L 801.381809 220.432623 
L 807.062417 220.845652 
L 812.611438 221.260297 
L 818.033006 221.676562 
L 823.330953 222.094451 
L 828.508836 222.51397 
L 833.569969 222.935122 
L 838.517441 223.357913 
L 843.354144 223.782345 
L 848.082782 224.208425 
L 852.705897 224.636155 
L 857.225874 225.065541 
L 861.644961 225.496586 
L 865.965275 225.929295 
L 870.188815 226.363671 
L 874.317469 226.799719 
L 878.353026 227.237443 
L 882.297176 227.676847 
L 886.151526 228.117934 
L 889.917598 228.560709 
L 893.596838 229.005175 
L 897.190621 229.451336 
L 900.700256 229.899196 
L 904.126987 230.348758 
L 907.472001 230.800026 
L 910.736428 231.253004 
L 913.921347 231.707695 
L 917.027787 232.164102 
L 920.056729 232.622229 
L 923.009112 233.082079 
L 925.885832 233.543655 
L 928.687745 234.00696 
L 931.41567 234.471998 
L 934.070389 234.938772 
L 936.652651 235.407283 
L 939.163171 235.877536 
L 941.602634 236.349533 
L 943.971695 236.823277 
L 946.270981 237.29877 
L 948.501089 237.776016 
L 950.662593 238.255015 
L 952.756041 238.735772 
L 954.781956 239.218288 
L 956.740838 239.702565 
L 958.633164 240.188606 
L 960.459392 240.676413 
L 962.219956 241.165987 
L 963.915272 241.657332 
L 965.545735 242.150447 
L 967.111722 242.645336 
L 968.613591 243.142 
L 970.051682 243.64044 
L 971.42632 244.140658 
L 972.737811 244.642655 
L 973.986444 245.146432 
L 975.172495 245.651991 
L 976.29622 246.159333 
L 977.357865 246.668458 
L 978.357657 247.179368 
L 979.29581 247.692062 
L 980.172524 248.206543 
L 980.987985 248.722809 
L 981.742363 249.240863 
L 982.435817 249.760703 
L 983.068492 250.28233 
L 983.64052 250.805745 
L 984.152019 251.330946 
L 984.603095 251.857935 
L 984.99384 252.38671 
L 985.324335 252.917271 
L 985.594648 253.449617 
L 985.804834 253.983749 
L 985.954937 254.519664 
L 986.044986 255.057362 
L 986.075 255.596843 
" style="fill:none;stroke:#ffa500;stroke-linecap:square;stroke-width:1.5;"/>
   </g>
   <g id="line2d_38">
    <path clip-path="url(#pb62646f962)" d="M 611.495215 309.2 
L 611.495215 16.3 
" style="fill:none;stroke:#1f77b4;stroke-linecap:square;stroke-width:1.5;"/>
   </g>
   <g id="line2d_39">
    <path clip-path="url(#pb62646f962)" d="M 578.275 205.365521 
L 596.952245 206.203822 
L 611.495215 207.043628 
L 624.468261 207.884927 
L 636.416404 208.727708 
L 647.59845 209.57196 
L 658.166801 210.41767 
L 668.222128 211.264827 
L 677.835962 212.113418 
L 687.061762 212.96343 
L 695.941006 213.814851 
L 704.50681 214.667667 
L 712.786227 215.521864 
L 720.801768 216.377429 
L 728.572454 217.234347 
L 736.11457 218.092604 
L 743.44221 218.952186 
L 750.567693 219.813076 
L 757.501871 220.67526 
L 764.254381 221.538722 
L 770.833831 222.403447 
L 777.247957 223.269416 
L 783.503749 224.136615 
L 789.607549 225.005026 
L 795.565139 225.874631 
L 801.381809 226.745414 
L 807.062417 227.617355 
L 812.611438 228.490438 
L 818.033006 229.364642 
L 823.330953 230.23995 
L 828.508836 231.116341 
L 833.569969 231.993796 
L 838.517441 232.872295 
L 843.354144 233.751818 
L 848.082782 234.632343 
L 852.705897 235.51385 
L 857.225874 236.396317 
L 861.644961 237.279722 
L 865.965275 238.164043 
L 870.188815 239.049258 
L 874.317469 239.935342 
L 878.353026 240.822273 
L 882.297176 241.710027 
L 886.151526 242.59858 
L 889.917598 243.487906 
L 893.596838 244.377982 
L 897.190621 245.268782 
L 900.700256 246.160279 
L 904.126987 247.052448 
L 907.472001 247.945261 
L 910.736428 248.838693 
L 913.921347 249.732715 
L 917.027787 250.627299 
L 920.056729 251.522417 
L 923.009112 252.418041 
L 925.885832 253.31414 
L 928.687745 254.210686 
L 931.41567 255.107648 
L 934.070389 256.004995 
L 936.652651 256.902697 
L 939.163171 257.800722 
L 941.602634 258.699038 
L 943.971695 259.597613 
L 946.270981 260.496414 
L 948.501089 261.395407 
L 950.662593 262.294559 
L 952.756041 263.193835 
L 954.781956 264.093201 
L 956.740838 264.992622 
L 958.633164 265.892061 
L 960.459392 266.791482 
L 962.219956 267.690848 
L 963.915272 268.590124 
L 965.545735 269.489269 
L 967.111722 270.388247 
L 968.613591 271.287019 
L 970.051682 272.185545 
L 971.42632 273.083785 
L 972.737811 273.9817 
L 973.986444 274.879248 
L 975.172495 275.776387 
L 976.29622 276.673077 
L 977.357865 277.569275 
L 978.357657 278.464937 
L 979.29581 279.36002 
L 980.172524 280.254481 
L 980.987985 281.148273 
L 981.742363 282.041354 
L 982.435817 282.933675 
L 983.068492 283.825192 
L 983.64052 284.715858 
L 984.152019 285.605624 
L 984.603095 286.494444 
L 984.99384 287.382268 
L 985.324335 288.269048 
L 985.594648 289.154733 
L 985.804834 290.039274 
L 985.954937 290.92262 
L 986.044986 291.804719 
L 986.075 292.685519 
" style="fill:none;stroke:#ffa500;stroke-linecap:square;stroke-opacity:0.7;stroke-width:1.5;"/>
   </g>
   <g id="line2d_40">
    <path clip-path="url(#pb62646f962)" d="M 668.222128 309.2 
L 668.222128 16.3 
" style="fill:none;stroke:#1f77b4;stroke-linecap:square;stroke-width:1.5;"/>
   </g>
   <g id="line2d_41">
    <path clip-path="url(#pb62646f962)" d="M 578.275 198.590244 
L 596.952245 199.824578 
L 611.495215 201.05756 
L 624.468261 202.289134 
L 636.416404 203.519247 
L 647.59845 204.747846 
L 658.166801 205.974874 
L 668.222128 207.200276 
L 677.835962 208.423996 
L 687.061762 209.645977 
L 695.941006 210.866161 
L 704.50681 212.084491 
L 712.786227 213.300908 
L 720.801768 214.515352 
L 728.572454 215.727764 
L 736.11457 216.938082 
L 743.44221 218.146246 
L 750.567693 219.352193 
L 757.501871 220.555862 
L 764.254381 221.75719 
L 770.833831 222.956111 
L 777.247957 224.152563 
L 783.503749 225.34648 
L 789.607549 226.537796 
L 795.565139 227.726445 
L 801.381809 228.91236 
L 807.062417 230.095474 
L 812.611438 231.275719 
L 818.033006 232.453024 
L 823.330953 233.627322 
L 828.508836 234.798541 
L 833.569969 235.966611 
L 838.517441 237.13146 
L 843.354144 238.293016 
L 848.082782 239.451207 
L 852.705897 240.605958 
L 857.225874 241.757197 
L 861.644961 242.904847 
L 865.965275 244.048834 
L 870.188815 245.189081 
L 874.317469 246.325512 
L 878.353026 247.458049 
L 882.297176 248.586614 
L 886.151526 249.711129 
L 889.917598 250.831513 
L 893.596838 251.947688 
L 897.190621 253.059571 
L 900.700256 254.167083 
L 904.126987 255.27014 
L 907.472001 256.368661 
L 910.736428 257.462561 
L 913.921347 258.551756 
L 917.027787 259.636163 
L 920.056729 260.715696 
L 923.009112 261.790268 
L 925.885832 262.859793 
L 928.687745 263.924184 
L 931.41567 264.983353 
L 934.070389 266.037212 
L 936.652651 267.08567 
L 939.163171 268.128639 
L 941.602634 269.166027 
L 943.971695 270.197743 
L 946.270981 271.223697 
L 948.501089 272.243795 
L 950.662593 273.257944 
L 952.756041 274.26605 
L 954.781956 275.26802 
L 956.740838 276.263758 
L 958.633164 277.253168 
L 960.459392 278.236155 
L 962.219956 279.212622 
L 963.915272 280.182471 
L 965.545735 281.145604 
L 967.111722 282.101923 
L 968.613591 283.051328 
L 970.051682 283.99372 
L 971.42632 284.928998 
L 972.737811 285.857061 
L 973.986444 286.777808 
L 975.172495 287.691136 
L 976.29622 288.596942 
L 977.357865 289.495124 
L 978.357657 290.385577 
L 979.29581 291.268197 
L 980.172524 292.14288 
L 980.987985 293.009518 
L 981.742363 293.868007 
L 982.435817 294.71824 
L 983.068492 295.56011 
L 983.64052 296.393508 
L 984.152019 297.218327 
L 984.603095 298.034458 
L 984.99384 298.841792 
L 985.324335 299.64022 
L 985.594648 300.42963 
L 985.804834 301.209913 
L 985.954937 301.980957 
L 986.044986 302.74265 
L 986.075 303.494881 
" style="fill:none;stroke:#ffa500;stroke-linecap:square;stroke-opacity:0.5;stroke-width:1.5;"/>
   </g>
   <g id="line2d_42">
    <path clip-path="url(#pb62646f962)" d="M 695.941006 309.2 
L 695.941006 16.3 
" style="fill:none;stroke:#1f77b4;stroke-linecap:square;stroke-width:1.5;"/>
   </g>
   <g id="line2d_43">
    <path clip-path="url(#pb62646f962)" d="M 578.275 192.936807 
L 596.952245 194.351565 
L 611.495215 195.756743 
L 624.468261 197.152229 
L 636.416404 198.537908 
L 647.59845 199.913668 
L 658.166801 201.279393 
L 668.222128 202.63497 
L 677.835962 203.980282 
L 687.061762 205.315215 
L 695.941006 206.639653 
L 704.50681 207.95348 
L 712.786227 209.256578 
L 720.801768 210.548832 
L 728.572454 211.830123 
L 736.11457 213.100335 
L 743.44221 214.359349 
L 750.567693 215.607047 
L 757.501871 216.84331 
L 764.254381 218.068021 
L 770.833831 219.281059 
L 777.247957 220.482306 
L 783.503749 221.671641 
L 789.607549 222.848945 
L 795.565139 224.014098 
L 801.381809 225.16698 
L 807.062417 226.307469 
L 812.611438 227.435446 
L 818.033006 228.550789 
L 823.330953 229.653378 
L 828.508836 230.74309 
L 833.569969 231.819806 
L 838.517441 232.883403 
L 843.354144 233.933759 
L 848.082782 234.970753 
L 852.705897 235.994264 
L 857.225874 237.004168 
L 861.644961 238.000345 
L 865.965275 238.982673 
L 870.188815 239.951028 
L 874.317469 240.90529 
L 878.353026 241.845336 
L 882.297176 242.771044 
L 886.151526 243.682291 
L 889.917598 244.578957 
L 893.596838 245.460919 
L 897.190621 246.328055 
L 900.700256 247.180243 
L 904.126987 248.017362 
L 907.472001 248.83929 
L 910.736428 249.645906 
L 913.921347 250.437088 
L 917.027787 251.212714 
L 920.056729 251.972665 
L 923.009112 252.716819 
L 925.885832 253.445056 
L 928.687745 254.157255 
L 931.41567 254.853296 
L 934.070389 255.533059 
L 936.652651 256.196425 
L 939.163171 256.843274 
L 941.602634 257.473487 
L 943.971695 258.086946 
L 946.270981 258.683532 
L 948.501089 259.263127 
L 950.662593 259.825614 
L 952.756041 260.370875 
L 954.781956 260.898793 
L 956.740838 261.409253 
L 958.633164 261.902137 
L 960.459392 262.377331 
L 962.219956 262.83472 
L 963.915272 263.274188 
L 965.545735 263.695623 
L 967.111722 264.098909 
L 968.613591 264.483936 
L 970.051682 264.850589 
L 971.42632 265.198757 
L 972.737811 265.528329 
L 973.986444 265.839195 
L 975.172495 266.131244 
L 976.29622 266.404367 
L 977.357865 266.658455 
L 978.357657 266.8934 
L 979.29581 267.109095 
L 980.172524 267.305434 
L 980.987985 267.482311 
L 981.742363 267.63962 
L 982.435817 267.777257 
L 983.068492 267.895118 
L 983.64052 267.993102 
L 984.152019 268.071106 
L 984.603095 268.129029 
L 984.99384 268.16677 
L 985.324335 268.184231 
L 985.594648 268.181313 
L 985.804834 268.157918 
L 985.954937 268.11395 
L 986.044986 268.049314 
L 986.075 267.963914 
" style="fill:none;stroke:#ffa500;stroke-linecap:square;stroke-opacity:0.3;stroke-width:1.5;"/>
   </g>
   <g id="line2d_44">
    <path clip-path="url(#pb62646f962)" d="M 720.801768 309.2 
L 720.801768 16.3 
" style="fill:none;stroke:#1f77b4;stroke-linecap:square;stroke-width:1.5;"/>
   </g>
   <g id="line2d_45">
    <path clip-path="url(#pb62646f962)" d="M 578.275 211.566667 
L 986.075 211.566667 
" style="fill:none;stroke:#000000;stroke-linecap:square;stroke-width:1.5;"/>
   </g>
   <g id="patch_8">
    <path d="M 578.275 309.2 
L 578.275 16.3 
" style="fill:none;stroke:#000000;stroke-linecap:square;stroke-linejoin:miter;stroke-width:0.8;"/>
   </g>
   <g id="patch_9">
    <path d="M 986.075 309.2 
L 986.075 16.3 
" style="fill:none;stroke:#000000;stroke-linecap:square;stroke-linejoin:miter;stroke-width:0.8;"/>
   </g>
   <g id="patch_10">
    <path d="M 578.275 309.2 
L 986.075 309.2 
" style="fill:none;stroke:#000000;stroke-linecap:square;stroke-linejoin:miter;stroke-width:0.8;"/>
   </g>
   <g id="patch_11">
    <path d="M 578.275 16.3 
L 986.075 16.3 
" style="fill:none;stroke:#000000;stroke-linecap:square;stroke-linejoin:miter;stroke-width:0.8;"/>
   </g>
  </g>
 </g>
 <defs>
  <clipPath id="p0af3c7b17a">
   <rect height="292.9" width="407.8" x="79.675" y="16.3"/>
  </clipPath>
  <clipPath id="pb62646f962">
   <rect height="292.9" width="407.8" x="578.275" y="16.3"/>
  </clipPath>
 </defs>
</svg>
