<?xml version="1.0" encoding="utf-8" standalone="no"?>
<!DOCTYPE svg PUBLIC "-//W3C//DTD SVG 1.1//EN"
  "http://www.w3.org/Graphics/SVG/1.1/DTD/svg11.dtd">
<svg height="360pt" version="1.1" viewBox="0 0 288 360" width="288pt" xmlns="http://www.w3.org/2000/svg" xmlns:xlink="http://www.w3.org/1999/xlink">
 <metadata>
  <rdf:RDF xmlns:cc="http://creativecommons.org/ns#" xmlns:dc="http://purl.org/dc/elements/1.1/" xmlns:rdf="http://www.w3.org/1999/02/22-rdf-syntax-ns#">
   <cc:Work>
    <dc:type rdf:resource="http://purl.org/dc/dcmitype/StillImage"/>
    <dc:date>2021-09-07T11:08:04.851985</dc:date>
    <dc:format>image/svg+xml</dc:format>
    <dc:creator>
     <cc:Agent>
      <dc:title>Matplotlib v3.4.2, https://matplotlib.org/</dc:title>
     </cc:Agent>
    </dc:creator>
   </cc:Work>
  </rdf:RDF>
 </metadata>
 <defs>
  <style type="text/css">*{stroke-linecap:butt;stroke-linejoin:round;}</style>
 </defs>
 <g id="figure_1">
  <g id="patch_1">
   <path d="M 0 360 
L 288 360 
L 288 0 
L 0 0 
z
" style="fill:none;"/>
  </g>
  <g id="axes_1">
   <g id="patch_2">
    <path d="M 36 315 
L 259.2 315 
L 259.2 43.2 
L 36 43.2 
z
" style="fill:none;"/>
   </g>
   <g id="PathCollection_1">
    <defs>
     <path d="M 0 3 
C 0.795609 3 1.55874 2.683901 2.12132 2.12132 
C 2.683901 1.55874 3 0.795609 3 0 
C 3 -0.795609 2.683901 -1.55874 2.12132 -2.12132 
C 1.55874 -2.683901 0.795609 -3 0 -3 
C -0.795609 -3 -1.55874 -2.683901 -2.12132 -2.12132 
C -2.683901 -1.55874 -3 -0.795609 -3 0 
C -3 0.795609 -2.683901 1.55874 -2.12132 2.12132 
C -1.55874 2.683901 -0.795609 3 0 3 
z
" id="m84e2ae3f99" style="stroke:#ffa500;"/>
    </defs>
    <g clip-path="url(#p73e3837ca3)">
     <use style="fill:#ffa500;stroke:#ffa500;" x="203.963636" xlink:href="#m84e2ae3f99" y="225.144302"/>
     <use style="fill:#ffa500;stroke:#ffa500;" x="203.963636" xlink:href="#m84e2ae3f99" y="290.646337"/>
     <use style="fill:#ffa500;stroke:#ffa500;" x="203.963636" xlink:href="#m84e2ae3f99" y="288.075223"/>
     <use style="fill:#ffa500;stroke:#ffa500;" x="203.963636" xlink:href="#m84e2ae3f99" y="146.870814"/>
     <use style="fill:#ffa500;stroke:#ffa500;" x="203.963636" xlink:href="#m84e2ae3f99" y="268.858494"/>
     <use style="fill:#ffa500;stroke:#ffa500;" x="203.963636" xlink:href="#m84e2ae3f99" y="157.720825"/>
     <use style="fill:#ffa500;stroke:#ffa500;" x="203.963636" xlink:href="#m84e2ae3f99" y="158.547597"/>
     <use style="fill:#ffa500;stroke:#ffa500;" x="203.963636" xlink:href="#m84e2ae3f99" y="143.197014"/>
     <use style="fill:#ffa500;stroke:#ffa500;" x="203.963636" xlink:href="#m84e2ae3f99" y="156.996074"/>
     <use style="fill:#ffa500;stroke:#ffa500;" x="203.963636" xlink:href="#m84e2ae3f99" y="143.774084"/>
     <use style="fill:#ffa500;stroke:#ffa500;" x="203.963636" xlink:href="#m84e2ae3f99" y="179.45938"/>
     <use style="fill:#ffa500;stroke:#ffa500;" x="203.963636" xlink:href="#m84e2ae3f99" y="247.335195"/>
     <use style="fill:#ffa500;stroke:#ffa500;" x="203.963636" xlink:href="#m84e2ae3f99" y="259.588476"/>
     <use style="fill:#ffa500;stroke:#ffa500;" x="203.963636" xlink:href="#m84e2ae3f99" y="148.911325"/>
     <use style="fill:#ffa500;stroke:#ffa500;" x="203.963636" xlink:href="#m84e2ae3f99" y="149.066616"/>
     <use style="fill:#ffa500;stroke:#ffa500;" x="203.963636" xlink:href="#m84e2ae3f99" y="165.621228"/>
     <use style="fill:#ffa500;stroke:#ffa500;" x="203.963636" xlink:href="#m84e2ae3f99" y="156.614106"/>
     <use style="fill:#ffa500;stroke:#ffa500;" x="203.963636" xlink:href="#m84e2ae3f99" y="149.348193"/>
     <use style="fill:#ffa500;stroke:#ffa500;" x="203.963636" xlink:href="#m84e2ae3f99" y="174.37772"/>
     <use style="fill:#ffa500;stroke:#ffa500;" x="203.963636" xlink:href="#m84e2ae3f99" y="146.077803"/>
    </g>
   </g>
   <g id="PathCollection_2">
    <defs>
     <path d="M 0 3 
C 0.795609 3 1.55874 2.683901 2.12132 2.12132 
C 2.683901 1.55874 3 0.795609 3 0 
C 3 -0.795609 2.683901 -1.55874 2.12132 -2.12132 
C 1.55874 -2.683901 0.795609 -3 0 -3 
C -0.795609 -3 -1.55874 -2.683901 -2.12132 -2.12132 
C -2.683901 -1.55874 -3 -0.795609 -3 0 
C -3 0.795609 -2.683901 1.55874 -2.12132 2.12132 
C -1.55874 2.683901 -0.795609 3 0 3 
z
" id="mcdd6b08b07" style="stroke:#0000ff;"/>
    </defs>
    <g clip-path="url(#p73e3837ca3)">
     <use style="fill:#0000ff;stroke:#0000ff;" x="91.236364" xlink:href="#mcdd6b08b07" y="117.569386"/>
     <use style="fill:#0000ff;stroke:#0000ff;" x="91.236364" xlink:href="#mcdd6b08b07" y="75.278433"/>
     <use style="fill:#0000ff;stroke:#0000ff;" x="91.236364" xlink:href="#mcdd6b08b07" y="56.142857"/>
     <use style="fill:#0000ff;stroke:#0000ff;" x="91.236364" xlink:href="#mcdd6b08b07" y="146.363204"/>
     <use style="fill:#0000ff;stroke:#0000ff;" x="91.236364" xlink:href="#mcdd6b08b07" y="96.997428"/>
     <use style="fill:#0000ff;stroke:#0000ff;" x="91.236364" xlink:href="#mcdd6b08b07" y="144.86535"/>
     <use style="fill:#0000ff;stroke:#0000ff;" x="91.236364" xlink:href="#mcdd6b08b07" y="134.206883"/>
     <use style="fill:#0000ff;stroke:#0000ff;" x="91.236364" xlink:href="#mcdd6b08b07" y="139.206518"/>
     <use style="fill:#0000ff;stroke:#0000ff;" x="91.236364" xlink:href="#mcdd6b08b07" y="142.153417"/>
     <use style="fill:#0000ff;stroke:#0000ff;" x="91.236364" xlink:href="#mcdd6b08b07" y="142.930616"/>
     <use style="fill:#0000ff;stroke:#0000ff;" x="91.236364" xlink:href="#mcdd6b08b07" y="134.224055"/>
     <use style="fill:#0000ff;stroke:#0000ff;" x="91.236364" xlink:href="#mcdd6b08b07" y="125.482354"/>
     <use style="fill:#0000ff;stroke:#0000ff;" x="91.236364" xlink:href="#mcdd6b08b07" y="112.663539"/>
     <use style="fill:#0000ff;stroke:#0000ff;" x="91.236364" xlink:href="#mcdd6b08b07" y="142.015221"/>
     <use style="fill:#0000ff;stroke:#0000ff;" x="91.236364" xlink:href="#mcdd6b08b07" y="145.400508"/>
     <use style="fill:#0000ff;stroke:#0000ff;" x="91.236364" xlink:href="#mcdd6b08b07" y="144.710103"/>
     <use style="fill:#0000ff;stroke:#0000ff;" x="91.236364" xlink:href="#mcdd6b08b07" y="142.803171"/>
     <use style="fill:#0000ff;stroke:#0000ff;" x="91.236364" xlink:href="#mcdd6b08b07" y="148.754669"/>
     <use style="fill:#0000ff;stroke:#0000ff;" x="91.236364" xlink:href="#mcdd6b08b07" y="138.227094"/>
     <use style="fill:#0000ff;stroke:#0000ff;" x="91.236364" xlink:href="#mcdd6b08b07" y="145.959531"/>
    </g>
   </g>
   <g id="patch_3">
    <path clip-path="url(#p73e3837ca3)" d="M 158.872727 315 
L 249.054545 315 
L 249.054545 187.81154 
L 158.872727 187.81154 
z
" style="fill:#ffa500;opacity:0.6;"/>
   </g>
   <g id="patch_4">
    <path clip-path="url(#p73e3837ca3)" d="M 46.145455 315 
L 136.327273 315 
L 136.327273 128.797717 
L 46.145455 128.797717 
z
" style="fill:#0000ff;opacity:0.6;"/>
   </g>
   <g id="matplotlib.axis_1">
    <g id="xtick_1">
     <g id="line2d_1">
      <defs>
       <path d="M 0 0 
L 0 3.5 
" id="mf444e4522c" style="stroke:#000000;stroke-width:0.8;"/>
      </defs>
      <g>
       <use style="stroke:#000000;stroke-width:0.8;" x="91.236364" xlink:href="#mf444e4522c" y="315"/>
      </g>
     </g>
     <g id="text_1">
      <!-- 1.0 -->
      <g transform="translate(83.284801 329.598437)scale(0.1 -0.1)">
       <defs>
        <path d="M 794 531 
L 1825 531 
L 1825 4091 
L 703 3866 
L 703 4441 
L 1819 4666 
L 2450 4666 
L 2450 531 
L 3481 531 
L 3481 0 
L 794 0 
L 794 531 
z
" id="DejaVuSans-31" transform="scale(0.015625)"/>
        <path d="M 684 794 
L 1344 794 
L 1344 0 
L 684 0 
L 684 794 
z
" id="DejaVuSans-2e" transform="scale(0.015625)"/>
        <path d="M 2034 4250 
Q 1547 4250 1301 3770 
Q 1056 3291 1056 2328 
Q 1056 1369 1301 889 
Q 1547 409 2034 409 
Q 2525 409 2770 889 
Q 3016 1369 3016 2328 
Q 3016 3291 2770 3770 
Q 2525 4250 2034 4250 
z
M 2034 4750 
Q 2819 4750 3233 4129 
Q 3647 3509 3647 2328 
Q 3647 1150 3233 529 
Q 2819 -91 2034 -91 
Q 1250 -91 836 529 
Q 422 1150 422 2328 
Q 422 3509 836 4129 
Q 1250 4750 2034 4750 
z
" id="DejaVuSans-30" transform="scale(0.015625)"/>
       </defs>
       <use xlink:href="#DejaVuSans-31"/>
       <use x="63.623047" xlink:href="#DejaVuSans-2e"/>
       <use x="95.410156" xlink:href="#DejaVuSans-30"/>
      </g>
     </g>
    </g>
    <g id="xtick_2">
     <g id="line2d_2">
      <g>
       <use style="stroke:#000000;stroke-width:0.8;" x="147.6" xlink:href="#mf444e4522c" y="315"/>
      </g>
     </g>
     <g id="text_2">
      <!-- 1.5 -->
      <g transform="translate(139.648438 329.598437)scale(0.1 -0.1)">
       <defs>
        <path d="M 691 4666 
L 3169 4666 
L 3169 4134 
L 1269 4134 
L 1269 2991 
Q 1406 3038 1543 3061 
Q 1681 3084 1819 3084 
Q 2600 3084 3056 2656 
Q 3513 2228 3513 1497 
Q 3513 744 3044 326 
Q 2575 -91 1722 -91 
Q 1428 -91 1123 -41 
Q 819 9 494 109 
L 494 744 
Q 775 591 1075 516 
Q 1375 441 1709 441 
Q 2250 441 2565 725 
Q 2881 1009 2881 1497 
Q 2881 1984 2565 2268 
Q 2250 2553 1709 2553 
Q 1456 2553 1204 2497 
Q 953 2441 691 2322 
L 691 4666 
z
" id="DejaVuSans-35" transform="scale(0.015625)"/>
       </defs>
       <use xlink:href="#DejaVuSans-31"/>
       <use x="63.623047" xlink:href="#DejaVuSans-2e"/>
       <use x="95.410156" xlink:href="#DejaVuSans-35"/>
      </g>
     </g>
    </g>
    <g id="xtick_3">
     <g id="line2d_3">
      <g>
       <use style="stroke:#000000;stroke-width:0.8;" x="203.963636" xlink:href="#mf444e4522c" y="315"/>
      </g>
     </g>
     <g id="text_3">
      <!-- 2.0 -->
      <g transform="translate(196.012074 329.598437)scale(0.1 -0.1)">
       <defs>
        <path d="M 1228 531 
L 3431 531 
L 3431 0 
L 469 0 
L 469 531 
Q 828 903 1448 1529 
Q 2069 2156 2228 2338 
Q 2531 2678 2651 2914 
Q 2772 3150 2772 3378 
Q 2772 3750 2511 3984 
Q 2250 4219 1831 4219 
Q 1534 4219 1204 4116 
Q 875 4013 500 3803 
L 500 4441 
Q 881 4594 1212 4672 
Q 1544 4750 1819 4750 
Q 2544 4750 2975 4387 
Q 3406 4025 3406 3419 
Q 3406 3131 3298 2873 
Q 3191 2616 2906 2266 
Q 2828 2175 2409 1742 
Q 1991 1309 1228 531 
z
" id="DejaVuSans-32" transform="scale(0.015625)"/>
       </defs>
       <use xlink:href="#DejaVuSans-32"/>
       <use x="63.623047" xlink:href="#DejaVuSans-2e"/>
       <use x="95.410156" xlink:href="#DejaVuSans-30"/>
      </g>
     </g>
    </g>
   </g>
   <g id="matplotlib.axis_2">
    <g id="ytick_1">
     <g id="line2d_4">
      <defs>
       <path d="M 0 0 
L -3.5 0 
" id="m747460d528" style="stroke:#000000;stroke-width:0.8;"/>
      </defs>
      <g>
       <use style="stroke:#000000;stroke-width:0.8;" x="36" xlink:href="#m747460d528" y="315"/>
      </g>
     </g>
     <g id="text_4">
      <!-- 0.0 -->
      <g transform="translate(13.096875 318.799219)scale(0.1 -0.1)">
       <use xlink:href="#DejaVuSans-30"/>
       <use x="63.623047" xlink:href="#DejaVuSans-2e"/>
       <use x="95.410156" xlink:href="#DejaVuSans-30"/>
      </g>
     </g>
    </g>
    <g id="ytick_2">
     <g id="line2d_5">
      <g>
       <use style="stroke:#000000;stroke-width:0.8;" x="36" xlink:href="#m747460d528" y="280.004431"/>
      </g>
     </g>
     <g id="text_5">
      <!-- 2.5 -->
      <g transform="translate(13.096875 283.80365)scale(0.1 -0.1)">
       <use xlink:href="#DejaVuSans-32"/>
       <use x="63.623047" xlink:href="#DejaVuSans-2e"/>
       <use x="95.410156" xlink:href="#DejaVuSans-35"/>
      </g>
     </g>
    </g>
    <g id="ytick_3">
     <g id="line2d_6">
      <g>
       <use style="stroke:#000000;stroke-width:0.8;" x="36" xlink:href="#m747460d528" y="245.008863"/>
      </g>
     </g>
     <g id="text_6">
      <!-- 5.0 -->
      <g transform="translate(13.096875 248.808081)scale(0.1 -0.1)">
       <use xlink:href="#DejaVuSans-35"/>
       <use x="63.623047" xlink:href="#DejaVuSans-2e"/>
       <use x="95.410156" xlink:href="#DejaVuSans-30"/>
      </g>
     </g>
    </g>
    <g id="ytick_4">
     <g id="line2d_7">
      <g>
       <use style="stroke:#000000;stroke-width:0.8;" x="36" xlink:href="#m747460d528" y="210.013294"/>
      </g>
     </g>
     <g id="text_7">
      <!-- 7.5 -->
      <g transform="translate(13.096875 213.812513)scale(0.1 -0.1)">
       <defs>
        <path d="M 525 4666 
L 3525 4666 
L 3525 4397 
L 1831 0 
L 1172 0 
L 2766 4134 
L 525 4134 
L 525 4666 
z
" id="DejaVuSans-37" transform="scale(0.015625)"/>
       </defs>
       <use xlink:href="#DejaVuSans-37"/>
       <use x="63.623047" xlink:href="#DejaVuSans-2e"/>
       <use x="95.410156" xlink:href="#DejaVuSans-35"/>
      </g>
     </g>
    </g>
    <g id="ytick_5">
     <g id="line2d_8">
      <g>
       <use style="stroke:#000000;stroke-width:0.8;" x="36" xlink:href="#m747460d528" y="175.017725"/>
      </g>
     </g>
     <g id="text_8">
      <!-- 10.0 -->
      <g transform="translate(6.734375 178.816944)scale(0.1 -0.1)">
       <use xlink:href="#DejaVuSans-31"/>
       <use x="63.623047" xlink:href="#DejaVuSans-30"/>
       <use x="127.246094" xlink:href="#DejaVuSans-2e"/>
       <use x="159.033203" xlink:href="#DejaVuSans-30"/>
      </g>
     </g>
    </g>
    <g id="ytick_6">
     <g id="line2d_9">
      <g>
       <use style="stroke:#000000;stroke-width:0.8;" x="36" xlink:href="#m747460d528" y="140.022157"/>
      </g>
     </g>
     <g id="text_9">
      <!-- 12.5 -->
      <g transform="translate(6.734375 143.821376)scale(0.1 -0.1)">
       <use xlink:href="#DejaVuSans-31"/>
       <use x="63.623047" xlink:href="#DejaVuSans-32"/>
       <use x="127.246094" xlink:href="#DejaVuSans-2e"/>
       <use x="159.033203" xlink:href="#DejaVuSans-35"/>
      </g>
     </g>
    </g>
    <g id="ytick_7">
     <g id="line2d_10">
      <g>
       <use style="stroke:#000000;stroke-width:0.8;" x="36" xlink:href="#m747460d528" y="105.026588"/>
      </g>
     </g>
     <g id="text_10">
      <!-- 15.0 -->
      <g transform="translate(6.734375 108.825807)scale(0.1 -0.1)">
       <use xlink:href="#DejaVuSans-31"/>
       <use x="63.623047" xlink:href="#DejaVuSans-35"/>
       <use x="127.246094" xlink:href="#DejaVuSans-2e"/>
       <use x="159.033203" xlink:href="#DejaVuSans-30"/>
      </g>
     </g>
    </g>
    <g id="ytick_8">
     <g id="line2d_11">
      <g>
       <use style="stroke:#000000;stroke-width:0.8;" x="36" xlink:href="#m747460d528" y="70.03102"/>
      </g>
     </g>
     <g id="text_11">
      <!-- 17.5 -->
      <g transform="translate(6.734375 73.830238)scale(0.1 -0.1)">
       <use xlink:href="#DejaVuSans-31"/>
       <use x="63.623047" xlink:href="#DejaVuSans-37"/>
       <use x="127.246094" xlink:href="#DejaVuSans-2e"/>
       <use x="159.033203" xlink:href="#DejaVuSans-35"/>
      </g>
     </g>
    </g>
   </g>
   <g id="line2d_12">
    <path clip-path="url(#p73e3837ca3)" d="M 36 315 
L 259.2 315 
" style="fill:none;stroke:#000000;stroke-linecap:square;stroke-width:1.5;"/>
   </g>
   <g id="line2d_13">
    <path clip-path="url(#p73e3837ca3)" d="M 203.963636 225.144302 
L 91.236364 117.569386 
" style="fill:none;stroke:#000000;stroke-linecap:square;stroke-width:1.5;"/>
   </g>
   <g id="line2d_14">
    <path clip-path="url(#p73e3837ca3)" d="M 203.963636 290.646337 
L 91.236364 75.278433 
" style="fill:none;stroke:#000000;stroke-linecap:square;stroke-width:1.5;"/>
   </g>
   <g id="line2d_15">
    <path clip-path="url(#p73e3837ca3)" d="M 203.963636 288.075223 
L 91.236364 56.142857 
" style="fill:none;stroke:#000000;stroke-linecap:square;stroke-width:1.5;"/>
   </g>
   <g id="line2d_16">
    <path clip-path="url(#p73e3837ca3)" d="M 203.963636 146.870814 
L 91.236364 146.363204 
" style="fill:none;stroke:#000000;stroke-linecap:square;stroke-width:1.5;"/>
   </g>
   <g id="line2d_17">
    <path clip-path="url(#p73e3837ca3)" d="M 203.963636 268.858494 
L 91.236364 96.997428 
" style="fill:none;stroke:#000000;stroke-linecap:square;stroke-width:1.5;"/>
   </g>
   <g id="line2d_18">
    <path clip-path="url(#p73e3837ca3)" d="M 203.963636 157.720825 
L 91.236364 144.86535 
" style="fill:none;stroke:#000000;stroke-linecap:square;stroke-width:1.5;"/>
   </g>
   <g id="line2d_19">
    <path clip-path="url(#p73e3837ca3)" d="M 203.963636 158.547597 
L 91.236364 134.206883 
" style="fill:none;stroke:#000000;stroke-linecap:square;stroke-width:1.5;"/>
   </g>
   <g id="line2d_20">
    <path clip-path="url(#p73e3837ca3)" d="M 203.963636 143.197014 
L 91.236364 139.206518 
" style="fill:none;stroke:#000000;stroke-linecap:square;stroke-width:1.5;"/>
   </g>
   <g id="line2d_21">
    <path clip-path="url(#p73e3837ca3)" d="M 203.963636 156.996074 
L 91.236364 142.153417 
" style="fill:none;stroke:#000000;stroke-linecap:square;stroke-width:1.5;"/>
   </g>
   <g id="line2d_22">
    <path clip-path="url(#p73e3837ca3)" d="M 203.963636 143.774084 
L 91.236364 142.930616 
" style="fill:none;stroke:#000000;stroke-linecap:square;stroke-width:1.5;"/>
   </g>
   <g id="line2d_23">
    <path clip-path="url(#p73e3837ca3)" d="M 203.963636 179.45938 
L 91.236364 134.224055 
" style="fill:none;stroke:#000000;stroke-linecap:square;stroke-width:1.5;"/>
   </g>
   <g id="line2d_24">
    <path clip-path="url(#p73e3837ca3)" d="M 203.963636 247.335195 
L 91.236364 125.482354 
" style="fill:none;stroke:#000000;stroke-linecap:square;stroke-width:1.5;"/>
   </g>
   <g id="line2d_25">
    <path clip-path="url(#p73e3837ca3)" d="M 203.963636 259.588476 
L 91.236364 112.663539 
" style="fill:none;stroke:#000000;stroke-linecap:square;stroke-width:1.5;"/>
   </g>
   <g id="line2d_26">
    <path clip-path="url(#p73e3837ca3)" d="M 203.963636 148.911325 
L 91.236364 142.015221 
" style="fill:none;stroke:#000000;stroke-linecap:square;stroke-width:1.5;"/>
   </g>
   <g id="line2d_27">
    <path clip-path="url(#p73e3837ca3)" d="M 203.963636 149.066616 
L 91.236364 145.400508 
" style="fill:none;stroke:#000000;stroke-linecap:square;stroke-width:1.5;"/>
   </g>
   <g id="line2d_28">
    <path clip-path="url(#p73e3837ca3)" d="M 203.963636 165.621228 
L 91.236364 144.710103 
" style="fill:none;stroke:#000000;stroke-linecap:square;stroke-width:1.5;"/>
   </g>
   <g id="line2d_29">
    <path clip-path="url(#p73e3837ca3)" d="M 203.963636 156.614106 
L 91.236364 142.803171 
" style="fill:none;stroke:#000000;stroke-linecap:square;stroke-width:1.5;"/>
   </g>
   <g id="line2d_30">
    <path clip-path="url(#p73e3837ca3)" d="M 203.963636 149.348193 
L 91.236364 148.754669 
" style="fill:none;stroke:#000000;stroke-linecap:square;stroke-width:1.5;"/>
   </g>
   <g id="line2d_31">
    <path clip-path="url(#p73e3837ca3)" d="M 203.963636 174.37772 
L 91.236364 138.227094 
" style="fill:none;stroke:#000000;stroke-linecap:square;stroke-width:1.5;"/>
   </g>
   <g id="line2d_32">
    <path clip-path="url(#p73e3837ca3)" d="M 203.963636 146.077803 
L 91.236364 145.959531 
" style="fill:none;stroke:#000000;stroke-linecap:square;stroke-width:1.5;"/>
   </g>
   <g id="patch_5">
    <path d="M 36 315 
L 36 43.2 
" style="fill:none;stroke:#000000;stroke-linecap:square;stroke-linejoin:miter;stroke-width:0.8;"/>
   </g>
   <g id="patch_6">
    <path d="M 259.2 315 
L 259.2 43.2 
" style="fill:none;stroke:#000000;stroke-linecap:square;stroke-linejoin:miter;stroke-width:0.8;"/>
   </g>
   <g id="patch_7">
    <path d="M 36 315 
L 259.2 315 
" style="fill:none;stroke:#000000;stroke-linecap:square;stroke-linejoin:miter;stroke-width:0.8;"/>
   </g>
   <g id="patch_8">
    <path d="M 36 43.2 
L 259.2 43.2 
" style="fill:none;stroke:#000000;stroke-linecap:square;stroke-linejoin:miter;stroke-width:0.8;"/>
   </g>
  </g>
 </g>
 <defs>
  <clipPath id="p73e3837ca3">
   <rect height="271.8" width="223.2" x="36" y="43.2"/>
  </clipPath>
 </defs>
</svg>
