<?xml version="1.0" encoding="utf-8" standalone="no"?>
<!DOCTYPE svg PUBLIC "-//W3C//DTD SVG 1.1//EN"
  "http://www.w3.org/Graphics/SVG/1.1/DTD/svg11.dtd">
<svg height="288pt" version="1.1" viewBox="0 0 1008 288" width="1008pt" xmlns="http://www.w3.org/2000/svg" xmlns:xlink="http://www.w3.org/1999/xlink">
 <metadata>
  <rdf:RDF xmlns:cc="http://creativecommons.org/ns#" xmlns:dc="http://purl.org/dc/elements/1.1/" xmlns:rdf="http://www.w3.org/1999/02/22-rdf-syntax-ns#">
   <cc:Work>
    <dc:type rdf:resource="http://purl.org/dc/dcmitype/StillImage"/>
    <dc:date>2021-09-07T16:01:33.760647</dc:date>
    <dc:format>image/svg+xml</dc:format>
    <dc:creator>
     <cc:Agent>
      <dc:title>Matplotlib v3.4.2, https://matplotlib.org/</dc:title>
     </cc:Agent>
    </dc:creator>
   </cc:Work>
  </rdf:RDF>
 </metadata>
 <defs>
  <style type="text/css">*{stroke-linecap:butt;stroke-linejoin:round;}</style>
 </defs>
 <g id="figure_1">
  <g id="patch_1">
   <path d="M 0 288 
L 1008 288 
L 1008 0 
L 0 0 
z
" style="fill:none;"/>
  </g>
  <g id="axes_1">
   <g id="patch_2">
    <path d="M 33.8 242.2 
L 494.4125 242.2 
L 494.4125 27.8 
L 33.8 27.8 
z
" style="fill:none;"/>
   </g>
   <g id="patch_3">
    <path clip-path="url(#p42f76d515a)" d="M 33.8 242.2 
L 52.60051 242.2 
L 52.60051 99.757847 
L 33.8 99.757847 
z
" style="fill:#0000ff;"/>
   </g>
   <g id="patch_4">
    <path clip-path="url(#p42f76d515a)" d="M 52.60051 242.2 
L 71.40102 242.2 
L 71.40102 207.817411 
L 52.60051 207.817411 
z
" style="fill:#0000ff;"/>
   </g>
   <g id="patch_5">
    <path clip-path="url(#p42f76d515a)" d="M 71.40102 242.2 
L 90.201531 242.2 
L 90.201531 210.27331 
L 71.40102 210.27331 
z
" style="fill:#0000ff;"/>
   </g>
   <g id="patch_6">
    <path clip-path="url(#p42f76d515a)" d="M 90.201531 242.2 
L 109.002041 242.2 
L 109.002041 215.185109 
L 90.201531 215.185109 
z
" style="fill:#0000ff;"/>
   </g>
   <g id="patch_7">
    <path clip-path="url(#p42f76d515a)" d="M 109.002041 242.2 
L 127.802551 242.2 
L 127.802551 239.744101 
L 109.002041 239.744101 
z
" style="fill:#0000ff;"/>
   </g>
   <g id="patch_8">
    <path clip-path="url(#p42f76d515a)" d="M 127.802551 242.2 
L 146.603061 242.2 
L 146.603061 242.2 
L 127.802551 242.2 
z
" style="fill:#0000ff;"/>
   </g>
   <g id="patch_9">
    <path clip-path="url(#p42f76d515a)" d="M 146.603061 242.2 
L 165.403571 242.2 
L 165.403571 242.2 
L 146.603061 242.2 
z
" style="fill:#0000ff;"/>
   </g>
   <g id="patch_10">
    <path clip-path="url(#p42f76d515a)" d="M 165.403571 242.2 
L 184.204082 242.2 
L 184.204082 242.2 
L 165.403571 242.2 
z
" style="fill:#0000ff;"/>
   </g>
   <g id="patch_11">
    <path clip-path="url(#p42f76d515a)" d="M 184.204082 242.2 
L 203.004592 242.2 
L 203.004592 242.2 
L 184.204082 242.2 
z
" style="fill:#0000ff;"/>
   </g>
   <g id="patch_12">
    <path clip-path="url(#p42f76d515a)" d="M 203.004592 242.2 
L 221.805102 242.2 
L 221.805102 242.2 
L 203.004592 242.2 
z
" style="fill:#0000ff;"/>
   </g>
   <g id="patch_13">
    <path clip-path="url(#p42f76d515a)" d="M 221.805102 242.2 
L 240.605612 242.2 
L 240.605612 242.2 
L 221.805102 242.2 
z
" style="fill:#0000ff;"/>
   </g>
   <g id="patch_14">
    <path clip-path="url(#p42f76d515a)" d="M 240.605612 242.2 
L 259.406122 242.2 
L 259.406122 242.2 
L 240.605612 242.2 
z
" style="fill:#0000ff;"/>
   </g>
   <g id="patch_15">
    <path clip-path="url(#p42f76d515a)" d="M 259.406122 242.2 
L 278.206633 242.2 
L 278.206633 242.2 
L 259.406122 242.2 
z
" style="fill:#0000ff;"/>
   </g>
   <g id="patch_16">
    <path clip-path="url(#p42f76d515a)" d="M 278.206633 242.2 
L 297.007143 242.2 
L 297.007143 242.2 
L 278.206633 242.2 
z
" style="fill:#0000ff;"/>
   </g>
   <g id="patch_17">
    <path clip-path="url(#p42f76d515a)" d="M 297.007143 242.2 
L 315.807653 242.2 
L 315.807653 242.2 
L 297.007143 242.2 
z
" style="fill:#0000ff;"/>
   </g>
   <g id="patch_18">
    <path clip-path="url(#p42f76d515a)" d="M 315.807653 242.2 
L 334.608163 242.2 
L 334.608163 242.2 
L 315.807653 242.2 
z
" style="fill:#0000ff;"/>
   </g>
   <g id="patch_19">
    <path clip-path="url(#p42f76d515a)" d="M 334.608163 242.2 
L 353.408673 242.2 
L 353.408673 242.2 
L 334.608163 242.2 
z
" style="fill:#0000ff;"/>
   </g>
   <g id="patch_20">
    <path clip-path="url(#p42f76d515a)" d="M 353.408673 242.2 
L 372.209184 242.2 
L 372.209184 242.2 
L 353.408673 242.2 
z
" style="fill:#0000ff;"/>
   </g>
   <g id="patch_21">
    <path clip-path="url(#p42f76d515a)" d="M 372.209184 242.2 
L 391.009694 242.2 
L 391.009694 242.2 
L 372.209184 242.2 
z
" style="fill:#0000ff;"/>
   </g>
   <g id="patch_22">
    <path clip-path="url(#p42f76d515a)" d="M 391.009694 242.2 
L 409.810204 242.2 
L 409.810204 242.2 
L 391.009694 242.2 
z
" style="fill:#0000ff;"/>
   </g>
   <g id="patch_23">
    <path clip-path="url(#p42f76d515a)" d="M 409.810204 242.2 
L 428.610714 242.2 
L 428.610714 242.2 
L 409.810204 242.2 
z
" style="fill:#0000ff;"/>
   </g>
   <g id="patch_24">
    <path clip-path="url(#p42f76d515a)" d="M 428.610714 242.2 
L 447.411224 242.2 
L 447.411224 242.2 
L 428.610714 242.2 
z
" style="fill:#0000ff;"/>
   </g>
   <g id="patch_25">
    <path clip-path="url(#p42f76d515a)" d="M 447.411224 242.2 
L 466.211735 242.2 
L 466.211735 242.2 
L 447.411224 242.2 
z
" style="fill:#0000ff;"/>
   </g>
   <g id="patch_26">
    <path clip-path="url(#p42f76d515a)" d="M 466.211735 242.2 
L 485.012245 242.2 
L 485.012245 242.2 
L 466.211735 242.2 
z
" style="fill:#0000ff;"/>
   </g>
   <g id="patch_27">
    <path clip-path="url(#p42f76d515a)" d="M 33.8 242.2 
L 52.60051 242.2 
L 52.60051 32.321498 
L 33.8 32.321498 
z
" style="fill:#ffa500;opacity:0.8;"/>
   </g>
   <g id="patch_28">
    <path clip-path="url(#p42f76d515a)" d="M 52.60051 242.2 
L 71.40102 242.2 
L 71.40102 215.20598 
L 52.60051 215.20598 
z
" style="fill:#ffa500;opacity:0.8;"/>
   </g>
   <g id="patch_29">
    <path clip-path="url(#p42f76d515a)" d="M 71.40102 242.2 
L 90.201531 242.2 
L 90.201531 242.2 
L 71.40102 242.2 
z
" style="fill:#ffa500;opacity:0.8;"/>
   </g>
   <g id="patch_30">
    <path clip-path="url(#p42f76d515a)" d="M 90.201531 242.2 
L 109.002041 242.2 
L 109.002041 240.850299 
L 90.201531 240.850299 
z
" style="fill:#ffa500;opacity:0.8;"/>
   </g>
   <g id="patch_31">
    <path clip-path="url(#p42f76d515a)" d="M 109.002041 242.2 
L 127.802551 242.2 
L 127.802551 242.2 
L 109.002041 242.2 
z
" style="fill:#ffa500;opacity:0.8;"/>
   </g>
   <g id="patch_32">
    <path clip-path="url(#p42f76d515a)" d="M 127.802551 242.2 
L 146.603061 242.2 
L 146.603061 242.2 
L 127.802551 242.2 
z
" style="fill:#ffa500;opacity:0.8;"/>
   </g>
   <g id="patch_33">
    <path clip-path="url(#p42f76d515a)" d="M 146.603061 242.2 
L 165.403571 242.2 
L 165.403571 242.2 
L 146.603061 242.2 
z
" style="fill:#ffa500;opacity:0.8;"/>
   </g>
   <g id="patch_34">
    <path clip-path="url(#p42f76d515a)" d="M 165.403571 242.2 
L 184.204082 242.2 
L 184.204082 242.2 
L 165.403571 242.2 
z
" style="fill:#ffa500;opacity:0.8;"/>
   </g>
   <g id="patch_35">
    <path clip-path="url(#p42f76d515a)" d="M 184.204082 242.2 
L 203.004592 242.2 
L 203.004592 242.2 
L 184.204082 242.2 
z
" style="fill:#ffa500;opacity:0.8;"/>
   </g>
   <g id="patch_36">
    <path clip-path="url(#p42f76d515a)" d="M 203.004592 242.2 
L 221.805102 242.2 
L 221.805102 242.2 
L 203.004592 242.2 
z
" style="fill:#ffa500;opacity:0.8;"/>
   </g>
   <g id="patch_37">
    <path clip-path="url(#p42f76d515a)" d="M 221.805102 242.2 
L 240.605612 242.2 
L 240.605612 242.2 
L 221.805102 242.2 
z
" style="fill:#ffa500;opacity:0.8;"/>
   </g>
   <g id="patch_38">
    <path clip-path="url(#p42f76d515a)" d="M 240.605612 242.2 
L 259.406122 242.2 
L 259.406122 242.2 
L 240.605612 242.2 
z
" style="fill:#ffa500;opacity:0.8;"/>
   </g>
   <g id="patch_39">
    <path clip-path="url(#p42f76d515a)" d="M 259.406122 242.2 
L 278.206633 242.2 
L 278.206633 242.2 
L 259.406122 242.2 
z
" style="fill:#ffa500;opacity:0.8;"/>
   </g>
   <g id="patch_40">
    <path clip-path="url(#p42f76d515a)" d="M 278.206633 242.2 
L 297.007143 242.2 
L 297.007143 242.2 
L 278.206633 242.2 
z
" style="fill:#ffa500;opacity:0.8;"/>
   </g>
   <g id="patch_41">
    <path clip-path="url(#p42f76d515a)" d="M 297.007143 242.2 
L 315.807653 242.2 
L 315.807653 242.2 
L 297.007143 242.2 
z
" style="fill:#ffa500;opacity:0.8;"/>
   </g>
   <g id="patch_42">
    <path clip-path="url(#p42f76d515a)" d="M 315.807653 242.2 
L 334.608163 242.2 
L 334.608163 242.2 
L 315.807653 242.2 
z
" style="fill:#ffa500;opacity:0.8;"/>
   </g>
   <g id="patch_43">
    <path clip-path="url(#p42f76d515a)" d="M 334.608163 242.2 
L 353.408673 242.2 
L 353.408673 242.2 
L 334.608163 242.2 
z
" style="fill:#ffa500;opacity:0.8;"/>
   </g>
   <g id="patch_44">
    <path clip-path="url(#p42f76d515a)" d="M 353.408673 242.2 
L 372.209184 242.2 
L 372.209184 242.2 
L 353.408673 242.2 
z
" style="fill:#ffa500;opacity:0.8;"/>
   </g>
   <g id="patch_45">
    <path clip-path="url(#p42f76d515a)" d="M 372.209184 242.2 
L 391.009694 242.2 
L 391.009694 242.2 
L 372.209184 242.2 
z
" style="fill:#ffa500;opacity:0.8;"/>
   </g>
   <g id="patch_46">
    <path clip-path="url(#p42f76d515a)" d="M 391.009694 242.2 
L 409.810204 242.2 
L 409.810204 242.2 
L 391.009694 242.2 
z
" style="fill:#ffa500;opacity:0.8;"/>
   </g>
   <g id="patch_47">
    <path clip-path="url(#p42f76d515a)" d="M 409.810204 242.2 
L 428.610714 242.2 
L 428.610714 242.2 
L 409.810204 242.2 
z
" style="fill:#ffa500;opacity:0.8;"/>
   </g>
   <g id="patch_48">
    <path clip-path="url(#p42f76d515a)" d="M 428.610714 242.2 
L 447.411224 242.2 
L 447.411224 242.2 
L 428.610714 242.2 
z
" style="fill:#ffa500;opacity:0.8;"/>
   </g>
   <g id="patch_49">
    <path clip-path="url(#p42f76d515a)" d="M 447.411224 242.2 
L 466.211735 242.2 
L 466.211735 242.2 
L 447.411224 242.2 
z
" style="fill:#ffa500;opacity:0.8;"/>
   </g>
   <g id="patch_50">
    <path clip-path="url(#p42f76d515a)" d="M 466.211735 242.2 
L 485.012245 242.2 
L 485.012245 242.2 
L 466.211735 242.2 
z
" style="fill:#ffa500;opacity:0.8;"/>
   </g>
   <g id="matplotlib.axis_1">
    <g id="xtick_1">
     <g id="line2d_1">
      <defs>
       <path d="M 0 0 
L 0 3.5 
" id="mb012360566" style="stroke:#000000;stroke-width:0.8;"/>
      </defs>
      <g>
       <use style="stroke:#000000;stroke-width:0.8;" x="43.200255" xlink:href="#mb012360566" y="242.2"/>
      </g>
     </g>
     <g id="text_1">
      <!-- 0 -->
      <g transform="translate(40.019005 256.798437)scale(0.1 -0.1)">
       <defs>
        <path d="M 2034 4250 
Q 1547 4250 1301 3770 
Q 1056 3291 1056 2328 
Q 1056 1369 1301 889 
Q 1547 409 2034 409 
Q 2525 409 2770 889 
Q 3016 1369 3016 2328 
Q 3016 3291 2770 3770 
Q 2525 4250 2034 4250 
z
M 2034 4750 
Q 2819 4750 3233 4129 
Q 3647 3509 3647 2328 
Q 3647 1150 3233 529 
Q 2819 -91 2034 -91 
Q 1250 -91 836 529 
Q 422 1150 422 2328 
Q 422 3509 836 4129 
Q 1250 4750 2034 4750 
z
" id="DejaVuSans-30" transform="scale(0.015625)"/>
       </defs>
       <use xlink:href="#DejaVuSans-30"/>
      </g>
     </g>
    </g>
    <g id="xtick_2">
     <g id="line2d_2">
      <g>
       <use style="stroke:#000000;stroke-width:0.8;" x="125.238845" xlink:href="#mb012360566" y="242.2"/>
      </g>
     </g>
     <g id="text_2">
      <!-- 20 -->
      <g transform="translate(118.876345 256.798437)scale(0.1 -0.1)">
       <defs>
        <path d="M 1228 531 
L 3431 531 
L 3431 0 
L 469 0 
L 469 531 
Q 828 903 1448 1529 
Q 2069 2156 2228 2338 
Q 2531 2678 2651 2914 
Q 2772 3150 2772 3378 
Q 2772 3750 2511 3984 
Q 2250 4219 1831 4219 
Q 1534 4219 1204 4116 
Q 875 4013 500 3803 
L 500 4441 
Q 881 4594 1212 4672 
Q 1544 4750 1819 4750 
Q 2544 4750 2975 4387 
Q 3406 4025 3406 3419 
Q 3406 3131 3298 2873 
Q 3191 2616 2906 2266 
Q 2828 2175 2409 1742 
Q 1991 1309 1228 531 
z
" id="DejaVuSans-32" transform="scale(0.015625)"/>
       </defs>
       <use xlink:href="#DejaVuSans-32"/>
       <use x="63.623047" xlink:href="#DejaVuSans-30"/>
      </g>
     </g>
    </g>
    <g id="xtick_3">
     <g id="line2d_3">
      <g>
       <use style="stroke:#000000;stroke-width:0.8;" x="207.277435" xlink:href="#mb012360566" y="242.2"/>
      </g>
     </g>
     <g id="text_3">
      <!-- 40 -->
      <g transform="translate(200.914935 256.798437)scale(0.1 -0.1)">
       <defs>
        <path d="M 2419 4116 
L 825 1625 
L 2419 1625 
L 2419 4116 
z
M 2253 4666 
L 3047 4666 
L 3047 1625 
L 3713 1625 
L 3713 1100 
L 3047 1100 
L 3047 0 
L 2419 0 
L 2419 1100 
L 313 1100 
L 313 1709 
L 2253 4666 
z
" id="DejaVuSans-34" transform="scale(0.015625)"/>
       </defs>
       <use xlink:href="#DejaVuSans-34"/>
       <use x="63.623047" xlink:href="#DejaVuSans-30"/>
      </g>
     </g>
    </g>
    <g id="xtick_4">
     <g id="line2d_4">
      <g>
       <use style="stroke:#000000;stroke-width:0.8;" x="289.316025" xlink:href="#mb012360566" y="242.2"/>
      </g>
     </g>
     <g id="text_4">
      <!-- 60 -->
      <g transform="translate(282.953525 256.798437)scale(0.1 -0.1)">
       <defs>
        <path d="M 2113 2584 
Q 1688 2584 1439 2293 
Q 1191 2003 1191 1497 
Q 1191 994 1439 701 
Q 1688 409 2113 409 
Q 2538 409 2786 701 
Q 3034 994 3034 1497 
Q 3034 2003 2786 2293 
Q 2538 2584 2113 2584 
z
M 3366 4563 
L 3366 3988 
Q 3128 4100 2886 4159 
Q 2644 4219 2406 4219 
Q 1781 4219 1451 3797 
Q 1122 3375 1075 2522 
Q 1259 2794 1537 2939 
Q 1816 3084 2150 3084 
Q 2853 3084 3261 2657 
Q 3669 2231 3669 1497 
Q 3669 778 3244 343 
Q 2819 -91 2113 -91 
Q 1303 -91 875 529 
Q 447 1150 447 2328 
Q 447 3434 972 4092 
Q 1497 4750 2381 4750 
Q 2619 4750 2861 4703 
Q 3103 4656 3366 4563 
z
" id="DejaVuSans-36" transform="scale(0.015625)"/>
       </defs>
       <use xlink:href="#DejaVuSans-36"/>
       <use x="63.623047" xlink:href="#DejaVuSans-30"/>
      </g>
     </g>
    </g>
    <g id="xtick_5">
     <g id="line2d_5">
      <g>
       <use style="stroke:#000000;stroke-width:0.8;" x="371.354615" xlink:href="#mb012360566" y="242.2"/>
      </g>
     </g>
     <g id="text_5">
      <!-- 80 -->
      <g transform="translate(364.992115 256.798437)scale(0.1 -0.1)">
       <defs>
        <path d="M 2034 2216 
Q 1584 2216 1326 1975 
Q 1069 1734 1069 1313 
Q 1069 891 1326 650 
Q 1584 409 2034 409 
Q 2484 409 2743 651 
Q 3003 894 3003 1313 
Q 3003 1734 2745 1975 
Q 2488 2216 2034 2216 
z
M 1403 2484 
Q 997 2584 770 2862 
Q 544 3141 544 3541 
Q 544 4100 942 4425 
Q 1341 4750 2034 4750 
Q 2731 4750 3128 4425 
Q 3525 4100 3525 3541 
Q 3525 3141 3298 2862 
Q 3072 2584 2669 2484 
Q 3125 2378 3379 2068 
Q 3634 1759 3634 1313 
Q 3634 634 3220 271 
Q 2806 -91 2034 -91 
Q 1263 -91 848 271 
Q 434 634 434 1313 
Q 434 1759 690 2068 
Q 947 2378 1403 2484 
z
M 1172 3481 
Q 1172 3119 1398 2916 
Q 1625 2713 2034 2713 
Q 2441 2713 2670 2916 
Q 2900 3119 2900 3481 
Q 2900 3844 2670 4047 
Q 2441 4250 2034 4250 
Q 1625 4250 1398 4047 
Q 1172 3844 1172 3481 
z
" id="DejaVuSans-38" transform="scale(0.015625)"/>
       </defs>
       <use xlink:href="#DejaVuSans-38"/>
       <use x="63.623047" xlink:href="#DejaVuSans-30"/>
      </g>
     </g>
    </g>
    <g id="xtick_6">
     <g id="line2d_6">
      <g>
       <use style="stroke:#000000;stroke-width:0.8;" x="453.393205" xlink:href="#mb012360566" y="242.2"/>
      </g>
     </g>
     <g id="text_6">
      <!-- 100 -->
      <g transform="translate(443.849455 256.798437)scale(0.1 -0.1)">
       <defs>
        <path d="M 794 531 
L 1825 531 
L 1825 4091 
L 703 3866 
L 703 4441 
L 1819 4666 
L 2450 4666 
L 2450 531 
L 3481 531 
L 3481 0 
L 794 0 
L 794 531 
z
" id="DejaVuSans-31" transform="scale(0.015625)"/>
       </defs>
       <use xlink:href="#DejaVuSans-31"/>
       <use x="63.623047" xlink:href="#DejaVuSans-30"/>
       <use x="127.246094" xlink:href="#DejaVuSans-30"/>
      </g>
     </g>
    </g>
    <g id="text_7">
     <!-- Number of replays per trial -->
     <g transform="translate(169.414844 273.515938)scale(0.14 -0.14)">
      <defs>
       <path d="M 628 4666 
L 1478 4666 
L 3547 763 
L 3547 4666 
L 4159 4666 
L 4159 0 
L 3309 0 
L 1241 3903 
L 1241 0 
L 628 0 
L 628 4666 
z
" id="DejaVuSans-4e" transform="scale(0.015625)"/>
       <path d="M 544 1381 
L 544 3500 
L 1119 3500 
L 1119 1403 
Q 1119 906 1312 657 
Q 1506 409 1894 409 
Q 2359 409 2629 706 
Q 2900 1003 2900 1516 
L 2900 3500 
L 3475 3500 
L 3475 0 
L 2900 0 
L 2900 538 
Q 2691 219 2414 64 
Q 2138 -91 1772 -91 
Q 1169 -91 856 284 
Q 544 659 544 1381 
z
M 1991 3584 
L 1991 3584 
z
" id="DejaVuSans-75" transform="scale(0.015625)"/>
       <path d="M 3328 2828 
Q 3544 3216 3844 3400 
Q 4144 3584 4550 3584 
Q 5097 3584 5394 3201 
Q 5691 2819 5691 2113 
L 5691 0 
L 5113 0 
L 5113 2094 
Q 5113 2597 4934 2840 
Q 4756 3084 4391 3084 
Q 3944 3084 3684 2787 
Q 3425 2491 3425 1978 
L 3425 0 
L 2847 0 
L 2847 2094 
Q 2847 2600 2669 2842 
Q 2491 3084 2119 3084 
Q 1678 3084 1418 2786 
Q 1159 2488 1159 1978 
L 1159 0 
L 581 0 
L 581 3500 
L 1159 3500 
L 1159 2956 
Q 1356 3278 1631 3431 
Q 1906 3584 2284 3584 
Q 2666 3584 2933 3390 
Q 3200 3197 3328 2828 
z
" id="DejaVuSans-6d" transform="scale(0.015625)"/>
       <path d="M 3116 1747 
Q 3116 2381 2855 2742 
Q 2594 3103 2138 3103 
Q 1681 3103 1420 2742 
Q 1159 2381 1159 1747 
Q 1159 1113 1420 752 
Q 1681 391 2138 391 
Q 2594 391 2855 752 
Q 3116 1113 3116 1747 
z
M 1159 2969 
Q 1341 3281 1617 3432 
Q 1894 3584 2278 3584 
Q 2916 3584 3314 3078 
Q 3713 2572 3713 1747 
Q 3713 922 3314 415 
Q 2916 -91 2278 -91 
Q 1894 -91 1617 61 
Q 1341 213 1159 525 
L 1159 0 
L 581 0 
L 581 4863 
L 1159 4863 
L 1159 2969 
z
" id="DejaVuSans-62" transform="scale(0.015625)"/>
       <path d="M 3597 1894 
L 3597 1613 
L 953 1613 
Q 991 1019 1311 708 
Q 1631 397 2203 397 
Q 2534 397 2845 478 
Q 3156 559 3463 722 
L 3463 178 
Q 3153 47 2828 -22 
Q 2503 -91 2169 -91 
Q 1331 -91 842 396 
Q 353 884 353 1716 
Q 353 2575 817 3079 
Q 1281 3584 2069 3584 
Q 2775 3584 3186 3129 
Q 3597 2675 3597 1894 
z
M 3022 2063 
Q 3016 2534 2758 2815 
Q 2500 3097 2075 3097 
Q 1594 3097 1305 2825 
Q 1016 2553 972 2059 
L 3022 2063 
z
" id="DejaVuSans-65" transform="scale(0.015625)"/>
       <path d="M 2631 2963 
Q 2534 3019 2420 3045 
Q 2306 3072 2169 3072 
Q 1681 3072 1420 2755 
Q 1159 2438 1159 1844 
L 1159 0 
L 581 0 
L 581 3500 
L 1159 3500 
L 1159 2956 
Q 1341 3275 1631 3429 
Q 1922 3584 2338 3584 
Q 2397 3584 2469 3576 
Q 2541 3569 2628 3553 
L 2631 2963 
z
" id="DejaVuSans-72" transform="scale(0.015625)"/>
       <path id="DejaVuSans-20" transform="scale(0.015625)"/>
       <path d="M 1959 3097 
Q 1497 3097 1228 2736 
Q 959 2375 959 1747 
Q 959 1119 1226 758 
Q 1494 397 1959 397 
Q 2419 397 2687 759 
Q 2956 1122 2956 1747 
Q 2956 2369 2687 2733 
Q 2419 3097 1959 3097 
z
M 1959 3584 
Q 2709 3584 3137 3096 
Q 3566 2609 3566 1747 
Q 3566 888 3137 398 
Q 2709 -91 1959 -91 
Q 1206 -91 779 398 
Q 353 888 353 1747 
Q 353 2609 779 3096 
Q 1206 3584 1959 3584 
z
" id="DejaVuSans-6f" transform="scale(0.015625)"/>
       <path d="M 2375 4863 
L 2375 4384 
L 1825 4384 
Q 1516 4384 1395 4259 
Q 1275 4134 1275 3809 
L 1275 3500 
L 2222 3500 
L 2222 3053 
L 1275 3053 
L 1275 0 
L 697 0 
L 697 3053 
L 147 3053 
L 147 3500 
L 697 3500 
L 697 3744 
Q 697 4328 969 4595 
Q 1241 4863 1831 4863 
L 2375 4863 
z
" id="DejaVuSans-66" transform="scale(0.015625)"/>
       <path d="M 1159 525 
L 1159 -1331 
L 581 -1331 
L 581 3500 
L 1159 3500 
L 1159 2969 
Q 1341 3281 1617 3432 
Q 1894 3584 2278 3584 
Q 2916 3584 3314 3078 
Q 3713 2572 3713 1747 
Q 3713 922 3314 415 
Q 2916 -91 2278 -91 
Q 1894 -91 1617 61 
Q 1341 213 1159 525 
z
M 3116 1747 
Q 3116 2381 2855 2742 
Q 2594 3103 2138 3103 
Q 1681 3103 1420 2742 
Q 1159 2381 1159 1747 
Q 1159 1113 1420 752 
Q 1681 391 2138 391 
Q 2594 391 2855 752 
Q 3116 1113 3116 1747 
z
" id="DejaVuSans-70" transform="scale(0.015625)"/>
       <path d="M 603 4863 
L 1178 4863 
L 1178 0 
L 603 0 
L 603 4863 
z
" id="DejaVuSans-6c" transform="scale(0.015625)"/>
       <path d="M 2194 1759 
Q 1497 1759 1228 1600 
Q 959 1441 959 1056 
Q 959 750 1161 570 
Q 1363 391 1709 391 
Q 2188 391 2477 730 
Q 2766 1069 2766 1631 
L 2766 1759 
L 2194 1759 
z
M 3341 1997 
L 3341 0 
L 2766 0 
L 2766 531 
Q 2569 213 2275 61 
Q 1981 -91 1556 -91 
Q 1019 -91 701 211 
Q 384 513 384 1019 
Q 384 1609 779 1909 
Q 1175 2209 1959 2209 
L 2766 2209 
L 2766 2266 
Q 2766 2663 2505 2880 
Q 2244 3097 1772 3097 
Q 1472 3097 1187 3025 
Q 903 2953 641 2809 
L 641 3341 
Q 956 3463 1253 3523 
Q 1550 3584 1831 3584 
Q 2591 3584 2966 3190 
Q 3341 2797 3341 1997 
z
" id="DejaVuSans-61" transform="scale(0.015625)"/>
       <path d="M 2059 -325 
Q 1816 -950 1584 -1140 
Q 1353 -1331 966 -1331 
L 506 -1331 
L 506 -850 
L 844 -850 
Q 1081 -850 1212 -737 
Q 1344 -625 1503 -206 
L 1606 56 
L 191 3500 
L 800 3500 
L 1894 763 
L 2988 3500 
L 3597 3500 
L 2059 -325 
z
" id="DejaVuSans-79" transform="scale(0.015625)"/>
       <path d="M 2834 3397 
L 2834 2853 
Q 2591 2978 2328 3040 
Q 2066 3103 1784 3103 
Q 1356 3103 1142 2972 
Q 928 2841 928 2578 
Q 928 2378 1081 2264 
Q 1234 2150 1697 2047 
L 1894 2003 
Q 2506 1872 2764 1633 
Q 3022 1394 3022 966 
Q 3022 478 2636 193 
Q 2250 -91 1575 -91 
Q 1294 -91 989 -36 
Q 684 19 347 128 
L 347 722 
Q 666 556 975 473 
Q 1284 391 1588 391 
Q 1994 391 2212 530 
Q 2431 669 2431 922 
Q 2431 1156 2273 1281 
Q 2116 1406 1581 1522 
L 1381 1569 
Q 847 1681 609 1914 
Q 372 2147 372 2553 
Q 372 3047 722 3315 
Q 1072 3584 1716 3584 
Q 2034 3584 2315 3537 
Q 2597 3491 2834 3397 
z
" id="DejaVuSans-73" transform="scale(0.015625)"/>
       <path d="M 1172 4494 
L 1172 3500 
L 2356 3500 
L 2356 3053 
L 1172 3053 
L 1172 1153 
Q 1172 725 1289 603 
Q 1406 481 1766 481 
L 2356 481 
L 2356 0 
L 1766 0 
Q 1100 0 847 248 
Q 594 497 594 1153 
L 594 3053 
L 172 3053 
L 172 3500 
L 594 3500 
L 594 4494 
L 1172 4494 
z
" id="DejaVuSans-74" transform="scale(0.015625)"/>
       <path d="M 603 3500 
L 1178 3500 
L 1178 0 
L 603 0 
L 603 3500 
z
M 603 4863 
L 1178 4863 
L 1178 4134 
L 603 4134 
L 603 4863 
z
" id="DejaVuSans-69" transform="scale(0.015625)"/>
      </defs>
      <use xlink:href="#DejaVuSans-4e"/>
      <use x="74.804688" xlink:href="#DejaVuSans-75"/>
      <use x="138.183594" xlink:href="#DejaVuSans-6d"/>
      <use x="235.595703" xlink:href="#DejaVuSans-62"/>
      <use x="299.072266" xlink:href="#DejaVuSans-65"/>
      <use x="360.595703" xlink:href="#DejaVuSans-72"/>
      <use x="401.708984" xlink:href="#DejaVuSans-20"/>
      <use x="433.496094" xlink:href="#DejaVuSans-6f"/>
      <use x="494.677734" xlink:href="#DejaVuSans-66"/>
      <use x="529.882812" xlink:href="#DejaVuSans-20"/>
      <use x="561.669922" xlink:href="#DejaVuSans-72"/>
      <use x="600.533203" xlink:href="#DejaVuSans-65"/>
      <use x="662.056641" xlink:href="#DejaVuSans-70"/>
      <use x="725.533203" xlink:href="#DejaVuSans-6c"/>
      <use x="753.316406" xlink:href="#DejaVuSans-61"/>
      <use x="814.595703" xlink:href="#DejaVuSans-79"/>
      <use x="873.775391" xlink:href="#DejaVuSans-73"/>
      <use x="925.875" xlink:href="#DejaVuSans-20"/>
      <use x="957.662109" xlink:href="#DejaVuSans-70"/>
      <use x="1021.138672" xlink:href="#DejaVuSans-65"/>
      <use x="1082.662109" xlink:href="#DejaVuSans-72"/>
      <use x="1123.775391" xlink:href="#DejaVuSans-20"/>
      <use x="1155.5625" xlink:href="#DejaVuSans-74"/>
      <use x="1194.771484" xlink:href="#DejaVuSans-72"/>
      <use x="1235.884766" xlink:href="#DejaVuSans-69"/>
      <use x="1263.667969" xlink:href="#DejaVuSans-61"/>
      <use x="1324.947266" xlink:href="#DejaVuSans-6c"/>
     </g>
    </g>
   </g>
   <g id="matplotlib.axis_2">
    <g id="ytick_1">
     <g id="line2d_7">
      <defs>
       <path d="M 0 0 
L -3.5 0 
" id="m67d693c49a" style="stroke:#000000;stroke-width:0.8;"/>
      </defs>
      <g>
       <use style="stroke:#000000;stroke-width:0.8;" x="33.8" xlink:href="#m67d693c49a" y="242.2"/>
      </g>
     </g>
     <g id="text_8">
      <!-- 0.0 -->
      <g transform="translate(10.896875 245.999219)scale(0.1 -0.1)">
       <defs>
        <path d="M 684 794 
L 1344 794 
L 1344 0 
L 684 0 
L 684 794 
z
" id="DejaVuSans-2e" transform="scale(0.015625)"/>
       </defs>
       <use xlink:href="#DejaVuSans-30"/>
       <use x="63.623047" xlink:href="#DejaVuSans-2e"/>
       <use x="95.410156" xlink:href="#DejaVuSans-30"/>
      </g>
     </g>
    </g>
    <g id="ytick_2">
     <g id="line2d_8">
      <g>
       <use style="stroke:#000000;stroke-width:0.8;" x="33.8" xlink:href="#m67d693c49a" y="218.377778"/>
      </g>
     </g>
     <g id="text_9">
      <!-- 0.1 -->
      <g transform="translate(10.896875 222.176997)scale(0.1 -0.1)">
       <use xlink:href="#DejaVuSans-30"/>
       <use x="63.623047" xlink:href="#DejaVuSans-2e"/>
       <use x="95.410156" xlink:href="#DejaVuSans-31"/>
      </g>
     </g>
    </g>
    <g id="ytick_3">
     <g id="line2d_9">
      <g>
       <use style="stroke:#000000;stroke-width:0.8;" x="33.8" xlink:href="#m67d693c49a" y="194.555556"/>
      </g>
     </g>
     <g id="text_10">
      <!-- 0.2 -->
      <g transform="translate(10.896875 198.354774)scale(0.1 -0.1)">
       <use xlink:href="#DejaVuSans-30"/>
       <use x="63.623047" xlink:href="#DejaVuSans-2e"/>
       <use x="95.410156" xlink:href="#DejaVuSans-32"/>
      </g>
     </g>
    </g>
    <g id="ytick_4">
     <g id="line2d_10">
      <g>
       <use style="stroke:#000000;stroke-width:0.8;" x="33.8" xlink:href="#m67d693c49a" y="170.733333"/>
      </g>
     </g>
     <g id="text_11">
      <!-- 0.3 -->
      <g transform="translate(10.896875 174.532552)scale(0.1 -0.1)">
       <defs>
        <path d="M 2597 2516 
Q 3050 2419 3304 2112 
Q 3559 1806 3559 1356 
Q 3559 666 3084 287 
Q 2609 -91 1734 -91 
Q 1441 -91 1130 -33 
Q 819 25 488 141 
L 488 750 
Q 750 597 1062 519 
Q 1375 441 1716 441 
Q 2309 441 2620 675 
Q 2931 909 2931 1356 
Q 2931 1769 2642 2001 
Q 2353 2234 1838 2234 
L 1294 2234 
L 1294 2753 
L 1863 2753 
Q 2328 2753 2575 2939 
Q 2822 3125 2822 3475 
Q 2822 3834 2567 4026 
Q 2313 4219 1838 4219 
Q 1578 4219 1281 4162 
Q 984 4106 628 3988 
L 628 4550 
Q 988 4650 1302 4700 
Q 1616 4750 1894 4750 
Q 2613 4750 3031 4423 
Q 3450 4097 3450 3541 
Q 3450 3153 3228 2886 
Q 3006 2619 2597 2516 
z
" id="DejaVuSans-33" transform="scale(0.015625)"/>
       </defs>
       <use xlink:href="#DejaVuSans-30"/>
       <use x="63.623047" xlink:href="#DejaVuSans-2e"/>
       <use x="95.410156" xlink:href="#DejaVuSans-33"/>
      </g>
     </g>
    </g>
    <g id="ytick_5">
     <g id="line2d_11">
      <g>
       <use style="stroke:#000000;stroke-width:0.8;" x="33.8" xlink:href="#m67d693c49a" y="146.911111"/>
      </g>
     </g>
     <g id="text_12">
      <!-- 0.4 -->
      <g transform="translate(10.896875 150.71033)scale(0.1 -0.1)">
       <use xlink:href="#DejaVuSans-30"/>
       <use x="63.623047" xlink:href="#DejaVuSans-2e"/>
       <use x="95.410156" xlink:href="#DejaVuSans-34"/>
      </g>
     </g>
    </g>
    <g id="ytick_6">
     <g id="line2d_12">
      <g>
       <use style="stroke:#000000;stroke-width:0.8;" x="33.8" xlink:href="#m67d693c49a" y="123.088889"/>
      </g>
     </g>
     <g id="text_13">
      <!-- 0.5 -->
      <g transform="translate(10.896875 126.888108)scale(0.1 -0.1)">
       <defs>
        <path d="M 691 4666 
L 3169 4666 
L 3169 4134 
L 1269 4134 
L 1269 2991 
Q 1406 3038 1543 3061 
Q 1681 3084 1819 3084 
Q 2600 3084 3056 2656 
Q 3513 2228 3513 1497 
Q 3513 744 3044 326 
Q 2575 -91 1722 -91 
Q 1428 -91 1123 -41 
Q 819 9 494 109 
L 494 744 
Q 775 591 1075 516 
Q 1375 441 1709 441 
Q 2250 441 2565 725 
Q 2881 1009 2881 1497 
Q 2881 1984 2565 2268 
Q 2250 2553 1709 2553 
Q 1456 2553 1204 2497 
Q 953 2441 691 2322 
L 691 4666 
z
" id="DejaVuSans-35" transform="scale(0.015625)"/>
       </defs>
       <use xlink:href="#DejaVuSans-30"/>
       <use x="63.623047" xlink:href="#DejaVuSans-2e"/>
       <use x="95.410156" xlink:href="#DejaVuSans-35"/>
      </g>
     </g>
    </g>
    <g id="ytick_7">
     <g id="line2d_13">
      <g>
       <use style="stroke:#000000;stroke-width:0.8;" x="33.8" xlink:href="#m67d693c49a" y="99.266667"/>
      </g>
     </g>
     <g id="text_14">
      <!-- 0.6 -->
      <g transform="translate(10.896875 103.065885)scale(0.1 -0.1)">
       <use xlink:href="#DejaVuSans-30"/>
       <use x="63.623047" xlink:href="#DejaVuSans-2e"/>
       <use x="95.410156" xlink:href="#DejaVuSans-36"/>
      </g>
     </g>
    </g>
    <g id="ytick_8">
     <g id="line2d_14">
      <g>
       <use style="stroke:#000000;stroke-width:0.8;" x="33.8" xlink:href="#m67d693c49a" y="75.444444"/>
      </g>
     </g>
     <g id="text_15">
      <!-- 0.7 -->
      <g transform="translate(10.896875 79.243663)scale(0.1 -0.1)">
       <defs>
        <path d="M 525 4666 
L 3525 4666 
L 3525 4397 
L 1831 0 
L 1172 0 
L 2766 4134 
L 525 4134 
L 525 4666 
z
" id="DejaVuSans-37" transform="scale(0.015625)"/>
       </defs>
       <use xlink:href="#DejaVuSans-30"/>
       <use x="63.623047" xlink:href="#DejaVuSans-2e"/>
       <use x="95.410156" xlink:href="#DejaVuSans-37"/>
      </g>
     </g>
    </g>
    <g id="ytick_9">
     <g id="line2d_15">
      <g>
       <use style="stroke:#000000;stroke-width:0.8;" x="33.8" xlink:href="#m67d693c49a" y="51.622222"/>
      </g>
     </g>
     <g id="text_16">
      <!-- 0.8 -->
      <g transform="translate(10.896875 55.421441)scale(0.1 -0.1)">
       <use xlink:href="#DejaVuSans-30"/>
       <use x="63.623047" xlink:href="#DejaVuSans-2e"/>
       <use x="95.410156" xlink:href="#DejaVuSans-38"/>
      </g>
     </g>
    </g>
    <g id="ytick_10">
     <g id="line2d_16">
      <g>
       <use style="stroke:#000000;stroke-width:0.8;" x="33.8" xlink:href="#m67d693c49a" y="27.8"/>
      </g>
     </g>
     <g id="text_17">
      <!-- 0.9 -->
      <g transform="translate(10.896875 31.599219)scale(0.1 -0.1)">
       <defs>
        <path d="M 703 97 
L 703 672 
Q 941 559 1184 500 
Q 1428 441 1663 441 
Q 2288 441 2617 861 
Q 2947 1281 2994 2138 
Q 2813 1869 2534 1725 
Q 2256 1581 1919 1581 
Q 1219 1581 811 2004 
Q 403 2428 403 3163 
Q 403 3881 828 4315 
Q 1253 4750 1959 4750 
Q 2769 4750 3195 4129 
Q 3622 3509 3622 2328 
Q 3622 1225 3098 567 
Q 2575 -91 1691 -91 
Q 1453 -91 1209 -44 
Q 966 3 703 97 
z
M 1959 2075 
Q 2384 2075 2632 2365 
Q 2881 2656 2881 3163 
Q 2881 3666 2632 3958 
Q 2384 4250 1959 4250 
Q 1534 4250 1286 3958 
Q 1038 3666 1038 3163 
Q 1038 2656 1286 2365 
Q 1534 2075 1959 2075 
z
" id="DejaVuSans-39" transform="scale(0.015625)"/>
       </defs>
       <use xlink:href="#DejaVuSans-30"/>
       <use x="63.623047" xlink:href="#DejaVuSans-2e"/>
       <use x="95.410156" xlink:href="#DejaVuSans-39"/>
      </g>
     </g>
    </g>
   </g>
   <g id="patch_51">
    <path d="M 33.8 242.2 
L 33.8 27.8 
" style="fill:none;stroke:#000000;stroke-linecap:square;stroke-linejoin:miter;stroke-width:0.8;"/>
   </g>
   <g id="patch_52">
    <path d="M 494.4125 242.2 
L 494.4125 27.8 
" style="fill:none;stroke:#000000;stroke-linecap:square;stroke-linejoin:miter;stroke-width:0.8;"/>
   </g>
   <g id="patch_53">
    <path d="M 33.8 242.2 
L 494.4125 242.2 
" style="fill:none;stroke:#000000;stroke-linecap:square;stroke-linejoin:miter;stroke-width:0.8;"/>
   </g>
   <g id="patch_54">
    <path d="M 33.8 27.8 
L 494.4125 27.8 
" style="fill:none;stroke:#000000;stroke-linecap:square;stroke-linejoin:miter;stroke-width:0.8;"/>
   </g>
   <g id="text_18">
    <!-- $t=-5.863E+00, p=4.559E-09$ -->
    <g transform="translate(161.26625 21.8)scale(0.12 -0.12)">
     <defs>
      <path d="M 2706 3500 
L 2619 3053 
L 1472 3053 
L 1100 1153 
Q 1081 1047 1072 975 
Q 1063 903 1063 863 
Q 1063 663 1183 572 
Q 1303 481 1569 481 
L 2150 481 
L 2053 0 
L 1503 0 
Q 991 0 739 200 
Q 488 400 488 806 
Q 488 878 497 964 
Q 506 1050 525 1153 
L 897 3053 
L 409 3053 
L 500 3500 
L 978 3500 
L 1172 4494 
L 1747 4494 
L 1556 3500 
L 2706 3500 
z
" id="DejaVuSans-Oblique-74" transform="scale(0.015625)"/>
      <path d="M 678 2906 
L 4684 2906 
L 4684 2381 
L 678 2381 
L 678 2906 
z
M 678 1631 
L 4684 1631 
L 4684 1100 
L 678 1100 
L 678 1631 
z
" id="DejaVuSans-3d" transform="scale(0.015625)"/>
      <path d="M 678 2272 
L 4684 2272 
L 4684 1741 
L 678 1741 
L 678 2272 
z
" id="DejaVuSans-2212" transform="scale(0.015625)"/>
      <path d="M 1081 4666 
L 4031 4666 
L 3928 4134 
L 1606 4134 
L 1338 2753 
L 3566 2753 
L 3463 2222 
L 1234 2222 
L 909 531 
L 3284 531 
L 3181 0 
L 172 0 
L 1081 4666 
z
" id="DejaVuSans-Oblique-45" transform="scale(0.015625)"/>
      <path d="M 2944 4013 
L 2944 2272 
L 4684 2272 
L 4684 1741 
L 2944 1741 
L 2944 0 
L 2419 0 
L 2419 1741 
L 678 1741 
L 678 2272 
L 2419 2272 
L 2419 4013 
L 2944 4013 
z
" id="DejaVuSans-2b" transform="scale(0.015625)"/>
      <path d="M 750 794 
L 1409 794 
L 1409 256 
L 897 -744 
L 494 -744 
L 750 256 
L 750 794 
z
" id="DejaVuSans-2c" transform="scale(0.015625)"/>
      <path d="M 3175 2156 
Q 3175 2616 2975 2859 
Q 2775 3103 2400 3103 
Q 2144 3103 1911 2972 
Q 1678 2841 1497 2591 
Q 1319 2344 1212 1994 
Q 1106 1644 1106 1300 
Q 1106 863 1306 627 
Q 1506 391 1875 391 
Q 2147 391 2380 519 
Q 2613 647 2778 891 
Q 2956 1147 3065 1494 
Q 3175 1841 3175 2156 
z
M 1394 2969 
Q 1625 3272 1939 3428 
Q 2253 3584 2638 3584 
Q 3175 3584 3472 3232 
Q 3769 2881 3769 2247 
Q 3769 1728 3584 1258 
Q 3400 788 3053 416 
Q 2822 169 2531 39 
Q 2241 -91 1919 -91 
Q 1547 -91 1294 64 
Q 1041 219 916 525 
L 556 -1331 
L -19 -1331 
L 922 3500 
L 1497 3500 
L 1394 2969 
z
" id="DejaVuSans-Oblique-70" transform="scale(0.015625)"/>
     </defs>
     <use transform="translate(0 0.78125)" xlink:href="#DejaVuSans-Oblique-74"/>
     <use transform="translate(58.691406 0.78125)" xlink:href="#DejaVuSans-3d"/>
     <use transform="translate(181.445312 0.78125)" xlink:href="#DejaVuSans-2212"/>
     <use transform="translate(284.716797 0.78125)" xlink:href="#DejaVuSans-35"/>
     <use transform="translate(348.339844 0.78125)" xlink:href="#DejaVuSans-2e"/>
     <use transform="translate(377.501953 0.78125)" xlink:href="#DejaVuSans-38"/>
     <use transform="translate(441.125 0.78125)" xlink:href="#DejaVuSans-36"/>
     <use transform="translate(504.748047 0.78125)" xlink:href="#DejaVuSans-33"/>
     <use transform="translate(568.371094 0.78125)" xlink:href="#DejaVuSans-Oblique-45"/>
     <use transform="translate(651.037109 0.78125)" xlink:href="#DejaVuSans-2b"/>
     <use transform="translate(754.308594 0.78125)" xlink:href="#DejaVuSans-30"/>
     <use transform="translate(817.931641 0.78125)" xlink:href="#DejaVuSans-30"/>
     <use transform="translate(881.554688 0.78125)" xlink:href="#DejaVuSans-2c"/>
     <use transform="translate(932.824219 0.78125)" xlink:href="#DejaVuSans-Oblique-70"/>
     <use transform="translate(1015.783203 0.78125)" xlink:href="#DejaVuSans-3d"/>
     <use transform="translate(1119.054688 0.78125)" xlink:href="#DejaVuSans-34"/>
     <use transform="translate(1182.677734 0.78125)" xlink:href="#DejaVuSans-2e"/>
     <use transform="translate(1214.464844 0.78125)" xlink:href="#DejaVuSans-35"/>
     <use transform="translate(1278.087891 0.78125)" xlink:href="#DejaVuSans-35"/>
     <use transform="translate(1336.210938 0.78125)" xlink:href="#DejaVuSans-39"/>
     <use transform="translate(1399.833984 0.78125)" xlink:href="#DejaVuSans-Oblique-45"/>
     <use transform="translate(1482.5 0.78125)" xlink:href="#DejaVuSans-2212"/>
     <use transform="translate(1585.771484 0.78125)" xlink:href="#DejaVuSans-30"/>
     <use transform="translate(1649.394531 0.78125)" xlink:href="#DejaVuSans-39"/>
    </g>
   </g>
  </g>
  <g id="axes_2">
   <g id="patch_55">
    <path d="M 536.5875 242.2 
L 997.2 242.2 
L 997.2 27.8 
L 536.5875 27.8 
z
" style="fill:none;"/>
   </g>
   <g id="patch_56">
    <path clip-path="url(#p807f7c4fb5)" d="M 536.5875 135 
L 548.398077 135 
L 548.398077 135 
L 536.5875 135 
z
" style="fill:#0000ff;"/>
   </g>
   <g id="patch_57">
    <path clip-path="url(#p807f7c4fb5)" d="M 548.398077 135 
L 560.208654 135 
L 560.208654 135 
L 548.398077 135 
z
" style="fill:#0000ff;"/>
   </g>
   <g id="patch_58">
    <path clip-path="url(#p807f7c4fb5)" d="M 560.208654 135 
L 572.019231 135 
L 572.019231 135 
L 560.208654 135 
z
" style="fill:#0000ff;"/>
   </g>
   <g id="patch_59">
    <path clip-path="url(#p807f7c4fb5)" d="M 572.019231 135 
L 583.829808 135 
L 583.829808 135 
L 572.019231 135 
z
" style="fill:#0000ff;"/>
   </g>
   <g id="patch_60">
    <path clip-path="url(#p807f7c4fb5)" d="M 583.829808 135 
L 595.640385 135 
L 595.640385 135 
L 583.829808 135 
z
" style="fill:#0000ff;"/>
   </g>
   <g id="patch_61">
    <path clip-path="url(#p807f7c4fb5)" d="M 595.640385 135 
L 607.450962 135 
L 607.450962 124.336992 
L 595.640385 124.336992 
z
" style="fill:#0000ff;"/>
   </g>
   <g id="patch_62">
    <path clip-path="url(#p807f7c4fb5)" d="M 607.450962 135 
L 619.261538 135 
L 619.261538 119.924713 
L 607.450962 119.924713 
z
" style="fill:#0000ff;"/>
   </g>
   <g id="patch_63">
    <path clip-path="url(#p807f7c4fb5)" d="M 619.261538 135 
L 631.072115 135 
L 631.072115 86.832619 
L 619.261538 86.832619 
z
" style="fill:#0000ff;"/>
   </g>
   <g id="patch_64">
    <path clip-path="url(#p807f7c4fb5)" d="M 631.072115 135 
L 642.882692 135 
L 642.882692 89.406448 
L 631.072115 89.406448 
z
" style="fill:#0000ff;"/>
   </g>
   <g id="patch_65">
    <path clip-path="url(#p807f7c4fb5)" d="M 642.882692 135 
L 654.693269 135 
L 654.693269 91.244898 
L 642.882692 91.244898 
z
" style="fill:#0000ff;"/>
   </g>
   <g id="patch_66">
    <path clip-path="url(#p807f7c4fb5)" d="M 654.693269 135 
L 666.503846 135 
L 666.503846 109.997085 
L 654.693269 109.997085 
z
" style="fill:#0000ff;"/>
   </g>
   <g id="patch_67">
    <path clip-path="url(#p807f7c4fb5)" d="M 666.503846 135 
L 678.314423 135 
L 678.314423 123.233922 
L 666.503846 123.233922 
z
" style="fill:#0000ff;"/>
   </g>
   <g id="patch_68">
    <path clip-path="url(#p807f7c4fb5)" d="M 678.314423 135 
L 690.125 135 
L 690.125 132.058481 
L 678.314423 132.058481 
z
" style="fill:#0000ff;"/>
   </g>
   <g id="patch_69">
    <path clip-path="url(#p807f7c4fb5)" d="M 690.125 135 
L 701.935577 135 
L 701.935577 132.058481 
L 690.125 132.058481 
z
" style="fill:#0000ff;"/>
   </g>
   <g id="patch_70">
    <path clip-path="url(#p807f7c4fb5)" d="M 701.935577 135 
L 713.746154 135 
L 713.746154 130.220031 
L 701.935577 130.220031 
z
" style="fill:#0000ff;"/>
   </g>
   <g id="patch_71">
    <path clip-path="url(#p807f7c4fb5)" d="M 713.746154 135 
L 725.556731 135 
L 725.556731 121.763162 
L 713.746154 121.763162 
z
" style="fill:#0000ff;"/>
   </g>
   <g id="patch_72">
    <path clip-path="url(#p807f7c4fb5)" d="M 725.556731 135 
L 737.367308 135 
L 737.367308 119.189333 
L 725.556731 119.189333 
z
" style="fill:#0000ff;"/>
   </g>
   <g id="patch_73">
    <path clip-path="url(#p807f7c4fb5)" d="M 737.367308 135 
L 749.177885 135 
L 749.177885 121.027783 
L 737.367308 121.027783 
z
" style="fill:#0000ff;"/>
   </g>
   <g id="patch_74">
    <path clip-path="url(#p807f7c4fb5)" d="M 749.177885 135 
L 760.988462 135 
L 760.988462 116.983193 
L 749.177885 116.983193 
z
" style="fill:#0000ff;"/>
   </g>
   <g id="patch_75">
    <path clip-path="url(#p807f7c4fb5)" d="M 760.988462 135 
L 772.799038 135 
L 772.799038 115.144744 
L 760.988462 115.144744 
z
" style="fill:#0000ff;"/>
   </g>
   <g id="patch_76">
    <path clip-path="url(#p807f7c4fb5)" d="M 772.799038 135 
L 784.609615 135 
L 784.609615 120.292403 
L 772.799038 120.292403 
z
" style="fill:#0000ff;"/>
   </g>
   <g id="patch_77">
    <path clip-path="url(#p807f7c4fb5)" d="M 784.609615 135 
L 796.420192 135 
L 796.420192 135 
L 784.609615 135 
z
" style="fill:#0000ff;"/>
   </g>
   <g id="patch_78">
    <path clip-path="url(#p807f7c4fb5)" d="M 796.420192 135 
L 808.230769 135 
L 808.230769 135 
L 796.420192 135 
z
" style="fill:#0000ff;"/>
   </g>
   <g id="patch_79">
    <path clip-path="url(#p807f7c4fb5)" d="M 808.230769 135 
L 820.041346 135 
L 820.041346 135 
L 808.230769 135 
z
" style="fill:#0000ff;"/>
   </g>
   <g id="patch_80">
    <path clip-path="url(#p807f7c4fb5)" d="M 820.041346 135 
L 831.851923 135 
L 831.851923 135 
L 820.041346 135 
z
" style="fill:#0000ff;"/>
   </g>
   <g id="patch_81">
    <path clip-path="url(#p807f7c4fb5)" d="M 831.851923 135 
L 843.6625 135 
L 843.6625 135 
L 831.851923 135 
z
" style="fill:#0000ff;"/>
   </g>
   <g id="patch_82">
    <path clip-path="url(#p807f7c4fb5)" d="M 843.6625 135 
L 855.473077 135 
L 855.473077 135 
L 843.6625 135 
z
" style="fill:#0000ff;"/>
   </g>
   <g id="patch_83">
    <path clip-path="url(#p807f7c4fb5)" d="M 855.473077 135 
L 867.283654 135 
L 867.283654 135 
L 855.473077 135 
z
" style="fill:#0000ff;"/>
   </g>
   <g id="patch_84">
    <path clip-path="url(#p807f7c4fb5)" d="M 867.283654 135 
L 879.094231 135 
L 879.094231 135 
L 867.283654 135 
z
" style="fill:#0000ff;"/>
   </g>
   <g id="patch_85">
    <path clip-path="url(#p807f7c4fb5)" d="M 879.094231 135 
L 890.904808 135 
L 890.904808 135 
L 879.094231 135 
z
" style="fill:#0000ff;"/>
   </g>
   <g id="patch_86">
    <path clip-path="url(#p807f7c4fb5)" d="M 890.904808 135 
L 902.715385 135 
L 902.715385 135 
L 890.904808 135 
z
" style="fill:#0000ff;"/>
   </g>
   <g id="patch_87">
    <path clip-path="url(#p807f7c4fb5)" d="M 902.715385 135 
L 914.525962 135 
L 914.525962 135 
L 902.715385 135 
z
" style="fill:#0000ff;"/>
   </g>
   <g id="patch_88">
    <path clip-path="url(#p807f7c4fb5)" d="M 914.525962 135 
L 926.336538 135 
L 926.336538 135 
L 914.525962 135 
z
" style="fill:#0000ff;"/>
   </g>
   <g id="patch_89">
    <path clip-path="url(#p807f7c4fb5)" d="M 926.336538 135 
L 938.147115 135 
L 938.147115 135 
L 926.336538 135 
z
" style="fill:#0000ff;"/>
   </g>
   <g id="patch_90">
    <path clip-path="url(#p807f7c4fb5)" d="M 938.147115 135 
L 949.957692 135 
L 949.957692 135 
L 938.147115 135 
z
" style="fill:#0000ff;"/>
   </g>
   <g id="patch_91">
    <path clip-path="url(#p807f7c4fb5)" d="M 949.957692 135 
L 961.768269 135 
L 961.768269 135 
L 949.957692 135 
z
" style="fill:#0000ff;"/>
   </g>
   <g id="patch_92">
    <path clip-path="url(#p807f7c4fb5)" d="M 961.768269 135 
L 973.578846 135 
L 973.578846 135 
L 961.768269 135 
z
" style="fill:#0000ff;"/>
   </g>
   <g id="patch_93">
    <path clip-path="url(#p807f7c4fb5)" d="M 973.578846 135 
L 985.389423 135 
L 985.389423 135 
L 973.578846 135 
z
" style="fill:#0000ff;"/>
   </g>
   <g id="patch_94">
    <path clip-path="url(#p807f7c4fb5)" d="M 985.389423 135 
L 997.2 135 
L 997.2 135 
L 985.389423 135 
z
" style="fill:#0000ff;"/>
   </g>
   <g id="patch_95">
    <path clip-path="url(#p807f7c4fb5)" d="M 536.5875 135 
L 548.398077 135 
L 548.398077 135 
L 536.5875 135 
z
" style="fill:#ffa500;opacity:0.8;"/>
   </g>
   <g id="patch_96">
    <path clip-path="url(#p807f7c4fb5)" d="M 548.398077 135 
L 560.208654 135 
L 560.208654 135 
L 548.398077 135 
z
" style="fill:#ffa500;opacity:0.8;"/>
   </g>
   <g id="patch_97">
    <path clip-path="url(#p807f7c4fb5)" d="M 560.208654 135 
L 572.019231 135 
L 572.019231 135 
L 560.208654 135 
z
" style="fill:#ffa500;opacity:0.8;"/>
   </g>
   <g id="patch_98">
    <path clip-path="url(#p807f7c4fb5)" d="M 572.019231 135 
L 583.829808 135 
L 583.829808 135 
L 572.019231 135 
z
" style="fill:#ffa500;opacity:0.8;"/>
   </g>
   <g id="patch_99">
    <path clip-path="url(#p807f7c4fb5)" d="M 583.829808 135 
L 595.640385 135 
L 595.640385 135 
L 583.829808 135 
z
" style="fill:#ffa500;opacity:0.8;"/>
   </g>
   <g id="patch_100">
    <path clip-path="url(#p807f7c4fb5)" d="M 595.640385 135 
L 607.450962 135 
L 607.450962 118.533026 
L 595.640385 118.533026 
z
" style="fill:#ffa500;opacity:0.8;"/>
   </g>
   <g id="patch_101">
    <path clip-path="url(#p807f7c4fb5)" d="M 607.450962 135 
L 619.261538 135 
L 619.261538 52.665131 
L 607.450962 52.665131 
z
" style="fill:#ffa500;opacity:0.8;"/>
   </g>
   <g id="patch_102">
    <path clip-path="url(#p807f7c4fb5)" d="M 619.261538 135 
L 631.072115 135 
L 631.072115 87.245776 
L 619.261538 87.245776 
z
" style="fill:#ffa500;opacity:0.8;"/>
   </g>
   <g id="patch_103">
    <path clip-path="url(#p807f7c4fb5)" d="M 631.072115 135 
L 642.882692 135 
L 642.882692 116.886329 
L 631.072115 116.886329 
z
" style="fill:#ffa500;opacity:0.8;"/>
   </g>
   <g id="patch_104">
    <path clip-path="url(#p807f7c4fb5)" d="M 642.882692 135 
L 654.693269 135 
L 654.693269 110.299539 
L 642.882692 110.299539 
z
" style="fill:#ffa500;opacity:0.8;"/>
   </g>
   <g id="patch_105">
    <path clip-path="url(#p807f7c4fb5)" d="M 654.693269 135 
L 666.503846 135 
L 666.503846 116.886329 
L 654.693269 116.886329 
z
" style="fill:#ffa500;opacity:0.8;"/>
   </g>
   <g id="patch_106">
    <path clip-path="url(#p807f7c4fb5)" d="M 666.503846 135 
L 678.314423 135 
L 678.314423 120.179724 
L 666.503846 120.179724 
z
" style="fill:#ffa500;opacity:0.8;"/>
   </g>
   <g id="patch_107">
    <path clip-path="url(#p807f7c4fb5)" d="M 678.314423 135 
L 690.125 135 
L 690.125 120.179724 
L 678.314423 120.179724 
z
" style="fill:#ffa500;opacity:0.8;"/>
   </g>
   <g id="patch_108">
    <path clip-path="url(#p807f7c4fb5)" d="M 690.125 135 
L 701.935577 135 
L 701.935577 128.41321 
L 690.125 128.41321 
z
" style="fill:#ffa500;opacity:0.8;"/>
   </g>
   <g id="patch_109">
    <path clip-path="url(#p807f7c4fb5)" d="M 701.935577 135 
L 713.746154 135 
L 713.746154 135 
L 701.935577 135 
z
" style="fill:#ffa500;opacity:0.8;"/>
   </g>
   <g id="patch_110">
    <path clip-path="url(#p807f7c4fb5)" d="M 713.746154 135 
L 725.556731 135 
L 725.556731 126.766513 
L 713.746154 126.766513 
z
" style="fill:#ffa500;opacity:0.8;"/>
   </g>
   <g id="patch_111">
    <path clip-path="url(#p807f7c4fb5)" d="M 725.556731 135 
L 737.367308 135 
L 737.367308 120.179724 
L 725.556731 120.179724 
z
" style="fill:#ffa500;opacity:0.8;"/>
   </g>
   <g id="patch_112">
    <path clip-path="url(#p807f7c4fb5)" d="M 737.367308 135 
L 749.177885 135 
L 749.177885 95.479263 
L 737.367308 95.479263 
z
" style="fill:#ffa500;opacity:0.8;"/>
   </g>
   <g id="patch_113">
    <path clip-path="url(#p807f7c4fb5)" d="M 749.177885 135 
L 760.988462 135 
L 760.988462 135 
L 749.177885 135 
z
" style="fill:#ffa500;opacity:0.8;"/>
   </g>
   <g id="patch_114">
    <path clip-path="url(#p807f7c4fb5)" d="M 760.988462 135 
L 772.799038 135 
L 772.799038 135 
L 760.988462 135 
z
" style="fill:#ffa500;opacity:0.8;"/>
   </g>
   <g id="patch_115">
    <path clip-path="url(#p807f7c4fb5)" d="M 772.799038 135 
L 784.609615 135 
L 784.609615 135 
L 772.799038 135 
z
" style="fill:#ffa500;opacity:0.8;"/>
   </g>
   <g id="patch_116">
    <path clip-path="url(#p807f7c4fb5)" d="M 784.609615 135 
L 796.420192 135 
L 796.420192 135 
L 784.609615 135 
z
" style="fill:#ffa500;opacity:0.8;"/>
   </g>
   <g id="patch_117">
    <path clip-path="url(#p807f7c4fb5)" d="M 796.420192 135 
L 808.230769 135 
L 808.230769 135 
L 796.420192 135 
z
" style="fill:#ffa500;opacity:0.8;"/>
   </g>
   <g id="patch_118">
    <path clip-path="url(#p807f7c4fb5)" d="M 808.230769 135 
L 820.041346 135 
L 820.041346 135 
L 808.230769 135 
z
" style="fill:#ffa500;opacity:0.8;"/>
   </g>
   <g id="patch_119">
    <path clip-path="url(#p807f7c4fb5)" d="M 820.041346 135 
L 831.851923 135 
L 831.851923 135 
L 820.041346 135 
z
" style="fill:#ffa500;opacity:0.8;"/>
   </g>
   <g id="patch_120">
    <path clip-path="url(#p807f7c4fb5)" d="M 831.851923 135 
L 843.6625 135 
L 843.6625 135 
L 831.851923 135 
z
" style="fill:#ffa500;opacity:0.8;"/>
   </g>
   <g id="patch_121">
    <path clip-path="url(#p807f7c4fb5)" d="M 843.6625 135 
L 855.473077 135 
L 855.473077 135 
L 843.6625 135 
z
" style="fill:#ffa500;opacity:0.8;"/>
   </g>
   <g id="patch_122">
    <path clip-path="url(#p807f7c4fb5)" d="M 855.473077 135 
L 867.283654 135 
L 867.283654 135 
L 855.473077 135 
z
" style="fill:#ffa500;opacity:0.8;"/>
   </g>
   <g id="patch_123">
    <path clip-path="url(#p807f7c4fb5)" d="M 867.283654 135 
L 879.094231 135 
L 879.094231 135 
L 867.283654 135 
z
" style="fill:#ffa500;opacity:0.8;"/>
   </g>
   <g id="patch_124">
    <path clip-path="url(#p807f7c4fb5)" d="M 879.094231 135 
L 890.904808 135 
L 890.904808 135 
L 879.094231 135 
z
" style="fill:#ffa500;opacity:0.8;"/>
   </g>
   <g id="patch_125">
    <path clip-path="url(#p807f7c4fb5)" d="M 890.904808 135 
L 902.715385 135 
L 902.715385 135 
L 890.904808 135 
z
" style="fill:#ffa500;opacity:0.8;"/>
   </g>
   <g id="patch_126">
    <path clip-path="url(#p807f7c4fb5)" d="M 902.715385 135 
L 914.525962 135 
L 914.525962 135 
L 902.715385 135 
z
" style="fill:#ffa500;opacity:0.8;"/>
   </g>
   <g id="patch_127">
    <path clip-path="url(#p807f7c4fb5)" d="M 914.525962 135 
L 926.336538 135 
L 926.336538 135 
L 914.525962 135 
z
" style="fill:#ffa500;opacity:0.8;"/>
   </g>
   <g id="patch_128">
    <path clip-path="url(#p807f7c4fb5)" d="M 926.336538 135 
L 938.147115 135 
L 938.147115 135 
L 926.336538 135 
z
" style="fill:#ffa500;opacity:0.8;"/>
   </g>
   <g id="patch_129">
    <path clip-path="url(#p807f7c4fb5)" d="M 938.147115 135 
L 949.957692 135 
L 949.957692 135 
L 938.147115 135 
z
" style="fill:#ffa500;opacity:0.8;"/>
   </g>
   <g id="patch_130">
    <path clip-path="url(#p807f7c4fb5)" d="M 949.957692 135 
L 961.768269 135 
L 961.768269 135 
L 949.957692 135 
z
" style="fill:#ffa500;opacity:0.8;"/>
   </g>
   <g id="patch_131">
    <path clip-path="url(#p807f7c4fb5)" d="M 961.768269 135 
L 973.578846 135 
L 973.578846 135 
L 961.768269 135 
z
" style="fill:#ffa500;opacity:0.8;"/>
   </g>
   <g id="patch_132">
    <path clip-path="url(#p807f7c4fb5)" d="M 973.578846 135 
L 985.389423 135 
L 985.389423 135 
L 973.578846 135 
z
" style="fill:#ffa500;opacity:0.8;"/>
   </g>
   <g id="patch_133">
    <path clip-path="url(#p807f7c4fb5)" d="M 985.389423 135 
L 997.2 135 
L 997.2 135 
L 985.389423 135 
z
" style="fill:#ffa500;opacity:0.8;"/>
   </g>
   <g id="patch_134">
    <path clip-path="url(#p807f7c4fb5)" d="M 536.5875 135 
L 548.398077 135 
L 548.398077 135 
L 536.5875 135 
z
" style="fill:#0000ff;"/>
   </g>
   <g id="patch_135">
    <path clip-path="url(#p807f7c4fb5)" d="M 548.398077 135 
L 560.208654 135 
L 560.208654 135 
L 548.398077 135 
z
" style="fill:#0000ff;"/>
   </g>
   <g id="patch_136">
    <path clip-path="url(#p807f7c4fb5)" d="M 560.208654 135 
L 572.019231 135 
L 572.019231 135 
L 560.208654 135 
z
" style="fill:#0000ff;"/>
   </g>
   <g id="patch_137">
    <path clip-path="url(#p807f7c4fb5)" d="M 572.019231 135 
L 583.829808 135 
L 583.829808 135 
L 572.019231 135 
z
" style="fill:#0000ff;"/>
   </g>
   <g id="patch_138">
    <path clip-path="url(#p807f7c4fb5)" d="M 583.829808 135 
L 595.640385 135 
L 595.640385 135 
L 583.829808 135 
z
" style="fill:#0000ff;"/>
   </g>
   <g id="patch_139">
    <path clip-path="url(#p807f7c4fb5)" d="M 595.640385 135 
L 607.450962 135 
L 607.450962 135 
L 595.640385 135 
z
" style="fill:#0000ff;"/>
   </g>
   <g id="patch_140">
    <path clip-path="url(#p807f7c4fb5)" d="M 607.450962 135 
L 619.261538 135 
L 619.261538 135 
L 607.450962 135 
z
" style="fill:#0000ff;"/>
   </g>
   <g id="patch_141">
    <path clip-path="url(#p807f7c4fb5)" d="M 619.261538 135 
L 631.072115 135 
L 631.072115 135 
L 619.261538 135 
z
" style="fill:#0000ff;"/>
   </g>
   <g id="patch_142">
    <path clip-path="url(#p807f7c4fb5)" d="M 631.072115 135 
L 642.882692 135 
L 642.882692 135 
L 631.072115 135 
z
" style="fill:#0000ff;"/>
   </g>
   <g id="patch_143">
    <path clip-path="url(#p807f7c4fb5)" d="M 642.882692 135 
L 654.693269 135 
L 654.693269 135 
L 642.882692 135 
z
" style="fill:#0000ff;"/>
   </g>
   <g id="patch_144">
    <path clip-path="url(#p807f7c4fb5)" d="M 654.693269 135 
L 666.503846 135 
L 666.503846 135 
L 654.693269 135 
z
" style="fill:#0000ff;"/>
   </g>
   <g id="patch_145">
    <path clip-path="url(#p807f7c4fb5)" d="M 666.503846 135 
L 678.314423 135 
L 678.314423 135 
L 666.503846 135 
z
" style="fill:#0000ff;"/>
   </g>
   <g id="patch_146">
    <path clip-path="url(#p807f7c4fb5)" d="M 678.314423 135 
L 690.125 135 
L 690.125 135 
L 678.314423 135 
z
" style="fill:#0000ff;"/>
   </g>
   <g id="patch_147">
    <path clip-path="url(#p807f7c4fb5)" d="M 690.125 135 
L 701.935577 135 
L 701.935577 151.555985 
L 690.125 151.555985 
z
" style="fill:#0000ff;"/>
   </g>
   <g id="patch_148">
    <path clip-path="url(#p807f7c4fb5)" d="M 701.935577 135 
L 713.746154 135 
L 713.746154 176.389961 
L 701.935577 176.389961 
z
" style="fill:#0000ff;"/>
   </g>
   <g id="patch_149">
    <path clip-path="url(#p807f7c4fb5)" d="M 713.746154 135 
L 725.556731 135 
L 725.556731 234.335907 
L 713.746154 234.335907 
z
" style="fill:#0000ff;"/>
   </g>
   <g id="patch_150">
    <path clip-path="url(#p807f7c4fb5)" d="M 725.556731 135 
L 737.367308 135 
L 737.367308 180.528958 
L 725.556731 180.528958 
z
" style="fill:#0000ff;"/>
   </g>
   <g id="patch_151">
    <path clip-path="url(#p807f7c4fb5)" d="M 737.367308 135 
L 749.177885 135 
L 749.177885 139.138996 
L 737.367308 139.138996 
z
" style="fill:#0000ff;"/>
   </g>
   <g id="patch_152">
    <path clip-path="url(#p807f7c4fb5)" d="M 749.177885 135 
L 760.988462 135 
L 760.988462 135 
L 749.177885 135 
z
" style="fill:#0000ff;"/>
   </g>
   <g id="patch_153">
    <path clip-path="url(#p807f7c4fb5)" d="M 760.988462 135 
L 772.799038 135 
L 772.799038 135 
L 760.988462 135 
z
" style="fill:#0000ff;"/>
   </g>
   <g id="patch_154">
    <path clip-path="url(#p807f7c4fb5)" d="M 772.799038 135 
L 784.609615 135 
L 784.609615 135 
L 772.799038 135 
z
" style="fill:#0000ff;"/>
   </g>
   <g id="patch_155">
    <path clip-path="url(#p807f7c4fb5)" d="M 784.609615 135 
L 796.420192 135 
L 796.420192 135 
L 784.609615 135 
z
" style="fill:#0000ff;"/>
   </g>
   <g id="patch_156">
    <path clip-path="url(#p807f7c4fb5)" d="M 796.420192 135 
L 808.230769 135 
L 808.230769 147.416988 
L 796.420192 147.416988 
z
" style="fill:#0000ff;"/>
   </g>
   <g id="patch_157">
    <path clip-path="url(#p807f7c4fb5)" d="M 808.230769 135 
L 820.041346 135 
L 820.041346 135 
L 808.230769 135 
z
" style="fill:#0000ff;"/>
   </g>
   <g id="patch_158">
    <path clip-path="url(#p807f7c4fb5)" d="M 820.041346 135 
L 831.851923 135 
L 831.851923 135 
L 820.041346 135 
z
" style="fill:#0000ff;"/>
   </g>
   <g id="patch_159">
    <path clip-path="url(#p807f7c4fb5)" d="M 831.851923 135 
L 843.6625 135 
L 843.6625 143.277992 
L 831.851923 143.277992 
z
" style="fill:#0000ff;"/>
   </g>
   <g id="patch_160">
    <path clip-path="url(#p807f7c4fb5)" d="M 843.6625 135 
L 855.473077 135 
L 855.473077 143.277992 
L 843.6625 143.277992 
z
" style="fill:#0000ff;"/>
   </g>
   <g id="patch_161">
    <path clip-path="url(#p807f7c4fb5)" d="M 855.473077 135 
L 867.283654 135 
L 867.283654 176.389961 
L 855.473077 176.389961 
z
" style="fill:#0000ff;"/>
   </g>
   <g id="patch_162">
    <path clip-path="url(#p807f7c4fb5)" d="M 867.283654 135 
L 879.094231 135 
L 879.094231 159.833977 
L 867.283654 159.833977 
z
" style="fill:#0000ff;"/>
   </g>
   <g id="patch_163">
    <path clip-path="url(#p807f7c4fb5)" d="M 879.094231 135 
L 890.904808 135 
L 890.904808 135 
L 879.094231 135 
z
" style="fill:#0000ff;"/>
   </g>
   <g id="patch_164">
    <path clip-path="url(#p807f7c4fb5)" d="M 890.904808 135 
L 902.715385 135 
L 902.715385 139.138996 
L 890.904808 139.138996 
z
" style="fill:#0000ff;"/>
   </g>
   <g id="patch_165">
    <path clip-path="url(#p807f7c4fb5)" d="M 902.715385 135 
L 914.525962 135 
L 914.525962 135 
L 902.715385 135 
z
" style="fill:#0000ff;"/>
   </g>
   <g id="patch_166">
    <path clip-path="url(#p807f7c4fb5)" d="M 914.525962 135 
L 926.336538 135 
L 926.336538 135 
L 914.525962 135 
z
" style="fill:#0000ff;"/>
   </g>
   <g id="patch_167">
    <path clip-path="url(#p807f7c4fb5)" d="M 926.336538 135 
L 938.147115 135 
L 938.147115 135 
L 926.336538 135 
z
" style="fill:#0000ff;"/>
   </g>
   <g id="patch_168">
    <path clip-path="url(#p807f7c4fb5)" d="M 938.147115 135 
L 949.957692 135 
L 949.957692 135 
L 938.147115 135 
z
" style="fill:#0000ff;"/>
   </g>
   <g id="patch_169">
    <path clip-path="url(#p807f7c4fb5)" d="M 949.957692 135 
L 961.768269 135 
L 961.768269 135 
L 949.957692 135 
z
" style="fill:#0000ff;"/>
   </g>
   <g id="patch_170">
    <path clip-path="url(#p807f7c4fb5)" d="M 961.768269 135 
L 973.578846 135 
L 973.578846 135 
L 961.768269 135 
z
" style="fill:#0000ff;"/>
   </g>
   <g id="patch_171">
    <path clip-path="url(#p807f7c4fb5)" d="M 973.578846 135 
L 985.389423 135 
L 985.389423 135 
L 973.578846 135 
z
" style="fill:#0000ff;"/>
   </g>
   <g id="patch_172">
    <path clip-path="url(#p807f7c4fb5)" d="M 985.389423 135 
L 997.2 135 
L 997.2 135 
L 985.389423 135 
z
" style="fill:#0000ff;"/>
   </g>
   <g id="patch_173">
    <path clip-path="url(#p807f7c4fb5)" d="M 536.5875 135 
L 548.398077 135 
L 548.398077 135 
L 536.5875 135 
z
" style="fill:#ffa500;opacity:0.8;"/>
   </g>
   <g id="patch_174">
    <path clip-path="url(#p807f7c4fb5)" d="M 548.398077 135 
L 560.208654 135 
L 560.208654 135 
L 548.398077 135 
z
" style="fill:#ffa500;opacity:0.8;"/>
   </g>
   <g id="patch_175">
    <path clip-path="url(#p807f7c4fb5)" d="M 560.208654 135 
L 572.019231 135 
L 572.019231 135 
L 560.208654 135 
z
" style="fill:#ffa500;opacity:0.8;"/>
   </g>
   <g id="patch_176">
    <path clip-path="url(#p807f7c4fb5)" d="M 572.019231 135 
L 583.829808 135 
L 583.829808 135 
L 572.019231 135 
z
" style="fill:#ffa500;opacity:0.8;"/>
   </g>
   <g id="patch_177">
    <path clip-path="url(#p807f7c4fb5)" d="M 583.829808 135 
L 595.640385 135 
L 595.640385 135 
L 583.829808 135 
z
" style="fill:#ffa500;opacity:0.8;"/>
   </g>
   <g id="patch_178">
    <path clip-path="url(#p807f7c4fb5)" d="M 595.640385 135 
L 607.450962 135 
L 607.450962 135 
L 595.640385 135 
z
" style="fill:#ffa500;opacity:0.8;"/>
   </g>
   <g id="patch_179">
    <path clip-path="url(#p807f7c4fb5)" d="M 607.450962 135 
L 619.261538 135 
L 619.261538 135 
L 607.450962 135 
z
" style="fill:#ffa500;opacity:0.8;"/>
   </g>
   <g id="patch_180">
    <path clip-path="url(#p807f7c4fb5)" d="M 619.261538 135 
L 631.072115 135 
L 631.072115 135 
L 619.261538 135 
z
" style="fill:#ffa500;opacity:0.8;"/>
   </g>
   <g id="patch_181">
    <path clip-path="url(#p807f7c4fb5)" d="M 631.072115 135 
L 642.882692 135 
L 642.882692 135 
L 631.072115 135 
z
" style="fill:#ffa500;opacity:0.8;"/>
   </g>
   <g id="patch_182">
    <path clip-path="url(#p807f7c4fb5)" d="M 642.882692 135 
L 654.693269 135 
L 654.693269 135 
L 642.882692 135 
z
" style="fill:#ffa500;opacity:0.8;"/>
   </g>
   <g id="patch_183">
    <path clip-path="url(#p807f7c4fb5)" d="M 654.693269 135 
L 666.503846 135 
L 666.503846 135 
L 654.693269 135 
z
" style="fill:#ffa500;opacity:0.8;"/>
   </g>
   <g id="patch_184">
    <path clip-path="url(#p807f7c4fb5)" d="M 666.503846 135 
L 678.314423 135 
L 678.314423 135 
L 666.503846 135 
z
" style="fill:#ffa500;opacity:0.8;"/>
   </g>
   <g id="patch_185">
    <path clip-path="url(#p807f7c4fb5)" d="M 678.314423 135 
L 690.125 135 
L 690.125 135 
L 678.314423 135 
z
" style="fill:#ffa500;opacity:0.8;"/>
   </g>
   <g id="patch_186">
    <path clip-path="url(#p807f7c4fb5)" d="M 690.125 135 
L 701.935577 135 
L 701.935577 175.50059 
L 690.125 175.50059 
z
" style="fill:#ffa500;opacity:0.8;"/>
   </g>
   <g id="patch_187">
    <path clip-path="url(#p807f7c4fb5)" d="M 701.935577 135 
L 713.746154 135 
L 713.746154 188.157025 
L 701.935577 188.157025 
z
" style="fill:#ffa500;opacity:0.8;"/>
   </g>
   <g id="patch_188">
    <path clip-path="url(#p807f7c4fb5)" d="M 713.746154 135 
L 725.556731 135 
L 725.556731 135 
L 713.746154 135 
z
" style="fill:#ffa500;opacity:0.8;"/>
   </g>
   <g id="patch_189">
    <path clip-path="url(#p807f7c4fb5)" d="M 725.556731 135 
L 737.367308 135 
L 737.367308 142.593861 
L 725.556731 142.593861 
z
" style="fill:#ffa500;opacity:0.8;"/>
   </g>
   <g id="patch_190">
    <path clip-path="url(#p807f7c4fb5)" d="M 737.367308 135 
L 749.177885 135 
L 749.177885 162.844156 
L 737.367308 162.844156 
z
" style="fill:#ffa500;opacity:0.8;"/>
   </g>
   <g id="patch_191">
    <path clip-path="url(#p807f7c4fb5)" d="M 749.177885 135 
L 760.988462 135 
L 760.988462 162.844156 
L 749.177885 162.844156 
z
" style="fill:#ffa500;opacity:0.8;"/>
   </g>
   <g id="patch_192">
    <path clip-path="url(#p807f7c4fb5)" d="M 760.988462 135 
L 772.799038 135 
L 772.799038 172.969303 
L 760.988462 172.969303 
z
" style="fill:#ffa500;opacity:0.8;"/>
   </g>
   <g id="patch_193">
    <path clip-path="url(#p807f7c4fb5)" d="M 772.799038 135 
L 784.609615 135 
L 784.609615 162.844156 
L 772.799038 162.844156 
z
" style="fill:#ffa500;opacity:0.8;"/>
   </g>
   <g id="patch_194">
    <path clip-path="url(#p807f7c4fb5)" d="M 784.609615 135 
L 796.420192 135 
L 796.420192 142.593861 
L 784.609615 142.593861 
z
" style="fill:#ffa500;opacity:0.8;"/>
   </g>
   <g id="patch_195">
    <path clip-path="url(#p807f7c4fb5)" d="M 796.420192 135 
L 808.230769 135 
L 808.230769 147.656434 
L 796.420192 147.656434 
z
" style="fill:#ffa500;opacity:0.8;"/>
   </g>
   <g id="patch_196">
    <path clip-path="url(#p807f7c4fb5)" d="M 808.230769 135 
L 820.041346 135 
L 820.041346 160.312869 
L 808.230769 160.312869 
z
" style="fill:#ffa500;opacity:0.8;"/>
   </g>
   <g id="patch_197">
    <path clip-path="url(#p807f7c4fb5)" d="M 820.041346 135 
L 831.851923 135 
L 831.851923 147.656434 
L 820.041346 147.656434 
z
" style="fill:#ffa500;opacity:0.8;"/>
   </g>
   <g id="patch_198">
    <path clip-path="url(#p807f7c4fb5)" d="M 831.851923 135 
L 843.6625 135 
L 843.6625 160.312869 
L 831.851923 160.312869 
z
" style="fill:#ffa500;opacity:0.8;"/>
   </g>
   <g id="patch_199">
    <path clip-path="url(#p807f7c4fb5)" d="M 843.6625 135 
L 855.473077 135 
L 855.473077 135 
L 843.6625 135 
z
" style="fill:#ffa500;opacity:0.8;"/>
   </g>
   <g id="patch_200">
    <path clip-path="url(#p807f7c4fb5)" d="M 855.473077 135 
L 867.283654 135 
L 867.283654 135 
L 855.473077 135 
z
" style="fill:#ffa500;opacity:0.8;"/>
   </g>
   <g id="patch_201">
    <path clip-path="url(#p807f7c4fb5)" d="M 867.283654 135 
L 879.094231 135 
L 879.094231 135 
L 867.283654 135 
z
" style="fill:#ffa500;opacity:0.8;"/>
   </g>
   <g id="patch_202">
    <path clip-path="url(#p807f7c4fb5)" d="M 879.094231 135 
L 890.904808 135 
L 890.904808 135 
L 879.094231 135 
z
" style="fill:#ffa500;opacity:0.8;"/>
   </g>
   <g id="patch_203">
    <path clip-path="url(#p807f7c4fb5)" d="M 890.904808 135 
L 902.715385 135 
L 902.715385 135 
L 890.904808 135 
z
" style="fill:#ffa500;opacity:0.8;"/>
   </g>
   <g id="patch_204">
    <path clip-path="url(#p807f7c4fb5)" d="M 902.715385 135 
L 914.525962 135 
L 914.525962 135 
L 902.715385 135 
z
" style="fill:#ffa500;opacity:0.8;"/>
   </g>
   <g id="patch_205">
    <path clip-path="url(#p807f7c4fb5)" d="M 914.525962 135 
L 926.336538 135 
L 926.336538 135 
L 914.525962 135 
z
" style="fill:#ffa500;opacity:0.8;"/>
   </g>
   <g id="patch_206">
    <path clip-path="url(#p807f7c4fb5)" d="M 926.336538 135 
L 938.147115 135 
L 938.147115 135 
L 926.336538 135 
z
" style="fill:#ffa500;opacity:0.8;"/>
   </g>
   <g id="patch_207">
    <path clip-path="url(#p807f7c4fb5)" d="M 938.147115 135 
L 949.957692 135 
L 949.957692 135 
L 938.147115 135 
z
" style="fill:#ffa500;opacity:0.8;"/>
   </g>
   <g id="patch_208">
    <path clip-path="url(#p807f7c4fb5)" d="M 949.957692 135 
L 961.768269 135 
L 961.768269 135 
L 949.957692 135 
z
" style="fill:#ffa500;opacity:0.8;"/>
   </g>
   <g id="patch_209">
    <path clip-path="url(#p807f7c4fb5)" d="M 961.768269 135 
L 973.578846 135 
L 973.578846 135 
L 961.768269 135 
z
" style="fill:#ffa500;opacity:0.8;"/>
   </g>
   <g id="patch_210">
    <path clip-path="url(#p807f7c4fb5)" d="M 973.578846 135 
L 985.389423 135 
L 985.389423 135 
L 973.578846 135 
z
" style="fill:#ffa500;opacity:0.8;"/>
   </g>
   <g id="patch_211">
    <path clip-path="url(#p807f7c4fb5)" d="M 985.389423 135 
L 997.2 135 
L 997.2 135 
L 985.389423 135 
z
" style="fill:#ffa500;opacity:0.8;"/>
   </g>
   <g id="matplotlib.axis_3">
    <g id="xtick_7">
     <g id="line2d_17">
      <g>
       <use style="stroke:#000000;stroke-width:0.8;" x="542.492788" xlink:href="#mb012360566" y="242.2"/>
      </g>
     </g>
     <g id="text_19">
      <!-- 0 -->
      <g transform="translate(539.311538 256.798437)scale(0.1 -0.1)">
       <use xlink:href="#DejaVuSans-30"/>
      </g>
     </g>
    </g>
    <g id="xtick_8">
     <g id="line2d_18">
      <g>
       <use style="stroke:#000000;stroke-width:0.8;" x="627.912927" xlink:href="#mb012360566" y="242.2"/>
      </g>
     </g>
     <g id="text_20">
      <!-- 1 -->
      <g transform="translate(624.731677 256.798437)scale(0.1 -0.1)">
       <use xlink:href="#DejaVuSans-31"/>
      </g>
     </g>
    </g>
    <g id="xtick_9">
     <g id="line2d_19">
      <g>
       <use style="stroke:#000000;stroke-width:0.8;" x="713.333065" xlink:href="#mb012360566" y="242.2"/>
      </g>
     </g>
     <g id="text_21">
      <!-- 2 -->
      <g transform="translate(710.151815 256.798437)scale(0.1 -0.1)">
       <use xlink:href="#DejaVuSans-32"/>
      </g>
     </g>
    </g>
    <g id="xtick_10">
     <g id="line2d_20">
      <g>
       <use style="stroke:#000000;stroke-width:0.8;" x="798.753203" xlink:href="#mb012360566" y="242.2"/>
      </g>
     </g>
     <g id="text_22">
      <!-- 3 -->
      <g transform="translate(795.571953 256.798437)scale(0.1 -0.1)">
       <use xlink:href="#DejaVuSans-33"/>
      </g>
     </g>
    </g>
    <g id="xtick_11">
     <g id="line2d_21">
      <g>
       <use style="stroke:#000000;stroke-width:0.8;" x="884.173342" xlink:href="#mb012360566" y="242.2"/>
      </g>
     </g>
     <g id="text_23">
      <!-- 4 -->
      <g transform="translate(880.992092 256.798437)scale(0.1 -0.1)">
       <use xlink:href="#DejaVuSans-34"/>
      </g>
     </g>
    </g>
    <g id="xtick_12">
     <g id="line2d_22">
      <g>
       <use style="stroke:#000000;stroke-width:0.8;" x="969.59348" xlink:href="#mb012360566" y="242.2"/>
      </g>
     </g>
     <g id="text_24">
      <!-- 5 -->
      <g transform="translate(966.41223 256.798437)scale(0.1 -0.1)">
       <use xlink:href="#DejaVuSans-35"/>
      </g>
     </g>
    </g>
    <g id="text_25">
     <!-- Action entropy -->
     <g transform="translate(715.667969 273.515938)scale(0.14 -0.14)">
      <defs>
       <path d="M 2188 4044 
L 1331 1722 
L 3047 1722 
L 2188 4044 
z
M 1831 4666 
L 2547 4666 
L 4325 0 
L 3669 0 
L 3244 1197 
L 1141 1197 
L 716 0 
L 50 0 
L 1831 4666 
z
" id="DejaVuSans-41" transform="scale(0.015625)"/>
       <path d="M 3122 3366 
L 3122 2828 
Q 2878 2963 2633 3030 
Q 2388 3097 2138 3097 
Q 1578 3097 1268 2742 
Q 959 2388 959 1747 
Q 959 1106 1268 751 
Q 1578 397 2138 397 
Q 2388 397 2633 464 
Q 2878 531 3122 666 
L 3122 134 
Q 2881 22 2623 -34 
Q 2366 -91 2075 -91 
Q 1284 -91 818 406 
Q 353 903 353 1747 
Q 353 2603 823 3093 
Q 1294 3584 2113 3584 
Q 2378 3584 2631 3529 
Q 2884 3475 3122 3366 
z
" id="DejaVuSans-63" transform="scale(0.015625)"/>
       <path d="M 3513 2113 
L 3513 0 
L 2938 0 
L 2938 2094 
Q 2938 2591 2744 2837 
Q 2550 3084 2163 3084 
Q 1697 3084 1428 2787 
Q 1159 2491 1159 1978 
L 1159 0 
L 581 0 
L 581 3500 
L 1159 3500 
L 1159 2956 
Q 1366 3272 1645 3428 
Q 1925 3584 2291 3584 
Q 2894 3584 3203 3211 
Q 3513 2838 3513 2113 
z
" id="DejaVuSans-6e" transform="scale(0.015625)"/>
      </defs>
      <use xlink:href="#DejaVuSans-41"/>
      <use x="66.658203" xlink:href="#DejaVuSans-63"/>
      <use x="121.638672" xlink:href="#DejaVuSans-74"/>
      <use x="160.847656" xlink:href="#DejaVuSans-69"/>
      <use x="188.630859" xlink:href="#DejaVuSans-6f"/>
      <use x="249.8125" xlink:href="#DejaVuSans-6e"/>
      <use x="313.191406" xlink:href="#DejaVuSans-20"/>
      <use x="344.978516" xlink:href="#DejaVuSans-65"/>
      <use x="406.501953" xlink:href="#DejaVuSans-6e"/>
      <use x="469.880859" xlink:href="#DejaVuSans-74"/>
      <use x="509.089844" xlink:href="#DejaVuSans-72"/>
      <use x="547.953125" xlink:href="#DejaVuSans-6f"/>
      <use x="609.134766" xlink:href="#DejaVuSans-70"/>
      <use x="672.611328" xlink:href="#DejaVuSans-79"/>
     </g>
    </g>
   </g>
   <g id="matplotlib.axis_4">
    <g id="ytick_11">
     <g id="line2d_23">
      <g>
       <use style="stroke:#000000;stroke-width:0.8;" x="536.5875" xlink:href="#m67d693c49a" y="226.885714"/>
      </g>
     </g>
     <g id="text_26">
      <!-- 0.3 -->
      <g transform="translate(505.304688 230.684933)scale(0.1 -0.1)">
       <use xlink:href="#DejaVuSans-2212"/>
       <use x="83.789062" xlink:href="#DejaVuSans-30"/>
       <use x="147.412109" xlink:href="#DejaVuSans-2e"/>
       <use x="179.199219" xlink:href="#DejaVuSans-33"/>
      </g>
     </g>
    </g>
    <g id="ytick_12">
     <g id="line2d_24">
      <g>
       <use style="stroke:#000000;stroke-width:0.8;" x="536.5875" xlink:href="#m67d693c49a" y="196.257143"/>
      </g>
     </g>
     <g id="text_27">
      <!-- 0.2 -->
      <g transform="translate(505.304688 200.056362)scale(0.1 -0.1)">
       <use xlink:href="#DejaVuSans-2212"/>
       <use x="83.789062" xlink:href="#DejaVuSans-30"/>
       <use x="147.412109" xlink:href="#DejaVuSans-2e"/>
       <use x="179.199219" xlink:href="#DejaVuSans-32"/>
      </g>
     </g>
    </g>
    <g id="ytick_13">
     <g id="line2d_25">
      <g>
       <use style="stroke:#000000;stroke-width:0.8;" x="536.5875" xlink:href="#m67d693c49a" y="165.628571"/>
      </g>
     </g>
     <g id="text_28">
      <!-- 0.1 -->
      <g transform="translate(505.304688 169.42779)scale(0.1 -0.1)">
       <use xlink:href="#DejaVuSans-2212"/>
       <use x="83.789062" xlink:href="#DejaVuSans-30"/>
       <use x="147.412109" xlink:href="#DejaVuSans-2e"/>
       <use x="179.199219" xlink:href="#DejaVuSans-31"/>
      </g>
     </g>
    </g>
    <g id="ytick_14">
     <g id="line2d_26">
      <g>
       <use style="stroke:#000000;stroke-width:0.8;" x="536.5875" xlink:href="#m67d693c49a" y="135"/>
      </g>
     </g>
     <g id="text_29">
      <!-- 0.0 -->
      <g transform="translate(513.684375 138.799219)scale(0.1 -0.1)">
       <use xlink:href="#DejaVuSans-30"/>
       <use x="63.623047" xlink:href="#DejaVuSans-2e"/>
       <use x="95.410156" xlink:href="#DejaVuSans-30"/>
      </g>
     </g>
    </g>
    <g id="ytick_15">
     <g id="line2d_27">
      <g>
       <use style="stroke:#000000;stroke-width:0.8;" x="536.5875" xlink:href="#m67d693c49a" y="104.371429"/>
      </g>
     </g>
     <g id="text_30">
      <!-- 0.1 -->
      <g transform="translate(513.684375 108.170647)scale(0.1 -0.1)">
       <use xlink:href="#DejaVuSans-30"/>
       <use x="63.623047" xlink:href="#DejaVuSans-2e"/>
       <use x="95.410156" xlink:href="#DejaVuSans-31"/>
      </g>
     </g>
    </g>
    <g id="ytick_16">
     <g id="line2d_28">
      <g>
       <use style="stroke:#000000;stroke-width:0.8;" x="536.5875" xlink:href="#m67d693c49a" y="73.742857"/>
      </g>
     </g>
     <g id="text_31">
      <!-- 0.2 -->
      <g transform="translate(513.684375 77.542076)scale(0.1 -0.1)">
       <use xlink:href="#DejaVuSans-30"/>
       <use x="63.623047" xlink:href="#DejaVuSans-2e"/>
       <use x="95.410156" xlink:href="#DejaVuSans-32"/>
      </g>
     </g>
    </g>
    <g id="ytick_17">
     <g id="line2d_29">
      <g>
       <use style="stroke:#000000;stroke-width:0.8;" x="536.5875" xlink:href="#m67d693c49a" y="43.114286"/>
      </g>
     </g>
     <g id="text_32">
      <!-- 0.3 -->
      <g transform="translate(513.684375 46.913504)scale(0.1 -0.1)">
       <use xlink:href="#DejaVuSans-30"/>
       <use x="63.623047" xlink:href="#DejaVuSans-2e"/>
       <use x="95.410156" xlink:href="#DejaVuSans-33"/>
      </g>
     </g>
    </g>
   </g>
   <g id="line2d_30">
    <path clip-path="url(#p807f7c4fb5)" d="M 536.5875 135 
L 997.2 135 
" style="fill:none;stroke:#000000;stroke-linecap:square;stroke-width:1.5;"/>
   </g>
   <g id="patch_212">
    <path d="M 536.5875 242.2 
L 536.5875 27.8 
" style="fill:none;stroke:#000000;stroke-linecap:square;stroke-linejoin:miter;stroke-width:0.8;"/>
   </g>
   <g id="patch_213">
    <path d="M 997.2 242.2 
L 997.2 27.8 
" style="fill:none;stroke:#000000;stroke-linecap:square;stroke-linejoin:miter;stroke-width:0.8;"/>
   </g>
   <g id="patch_214">
    <path d="M 536.5875 242.2 
L 997.2 242.2 
" style="fill:none;stroke:#000000;stroke-linecap:square;stroke-linejoin:miter;stroke-width:0.8;"/>
   </g>
   <g id="patch_215">
    <path d="M 536.5875 27.8 
L 997.2 27.8 
" style="fill:none;stroke:#000000;stroke-linecap:square;stroke-linejoin:miter;stroke-width:0.8;"/>
   </g>
   <g id="text_33">
    <!-- $tp=1.124E-01, pp=9.105E-01, ts=-5.576E+00, ps=2.466E-08$ -->
    <g transform="translate(551.19375 21.8)scale(0.12 -0.12)">
     <defs>
      <path d="M 3200 3397 
L 3091 2853 
Q 2863 2978 2609 3040 
Q 2356 3103 2088 3103 
Q 1634 3103 1373 2948 
Q 1113 2794 1113 2528 
Q 1113 2219 1719 2053 
Q 1766 2041 1788 2034 
L 1972 1978 
Q 2547 1819 2739 1644 
Q 2931 1469 2931 1166 
Q 2931 609 2489 259 
Q 2047 -91 1331 -91 
Q 1053 -91 747 -37 
Q 441 16 72 128 
L 184 722 
Q 500 559 806 475 
Q 1113 391 1394 391 
Q 1816 391 2080 572 
Q 2344 753 2344 1031 
Q 2344 1331 1650 1516 
L 1591 1531 
L 1394 1581 
Q 956 1697 753 1886 
Q 550 2075 550 2369 
Q 550 2928 970 3256 
Q 1391 3584 2113 3584 
Q 2397 3584 2667 3537 
Q 2938 3491 3200 3397 
z
" id="DejaVuSans-Oblique-73" transform="scale(0.015625)"/>
     </defs>
     <use transform="translate(0 0.78125)" xlink:href="#DejaVuSans-Oblique-74"/>
     <use transform="translate(39.208984 0.78125)" xlink:href="#DejaVuSans-Oblique-70"/>
     <use transform="translate(122.167969 0.78125)" xlink:href="#DejaVuSans-3d"/>
     <use transform="translate(225.439453 0.78125)" xlink:href="#DejaVuSans-31"/>
     <use transform="translate(289.0625 0.78125)" xlink:href="#DejaVuSans-2e"/>
     <use transform="translate(320.849609 0.78125)" xlink:href="#DejaVuSans-31"/>
     <use transform="translate(384.472656 0.78125)" xlink:href="#DejaVuSans-32"/>
     <use transform="translate(448.095703 0.78125)" xlink:href="#DejaVuSans-34"/>
     <use transform="translate(511.71875 0.78125)" xlink:href="#DejaVuSans-Oblique-45"/>
     <use transform="translate(594.384766 0.78125)" xlink:href="#DejaVuSans-2212"/>
     <use transform="translate(697.65625 0.78125)" xlink:href="#DejaVuSans-30"/>
     <use transform="translate(761.279297 0.78125)" xlink:href="#DejaVuSans-31"/>
     <use transform="translate(824.902344 0.78125)" xlink:href="#DejaVuSans-2c"/>
     <use transform="translate(876.171875 0.78125)" xlink:href="#DejaVuSans-Oblique-70"/>
     <use transform="translate(939.648438 0.78125)" xlink:href="#DejaVuSans-Oblique-70"/>
     <use transform="translate(1022.607422 0.78125)" xlink:href="#DejaVuSans-3d"/>
     <use transform="translate(1125.878906 0.78125)" xlink:href="#DejaVuSans-39"/>
     <use transform="translate(1189.501953 0.78125)" xlink:href="#DejaVuSans-2e"/>
     <use transform="translate(1221.289062 0.78125)" xlink:href="#DejaVuSans-31"/>
     <use transform="translate(1284.912109 0.78125)" xlink:href="#DejaVuSans-30"/>
     <use transform="translate(1348.535156 0.78125)" xlink:href="#DejaVuSans-35"/>
     <use transform="translate(1412.158203 0.78125)" xlink:href="#DejaVuSans-Oblique-45"/>
     <use transform="translate(1494.824219 0.78125)" xlink:href="#DejaVuSans-2212"/>
     <use transform="translate(1598.095703 0.78125)" xlink:href="#DejaVuSans-30"/>
     <use transform="translate(1661.71875 0.78125)" xlink:href="#DejaVuSans-31"/>
     <use transform="translate(1725.341797 0.78125)" xlink:href="#DejaVuSans-2c"/>
     <use transform="translate(1776.611328 0.78125)" xlink:href="#DejaVuSans-Oblique-74"/>
     <use transform="translate(1815.820312 0.78125)" xlink:href="#DejaVuSans-Oblique-73"/>
     <use transform="translate(1887.402344 0.78125)" xlink:href="#DejaVuSans-3d"/>
     <use transform="translate(2010.15625 0.78125)" xlink:href="#DejaVuSans-2212"/>
     <use transform="translate(2113.427734 0.78125)" xlink:href="#DejaVuSans-35"/>
     <use transform="translate(2177.050781 0.78125)" xlink:href="#DejaVuSans-2e"/>
     <use transform="translate(2208.837891 0.78125)" xlink:href="#DejaVuSans-35"/>
     <use transform="translate(2265.210938 0.78125)" xlink:href="#DejaVuSans-37"/>
     <use transform="translate(2328.833984 0.78125)" xlink:href="#DejaVuSans-36"/>
     <use transform="translate(2392.457031 0.78125)" xlink:href="#DejaVuSans-Oblique-45"/>
     <use transform="translate(2475.123047 0.78125)" xlink:href="#DejaVuSans-2b"/>
     <use transform="translate(2578.394531 0.78125)" xlink:href="#DejaVuSans-30"/>
     <use transform="translate(2642.017578 0.78125)" xlink:href="#DejaVuSans-30"/>
     <use transform="translate(2705.640625 0.78125)" xlink:href="#DejaVuSans-2c"/>
     <use transform="translate(2756.910156 0.78125)" xlink:href="#DejaVuSans-Oblique-70"/>
     <use transform="translate(2820.386719 0.78125)" xlink:href="#DejaVuSans-Oblique-73"/>
     <use transform="translate(2891.96875 0.78125)" xlink:href="#DejaVuSans-3d"/>
     <use transform="translate(2995.240234 0.78125)" xlink:href="#DejaVuSans-32"/>
     <use transform="translate(3058.863281 0.78125)" xlink:href="#DejaVuSans-2e"/>
     <use transform="translate(3090.650391 0.78125)" xlink:href="#DejaVuSans-34"/>
     <use transform="translate(3154.273438 0.78125)" xlink:href="#DejaVuSans-36"/>
     <use transform="translate(3217.896484 0.78125)" xlink:href="#DejaVuSans-36"/>
     <use transform="translate(3281.519531 0.78125)" xlink:href="#DejaVuSans-Oblique-45"/>
     <use transform="translate(3364.185547 0.78125)" xlink:href="#DejaVuSans-2212"/>
     <use transform="translate(3467.457031 0.78125)" xlink:href="#DejaVuSans-30"/>
     <use transform="translate(3531.080078 0.78125)" xlink:href="#DejaVuSans-38"/>
    </g>
   </g>
  </g>
 </g>
 <defs>
  <clipPath id="p42f76d515a">
   <rect height="214.4" width="460.6125" x="33.8" y="27.8"/>
  </clipPath>
  <clipPath id="p807f7c4fb5">
   <rect height="214.4" width="460.6125" x="536.5875" y="27.8"/>
  </clipPath>
 </defs>
</svg>
