<?xml version="1.0" encoding="utf-8" standalone="no"?>
<!DOCTYPE svg PUBLIC "-//W3C//DTD SVG 1.1//EN"
  "http://www.w3.org/Graphics/SVG/1.1/DTD/svg11.dtd">
<!-- Created with matplotlib (https://matplotlib.org/) -->
<svg height="648pt" version="1.1" viewBox="0 0 648 648" width="648pt" xmlns="http://www.w3.org/2000/svg" xmlns:xlink="http://www.w3.org/1999/xlink">
 <defs>
  <style type="text/css">
*{stroke-linecap:butt;stroke-linejoin:round;}
  </style>
 </defs>
 <g id="figure_1">
  <g id="patch_1">
   <path d="M 0 648 
L 648 648 
L 648 0 
L 0 0 
z
" style="fill:none;"/>
  </g>
  <g id="axes_1">
   <g id="patch_2">
    <path d="M 81 567 
L 482.76 567 
L 482.76 77.76 
L 81 77.76 
z
" style="fill:none;"/>
   </g>
   <g id="matplotlib.axis_1">
    <g id="xtick_1">
     <g id="text_1">
      <!-- 0.5 -->
      <defs>
       <path d="M 4.15625 35.296875 
Q 4.15625 48 6.765625 55.734375 
Q 9.375 63.484375 14.515625 67.671875 
Q 19.671875 71.875 27.484375 71.875 
Q 33.25 71.875 37.59375 69.546875 
Q 41.9375 67.234375 44.765625 62.859375 
Q 47.609375 58.5 49.21875 52.21875 
Q 50.828125 45.953125 50.828125 35.296875 
Q 50.828125 22.703125 48.234375 14.96875 
Q 45.65625 7.234375 40.5 3 
Q 35.359375 -1.21875 27.484375 -1.21875 
Q 17.140625 -1.21875 11.234375 6.203125 
Q 4.15625 15.140625 4.15625 35.296875 
z
M 13.1875 35.296875 
Q 13.1875 17.671875 17.3125 11.828125 
Q 21.4375 6 27.484375 6 
Q 33.546875 6 37.671875 11.859375 
Q 41.796875 17.71875 41.796875 35.296875 
Q 41.796875 52.984375 37.671875 58.78125 
Q 33.546875 64.59375 27.390625 64.59375 
Q 21.34375 64.59375 17.71875 59.46875 
Q 13.1875 52.9375 13.1875 35.296875 
z
" id="ArialMT-48"/>
       <path d="M 9.078125 0 
L 9.078125 10.015625 
L 19.09375 10.015625 
L 19.09375 0 
z
" id="ArialMT-46"/>
       <path d="M 4.15625 18.75 
L 13.375 19.53125 
Q 14.40625 12.796875 18.140625 9.390625 
Q 21.875 6 27.15625 6 
Q 33.5 6 37.890625 10.78125 
Q 42.28125 15.578125 42.28125 23.484375 
Q 42.28125 31 38.0625 35.34375 
Q 33.84375 39.703125 27 39.703125 
Q 22.75 39.703125 19.328125 37.765625 
Q 15.921875 35.84375 13.96875 32.765625 
L 5.71875 33.84375 
L 12.640625 70.609375 
L 48.25 70.609375 
L 48.25 62.203125 
L 19.671875 62.203125 
L 15.828125 42.96875 
Q 22.265625 47.46875 29.34375 47.46875 
Q 38.71875 47.46875 45.15625 40.96875 
Q 51.609375 34.46875 51.609375 24.265625 
Q 51.609375 14.546875 45.953125 7.46875 
Q 39.0625 -1.21875 27.15625 -1.21875 
Q 17.390625 -1.21875 11.203125 4.25 
Q 5.03125 9.71875 4.15625 18.75 
z
" id="ArialMT-53"/>
      </defs>
      <g style="fill:#262626;" transform="translate(69.88 585.4525)scale(0.16 -0.16)">
       <use xlink:href="#ArialMT-48"/>
       <use x="55.615234" xlink:href="#ArialMT-46"/>
       <use x="83.398438" xlink:href="#ArialMT-53"/>
      </g>
     </g>
    </g>
    <g id="xtick_2">
     <g id="text_2">
      <!-- 0.6 -->
      <defs>
       <path d="M 49.75 54.046875 
L 41.015625 53.375 
Q 39.84375 58.546875 37.703125 60.890625 
Q 34.125 64.65625 28.90625 64.65625 
Q 24.703125 64.65625 21.53125 62.3125 
Q 17.390625 59.28125 14.984375 53.46875 
Q 12.59375 47.65625 12.5 36.921875 
Q 15.671875 41.75 20.265625 44.09375 
Q 24.859375 46.4375 29.890625 46.4375 
Q 38.671875 46.4375 44.84375 39.96875 
Q 51.03125 33.5 51.03125 23.25 
Q 51.03125 16.5 48.125 10.71875 
Q 45.21875 4.9375 40.140625 1.859375 
Q 35.0625 -1.21875 28.609375 -1.21875 
Q 17.625 -1.21875 10.6875 6.859375 
Q 3.765625 14.9375 3.765625 33.5 
Q 3.765625 54.25 11.421875 63.671875 
Q 18.109375 71.875 29.4375 71.875 
Q 37.890625 71.875 43.28125 67.140625 
Q 48.6875 62.40625 49.75 54.046875 
z
M 13.875 23.1875 
Q 13.875 18.65625 15.796875 14.5 
Q 17.71875 10.359375 21.1875 8.171875 
Q 24.65625 6 28.46875 6 
Q 34.03125 6 38.03125 10.484375 
Q 42.046875 14.984375 42.046875 22.703125 
Q 42.046875 30.125 38.078125 34.390625 
Q 34.125 38.671875 28.125 38.671875 
Q 22.171875 38.671875 18.015625 34.390625 
Q 13.875 30.125 13.875 23.1875 
z
" id="ArialMT-54"/>
      </defs>
      <g style="fill:#262626;" transform="translate(150.232 585.4525)scale(0.16 -0.16)">
       <use xlink:href="#ArialMT-48"/>
       <use x="55.615234" xlink:href="#ArialMT-46"/>
       <use x="83.398438" xlink:href="#ArialMT-54"/>
      </g>
     </g>
    </g>
    <g id="xtick_3">
     <g id="text_3">
      <!-- 0.7 -->
      <defs>
       <path d="M 4.734375 62.203125 
L 4.734375 70.65625 
L 51.078125 70.65625 
L 51.078125 63.8125 
Q 44.234375 56.546875 37.515625 44.484375 
Q 30.8125 32.421875 27.15625 19.671875 
Q 24.515625 10.6875 23.78125 0 
L 14.75 0 
Q 14.890625 8.453125 18.0625 20.40625 
Q 21.234375 32.375 27.171875 43.484375 
Q 33.109375 54.59375 39.796875 62.203125 
z
" id="ArialMT-55"/>
      </defs>
      <g style="fill:#262626;" transform="translate(230.584 585.4525)scale(0.16 -0.16)">
       <use xlink:href="#ArialMT-48"/>
       <use x="55.615234" xlink:href="#ArialMT-46"/>
       <use x="83.398438" xlink:href="#ArialMT-55"/>
      </g>
     </g>
    </g>
    <g id="xtick_4">
     <g id="text_4">
      <!-- 0.8 -->
      <defs>
       <path d="M 17.671875 38.8125 
Q 12.203125 40.828125 9.5625 44.53125 
Q 6.9375 48.25 6.9375 53.421875 
Q 6.9375 61.234375 12.546875 66.546875 
Q 18.171875 71.875 27.484375 71.875 
Q 36.859375 71.875 42.578125 66.421875 
Q 48.296875 60.984375 48.296875 53.171875 
Q 48.296875 48.1875 45.671875 44.5 
Q 43.0625 40.828125 37.75 38.8125 
Q 44.34375 36.671875 47.78125 31.875 
Q 51.21875 27.09375 51.21875 20.453125 
Q 51.21875 11.28125 44.71875 5.03125 
Q 38.234375 -1.21875 27.640625 -1.21875 
Q 17.046875 -1.21875 10.546875 5.046875 
Q 4.046875 11.328125 4.046875 20.703125 
Q 4.046875 27.6875 7.59375 32.390625 
Q 11.140625 37.109375 17.671875 38.8125 
z
M 15.921875 53.71875 
Q 15.921875 48.640625 19.1875 45.40625 
Q 22.46875 42.1875 27.6875 42.1875 
Q 32.765625 42.1875 36.015625 45.375 
Q 39.265625 48.578125 39.265625 53.21875 
Q 39.265625 58.0625 35.90625 61.359375 
Q 32.5625 64.65625 27.59375 64.65625 
Q 22.5625 64.65625 19.234375 61.421875 
Q 15.921875 58.203125 15.921875 53.71875 
z
M 13.09375 20.65625 
Q 13.09375 16.890625 14.875 13.375 
Q 16.65625 9.859375 20.171875 7.921875 
Q 23.6875 6 27.734375 6 
Q 34.03125 6 38.125 10.046875 
Q 42.234375 14.109375 42.234375 20.359375 
Q 42.234375 26.703125 38.015625 30.859375 
Q 33.796875 35.015625 27.4375 35.015625 
Q 21.234375 35.015625 17.15625 30.90625 
Q 13.09375 26.8125 13.09375 20.65625 
z
" id="ArialMT-56"/>
      </defs>
      <g style="fill:#262626;" transform="translate(310.936 585.4525)scale(0.16 -0.16)">
       <use xlink:href="#ArialMT-48"/>
       <use x="55.615234" xlink:href="#ArialMT-46"/>
       <use x="83.398438" xlink:href="#ArialMT-56"/>
      </g>
     </g>
    </g>
    <g id="xtick_5">
     <g id="text_5">
      <!-- 0.9 -->
      <defs>
       <path d="M 5.46875 16.546875 
L 13.921875 17.328125 
Q 14.984375 11.375 18.015625 8.6875 
Q 21.046875 6 25.78125 6 
Q 29.828125 6 32.875 7.859375 
Q 35.9375 9.71875 37.890625 12.8125 
Q 39.84375 15.921875 41.15625 21.1875 
Q 42.484375 26.46875 42.484375 31.9375 
Q 42.484375 32.515625 42.4375 33.6875 
Q 39.796875 29.5 35.234375 26.875 
Q 30.671875 24.265625 25.34375 24.265625 
Q 16.453125 24.265625 10.296875 30.703125 
Q 4.15625 37.15625 4.15625 47.703125 
Q 4.15625 58.59375 10.578125 65.234375 
Q 17 71.875 26.65625 71.875 
Q 33.640625 71.875 39.421875 68.109375 
Q 45.21875 64.359375 48.21875 57.390625 
Q 51.21875 50.4375 51.21875 37.25 
Q 51.21875 23.53125 48.234375 15.40625 
Q 45.265625 7.28125 39.375 3.03125 
Q 33.5 -1.21875 25.59375 -1.21875 
Q 17.1875 -1.21875 11.859375 3.4375 
Q 6.546875 8.109375 5.46875 16.546875 
z
M 41.453125 48.140625 
Q 41.453125 55.71875 37.421875 60.15625 
Q 33.40625 64.59375 27.734375 64.59375 
Q 21.875 64.59375 17.53125 59.8125 
Q 13.1875 55.03125 13.1875 47.40625 
Q 13.1875 40.578125 17.3125 36.296875 
Q 21.4375 32.03125 27.484375 32.03125 
Q 33.59375 32.03125 37.515625 36.296875 
Q 41.453125 40.578125 41.453125 48.140625 
z
" id="ArialMT-57"/>
      </defs>
      <g style="fill:#262626;" transform="translate(391.288 585.4525)scale(0.16 -0.16)">
       <use xlink:href="#ArialMT-48"/>
       <use x="55.615234" xlink:href="#ArialMT-46"/>
       <use x="83.398438" xlink:href="#ArialMT-57"/>
      </g>
     </g>
    </g>
    <g id="xtick_6">
     <g id="text_6">
      <!-- 1.0 -->
      <defs>
       <path d="M 37.25 0 
L 28.46875 0 
L 28.46875 56 
Q 25.296875 52.984375 20.140625 49.953125 
Q 14.984375 46.921875 10.890625 45.40625 
L 10.890625 53.90625 
Q 18.265625 57.375 23.78125 62.296875 
Q 29.296875 67.234375 31.59375 71.875 
L 37.25 71.875 
z
" id="ArialMT-49"/>
      </defs>
      <g style="fill:#262626;" transform="translate(471.64 585.4525)scale(0.16 -0.16)">
       <use xlink:href="#ArialMT-49"/>
       <use x="55.615234" xlink:href="#ArialMT-46"/>
       <use x="83.398438" xlink:href="#ArialMT-48"/>
      </g>
     </g>
    </g>
    <g id="text_7">
     <!-- $\tau$ -->
     <defs>
      <path d="M 32.859375 9.96875 
Q 34.1875 7.625 39.453125 7.625 
L 43.75 7.625 
L 42.28125 0 
L 36.921875 0 
Q 28.125 0 25 4.6875 
Q 21.921875 9.46875 23.96875 19.828125 
L 29 45.703125 
L 8.453125 45.703125 
L 10.203125 54.6875 
L 60.640625 54.6875 
L 58.890625 45.703125 
L 38.1875 45.703125 
L 33.015625 19.28125 
Q 31.640625 12.203125 32.859375 9.96875 
z
" id="DejaVuSans-Oblique-964"/>
     </defs>
     <g style="fill:#262626;" transform="translate(275.475 607.663906)scale(0.21 -0.21)">
      <use transform="translate(0 0.3125)" xlink:href="#DejaVuSans-Oblique-964"/>
     </g>
    </g>
   </g>
   <g id="matplotlib.axis_2">
    <g id="ytick_1">
     <g id="text_8">
      <!-- 0.5 -->
      <g style="fill:#262626;" transform="translate(51.76 572.72625)scale(0.16 -0.16)">
       <use xlink:href="#ArialMT-48"/>
       <use x="55.615234" xlink:href="#ArialMT-46"/>
       <use x="83.398438" xlink:href="#ArialMT-53"/>
      </g>
     </g>
    </g>
    <g id="ytick_2">
     <g id="text_9">
      <!-- 0.6 -->
      <g style="fill:#262626;" transform="translate(51.76 474.87825)scale(0.16 -0.16)">
       <use xlink:href="#ArialMT-48"/>
       <use x="55.615234" xlink:href="#ArialMT-46"/>
       <use x="83.398438" xlink:href="#ArialMT-54"/>
      </g>
     </g>
    </g>
    <g id="ytick_3">
     <g id="text_10">
      <!-- 0.7 -->
      <g style="fill:#262626;" transform="translate(51.76 377.03025)scale(0.16 -0.16)">
       <use xlink:href="#ArialMT-48"/>
       <use x="55.615234" xlink:href="#ArialMT-46"/>
       <use x="83.398438" xlink:href="#ArialMT-55"/>
      </g>
     </g>
    </g>
    <g id="ytick_4">
     <g id="text_11">
      <!-- 0.8 -->
      <g style="fill:#262626;" transform="translate(51.76 279.18225)scale(0.16 -0.16)">
       <use xlink:href="#ArialMT-48"/>
       <use x="55.615234" xlink:href="#ArialMT-46"/>
       <use x="83.398438" xlink:href="#ArialMT-56"/>
      </g>
     </g>
    </g>
    <g id="ytick_5">
     <g id="text_12">
      <!-- 0.9 -->
      <g style="fill:#262626;" transform="translate(51.76 181.33425)scale(0.16 -0.16)">
       <use xlink:href="#ArialMT-48"/>
       <use x="55.615234" xlink:href="#ArialMT-46"/>
       <use x="83.398438" xlink:href="#ArialMT-57"/>
      </g>
     </g>
    </g>
    <g id="ytick_6">
     <g id="text_13">
      <!-- 1.0 -->
      <g style="fill:#262626;" transform="translate(51.76 83.48625)scale(0.16 -0.16)">
       <use xlink:href="#ArialMT-49"/>
       <use x="55.615234" xlink:href="#ArialMT-46"/>
       <use x="83.398438" xlink:href="#ArialMT-48"/>
      </g>
     </g>
    </g>
    <g id="text_14">
     <!-- $\rho$ -->
     <defs>
      <path d="M 18.796875 44.921875 
Q 22.703125 49.90625 30.953125 54.296875 
Q 34.1875 56 43.0625 56 
Q 53.03125 56 57.71875 48.09375 
Q 62.40625 40.1875 59.90625 27.296875 
Q 57.375 14.40625 49.609375 6.484375 
Q 41.84375 -1.421875 31.890625 -1.421875 
Q 25.875 -1.421875 22.015625 0.984375 
Q 18.171875 3.328125 16.3125 8.203125 
L 10.640625 -20.796875 
L 1.609375 -20.796875 
L 10.890625 26.8125 
Q 13.09375 38.09375 18.796875 44.921875 
z
M 50.59375 27.296875 
Q 52.484375 37.203125 49.515625 42.875 
Q 46.53125 48.484375 39.40625 48.484375 
Q 32.28125 48.484375 27.09375 42.875 
Q 21.921875 37.203125 20.015625 27.296875 
Q 18.0625 17.390625 21.046875 11.71875 
Q 24.03125 6.109375 31.15625 6.109375 
Q 38.28125 6.109375 43.453125 11.71875 
Q 48.640625 17.390625 50.59375 27.296875 
z
" id="DejaVuSans-Oblique-961"/>
     </defs>
     <g style="fill:#262626;" transform="translate(43.35 329.1)rotate(-90)scale(0.21 -0.21)">
      <use xlink:href="#DejaVuSans-Oblique-961"/>
     </g>
    </g>
   </g>
   <g id="PathCollection_1">
    <path clip-path="url(#p07987e8c40)" d="M 89.199184 567 
L 97.398367 567 
L 104.126544 567 
L 105.597551 562.819085 
L 113.796735 557.829853 
L 114.786703 557.01551 
L 113.796735 555.599422 
L 105.597551 547.216327 
L 105.508503 547.03102 
L 101.21195 537.046531 
L 105.597551 529.498584 
L 106.988479 527.062041 
L 109.047555 517.077551 
L 105.597551 512.999796 
L 97.398367 509.521437 
L 95.942565 507.093061 
L 97.398367 500.065957 
L 105.597551 499.640927 
L 108.141587 497.108571 
L 105.597551 493.384655 
L 97.398367 493.46369 
L 96.240884 487.124082 
L 97.398367 485.263621 
L 105.597551 479.262443 
L 106.066344 477.139592 
L 105.597551 476.07214 
L 99.859171 467.155102 
L 98.743092 457.170612 
L 97.398367 455.364379 
L 89.199184 448.928855 
L 88.225028 447.186122 
L 89.199184 445.377641 
L 90.700452 437.201633 
L 89.199184 427.226477 
L 81 428.444062 
L 81 437.201633 
L 81 447.186122 
L 81 457.170612 
L 81 467.155102 
L 81 477.139592 
L 81 487.124082 
L 81 497.108571 
L 81 507.093061 
L 81 517.077551 
L 81 527.062041 
L 81 537.046531 
L 81 547.03102 
L 81 557.01551 
L 81 567 
z
" style="fill:#435b7c;"/>
    <path clip-path="url(#p07987e8c40)" d="M 85.5059 417.232653 
L 86.317092 407.248163 
L 86.439219 397.263673 
L 89.199184 392.253608 
L 92.333188 387.279184 
L 89.199184 383.901943 
L 83.626723 387.279184 
L 81 389.195292 
L 81 397.263673 
L 81 407.248163 
L 81 417.232653 
L 81 423.530678 
z
" style="fill:#435b7c;"/>
    <path clip-path="url(#p07987e8c40)" d="M 82.462165 327.372245 
L 81 326.834992 
L 81 327.372245 
L 81 333.744776 
z
" style="fill:#435b7c;"/>
   </g>
   <g id="PathCollection_2">
    <path clip-path="url(#p07987e8c40)" d="M 105.597551 567 
L 113.796735 567 
L 121.995918 567 
L 130.195102 567 
L 138.394286 567 
L 142.886736 567 
L 143.607306 557.01551 
L 146.593469 554.11026 
L 154.792653 551.296595 
L 162.991837 547.257988 
L 163.662664 547.03102 
L 162.991837 546.578427 
L 159.929428 537.046531 
L 154.792653 528.931507 
L 150.937624 527.062041 
L 154.792653 521.114154 
L 155.304227 517.077551 
L 154.792653 514.62 
L 146.593469 511.193936 
L 142.442703 507.093061 
L 138.776546 497.108571 
L 142.05472 487.124082 
L 146.593469 478.905584 
L 152.566639 477.139592 
L 146.593469 475.510123 
L 143.199687 467.155102 
L 143.409074 457.170612 
L 142.596247 447.186122 
L 142.833926 437.201633 
L 139.033848 427.217143 
L 138.394286 425.130656 
L 136.408791 417.232653 
L 134.606832 407.248163 
L 138.394286 403.224125 
L 146.593469 400.512864 
L 147.69244 397.263673 
L 146.593469 393.731716 
L 140.428612 387.279184 
L 140.603712 377.294694 
L 138.394286 375.602982 
L 135.285682 377.294694 
L 130.195102 379.691635 
L 129.025362 377.294694 
L 123.582505 367.310204 
L 130.195102 357.950701 
L 130.760201 357.325714 
L 132.36118 347.341224 
L 130.195102 345.831165 
L 124.472402 337.356735 
L 121.995918 332.262222 
L 113.796735 330.796058 
L 110.984899 327.372245 
L 111.1413 317.387755 
L 113.796735 308.485116 
L 117.290327 307.403265 
L 113.796735 306.778009 
L 109.06606 297.418776 
L 105.597551 288.687553 
L 104.958645 287.434286 
L 102.784425 277.449796 
L 100.906496 267.465306 
L 101.132352 257.480816 
L 97.398367 252.889198 
L 93.495665 247.496327 
L 89.199184 242.021001 
L 81 241.109919 
L 81 247.496327 
L 81 257.480816 
L 81 267.465306 
L 81 277.449796 
L 81 287.434286 
L 81 297.418776 
L 81 307.403265 
L 81 317.387755 
L 81 326.834992 
L 82.462165 327.372245 
L 81 333.744776 
L 81 337.356735 
L 81 347.341224 
L 81 357.325714 
L 81 367.310204 
L 81 377.294694 
L 81 387.279184 
L 81 389.195292 
L 83.626723 387.279184 
L 89.199184 383.901943 
L 92.333188 387.279184 
L 89.199184 392.253608 
L 86.439219 397.263673 
L 86.317092 407.248163 
L 85.5059 417.232653 
L 81 423.530678 
L 81 427.217143 
L 81 428.444062 
L 89.199184 427.226477 
L 90.700452 437.201633 
L 89.199184 445.377641 
L 88.225028 447.186122 
L 89.199184 448.928855 
L 97.398367 455.364379 
L 98.743092 457.170612 
L 99.859171 467.155102 
L 105.597551 476.07214 
L 106.066344 477.139592 
L 105.597551 479.262443 
L 97.398367 485.263621 
L 96.240884 487.124082 
L 97.398367 493.46369 
L 105.597551 493.384655 
L 108.141587 497.108571 
L 105.597551 499.640927 
L 97.398367 500.065957 
L 95.942565 507.093061 
L 97.398367 509.521437 
L 105.597551 512.999796 
L 109.047555 517.077551 
L 106.988479 527.062041 
L 105.597551 529.498584 
L 101.21195 537.046531 
L 105.508503 547.03102 
L 105.597551 547.216327 
L 113.796735 555.599422 
L 114.786703 557.01551 
L 113.796735 557.829853 
L 105.597551 562.819085 
L 104.126544 567 
z
" style="fill:#5d5b7b;"/>
    <path clip-path="url(#p07987e8c40)" d="M 154.792653 472.737038 
L 155.021052 467.155102 
L 154.792653 466.467896 
L 154.100839 467.155102 
z
" style="fill:#5d5b7b;"/>
    <path clip-path="url(#p07987e8c40)" d="M 121.995918 320.418996 
L 124.287121 317.387755 
L 121.995918 309.9949 
L 119.386176 317.387755 
z
" style="fill:#5d5b7b;"/>
    <path clip-path="url(#p07987e8c40)" d="M 83.047578 227.527347 
L 81 224.522215 
L 81 227.527347 
L 81 228.791772 
z
" style="fill:#5d5b7b;"/>
   </g>
   <g id="PathCollection_3">
    <path clip-path="url(#p07987e8c40)" d="M 146.593469 567 
L 154.792653 567 
L 162.991837 567 
L 171.19102 567 
L 179.390204 567 
L 187.589388 567 
L 193.248382 567 
L 195.499433 557.01551 
L 195.788571 555.385815 
L 198.934684 547.03102 
L 200.501859 537.046531 
L 195.788571 529.081876 
L 193.540378 527.062041 
L 191.383854 517.077551 
L 187.589388 507.409672 
L 187.386061 507.093061 
L 187.430835 497.108571 
L 187.589388 496.698704 
L 190.494655 487.124082 
L 189.992543 477.139592 
L 189.596213 467.155102 
L 192.640228 457.170612 
L 193.635382 447.186122 
L 195.788571 437.622124 
L 195.96814 437.201633 
L 195.788571 436.997841 
L 187.589388 432.524174 
L 180.728312 427.217143 
L 187.589388 417.868154 
L 187.704131 417.232653 
L 187.589388 415.392675 
L 186.627408 407.248163 
L 179.785 397.263673 
L 179.390204 391.437365 
L 179.12519 387.279184 
L 177.468953 377.294694 
L 178.320601 367.310204 
L 179.390204 365.260636 
L 181.665822 357.325714 
L 179.390204 352.749991 
L 175.008057 357.325714 
L 171.19102 360.680027 
L 167.037765 357.325714 
L 171.19102 352.729799 
L 174.991449 347.341224 
L 176.118972 337.356735 
L 174.316929 327.372245 
L 171.19102 322.476187 
L 166.39225 317.387755 
L 162.991837 311.916637 
L 161.259609 307.403265 
L 160.747309 297.418776 
L 159.410882 287.434286 
L 162.991837 280.593617 
L 164.349032 277.449796 
L 162.991837 274.411796 
L 154.792653 269.204855 
L 146.593469 271.143945 
L 138.394286 268.828582 
L 137.391849 267.465306 
L 138.394286 265.819372 
L 141.208864 257.480816 
L 141.97948 247.496327 
L 142.645118 237.511837 
L 139.890848 227.527347 
L 138.394286 225.269302 
L 132.813227 217.542857 
L 130.195102 213.405226 
L 125.83916 207.558367 
L 121.995918 199.385999 
L 118.700702 197.573878 
L 113.796735 195.796828 
L 105.988785 187.589388 
L 105.597551 187.090257 
L 97.398367 180.129669 
L 94.982997 177.604898 
L 89.199184 172.548378 
L 81.198734 167.620408 
L 81 167.385766 
L 81 167.620408 
L 81 177.604898 
L 81 187.589388 
L 81 197.573878 
L 81 207.558367 
L 81 217.542857 
L 81 224.522215 
L 83.047578 227.527347 
L 81 228.791772 
L 81 237.511837 
L 81 241.109919 
L 89.199184 242.021001 
L 93.495665 247.496327 
L 97.398367 252.889198 
L 101.132352 257.480816 
L 100.906496 267.465306 
L 102.784425 277.449796 
L 104.958645 287.434286 
L 105.597551 288.687553 
L 109.06606 297.418776 
L 113.796735 306.778009 
L 117.290327 307.403265 
L 113.796735 308.485116 
L 111.1413 317.387755 
L 110.984899 327.372245 
L 113.796735 330.796058 
L 121.995918 332.262222 
L 124.472402 337.356735 
L 130.195102 345.831165 
L 132.36118 347.341224 
L 130.760201 357.325714 
L 130.195102 357.950701 
L 123.582505 367.310204 
L 129.025362 377.294694 
L 130.195102 379.691635 
L 135.285682 377.294694 
L 138.394286 375.602982 
L 140.603712 377.294694 
L 140.428612 387.279184 
L 146.593469 393.731716 
L 147.69244 397.263673 
L 146.593469 400.512864 
L 138.394286 403.224125 
L 134.606832 407.248163 
L 136.408791 417.232653 
L 138.394286 425.130656 
L 139.033848 427.217143 
L 142.833926 437.201633 
L 142.596247 447.186122 
L 143.409074 457.170612 
L 143.199687 467.155102 
L 146.593469 475.510123 
L 152.566639 477.139592 
L 146.593469 478.905584 
L 142.05472 487.124082 
L 138.776546 497.108571 
L 142.442703 507.093061 
L 146.593469 511.193936 
L 154.792653 514.62 
L 155.304227 517.077551 
L 154.792653 521.114154 
L 150.937624 527.062041 
L 154.792653 528.931507 
L 159.929428 537.046531 
L 162.991837 546.578427 
L 163.662664 547.03102 
L 162.991837 547.257988 
L 154.792653 551.296595 
L 146.593469 554.11026 
L 143.607306 557.01551 
L 142.886736 567 
z
M 154.100839 467.155102 
L 154.792653 466.467896 
L 155.021052 467.155102 
L 154.792653 472.737038 
z
M 119.386176 317.387755 
L 121.995918 309.9949 
L 124.287121 317.387755 
L 121.995918 320.418996 
z
" style="fill:#815f7d;"/>
   </g>
   <g id="PathCollection_4">
    <path clip-path="url(#p07987e8c40)" d="M 195.788571 567 
L 203.987755 567 
L 212.186939 567 
L 220.386122 567 
L 228.585306 567 
L 236.78449 567 
L 243.927484 567 
L 244.983673 565.628107 
L 250.723257 557.01551 
L 247.62555 547.03102 
L 244.983673 542.596026 
L 242.404502 537.046531 
L 244.983673 532.239888 
L 248.366265 527.062041 
L 253.138731 517.077551 
L 244.983673 514.838556 
L 237.040186 507.093061 
L 244.983673 497.989226 
L 245.601801 497.108571 
L 244.983673 496.66457 
L 236.78449 494.029989 
L 233.920132 487.124082 
L 234.710573 477.139592 
L 235.122285 467.155102 
L 235.930208 457.170612 
L 231.821115 447.186122 
L 228.585306 438.80243 
L 227.488162 437.201633 
L 224.03817 427.217143 
L 228.585306 423.60305 
L 236.685259 417.232653 
L 234.379352 407.248163 
L 228.585306 402.219545 
L 223.347173 397.263673 
L 228.585306 391.263473 
L 231.179686 387.279184 
L 228.585306 379.135879 
L 227.63807 377.294694 
L 222.138393 367.310204 
L 220.386122 362.924293 
L 217.33682 357.325714 
L 212.186939 349.301256 
L 203.987755 348.125751 
L 203.440059 347.341224 
L 203.987755 346.437994 
L 212.186939 345.736196 
L 220.386122 343.946899 
L 226.631733 337.356735 
L 225.680753 327.372245 
L 220.386122 322.842736 
L 214.077041 317.387755 
L 212.54678 307.403265 
L 212.186939 306.114219 
L 206.098425 297.418776 
L 203.987755 293.972137 
L 201.580388 287.434286 
L 203.987755 279.480716 
L 212.186939 278.288325 
L 213.050097 277.449796 
L 212.186939 276.848784 
L 203.987755 274.067899 
L 202.833926 267.465306 
L 203.987755 264.366899 
L 206.055523 257.480816 
L 203.987755 250.319372 
L 200.414831 247.496327 
L 195.788571 244.841009 
L 192.622233 247.496327 
L 187.589388 253.421714 
L 185.279339 247.496327 
L 184.595481 237.511837 
L 187.589388 233.276711 
L 195.318028 227.527347 
L 187.589388 220.103184 
L 181.541439 217.542857 
L 179.390204 210.402934 
L 171.19102 208.367328 
L 169.702727 207.558367 
L 163.020312 197.573878 
L 164.080791 187.589388 
L 162.991837 184.47963 
L 159.815054 177.604898 
L 155.69237 167.620408 
L 154.792653 165.24389 
L 146.593469 164.028091 
L 138.394286 163.640228 
L 130.195102 159.312698 
L 127.143119 157.635918 
L 121.995918 154.995992 
L 116.434997 147.651429 
L 113.796735 138.853039 
L 105.597551 141.29483 
L 102.21267 137.666939 
L 97.398367 132.591452 
L 89.199184 133.150993 
L 81 127.735848 
L 81 137.666939 
L 81 147.651429 
L 81 157.635918 
L 81 167.385766 
L 81.198734 167.620408 
L 89.199184 172.548378 
L 94.982997 177.604898 
L 97.398367 180.129669 
L 105.597551 187.090257 
L 105.988785 187.589388 
L 113.796735 195.796828 
L 118.700702 197.573878 
L 121.995918 199.385999 
L 125.83916 207.558367 
L 130.195102 213.405226 
L 132.813227 217.542857 
L 138.394286 225.269302 
L 139.890848 227.527347 
L 142.645118 237.511837 
L 141.97948 247.496327 
L 141.208864 257.480816 
L 138.394286 265.819372 
L 137.391849 267.465306 
L 138.394286 268.828582 
L 146.593469 271.143945 
L 154.792653 269.204855 
L 162.991837 274.411796 
L 164.349032 277.449796 
L 162.991837 280.593617 
L 159.410882 287.434286 
L 160.747309 297.418776 
L 161.259609 307.403265 
L 162.991837 311.916637 
L 166.39225 317.387755 
L 171.19102 322.476187 
L 174.316929 327.372245 
L 176.118972 337.356735 
L 174.991449 347.341224 
L 171.19102 352.729799 
L 167.037765 357.325714 
L 171.19102 360.680027 
L 175.008057 357.325714 
L 179.390204 352.749991 
L 181.665822 357.325714 
L 179.390204 365.260636 
L 178.320601 367.310204 
L 177.468953 377.294694 
L 179.12519 387.279184 
L 179.390204 391.437365 
L 179.785 397.263673 
L 186.627408 407.248163 
L 187.589388 415.392675 
L 187.704131 417.232653 
L 187.589388 417.868154 
L 180.728312 427.217143 
L 187.589388 432.524174 
L 195.788571 436.997841 
L 195.96814 437.201633 
L 195.788571 437.622124 
L 193.635382 447.186122 
L 192.640228 457.170612 
L 189.596213 467.155102 
L 189.992543 477.139592 
L 190.494655 487.124082 
L 187.589388 496.698704 
L 187.430835 497.108571 
L 187.386061 507.093061 
L 187.589388 507.409672 
L 191.383854 517.077551 
L 193.540378 527.062041 
L 195.788571 529.081876 
L 200.501859 537.046531 
L 198.934684 547.03102 
L 195.788571 555.385815 
L 195.499433 557.01551 
L 193.248382 567 
z
" style="fill:#ab6781;"/>
    <path clip-path="url(#p07987e8c40)" d="M 244.983673 418.341423 
L 245.451559 417.232653 
L 244.983673 416.546504 
L 237.905124 417.232653 
z
" style="fill:#ab6781;"/>
   </g>
   <g id="PathCollection_5">
    <path clip-path="url(#p07987e8c40)" d="M 244.983673 567 
L 253.182857 567 
L 261.382041 567 
L 269.581224 567 
L 277.780408 567 
L 285.979592 567 
L 294.178776 567 
L 302.377959 567 
L 303.143234 567 
L 302.377959 566.209781 
L 298.55897 557.01551 
L 294.178776 549.040592 
L 292.838417 547.03102 
L 290.081521 537.046531 
L 288.887299 527.062041 
L 292.721705 517.077551 
L 294.178776 514.43833 
L 295.964558 507.093061 
L 295.698521 497.108571 
L 294.178776 496.104422 
L 290.008968 487.124082 
L 287.539414 477.139592 
L 285.979592 469.117641 
L 285.246637 467.155102 
L 285.979592 464.785966 
L 288.19381 457.170612 
L 292.092813 447.186122 
L 285.979592 438.898003 
L 277.910678 437.201633 
L 283.078242 427.217143 
L 285.979592 424.721932 
L 293.477443 417.232653 
L 294.178776 415.965274 
L 295.344005 407.248163 
L 294.178776 405.157204 
L 285.979592 398.807458 
L 280.171327 397.263673 
L 277.780408 396.029412 
L 276.394424 387.279184 
L 269.900343 377.294694 
L 269.581224 376.525563 
L 267.870424 367.310204 
L 269.581224 363.504121 
L 277.780408 360.302557 
L 282.769649 357.325714 
L 283.06794 347.341224 
L 277.780408 342.156378 
L 269.581224 343.94058 
L 265.764349 337.356735 
L 267.979492 327.372245 
L 268.335053 317.387755 
L 265.640955 307.403265 
L 262.830664 297.418776 
L 264.605596 287.434286 
L 264.202935 277.449796 
L 261.382041 273.902092 
L 256.882149 267.465306 
L 259.815562 257.480816 
L 253.182857 253.773828 
L 244.983673 247.58316 
L 244.863819 247.496327 
L 244.983673 247.153463 
L 250.199194 237.511837 
L 253.182857 232.043319 
L 254.488592 227.527347 
L 253.182857 225.692428 
L 244.983673 224.475056 
L 236.78449 220.714161 
L 235.452603 217.542857 
L 236.78449 214.076514 
L 241.587756 207.558367 
L 237.910143 197.573878 
L 236.78449 195.296631 
L 228.585306 191.175395 
L 228.166156 187.589388 
L 220.386122 181.947113 
L 213.765718 177.604898 
L 212.186939 175.137995 
L 210.386473 167.620408 
L 209.443933 157.635918 
L 203.987755 150.447381 
L 202.351269 147.651429 
L 195.788571 141.166943 
L 187.589388 140.842218 
L 181.701852 137.666939 
L 179.390204 135.233869 
L 171.19102 129.635736 
L 169.244745 127.682449 
L 162.991837 122.877487 
L 154.792653 118.636854 
L 146.593469 121.371613 
L 138.394286 119.227481 
L 137.079535 117.697959 
L 130.195102 113.886139 
L 121.995918 111.274317 
L 113.796735 109.398687 
L 106.558354 107.713469 
L 105.597551 107.44594 
L 97.398367 104.718565 
L 89.199184 101.650488 
L 81.862013 97.72898 
L 81 97.296102 
L 81 97.72898 
L 81 107.713469 
L 81 117.697959 
L 81 127.682449 
L 81 127.735848 
L 89.199184 133.150993 
L 97.398367 132.591452 
L 102.21267 137.666939 
L 105.597551 141.29483 
L 113.796735 138.853039 
L 116.434997 147.651429 
L 121.995918 154.995992 
L 127.143119 157.635918 
L 130.195102 159.312698 
L 138.394286 163.640228 
L 146.593469 164.028091 
L 154.792653 165.24389 
L 155.69237 167.620408 
L 159.815054 177.604898 
L 162.991837 184.47963 
L 164.080791 187.589388 
L 163.020312 197.573878 
L 169.702727 207.558367 
L 171.19102 208.367328 
L 179.390204 210.402934 
L 181.541439 217.542857 
L 187.589388 220.103184 
L 195.318028 227.527347 
L 187.589388 233.276711 
L 184.595481 237.511837 
L 185.279339 247.496327 
L 187.589388 253.421714 
L 192.622233 247.496327 
L 195.788571 244.841009 
L 200.414831 247.496327 
L 203.987755 250.319372 
L 206.055523 257.480816 
L 203.987755 264.366899 
L 202.833926 267.465306 
L 203.987755 274.067899 
L 212.186939 276.848784 
L 213.050097 277.449796 
L 212.186939 278.288325 
L 203.987755 279.480716 
L 201.580388 287.434286 
L 203.987755 293.972137 
L 206.098425 297.418776 
L 212.186939 306.114219 
L 212.54678 307.403265 
L 214.077041 317.387755 
L 220.386122 322.842736 
L 225.680753 327.372245 
L 226.631733 337.356735 
L 220.386122 343.946899 
L 212.186939 345.736196 
L 203.987755 346.437994 
L 203.440059 347.341224 
L 203.987755 348.125751 
L 212.186939 349.301256 
L 217.33682 357.325714 
L 220.386122 362.924293 
L 222.138393 367.310204 
L 227.63807 377.294694 
L 228.585306 379.135879 
L 231.179686 387.279184 
L 228.585306 391.263473 
L 223.347173 397.263673 
L 228.585306 402.219545 
L 234.379352 407.248163 
L 236.685259 417.232653 
L 228.585306 423.60305 
L 224.03817 427.217143 
L 227.488162 437.201633 
L 228.585306 438.80243 
L 231.821115 447.186122 
L 235.930208 457.170612 
L 235.122285 467.155102 
L 234.710573 477.139592 
L 233.920132 487.124082 
L 236.78449 494.029989 
L 244.983673 496.66457 
L 245.601801 497.108571 
L 244.983673 497.989226 
L 237.040186 507.093061 
L 244.983673 514.838556 
L 253.138731 517.077551 
L 248.366265 527.062041 
L 244.983673 532.239888 
L 242.404502 537.046531 
L 244.983673 542.596026 
L 247.62555 547.03102 
L 250.723257 557.01551 
L 244.983673 565.628107 
L 243.927484 567 
z
M 237.905124 417.232653 
L 244.983673 416.546504 
L 245.451559 417.232653 
L 244.983673 418.341423 
z
M 276.199958 417.232653 
L 277.563029 407.248163 
L 277.780408 401.843268 
L 278.449502 407.248163 
L 281.389831 417.232653 
L 277.780408 422.862151 
z
" style="fill:#cd6d82;"/>
    <path clip-path="url(#p07987e8c40)" d="M 482.76 567 
L 482.76 557.01551 
L 482.76 547.03102 
L 482.76 537.046531 
L 482.76 527.062041 
L 482.76 517.077551 
L 482.76 511.424036 
L 481.850763 517.077551 
L 480.823893 527.062041 
L 480.893175 537.046531 
L 482.180682 547.03102 
L 480.759221 557.01551 
L 479.657943 567 
z
" style="fill:#cd6d82;"/>
    <path clip-path="url(#p07987e8c40)" d="M 482.76 503.417637 
L 482.76 497.108571 
L 482.76 487.124082 
L 482.76 477.139592 
L 482.76 467.155102 
L 482.76 457.170612 
L 482.76 447.186122 
L 482.76 437.201633 
L 482.76 427.217143 
L 482.76 417.232653 
L 482.76 407.248163 
L 482.76 398.62558 
L 480.873164 407.248163 
L 479.960602 417.232653 
L 480.090121 427.217143 
L 481.573467 437.201633 
L 481.87866 447.186122 
L 480.994064 457.170612 
L 480.988188 467.155102 
L 481.007997 477.139592 
L 480.158982 487.124082 
L 481.526676 497.108571 
z
" style="fill:#cd6d82;"/>
    <path clip-path="url(#p07987e8c40)" d="M 482.76 395.176237 
L 482.76 387.279184 
L 482.76 377.294694 
L 482.76 367.310204 
L 482.76 360.821615 
L 482.027675 367.310204 
L 480.4055 377.294694 
L 481.585242 387.279184 
z
" style="fill:#cd6d82;"/>
    <path clip-path="url(#p07987e8c40)" d="M 482.76 355.529619 
L 482.76 347.341224 
L 482.76 337.356735 
L 482.76 327.372245 
L 482.76 317.387755 
L 482.76 307.403265 
L 482.76 297.418776 
L 482.76 287.434286 
L 482.76 277.449796 
L 482.76 267.465306 
L 482.76 257.480816 
L 482.76 247.496327 
L 482.76 237.511837 
L 482.76 227.527347 
L 482.76 221.054086 
L 481.967086 227.527347 
L 481.254307 237.511837 
L 481.535154 247.496327 
L 480.49645 257.480816 
L 481.918986 267.465306 
L 481.435912 277.449796 
L 481.960399 287.434286 
L 481.448304 297.418776 
L 481.947178 307.403265 
L 481.547722 317.387755 
L 481.177065 327.372245 
L 481.072691 337.356735 
L 481.172759 347.341224 
z
" style="fill:#cd6d82;"/>
    <path clip-path="url(#p07987e8c40)" d="M 277.780408 300.420215 
L 279.28688 297.418776 
L 277.780408 295.146012 
L 270.512813 297.418776 
z
" style="fill:#cd6d82;"/>
    <path clip-path="url(#p07987e8c40)" d="M 482.76 202.256616 
L 482.76 197.573878 
L 482.76 197.36698 
L 482.705326 197.573878 
z
" style="fill:#cd6d82;"/>
    <path clip-path="url(#p07987e8c40)" d="M 482.76 139.71255 
L 482.76 137.666939 
L 482.76 127.682449 
L 482.76 123.195195 
L 481.565575 127.682449 
L 481.992269 137.666939 
z
" style="fill:#cd6d82;"/>
   </g>
   <g id="PathCollection_6">
    <path clip-path="url(#p07987e8c40)" d="M 302.377959 566.209781 
L 303.143234 567 
L 310.577143 567 
L 318.776327 567 
L 326.97551 567 
L 335.174694 567 
L 343.373878 567 
L 351.573061 567 
L 359.772245 567 
L 367.971429 567 
L 376.170612 567 
L 380.608514 567 
L 384.369796 559.073403 
L 386.952435 557.01551 
L 387.186412 547.03102 
L 392.56898 538.837242 
L 395.659146 537.046531 
L 392.56898 535.425872 
L 386.131089 527.062041 
L 384.369796 518.672045 
L 381.908553 517.077551 
L 378.117234 507.093061 
L 376.170612 499.942354 
L 367.971429 497.387885 
L 367.786202 497.108571 
L 367.971429 496.764466 
L 374.433217 487.124082 
L 376.170612 481.320946 
L 384.369796 484.840147 
L 384.738354 477.139592 
L 384.369796 476.634196 
L 376.170612 475.620211 
L 371.396376 467.155102 
L 376.170612 462.458007 
L 380.139889 457.170612 
L 384.369796 448.07691 
L 385.101563 447.186122 
L 384.369796 445.911063 
L 378.696985 437.201633 
L 376.170612 433.274487 
L 374.4679 437.201633 
L 367.971429 442.486891 
L 362.869386 437.201633 
L 367.971429 428.196447 
L 369.709486 427.217143 
L 369.672076 417.232653 
L 372.461594 407.248163 
L 373.254592 397.263673 
L 371.395022 387.279184 
L 375.667931 377.294694 
L 374.793523 367.310204 
L 374.163254 357.325714 
L 368.433938 347.341224 
L 373.285243 337.356735 
L 369.013475 327.372245 
L 367.971429 325.090176 
L 364.635769 317.387755 
L 367.971429 312.291745 
L 370.330397 307.403265 
L 367.971429 305.195004 
L 359.772245 302.765765 
L 352.314079 297.418776 
L 351.573061 292.620842 
L 350.470136 287.434286 
L 343.373878 280.681418 
L 342.674038 277.449796 
L 338.608688 267.465306 
L 337.331845 257.480816 
L 341.07356 247.496327 
L 343.373878 244.765972 
L 351.573061 243.068588 
L 353.449865 237.511837 
L 351.573061 235.298327 
L 343.373878 230.634694 
L 335.174694 227.998608 
L 326.97551 229.027373 
L 325.030748 227.527347 
L 326.97551 222.939388 
L 331.383757 217.542857 
L 329.649934 207.558367 
L 327.129373 197.573878 
L 328.849917 187.589388 
L 326.97551 183.686864 
L 318.776327 179.952684 
L 315.737653 187.589388 
L 310.577143 193.357319 
L 308.174607 187.589388 
L 309.08045 177.604898 
L 308.723028 167.620408 
L 302.377959 160.872467 
L 300.479525 157.635918 
L 296.895217 147.651429 
L 294.178776 142.473214 
L 285.979592 139.933646 
L 283.911091 137.666939 
L 277.780408 132.121762 
L 269.581224 135.426791 
L 261.382041 134.227477 
L 253.182857 132.954579 
L 248.37977 127.682449 
L 244.983673 120.520827 
L 243.044813 117.697959 
L 236.78449 113.825342 
L 228.585306 116.155767 
L 220.386122 112.977516 
L 212.365083 107.713469 
L 212.186939 107.615148 
L 203.987755 105.459018 
L 195.788571 104.166282 
L 187.589388 100.142567 
L 180.4617 97.72898 
L 179.390204 97.535706 
L 171.19102 96.331644 
L 162.991837 94.369618 
L 154.792653 93.490036 
L 146.593469 92.710185 
L 138.394286 91.254456 
L 130.195102 88.311215 
L 121.995918 88.544212 
L 119.87847 87.74449 
L 113.796735 86.033183 
L 105.597551 85.566308 
L 97.398367 84.921658 
L 89.199184 82.81745 
L 81 80.747266 
L 81 87.74449 
L 81 97.296102 
L 81.862013 97.72898 
L 89.199184 101.650488 
L 97.398367 104.718565 
L 105.597551 107.44594 
L 106.558354 107.713469 
L 113.796735 109.398687 
L 121.995918 111.274317 
L 130.195102 113.886139 
L 137.079535 117.697959 
L 138.394286 119.227481 
L 146.593469 121.371613 
L 154.792653 118.636854 
L 162.991837 122.877487 
L 169.244745 127.682449 
L 171.19102 129.635736 
L 179.390204 135.233869 
L 181.701852 137.666939 
L 187.589388 140.842218 
L 195.788571 141.166943 
L 202.351269 147.651429 
L 203.987755 150.447381 
L 209.443933 157.635918 
L 210.386473 167.620408 
L 212.186939 175.137995 
L 213.765718 177.604898 
L 220.386122 181.947113 
L 228.166156 187.589388 
L 228.585306 191.175395 
L 236.78449 195.296631 
L 237.910143 197.573878 
L 241.587756 207.558367 
L 236.78449 214.076514 
L 235.452603 217.542857 
L 236.78449 220.714161 
L 244.983673 224.475056 
L 253.182857 225.692428 
L 254.488592 227.527347 
L 253.182857 232.043319 
L 250.199194 237.511837 
L 244.983673 247.153463 
L 244.863819 247.496327 
L 244.983673 247.58316 
L 253.182857 253.773828 
L 259.815562 257.480816 
L 256.882149 267.465306 
L 261.382041 273.902092 
L 264.202935 277.449796 
L 264.605596 287.434286 
L 262.830664 297.418776 
L 265.640955 307.403265 
L 268.335053 317.387755 
L 267.979492 327.372245 
L 265.764349 337.356735 
L 269.581224 343.94058 
L 277.780408 342.156378 
L 283.06794 347.341224 
L 282.769649 357.325714 
L 277.780408 360.302557 
L 269.581224 363.504121 
L 267.870424 367.310204 
L 269.581224 376.525563 
L 269.900343 377.294694 
L 276.394424 387.279184 
L 277.780408 396.029412 
L 280.171327 397.263673 
L 285.979592 398.807458 
L 294.178776 405.157204 
L 295.344005 407.248163 
L 294.178776 415.965274 
L 293.477443 417.232653 
L 285.979592 424.721932 
L 283.078242 427.217143 
L 277.910678 437.201633 
L 285.979592 438.898003 
L 292.092813 447.186122 
L 288.19381 457.170612 
L 285.979592 464.785966 
L 285.246637 467.155102 
L 285.979592 469.117641 
L 287.539414 477.139592 
L 290.008968 487.124082 
L 294.178776 496.104422 
L 295.698521 497.108571 
L 295.964558 507.093061 
L 294.178776 514.43833 
L 292.721705 517.077551 
L 288.887299 527.062041 
L 290.081521 537.046531 
L 292.838417 547.03102 
L 294.178776 549.040592 
L 298.55897 557.01551 
z
M 270.512813 297.418776 
L 277.780408 295.146012 
L 279.28688 297.418776 
L 277.780408 300.420215 
z
" style="fill:#e87080;"/>
    <path clip-path="url(#p07987e8c40)" d="M 480.759221 557.01551 
L 482.180682 547.03102 
L 480.893175 537.046531 
L 480.823893 527.062041 
L 481.850763 517.077551 
L 482.76 511.424036 
L 482.76 507.093061 
L 482.76 503.417637 
L 481.526676 497.108571 
L 480.158982 487.124082 
L 481.007997 477.139592 
L 480.988188 467.155102 
L 480.994064 457.170612 
L 481.87866 447.186122 
L 481.573467 437.201633 
L 480.090121 427.217143 
L 479.960602 417.232653 
L 480.873164 407.248163 
L 482.76 398.62558 
L 482.76 397.263673 
L 482.76 395.176237 
L 481.585242 387.279184 
L 480.4055 377.294694 
L 482.027675 367.310204 
L 482.76 360.821615 
L 482.76 357.325714 
L 482.76 355.529619 
L 481.172759 347.341224 
L 481.072691 337.356735 
L 481.177065 327.372245 
L 481.547722 317.387755 
L 481.947178 307.403265 
L 481.448304 297.418776 
L 481.960399 287.434286 
L 481.435912 277.449796 
L 481.918986 267.465306 
L 480.49645 257.480816 
L 481.535154 247.496327 
L 481.254307 237.511837 
L 481.967086 227.527347 
L 482.76 221.054086 
L 482.76 217.542857 
L 482.76 207.558367 
L 482.76 202.256616 
L 482.705326 197.573878 
L 482.76 197.36698 
L 482.76 187.589388 
L 482.76 177.604898 
L 482.76 167.620408 
L 482.76 157.635918 
L 482.76 147.651429 
L 482.76 139.71255 
L 481.992269 137.666939 
L 481.565575 127.682449 
L 482.76 123.195195 
L 482.76 117.697959 
L 482.76 107.713469 
L 482.76 97.72898 
L 482.76 87.74449 
L 482.76 77.76 
L 481.617743 77.76 
L 481.792343 87.74449 
L 481.829735 97.72898 
L 479.841479 107.713469 
L 478.191248 117.697959 
L 476.833417 127.682449 
L 477.097801 137.666939 
L 479.52149 147.651429 
L 477.379875 157.635918 
L 478.638826 167.620408 
L 479.927748 177.604898 
L 478.865074 187.589388 
L 477.278361 197.573878 
L 477.082294 207.558367 
L 477.415464 217.542857 
L 476.971669 227.527347 
L 476.572317 237.511837 
L 476.678139 247.496327 
L 476.210182 257.480816 
L 476.790288 267.465306 
L 476.799354 277.449796 
L 476.973548 287.434286 
L 476.744537 297.418776 
L 477.061443 307.403265 
L 476.703217 317.387755 
L 476.598567 327.372245 
L 476.45765 337.356735 
L 476.599269 347.341224 
L 477.212063 357.325714 
L 476.844611 367.310204 
L 476.29235 377.294694 
L 476.736171 387.279184 
L 477.47564 397.263673 
L 476.219386 407.248163 
L 475.679806 417.232653 
L 475.866352 427.217143 
L 476.663163 437.201633 
L 476.866468 447.186122 
L 476.208333 457.170612 
L 476.432833 467.155102 
L 476.460624 477.139592 
L 475.871901 487.124082 
L 476.550846 497.108571 
L 477.553646 507.093061 
L 477.02695 517.077551 
L 476.501105 527.062041 
L 476.234085 537.046531 
L 476.875504 547.03102 
L 476.167579 557.01551 
L 475.880663 567 
L 479.657943 567 
z
" style="fill:#e87080;"/>
    <path clip-path="url(#p07987e8c40)" d="M 400.768163 519.631193 
L 402.487116 517.077551 
L 400.768163 507.310413 
L 395.93794 517.077551 
z
" style="fill:#e87080;"/>
    <path clip-path="url(#p07987e8c40)" d="M 384.369796 500.344677 
L 389.345496 497.108571 
L 384.369796 488.043046 
L 377.848467 497.108571 
z
" style="fill:#e87080;"/>
    <path clip-path="url(#p07987e8c40)" d="M 277.780408 422.862151 
L 281.389831 417.232653 
L 278.449502 407.248163 
L 277.780408 401.843268 
L 277.563029 407.248163 
L 276.199958 417.232653 
z
" style="fill:#e87080;"/>
    <path clip-path="url(#p07987e8c40)" d="M 351.573061 273.952617 
L 353.44271 267.465306 
L 351.573061 264.410842 
L 350.949263 267.465306 
z
" style="fill:#e87080;"/>
   </g>
   <g id="PathCollection_7">
    <path clip-path="url(#p07987e8c40)" d="M 384.369796 567 
L 392.56898 567 
L 400.768163 567 
L 408.967347 567 
L 417.166531 567 
L 425.365714 567 
L 433.564898 567 
L 441.764082 567 
L 449.963265 567 
L 458.162449 567 
L 466.361633 567 
L 474.560816 567 
L 475.880663 567 
L 476.167579 557.01551 
L 476.875504 547.03102 
L 476.234085 537.046531 
L 476.501105 527.062041 
L 477.02695 517.077551 
L 477.553646 507.093061 
L 476.550846 497.108571 
L 475.871901 487.124082 
L 476.460624 477.139592 
L 476.432833 467.155102 
L 476.208333 457.170612 
L 476.866468 447.186122 
L 476.663163 437.201633 
L 475.866352 427.217143 
L 475.679806 417.232653 
L 476.219386 407.248163 
L 477.47564 397.263673 
L 476.736171 387.279184 
L 476.29235 377.294694 
L 476.844611 367.310204 
L 477.212063 357.325714 
L 476.599269 347.341224 
L 476.45765 337.356735 
L 476.598567 327.372245 
L 476.703217 317.387755 
L 477.061443 307.403265 
L 476.744537 297.418776 
L 476.973548 287.434286 
L 476.799354 277.449796 
L 476.790288 267.465306 
L 476.210182 257.480816 
L 476.678139 247.496327 
L 476.572317 237.511837 
L 476.971669 227.527347 
L 477.415464 217.542857 
L 477.082294 207.558367 
L 477.278361 197.573878 
L 478.865074 187.589388 
L 479.927748 177.604898 
L 478.638826 167.620408 
L 477.379875 157.635918 
L 479.52149 147.651429 
L 477.097801 137.666939 
L 476.833417 127.682449 
L 478.191248 117.697959 
L 479.841479 107.713469 
L 481.829735 97.72898 
L 481.792343 87.74449 
L 481.617743 77.76 
L 475.233247 77.76 
L 474.663892 87.74449 
L 474.560816 88.838694 
L 471.603546 97.72898 
L 467.347367 107.713469 
L 466.361633 111.017567 
L 458.162449 114.970205 
L 456.433366 117.697959 
L 449.963265 124.199267 
L 446.127778 127.682449 
L 441.764082 129.878361 
L 433.564898 129.647461 
L 428.787874 127.682449 
L 425.365714 125.75456 
L 417.166531 119.841802 
L 415.01315 117.697959 
L 408.967347 114.996888 
L 403.200745 107.713469 
L 400.768163 104.567679 
L 392.56898 104.779865 
L 387.398308 107.713469 
L 384.369796 108.921716 
L 381.79516 107.713469 
L 376.170612 104.594894 
L 367.971429 101.205291 
L 359.772245 104.138267 
L 351.573061 101.122534 
L 347.26182 97.72898 
L 343.373878 95.653314 
L 335.174694 95.314856 
L 326.97551 96.004051 
L 318.776327 95.004659 
L 310.577143 96.96261 
L 302.377959 93.244537 
L 294.178776 91.09942 
L 285.979592 89.954929 
L 277.780408 88.742604 
L 269.581224 88.847303 
L 261.449794 87.74449 
L 261.382041 87.736083 
L 261.275477 87.74449 
L 253.182857 88.443807 
L 244.983673 88.313796 
L 242.893773 87.74449 
L 236.78449 86.017291 
L 228.585306 85.04063 
L 220.386122 84.147003 
L 212.186939 82.65067 
L 203.987755 82.301746 
L 195.788571 81.718095 
L 187.589388 79.933837 
L 179.390204 79.862668 
L 171.19102 78.159704 
L 168.082413 77.76 
L 162.991837 77.76 
L 154.792653 77.76 
L 146.593469 77.76 
L 138.394286 77.76 
L 130.195102 77.76 
L 121.995918 77.76 
L 113.796735 77.76 
L 105.597551 77.76 
L 97.398367 77.76 
L 89.199184 77.76 
L 81 77.76 
L 81 80.747266 
L 89.199184 82.81745 
L 97.398367 84.921658 
L 105.597551 85.566308 
L 113.796735 86.033183 
L 119.87847 87.74449 
L 121.995918 88.544212 
L 130.195102 88.311215 
L 138.394286 91.254456 
L 146.593469 92.710185 
L 154.792653 93.490036 
L 162.991837 94.369618 
L 171.19102 96.331644 
L 179.390204 97.535706 
L 180.4617 97.72898 
L 187.589388 100.142567 
L 195.788571 104.166282 
L 203.987755 105.459018 
L 212.186939 107.615148 
L 212.365083 107.713469 
L 220.386122 112.977516 
L 228.585306 116.155767 
L 236.78449 113.825342 
L 243.044813 117.697959 
L 244.983673 120.520827 
L 248.37977 127.682449 
L 253.182857 132.954579 
L 261.382041 134.227477 
L 269.581224 135.426791 
L 277.780408 132.121762 
L 283.911091 137.666939 
L 285.979592 139.933646 
L 294.178776 142.473214 
L 296.895217 147.651429 
L 300.479525 157.635918 
L 302.377959 160.872467 
L 308.723028 167.620408 
L 309.08045 177.604898 
L 308.174607 187.589388 
L 310.577143 193.357319 
L 315.737653 187.589388 
L 318.776327 179.952684 
L 326.97551 183.686864 
L 328.849917 187.589388 
L 327.129373 197.573878 
L 329.649934 207.558367 
L 331.383757 217.542857 
L 326.97551 222.939388 
L 325.030748 227.527347 
L 326.97551 229.027373 
L 335.174694 227.998608 
L 343.373878 230.634694 
L 351.573061 235.298327 
L 353.449865 237.511837 
L 351.573061 243.068588 
L 343.373878 244.765972 
L 341.07356 247.496327 
L 337.331845 257.480816 
L 338.608688 267.465306 
L 342.674038 277.449796 
L 343.373878 280.681418 
L 350.470136 287.434286 
L 351.573061 292.620842 
L 352.314079 297.418776 
L 359.772245 302.765765 
L 367.971429 305.195004 
L 370.330397 307.403265 
L 367.971429 312.291745 
L 364.635769 317.387755 
L 367.971429 325.090176 
L 369.013475 327.372245 
L 373.285243 337.356735 
L 368.433938 347.341224 
L 374.163254 357.325714 
L 374.793523 367.310204 
L 375.667931 377.294694 
L 371.395022 387.279184 
L 373.254592 397.263673 
L 372.461594 407.248163 
L 369.672076 417.232653 
L 369.709486 427.217143 
L 367.971429 428.196447 
L 362.869386 437.201633 
L 367.971429 442.486891 
L 374.4679 437.201633 
L 376.170612 433.274487 
L 378.696985 437.201633 
L 384.369796 445.911063 
L 385.101563 447.186122 
L 384.369796 448.07691 
L 380.139889 457.170612 
L 376.170612 462.458007 
L 371.396376 467.155102 
L 376.170612 475.620211 
L 384.369796 476.634196 
L 384.738354 477.139592 
L 384.369796 484.840147 
L 376.170612 481.320946 
L 374.433217 487.124082 
L 367.971429 496.764466 
L 367.786202 497.108571 
L 367.971429 497.387885 
L 376.170612 499.942354 
L 378.117234 507.093061 
L 381.908553 517.077551 
L 384.369796 518.672045 
L 386.131089 527.062041 
L 392.56898 535.425872 
L 395.659146 537.046531 
L 392.56898 538.837242 
L 387.186412 547.03102 
L 386.952435 557.01551 
L 384.369796 559.073403 
L 380.608514 567 
z
M 395.93794 517.077551 
L 400.768163 507.310413 
L 402.487116 517.077551 
L 400.768163 519.631193 
z
M 377.848467 497.108571 
L 384.369796 488.043046 
L 389.345496 497.108571 
L 384.369796 500.344677 
z
M 350.949263 267.465306 
L 351.573061 264.410842 
L 353.44271 267.465306 
L 351.573061 273.952617 
z
" style="fill:#f68285;"/>
    <path clip-path="url(#p07987e8c40)" d="M 433.564898 124.049685 
L 437.017584 117.697959 
L 433.564898 115.954979 
L 430.541839 117.697959 
z
" style="fill:#f68285;"/>
   </g>
   <g id="PathCollection_8">
    <path clip-path="url(#p07987e8c40)" d="M 433.564898 129.647461 
L 441.764082 129.878361 
L 446.127778 127.682449 
L 449.963265 124.199267 
L 456.433366 117.697959 
L 458.162449 114.970205 
L 466.361633 111.017567 
L 467.347367 107.713469 
L 471.603546 97.72898 
L 474.560816 88.838694 
L 474.663892 87.74449 
L 475.233247 77.76 
L 474.560816 77.76 
L 466.361633 77.76 
L 458.162449 77.76 
L 449.963265 77.76 
L 441.764082 77.76 
L 433.564898 77.76 
L 425.365714 77.76 
L 417.166531 77.76 
L 408.967347 77.76 
L 400.768163 77.76 
L 392.56898 77.76 
L 384.369796 77.76 
L 376.170612 77.76 
L 367.971429 77.76 
L 359.772245 77.76 
L 351.573061 77.76 
L 343.373878 77.76 
L 335.174694 77.76 
L 326.97551 77.76 
L 318.776327 77.76 
L 310.577143 77.76 
L 302.377959 77.76 
L 294.178776 77.76 
L 285.979592 77.76 
L 277.780408 77.76 
L 269.581224 77.76 
L 261.382041 77.76 
L 253.182857 77.76 
L 244.983673 77.76 
L 236.78449 77.76 
L 228.585306 77.76 
L 220.386122 77.76 
L 212.186939 77.76 
L 203.987755 77.76 
L 195.788571 77.76 
L 187.589388 77.76 
L 179.390204 77.76 
L 171.19102 77.76 
L 168.082413 77.76 
L 171.19102 78.159704 
L 179.390204 79.862668 
L 187.589388 79.933837 
L 195.788571 81.718095 
L 203.987755 82.301746 
L 212.186939 82.65067 
L 220.386122 84.147003 
L 228.585306 85.04063 
L 236.78449 86.017291 
L 242.893773 87.74449 
L 244.983673 88.313796 
L 253.182857 88.443807 
L 261.275477 87.74449 
L 261.382041 87.736083 
L 261.449794 87.74449 
L 269.581224 88.847303 
L 277.780408 88.742604 
L 285.979592 89.954929 
L 294.178776 91.09942 
L 302.377959 93.244537 
L 310.577143 96.96261 
L 318.776327 95.004659 
L 326.97551 96.004051 
L 335.174694 95.314856 
L 343.373878 95.653314 
L 347.26182 97.72898 
L 351.573061 101.122534 
L 359.772245 104.138267 
L 367.971429 101.205291 
L 376.170612 104.594894 
L 381.79516 107.713469 
L 384.369796 108.921716 
L 387.398308 107.713469 
L 392.56898 104.779865 
L 400.768163 104.567679 
L 403.200745 107.713469 
L 408.967347 114.996888 
L 415.01315 117.697959 
L 417.166531 119.841802 
L 425.365714 125.75456 
L 428.787874 127.682449 
z
M 430.541839 117.697959 
L 433.564898 115.954979 
L 437.017584 117.697959 
L 433.564898 124.049685 
z
" style="fill:#f7a28f;"/>
   </g>
   <g id="LineCollection_1"/>
   <g id="LineCollection_2">
    <path clip-path="url(#p07987e8c40)" d="M 81 428.444062 
L 89.199184 427.226477 
L 90.700452 437.201633 
L 89.199184 445.377641 
L 88.225028 447.186122 
L 89.199184 448.928855 
L 97.398367 455.364379 
L 98.743092 457.170612 
L 99.859171 467.155102 
L 105.597551 476.07214 
L 106.066344 477.139592 
L 105.597551 479.262443 
L 97.398367 485.263621 
L 96.240884 487.124082 
L 97.398367 493.46369 
L 105.597551 493.384655 
L 108.141587 497.108571 
L 105.597551 499.640927 
L 97.398367 500.065957 
L 95.942565 507.093061 
L 97.398367 509.521437 
L 105.597551 512.999796 
L 109.047555 517.077551 
L 106.988479 527.062041 
L 105.597551 529.498584 
L 101.21195 537.046531 
L 105.508503 547.03102 
L 105.597551 547.216327 
L 113.796735 555.599422 
L 114.786703 557.01551 
L 113.796735 557.829853 
L 105.597551 562.819085 
L 104.126544 567 
" style="fill:none;stroke:#000000;stroke-opacity:0.6;stroke-width:2;"/>
    <path clip-path="url(#p07987e8c40)" d="M 81 389.195292 
L 83.626723 387.279184 
L 89.199184 383.901943 
L 92.333188 387.279184 
L 89.199184 392.253608 
L 86.439219 397.263673 
L 86.317092 407.248163 
L 85.5059 417.232653 
L 81 423.530678 
" style="fill:none;stroke:#000000;stroke-opacity:0.6;stroke-width:2;"/>
    <path clip-path="url(#p07987e8c40)" d="M 81 326.834992 
L 82.462165 327.372245 
L 81 333.744776 
" style="fill:none;stroke:#000000;stroke-opacity:0.6;stroke-width:2;"/>
   </g>
   <g id="LineCollection_3">
    <path clip-path="url(#p07987e8c40)" d="M 81 241.109919 
L 89.199184 242.021001 
L 93.495665 247.496327 
L 97.398367 252.889198 
L 101.132352 257.480816 
L 100.906496 267.465306 
L 102.784425 277.449796 
L 104.958645 287.434286 
L 105.597551 288.687553 
L 109.06606 297.418776 
L 113.796735 306.778009 
L 117.290327 307.403265 
L 113.796735 308.485116 
L 111.1413 317.387755 
L 110.984899 327.372245 
L 113.796735 330.796058 
L 121.995918 332.262222 
L 124.472402 337.356735 
L 130.195102 345.831165 
L 132.36118 347.341224 
L 130.760201 357.325714 
L 130.195102 357.950701 
L 123.582505 367.310204 
L 129.025362 377.294694 
L 130.195102 379.691635 
L 135.285682 377.294694 
L 138.394286 375.602982 
L 140.603712 377.294694 
L 140.428612 387.279184 
L 146.593469 393.731716 
L 147.69244 397.263673 
L 146.593469 400.512864 
L 138.394286 403.224125 
L 134.606832 407.248163 
L 136.408791 417.232653 
L 138.394286 425.130656 
L 139.033848 427.217143 
L 142.833926 437.201633 
L 142.596247 447.186122 
L 143.409074 457.170612 
L 143.199687 467.155102 
L 146.593469 475.510123 
L 152.566639 477.139592 
L 146.593469 478.905584 
L 142.05472 487.124082 
L 138.776546 497.108571 
L 142.442703 507.093061 
L 146.593469 511.193936 
L 154.792653 514.62 
L 155.304227 517.077551 
L 154.792653 521.114154 
L 150.937624 527.062041 
L 154.792653 528.931507 
L 159.929428 537.046531 
L 162.991837 546.578427 
L 163.662664 547.03102 
L 162.991837 547.257988 
L 154.792653 551.296595 
L 146.593469 554.11026 
L 143.607306 557.01551 
L 142.886736 567 
" style="fill:none;stroke:#000000;stroke-opacity:0.6;stroke-width:2;"/>
    <path clip-path="url(#p07987e8c40)" d="M 81 224.522215 
L 83.047578 227.527347 
L 81 228.791772 
" style="fill:none;stroke:#000000;stroke-opacity:0.6;stroke-width:2;"/>
    <path clip-path="url(#p07987e8c40)" d="M 154.792653 472.737038 
L 154.100839 467.155102 
L 154.792653 466.467896 
L 155.021052 467.155102 
L 154.792653 472.737038 
" style="fill:none;stroke:#000000;stroke-opacity:0.6;stroke-width:2;"/>
    <path clip-path="url(#p07987e8c40)" d="M 121.995918 320.418996 
L 119.386176 317.387755 
L 121.995918 309.9949 
L 124.287121 317.387755 
L 121.995918 320.418996 
" style="fill:none;stroke:#000000;stroke-opacity:0.6;stroke-width:2;"/>
   </g>
   <g id="LineCollection_4">
    <path clip-path="url(#p07987e8c40)" d="M 81 167.385766 
L 81.198734 167.620408 
L 89.199184 172.548378 
L 94.982997 177.604898 
L 97.398367 180.129669 
L 105.597551 187.090257 
L 105.988785 187.589388 
L 113.796735 195.796828 
L 118.700702 197.573878 
L 121.995918 199.385999 
L 125.83916 207.558367 
L 130.195102 213.405226 
L 132.813227 217.542857 
L 138.394286 225.269302 
L 139.890848 227.527347 
L 142.645118 237.511837 
L 141.97948 247.496327 
L 141.208864 257.480816 
L 138.394286 265.819372 
L 137.391849 267.465306 
L 138.394286 268.828582 
L 146.593469 271.143945 
L 154.792653 269.204855 
L 162.991837 274.411796 
L 164.349032 277.449796 
L 162.991837 280.593617 
L 159.410882 287.434286 
L 160.747309 297.418776 
L 161.259609 307.403265 
L 162.991837 311.916637 
L 166.39225 317.387755 
L 171.19102 322.476187 
L 174.316929 327.372245 
L 176.118972 337.356735 
L 174.991449 347.341224 
L 171.19102 352.729799 
L 167.037765 357.325714 
L 171.19102 360.680027 
L 175.008057 357.325714 
L 179.390204 352.749991 
L 181.665822 357.325714 
L 179.390204 365.260636 
L 178.320601 367.310204 
L 177.468953 377.294694 
L 179.12519 387.279184 
L 179.390204 391.437365 
L 179.785 397.263673 
L 186.627408 407.248163 
L 187.589388 415.392675 
L 187.704131 417.232653 
L 187.589388 417.868154 
L 180.728312 427.217143 
L 187.589388 432.524174 
L 195.788571 436.997841 
L 195.96814 437.201633 
L 195.788571 437.622124 
L 193.635382 447.186122 
L 192.640228 457.170612 
L 189.596213 467.155102 
L 189.992543 477.139592 
L 190.494655 487.124082 
L 187.589388 496.698704 
L 187.430835 497.108571 
L 187.386061 507.093061 
L 187.589388 507.409672 
L 191.383854 517.077551 
L 193.540378 527.062041 
L 195.788571 529.081876 
L 200.501859 537.046531 
L 198.934684 547.03102 
L 195.788571 555.385815 
L 195.499433 557.01551 
L 193.248382 567 
" style="fill:none;stroke:#000000;stroke-opacity:0.6;stroke-width:2;"/>
   </g>
   <g id="LineCollection_5">
    <path clip-path="url(#p07987e8c40)" d="M 81 127.735848 
L 89.199184 133.150993 
L 97.398367 132.591452 
L 102.21267 137.666939 
L 105.597551 141.29483 
L 113.796735 138.853039 
L 116.434997 147.651429 
L 121.995918 154.995992 
L 127.143119 157.635918 
L 130.195102 159.312698 
L 138.394286 163.640228 
L 146.593469 164.028091 
L 154.792653 165.24389 
L 155.69237 167.620408 
L 159.815054 177.604898 
L 162.991837 184.47963 
L 164.080791 187.589388 
L 163.020312 197.573878 
L 169.702727 207.558367 
L 171.19102 208.367328 
L 179.390204 210.402934 
L 181.541439 217.542857 
L 187.589388 220.103184 
L 195.318028 227.527347 
L 187.589388 233.276711 
L 184.595481 237.511837 
L 185.279339 247.496327 
L 187.589388 253.421714 
L 192.622233 247.496327 
L 195.788571 244.841009 
L 200.414831 247.496327 
L 203.987755 250.319372 
L 206.055523 257.480816 
L 203.987755 264.366899 
L 202.833926 267.465306 
L 203.987755 274.067899 
L 212.186939 276.848784 
L 213.050097 277.449796 
L 212.186939 278.288325 
L 203.987755 279.480716 
L 201.580388 287.434286 
L 203.987755 293.972137 
L 206.098425 297.418776 
L 212.186939 306.114219 
L 212.54678 307.403265 
L 214.077041 317.387755 
L 220.386122 322.842736 
L 225.680753 327.372245 
L 226.631733 337.356735 
L 220.386122 343.946899 
L 212.186939 345.736196 
L 203.987755 346.437994 
L 203.440059 347.341224 
L 203.987755 348.125751 
L 212.186939 349.301256 
L 217.33682 357.325714 
L 220.386122 362.924293 
L 222.138393 367.310204 
L 227.63807 377.294694 
L 228.585306 379.135879 
L 231.179686 387.279184 
L 228.585306 391.263473 
L 223.347173 397.263673 
L 228.585306 402.219545 
L 234.379352 407.248163 
L 236.685259 417.232653 
L 228.585306 423.60305 
L 224.03817 427.217143 
L 227.488162 437.201633 
L 228.585306 438.80243 
L 231.821115 447.186122 
L 235.930208 457.170612 
L 235.122285 467.155102 
L 234.710573 477.139592 
L 233.920132 487.124082 
L 236.78449 494.029989 
L 244.983673 496.66457 
L 245.601801 497.108571 
L 244.983673 497.989226 
L 237.040186 507.093061 
L 244.983673 514.838556 
L 253.138731 517.077551 
L 248.366265 527.062041 
L 244.983673 532.239888 
L 242.404502 537.046531 
L 244.983673 542.596026 
L 247.62555 547.03102 
L 250.723257 557.01551 
L 244.983673 565.628107 
L 243.927484 567 
" style="fill:none;stroke:#000000;stroke-opacity:0.6;stroke-width:2;"/>
    <path clip-path="url(#p07987e8c40)" d="M 244.983673 418.341423 
L 237.905124 417.232653 
L 244.983673 416.546504 
L 245.451559 417.232653 
L 244.983673 418.341423 
" style="fill:none;stroke:#000000;stroke-opacity:0.6;stroke-width:2;"/>
   </g>
   <g id="LineCollection_6">
    <path clip-path="url(#p07987e8c40)" d="M 479.657943 567 
L 480.759221 557.01551 
L 482.180682 547.03102 
L 480.893175 537.046531 
L 480.823893 527.062041 
L 481.850763 517.077551 
L 482.76 511.424036 
" style="fill:none;stroke:#000000;stroke-opacity:0.6;stroke-width:2;"/>
    <path clip-path="url(#p07987e8c40)" d="M 482.76 503.417637 
L 481.526676 497.108571 
L 480.158982 487.124082 
L 481.007997 477.139592 
L 480.988188 467.155102 
L 480.994064 457.170612 
L 481.87866 447.186122 
L 481.573467 437.201633 
L 480.090121 427.217143 
L 479.960602 417.232653 
L 480.873164 407.248163 
L 482.76 398.62558 
" style="fill:none;stroke:#000000;stroke-opacity:0.6;stroke-width:2;"/>
    <path clip-path="url(#p07987e8c40)" d="M 482.76 395.176237 
L 481.585242 387.279184 
L 480.4055 377.294694 
L 482.027675 367.310204 
L 482.76 360.821615 
" style="fill:none;stroke:#000000;stroke-opacity:0.6;stroke-width:2;"/>
    <path clip-path="url(#p07987e8c40)" d="M 482.76 355.529619 
L 481.172759 347.341224 
L 481.072691 337.356735 
L 481.177065 327.372245 
L 481.547722 317.387755 
L 481.947178 307.403265 
L 481.448304 297.418776 
L 481.960399 287.434286 
L 481.435912 277.449796 
L 481.918986 267.465306 
L 480.49645 257.480816 
L 481.535154 247.496327 
L 481.254307 237.511837 
L 481.967086 227.527347 
L 482.76 221.054086 
" style="fill:none;stroke:#000000;stroke-opacity:0.6;stroke-width:2;"/>
    <path clip-path="url(#p07987e8c40)" d="M 482.76 202.256616 
L 482.705326 197.573878 
L 482.76 197.36698 
" style="fill:none;stroke:#000000;stroke-opacity:0.6;stroke-width:2;"/>
    <path clip-path="url(#p07987e8c40)" d="M 482.76 139.71255 
L 481.992269 137.666939 
L 481.565575 127.682449 
L 482.76 123.195195 
" style="fill:none;stroke:#000000;stroke-opacity:0.6;stroke-width:2;"/>
    <path clip-path="url(#p07987e8c40)" d="M 81 97.296102 
L 81.862013 97.72898 
L 89.199184 101.650488 
L 97.398367 104.718565 
L 105.597551 107.44594 
L 106.558354 107.713469 
L 113.796735 109.398687 
L 121.995918 111.274317 
L 130.195102 113.886139 
L 137.079535 117.697959 
L 138.394286 119.227481 
L 146.593469 121.371613 
L 154.792653 118.636854 
L 162.991837 122.877487 
L 169.244745 127.682449 
L 171.19102 129.635736 
L 179.390204 135.233869 
L 181.701852 137.666939 
L 187.589388 140.842218 
L 195.788571 141.166943 
L 202.351269 147.651429 
L 203.987755 150.447381 
L 209.443933 157.635918 
L 210.386473 167.620408 
L 212.186939 175.137995 
L 213.765718 177.604898 
L 220.386122 181.947113 
L 228.166156 187.589388 
L 228.585306 191.175395 
L 236.78449 195.296631 
L 237.910143 197.573878 
L 241.587756 207.558367 
L 236.78449 214.076514 
L 235.452603 217.542857 
L 236.78449 220.714161 
L 244.983673 224.475056 
L 253.182857 225.692428 
L 254.488592 227.527347 
L 253.182857 232.043319 
L 250.199194 237.511837 
L 244.983673 247.153463 
L 244.863819 247.496327 
L 244.983673 247.58316 
L 253.182857 253.773828 
L 259.815562 257.480816 
L 256.882149 267.465306 
L 261.382041 273.902092 
L 264.202935 277.449796 
L 264.605596 287.434286 
L 262.830664 297.418776 
L 265.640955 307.403265 
L 268.335053 317.387755 
L 267.979492 327.372245 
L 265.764349 337.356735 
L 269.581224 343.94058 
L 277.780408 342.156378 
L 283.06794 347.341224 
L 282.769649 357.325714 
L 277.780408 360.302557 
L 269.581224 363.504121 
L 267.870424 367.310204 
L 269.581224 376.525563 
L 269.900343 377.294694 
L 276.394424 387.279184 
L 277.780408 396.029412 
L 280.171327 397.263673 
L 285.979592 398.807458 
L 294.178776 405.157204 
L 295.344005 407.248163 
L 294.178776 415.965274 
L 293.477443 417.232653 
L 285.979592 424.721932 
L 283.078242 427.217143 
L 277.910678 437.201633 
L 285.979592 438.898003 
L 292.092813 447.186122 
L 288.19381 457.170612 
L 285.979592 464.785966 
L 285.246637 467.155102 
L 285.979592 469.117641 
L 287.539414 477.139592 
L 290.008968 487.124082 
L 294.178776 496.104422 
L 295.698521 497.108571 
L 295.964558 507.093061 
L 294.178776 514.43833 
L 292.721705 517.077551 
L 288.887299 527.062041 
L 290.081521 537.046531 
L 292.838417 547.03102 
L 294.178776 549.040592 
L 298.55897 557.01551 
L 302.377959 566.209781 
L 303.143234 567 
" style="fill:none;stroke:#000000;stroke-opacity:0.6;stroke-width:2;"/>
    <path clip-path="url(#p07987e8c40)" d="M 277.780408 422.862151 
L 281.389831 417.232653 
L 278.449502 407.248163 
L 277.780408 401.843268 
L 277.563029 407.248163 
L 276.199958 417.232653 
L 277.780408 422.862151 
" style="fill:none;stroke:#000000;stroke-opacity:0.6;stroke-width:2;"/>
    <path clip-path="url(#p07987e8c40)" d="M 277.780408 300.420215 
L 270.512813 297.418776 
L 277.780408 295.146012 
L 279.28688 297.418776 
L 277.780408 300.420215 
" style="fill:none;stroke:#000000;stroke-opacity:0.6;stroke-width:2;"/>
   </g>
   <g id="LineCollection_7">
    <path clip-path="url(#p07987e8c40)" d="M 475.880663 567 
L 476.167579 557.01551 
L 476.875504 547.03102 
L 476.234085 537.046531 
L 476.501105 527.062041 
L 477.02695 517.077551 
L 477.553646 507.093061 
L 476.550846 497.108571 
L 475.871901 487.124082 
L 476.460624 477.139592 
L 476.432833 467.155102 
L 476.208333 457.170612 
L 476.866468 447.186122 
L 476.663163 437.201633 
L 475.866352 427.217143 
L 475.679806 417.232653 
L 476.219386 407.248163 
L 477.47564 397.263673 
L 476.736171 387.279184 
L 476.29235 377.294694 
L 476.844611 367.310204 
L 477.212063 357.325714 
L 476.599269 347.341224 
L 476.45765 337.356735 
L 476.598567 327.372245 
L 476.703217 317.387755 
L 477.061443 307.403265 
L 476.744537 297.418776 
L 476.973548 287.434286 
L 476.799354 277.449796 
L 476.790288 267.465306 
L 476.210182 257.480816 
L 476.678139 247.496327 
L 476.572317 237.511837 
L 476.971669 227.527347 
L 477.415464 217.542857 
L 477.082294 207.558367 
L 477.278361 197.573878 
L 478.865074 187.589388 
L 479.927748 177.604898 
L 478.638826 167.620408 
L 477.379875 157.635918 
L 479.52149 147.651429 
L 477.097801 137.666939 
L 476.833417 127.682449 
L 478.191248 117.697959 
L 479.841479 107.713469 
L 481.829735 97.72898 
L 481.792343 87.74449 
L 481.617743 77.76 
" style="fill:none;stroke:#000000;stroke-opacity:0.6;stroke-width:2;"/>
    <path clip-path="url(#p07987e8c40)" d="M 81 80.747266 
L 89.199184 82.81745 
L 97.398367 84.921658 
L 105.597551 85.566308 
L 113.796735 86.033183 
L 119.87847 87.74449 
L 121.995918 88.544212 
L 130.195102 88.311215 
L 138.394286 91.254456 
L 146.593469 92.710185 
L 154.792653 93.490036 
L 162.991837 94.369618 
L 171.19102 96.331644 
L 179.390204 97.535706 
L 180.4617 97.72898 
L 187.589388 100.142567 
L 195.788571 104.166282 
L 203.987755 105.459018 
L 212.186939 107.615148 
L 212.365083 107.713469 
L 220.386122 112.977516 
L 228.585306 116.155767 
L 236.78449 113.825342 
L 243.044813 117.697959 
L 244.983673 120.520827 
L 248.37977 127.682449 
L 253.182857 132.954579 
L 261.382041 134.227477 
L 269.581224 135.426791 
L 277.780408 132.121762 
L 283.911091 137.666939 
L 285.979592 139.933646 
L 294.178776 142.473214 
L 296.895217 147.651429 
L 300.479525 157.635918 
L 302.377959 160.872467 
L 308.723028 167.620408 
L 309.08045 177.604898 
L 308.174607 187.589388 
L 310.577143 193.357319 
L 315.737653 187.589388 
L 318.776327 179.952684 
L 326.97551 183.686864 
L 328.849917 187.589388 
L 327.129373 197.573878 
L 329.649934 207.558367 
L 331.383757 217.542857 
L 326.97551 222.939388 
L 325.030748 227.527347 
L 326.97551 229.027373 
L 335.174694 227.998608 
L 343.373878 230.634694 
L 351.573061 235.298327 
L 353.449865 237.511837 
L 351.573061 243.068588 
L 343.373878 244.765972 
L 341.07356 247.496327 
L 337.331845 257.480816 
L 338.608688 267.465306 
L 342.674038 277.449796 
L 343.373878 280.681418 
L 350.470136 287.434286 
L 351.573061 292.620842 
L 352.314079 297.418776 
L 359.772245 302.765765 
L 367.971429 305.195004 
L 370.330397 307.403265 
L 367.971429 312.291745 
L 364.635769 317.387755 
L 367.971429 325.090176 
L 369.013475 327.372245 
L 373.285243 337.356735 
L 368.433938 347.341224 
L 374.163254 357.325714 
L 374.793523 367.310204 
L 375.667931 377.294694 
L 371.395022 387.279184 
L 373.254592 397.263673 
L 372.461594 407.248163 
L 369.672076 417.232653 
L 369.709486 427.217143 
L 367.971429 428.196447 
L 362.869386 437.201633 
L 367.971429 442.486891 
L 374.4679 437.201633 
L 376.170612 433.274487 
L 378.696985 437.201633 
L 384.369796 445.911063 
L 385.101563 447.186122 
L 384.369796 448.07691 
L 380.139889 457.170612 
L 376.170612 462.458007 
L 371.396376 467.155102 
L 376.170612 475.620211 
L 384.369796 476.634196 
L 384.738354 477.139592 
L 384.369796 484.840147 
L 376.170612 481.320946 
L 374.433217 487.124082 
L 367.971429 496.764466 
L 367.786202 497.108571 
L 367.971429 497.387885 
L 376.170612 499.942354 
L 378.117234 507.093061 
L 381.908553 517.077551 
L 384.369796 518.672045 
L 386.131089 527.062041 
L 392.56898 535.425872 
L 395.659146 537.046531 
L 392.56898 538.837242 
L 387.186412 547.03102 
L 386.952435 557.01551 
L 384.369796 559.073403 
L 380.608514 567 
" style="fill:none;stroke:#000000;stroke-opacity:0.6;stroke-width:2;"/>
    <path clip-path="url(#p07987e8c40)" d="M 400.768163 519.631193 
L 395.93794 517.077551 
L 400.768163 507.310413 
L 402.487116 517.077551 
L 400.768163 519.631193 
" style="fill:none;stroke:#000000;stroke-opacity:0.6;stroke-width:2;"/>
    <path clip-path="url(#p07987e8c40)" d="M 384.369796 500.344677 
L 377.848467 497.108571 
L 384.369796 488.043046 
L 389.345496 497.108571 
L 384.369796 500.344677 
" style="fill:none;stroke:#000000;stroke-opacity:0.6;stroke-width:2;"/>
    <path clip-path="url(#p07987e8c40)" d="M 351.573061 273.952617 
L 350.949263 267.465306 
L 351.573061 264.410842 
L 353.44271 267.465306 
L 351.573061 273.952617 
" style="fill:none;stroke:#000000;stroke-opacity:0.6;stroke-width:2;"/>
   </g>
   <g id="LineCollection_8">
    <path clip-path="url(#p07987e8c40)" d="M 168.082413 77.76 
L 171.19102 78.159704 
L 179.390204 79.862668 
L 187.589388 79.933837 
L 195.788571 81.718095 
L 203.987755 82.301746 
L 212.186939 82.65067 
L 220.386122 84.147003 
L 228.585306 85.04063 
L 236.78449 86.017291 
L 242.893773 87.74449 
L 244.983673 88.313796 
L 253.182857 88.443807 
L 261.275477 87.74449 
L 261.382041 87.736083 
L 261.449794 87.74449 
L 269.581224 88.847303 
L 277.780408 88.742604 
L 285.979592 89.954929 
L 294.178776 91.09942 
L 302.377959 93.244537 
L 310.577143 96.96261 
L 318.776327 95.004659 
L 326.97551 96.004051 
L 335.174694 95.314856 
L 343.373878 95.653314 
L 347.26182 97.72898 
L 351.573061 101.122534 
L 359.772245 104.138267 
L 367.971429 101.205291 
L 376.170612 104.594894 
L 381.79516 107.713469 
L 384.369796 108.921716 
L 387.398308 107.713469 
L 392.56898 104.779865 
L 400.768163 104.567679 
L 403.200745 107.713469 
L 408.967347 114.996888 
L 415.01315 117.697959 
L 417.166531 119.841802 
L 425.365714 125.75456 
L 428.787874 127.682449 
L 433.564898 129.647461 
L 441.764082 129.878361 
L 446.127778 127.682449 
L 449.963265 124.199267 
L 456.433366 117.697959 
L 458.162449 114.970205 
L 466.361633 111.017567 
L 467.347367 107.713469 
L 471.603546 97.72898 
L 474.560816 88.838694 
L 474.663892 87.74449 
L 475.233247 77.76 
" style="fill:none;stroke:#000000;stroke-opacity:0.6;stroke-width:2;"/>
    <path clip-path="url(#p07987e8c40)" d="M 433.564898 124.049685 
L 430.541839 117.697959 
L 433.564898 115.954979 
L 437.017584 117.697959 
L 433.564898 124.049685 
" style="fill:none;stroke:#000000;stroke-opacity:0.6;stroke-width:2;"/>
   </g>
   <g id="LineCollection_9"/>
   <g id="patch_3">
    <path d="M 81 567 
L 81 77.76 
" style="fill:none;stroke:#262626;stroke-linecap:square;stroke-linejoin:miter;stroke-width:0.8;"/>
   </g>
   <g id="patch_4">
    <path d="M 482.76 567 
L 482.76 77.76 
" style="fill:none;stroke:#262626;stroke-linecap:square;stroke-linejoin:miter;stroke-width:0.8;"/>
   </g>
   <g id="patch_5">
    <path d="M 81 567 
L 482.76 567 
" style="fill:none;stroke:#262626;stroke-linecap:square;stroke-linejoin:miter;stroke-width:0.8;"/>
   </g>
   <g id="patch_6">
    <path d="M 81 77.76 
L 482.76 77.76 
" style="fill:none;stroke:#262626;stroke-linecap:square;stroke-linejoin:miter;stroke-width:0.8;"/>
   </g>
   <g id="text_15">
    <!-- Steady-state performace. $\beta=1.5, \alpha=0.62$ -->
    <defs>
     <path d="M 4.5 23 
L 13.421875 23.78125 
Q 14.0625 18.40625 16.375 14.96875 
Q 18.703125 11.53125 23.578125 9.40625 
Q 28.46875 7.28125 34.578125 7.28125 
Q 39.984375 7.28125 44.140625 8.890625 
Q 48.296875 10.5 50.3125 13.296875 
Q 52.34375 16.109375 52.34375 19.4375 
Q 52.34375 22.796875 50.390625 25.3125 
Q 48.4375 27.828125 43.953125 29.546875 
Q 41.0625 30.671875 31.203125 33.03125 
Q 21.34375 35.40625 17.390625 37.5 
Q 12.25 40.1875 9.734375 44.15625 
Q 7.234375 48.140625 7.234375 53.078125 
Q 7.234375 58.5 10.296875 63.203125 
Q 13.375 67.921875 19.28125 70.359375 
Q 25.203125 72.796875 32.421875 72.796875 
Q 40.375 72.796875 46.453125 70.234375 
Q 52.546875 67.671875 55.8125 62.6875 
Q 59.078125 57.71875 59.328125 51.421875 
L 50.25 50.734375 
Q 49.515625 57.515625 45.28125 60.984375 
Q 41.0625 64.453125 32.8125 64.453125 
Q 24.21875 64.453125 20.28125 61.296875 
Q 16.359375 58.15625 16.359375 53.71875 
Q 16.359375 49.859375 19.140625 47.359375 
Q 21.875 44.875 33.421875 42.265625 
Q 44.96875 39.65625 49.265625 37.703125 
Q 55.515625 34.8125 58.484375 30.390625 
Q 61.46875 25.984375 61.46875 20.21875 
Q 61.46875 14.5 58.203125 9.4375 
Q 54.9375 4.390625 48.796875 1.578125 
Q 42.671875 -1.21875 35.015625 -1.21875 
Q 25.296875 -1.21875 18.71875 1.609375 
Q 12.15625 4.4375 8.421875 10.125 
Q 4.6875 15.828125 4.5 23 
z
" id="ArialMT-83"/>
     <path d="M 25.78125 7.859375 
L 27.046875 0.09375 
Q 23.34375 -0.6875 20.40625 -0.6875 
Q 15.625 -0.6875 12.984375 0.828125 
Q 10.359375 2.34375 9.28125 4.8125 
Q 8.203125 7.28125 8.203125 15.1875 
L 8.203125 45.015625 
L 1.765625 45.015625 
L 1.765625 51.859375 
L 8.203125 51.859375 
L 8.203125 64.703125 
L 16.9375 69.96875 
L 16.9375 51.859375 
L 25.78125 51.859375 
L 25.78125 45.015625 
L 16.9375 45.015625 
L 16.9375 14.703125 
Q 16.9375 10.9375 17.40625 9.859375 
Q 17.875 8.796875 18.921875 8.15625 
Q 19.96875 7.515625 21.921875 7.515625 
Q 23.390625 7.515625 25.78125 7.859375 
z
" id="ArialMT-116"/>
     <path d="M 42.09375 16.703125 
L 51.171875 15.578125 
Q 49.03125 7.625 43.21875 3.21875 
Q 37.40625 -1.171875 28.375 -1.171875 
Q 17 -1.171875 10.328125 5.828125 
Q 3.65625 12.84375 3.65625 25.484375 
Q 3.65625 38.578125 10.390625 45.796875 
Q 17.140625 53.03125 27.875 53.03125 
Q 38.28125 53.03125 44.875 45.953125 
Q 51.46875 38.875 51.46875 26.03125 
Q 51.46875 25.25 51.421875 23.6875 
L 12.75 23.6875 
Q 13.234375 15.140625 17.578125 10.59375 
Q 21.921875 6.0625 28.421875 6.0625 
Q 33.25 6.0625 36.671875 8.59375 
Q 40.09375 11.140625 42.09375 16.703125 
z
M 13.234375 30.90625 
L 42.1875 30.90625 
Q 41.609375 37.453125 38.875 40.71875 
Q 34.671875 45.796875 27.984375 45.796875 
Q 21.921875 45.796875 17.796875 41.75 
Q 13.671875 37.703125 13.234375 30.90625 
z
" id="ArialMT-101"/>
     <path d="M 40.4375 6.390625 
Q 35.546875 2.25 31.03125 0.53125 
Q 26.515625 -1.171875 21.34375 -1.171875 
Q 12.796875 -1.171875 8.203125 3 
Q 3.609375 7.171875 3.609375 13.671875 
Q 3.609375 17.484375 5.34375 20.625 
Q 7.078125 23.78125 9.890625 25.6875 
Q 12.703125 27.59375 16.21875 28.5625 
Q 18.796875 29.25 24.03125 29.890625 
Q 34.671875 31.15625 39.703125 32.90625 
Q 39.75 34.71875 39.75 35.203125 
Q 39.75 40.578125 37.25 42.78125 
Q 33.890625 45.75 27.25 45.75 
Q 21.046875 45.75 18.09375 43.578125 
Q 15.140625 41.40625 13.71875 35.890625 
L 5.125 37.0625 
Q 6.296875 42.578125 8.984375 45.96875 
Q 11.671875 49.359375 16.75 51.1875 
Q 21.828125 53.03125 28.515625 53.03125 
Q 35.15625 53.03125 39.296875 51.46875 
Q 43.453125 49.90625 45.40625 47.53125 
Q 47.359375 45.171875 48.140625 41.546875 
Q 48.578125 39.3125 48.578125 33.453125 
L 48.578125 21.734375 
Q 48.578125 9.46875 49.140625 6.21875 
Q 49.703125 2.984375 51.375 0 
L 42.1875 0 
Q 40.828125 2.734375 40.4375 6.390625 
z
M 39.703125 26.03125 
Q 34.90625 24.078125 25.34375 22.703125 
Q 19.921875 21.921875 17.671875 20.9375 
Q 15.4375 19.96875 14.203125 18.09375 
Q 12.984375 16.21875 12.984375 13.921875 
Q 12.984375 10.40625 15.640625 8.0625 
Q 18.3125 5.71875 23.4375 5.71875 
Q 28.515625 5.71875 32.46875 7.9375 
Q 36.421875 10.15625 38.28125 14.015625 
Q 39.703125 17 39.703125 22.796875 
z
" id="ArialMT-97"/>
     <path d="M 40.234375 0 
L 40.234375 6.546875 
Q 35.296875 -1.171875 25.734375 -1.171875 
Q 19.53125 -1.171875 14.328125 2.25 
Q 9.125 5.671875 6.265625 11.796875 
Q 3.421875 17.921875 3.421875 25.875 
Q 3.421875 33.640625 6 39.96875 
Q 8.59375 46.296875 13.765625 49.65625 
Q 18.953125 53.03125 25.34375 53.03125 
Q 30.03125 53.03125 33.6875 51.046875 
Q 37.359375 49.078125 39.65625 45.90625 
L 39.65625 71.578125 
L 48.390625 71.578125 
L 48.390625 0 
z
M 12.453125 25.875 
Q 12.453125 15.921875 16.640625 10.984375 
Q 20.84375 6.0625 26.5625 6.0625 
Q 32.328125 6.0625 36.34375 10.765625 
Q 40.375 15.484375 40.375 25.140625 
Q 40.375 35.796875 36.265625 40.765625 
Q 32.171875 45.75 26.171875 45.75 
Q 20.3125 45.75 16.375 40.96875 
Q 12.453125 36.1875 12.453125 25.875 
z
" id="ArialMT-100"/>
     <path d="M 6.203125 -19.96875 
L 5.21875 -11.71875 
Q 8.109375 -12.5 10.25 -12.5 
Q 13.1875 -12.5 14.9375 -11.515625 
Q 16.703125 -10.546875 17.828125 -8.796875 
Q 18.65625 -7.46875 20.515625 -2.25 
Q 20.75 -1.515625 21.296875 -0.09375 
L 1.609375 51.859375 
L 11.078125 51.859375 
L 21.875 21.828125 
Q 23.96875 16.109375 25.640625 9.8125 
Q 27.15625 15.875 29.25 21.625 
L 40.328125 51.859375 
L 49.125 51.859375 
L 29.390625 -0.875 
Q 26.21875 -9.421875 24.46875 -12.640625 
Q 22.125 -17 19.09375 -19.015625 
Q 16.0625 -21.046875 11.859375 -21.046875 
Q 9.328125 -21.046875 6.203125 -19.96875 
z
" id="ArialMT-121"/>
     <path d="M 3.171875 21.484375 
L 3.171875 30.328125 
L 30.171875 30.328125 
L 30.171875 21.484375 
z
" id="ArialMT-45"/>
     <path d="M 3.078125 15.484375 
L 11.765625 16.84375 
Q 12.5 11.625 15.84375 8.84375 
Q 19.1875 6.0625 25.203125 6.0625 
Q 31.25 6.0625 34.171875 8.515625 
Q 37.109375 10.984375 37.109375 14.3125 
Q 37.109375 17.28125 34.515625 19 
Q 32.71875 20.171875 25.53125 21.96875 
Q 15.875 24.421875 12.140625 26.203125 
Q 8.40625 27.984375 6.46875 31.125 
Q 4.546875 34.28125 4.546875 38.09375 
Q 4.546875 41.546875 6.125 44.5 
Q 7.71875 47.46875 10.453125 49.421875 
Q 12.5 50.921875 16.03125 51.96875 
Q 19.578125 53.03125 23.640625 53.03125 
Q 29.734375 53.03125 34.34375 51.265625 
Q 38.96875 49.515625 41.15625 46.5 
Q 43.359375 43.5 44.1875 38.484375 
L 35.59375 37.3125 
Q 35.015625 41.3125 32.203125 43.546875 
Q 29.390625 45.796875 24.265625 45.796875 
Q 18.21875 45.796875 15.625 43.796875 
Q 13.03125 41.796875 13.03125 39.109375 
Q 13.03125 37.40625 14.109375 36.03125 
Q 15.1875 34.625 17.484375 33.6875 
Q 18.796875 33.203125 25.25 31.453125 
Q 34.578125 28.953125 38.25 27.359375 
Q 41.9375 25.78125 44.03125 22.75 
Q 46.140625 19.734375 46.140625 15.234375 
Q 46.140625 10.84375 43.578125 6.953125 
Q 41.015625 3.078125 36.171875 0.953125 
Q 31.34375 -1.171875 25.25 -1.171875 
Q 15.140625 -1.171875 9.84375 3.03125 
Q 4.546875 7.234375 3.078125 15.484375 
z
" id="ArialMT-115"/>
     <path id="ArialMT-32"/>
     <path d="M 6.59375 -19.875 
L 6.59375 51.859375 
L 14.59375 51.859375 
L 14.59375 45.125 
Q 17.4375 49.078125 21 51.046875 
Q 24.5625 53.03125 29.640625 53.03125 
Q 36.28125 53.03125 41.359375 49.609375 
Q 46.4375 46.1875 49.015625 39.953125 
Q 51.609375 33.734375 51.609375 26.3125 
Q 51.609375 18.359375 48.75 11.984375 
Q 45.90625 5.609375 40.453125 2.21875 
Q 35.015625 -1.171875 29 -1.171875 
Q 24.609375 -1.171875 21.109375 0.6875 
Q 17.625 2.546875 15.375 5.375 
L 15.375 -19.875 
z
M 14.546875 25.640625 
Q 14.546875 15.625 18.59375 10.84375 
Q 22.65625 6.0625 28.421875 6.0625 
Q 34.28125 6.0625 38.453125 11.015625 
Q 42.625 15.96875 42.625 26.375 
Q 42.625 36.28125 38.546875 41.203125 
Q 34.46875 46.140625 28.8125 46.140625 
Q 23.1875 46.140625 18.859375 40.890625 
Q 14.546875 35.640625 14.546875 25.640625 
z
" id="ArialMT-112"/>
     <path d="M 6.5 0 
L 6.5 51.859375 
L 14.40625 51.859375 
L 14.40625 44 
Q 17.4375 49.515625 20 51.265625 
Q 22.5625 53.03125 25.640625 53.03125 
Q 30.078125 53.03125 34.671875 50.203125 
L 31.640625 42.046875 
Q 28.421875 43.953125 25.203125 43.953125 
Q 22.3125 43.953125 20.015625 42.21875 
Q 17.71875 40.484375 16.75 37.40625 
Q 15.28125 32.71875 15.28125 27.15625 
L 15.28125 0 
z
" id="ArialMT-114"/>
     <path d="M 8.6875 0 
L 8.6875 45.015625 
L 0.921875 45.015625 
L 0.921875 51.859375 
L 8.6875 51.859375 
L 8.6875 57.375 
Q 8.6875 62.59375 9.625 65.140625 
Q 10.890625 68.5625 14.078125 70.671875 
Q 17.28125 72.796875 23.046875 72.796875 
Q 26.765625 72.796875 31.25 71.921875 
L 29.9375 64.265625 
Q 27.203125 64.75 24.75 64.75 
Q 20.75 64.75 19.09375 63.03125 
Q 17.4375 61.328125 17.4375 56.640625 
L 17.4375 51.859375 
L 27.546875 51.859375 
L 27.546875 45.015625 
L 17.4375 45.015625 
L 17.4375 0 
z
" id="ArialMT-102"/>
     <path d="M 3.328125 25.921875 
Q 3.328125 40.328125 11.328125 47.265625 
Q 18.015625 53.03125 27.640625 53.03125 
Q 38.328125 53.03125 45.109375 46.015625 
Q 51.90625 39.015625 51.90625 26.65625 
Q 51.90625 16.65625 48.90625 10.90625 
Q 45.90625 5.171875 40.15625 2 
Q 34.421875 -1.171875 27.640625 -1.171875 
Q 16.75 -1.171875 10.03125 5.8125 
Q 3.328125 12.796875 3.328125 25.921875 
z
M 12.359375 25.921875 
Q 12.359375 15.96875 16.703125 11.015625 
Q 21.046875 6.0625 27.640625 6.0625 
Q 34.1875 6.0625 38.53125 11.03125 
Q 42.875 16.015625 42.875 26.21875 
Q 42.875 35.84375 38.5 40.796875 
Q 34.125 45.75 27.640625 45.75 
Q 21.046875 45.75 16.703125 40.8125 
Q 12.359375 35.890625 12.359375 25.921875 
z
" id="ArialMT-111"/>
     <path d="M 6.59375 0 
L 6.59375 51.859375 
L 14.453125 51.859375 
L 14.453125 44.578125 
Q 16.890625 48.390625 20.9375 50.703125 
Q 25 53.03125 30.171875 53.03125 
Q 35.9375 53.03125 39.625 50.640625 
Q 43.3125 48.25 44.828125 43.953125 
Q 50.984375 53.03125 60.84375 53.03125 
Q 68.5625 53.03125 72.703125 48.75 
Q 76.859375 44.484375 76.859375 35.59375 
L 76.859375 0 
L 68.109375 0 
L 68.109375 32.671875 
Q 68.109375 37.9375 67.25 40.25 
Q 66.40625 42.578125 64.15625 43.984375 
Q 61.921875 45.40625 58.890625 45.40625 
Q 53.421875 45.40625 49.796875 41.765625 
Q 46.1875 38.140625 46.1875 30.125 
L 46.1875 0 
L 37.40625 0 
L 37.40625 33.6875 
Q 37.40625 39.546875 35.25 42.46875 
Q 33.109375 45.40625 28.21875 45.40625 
Q 24.515625 45.40625 21.359375 43.453125 
Q 18.21875 41.5 16.796875 37.734375 
Q 15.375 33.984375 15.375 26.90625 
L 15.375 0 
z
" id="ArialMT-109"/>
     <path d="M 40.4375 19 
L 49.078125 17.875 
Q 47.65625 8.9375 41.8125 3.875 
Q 35.984375 -1.171875 27.484375 -1.171875 
Q 16.84375 -1.171875 10.375 5.78125 
Q 3.90625 12.75 3.90625 25.734375 
Q 3.90625 34.125 6.6875 40.421875 
Q 9.46875 46.734375 15.15625 49.875 
Q 20.84375 53.03125 27.546875 53.03125 
Q 35.984375 53.03125 41.359375 48.75 
Q 46.734375 44.484375 48.25 36.625 
L 39.703125 35.296875 
Q 38.484375 40.53125 35.375 43.15625 
Q 32.28125 45.796875 27.875 45.796875 
Q 21.234375 45.796875 17.078125 41.03125 
Q 12.9375 36.28125 12.9375 25.984375 
Q 12.9375 15.53125 16.9375 10.796875 
Q 20.953125 6.0625 27.390625 6.0625 
Q 32.5625 6.0625 36.03125 9.234375 
Q 39.5 12.40625 40.4375 19 
z
" id="ArialMT-99"/>
     <path d="M 13.625 3.375 
L 8.9375 -20.796875 
L -0.09375 -20.796875 
L 14.5 54.34375 
Q 18.84375 76.609375 39.65625 76.609375 
Q 60.75 76.609375 57.171875 57.8125 
Q 54.734375 44.4375 45.21875 39.546875 
Q 58.015625 35.15625 55.515625 22.125 
Q 51.125 -1.078125 27.484375 -1.03125 
Q 17.140625 -0.984375 13.625 3.375 
z
M 15.921875 15.09375 
Q 19.671875 6.59375 29.296875 6.640625 
Q 43.359375 6.640625 46.34375 21.96875 
Q 49.03125 35.75 26.171875 34.671875 
L 27.78125 42.96875 
Q 45.453125 42.671875 48.53125 58.59375 
Q 50.640625 69.34375 39.203125 69.28125 
Q 26.421875 69.28125 23.484375 54.046875 
z
" id="DejaVuSans-Oblique-946"/>
     <path d="M 10.59375 45.40625 
L 73.1875 45.40625 
L 73.1875 37.203125 
L 10.59375 37.203125 
z
M 10.59375 25.484375 
L 73.1875 25.484375 
L 73.1875 17.1875 
L 10.59375 17.1875 
z
" id="DejaVuSans-61"/>
     <path d="M 12.40625 8.296875 
L 28.515625 8.296875 
L 28.515625 63.921875 
L 10.984375 60.40625 
L 10.984375 69.390625 
L 28.421875 72.90625 
L 38.28125 72.90625 
L 38.28125 8.296875 
L 54.390625 8.296875 
L 54.390625 0 
L 12.40625 0 
z
" id="DejaVuSans-49"/>
     <path d="M 10.6875 12.40625 
L 21 12.40625 
L 21 0 
L 10.6875 0 
z
" id="DejaVuSans-46"/>
     <path d="M 10.796875 72.90625 
L 49.515625 72.90625 
L 49.515625 64.59375 
L 19.828125 64.59375 
L 19.828125 46.734375 
Q 21.96875 47.46875 24.109375 47.828125 
Q 26.265625 48.1875 28.421875 48.1875 
Q 40.625 48.1875 47.75 41.5 
Q 54.890625 34.8125 54.890625 23.390625 
Q 54.890625 11.625 47.5625 5.09375 
Q 40.234375 -1.421875 26.90625 -1.421875 
Q 22.3125 -1.421875 17.546875 -0.640625 
Q 12.796875 0.140625 7.71875 1.703125 
L 7.71875 11.625 
Q 12.109375 9.234375 16.796875 8.0625 
Q 21.484375 6.890625 26.703125 6.890625 
Q 35.15625 6.890625 40.078125 11.328125 
Q 45.015625 15.765625 45.015625 23.390625 
Q 45.015625 31 40.078125 35.4375 
Q 35.15625 39.890625 26.703125 39.890625 
Q 22.75 39.890625 18.8125 39.015625 
Q 14.890625 38.140625 10.796875 36.28125 
z
" id="DejaVuSans-53"/>
     <path d="M 11.71875 12.40625 
L 22.015625 12.40625 
L 22.015625 4 
L 14.015625 -11.625 
L 7.71875 -11.625 
L 11.71875 4 
z
" id="DejaVuSans-44"/>
     <path d="M 40.921875 25.4375 
L 40.96875 36.71875 
Q 41.015625 48.25 32.328125 48.296875 
Q 25.828125 48.34375 21.78125 42.921875 
Q 16.703125 36.234375 14.984375 27.296875 
Q 12.890625 16.546875 15.53125 11.421875 
Q 18.265625 6.203125 24.171875 6.203125 
Q 30.71875 6.203125 36.234375 16.609375 
z
M 33.84375 55.90625 
Q 49.078125 56.15625 48.875 40.375 
Q 48.875 40.375 56.5 54.6875 
L 64.5 54.6875 
L 48.734375 25.046875 
L 48.578125 14.359375 
Q 48.578125 11.96875 49.90625 9.96875 
Q 51.421875 7.625 52.984375 7.625 
L 57.328125 7.625 
L 55.859375 0 
L 50.4375 0 
Q 45.84375 0 42.53125 4.109375 
Q 40.96875 6.15625 40.921875 10.453125 
Q 37.75 5.21875 32.28125 0.78125 
Q 29.6875 -1.265625 22.703125 -1.21875 
Q 11.28125 -1.125 7.125 6.203125 
Q 2.875 13.8125 5.515625 27.296875 
Q 8.34375 41.796875 15.765625 48.390625 
Q 24.125 55.765625 33.84375 55.90625 
z
" id="DejaVuSans-Oblique-945"/>
     <path d="M 31.78125 66.40625 
Q 24.171875 66.40625 20.328125 58.90625 
Q 16.5 51.421875 16.5 36.375 
Q 16.5 21.390625 20.328125 13.890625 
Q 24.171875 6.390625 31.78125 6.390625 
Q 39.453125 6.390625 43.28125 13.890625 
Q 47.125 21.390625 47.125 36.375 
Q 47.125 51.421875 43.28125 58.90625 
Q 39.453125 66.40625 31.78125 66.40625 
z
M 31.78125 74.21875 
Q 44.046875 74.21875 50.515625 64.515625 
Q 56.984375 54.828125 56.984375 36.375 
Q 56.984375 17.96875 50.515625 8.265625 
Q 44.046875 -1.421875 31.78125 -1.421875 
Q 19.53125 -1.421875 13.0625 8.265625 
Q 6.59375 17.96875 6.59375 36.375 
Q 6.59375 54.828125 13.0625 64.515625 
Q 19.53125 74.21875 31.78125 74.21875 
z
" id="DejaVuSans-48"/>
     <path d="M 33.015625 40.375 
Q 26.375 40.375 22.484375 35.828125 
Q 18.609375 31.296875 18.609375 23.390625 
Q 18.609375 15.53125 22.484375 10.953125 
Q 26.375 6.390625 33.015625 6.390625 
Q 39.65625 6.390625 43.53125 10.953125 
Q 47.40625 15.53125 47.40625 23.390625 
Q 47.40625 31.296875 43.53125 35.828125 
Q 39.65625 40.375 33.015625 40.375 
z
M 52.59375 71.296875 
L 52.59375 62.3125 
Q 48.875 64.0625 45.09375 64.984375 
Q 41.3125 65.921875 37.59375 65.921875 
Q 27.828125 65.921875 22.671875 59.328125 
Q 17.53125 52.734375 16.796875 39.40625 
Q 19.671875 43.65625 24.015625 45.921875 
Q 28.375 48.1875 33.59375 48.1875 
Q 44.578125 48.1875 50.953125 41.515625 
Q 57.328125 34.859375 57.328125 23.390625 
Q 57.328125 12.15625 50.6875 5.359375 
Q 44.046875 -1.421875 33.015625 -1.421875 
Q 20.359375 -1.421875 13.671875 8.265625 
Q 6.984375 17.96875 6.984375 36.375 
Q 6.984375 53.65625 15.1875 63.9375 
Q 23.390625 74.21875 37.203125 74.21875 
Q 40.921875 74.21875 44.703125 73.484375 
Q 48.484375 72.75 52.59375 71.296875 
z
" id="DejaVuSans-54"/>
     <path d="M 19.1875 8.296875 
L 53.609375 8.296875 
L 53.609375 0 
L 7.328125 0 
L 7.328125 8.296875 
Q 12.9375 14.109375 22.625 23.890625 
Q 32.328125 33.6875 34.8125 36.53125 
Q 39.546875 41.84375 41.421875 45.53125 
Q 43.3125 49.21875 43.3125 52.78125 
Q 43.3125 58.59375 39.234375 62.25 
Q 35.15625 65.921875 28.609375 65.921875 
Q 23.96875 65.921875 18.8125 64.3125 
Q 13.671875 62.703125 7.8125 59.421875 
L 7.8125 69.390625 
Q 13.765625 71.78125 18.9375 73 
Q 24.125 74.21875 28.421875 74.21875 
Q 39.75 74.21875 46.484375 68.546875 
Q 53.21875 62.890625 53.21875 53.421875 
Q 53.21875 48.921875 51.53125 44.890625 
Q 49.859375 40.875 45.40625 35.40625 
Q 44.1875 33.984375 37.640625 27.21875 
Q 31.109375 20.453125 19.1875 8.296875 
z
" id="DejaVuSans-50"/>
    </defs>
    <g style="fill:#262626;" transform="translate(85.98 71.76)scale(0.2 -0.2)">
     <use transform="translate(0 0.390625)" xlink:href="#ArialMT-83"/>
     <use transform="translate(66.699219 0.390625)" xlink:href="#ArialMT-116"/>
     <use transform="translate(94.482422 0.390625)" xlink:href="#ArialMT-101"/>
     <use transform="translate(150.097656 0.390625)" xlink:href="#ArialMT-97"/>
     <use transform="translate(205.712891 0.390625)" xlink:href="#ArialMT-100"/>
     <use transform="translate(261.328125 0.390625)" xlink:href="#ArialMT-121"/>
     <use transform="translate(311.328125 0.390625)" xlink:href="#ArialMT-45"/>
     <use transform="translate(344.628906 0.390625)" xlink:href="#ArialMT-115"/>
     <use transform="translate(394.628906 0.390625)" xlink:href="#ArialMT-116"/>
     <use transform="translate(422.412109 0.390625)" xlink:href="#ArialMT-97"/>
     <use transform="translate(478.027344 0.390625)" xlink:href="#ArialMT-116"/>
     <use transform="translate(505.810547 0.390625)" xlink:href="#ArialMT-101"/>
     <use transform="translate(561.425781 0.390625)" xlink:href="#ArialMT-32"/>
     <use transform="translate(589.208984 0.390625)" xlink:href="#ArialMT-112"/>
     <use transform="translate(644.824219 0.390625)" xlink:href="#ArialMT-101"/>
     <use transform="translate(700.439453 0.390625)" xlink:href="#ArialMT-114"/>
     <use transform="translate(733.740234 0.390625)" xlink:href="#ArialMT-102"/>
     <use transform="translate(761.523438 0.390625)" xlink:href="#ArialMT-111"/>
     <use transform="translate(817.138672 0.390625)" xlink:href="#ArialMT-114"/>
     <use transform="translate(850.439453 0.390625)" xlink:href="#ArialMT-109"/>
     <use transform="translate(933.740234 0.390625)" xlink:href="#ArialMT-97"/>
     <use transform="translate(989.355469 0.390625)" xlink:href="#ArialMT-99"/>
     <use transform="translate(1039.355469 0.390625)" xlink:href="#ArialMT-101"/>
     <use transform="translate(1094.970703 0.390625)" xlink:href="#ArialMT-46"/>
     <use transform="translate(1122.753906 0.390625)" xlink:href="#ArialMT-32"/>
     <use transform="translate(1150.537109 0.390625)" xlink:href="#DejaVuSans-Oblique-946"/>
     <use transform="translate(1233.837891 0.390625)" xlink:href="#DejaVuSans-61"/>
     <use transform="translate(1337.109375 0.390625)" xlink:href="#DejaVuSans-49"/>
     <use transform="translate(1400.732422 0.390625)" xlink:href="#DejaVuSans-46"/>
     <use transform="translate(1432.519531 0.390625)" xlink:href="#DejaVuSans-53"/>
     <use transform="translate(1496.142578 0.390625)" xlink:href="#DejaVuSans-44"/>
     <use transform="translate(1547.412109 0.390625)" xlink:href="#DejaVuSans-Oblique-945"/>
     <use transform="translate(1632.8125 0.390625)" xlink:href="#DejaVuSans-61"/>
     <use transform="translate(1736.083984 0.390625)" xlink:href="#DejaVuSans-48"/>
     <use transform="translate(1799.707031 0.390625)" xlink:href="#DejaVuSans-46"/>
     <use transform="translate(1831.494141 0.390625)" xlink:href="#DejaVuSans-54"/>
     <use transform="translate(1895.117188 0.390625)" xlink:href="#DejaVuSans-50"/>
    </g>
   </g>
  </g>
  <g id="axes_2">
   <g id="patch_7">
    <path clip-path="url(#pfe82db52de)" d="M 507.87 567 
L 507.87 505.845 
L 507.87 138.915 
L 507.87 77.76 
L 532.332 77.76 
L 532.332 138.915 
L 532.332 505.845 
L 532.332 567 
z
" style="fill:#ffffff;stroke:#ffffff;stroke-linejoin:miter;stroke-width:0.01;"/>
   </g>
   <g id="matplotlib.axis_3"/>
   <g id="matplotlib.axis_4">
    <g id="ytick_7">
     <g id="line2d_1">
      <defs>
       <path d="M 0 0 
L 3.5 0 
" id="m96a660d891" style="stroke:#262626;stroke-width:0.8;"/>
      </defs>
      <g>
       <use style="fill:#262626;stroke:#262626;stroke-width:0.8;" x="532.332" xlink:href="#m96a660d891" y="567"/>
      </g>
     </g>
     <g id="text_16">
      <!-- 0.60 -->
      <g style="fill:#262626;" transform="translate(539.332 572.72625)scale(0.16 -0.16)">
       <use xlink:href="#ArialMT-48"/>
       <use x="55.615234" xlink:href="#ArialMT-46"/>
       <use x="83.398438" xlink:href="#ArialMT-54"/>
       <use x="139.013672" xlink:href="#ArialMT-48"/>
      </g>
     </g>
    </g>
    <g id="ytick_8">
     <g id="line2d_2">
      <g>
       <use style="fill:#262626;stroke:#262626;stroke-width:0.8;" x="532.332" xlink:href="#m96a660d891" y="505.845"/>
      </g>
     </g>
     <g id="text_17">
      <!-- 0.65 -->
      <g style="fill:#262626;" transform="translate(539.332 511.57125)scale(0.16 -0.16)">
       <use xlink:href="#ArialMT-48"/>
       <use x="55.615234" xlink:href="#ArialMT-46"/>
       <use x="83.398438" xlink:href="#ArialMT-54"/>
       <use x="139.013672" xlink:href="#ArialMT-53"/>
      </g>
     </g>
    </g>
    <g id="ytick_9">
     <g id="line2d_3">
      <g>
       <use style="fill:#262626;stroke:#262626;stroke-width:0.8;" x="532.332" xlink:href="#m96a660d891" y="444.69"/>
      </g>
     </g>
     <g id="text_18">
      <!-- 0.70 -->
      <g style="fill:#262626;" transform="translate(539.332 450.41625)scale(0.16 -0.16)">
       <use xlink:href="#ArialMT-48"/>
       <use x="55.615234" xlink:href="#ArialMT-46"/>
       <use x="83.398438" xlink:href="#ArialMT-55"/>
       <use x="139.013672" xlink:href="#ArialMT-48"/>
      </g>
     </g>
    </g>
    <g id="ytick_10">
     <g id="line2d_4">
      <g>
       <use style="fill:#262626;stroke:#262626;stroke-width:0.8;" x="532.332" xlink:href="#m96a660d891" y="383.535"/>
      </g>
     </g>
     <g id="text_19">
      <!-- 0.75 -->
      <g style="fill:#262626;" transform="translate(539.332 389.26125)scale(0.16 -0.16)">
       <use xlink:href="#ArialMT-48"/>
       <use x="55.615234" xlink:href="#ArialMT-46"/>
       <use x="83.398438" xlink:href="#ArialMT-55"/>
       <use x="139.013672" xlink:href="#ArialMT-53"/>
      </g>
     </g>
    </g>
    <g id="ytick_11">
     <g id="line2d_5">
      <g>
       <use style="fill:#262626;stroke:#262626;stroke-width:0.8;" x="532.332" xlink:href="#m96a660d891" y="322.38"/>
      </g>
     </g>
     <g id="text_20">
      <!-- 0.80 -->
      <g style="fill:#262626;" transform="translate(539.332 328.10625)scale(0.16 -0.16)">
       <use xlink:href="#ArialMT-48"/>
       <use x="55.615234" xlink:href="#ArialMT-46"/>
       <use x="83.398438" xlink:href="#ArialMT-56"/>
       <use x="139.013672" xlink:href="#ArialMT-48"/>
      </g>
     </g>
    </g>
    <g id="ytick_12">
     <g id="line2d_6">
      <g>
       <use style="fill:#262626;stroke:#262626;stroke-width:0.8;" x="532.332" xlink:href="#m96a660d891" y="261.225"/>
      </g>
     </g>
     <g id="text_21">
      <!-- 0.85 -->
      <g style="fill:#262626;" transform="translate(539.332 266.95125)scale(0.16 -0.16)">
       <use xlink:href="#ArialMT-48"/>
       <use x="55.615234" xlink:href="#ArialMT-46"/>
       <use x="83.398438" xlink:href="#ArialMT-56"/>
       <use x="139.013672" xlink:href="#ArialMT-53"/>
      </g>
     </g>
    </g>
    <g id="ytick_13">
     <g id="line2d_7">
      <g>
       <use style="fill:#262626;stroke:#262626;stroke-width:0.8;" x="532.332" xlink:href="#m96a660d891" y="200.07"/>
      </g>
     </g>
     <g id="text_22">
      <!-- 0.90 -->
      <g style="fill:#262626;" transform="translate(539.332 205.79625)scale(0.16 -0.16)">
       <use xlink:href="#ArialMT-48"/>
       <use x="55.615234" xlink:href="#ArialMT-46"/>
       <use x="83.398438" xlink:href="#ArialMT-57"/>
       <use x="139.013672" xlink:href="#ArialMT-48"/>
      </g>
     </g>
    </g>
    <g id="ytick_14">
     <g id="line2d_8">
      <g>
       <use style="fill:#262626;stroke:#262626;stroke-width:0.8;" x="532.332" xlink:href="#m96a660d891" y="138.915"/>
      </g>
     </g>
     <g id="text_23">
      <!-- 0.95 -->
      <g style="fill:#262626;" transform="translate(539.332 144.64125)scale(0.16 -0.16)">
       <use xlink:href="#ArialMT-48"/>
       <use x="55.615234" xlink:href="#ArialMT-46"/>
       <use x="83.398438" xlink:href="#ArialMT-57"/>
       <use x="139.013672" xlink:href="#ArialMT-53"/>
      </g>
     </g>
    </g>
    <g id="ytick_15">
     <g id="line2d_9">
      <g>
       <use style="fill:#262626;stroke:#262626;stroke-width:0.8;" x="532.332" xlink:href="#m96a660d891" y="77.76"/>
      </g>
     </g>
     <g id="text_24">
      <!-- 1.00 -->
      <g style="fill:#262626;" transform="translate(539.332 83.48625)scale(0.16 -0.16)">
       <use xlink:href="#ArialMT-49"/>
       <use x="55.615234" xlink:href="#ArialMT-46"/>
       <use x="83.398438" xlink:href="#ArialMT-48"/>
       <use x="139.013672" xlink:href="#ArialMT-48"/>
      </g>
     </g>
    </g>
   </g>
   <g id="QuadMesh_1">
    <path clip-path="url(#pfe82db52de)" d="M 507.87 567 
L 532.332 567 
L 532.332 505.845 
L 507.87 505.845 
L 507.87 567 
" style="fill:#435b7c;"/>
    <path clip-path="url(#pfe82db52de)" d="M 507.87 505.845 
L 532.332 505.845 
L 532.332 444.69 
L 507.87 444.69 
L 507.87 505.845 
" style="fill:#5d5b7b;"/>
    <path clip-path="url(#pfe82db52de)" d="M 507.87 444.69 
L 532.332 444.69 
L 532.332 383.535 
L 507.87 383.535 
L 507.87 444.69 
" style="fill:#815f7d;"/>
    <path clip-path="url(#pfe82db52de)" d="M 507.87 383.535 
L 532.332 383.535 
L 532.332 322.38 
L 507.87 322.38 
L 507.87 383.535 
" style="fill:#ab6781;"/>
    <path clip-path="url(#pfe82db52de)" d="M 507.87 322.38 
L 532.332 322.38 
L 532.332 261.225 
L 507.87 261.225 
L 507.87 322.38 
" style="fill:#cd6d82;"/>
    <path clip-path="url(#pfe82db52de)" d="M 507.87 261.225 
L 532.332 261.225 
L 532.332 200.07 
L 507.87 200.07 
L 507.87 261.225 
" style="fill:#e87080;"/>
    <path clip-path="url(#pfe82db52de)" d="M 507.87 200.07 
L 532.332 200.07 
L 532.332 138.915 
L 507.87 138.915 
L 507.87 200.07 
" style="fill:#f68285;"/>
    <path clip-path="url(#pfe82db52de)" d="M 507.87 138.915 
L 532.332 138.915 
L 532.332 77.76 
L 507.87 77.76 
L 507.87 138.915 
" style="fill:#f7a28f;"/>
   </g>
   <g id="patch_8">
    <path d="M 507.87 567 
L 507.87 505.845 
L 507.87 138.915 
L 507.87 77.76 
L 532.332 77.76 
L 532.332 138.915 
L 532.332 505.845 
L 532.332 567 
z
" style="fill:none;stroke:#262626;stroke-linejoin:miter;stroke-width:0.8;"/>
   </g>
  </g>
 </g>
 <defs>
  <clipPath id="p07987e8c40">
   <rect height="489.24" width="401.76" x="81" y="77.76"/>
  </clipPath>
  <clipPath id="pfe82db52de">
   <rect height="489.24" width="24.462" x="507.87" y="77.76"/>
  </clipPath>
 </defs>
</svg>
