<?xml version="1.0" encoding="utf-8" standalone="no"?>
<!DOCTYPE svg PUBLIC "-//W3C//DTD SVG 1.1//EN"
  "http://www.w3.org/Graphics/SVG/1.1/DTD/svg11.dtd">
<!-- Created with matplotlib (https://matplotlib.org/) -->
<svg height="288pt" version="1.1" viewBox="0 0 288 288" width="288pt" xmlns="http://www.w3.org/2000/svg" xmlns:xlink="http://www.w3.org/1999/xlink">
 <defs>
  <style type="text/css">
*{stroke-linecap:butt;stroke-linejoin:round;}
  </style>
 </defs>
 <g id="figure_1">
  <g id="patch_1">
   <path d="M 0 288 
L 288 288 
L 288 0 
L 0 0 
z
" style="fill:none;"/>
  </g>
  <g id="axes_1">
   <g id="patch_2">
    <path d="M 36 256.32 
L 259.2 256.32 
L 259.2 34.56 
L 36 34.56 
z
" style="fill:none;"/>
   </g>
   <g id="PathCollection_1">
    <defs>
     <path d="M 0 3 
C 0.795609 3 1.55874 2.683901 2.12132 2.12132 
C 2.683901 1.55874 3 0.795609 3 0 
C 3 -0.795609 2.683901 -1.55874 2.12132 -2.12132 
C 1.55874 -2.683901 0.795609 -3 0 -3 
C -0.795609 -3 -1.55874 -2.683901 -2.12132 -2.12132 
C -2.683901 -1.55874 -3 -0.795609 -3 0 
C -3 0.795609 -2.683901 1.55874 -2.12132 2.12132 
C -1.55874 2.683901 -0.795609 3 0 3 
z
" id="m8e8586534e" style="stroke:#ffa500;"/>
    </defs>
    <g clip-path="url(#p5cfcd8d495)">
     <use style="fill:#ffa500;stroke:#ffa500;" x="91.236364" xlink:href="#m8e8586534e" y="238.752007"/>
     <use style="fill:#ffa500;stroke:#ffa500;" x="91.236364" xlink:href="#m8e8586534e" y="192.220741"/>
     <use style="fill:#ffa500;stroke:#ffa500;" x="91.236364" xlink:href="#m8e8586534e" y="212.37195"/>
     <use style="fill:#ffa500;stroke:#ffa500;" x="91.236364" xlink:href="#m8e8586534e" y="232.571445"/>
     <use style="fill:#ffa500;stroke:#ffa500;" x="91.236364" xlink:href="#m8e8586534e" y="234.277537"/>
     <use style="fill:#ffa500;stroke:#ffa500;" x="91.236364" xlink:href="#m8e8586534e" y="245.447616"/>
     <use style="fill:#ffa500;stroke:#ffa500;" x="91.236364" xlink:href="#m8e8586534e" y="213.868805"/>
     <use style="fill:#ffa500;stroke:#ffa500;" x="91.236364" xlink:href="#m8e8586534e" y="147.315093"/>
     <use style="fill:#ffa500;stroke:#ffa500;" x="91.236364" xlink:href="#m8e8586534e" y="212.774331"/>
     <use style="fill:#ffa500;stroke:#ffa500;" x="91.236364" xlink:href="#m8e8586534e" y="187.005892"/>
     <use style="fill:#ffa500;stroke:#ffa500;" x="91.236364" xlink:href="#m8e8586534e" y="155.169557"/>
     <use style="fill:#ffa500;stroke:#ffa500;" x="91.236364" xlink:href="#m8e8586534e" y="234.43849"/>
     <use style="fill:#ffa500;stroke:#ffa500;" x="91.236364" xlink:href="#m8e8586534e" y="226.986405"/>
     <use style="fill:#ffa500;stroke:#ffa500;" x="91.236364" xlink:href="#m8e8586534e" y="203.744915"/>
     <use style="fill:#ffa500;stroke:#ffa500;" x="91.236364" xlink:href="#m8e8586534e" y="226.60012"/>
     <use style="fill:#ffa500;stroke:#ffa500;" x="91.236364" xlink:href="#m8e8586534e" y="207.961861"/>
     <use style="fill:#ffa500;stroke:#ffa500;" x="91.236364" xlink:href="#m8e8586534e" y="182.547517"/>
     <use style="fill:#ffa500;stroke:#ffa500;" x="91.236364" xlink:href="#m8e8586534e" y="205.402722"/>
     <use style="fill:#ffa500;stroke:#ffa500;" x="91.236364" xlink:href="#m8e8586534e" y="230.060591"/>
     <use style="fill:#ffa500;stroke:#ffa500;" x="91.236364" xlink:href="#m8e8586534e" y="228.338403"/>
     <use style="fill:#ffa500;stroke:#ffa500;" x="91.236364" xlink:href="#m8e8586534e" y="238.961245"/>
    </g>
   </g>
   <g id="PathCollection_2">
    <defs>
     <path d="M 0 3 
C 0.795609 3 1.55874 2.683901 2.12132 2.12132 
C 2.683901 1.55874 3 0.795609 3 0 
C 3 -0.795609 2.683901 -1.55874 2.12132 -2.12132 
C 1.55874 -2.683901 0.795609 -3 0 -3 
C -0.795609 -3 -1.55874 -2.683901 -2.12132 -2.12132 
C -2.683901 -1.55874 -3 -0.795609 -3 0 
C -3 0.795609 -2.683901 1.55874 -2.12132 2.12132 
C -1.55874 2.683901 -0.795609 3 0 3 
z
" id="m90c208566c" style="stroke:#0000ff;"/>
    </defs>
    <g clip-path="url(#p5cfcd8d495)">
     <use style="fill:#0000ff;stroke:#0000ff;" x="203.963636" xlink:href="#m90c208566c" y="218.391561"/>
     <use style="fill:#0000ff;stroke:#0000ff;" x="203.963636" xlink:href="#m90c208566c" y="114.400378"/>
     <use style="fill:#0000ff;stroke:#0000ff;" x="203.963636" xlink:href="#m90c208566c" y="170.910677"/>
     <use style="fill:#0000ff;stroke:#0000ff;" x="203.963636" xlink:href="#m90c208566c" y="178.845618"/>
     <use style="fill:#0000ff;stroke:#0000ff;" x="203.963636" xlink:href="#m90c208566c" y="196.63083"/>
     <use style="fill:#0000ff;stroke:#0000ff;" x="203.963636" xlink:href="#m90c208566c" y="245.045236"/>
     <use style="fill:#0000ff;stroke:#0000ff;" x="203.963636" xlink:href="#m90c208566c" y="63.636071"/>
     <use style="fill:#0000ff;stroke:#0000ff;" x="203.963636" xlink:href="#m90c208566c" y="70.170729"/>
     <use style="fill:#0000ff;stroke:#0000ff;" x="203.963636" xlink:href="#m90c208566c" y="73.132248"/>
     <use style="fill:#0000ff;stroke:#0000ff;" x="203.963636" xlink:href="#m90c208566c" y="73.196629"/>
     <use style="fill:#0000ff;stroke:#0000ff;" x="203.963636" xlink:href="#m90c208566c" y="61.382741"/>
     <use style="fill:#0000ff;stroke:#0000ff;" x="203.963636" xlink:href="#m90c208566c" y="194.425786"/>
     <use style="fill:#0000ff;stroke:#0000ff;" x="203.963636" xlink:href="#m90c208566c" y="144.305287"/>
     <use style="fill:#0000ff;stroke:#0000ff;" x="203.963636" xlink:href="#m90c208566c" y="45.834764"/>
     <use style="fill:#0000ff;stroke:#0000ff;" x="203.963636" xlink:href="#m90c208566c" y="144.401859"/>
     <use style="fill:#0000ff;stroke:#0000ff;" x="203.963636" xlink:href="#m90c208566c" y="94.780312"/>
     <use style="fill:#0000ff;stroke:#0000ff;" x="203.963636" xlink:href="#m90c208566c" y="79.795667"/>
     <use style="fill:#0000ff;stroke:#0000ff;" x="203.963636" xlink:href="#m90c208566c" y="94.732026"/>
     <use style="fill:#0000ff;stroke:#0000ff;" x="203.963636" xlink:href="#m90c208566c" y="158.565648"/>
     <use style="fill:#0000ff;stroke:#0000ff;" x="203.963636" xlink:href="#m90c208566c" y="84.946136"/>
     <use style="fill:#0000ff;stroke:#0000ff;" x="203.963636" xlink:href="#m90c208566c" y="208.831003"/>
    </g>
   </g>
   <g id="patch_3">
    <path clip-path="url(#p5cfcd8d495)" d="M 46.145455 246.171901 
L 136.327273 246.171901 
L 136.327273 212.229393 
L 46.145455 212.229393 
z
" style="fill:#ffa500;opacity:0.6;"/>
   </g>
   <g id="patch_4">
    <path clip-path="url(#p5cfcd8d495)" d="M 158.872727 246.171901 
L 249.054545 246.171901 
L 249.054545 129.350534 
L 158.872727 129.350534 
z
" style="fill:#0000ff;opacity:0.6;"/>
   </g>
   <g id="matplotlib.axis_1">
    <g id="xtick_1">
     <g id="line2d_1">
      <defs>
       <path d="M 0 0 
L 0 3.5 
" id="mce3d938b30" style="stroke:#000000;stroke-width:0.8;"/>
      </defs>
      <g>
       <use style="stroke:#000000;stroke-width:0.8;" x="91.236364" xlink:href="#mce3d938b30" y="256.32"/>
      </g>
     </g>
     <g id="text_1">
      <!-- 1.0 -->
      <defs>
       <path d="M 12.40625 8.296875 
L 28.515625 8.296875 
L 28.515625 63.921875 
L 10.984375 60.40625 
L 10.984375 69.390625 
L 28.421875 72.90625 
L 38.28125 72.90625 
L 38.28125 8.296875 
L 54.390625 8.296875 
L 54.390625 0 
L 12.40625 0 
z
" id="DejaVuSans-49"/>
       <path d="M 10.6875 12.40625 
L 21 12.40625 
L 21 0 
L 10.6875 0 
z
" id="DejaVuSans-46"/>
       <path d="M 31.78125 66.40625 
Q 24.171875 66.40625 20.328125 58.90625 
Q 16.5 51.421875 16.5 36.375 
Q 16.5 21.390625 20.328125 13.890625 
Q 24.171875 6.390625 31.78125 6.390625 
Q 39.453125 6.390625 43.28125 13.890625 
Q 47.125 21.390625 47.125 36.375 
Q 47.125 51.421875 43.28125 58.90625 
Q 39.453125 66.40625 31.78125 66.40625 
z
M 31.78125 74.21875 
Q 44.046875 74.21875 50.515625 64.515625 
Q 56.984375 54.828125 56.984375 36.375 
Q 56.984375 17.96875 50.515625 8.265625 
Q 44.046875 -1.421875 31.78125 -1.421875 
Q 19.53125 -1.421875 13.0625 8.265625 
Q 6.59375 17.96875 6.59375 36.375 
Q 6.59375 54.828125 13.0625 64.515625 
Q 19.53125 74.21875 31.78125 74.21875 
z
" id="DejaVuSans-48"/>
      </defs>
      <g transform="translate(83.284801 270.918437)scale(0.1 -0.1)">
       <use xlink:href="#DejaVuSans-49"/>
       <use x="63.623047" xlink:href="#DejaVuSans-46"/>
       <use x="95.410156" xlink:href="#DejaVuSans-48"/>
      </g>
     </g>
    </g>
    <g id="xtick_2">
     <g id="line2d_2">
      <g>
       <use style="stroke:#000000;stroke-width:0.8;" x="147.6" xlink:href="#mce3d938b30" y="256.32"/>
      </g>
     </g>
     <g id="text_2">
      <!-- 1.5 -->
      <defs>
       <path d="M 10.796875 72.90625 
L 49.515625 72.90625 
L 49.515625 64.59375 
L 19.828125 64.59375 
L 19.828125 46.734375 
Q 21.96875 47.46875 24.109375 47.828125 
Q 26.265625 48.1875 28.421875 48.1875 
Q 40.625 48.1875 47.75 41.5 
Q 54.890625 34.8125 54.890625 23.390625 
Q 54.890625 11.625 47.5625 5.09375 
Q 40.234375 -1.421875 26.90625 -1.421875 
Q 22.3125 -1.421875 17.546875 -0.640625 
Q 12.796875 0.140625 7.71875 1.703125 
L 7.71875 11.625 
Q 12.109375 9.234375 16.796875 8.0625 
Q 21.484375 6.890625 26.703125 6.890625 
Q 35.15625 6.890625 40.078125 11.328125 
Q 45.015625 15.765625 45.015625 23.390625 
Q 45.015625 31 40.078125 35.4375 
Q 35.15625 39.890625 26.703125 39.890625 
Q 22.75 39.890625 18.8125 39.015625 
Q 14.890625 38.140625 10.796875 36.28125 
z
" id="DejaVuSans-53"/>
      </defs>
      <g transform="translate(139.648438 270.918437)scale(0.1 -0.1)">
       <use xlink:href="#DejaVuSans-49"/>
       <use x="63.623047" xlink:href="#DejaVuSans-46"/>
       <use x="95.410156" xlink:href="#DejaVuSans-53"/>
      </g>
     </g>
    </g>
    <g id="xtick_3">
     <g id="line2d_3">
      <g>
       <use style="stroke:#000000;stroke-width:0.8;" x="203.963636" xlink:href="#mce3d938b30" y="256.32"/>
      </g>
     </g>
     <g id="text_3">
      <!-- 2.0 -->
      <defs>
       <path d="M 19.1875 8.296875 
L 53.609375 8.296875 
L 53.609375 0 
L 7.328125 0 
L 7.328125 8.296875 
Q 12.9375 14.109375 22.625 23.890625 
Q 32.328125 33.6875 34.8125 36.53125 
Q 39.546875 41.84375 41.421875 45.53125 
Q 43.3125 49.21875 43.3125 52.78125 
Q 43.3125 58.59375 39.234375 62.25 
Q 35.15625 65.921875 28.609375 65.921875 
Q 23.96875 65.921875 18.8125 64.3125 
Q 13.671875 62.703125 7.8125 59.421875 
L 7.8125 69.390625 
Q 13.765625 71.78125 18.9375 73 
Q 24.125 74.21875 28.421875 74.21875 
Q 39.75 74.21875 46.484375 68.546875 
Q 53.21875 62.890625 53.21875 53.421875 
Q 53.21875 48.921875 51.53125 44.890625 
Q 49.859375 40.875 45.40625 35.40625 
Q 44.1875 33.984375 37.640625 27.21875 
Q 31.109375 20.453125 19.1875 8.296875 
z
" id="DejaVuSans-50"/>
      </defs>
      <g transform="translate(196.012074 270.918437)scale(0.1 -0.1)">
       <use xlink:href="#DejaVuSans-50"/>
       <use x="63.623047" xlink:href="#DejaVuSans-46"/>
       <use x="95.410156" xlink:href="#DejaVuSans-48"/>
      </g>
     </g>
    </g>
   </g>
   <g id="matplotlib.axis_2">
    <g id="ytick_1">
     <g id="line2d_4">
      <defs>
       <path d="M 0 0 
L -3.5 0 
" id="mc054eda8f5" style="stroke:#000000;stroke-width:0.8;"/>
      </defs>
      <g>
       <use style="stroke:#000000;stroke-width:0.8;" x="36" xlink:href="#mc054eda8f5" y="246.171901"/>
      </g>
     </g>
     <g id="text_4">
      <!-- 0 -->
      <g transform="translate(22.6375 249.97112)scale(0.1 -0.1)">
       <use xlink:href="#DejaVuSans-48"/>
      </g>
     </g>
    </g>
    <g id="ytick_2">
     <g id="line2d_5">
      <g>
       <use style="stroke:#000000;stroke-width:0.8;" x="36" xlink:href="#mc054eda8f5" y="210.440524"/>
      </g>
     </g>
     <g id="text_5">
      <!-- 10 -->
      <g transform="translate(16.275 214.239743)scale(0.1 -0.1)">
       <use xlink:href="#DejaVuSans-49"/>
       <use x="63.623047" xlink:href="#DejaVuSans-48"/>
      </g>
     </g>
    </g>
    <g id="ytick_3">
     <g id="line2d_6">
      <g>
       <use style="stroke:#000000;stroke-width:0.8;" x="36" xlink:href="#mc054eda8f5" y="174.709148"/>
      </g>
     </g>
     <g id="text_6">
      <!-- 20 -->
      <g transform="translate(16.275 178.508367)scale(0.1 -0.1)">
       <use xlink:href="#DejaVuSans-50"/>
       <use x="63.623047" xlink:href="#DejaVuSans-48"/>
      </g>
     </g>
    </g>
    <g id="ytick_4">
     <g id="line2d_7">
      <g>
       <use style="stroke:#000000;stroke-width:0.8;" x="36" xlink:href="#mc054eda8f5" y="138.977771"/>
      </g>
     </g>
     <g id="text_7">
      <!-- 30 -->
      <defs>
       <path d="M 40.578125 39.3125 
Q 47.65625 37.796875 51.625 33 
Q 55.609375 28.21875 55.609375 21.1875 
Q 55.609375 10.40625 48.1875 4.484375 
Q 40.765625 -1.421875 27.09375 -1.421875 
Q 22.515625 -1.421875 17.65625 -0.515625 
Q 12.796875 0.390625 7.625 2.203125 
L 7.625 11.71875 
Q 11.71875 9.328125 16.59375 8.109375 
Q 21.484375 6.890625 26.8125 6.890625 
Q 36.078125 6.890625 40.9375 10.546875 
Q 45.796875 14.203125 45.796875 21.1875 
Q 45.796875 27.640625 41.28125 31.265625 
Q 36.765625 34.90625 28.71875 34.90625 
L 20.21875 34.90625 
L 20.21875 43.015625 
L 29.109375 43.015625 
Q 36.375 43.015625 40.234375 45.921875 
Q 44.09375 48.828125 44.09375 54.296875 
Q 44.09375 59.90625 40.109375 62.90625 
Q 36.140625 65.921875 28.71875 65.921875 
Q 24.65625 65.921875 20.015625 65.03125 
Q 15.375 64.15625 9.8125 62.3125 
L 9.8125 71.09375 
Q 15.4375 72.65625 20.34375 73.4375 
Q 25.25 74.21875 29.59375 74.21875 
Q 40.828125 74.21875 47.359375 69.109375 
Q 53.90625 64.015625 53.90625 55.328125 
Q 53.90625 49.265625 50.4375 45.09375 
Q 46.96875 40.921875 40.578125 39.3125 
z
" id="DejaVuSans-51"/>
      </defs>
      <g transform="translate(16.275 142.77699)scale(0.1 -0.1)">
       <use xlink:href="#DejaVuSans-51"/>
       <use x="63.623047" xlink:href="#DejaVuSans-48"/>
      </g>
     </g>
    </g>
    <g id="ytick_5">
     <g id="line2d_8">
      <g>
       <use style="stroke:#000000;stroke-width:0.8;" x="36" xlink:href="#mc054eda8f5" y="103.246395"/>
      </g>
     </g>
     <g id="text_8">
      <!-- 40 -->
      <defs>
       <path d="M 37.796875 64.3125 
L 12.890625 25.390625 
L 37.796875 25.390625 
z
M 35.203125 72.90625 
L 47.609375 72.90625 
L 47.609375 25.390625 
L 58.015625 25.390625 
L 58.015625 17.1875 
L 47.609375 17.1875 
L 47.609375 0 
L 37.796875 0 
L 37.796875 17.1875 
L 4.890625 17.1875 
L 4.890625 26.703125 
z
" id="DejaVuSans-52"/>
      </defs>
      <g transform="translate(16.275 107.045613)scale(0.1 -0.1)">
       <use xlink:href="#DejaVuSans-52"/>
       <use x="63.623047" xlink:href="#DejaVuSans-48"/>
      </g>
     </g>
    </g>
    <g id="ytick_6">
     <g id="line2d_9">
      <g>
       <use style="stroke:#000000;stroke-width:0.8;" x="36" xlink:href="#mc054eda8f5" y="67.515018"/>
      </g>
     </g>
     <g id="text_9">
      <!-- 50 -->
      <g transform="translate(16.275 71.314237)scale(0.1 -0.1)">
       <use xlink:href="#DejaVuSans-53"/>
       <use x="63.623047" xlink:href="#DejaVuSans-48"/>
      </g>
     </g>
    </g>
   </g>
   <g id="line2d_10">
    <path clip-path="url(#p5cfcd8d495)" d="M 36 246.171901 
L 259.2 246.171901 
" style="fill:none;stroke:#000000;stroke-linecap:square;stroke-width:1.5;"/>
   </g>
   <g id="patch_5">
    <path d="M 36 256.32 
L 36 34.56 
" style="fill:none;stroke:#000000;stroke-linecap:square;stroke-linejoin:miter;stroke-width:0.8;"/>
   </g>
   <g id="patch_6">
    <path d="M 259.2 256.32 
L 259.2 34.56 
" style="fill:none;stroke:#000000;stroke-linecap:square;stroke-linejoin:miter;stroke-width:0.8;"/>
   </g>
   <g id="patch_7">
    <path d="M 36 256.32 
L 259.2 256.32 
" style="fill:none;stroke:#000000;stroke-linecap:square;stroke-linejoin:miter;stroke-width:0.8;"/>
   </g>
   <g id="patch_8">
    <path d="M 36 34.56 
L 259.2 34.56 
" style="fill:none;stroke:#000000;stroke-linecap:square;stroke-linejoin:miter;stroke-width:0.8;"/>
   </g>
  </g>
 </g>
 <defs>
  <clipPath id="p5cfcd8d495">
   <rect height="221.76" width="223.2" x="36" y="34.56"/>
  </clipPath>
 </defs>
</svg>
