<?xml version="1.0" encoding="utf-8" standalone="no"?>
<!DOCTYPE svg PUBLIC "-//W3C//DTD SVG 1.1//EN"
  "http://www.w3.org/Graphics/SVG/1.1/DTD/svg11.dtd">
<svg height="288pt" version="1.1" viewBox="0 0 288 288" width="288pt" xmlns="http://www.w3.org/2000/svg" xmlns:xlink="http://www.w3.org/1999/xlink">
 <metadata>
  <rdf:RDF xmlns:cc="http://creativecommons.org/ns#" xmlns:dc="http://purl.org/dc/elements/1.1/" xmlns:rdf="http://www.w3.org/1999/02/22-rdf-syntax-ns#">
   <cc:Work>
    <dc:type rdf:resource="http://purl.org/dc/dcmitype/StillImage"/>
    <dc:date>2021-09-07T19:40:33.175350</dc:date>
    <dc:format>image/svg+xml</dc:format>
    <dc:creator>
     <cc:Agent>
      <dc:title>Matplotlib v3.4.2, https://matplotlib.org/</dc:title>
     </cc:Agent>
    </dc:creator>
   </cc:Work>
  </rdf:RDF>
 </metadata>
 <defs>
  <style type="text/css">*{stroke-linecap:butt;stroke-linejoin:round;}</style>
 </defs>
 <g id="figure_1">
  <g id="patch_1">
   <path d="M 0 288 
L 288 288 
L 288 0 
L 0 0 
z
" style="fill:none;"/>
  </g>
  <g id="axes_1">
   <g id="patch_2">
    <path d="M 36 256.32 
L 259.2 256.32 
L 259.2 34.56 
L 36 34.56 
z
" style="fill:none;"/>
   </g>
   <g id="PathCollection_1">
    <defs>
     <path d="M 0 3 
C 0.795609 3 1.55874 2.683901 2.12132 2.12132 
C 2.683901 1.55874 3 0.795609 3 0 
C 3 -0.795609 2.683901 -1.55874 2.12132 -2.12132 
C 1.55874 -2.683901 0.795609 -3 0 -3 
C -0.795609 -3 -1.55874 -2.683901 -2.12132 -2.12132 
C -2.683901 -1.55874 -3 -0.795609 -3 0 
C -3 0.795609 -2.683901 1.55874 -2.12132 2.12132 
C -1.55874 2.683901 -0.795609 3 0 3 
z
" id="m263ef009f5" style="stroke:#ffa500;"/>
    </defs>
    <g clip-path="url(#p7838d189b8)">
     <use style="fill:#ffa500;stroke:#ffa500;" x="91.236364" xlink:href="#m263ef009f5" y="236.792712"/>
     <use style="fill:#ffa500;stroke:#ffa500;" x="91.236364" xlink:href="#m263ef009f5" y="225.020177"/>
     <use style="fill:#ffa500;stroke:#ffa500;" x="91.236364" xlink:href="#m263ef009f5" y="238.94561"/>
     <use style="fill:#ffa500;stroke:#ffa500;" x="91.236364" xlink:href="#m263ef009f5" y="221.614422"/>
     <use style="fill:#ffa500;stroke:#ffa500;" x="91.236364" xlink:href="#m263ef009f5" y="253.857488"/>
     <use style="fill:#ffa500;stroke:#ffa500;" x="91.236364" xlink:href="#m263ef009f5" y="232.717327"/>
     <use style="fill:#ffa500;stroke:#ffa500;" x="91.236364" xlink:href="#m263ef009f5" y="254.318309"/>
     <use style="fill:#ffa500;stroke:#ffa500;" x="91.236364" xlink:href="#m263ef009f5" y="243.56102"/>
     <use style="fill:#ffa500;stroke:#ffa500;" x="91.236364" xlink:href="#m263ef009f5" y="254.217504"/>
     <use style="fill:#ffa500;stroke:#ffa500;" x="91.236364" xlink:href="#m263ef009f5" y="253.411068"/>
     <use style="fill:#ffa500;stroke:#ffa500;" x="91.236364" xlink:href="#m263ef009f5" y="150.244778"/>
     <use style="fill:#ffa500;stroke:#ffa500;" x="91.236364" xlink:href="#m263ef009f5" y="255.00954"/>
     <use style="fill:#ffa500;stroke:#ffa500;" x="91.236364" xlink:href="#m263ef009f5" y="229.073962"/>
     <use style="fill:#ffa500;stroke:#ffa500;" x="91.236364" xlink:href="#m263ef009f5" y="209.913891"/>
     <use style="fill:#ffa500;stroke:#ffa500;" x="91.236364" xlink:href="#m263ef009f5" y="240.299272"/>
     <use style="fill:#ffa500;stroke:#ffa500;" x="91.236364" xlink:href="#m263ef009f5" y="246.86597"/>
     <use style="fill:#ffa500;stroke:#ffa500;" x="91.236364" xlink:href="#m263ef009f5" y="218.633487"/>
     <use style="fill:#ffa500;stroke:#ffa500;" x="91.236364" xlink:href="#m263ef009f5" y="246.64996"/>
     <use style="fill:#ffa500;stroke:#ffa500;" x="91.236364" xlink:href="#m263ef009f5" y="245.3251"/>
     <use style="fill:#ffa500;stroke:#ffa500;" x="91.236364" xlink:href="#m263ef009f5" y="255.023941"/>
    </g>
   </g>
   <g id="PathCollection_2">
    <defs>
     <path d="M 0 3 
C 0.795609 3 1.55874 2.683901 2.12132 2.12132 
C 2.683901 1.55874 3 0.795609 3 0 
C 3 -0.795609 2.683901 -1.55874 2.12132 -2.12132 
C 1.55874 -2.683901 0.795609 -3 0 -3 
C -0.795609 -3 -1.55874 -2.683901 -2.12132 -2.12132 
C -2.683901 -1.55874 -3 -0.795609 -3 0 
C -3 0.795609 -2.683901 1.55874 -2.12132 2.12132 
C -1.55874 2.683901 -0.795609 3 0 3 
z
" id="m01076ee00b" style="stroke:#0000ff;"/>
    </defs>
    <g clip-path="url(#p7838d189b8)">
     <use style="fill:#0000ff;stroke:#0000ff;" x="203.963636" xlink:href="#m01076ee00b" y="210.259506"/>
     <use style="fill:#0000ff;stroke:#0000ff;" x="203.963636" xlink:href="#m01076ee00b" y="223.968929"/>
     <use style="fill:#0000ff;stroke:#0000ff;" x="203.963636" xlink:href="#m01076ee00b" y="231.774084"/>
     <use style="fill:#0000ff;stroke:#0000ff;" x="203.963636" xlink:href="#m01076ee00b" y="113.890326"/>
     <use style="fill:#0000ff;stroke:#0000ff;" x="203.963636" xlink:href="#m01076ee00b" y="252.899845"/>
     <use style="fill:#0000ff;stroke:#0000ff;" x="203.963636" xlink:href="#m01076ee00b" y="160.217232"/>
     <use style="fill:#0000ff;stroke:#0000ff;" x="203.963636" xlink:href="#m01076ee00b" y="253.065452"/>
     <use style="fill:#0000ff;stroke:#0000ff;" x="203.963636" xlink:href="#m01076ee00b" y="211.303554"/>
     <use style="fill:#0000ff;stroke:#0000ff;" x="203.963636" xlink:href="#m01076ee00b" y="252.727037"/>
     <use style="fill:#0000ff;stroke:#0000ff;" x="203.963636" xlink:href="#m01076ee00b" y="247.024377"/>
     <use style="fill:#0000ff;stroke:#0000ff;" x="203.963636" xlink:href="#m01076ee00b" y="45.12"/>
     <use style="fill:#0000ff;stroke:#0000ff;" x="203.963636" xlink:href="#m01076ee00b" y="252.230214"/>
     <use style="fill:#0000ff;stroke:#0000ff;" x="203.963636" xlink:href="#m01076ee00b" y="184.899954"/>
     <use style="fill:#0000ff;stroke:#0000ff;" x="203.963636" xlink:href="#m01076ee00b" y="200.308654"/>
     <use style="fill:#0000ff;stroke:#0000ff;" x="203.963636" xlink:href="#m01076ee00b" y="209.445869"/>
     <use style="fill:#0000ff;stroke:#0000ff;" x="203.963636" xlink:href="#m01076ee00b" y="228.490735"/>
     <use style="fill:#0000ff;stroke:#0000ff;" x="203.963636" xlink:href="#m01076ee00b" y="178.765275"/>
     <use style="fill:#0000ff;stroke:#0000ff;" x="203.963636" xlink:href="#m01076ee00b" y="226.17223"/>
     <use style="fill:#0000ff;stroke:#0000ff;" x="203.963636" xlink:href="#m01076ee00b" y="199.876634"/>
     <use style="fill:#0000ff;stroke:#0000ff;" x="203.963636" xlink:href="#m01076ee00b" y="252.316618"/>
    </g>
   </g>
   <g id="patch_3">
    <path clip-path="url(#p7838d189b8)" d="M 46.145455 256.32 
L 136.327273 256.32 
L 136.327273 235.574777 
L 46.145455 235.574777 
z
" style="fill:#ffa500;opacity:0.6;"/>
   </g>
   <g id="patch_4">
    <path clip-path="url(#p7838d189b8)" d="M 158.872727 256.32 
L 249.054545 256.32 
L 249.054545 206.737826 
L 158.872727 206.737826 
z
" style="fill:#0000ff;opacity:0.6;"/>
   </g>
   <g id="matplotlib.axis_1">
    <g id="xtick_1">
     <g id="line2d_1">
      <defs>
       <path d="M 0 0 
L 0 3.5 
" id="m150b284045" style="stroke:#000000;stroke-width:0.8;"/>
      </defs>
      <g>
       <use style="stroke:#000000;stroke-width:0.8;" x="91.236364" xlink:href="#m150b284045" y="256.32"/>
      </g>
     </g>
     <g id="text_1">
      <!-- 1.0 -->
      <g transform="translate(83.284801 270.918437)scale(0.1 -0.1)">
       <defs>
        <path d="M 794 531 
L 1825 531 
L 1825 4091 
L 703 3866 
L 703 4441 
L 1819 4666 
L 2450 4666 
L 2450 531 
L 3481 531 
L 3481 0 
L 794 0 
L 794 531 
z
" id="DejaVuSans-31" transform="scale(0.015625)"/>
        <path d="M 684 794 
L 1344 794 
L 1344 0 
L 684 0 
L 684 794 
z
" id="DejaVuSans-2e" transform="scale(0.015625)"/>
        <path d="M 2034 4250 
Q 1547 4250 1301 3770 
Q 1056 3291 1056 2328 
Q 1056 1369 1301 889 
Q 1547 409 2034 409 
Q 2525 409 2770 889 
Q 3016 1369 3016 2328 
Q 3016 3291 2770 3770 
Q 2525 4250 2034 4250 
z
M 2034 4750 
Q 2819 4750 3233 4129 
Q 3647 3509 3647 2328 
Q 3647 1150 3233 529 
Q 2819 -91 2034 -91 
Q 1250 -91 836 529 
Q 422 1150 422 2328 
Q 422 3509 836 4129 
Q 1250 4750 2034 4750 
z
" id="DejaVuSans-30" transform="scale(0.015625)"/>
       </defs>
       <use xlink:href="#DejaVuSans-31"/>
       <use x="63.623047" xlink:href="#DejaVuSans-2e"/>
       <use x="95.410156" xlink:href="#DejaVuSans-30"/>
      </g>
     </g>
    </g>
    <g id="xtick_2">
     <g id="line2d_2">
      <g>
       <use style="stroke:#000000;stroke-width:0.8;" x="147.6" xlink:href="#m150b284045" y="256.32"/>
      </g>
     </g>
     <g id="text_2">
      <!-- 1.5 -->
      <g transform="translate(139.648438 270.918437)scale(0.1 -0.1)">
       <defs>
        <path d="M 691 4666 
L 3169 4666 
L 3169 4134 
L 1269 4134 
L 1269 2991 
Q 1406 3038 1543 3061 
Q 1681 3084 1819 3084 
Q 2600 3084 3056 2656 
Q 3513 2228 3513 1497 
Q 3513 744 3044 326 
Q 2575 -91 1722 -91 
Q 1428 -91 1123 -41 
Q 819 9 494 109 
L 494 744 
Q 775 591 1075 516 
Q 1375 441 1709 441 
Q 2250 441 2565 725 
Q 2881 1009 2881 1497 
Q 2881 1984 2565 2268 
Q 2250 2553 1709 2553 
Q 1456 2553 1204 2497 
Q 953 2441 691 2322 
L 691 4666 
z
" id="DejaVuSans-35" transform="scale(0.015625)"/>
       </defs>
       <use xlink:href="#DejaVuSans-31"/>
       <use x="63.623047" xlink:href="#DejaVuSans-2e"/>
       <use x="95.410156" xlink:href="#DejaVuSans-35"/>
      </g>
     </g>
    </g>
    <g id="xtick_3">
     <g id="line2d_3">
      <g>
       <use style="stroke:#000000;stroke-width:0.8;" x="203.963636" xlink:href="#m150b284045" y="256.32"/>
      </g>
     </g>
     <g id="text_3">
      <!-- 2.0 -->
      <g transform="translate(196.012074 270.918437)scale(0.1 -0.1)">
       <defs>
        <path d="M 1228 531 
L 3431 531 
L 3431 0 
L 469 0 
L 469 531 
Q 828 903 1448 1529 
Q 2069 2156 2228 2338 
Q 2531 2678 2651 2914 
Q 2772 3150 2772 3378 
Q 2772 3750 2511 3984 
Q 2250 4219 1831 4219 
Q 1534 4219 1204 4116 
Q 875 4013 500 3803 
L 500 4441 
Q 881 4594 1212 4672 
Q 1544 4750 1819 4750 
Q 2544 4750 2975 4387 
Q 3406 4025 3406 3419 
Q 3406 3131 3298 2873 
Q 3191 2616 2906 2266 
Q 2828 2175 2409 1742 
Q 1991 1309 1228 531 
z
" id="DejaVuSans-32" transform="scale(0.015625)"/>
       </defs>
       <use xlink:href="#DejaVuSans-32"/>
       <use x="63.623047" xlink:href="#DejaVuSans-2e"/>
       <use x="95.410156" xlink:href="#DejaVuSans-30"/>
      </g>
     </g>
    </g>
   </g>
   <g id="matplotlib.axis_2">
    <g id="ytick_1">
     <g id="line2d_4">
      <defs>
       <path d="M 0 0 
L -3.5 0 
" id="m940451c22d" style="stroke:#000000;stroke-width:0.8;"/>
      </defs>
      <g>
       <use style="stroke:#000000;stroke-width:0.8;" x="36" xlink:href="#m940451c22d" y="256.32"/>
      </g>
     </g>
     <g id="text_4">
      <!-- 0 -->
      <g transform="translate(22.6375 260.119219)scale(0.1 -0.1)">
       <use xlink:href="#DejaVuSans-30"/>
      </g>
     </g>
    </g>
    <g id="ytick_2">
     <g id="line2d_5">
      <g>
       <use style="stroke:#000000;stroke-width:0.8;" x="36" xlink:href="#m940451c22d" y="217.438233"/>
      </g>
     </g>
     <g id="text_5">
      <!-- 20 -->
      <g transform="translate(16.275 221.237451)scale(0.1 -0.1)">
       <use xlink:href="#DejaVuSans-32"/>
       <use x="63.623047" xlink:href="#DejaVuSans-30"/>
      </g>
     </g>
    </g>
    <g id="ytick_3">
     <g id="line2d_6">
      <g>
       <use style="stroke:#000000;stroke-width:0.8;" x="36" xlink:href="#m940451c22d" y="178.556465"/>
      </g>
     </g>
     <g id="text_6">
      <!-- 40 -->
      <g transform="translate(16.275 182.355684)scale(0.1 -0.1)">
       <defs>
        <path d="M 2419 4116 
L 825 1625 
L 2419 1625 
L 2419 4116 
z
M 2253 4666 
L 3047 4666 
L 3047 1625 
L 3713 1625 
L 3713 1100 
L 3047 1100 
L 3047 0 
L 2419 0 
L 2419 1100 
L 313 1100 
L 313 1709 
L 2253 4666 
z
" id="DejaVuSans-34" transform="scale(0.015625)"/>
       </defs>
       <use xlink:href="#DejaVuSans-34"/>
       <use x="63.623047" xlink:href="#DejaVuSans-30"/>
      </g>
     </g>
    </g>
    <g id="ytick_4">
     <g id="line2d_7">
      <g>
       <use style="stroke:#000000;stroke-width:0.8;" x="36" xlink:href="#m940451c22d" y="139.674698"/>
      </g>
     </g>
     <g id="text_7">
      <!-- 60 -->
      <g transform="translate(16.275 143.473917)scale(0.1 -0.1)">
       <defs>
        <path d="M 2113 2584 
Q 1688 2584 1439 2293 
Q 1191 2003 1191 1497 
Q 1191 994 1439 701 
Q 1688 409 2113 409 
Q 2538 409 2786 701 
Q 3034 994 3034 1497 
Q 3034 2003 2786 2293 
Q 2538 2584 2113 2584 
z
M 3366 4563 
L 3366 3988 
Q 3128 4100 2886 4159 
Q 2644 4219 2406 4219 
Q 1781 4219 1451 3797 
Q 1122 3375 1075 2522 
Q 1259 2794 1537 2939 
Q 1816 3084 2150 3084 
Q 2853 3084 3261 2657 
Q 3669 2231 3669 1497 
Q 3669 778 3244 343 
Q 2819 -91 2113 -91 
Q 1303 -91 875 529 
Q 447 1150 447 2328 
Q 447 3434 972 4092 
Q 1497 4750 2381 4750 
Q 2619 4750 2861 4703 
Q 3103 4656 3366 4563 
z
" id="DejaVuSans-36" transform="scale(0.015625)"/>
       </defs>
       <use xlink:href="#DejaVuSans-36"/>
       <use x="63.623047" xlink:href="#DejaVuSans-30"/>
      </g>
     </g>
    </g>
    <g id="ytick_5">
     <g id="line2d_8">
      <g>
       <use style="stroke:#000000;stroke-width:0.8;" x="36" xlink:href="#m940451c22d" y="100.792931"/>
      </g>
     </g>
     <g id="text_8">
      <!-- 80 -->
      <g transform="translate(16.275 104.592149)scale(0.1 -0.1)">
       <defs>
        <path d="M 2034 2216 
Q 1584 2216 1326 1975 
Q 1069 1734 1069 1313 
Q 1069 891 1326 650 
Q 1584 409 2034 409 
Q 2484 409 2743 651 
Q 3003 894 3003 1313 
Q 3003 1734 2745 1975 
Q 2488 2216 2034 2216 
z
M 1403 2484 
Q 997 2584 770 2862 
Q 544 3141 544 3541 
Q 544 4100 942 4425 
Q 1341 4750 2034 4750 
Q 2731 4750 3128 4425 
Q 3525 4100 3525 3541 
Q 3525 3141 3298 2862 
Q 3072 2584 2669 2484 
Q 3125 2378 3379 2068 
Q 3634 1759 3634 1313 
Q 3634 634 3220 271 
Q 2806 -91 2034 -91 
Q 1263 -91 848 271 
Q 434 634 434 1313 
Q 434 1759 690 2068 
Q 947 2378 1403 2484 
z
M 1172 3481 
Q 1172 3119 1398 2916 
Q 1625 2713 2034 2713 
Q 2441 2713 2670 2916 
Q 2900 3119 2900 3481 
Q 2900 3844 2670 4047 
Q 2441 4250 2034 4250 
Q 1625 4250 1398 4047 
Q 1172 3844 1172 3481 
z
" id="DejaVuSans-38" transform="scale(0.015625)"/>
       </defs>
       <use xlink:href="#DejaVuSans-38"/>
       <use x="63.623047" xlink:href="#DejaVuSans-30"/>
      </g>
     </g>
    </g>
    <g id="ytick_6">
     <g id="line2d_9">
      <g>
       <use style="stroke:#000000;stroke-width:0.8;" x="36" xlink:href="#m940451c22d" y="61.911163"/>
      </g>
     </g>
     <g id="text_9">
      <!-- 100 -->
      <g transform="translate(9.9125 65.710382)scale(0.1 -0.1)">
       <use xlink:href="#DejaVuSans-31"/>
       <use x="63.623047" xlink:href="#DejaVuSans-30"/>
       <use x="127.246094" xlink:href="#DejaVuSans-30"/>
      </g>
     </g>
    </g>
   </g>
   <g id="line2d_10">
    <path clip-path="url(#p7838d189b8)" d="M 36 256.32 
L 259.2 256.32 
" style="fill:none;stroke:#000000;stroke-linecap:square;stroke-width:1.5;"/>
   </g>
   <g id="patch_5">
    <path d="M 36 256.32 
L 36 34.56 
" style="fill:none;stroke:#000000;stroke-linecap:square;stroke-linejoin:miter;stroke-width:0.8;"/>
   </g>
   <g id="patch_6">
    <path d="M 259.2 256.32 
L 259.2 34.56 
" style="fill:none;stroke:#000000;stroke-linecap:square;stroke-linejoin:miter;stroke-width:0.8;"/>
   </g>
   <g id="patch_7">
    <path d="M 36 256.32 
L 259.2 256.32 
" style="fill:none;stroke:#000000;stroke-linecap:square;stroke-linejoin:miter;stroke-width:0.8;"/>
   </g>
   <g id="patch_8">
    <path d="M 36 34.56 
L 259.2 34.56 
" style="fill:none;stroke:#000000;stroke-linecap:square;stroke-linejoin:miter;stroke-width:0.8;"/>
   </g>
  </g>
 </g>
 <defs>
  <clipPath id="p7838d189b8">
   <rect height="221.76" width="223.2" x="36" y="34.56"/>
  </clipPath>
 </defs>
</svg>
