<?xml version="1.0" encoding="utf-8" standalone="no"?>
<!DOCTYPE svg PUBLIC "-//W3C//DTD SVG 1.1//EN"
  "http://www.w3.org/Graphics/SVG/1.1/DTD/svg11.dtd">
<svg height="288pt" version="1.1" viewBox="0 0 1008 288" width="1008pt" xmlns="http://www.w3.org/2000/svg" xmlns:xlink="http://www.w3.org/1999/xlink">
 <metadata>
  <rdf:RDF xmlns:cc="http://creativecommons.org/ns#" xmlns:dc="http://purl.org/dc/elements/1.1/" xmlns:rdf="http://www.w3.org/1999/02/22-rdf-syntax-ns#">
   <cc:Work>
    <dc:type rdf:resource="http://purl.org/dc/dcmitype/StillImage"/>
    <dc:date>2021-09-04T14:32:57.604213</dc:date>
    <dc:format>image/svg+xml</dc:format>
    <dc:creator>
     <cc:Agent>
      <dc:title>Matplotlib v3.4.2, https://matplotlib.org/</dc:title>
     </cc:Agent>
    </dc:creator>
   </cc:Work>
  </rdf:RDF>
 </metadata>
 <defs>
  <style type="text/css">*{stroke-linecap:butt;stroke-linejoin:round;}</style>
 </defs>
 <g id="figure_1">
  <g id="patch_1">
   <path d="M 0 288 
L 1008 288 
L 1008 0 
L 0 0 
z
" style="fill:none;"/>
  </g>
  <g id="axes_1">
   <g id="patch_2">
    <path d="M 33.685 242.44 
L 485.575 242.44 
L 485.575 10.8 
L 33.685 10.8 
z
" style="fill:none;"/>
   </g>
   <g id="patch_3">
    <path clip-path="url(#p1af3e87f62)" d="M 33.685 242.44 
L 109 242.44 
L 109 102.052121 
L 33.685 102.052121 
z
" style="fill:#0000ff;"/>
   </g>
   <g id="patch_4">
    <path clip-path="url(#p1af3e87f62)" d="M 109 242.44 
L 184.315 242.44 
L 184.315 122.107532 
L 109 122.107532 
z
" style="fill:#0000ff;"/>
   </g>
   <g id="patch_5">
    <path clip-path="url(#p1af3e87f62)" d="M 184.315 242.44 
L 259.63 242.44 
L 259.63 222.384589 
L 184.315 222.384589 
z
" style="fill:#0000ff;"/>
   </g>
   <g id="patch_6">
    <path clip-path="url(#p1af3e87f62)" d="M 259.63 242.44 
L 334.945 242.44 
L 334.945 202.329177 
L 259.63 202.329177 
z
" style="fill:#0000ff;"/>
   </g>
   <g id="patch_7">
    <path clip-path="url(#p1af3e87f62)" d="M 334.945 242.44 
L 410.26 242.44 
L 410.26 202.329177 
L 334.945 202.329177 
z
" style="fill:#0000ff;"/>
   </g>
   <g id="patch_8">
    <path clip-path="url(#p1af3e87f62)" d="M 410.26 242.44 
L 485.575 242.44 
L 485.575 202.329177 
L 410.26 202.329177 
z
" style="fill:#0000ff;"/>
   </g>
   <g id="patch_9">
    <path clip-path="url(#p1af3e87f62)" d="M 33.685 242.44 
L 109 242.44 
L 109 21.830476 
L 33.685 21.830476 
z
" style="fill:#ffa500;opacity:0.8;"/>
   </g>
   <g id="patch_10">
    <path clip-path="url(#p1af3e87f62)" d="M 109 242.44 
L 184.315 242.44 
L 184.315 102.052121 
L 109 102.052121 
z
" style="fill:#ffa500;opacity:0.8;"/>
   </g>
   <g id="patch_11">
    <path clip-path="url(#p1af3e87f62)" d="M 184.315 242.44 
L 259.63 242.44 
L 259.63 202.329177 
L 184.315 202.329177 
z
" style="fill:#ffa500;opacity:0.8;"/>
   </g>
   <g id="matplotlib.axis_1">
    <g id="xtick_1">
     <g id="line2d_1">
      <defs>
       <path d="M 0 0 
L 0 3.5 
" id="m76902e2480" style="stroke:#000000;stroke-width:0.8;"/>
      </defs>
      <g>
       <use style="stroke:#000000;stroke-width:0.8;" x="71.3425" xlink:href="#m76902e2480" y="242.44"/>
      </g>
     </g>
     <g id="text_1">
      <!-- 0 -->
      <g transform="translate(68.16125 257.038437)scale(0.1 -0.1)">
       <defs>
        <path d="M 2034 4250 
Q 1547 4250 1301 3770 
Q 1056 3291 1056 2328 
Q 1056 1369 1301 889 
Q 1547 409 2034 409 
Q 2525 409 2770 889 
Q 3016 1369 3016 2328 
Q 3016 3291 2770 3770 
Q 2525 4250 2034 4250 
z
M 2034 4750 
Q 2819 4750 3233 4129 
Q 3647 3509 3647 2328 
Q 3647 1150 3233 529 
Q 2819 -91 2034 -91 
Q 1250 -91 836 529 
Q 422 1150 422 2328 
Q 422 3509 836 4129 
Q 1250 4750 2034 4750 
z
" id="DejaVuSans-30" transform="scale(0.015625)"/>
       </defs>
       <use xlink:href="#DejaVuSans-30"/>
      </g>
     </g>
    </g>
    <g id="xtick_2">
     <g id="line2d_2">
      <g>
       <use style="stroke:#000000;stroke-width:0.8;" x="146.6575" xlink:href="#m76902e2480" y="242.44"/>
      </g>
     </g>
     <g id="text_2">
      <!-- 1 -->
      <g transform="translate(143.47625 257.038437)scale(0.1 -0.1)">
       <defs>
        <path d="M 794 531 
L 1825 531 
L 1825 4091 
L 703 3866 
L 703 4441 
L 1819 4666 
L 2450 4666 
L 2450 531 
L 3481 531 
L 3481 0 
L 794 0 
L 794 531 
z
" id="DejaVuSans-31" transform="scale(0.015625)"/>
       </defs>
       <use xlink:href="#DejaVuSans-31"/>
      </g>
     </g>
    </g>
    <g id="xtick_3">
     <g id="line2d_3">
      <g>
       <use style="stroke:#000000;stroke-width:0.8;" x="221.9725" xlink:href="#m76902e2480" y="242.44"/>
      </g>
     </g>
     <g id="text_3">
      <!-- 2 -->
      <g transform="translate(218.79125 257.038437)scale(0.1 -0.1)">
       <defs>
        <path d="M 1228 531 
L 3431 531 
L 3431 0 
L 469 0 
L 469 531 
Q 828 903 1448 1529 
Q 2069 2156 2228 2338 
Q 2531 2678 2651 2914 
Q 2772 3150 2772 3378 
Q 2772 3750 2511 3984 
Q 2250 4219 1831 4219 
Q 1534 4219 1204 4116 
Q 875 4013 500 3803 
L 500 4441 
Q 881 4594 1212 4672 
Q 1544 4750 1819 4750 
Q 2544 4750 2975 4387 
Q 3406 4025 3406 3419 
Q 3406 3131 3298 2873 
Q 3191 2616 2906 2266 
Q 2828 2175 2409 1742 
Q 1991 1309 1228 531 
z
" id="DejaVuSans-32" transform="scale(0.015625)"/>
       </defs>
       <use xlink:href="#DejaVuSans-32"/>
      </g>
     </g>
    </g>
    <g id="xtick_4">
     <g id="line2d_4">
      <g>
       <use style="stroke:#000000;stroke-width:0.8;" x="297.2875" xlink:href="#m76902e2480" y="242.44"/>
      </g>
     </g>
     <g id="text_4">
      <!-- 3 -->
      <g transform="translate(294.10625 257.038437)scale(0.1 -0.1)">
       <defs>
        <path d="M 2597 2516 
Q 3050 2419 3304 2112 
Q 3559 1806 3559 1356 
Q 3559 666 3084 287 
Q 2609 -91 1734 -91 
Q 1441 -91 1130 -33 
Q 819 25 488 141 
L 488 750 
Q 750 597 1062 519 
Q 1375 441 1716 441 
Q 2309 441 2620 675 
Q 2931 909 2931 1356 
Q 2931 1769 2642 2001 
Q 2353 2234 1838 2234 
L 1294 2234 
L 1294 2753 
L 1863 2753 
Q 2328 2753 2575 2939 
Q 2822 3125 2822 3475 
Q 2822 3834 2567 4026 
Q 2313 4219 1838 4219 
Q 1578 4219 1281 4162 
Q 984 4106 628 3988 
L 628 4550 
Q 988 4650 1302 4700 
Q 1616 4750 1894 4750 
Q 2613 4750 3031 4423 
Q 3450 4097 3450 3541 
Q 3450 3153 3228 2886 
Q 3006 2619 2597 2516 
z
" id="DejaVuSans-33" transform="scale(0.015625)"/>
       </defs>
       <use xlink:href="#DejaVuSans-33"/>
      </g>
     </g>
    </g>
    <g id="xtick_5">
     <g id="line2d_5">
      <g>
       <use style="stroke:#000000;stroke-width:0.8;" x="372.6025" xlink:href="#m76902e2480" y="242.44"/>
      </g>
     </g>
     <g id="text_5">
      <!-- 4 -->
      <g transform="translate(369.42125 257.038437)scale(0.1 -0.1)">
       <defs>
        <path d="M 2419 4116 
L 825 1625 
L 2419 1625 
L 2419 4116 
z
M 2253 4666 
L 3047 4666 
L 3047 1625 
L 3713 1625 
L 3713 1100 
L 3047 1100 
L 3047 0 
L 2419 0 
L 2419 1100 
L 313 1100 
L 313 1709 
L 2253 4666 
z
" id="DejaVuSans-34" transform="scale(0.015625)"/>
       </defs>
       <use xlink:href="#DejaVuSans-34"/>
      </g>
     </g>
    </g>
    <g id="xtick_6">
     <g id="line2d_6">
      <g>
       <use style="stroke:#000000;stroke-width:0.8;" x="447.9175" xlink:href="#m76902e2480" y="242.44"/>
      </g>
     </g>
     <g id="text_6">
      <!-- 5 -->
      <g transform="translate(444.73625 257.038437)scale(0.1 -0.1)">
       <defs>
        <path d="M 691 4666 
L 3169 4666 
L 3169 4134 
L 1269 4134 
L 1269 2991 
Q 1406 3038 1543 3061 
Q 1681 3084 1819 3084 
Q 2600 3084 3056 2656 
Q 3513 2228 3513 1497 
Q 3513 744 3044 326 
Q 2575 -91 1722 -91 
Q 1428 -91 1123 -41 
Q 819 9 494 109 
L 494 744 
Q 775 591 1075 516 
Q 1375 441 1709 441 
Q 2250 441 2565 725 
Q 2881 1009 2881 1497 
Q 2881 1984 2565 2268 
Q 2250 2553 1709 2553 
Q 1456 2553 1204 2497 
Q 953 2441 691 2322 
L 691 4666 
z
" id="DejaVuSans-35" transform="scale(0.015625)"/>
       </defs>
       <use xlink:href="#DejaVuSans-35"/>
      </g>
     </g>
    </g>
    <g id="text_7">
     <!-- Number of replays per trial -->
     <g transform="translate(164.938594 273.755937)scale(0.14 -0.14)">
      <defs>
       <path d="M 628 4666 
L 1478 4666 
L 3547 763 
L 3547 4666 
L 4159 4666 
L 4159 0 
L 3309 0 
L 1241 3903 
L 1241 0 
L 628 0 
L 628 4666 
z
" id="DejaVuSans-4e" transform="scale(0.015625)"/>
       <path d="M 544 1381 
L 544 3500 
L 1119 3500 
L 1119 1403 
Q 1119 906 1312 657 
Q 1506 409 1894 409 
Q 2359 409 2629 706 
Q 2900 1003 2900 1516 
L 2900 3500 
L 3475 3500 
L 3475 0 
L 2900 0 
L 2900 538 
Q 2691 219 2414 64 
Q 2138 -91 1772 -91 
Q 1169 -91 856 284 
Q 544 659 544 1381 
z
M 1991 3584 
L 1991 3584 
z
" id="DejaVuSans-75" transform="scale(0.015625)"/>
       <path d="M 3328 2828 
Q 3544 3216 3844 3400 
Q 4144 3584 4550 3584 
Q 5097 3584 5394 3201 
Q 5691 2819 5691 2113 
L 5691 0 
L 5113 0 
L 5113 2094 
Q 5113 2597 4934 2840 
Q 4756 3084 4391 3084 
Q 3944 3084 3684 2787 
Q 3425 2491 3425 1978 
L 3425 0 
L 2847 0 
L 2847 2094 
Q 2847 2600 2669 2842 
Q 2491 3084 2119 3084 
Q 1678 3084 1418 2786 
Q 1159 2488 1159 1978 
L 1159 0 
L 581 0 
L 581 3500 
L 1159 3500 
L 1159 2956 
Q 1356 3278 1631 3431 
Q 1906 3584 2284 3584 
Q 2666 3584 2933 3390 
Q 3200 3197 3328 2828 
z
" id="DejaVuSans-6d" transform="scale(0.015625)"/>
       <path d="M 3116 1747 
Q 3116 2381 2855 2742 
Q 2594 3103 2138 3103 
Q 1681 3103 1420 2742 
Q 1159 2381 1159 1747 
Q 1159 1113 1420 752 
Q 1681 391 2138 391 
Q 2594 391 2855 752 
Q 3116 1113 3116 1747 
z
M 1159 2969 
Q 1341 3281 1617 3432 
Q 1894 3584 2278 3584 
Q 2916 3584 3314 3078 
Q 3713 2572 3713 1747 
Q 3713 922 3314 415 
Q 2916 -91 2278 -91 
Q 1894 -91 1617 61 
Q 1341 213 1159 525 
L 1159 0 
L 581 0 
L 581 4863 
L 1159 4863 
L 1159 2969 
z
" id="DejaVuSans-62" transform="scale(0.015625)"/>
       <path d="M 3597 1894 
L 3597 1613 
L 953 1613 
Q 991 1019 1311 708 
Q 1631 397 2203 397 
Q 2534 397 2845 478 
Q 3156 559 3463 722 
L 3463 178 
Q 3153 47 2828 -22 
Q 2503 -91 2169 -91 
Q 1331 -91 842 396 
Q 353 884 353 1716 
Q 353 2575 817 3079 
Q 1281 3584 2069 3584 
Q 2775 3584 3186 3129 
Q 3597 2675 3597 1894 
z
M 3022 2063 
Q 3016 2534 2758 2815 
Q 2500 3097 2075 3097 
Q 1594 3097 1305 2825 
Q 1016 2553 972 2059 
L 3022 2063 
z
" id="DejaVuSans-65" transform="scale(0.015625)"/>
       <path d="M 2631 2963 
Q 2534 3019 2420 3045 
Q 2306 3072 2169 3072 
Q 1681 3072 1420 2755 
Q 1159 2438 1159 1844 
L 1159 0 
L 581 0 
L 581 3500 
L 1159 3500 
L 1159 2956 
Q 1341 3275 1631 3429 
Q 1922 3584 2338 3584 
Q 2397 3584 2469 3576 
Q 2541 3569 2628 3553 
L 2631 2963 
z
" id="DejaVuSans-72" transform="scale(0.015625)"/>
       <path id="DejaVuSans-20" transform="scale(0.015625)"/>
       <path d="M 1959 3097 
Q 1497 3097 1228 2736 
Q 959 2375 959 1747 
Q 959 1119 1226 758 
Q 1494 397 1959 397 
Q 2419 397 2687 759 
Q 2956 1122 2956 1747 
Q 2956 2369 2687 2733 
Q 2419 3097 1959 3097 
z
M 1959 3584 
Q 2709 3584 3137 3096 
Q 3566 2609 3566 1747 
Q 3566 888 3137 398 
Q 2709 -91 1959 -91 
Q 1206 -91 779 398 
Q 353 888 353 1747 
Q 353 2609 779 3096 
Q 1206 3584 1959 3584 
z
" id="DejaVuSans-6f" transform="scale(0.015625)"/>
       <path d="M 2375 4863 
L 2375 4384 
L 1825 4384 
Q 1516 4384 1395 4259 
Q 1275 4134 1275 3809 
L 1275 3500 
L 2222 3500 
L 2222 3053 
L 1275 3053 
L 1275 0 
L 697 0 
L 697 3053 
L 147 3053 
L 147 3500 
L 697 3500 
L 697 3744 
Q 697 4328 969 4595 
Q 1241 4863 1831 4863 
L 2375 4863 
z
" id="DejaVuSans-66" transform="scale(0.015625)"/>
       <path d="M 1159 525 
L 1159 -1331 
L 581 -1331 
L 581 3500 
L 1159 3500 
L 1159 2969 
Q 1341 3281 1617 3432 
Q 1894 3584 2278 3584 
Q 2916 3584 3314 3078 
Q 3713 2572 3713 1747 
Q 3713 922 3314 415 
Q 2916 -91 2278 -91 
Q 1894 -91 1617 61 
Q 1341 213 1159 525 
z
M 3116 1747 
Q 3116 2381 2855 2742 
Q 2594 3103 2138 3103 
Q 1681 3103 1420 2742 
Q 1159 2381 1159 1747 
Q 1159 1113 1420 752 
Q 1681 391 2138 391 
Q 2594 391 2855 752 
Q 3116 1113 3116 1747 
z
" id="DejaVuSans-70" transform="scale(0.015625)"/>
       <path d="M 603 4863 
L 1178 4863 
L 1178 0 
L 603 0 
L 603 4863 
z
" id="DejaVuSans-6c" transform="scale(0.015625)"/>
       <path d="M 2194 1759 
Q 1497 1759 1228 1600 
Q 959 1441 959 1056 
Q 959 750 1161 570 
Q 1363 391 1709 391 
Q 2188 391 2477 730 
Q 2766 1069 2766 1631 
L 2766 1759 
L 2194 1759 
z
M 3341 1997 
L 3341 0 
L 2766 0 
L 2766 531 
Q 2569 213 2275 61 
Q 1981 -91 1556 -91 
Q 1019 -91 701 211 
Q 384 513 384 1019 
Q 384 1609 779 1909 
Q 1175 2209 1959 2209 
L 2766 2209 
L 2766 2266 
Q 2766 2663 2505 2880 
Q 2244 3097 1772 3097 
Q 1472 3097 1187 3025 
Q 903 2953 641 2809 
L 641 3341 
Q 956 3463 1253 3523 
Q 1550 3584 1831 3584 
Q 2591 3584 2966 3190 
Q 3341 2797 3341 1997 
z
" id="DejaVuSans-61" transform="scale(0.015625)"/>
       <path d="M 2059 -325 
Q 1816 -950 1584 -1140 
Q 1353 -1331 966 -1331 
L 506 -1331 
L 506 -850 
L 844 -850 
Q 1081 -850 1212 -737 
Q 1344 -625 1503 -206 
L 1606 56 
L 191 3500 
L 800 3500 
L 1894 763 
L 2988 3500 
L 3597 3500 
L 2059 -325 
z
" id="DejaVuSans-79" transform="scale(0.015625)"/>
       <path d="M 2834 3397 
L 2834 2853 
Q 2591 2978 2328 3040 
Q 2066 3103 1784 3103 
Q 1356 3103 1142 2972 
Q 928 2841 928 2578 
Q 928 2378 1081 2264 
Q 1234 2150 1697 2047 
L 1894 2003 
Q 2506 1872 2764 1633 
Q 3022 1394 3022 966 
Q 3022 478 2636 193 
Q 2250 -91 1575 -91 
Q 1294 -91 989 -36 
Q 684 19 347 128 
L 347 722 
Q 666 556 975 473 
Q 1284 391 1588 391 
Q 1994 391 2212 530 
Q 2431 669 2431 922 
Q 2431 1156 2273 1281 
Q 2116 1406 1581 1522 
L 1381 1569 
Q 847 1681 609 1914 
Q 372 2147 372 2553 
Q 372 3047 722 3315 
Q 1072 3584 1716 3584 
Q 2034 3584 2315 3537 
Q 2597 3491 2834 3397 
z
" id="DejaVuSans-73" transform="scale(0.015625)"/>
       <path d="M 1172 4494 
L 1172 3500 
L 2356 3500 
L 2356 3053 
L 1172 3053 
L 1172 1153 
Q 1172 725 1289 603 
Q 1406 481 1766 481 
L 2356 481 
L 2356 0 
L 1766 0 
Q 1100 0 847 248 
Q 594 497 594 1153 
L 594 3053 
L 172 3053 
L 172 3500 
L 594 3500 
L 594 4494 
L 1172 4494 
z
" id="DejaVuSans-74" transform="scale(0.015625)"/>
       <path d="M 603 3500 
L 1178 3500 
L 1178 0 
L 603 0 
L 603 3500 
z
M 603 4863 
L 1178 4863 
L 1178 4134 
L 603 4134 
L 603 4863 
z
" id="DejaVuSans-69" transform="scale(0.015625)"/>
      </defs>
      <use xlink:href="#DejaVuSans-4e"/>
      <use x="74.804688" xlink:href="#DejaVuSans-75"/>
      <use x="138.183594" xlink:href="#DejaVuSans-6d"/>
      <use x="235.595703" xlink:href="#DejaVuSans-62"/>
      <use x="299.072266" xlink:href="#DejaVuSans-65"/>
      <use x="360.595703" xlink:href="#DejaVuSans-72"/>
      <use x="401.708984" xlink:href="#DejaVuSans-20"/>
      <use x="433.496094" xlink:href="#DejaVuSans-6f"/>
      <use x="494.677734" xlink:href="#DejaVuSans-66"/>
      <use x="529.882812" xlink:href="#DejaVuSans-20"/>
      <use x="561.669922" xlink:href="#DejaVuSans-72"/>
      <use x="600.533203" xlink:href="#DejaVuSans-65"/>
      <use x="662.056641" xlink:href="#DejaVuSans-70"/>
      <use x="725.533203" xlink:href="#DejaVuSans-6c"/>
      <use x="753.316406" xlink:href="#DejaVuSans-61"/>
      <use x="814.595703" xlink:href="#DejaVuSans-79"/>
      <use x="873.775391" xlink:href="#DejaVuSans-73"/>
      <use x="925.875" xlink:href="#DejaVuSans-20"/>
      <use x="957.662109" xlink:href="#DejaVuSans-70"/>
      <use x="1021.138672" xlink:href="#DejaVuSans-65"/>
      <use x="1082.662109" xlink:href="#DejaVuSans-72"/>
      <use x="1123.775391" xlink:href="#DejaVuSans-20"/>
      <use x="1155.5625" xlink:href="#DejaVuSans-74"/>
      <use x="1194.771484" xlink:href="#DejaVuSans-72"/>
      <use x="1235.884766" xlink:href="#DejaVuSans-69"/>
      <use x="1263.667969" xlink:href="#DejaVuSans-61"/>
      <use x="1324.947266" xlink:href="#DejaVuSans-6c"/>
     </g>
    </g>
   </g>
   <g id="matplotlib.axis_2">
    <g id="ytick_1">
     <g id="line2d_7">
      <defs>
       <path d="M 0 0 
L -3.5 0 
" id="maaf2786d2c" style="stroke:#000000;stroke-width:0.8;"/>
      </defs>
      <g>
       <use style="stroke:#000000;stroke-width:0.8;" x="33.685" xlink:href="#maaf2786d2c" y="242.44"/>
      </g>
     </g>
     <g id="text_8">
      <!-- 0.0 -->
      <g transform="translate(10.781875 246.239219)scale(0.1 -0.1)">
       <defs>
        <path d="M 684 794 
L 1344 794 
L 1344 0 
L 684 0 
L 684 794 
z
" id="DejaVuSans-2e" transform="scale(0.015625)"/>
       </defs>
       <use xlink:href="#DejaVuSans-30"/>
       <use x="63.623047" xlink:href="#DejaVuSans-2e"/>
       <use x="95.410156" xlink:href="#DejaVuSans-30"/>
      </g>
     </g>
    </g>
    <g id="ytick_2">
     <g id="line2d_8">
      <g>
       <use style="stroke:#000000;stroke-width:0.8;" x="33.685" xlink:href="#maaf2786d2c" y="202.329177"/>
      </g>
     </g>
     <g id="text_9">
      <!-- 0.1 -->
      <g transform="translate(10.781875 206.128396)scale(0.1 -0.1)">
       <use xlink:href="#DejaVuSans-30"/>
       <use x="63.623047" xlink:href="#DejaVuSans-2e"/>
       <use x="95.410156" xlink:href="#DejaVuSans-31"/>
      </g>
     </g>
    </g>
    <g id="ytick_3">
     <g id="line2d_9">
      <g>
       <use style="stroke:#000000;stroke-width:0.8;" x="33.685" xlink:href="#maaf2786d2c" y="162.218355"/>
      </g>
     </g>
     <g id="text_10">
      <!-- 0.2 -->
      <g transform="translate(10.781875 166.017574)scale(0.1 -0.1)">
       <use xlink:href="#DejaVuSans-30"/>
       <use x="63.623047" xlink:href="#DejaVuSans-2e"/>
       <use x="95.410156" xlink:href="#DejaVuSans-32"/>
      </g>
     </g>
    </g>
    <g id="ytick_4">
     <g id="line2d_10">
      <g>
       <use style="stroke:#000000;stroke-width:0.8;" x="33.685" xlink:href="#maaf2786d2c" y="122.107532"/>
      </g>
     </g>
     <g id="text_11">
      <!-- 0.3 -->
      <g transform="translate(10.781875 125.906751)scale(0.1 -0.1)">
       <use xlink:href="#DejaVuSans-30"/>
       <use x="63.623047" xlink:href="#DejaVuSans-2e"/>
       <use x="95.410156" xlink:href="#DejaVuSans-33"/>
      </g>
     </g>
    </g>
    <g id="ytick_5">
     <g id="line2d_11">
      <g>
       <use style="stroke:#000000;stroke-width:0.8;" x="33.685" xlink:href="#maaf2786d2c" y="81.99671"/>
      </g>
     </g>
     <g id="text_12">
      <!-- 0.4 -->
      <g transform="translate(10.781875 85.795929)scale(0.1 -0.1)">
       <use xlink:href="#DejaVuSans-30"/>
       <use x="63.623047" xlink:href="#DejaVuSans-2e"/>
       <use x="95.410156" xlink:href="#DejaVuSans-34"/>
      </g>
     </g>
    </g>
    <g id="ytick_6">
     <g id="line2d_12">
      <g>
       <use style="stroke:#000000;stroke-width:0.8;" x="33.685" xlink:href="#maaf2786d2c" y="41.885887"/>
      </g>
     </g>
     <g id="text_13">
      <!-- 0.5 -->
      <g transform="translate(10.781875 45.685106)scale(0.1 -0.1)">
       <use xlink:href="#DejaVuSans-30"/>
       <use x="63.623047" xlink:href="#DejaVuSans-2e"/>
       <use x="95.410156" xlink:href="#DejaVuSans-35"/>
      </g>
     </g>
    </g>
   </g>
   <g id="patch_12">
    <path d="M 33.685 242.44 
L 33.685 10.8 
" style="fill:none;stroke:#000000;stroke-linecap:square;stroke-linejoin:miter;stroke-width:0.8;"/>
   </g>
   <g id="patch_13">
    <path d="M 485.575 242.44 
L 485.575 10.8 
" style="fill:none;stroke:#000000;stroke-linecap:square;stroke-linejoin:miter;stroke-width:0.8;"/>
   </g>
   <g id="patch_14">
    <path d="M 33.685 242.44 
L 485.575 242.44 
" style="fill:none;stroke:#000000;stroke-linecap:square;stroke-linejoin:miter;stroke-width:0.8;"/>
   </g>
   <g id="patch_15">
    <path d="M 33.685 10.8 
L 485.575 10.8 
" style="fill:none;stroke:#000000;stroke-linecap:square;stroke-linejoin:miter;stroke-width:0.8;"/>
   </g>
  </g>
  <g id="axes_2">
   <g id="patch_16">
    <path d="M 545.31 242.44 
L 997.2 242.44 
L 997.2 10.8 
L 545.31 10.8 
z
" style="fill:none;"/>
   </g>
   <g id="patch_17">
    <path clip-path="url(#pa69eee6ddd)" d="M 545.31 126.62 
L 556.896923 126.62 
L 556.896923 126.62 
L 545.31 126.62 
z
" style="fill:#0000ff;"/>
   </g>
   <g id="patch_18">
    <path clip-path="url(#pa69eee6ddd)" d="M 556.896923 126.62 
L 568.483846 126.62 
L 568.483846 126.562893 
L 556.896923 126.562893 
z
" style="fill:#0000ff;"/>
   </g>
   <g id="patch_19">
    <path clip-path="url(#pa69eee6ddd)" d="M 568.483846 126.62 
L 580.070769 126.62 
L 580.070769 123.650429 
L 568.483846 123.650429 
z
" style="fill:#0000ff;"/>
   </g>
   <g id="patch_20">
    <path clip-path="url(#pa69eee6ddd)" d="M 580.070769 126.62 
L 591.657692 126.62 
L 591.657692 122.051429 
L 580.070769 122.051429 
z
" style="fill:#0000ff;"/>
   </g>
   <g id="patch_21">
    <path clip-path="url(#pa69eee6ddd)" d="M 591.657692 126.62 
L 603.244615 126.62 
L 603.244615 112.914288 
L 591.657692 112.914288 
z
" style="fill:#0000ff;"/>
   </g>
   <g id="patch_22">
    <path clip-path="url(#pa69eee6ddd)" d="M 603.244615 126.62 
L 614.831538 126.62 
L 614.831538 108.574146 
L 603.244615 108.574146 
z
" style="fill:#0000ff;"/>
   </g>
   <g id="patch_23">
    <path clip-path="url(#pa69eee6ddd)" d="M 614.831538 126.62 
L 626.418462 126.62 
L 626.418462 109.544967 
L 614.831538 109.544967 
z
" style="fill:#0000ff;"/>
   </g>
   <g id="patch_24">
    <path clip-path="url(#pa69eee6ddd)" d="M 626.418462 126.62 
L 638.005385 126.62 
L 638.005385 107.08936 
L 626.418462 107.08936 
z
" style="fill:#0000ff;"/>
   </g>
   <g id="patch_25">
    <path clip-path="url(#pa69eee6ddd)" d="M 638.005385 126.62 
L 649.592308 126.62 
L 649.592308 103.148968 
L 638.005385 103.148968 
z
" style="fill:#0000ff;"/>
   </g>
   <g id="patch_26">
    <path clip-path="url(#pa69eee6ddd)" d="M 649.592308 126.62 
L 661.179231 126.62 
L 661.179231 106.803825 
L 649.592308 106.803825 
z
" style="fill:#0000ff;"/>
   </g>
   <g id="patch_27">
    <path clip-path="url(#pa69eee6ddd)" d="M 661.179231 126.62 
L 672.766154 126.62 
L 672.766154 116.05518 
L 661.179231 116.05518 
z
" style="fill:#0000ff;"/>
   </g>
   <g id="patch_28">
    <path clip-path="url(#pa69eee6ddd)" d="M 672.766154 126.62 
L 684.353077 126.62 
L 684.353077 119.538715 
L 672.766154 119.538715 
z
" style="fill:#0000ff;"/>
   </g>
   <g id="patch_29">
    <path clip-path="url(#pa69eee6ddd)" d="M 684.353077 126.62 
L 695.94 126.62 
L 695.94 119.138966 
L 684.353077 119.138966 
z
" style="fill:#0000ff;"/>
   </g>
   <g id="patch_30">
    <path clip-path="url(#pa69eee6ddd)" d="M 695.94 126.62 
L 707.526923 126.62 
L 707.526923 112.057681 
L 695.94 112.057681 
z
" style="fill:#0000ff;"/>
   </g>
   <g id="patch_31">
    <path clip-path="url(#pa69eee6ddd)" d="M 707.526923 126.62 
L 719.113846 126.62 
L 719.113846 107.374896 
L 707.526923 107.374896 
z
" style="fill:#0000ff;"/>
   </g>
   <g id="patch_32">
    <path clip-path="url(#pa69eee6ddd)" d="M 719.113846 126.62 
L 730.700769 126.62 
L 730.700769 95.953469 
L 719.113846 95.953469 
z
" style="fill:#0000ff;"/>
   </g>
   <g id="patch_33">
    <path clip-path="url(#pa69eee6ddd)" d="M 730.700769 126.62 
L 742.287692 126.62 
L 742.287692 97.324041 
L 730.700769 97.324041 
z
" style="fill:#0000ff;"/>
   </g>
   <g id="patch_34">
    <path clip-path="url(#pa69eee6ddd)" d="M 742.287692 126.62 
L 753.874615 126.62 
L 753.874615 110.230253 
L 742.287692 110.230253 
z
" style="fill:#0000ff;"/>
   </g>
   <g id="patch_35">
    <path clip-path="url(#pa69eee6ddd)" d="M 753.874615 126.62 
L 765.461538 126.62 
L 765.461538 109.602074 
L 753.874615 109.602074 
z
" style="fill:#0000ff;"/>
   </g>
   <g id="patch_36">
    <path clip-path="url(#pa69eee6ddd)" d="M 765.461538 126.62 
L 777.048462 126.62 
L 777.048462 105.376146 
L 765.461538 105.376146 
z
" style="fill:#0000ff;"/>
   </g>
   <g id="patch_37">
    <path clip-path="url(#pa69eee6ddd)" d="M 777.048462 126.62 
L 788.635385 126.62 
L 788.635385 57.69169 
L 777.048462 57.69169 
z
" style="fill:#0000ff;"/>
   </g>
   <g id="patch_38">
    <path clip-path="url(#pa69eee6ddd)" d="M 788.635385 126.62 
L 800.222308 126.62 
L 800.222308 126.62 
L 788.635385 126.62 
z
" style="fill:#0000ff;"/>
   </g>
   <g id="patch_39">
    <path clip-path="url(#pa69eee6ddd)" d="M 800.222308 126.62 
L 811.809231 126.62 
L 811.809231 126.62 
L 800.222308 126.62 
z
" style="fill:#0000ff;"/>
   </g>
   <g id="patch_40">
    <path clip-path="url(#pa69eee6ddd)" d="M 811.809231 126.62 
L 823.396154 126.62 
L 823.396154 126.62 
L 811.809231 126.62 
z
" style="fill:#0000ff;"/>
   </g>
   <g id="patch_41">
    <path clip-path="url(#pa69eee6ddd)" d="M 823.396154 126.62 
L 834.983077 126.62 
L 834.983077 126.62 
L 823.396154 126.62 
z
" style="fill:#0000ff;"/>
   </g>
   <g id="patch_42">
    <path clip-path="url(#pa69eee6ddd)" d="M 834.983077 126.62 
L 846.57 126.62 
L 846.57 126.62 
L 834.983077 126.62 
z
" style="fill:#0000ff;"/>
   </g>
   <g id="patch_43">
    <path clip-path="url(#pa69eee6ddd)" d="M 846.57 126.62 
L 858.156923 126.62 
L 858.156923 126.62 
L 846.57 126.62 
z
" style="fill:#0000ff;"/>
   </g>
   <g id="patch_44">
    <path clip-path="url(#pa69eee6ddd)" d="M 858.156923 126.62 
L 869.743846 126.62 
L 869.743846 126.62 
L 858.156923 126.62 
z
" style="fill:#0000ff;"/>
   </g>
   <g id="patch_45">
    <path clip-path="url(#pa69eee6ddd)" d="M 869.743846 126.62 
L 881.330769 126.62 
L 881.330769 126.62 
L 869.743846 126.62 
z
" style="fill:#0000ff;"/>
   </g>
   <g id="patch_46">
    <path clip-path="url(#pa69eee6ddd)" d="M 881.330769 126.62 
L 892.917692 126.62 
L 892.917692 126.62 
L 881.330769 126.62 
z
" style="fill:#0000ff;"/>
   </g>
   <g id="patch_47">
    <path clip-path="url(#pa69eee6ddd)" d="M 892.917692 126.62 
L 904.504615 126.62 
L 904.504615 126.62 
L 892.917692 126.62 
z
" style="fill:#0000ff;"/>
   </g>
   <g id="patch_48">
    <path clip-path="url(#pa69eee6ddd)" d="M 904.504615 126.62 
L 916.091538 126.62 
L 916.091538 126.62 
L 904.504615 126.62 
z
" style="fill:#0000ff;"/>
   </g>
   <g id="patch_49">
    <path clip-path="url(#pa69eee6ddd)" d="M 916.091538 126.62 
L 927.678462 126.62 
L 927.678462 126.62 
L 916.091538 126.62 
z
" style="fill:#0000ff;"/>
   </g>
   <g id="patch_50">
    <path clip-path="url(#pa69eee6ddd)" d="M 927.678462 126.62 
L 939.265385 126.62 
L 939.265385 126.62 
L 927.678462 126.62 
z
" style="fill:#0000ff;"/>
   </g>
   <g id="patch_51">
    <path clip-path="url(#pa69eee6ddd)" d="M 939.265385 126.62 
L 950.852308 126.62 
L 950.852308 126.62 
L 939.265385 126.62 
z
" style="fill:#0000ff;"/>
   </g>
   <g id="patch_52">
    <path clip-path="url(#pa69eee6ddd)" d="M 950.852308 126.62 
L 962.439231 126.62 
L 962.439231 126.62 
L 950.852308 126.62 
z
" style="fill:#0000ff;"/>
   </g>
   <g id="patch_53">
    <path clip-path="url(#pa69eee6ddd)" d="M 962.439231 126.62 
L 974.026154 126.62 
L 974.026154 126.62 
L 962.439231 126.62 
z
" style="fill:#0000ff;"/>
   </g>
   <g id="patch_54">
    <path clip-path="url(#pa69eee6ddd)" d="M 974.026154 126.62 
L 985.613077 126.62 
L 985.613077 126.62 
L 974.026154 126.62 
z
" style="fill:#0000ff;"/>
   </g>
   <g id="patch_55">
    <path clip-path="url(#pa69eee6ddd)" d="M 985.613077 126.62 
L 997.2 126.62 
L 997.2 126.62 
L 985.613077 126.62 
z
" style="fill:#0000ff;"/>
   </g>
   <g id="patch_56">
    <path clip-path="url(#pa69eee6ddd)" d="M 545.31 126.62 
L 556.896923 126.62 
L 556.896923 126.62 
L 545.31 126.62 
z
" style="fill:#ffa500;opacity:0.8;"/>
   </g>
   <g id="patch_57">
    <path clip-path="url(#pa69eee6ddd)" d="M 556.896923 126.62 
L 568.483846 126.62 
L 568.483846 126.4319 
L 556.896923 126.4319 
z
" style="fill:#ffa500;opacity:0.8;"/>
   </g>
   <g id="patch_58">
    <path clip-path="url(#pa69eee6ddd)" d="M 568.483846 126.62 
L 580.070769 126.62 
L 580.070769 121.541296 
L 568.483846 121.541296 
z
" style="fill:#ffa500;opacity:0.8;"/>
   </g>
   <g id="patch_59">
    <path clip-path="url(#pa69eee6ddd)" d="M 580.070769 126.62 
L 591.657692 126.62 
L 591.657692 117.026893 
L 580.070769 117.026893 
z
" style="fill:#ffa500;opacity:0.8;"/>
   </g>
   <g id="patch_60">
    <path clip-path="url(#pa69eee6ddd)" d="M 591.657692 126.62 
L 603.244615 126.62 
L 603.244615 115.710191 
L 591.657692 115.710191 
z
" style="fill:#ffa500;opacity:0.8;"/>
   </g>
   <g id="patch_61">
    <path clip-path="url(#pa69eee6ddd)" d="M 603.244615 126.62 
L 614.831538 126.62 
L 614.831538 111.948189 
L 603.244615 111.948189 
z
" style="fill:#ffa500;opacity:0.8;"/>
   </g>
   <g id="patch_62">
    <path clip-path="url(#pa69eee6ddd)" d="M 614.831538 126.62 
L 626.418462 126.62 
L 626.418462 97.276377 
L 614.831538 97.276377 
z
" style="fill:#ffa500;opacity:0.8;"/>
   </g>
   <g id="patch_63">
    <path clip-path="url(#pa69eee6ddd)" d="M 626.418462 126.62 
L 638.005385 126.62 
L 638.005385 102.543181 
L 626.418462 102.543181 
z
" style="fill:#ffa500;opacity:0.8;"/>
   </g>
   <g id="patch_64">
    <path clip-path="url(#pa69eee6ddd)" d="M 638.005385 126.62 
L 649.592308 126.62 
L 649.592308 112.512489 
L 638.005385 112.512489 
z
" style="fill:#ffa500;opacity:0.8;"/>
   </g>
   <g id="patch_65">
    <path clip-path="url(#pa69eee6ddd)" d="M 649.592308 126.62 
L 661.179231 126.62 
L 661.179231 105.552784 
L 649.592308 105.552784 
z
" style="fill:#ffa500;opacity:0.8;"/>
   </g>
   <g id="patch_66">
    <path clip-path="url(#pa69eee6ddd)" d="M 661.179231 126.62 
L 672.766154 126.62 
L 672.766154 111.760088 
L 661.179231 111.760088 
z
" style="fill:#ffa500;opacity:0.8;"/>
   </g>
   <g id="patch_67">
    <path clip-path="url(#pa69eee6ddd)" d="M 672.766154 126.62 
L 684.353077 126.62 
L 684.353077 120.788895 
L 672.766154 120.788895 
z
" style="fill:#ffa500;opacity:0.8;"/>
   </g>
   <g id="patch_68">
    <path clip-path="url(#pa69eee6ddd)" d="M 684.353077 126.62 
L 695.94 126.62 
L 695.94 109.126686 
L 684.353077 109.126686 
z
" style="fill:#ffa500;opacity:0.8;"/>
   </g>
   <g id="patch_69">
    <path clip-path="url(#pa69eee6ddd)" d="M 695.94 126.62 
L 707.526923 126.62 
L 707.526923 106.869485 
L 695.94 106.869485 
z
" style="fill:#ffa500;opacity:0.8;"/>
   </g>
   <g id="patch_70">
    <path clip-path="url(#pa69eee6ddd)" d="M 707.526923 126.62 
L 719.113846 126.62 
L 719.113846 95.583476 
L 707.526923 95.583476 
z
" style="fill:#ffa500;opacity:0.8;"/>
   </g>
   <g id="patch_71">
    <path clip-path="url(#pa69eee6ddd)" d="M 719.113846 126.62 
L 730.700769 126.62 
L 730.700769 99.157379 
L 719.113846 99.157379 
z
" style="fill:#ffa500;opacity:0.8;"/>
   </g>
   <g id="patch_72">
    <path clip-path="url(#pa69eee6ddd)" d="M 730.700769 126.62 
L 742.287692 126.62 
L 742.287692 93.890574 
L 730.700769 93.890574 
z
" style="fill:#ffa500;opacity:0.8;"/>
   </g>
   <g id="patch_73">
    <path clip-path="url(#pa69eee6ddd)" d="M 742.287692 126.62 
L 753.874615 126.62 
L 753.874615 110.819588 
L 742.287692 110.819588 
z
" style="fill:#ffa500;opacity:0.8;"/>
   </g>
   <g id="patch_74">
    <path clip-path="url(#pa69eee6ddd)" d="M 753.874615 126.62 
L 765.461538 126.62 
L 765.461538 119.284094 
L 753.874615 119.284094 
z
" style="fill:#ffa500;opacity:0.8;"/>
   </g>
   <g id="patch_75">
    <path clip-path="url(#pa69eee6ddd)" d="M 765.461538 126.62 
L 777.048462 126.62 
L 777.048462 121.165096 
L 765.461538 121.165096 
z
" style="fill:#ffa500;opacity:0.8;"/>
   </g>
   <g id="patch_76">
    <path clip-path="url(#pa69eee6ddd)" d="M 777.048462 126.62 
L 788.635385 126.62 
L 788.635385 71.694757 
L 777.048462 71.694757 
z
" style="fill:#ffa500;opacity:0.8;"/>
   </g>
   <g id="patch_77">
    <path clip-path="url(#pa69eee6ddd)" d="M 788.635385 126.62 
L 800.222308 126.62 
L 800.222308 126.62 
L 788.635385 126.62 
z
" style="fill:#ffa500;opacity:0.8;"/>
   </g>
   <g id="patch_78">
    <path clip-path="url(#pa69eee6ddd)" d="M 800.222308 126.62 
L 811.809231 126.62 
L 811.809231 126.62 
L 800.222308 126.62 
z
" style="fill:#ffa500;opacity:0.8;"/>
   </g>
   <g id="patch_79">
    <path clip-path="url(#pa69eee6ddd)" d="M 811.809231 126.62 
L 823.396154 126.62 
L 823.396154 126.62 
L 811.809231 126.62 
z
" style="fill:#ffa500;opacity:0.8;"/>
   </g>
   <g id="patch_80">
    <path clip-path="url(#pa69eee6ddd)" d="M 823.396154 126.62 
L 834.983077 126.62 
L 834.983077 126.62 
L 823.396154 126.62 
z
" style="fill:#ffa500;opacity:0.8;"/>
   </g>
   <g id="patch_81">
    <path clip-path="url(#pa69eee6ddd)" d="M 834.983077 126.62 
L 846.57 126.62 
L 846.57 126.62 
L 834.983077 126.62 
z
" style="fill:#ffa500;opacity:0.8;"/>
   </g>
   <g id="patch_82">
    <path clip-path="url(#pa69eee6ddd)" d="M 846.57 126.62 
L 858.156923 126.62 
L 858.156923 126.62 
L 846.57 126.62 
z
" style="fill:#ffa500;opacity:0.8;"/>
   </g>
   <g id="patch_83">
    <path clip-path="url(#pa69eee6ddd)" d="M 858.156923 126.62 
L 869.743846 126.62 
L 869.743846 126.62 
L 858.156923 126.62 
z
" style="fill:#ffa500;opacity:0.8;"/>
   </g>
   <g id="patch_84">
    <path clip-path="url(#pa69eee6ddd)" d="M 869.743846 126.62 
L 881.330769 126.62 
L 881.330769 126.62 
L 869.743846 126.62 
z
" style="fill:#ffa500;opacity:0.8;"/>
   </g>
   <g id="patch_85">
    <path clip-path="url(#pa69eee6ddd)" d="M 881.330769 126.62 
L 892.917692 126.62 
L 892.917692 126.62 
L 881.330769 126.62 
z
" style="fill:#ffa500;opacity:0.8;"/>
   </g>
   <g id="patch_86">
    <path clip-path="url(#pa69eee6ddd)" d="M 892.917692 126.62 
L 904.504615 126.62 
L 904.504615 126.62 
L 892.917692 126.62 
z
" style="fill:#ffa500;opacity:0.8;"/>
   </g>
   <g id="patch_87">
    <path clip-path="url(#pa69eee6ddd)" d="M 904.504615 126.62 
L 916.091538 126.62 
L 916.091538 126.62 
L 904.504615 126.62 
z
" style="fill:#ffa500;opacity:0.8;"/>
   </g>
   <g id="patch_88">
    <path clip-path="url(#pa69eee6ddd)" d="M 916.091538 126.62 
L 927.678462 126.62 
L 927.678462 126.62 
L 916.091538 126.62 
z
" style="fill:#ffa500;opacity:0.8;"/>
   </g>
   <g id="patch_89">
    <path clip-path="url(#pa69eee6ddd)" d="M 927.678462 126.62 
L 939.265385 126.62 
L 939.265385 126.62 
L 927.678462 126.62 
z
" style="fill:#ffa500;opacity:0.8;"/>
   </g>
   <g id="patch_90">
    <path clip-path="url(#pa69eee6ddd)" d="M 939.265385 126.62 
L 950.852308 126.62 
L 950.852308 126.62 
L 939.265385 126.62 
z
" style="fill:#ffa500;opacity:0.8;"/>
   </g>
   <g id="patch_91">
    <path clip-path="url(#pa69eee6ddd)" d="M 950.852308 126.62 
L 962.439231 126.62 
L 962.439231 126.62 
L 950.852308 126.62 
z
" style="fill:#ffa500;opacity:0.8;"/>
   </g>
   <g id="patch_92">
    <path clip-path="url(#pa69eee6ddd)" d="M 962.439231 126.62 
L 974.026154 126.62 
L 974.026154 126.62 
L 962.439231 126.62 
z
" style="fill:#ffa500;opacity:0.8;"/>
   </g>
   <g id="patch_93">
    <path clip-path="url(#pa69eee6ddd)" d="M 974.026154 126.62 
L 985.613077 126.62 
L 985.613077 126.62 
L 974.026154 126.62 
z
" style="fill:#ffa500;opacity:0.8;"/>
   </g>
   <g id="patch_94">
    <path clip-path="url(#pa69eee6ddd)" d="M 985.613077 126.62 
L 997.2 126.62 
L 997.2 126.62 
L 985.613077 126.62 
z
" style="fill:#ffa500;opacity:0.8;"/>
   </g>
   <g id="patch_95">
    <path clip-path="url(#pa69eee6ddd)" d="M 545.31 126.62 
L 556.896923 126.62 
L 556.896923 126.62 
L 545.31 126.62 
z
" style="fill:#0000ff;"/>
   </g>
   <g id="patch_96">
    <path clip-path="url(#pa69eee6ddd)" d="M 556.896923 126.62 
L 568.483846 126.62 
L 568.483846 126.62 
L 556.896923 126.62 
z
" style="fill:#0000ff;"/>
   </g>
   <g id="patch_97">
    <path clip-path="url(#pa69eee6ddd)" d="M 568.483846 126.62 
L 580.070769 126.62 
L 580.070769 126.62 
L 568.483846 126.62 
z
" style="fill:#0000ff;"/>
   </g>
   <g id="patch_98">
    <path clip-path="url(#pa69eee6ddd)" d="M 580.070769 126.62 
L 591.657692 126.62 
L 591.657692 126.62 
L 580.070769 126.62 
z
" style="fill:#0000ff;"/>
   </g>
   <g id="patch_99">
    <path clip-path="url(#pa69eee6ddd)" d="M 591.657692 126.62 
L 603.244615 126.62 
L 603.244615 126.62 
L 591.657692 126.62 
z
" style="fill:#0000ff;"/>
   </g>
   <g id="patch_100">
    <path clip-path="url(#pa69eee6ddd)" d="M 603.244615 126.62 
L 614.831538 126.62 
L 614.831538 126.62 
L 603.244615 126.62 
z
" style="fill:#0000ff;"/>
   </g>
   <g id="patch_101">
    <path clip-path="url(#pa69eee6ddd)" d="M 614.831538 126.62 
L 626.418462 126.62 
L 626.418462 127.091292 
L 614.831538 127.091292 
z
" style="fill:#0000ff;"/>
   </g>
   <g id="patch_102">
    <path clip-path="url(#pa69eee6ddd)" d="M 626.418462 126.62 
L 638.005385 126.62 
L 638.005385 126.855646 
L 626.418462 126.855646 
z
" style="fill:#0000ff;"/>
   </g>
   <g id="patch_103">
    <path clip-path="url(#pa69eee6ddd)" d="M 638.005385 126.62 
L 649.592308 126.62 
L 649.592308 126.855646 
L 638.005385 126.855646 
z
" style="fill:#0000ff;"/>
   </g>
   <g id="patch_104">
    <path clip-path="url(#pa69eee6ddd)" d="M 649.592308 126.62 
L 661.179231 126.62 
L 661.179231 127.326938 
L 649.592308 127.326938 
z
" style="fill:#0000ff;"/>
   </g>
   <g id="patch_105">
    <path clip-path="url(#pa69eee6ddd)" d="M 661.179231 126.62 
L 672.766154 126.62 
L 672.766154 129.683398 
L 661.179231 129.683398 
z
" style="fill:#0000ff;"/>
   </g>
   <g id="patch_106">
    <path clip-path="url(#pa69eee6ddd)" d="M 672.766154 126.62 
L 684.353077 126.62 
L 684.353077 129.447752 
L 672.766154 129.447752 
z
" style="fill:#0000ff;"/>
   </g>
   <g id="patch_107">
    <path clip-path="url(#pa69eee6ddd)" d="M 684.353077 126.62 
L 695.94 126.62 
L 695.94 135.103255 
L 684.353077 135.103255 
z
" style="fill:#0000ff;"/>
   </g>
   <g id="patch_108">
    <path clip-path="url(#pa69eee6ddd)" d="M 695.94 126.62 
L 707.526923 126.62 
L 707.526923 139.580529 
L 695.94 139.580529 
z
" style="fill:#0000ff;"/>
   </g>
   <g id="patch_109">
    <path clip-path="url(#pa69eee6ddd)" d="M 707.526923 126.62 
L 719.113846 126.62 
L 719.113846 136.988423 
L 707.526923 136.988423 
z
" style="fill:#0000ff;"/>
   </g>
   <g id="patch_110">
    <path clip-path="url(#pa69eee6ddd)" d="M 719.113846 126.62 
L 730.700769 126.62 
L 730.700769 140.994405 
L 719.113846 140.994405 
z
" style="fill:#0000ff;"/>
   </g>
   <g id="patch_111">
    <path clip-path="url(#pa69eee6ddd)" d="M 730.700769 126.62 
L 742.287692 126.62 
L 742.287692 134.396317 
L 730.700769 134.396317 
z
" style="fill:#0000ff;"/>
   </g>
   <g id="patch_112">
    <path clip-path="url(#pa69eee6ddd)" d="M 742.287692 126.62 
L 753.874615 126.62 
L 753.874615 129.683398 
L 742.287692 129.683398 
z
" style="fill:#0000ff;"/>
   </g>
   <g id="patch_113">
    <path clip-path="url(#pa69eee6ddd)" d="M 753.874615 126.62 
L 765.461538 126.62 
L 765.461538 130.861628 
L 753.874615 130.861628 
z
" style="fill:#0000ff;"/>
   </g>
   <g id="patch_114">
    <path clip-path="url(#pa69eee6ddd)" d="M 765.461538 126.62 
L 777.048462 126.62 
L 777.048462 138.402299 
L 765.461538 138.402299 
z
" style="fill:#0000ff;"/>
   </g>
   <g id="patch_115">
    <path clip-path="url(#pa69eee6ddd)" d="M 777.048462 126.62 
L 788.635385 126.62 
L 788.635385 129.447752 
L 777.048462 129.447752 
z
" style="fill:#0000ff;"/>
   </g>
   <g id="patch_116">
    <path clip-path="url(#pa69eee6ddd)" d="M 788.635385 126.62 
L 800.222308 126.62 
L 800.222308 129.212106 
L 788.635385 129.212106 
z
" style="fill:#0000ff;"/>
   </g>
   <g id="patch_117">
    <path clip-path="url(#pa69eee6ddd)" d="M 800.222308 126.62 
L 811.809231 126.62 
L 811.809231 131.804212 
L 800.222308 131.804212 
z
" style="fill:#0000ff;"/>
   </g>
   <g id="patch_118">
    <path clip-path="url(#pa69eee6ddd)" d="M 811.809231 126.62 
L 823.396154 126.62 
L 823.396154 132.039858 
L 811.809231 132.039858 
z
" style="fill:#0000ff;"/>
   </g>
   <g id="patch_119">
    <path clip-path="url(#pa69eee6ddd)" d="M 823.396154 126.62 
L 834.983077 126.62 
L 834.983077 131.097274 
L 823.396154 131.097274 
z
" style="fill:#0000ff;"/>
   </g>
   <g id="patch_120">
    <path clip-path="url(#pa69eee6ddd)" d="M 834.983077 126.62 
L 846.57 126.62 
L 846.57 132.746796 
L 834.983077 132.746796 
z
" style="fill:#0000ff;"/>
   </g>
   <g id="patch_121">
    <path clip-path="url(#pa69eee6ddd)" d="M 846.57 126.62 
L 858.156923 126.62 
L 858.156923 131.804212 
L 846.57 131.804212 
z
" style="fill:#0000ff;"/>
   </g>
   <g id="patch_122">
    <path clip-path="url(#pa69eee6ddd)" d="M 858.156923 126.62 
L 869.743846 126.62 
L 869.743846 140.994405 
L 858.156923 140.994405 
z
" style="fill:#0000ff;"/>
   </g>
   <g id="patch_123">
    <path clip-path="url(#pa69eee6ddd)" d="M 869.743846 126.62 
L 881.330769 126.62 
L 881.330769 139.109237 
L 869.743846 139.109237 
z
" style="fill:#0000ff;"/>
   </g>
   <g id="patch_124">
    <path clip-path="url(#pa69eee6ddd)" d="M 881.330769 126.62 
L 892.917692 126.62 
L 892.917692 133.689379 
L 881.330769 133.689379 
z
" style="fill:#0000ff;"/>
   </g>
   <g id="patch_125">
    <path clip-path="url(#pa69eee6ddd)" d="M 892.917692 126.62 
L 904.504615 126.62 
L 904.504615 141.230051 
L 892.917692 141.230051 
z
" style="fill:#0000ff;"/>
   </g>
   <g id="patch_126">
    <path clip-path="url(#pa69eee6ddd)" d="M 904.504615 126.62 
L 916.091538 126.62 
L 916.091538 149.948952 
L 904.504615 149.948952 
z
" style="fill:#0000ff;"/>
   </g>
   <g id="patch_127">
    <path clip-path="url(#pa69eee6ddd)" d="M 916.091538 126.62 
L 927.678462 126.62 
L 927.678462 153.719288 
L 916.091538 153.719288 
z
" style="fill:#0000ff;"/>
   </g>
   <g id="patch_128">
    <path clip-path="url(#pa69eee6ddd)" d="M 927.678462 126.62 
L 939.265385 126.62 
L 939.265385 135.103255 
L 927.678462 135.103255 
z
" style="fill:#0000ff;"/>
   </g>
   <g id="patch_129">
    <path clip-path="url(#pa69eee6ddd)" d="M 939.265385 126.62 
L 950.852308 126.62 
L 950.852308 137.695361 
L 939.265385 137.695361 
z
" style="fill:#0000ff;"/>
   </g>
   <g id="patch_130">
    <path clip-path="url(#pa69eee6ddd)" d="M 950.852308 126.62 
L 962.439231 126.62 
L 962.439231 138.637945 
L 950.852308 138.637945 
z
" style="fill:#0000ff;"/>
   </g>
   <g id="patch_131">
    <path clip-path="url(#pa69eee6ddd)" d="M 962.439231 126.62 
L 974.026154 126.62 
L 974.026154 151.598474 
L 962.439231 151.598474 
z
" style="fill:#0000ff;"/>
   </g>
   <g id="patch_132">
    <path clip-path="url(#pa69eee6ddd)" d="M 974.026154 126.62 
L 985.613077 126.62 
L 985.613077 140.758759 
L 974.026154 140.758759 
z
" style="fill:#0000ff;"/>
   </g>
   <g id="patch_133">
    <path clip-path="url(#pa69eee6ddd)" d="M 985.613077 126.62 
L 997.2 126.62 
L 997.2 206.268342 
L 985.613077 206.268342 
z
" style="fill:#0000ff;"/>
   </g>
   <g id="patch_134">
    <path clip-path="url(#pa69eee6ddd)" d="M 545.31 126.62 
L 556.896923 126.62 
L 556.896923 126.62 
L 545.31 126.62 
z
" style="fill:#ffa500;opacity:0.8;"/>
   </g>
   <g id="patch_135">
    <path clip-path="url(#pa69eee6ddd)" d="M 556.896923 126.62 
L 568.483846 126.62 
L 568.483846 126.62 
L 556.896923 126.62 
z
" style="fill:#ffa500;opacity:0.8;"/>
   </g>
   <g id="patch_136">
    <path clip-path="url(#pa69eee6ddd)" d="M 568.483846 126.62 
L 580.070769 126.62 
L 580.070769 126.62 
L 568.483846 126.62 
z
" style="fill:#ffa500;opacity:0.8;"/>
   </g>
   <g id="patch_137">
    <path clip-path="url(#pa69eee6ddd)" d="M 580.070769 126.62 
L 591.657692 126.62 
L 591.657692 126.62 
L 580.070769 126.62 
z
" style="fill:#ffa500;opacity:0.8;"/>
   </g>
   <g id="patch_138">
    <path clip-path="url(#pa69eee6ddd)" d="M 591.657692 126.62 
L 603.244615 126.62 
L 603.244615 126.62 
L 591.657692 126.62 
z
" style="fill:#ffa500;opacity:0.8;"/>
   </g>
   <g id="patch_139">
    <path clip-path="url(#pa69eee6ddd)" d="M 603.244615 126.62 
L 614.831538 126.62 
L 614.831538 126.875992 
L 603.244615 126.875992 
z
" style="fill:#ffa500;opacity:0.8;"/>
   </g>
   <g id="patch_140">
    <path clip-path="url(#pa69eee6ddd)" d="M 614.831538 126.62 
L 626.418462 126.62 
L 626.418462 128.411943 
L 614.831538 128.411943 
z
" style="fill:#ffa500;opacity:0.8;"/>
   </g>
   <g id="patch_141">
    <path clip-path="url(#pa69eee6ddd)" d="M 626.418462 126.62 
L 638.005385 126.62 
L 638.005385 127.643968 
L 626.418462 127.643968 
z
" style="fill:#ffa500;opacity:0.8;"/>
   </g>
   <g id="patch_142">
    <path clip-path="url(#pa69eee6ddd)" d="M 638.005385 126.62 
L 649.592308 126.62 
L 649.592308 127.89996 
L 638.005385 127.89996 
z
" style="fill:#ffa500;opacity:0.8;"/>
   </g>
   <g id="patch_143">
    <path clip-path="url(#pa69eee6ddd)" d="M 649.592308 126.62 
L 661.179231 126.62 
L 661.179231 133.531782 
L 649.592308 133.531782 
z
" style="fill:#ffa500;opacity:0.8;"/>
   </g>
   <g id="patch_144">
    <path clip-path="url(#pa69eee6ddd)" d="M 661.179231 126.62 
L 672.766154 126.62 
L 672.766154 136.347693 
L 661.179231 136.347693 
z
" style="fill:#ffa500;opacity:0.8;"/>
   </g>
   <g id="patch_145">
    <path clip-path="url(#pa69eee6ddd)" d="M 672.766154 126.62 
L 684.353077 126.62 
L 684.353077 139.419596 
L 672.766154 139.419596 
z
" style="fill:#ffa500;opacity:0.8;"/>
   </g>
   <g id="patch_146">
    <path clip-path="url(#pa69eee6ddd)" d="M 684.353077 126.62 
L 695.94 126.62 
L 695.94 139.675588 
L 684.353077 139.675588 
z
" style="fill:#ffa500;opacity:0.8;"/>
   </g>
   <g id="patch_147">
    <path clip-path="url(#pa69eee6ddd)" d="M 695.94 126.62 
L 707.526923 126.62 
L 707.526923 146.075386 
L 695.94 146.075386 
z
" style="fill:#ffa500;opacity:0.8;"/>
   </g>
   <g id="patch_148">
    <path clip-path="url(#pa69eee6ddd)" d="M 707.526923 126.62 
L 719.113846 126.62 
L 719.113846 145.563402 
L 707.526923 145.563402 
z
" style="fill:#ffa500;opacity:0.8;"/>
   </g>
   <g id="patch_149">
    <path clip-path="url(#pa69eee6ddd)" d="M 719.113846 126.62 
L 730.700769 126.62 
L 730.700769 143.259475 
L 719.113846 143.259475 
z
" style="fill:#ffa500;opacity:0.8;"/>
   </g>
   <g id="patch_150">
    <path clip-path="url(#pa69eee6ddd)" d="M 730.700769 126.62 
L 742.287692 126.62 
L 742.287692 142.491499 
L 730.700769 142.491499 
z
" style="fill:#ffa500;opacity:0.8;"/>
   </g>
   <g id="patch_151">
    <path clip-path="url(#pa69eee6ddd)" d="M 742.287692 126.62 
L 753.874615 126.62 
L 753.874615 138.907612 
L 742.287692 138.907612 
z
" style="fill:#ffa500;opacity:0.8;"/>
   </g>
   <g id="patch_152">
    <path clip-path="url(#pa69eee6ddd)" d="M 753.874615 126.62 
L 765.461538 126.62 
L 765.461538 139.675588 
L 753.874615 139.675588 
z
" style="fill:#ffa500;opacity:0.8;"/>
   </g>
   <g id="patch_153">
    <path clip-path="url(#pa69eee6ddd)" d="M 765.461538 126.62 
L 777.048462 126.62 
L 777.048462 148.123321 
L 765.461538 148.123321 
z
" style="fill:#ffa500;opacity:0.8;"/>
   </g>
   <g id="patch_154">
    <path clip-path="url(#pa69eee6ddd)" d="M 777.048462 126.62 
L 788.635385 126.62 
L 788.635385 137.627653 
L 777.048462 137.627653 
z
" style="fill:#ffa500;opacity:0.8;"/>
   </g>
   <g id="patch_155">
    <path clip-path="url(#pa69eee6ddd)" d="M 788.635385 126.62 
L 800.222308 126.62 
L 800.222308 133.787774 
L 788.635385 133.787774 
z
" style="fill:#ffa500;opacity:0.8;"/>
   </g>
   <g id="patch_156">
    <path clip-path="url(#pa69eee6ddd)" d="M 800.222308 126.62 
L 811.809231 126.62 
L 811.809231 130.971863 
L 800.222308 130.971863 
z
" style="fill:#ffa500;opacity:0.8;"/>
   </g>
   <g id="patch_157">
    <path clip-path="url(#pa69eee6ddd)" d="M 811.809231 126.62 
L 823.396154 126.62 
L 823.396154 133.019798 
L 811.809231 133.019798 
z
" style="fill:#ffa500;opacity:0.8;"/>
   </g>
   <g id="patch_158">
    <path clip-path="url(#pa69eee6ddd)" d="M 823.396154 126.62 
L 834.983077 126.62 
L 834.983077 134.043766 
L 823.396154 134.043766 
z
" style="fill:#ffa500;opacity:0.8;"/>
   </g>
   <g id="patch_159">
    <path clip-path="url(#pa69eee6ddd)" d="M 834.983077 126.62 
L 846.57 126.62 
L 846.57 135.579717 
L 834.983077 135.579717 
z
" style="fill:#ffa500;opacity:0.8;"/>
   </g>
   <g id="patch_160">
    <path clip-path="url(#pa69eee6ddd)" d="M 846.57 126.62 
L 858.156923 126.62 
L 858.156923 131.99583 
L 846.57 131.99583 
z
" style="fill:#ffa500;opacity:0.8;"/>
   </g>
   <g id="patch_161">
    <path clip-path="url(#pa69eee6ddd)" d="M 858.156923 126.62 
L 869.743846 126.62 
L 869.743846 133.27579 
L 858.156923 133.27579 
z
" style="fill:#ffa500;opacity:0.8;"/>
   </g>
   <g id="patch_162">
    <path clip-path="url(#pa69eee6ddd)" d="M 869.743846 126.62 
L 881.330769 126.62 
L 881.330769 134.043766 
L 869.743846 134.043766 
z
" style="fill:#ffa500;opacity:0.8;"/>
   </g>
   <g id="patch_163">
    <path clip-path="url(#pa69eee6ddd)" d="M 881.330769 126.62 
L 892.917692 126.62 
L 892.917692 143.003483 
L 881.330769 143.003483 
z
" style="fill:#ffa500;opacity:0.8;"/>
   </g>
   <g id="patch_164">
    <path clip-path="url(#pa69eee6ddd)" d="M 892.917692 126.62 
L 904.504615 126.62 
L 904.504615 139.93158 
L 892.917692 139.93158 
z
" style="fill:#ffa500;opacity:0.8;"/>
   </g>
   <g id="patch_165">
    <path clip-path="url(#pa69eee6ddd)" d="M 904.504615 126.62 
L 916.091538 126.62 
L 916.091538 143.259475 
L 904.504615 143.259475 
z
" style="fill:#ffa500;opacity:0.8;"/>
   </g>
   <g id="patch_166">
    <path clip-path="url(#pa69eee6ddd)" d="M 916.091538 126.62 
L 927.678462 126.62 
L 927.678462 149.147289 
L 916.091538 149.147289 
z
" style="fill:#ffa500;opacity:0.8;"/>
   </g>
   <g id="patch_167">
    <path clip-path="url(#pa69eee6ddd)" d="M 927.678462 126.62 
L 939.265385 126.62 
L 939.265385 141.467531 
L 927.678462 141.467531 
z
" style="fill:#ffa500;opacity:0.8;"/>
   </g>
   <g id="patch_168">
    <path clip-path="url(#pa69eee6ddd)" d="M 939.265385 126.62 
L 950.852308 126.62 
L 950.852308 127.387976 
L 939.265385 127.387976 
z
" style="fill:#ffa500;opacity:0.8;"/>
   </g>
   <g id="patch_169">
    <path clip-path="url(#pa69eee6ddd)" d="M 950.852308 126.62 
L 962.439231 126.62 
L 962.439231 130.715871 
L 950.852308 130.715871 
z
" style="fill:#ffa500;opacity:0.8;"/>
   </g>
   <g id="patch_170">
    <path clip-path="url(#pa69eee6ddd)" d="M 962.439231 126.62 
L 974.026154 126.62 
L 974.026154 130.715871 
L 962.439231 130.715871 
z
" style="fill:#ffa500;opacity:0.8;"/>
   </g>
   <g id="patch_171">
    <path clip-path="url(#pa69eee6ddd)" d="M 974.026154 126.62 
L 985.613077 126.62 
L 985.613077 130.203887 
L 974.026154 130.203887 
z
" style="fill:#ffa500;opacity:0.8;"/>
   </g>
   <g id="patch_172">
    <path clip-path="url(#pa69eee6ddd)" d="M 985.613077 126.62 
L 997.2 126.62 
L 997.2 162.714861 
L 985.613077 162.714861 
z
" style="fill:#ffa500;opacity:0.8;"/>
   </g>
   <g id="matplotlib.axis_3">
    <g id="xtick_7">
     <g id="line2d_13">
      <g>
       <use style="stroke:#000000;stroke-width:0.8;" x="551.103462" xlink:href="#m76902e2480" y="242.44"/>
      </g>
     </g>
     <g id="text_14">
      <!-- 0 -->
      <g transform="translate(547.922212 257.038437)scale(0.1 -0.1)">
       <use xlink:href="#DejaVuSans-30"/>
      </g>
     </g>
    </g>
    <g id="xtick_8">
     <g id="line2d_14">
      <g>
       <use style="stroke:#000000;stroke-width:0.8;" x="634.906021" xlink:href="#m76902e2480" y="242.44"/>
      </g>
     </g>
     <g id="text_15">
      <!-- 1 -->
      <g transform="translate(631.724771 257.038437)scale(0.1 -0.1)">
       <use xlink:href="#DejaVuSans-31"/>
      </g>
     </g>
    </g>
    <g id="xtick_9">
     <g id="line2d_15">
      <g>
       <use style="stroke:#000000;stroke-width:0.8;" x="718.70858" xlink:href="#m76902e2480" y="242.44"/>
      </g>
     </g>
     <g id="text_16">
      <!-- 2 -->
      <g transform="translate(715.52733 257.038437)scale(0.1 -0.1)">
       <use xlink:href="#DejaVuSans-32"/>
      </g>
     </g>
    </g>
    <g id="xtick_10">
     <g id="line2d_16">
      <g>
       <use style="stroke:#000000;stroke-width:0.8;" x="802.511139" xlink:href="#m76902e2480" y="242.44"/>
      </g>
     </g>
     <g id="text_17">
      <!-- 3 -->
      <g transform="translate(799.329889 257.038437)scale(0.1 -0.1)">
       <use xlink:href="#DejaVuSans-33"/>
      </g>
     </g>
    </g>
    <g id="xtick_11">
     <g id="line2d_17">
      <g>
       <use style="stroke:#000000;stroke-width:0.8;" x="886.313698" xlink:href="#m76902e2480" y="242.44"/>
      </g>
     </g>
     <g id="text_18">
      <!-- 4 -->
      <g transform="translate(883.132448 257.038437)scale(0.1 -0.1)">
       <use xlink:href="#DejaVuSans-34"/>
      </g>
     </g>
    </g>
    <g id="xtick_12">
     <g id="line2d_18">
      <g>
       <use style="stroke:#000000;stroke-width:0.8;" x="970.116257" xlink:href="#m76902e2480" y="242.44"/>
      </g>
     </g>
     <g id="text_19">
      <!-- 5 -->
      <g transform="translate(966.935007 257.038437)scale(0.1 -0.1)">
       <use xlink:href="#DejaVuSans-35"/>
      </g>
     </g>
    </g>
    <g id="text_20">
     <!-- Action entropy -->
     <g transform="translate(720.029219 273.755937)scale(0.14 -0.14)">
      <defs>
       <path d="M 2188 4044 
L 1331 1722 
L 3047 1722 
L 2188 4044 
z
M 1831 4666 
L 2547 4666 
L 4325 0 
L 3669 0 
L 3244 1197 
L 1141 1197 
L 716 0 
L 50 0 
L 1831 4666 
z
" id="DejaVuSans-41" transform="scale(0.015625)"/>
       <path d="M 3122 3366 
L 3122 2828 
Q 2878 2963 2633 3030 
Q 2388 3097 2138 3097 
Q 1578 3097 1268 2742 
Q 959 2388 959 1747 
Q 959 1106 1268 751 
Q 1578 397 2138 397 
Q 2388 397 2633 464 
Q 2878 531 3122 666 
L 3122 134 
Q 2881 22 2623 -34 
Q 2366 -91 2075 -91 
Q 1284 -91 818 406 
Q 353 903 353 1747 
Q 353 2603 823 3093 
Q 1294 3584 2113 3584 
Q 2378 3584 2631 3529 
Q 2884 3475 3122 3366 
z
" id="DejaVuSans-63" transform="scale(0.015625)"/>
       <path d="M 3513 2113 
L 3513 0 
L 2938 0 
L 2938 2094 
Q 2938 2591 2744 2837 
Q 2550 3084 2163 3084 
Q 1697 3084 1428 2787 
Q 1159 2491 1159 1978 
L 1159 0 
L 581 0 
L 581 3500 
L 1159 3500 
L 1159 2956 
Q 1366 3272 1645 3428 
Q 1925 3584 2291 3584 
Q 2894 3584 3203 3211 
Q 3513 2838 3513 2113 
z
" id="DejaVuSans-6e" transform="scale(0.015625)"/>
      </defs>
      <use xlink:href="#DejaVuSans-41"/>
      <use x="66.658203" xlink:href="#DejaVuSans-63"/>
      <use x="121.638672" xlink:href="#DejaVuSans-74"/>
      <use x="160.847656" xlink:href="#DejaVuSans-69"/>
      <use x="188.630859" xlink:href="#DejaVuSans-6f"/>
      <use x="249.8125" xlink:href="#DejaVuSans-6e"/>
      <use x="313.191406" xlink:href="#DejaVuSans-20"/>
      <use x="344.978516" xlink:href="#DejaVuSans-65"/>
      <use x="406.501953" xlink:href="#DejaVuSans-6e"/>
      <use x="469.880859" xlink:href="#DejaVuSans-74"/>
      <use x="509.089844" xlink:href="#DejaVuSans-72"/>
      <use x="547.953125" xlink:href="#DejaVuSans-6f"/>
      <use x="609.134766" xlink:href="#DejaVuSans-70"/>
      <use x="672.611328" xlink:href="#DejaVuSans-79"/>
     </g>
    </g>
   </g>
   <g id="matplotlib.axis_4">
    <g id="ytick_7">
     <g id="line2d_19">
      <g>
       <use style="stroke:#000000;stroke-width:0.8;" x="545.31" xlink:href="#maaf2786d2c" y="235.134975"/>
      </g>
     </g>
     <g id="text_21">
      <!-- 0.3 -->
      <g transform="translate(514.027187 238.934193)scale(0.1 -0.1)">
       <defs>
        <path d="M 678 2272 
L 4684 2272 
L 4684 1741 
L 678 1741 
L 678 2272 
z
" id="DejaVuSans-2212" transform="scale(0.015625)"/>
       </defs>
       <use xlink:href="#DejaVuSans-2212"/>
       <use x="83.789062" xlink:href="#DejaVuSans-30"/>
       <use x="147.412109" xlink:href="#DejaVuSans-2e"/>
       <use x="179.199219" xlink:href="#DejaVuSans-33"/>
      </g>
     </g>
    </g>
    <g id="ytick_8">
     <g id="line2d_20">
      <g>
       <use style="stroke:#000000;stroke-width:0.8;" x="545.31" xlink:href="#maaf2786d2c" y="198.963316"/>
      </g>
     </g>
     <g id="text_22">
      <!-- 0.2 -->
      <g transform="translate(514.027187 202.762535)scale(0.1 -0.1)">
       <use xlink:href="#DejaVuSans-2212"/>
       <use x="83.789062" xlink:href="#DejaVuSans-30"/>
       <use x="147.412109" xlink:href="#DejaVuSans-2e"/>
       <use x="179.199219" xlink:href="#DejaVuSans-32"/>
      </g>
     </g>
    </g>
    <g id="ytick_9">
     <g id="line2d_21">
      <g>
       <use style="stroke:#000000;stroke-width:0.8;" x="545.31" xlink:href="#maaf2786d2c" y="162.791658"/>
      </g>
     </g>
     <g id="text_23">
      <!-- 0.1 -->
      <g transform="translate(514.027187 166.590877)scale(0.1 -0.1)">
       <use xlink:href="#DejaVuSans-2212"/>
       <use x="83.789062" xlink:href="#DejaVuSans-30"/>
       <use x="147.412109" xlink:href="#DejaVuSans-2e"/>
       <use x="179.199219" xlink:href="#DejaVuSans-31"/>
      </g>
     </g>
    </g>
    <g id="ytick_10">
     <g id="line2d_22">
      <g>
       <use style="stroke:#000000;stroke-width:0.8;" x="545.31" xlink:href="#maaf2786d2c" y="126.62"/>
      </g>
     </g>
     <g id="text_24">
      <!-- 0.0 -->
      <g transform="translate(522.406875 130.419219)scale(0.1 -0.1)">
       <use xlink:href="#DejaVuSans-30"/>
       <use x="63.623047" xlink:href="#DejaVuSans-2e"/>
       <use x="95.410156" xlink:href="#DejaVuSans-30"/>
      </g>
     </g>
    </g>
    <g id="ytick_11">
     <g id="line2d_23">
      <g>
       <use style="stroke:#000000;stroke-width:0.8;" x="545.31" xlink:href="#maaf2786d2c" y="90.448342"/>
      </g>
     </g>
     <g id="text_25">
      <!-- 0.1 -->
      <g transform="translate(522.406875 94.247561)scale(0.1 -0.1)">
       <use xlink:href="#DejaVuSans-30"/>
       <use x="63.623047" xlink:href="#DejaVuSans-2e"/>
       <use x="95.410156" xlink:href="#DejaVuSans-31"/>
      </g>
     </g>
    </g>
    <g id="ytick_12">
     <g id="line2d_24">
      <g>
       <use style="stroke:#000000;stroke-width:0.8;" x="545.31" xlink:href="#maaf2786d2c" y="54.276684"/>
      </g>
     </g>
     <g id="text_26">
      <!-- 0.2 -->
      <g transform="translate(522.406875 58.075902)scale(0.1 -0.1)">
       <use xlink:href="#DejaVuSans-30"/>
       <use x="63.623047" xlink:href="#DejaVuSans-2e"/>
       <use x="95.410156" xlink:href="#DejaVuSans-32"/>
      </g>
     </g>
    </g>
    <g id="ytick_13">
     <g id="line2d_25">
      <g>
       <use style="stroke:#000000;stroke-width:0.8;" x="545.31" xlink:href="#maaf2786d2c" y="18.105025"/>
      </g>
     </g>
     <g id="text_27">
      <!-- 0.3 -->
      <g transform="translate(522.406875 21.904244)scale(0.1 -0.1)">
       <use xlink:href="#DejaVuSans-30"/>
       <use x="63.623047" xlink:href="#DejaVuSans-2e"/>
       <use x="95.410156" xlink:href="#DejaVuSans-33"/>
      </g>
     </g>
    </g>
    <g id="text_28">
     <!-- Proportion of replays -->
     <g transform="translate(507.115625 199.426563)rotate(-90)scale(0.14 -0.14)">
      <defs>
       <path d="M 1259 4147 
L 1259 2394 
L 2053 2394 
Q 2494 2394 2734 2622 
Q 2975 2850 2975 3272 
Q 2975 3691 2734 3919 
Q 2494 4147 2053 4147 
L 1259 4147 
z
M 628 4666 
L 2053 4666 
Q 2838 4666 3239 4311 
Q 3641 3956 3641 3272 
Q 3641 2581 3239 2228 
Q 2838 1875 2053 1875 
L 1259 1875 
L 1259 0 
L 628 0 
L 628 4666 
z
" id="DejaVuSans-50" transform="scale(0.015625)"/>
      </defs>
      <use xlink:href="#DejaVuSans-50"/>
      <use x="58.552734" xlink:href="#DejaVuSans-72"/>
      <use x="97.416016" xlink:href="#DejaVuSans-6f"/>
      <use x="158.597656" xlink:href="#DejaVuSans-70"/>
      <use x="222.074219" xlink:href="#DejaVuSans-6f"/>
      <use x="283.255859" xlink:href="#DejaVuSans-72"/>
      <use x="324.369141" xlink:href="#DejaVuSans-74"/>
      <use x="363.578125" xlink:href="#DejaVuSans-69"/>
      <use x="391.361328" xlink:href="#DejaVuSans-6f"/>
      <use x="452.542969" xlink:href="#DejaVuSans-6e"/>
      <use x="515.921875" xlink:href="#DejaVuSans-20"/>
      <use x="547.708984" xlink:href="#DejaVuSans-6f"/>
      <use x="608.890625" xlink:href="#DejaVuSans-66"/>
      <use x="644.095703" xlink:href="#DejaVuSans-20"/>
      <use x="675.882812" xlink:href="#DejaVuSans-72"/>
      <use x="714.746094" xlink:href="#DejaVuSans-65"/>
      <use x="776.269531" xlink:href="#DejaVuSans-70"/>
      <use x="839.746094" xlink:href="#DejaVuSans-6c"/>
      <use x="867.529297" xlink:href="#DejaVuSans-61"/>
      <use x="928.808594" xlink:href="#DejaVuSans-79"/>
      <use x="987.988281" xlink:href="#DejaVuSans-73"/>
     </g>
    </g>
   </g>
   <g id="line2d_26">
    <path clip-path="url(#pa69eee6ddd)" d="M 545.31 126.62 
L 997.2 126.62 
" style="fill:none;stroke:#000000;stroke-linecap:square;stroke-width:1.5;"/>
   </g>
   <g id="patch_173">
    <path d="M 545.31 242.44 
L 545.31 10.8 
" style="fill:none;stroke:#000000;stroke-linecap:square;stroke-linejoin:miter;stroke-width:0.8;"/>
   </g>
   <g id="patch_174">
    <path d="M 997.2 242.44 
L 997.2 10.8 
" style="fill:none;stroke:#000000;stroke-linecap:square;stroke-linejoin:miter;stroke-width:0.8;"/>
   </g>
   <g id="patch_175">
    <path d="M 545.31 242.44 
L 997.2 242.44 
" style="fill:none;stroke:#000000;stroke-linecap:square;stroke-linejoin:miter;stroke-width:0.8;"/>
   </g>
   <g id="patch_176">
    <path d="M 545.31 10.8 
L 997.2 10.8 
" style="fill:none;stroke:#000000;stroke-linecap:square;stroke-linejoin:miter;stroke-width:0.8;"/>
   </g>
  </g>
 </g>
 <defs>
  <clipPath id="p1af3e87f62">
   <rect height="231.64" width="451.89" x="33.685" y="10.8"/>
  </clipPath>
  <clipPath id="pa69eee6ddd">
   <rect height="231.64" width="451.89" x="545.31" y="10.8"/>
  </clipPath>
 </defs>
</svg>
