<?xml version="1.0" encoding="utf-8" standalone="no"?>
<!DOCTYPE svg PUBLIC "-//W3C//DTD SVG 1.1//EN"
  "http://www.w3.org/Graphics/SVG/1.1/DTD/svg11.dtd">
<svg height="288pt" version="1.1" viewBox="0 0 1008 288" width="1008pt" xmlns="http://www.w3.org/2000/svg" xmlns:xlink="http://www.w3.org/1999/xlink">
 <metadata>
  <rdf:RDF xmlns:cc="http://creativecommons.org/ns#" xmlns:dc="http://purl.org/dc/elements/1.1/" xmlns:rdf="http://www.w3.org/1999/02/22-rdf-syntax-ns#">
   <cc:Work>
    <dc:type rdf:resource="http://purl.org/dc/dcmitype/StillImage"/>
    <dc:date>2021-09-04T17:57:59.673736</dc:date>
    <dc:format>image/svg+xml</dc:format>
    <dc:creator>
     <cc:Agent>
      <dc:title>Matplotlib v3.4.2, https://matplotlib.org/</dc:title>
     </cc:Agent>
    </dc:creator>
   </cc:Work>
  </rdf:RDF>
 </metadata>
 <defs>
  <style type="text/css">*{stroke-linecap:butt;stroke-linejoin:round;}</style>
 </defs>
 <g id="figure_1">
  <g id="patch_1">
   <path d="M 0 288 
L 1008 288 
L 1008 0 
L 0 0 
z
" style="fill:none;"/>
  </g>
  <g id="axes_1">
   <g id="patch_2">
    <path d="M 33.685 242.44 
L 485.575 242.44 
L 485.575 10.8 
L 33.685 10.8 
z
" style="fill:none;"/>
   </g>
   <g id="patch_3">
    <path clip-path="url(#p7362675d74)" d="M 33.685 242.44 
L 109 242.44 
L 109 102.052121 
L 33.685 102.052121 
z
" style="fill:#0000ff;"/>
   </g>
   <g id="patch_4">
    <path clip-path="url(#p7362675d74)" d="M 109 242.44 
L 184.315 242.44 
L 184.315 122.107532 
L 109 122.107532 
z
" style="fill:#0000ff;"/>
   </g>
   <g id="patch_5">
    <path clip-path="url(#p7362675d74)" d="M 184.315 242.44 
L 259.63 242.44 
L 259.63 222.384589 
L 184.315 222.384589 
z
" style="fill:#0000ff;"/>
   </g>
   <g id="patch_6">
    <path clip-path="url(#p7362675d74)" d="M 259.63 242.44 
L 334.945 242.44 
L 334.945 222.384589 
L 259.63 222.384589 
z
" style="fill:#0000ff;"/>
   </g>
   <g id="patch_7">
    <path clip-path="url(#p7362675d74)" d="M 334.945 242.44 
L 410.26 242.44 
L 410.26 202.329177 
L 334.945 202.329177 
z
" style="fill:#0000ff;"/>
   </g>
   <g id="patch_8">
    <path clip-path="url(#p7362675d74)" d="M 410.26 242.44 
L 485.575 242.44 
L 485.575 182.273766 
L 410.26 182.273766 
z
" style="fill:#0000ff;"/>
   </g>
   <g id="patch_9">
    <path clip-path="url(#p7362675d74)" d="M 33.685 242.44 
L 109 242.44 
L 109 21.830476 
L 33.685 21.830476 
z
" style="fill:#ffa500;opacity:0.8;"/>
   </g>
   <g id="patch_10">
    <path clip-path="url(#p7362675d74)" d="M 109 242.44 
L 184.315 242.44 
L 184.315 102.052121 
L 109 102.052121 
z
" style="fill:#ffa500;opacity:0.8;"/>
   </g>
   <g id="patch_11">
    <path clip-path="url(#p7362675d74)" d="M 184.315 242.44 
L 259.63 242.44 
L 259.63 202.329177 
L 184.315 202.329177 
z
" style="fill:#ffa500;opacity:0.8;"/>
   </g>
   <g id="matplotlib.axis_1">
    <g id="xtick_1">
     <g id="line2d_1">
      <defs>
       <path d="M 0 0 
L 0 3.5 
" id="mce820f6435" style="stroke:#000000;stroke-width:0.8;"/>
      </defs>
      <g>
       <use style="stroke:#000000;stroke-width:0.8;" x="71.3425" xlink:href="#mce820f6435" y="242.44"/>
      </g>
     </g>
     <g id="text_1">
      <!-- 0 -->
      <g transform="translate(68.16125 257.038437)scale(0.1 -0.1)">
       <defs>
        <path d="M 2034 4250 
Q 1547 4250 1301 3770 
Q 1056 3291 1056 2328 
Q 1056 1369 1301 889 
Q 1547 409 2034 409 
Q 2525 409 2770 889 
Q 3016 1369 3016 2328 
Q 3016 3291 2770 3770 
Q 2525 4250 2034 4250 
z
M 2034 4750 
Q 2819 4750 3233 4129 
Q 3647 3509 3647 2328 
Q 3647 1150 3233 529 
Q 2819 -91 2034 -91 
Q 1250 -91 836 529 
Q 422 1150 422 2328 
Q 422 3509 836 4129 
Q 1250 4750 2034 4750 
z
" id="DejaVuSans-30" transform="scale(0.015625)"/>
       </defs>
       <use xlink:href="#DejaVuSans-30"/>
      </g>
     </g>
    </g>
    <g id="xtick_2">
     <g id="line2d_2">
      <g>
       <use style="stroke:#000000;stroke-width:0.8;" x="146.6575" xlink:href="#mce820f6435" y="242.44"/>
      </g>
     </g>
     <g id="text_2">
      <!-- 1 -->
      <g transform="translate(143.47625 257.038437)scale(0.1 -0.1)">
       <defs>
        <path d="M 794 531 
L 1825 531 
L 1825 4091 
L 703 3866 
L 703 4441 
L 1819 4666 
L 2450 4666 
L 2450 531 
L 3481 531 
L 3481 0 
L 794 0 
L 794 531 
z
" id="DejaVuSans-31" transform="scale(0.015625)"/>
       </defs>
       <use xlink:href="#DejaVuSans-31"/>
      </g>
     </g>
    </g>
    <g id="xtick_3">
     <g id="line2d_3">
      <g>
       <use style="stroke:#000000;stroke-width:0.8;" x="221.9725" xlink:href="#mce820f6435" y="242.44"/>
      </g>
     </g>
     <g id="text_3">
      <!-- 2 -->
      <g transform="translate(218.79125 257.038437)scale(0.1 -0.1)">
       <defs>
        <path d="M 1228 531 
L 3431 531 
L 3431 0 
L 469 0 
L 469 531 
Q 828 903 1448 1529 
Q 2069 2156 2228 2338 
Q 2531 2678 2651 2914 
Q 2772 3150 2772 3378 
Q 2772 3750 2511 3984 
Q 2250 4219 1831 4219 
Q 1534 4219 1204 4116 
Q 875 4013 500 3803 
L 500 4441 
Q 881 4594 1212 4672 
Q 1544 4750 1819 4750 
Q 2544 4750 2975 4387 
Q 3406 4025 3406 3419 
Q 3406 3131 3298 2873 
Q 3191 2616 2906 2266 
Q 2828 2175 2409 1742 
Q 1991 1309 1228 531 
z
" id="DejaVuSans-32" transform="scale(0.015625)"/>
       </defs>
       <use xlink:href="#DejaVuSans-32"/>
      </g>
     </g>
    </g>
    <g id="xtick_4">
     <g id="line2d_4">
      <g>
       <use style="stroke:#000000;stroke-width:0.8;" x="297.2875" xlink:href="#mce820f6435" y="242.44"/>
      </g>
     </g>
     <g id="text_4">
      <!-- 3 -->
      <g transform="translate(294.10625 257.038437)scale(0.1 -0.1)">
       <defs>
        <path d="M 2597 2516 
Q 3050 2419 3304 2112 
Q 3559 1806 3559 1356 
Q 3559 666 3084 287 
Q 2609 -91 1734 -91 
Q 1441 -91 1130 -33 
Q 819 25 488 141 
L 488 750 
Q 750 597 1062 519 
Q 1375 441 1716 441 
Q 2309 441 2620 675 
Q 2931 909 2931 1356 
Q 2931 1769 2642 2001 
Q 2353 2234 1838 2234 
L 1294 2234 
L 1294 2753 
L 1863 2753 
Q 2328 2753 2575 2939 
Q 2822 3125 2822 3475 
Q 2822 3834 2567 4026 
Q 2313 4219 1838 4219 
Q 1578 4219 1281 4162 
Q 984 4106 628 3988 
L 628 4550 
Q 988 4650 1302 4700 
Q 1616 4750 1894 4750 
Q 2613 4750 3031 4423 
Q 3450 4097 3450 3541 
Q 3450 3153 3228 2886 
Q 3006 2619 2597 2516 
z
" id="DejaVuSans-33" transform="scale(0.015625)"/>
       </defs>
       <use xlink:href="#DejaVuSans-33"/>
      </g>
     </g>
    </g>
    <g id="xtick_5">
     <g id="line2d_5">
      <g>
       <use style="stroke:#000000;stroke-width:0.8;" x="372.6025" xlink:href="#mce820f6435" y="242.44"/>
      </g>
     </g>
     <g id="text_5">
      <!-- 4 -->
      <g transform="translate(369.42125 257.038437)scale(0.1 -0.1)">
       <defs>
        <path d="M 2419 4116 
L 825 1625 
L 2419 1625 
L 2419 4116 
z
M 2253 4666 
L 3047 4666 
L 3047 1625 
L 3713 1625 
L 3713 1100 
L 3047 1100 
L 3047 0 
L 2419 0 
L 2419 1100 
L 313 1100 
L 313 1709 
L 2253 4666 
z
" id="DejaVuSans-34" transform="scale(0.015625)"/>
       </defs>
       <use xlink:href="#DejaVuSans-34"/>
      </g>
     </g>
    </g>
    <g id="xtick_6">
     <g id="line2d_6">
      <g>
       <use style="stroke:#000000;stroke-width:0.8;" x="447.9175" xlink:href="#mce820f6435" y="242.44"/>
      </g>
     </g>
     <g id="text_6">
      <!-- 5 -->
      <g transform="translate(444.73625 257.038437)scale(0.1 -0.1)">
       <defs>
        <path d="M 691 4666 
L 3169 4666 
L 3169 4134 
L 1269 4134 
L 1269 2991 
Q 1406 3038 1543 3061 
Q 1681 3084 1819 3084 
Q 2600 3084 3056 2656 
Q 3513 2228 3513 1497 
Q 3513 744 3044 326 
Q 2575 -91 1722 -91 
Q 1428 -91 1123 -41 
Q 819 9 494 109 
L 494 744 
Q 775 591 1075 516 
Q 1375 441 1709 441 
Q 2250 441 2565 725 
Q 2881 1009 2881 1497 
Q 2881 1984 2565 2268 
Q 2250 2553 1709 2553 
Q 1456 2553 1204 2497 
Q 953 2441 691 2322 
L 691 4666 
z
" id="DejaVuSans-35" transform="scale(0.015625)"/>
       </defs>
       <use xlink:href="#DejaVuSans-35"/>
      </g>
     </g>
    </g>
    <g id="text_7">
     <!-- Number of replays per trial -->
     <g transform="translate(164.938594 273.755937)scale(0.14 -0.14)">
      <defs>
       <path d="M 628 4666 
L 1478 4666 
L 3547 763 
L 3547 4666 
L 4159 4666 
L 4159 0 
L 3309 0 
L 1241 3903 
L 1241 0 
L 628 0 
L 628 4666 
z
" id="DejaVuSans-4e" transform="scale(0.015625)"/>
       <path d="M 544 1381 
L 544 3500 
L 1119 3500 
L 1119 1403 
Q 1119 906 1312 657 
Q 1506 409 1894 409 
Q 2359 409 2629 706 
Q 2900 1003 2900 1516 
L 2900 3500 
L 3475 3500 
L 3475 0 
L 2900 0 
L 2900 538 
Q 2691 219 2414 64 
Q 2138 -91 1772 -91 
Q 1169 -91 856 284 
Q 544 659 544 1381 
z
M 1991 3584 
L 1991 3584 
z
" id="DejaVuSans-75" transform="scale(0.015625)"/>
       <path d="M 3328 2828 
Q 3544 3216 3844 3400 
Q 4144 3584 4550 3584 
Q 5097 3584 5394 3201 
Q 5691 2819 5691 2113 
L 5691 0 
L 5113 0 
L 5113 2094 
Q 5113 2597 4934 2840 
Q 4756 3084 4391 3084 
Q 3944 3084 3684 2787 
Q 3425 2491 3425 1978 
L 3425 0 
L 2847 0 
L 2847 2094 
Q 2847 2600 2669 2842 
Q 2491 3084 2119 3084 
Q 1678 3084 1418 2786 
Q 1159 2488 1159 1978 
L 1159 0 
L 581 0 
L 581 3500 
L 1159 3500 
L 1159 2956 
Q 1356 3278 1631 3431 
Q 1906 3584 2284 3584 
Q 2666 3584 2933 3390 
Q 3200 3197 3328 2828 
z
" id="DejaVuSans-6d" transform="scale(0.015625)"/>
       <path d="M 3116 1747 
Q 3116 2381 2855 2742 
Q 2594 3103 2138 3103 
Q 1681 3103 1420 2742 
Q 1159 2381 1159 1747 
Q 1159 1113 1420 752 
Q 1681 391 2138 391 
Q 2594 391 2855 752 
Q 3116 1113 3116 1747 
z
M 1159 2969 
Q 1341 3281 1617 3432 
Q 1894 3584 2278 3584 
Q 2916 3584 3314 3078 
Q 3713 2572 3713 1747 
Q 3713 922 3314 415 
Q 2916 -91 2278 -91 
Q 1894 -91 1617 61 
Q 1341 213 1159 525 
L 1159 0 
L 581 0 
L 581 4863 
L 1159 4863 
L 1159 2969 
z
" id="DejaVuSans-62" transform="scale(0.015625)"/>
       <path d="M 3597 1894 
L 3597 1613 
L 953 1613 
Q 991 1019 1311 708 
Q 1631 397 2203 397 
Q 2534 397 2845 478 
Q 3156 559 3463 722 
L 3463 178 
Q 3153 47 2828 -22 
Q 2503 -91 2169 -91 
Q 1331 -91 842 396 
Q 353 884 353 1716 
Q 353 2575 817 3079 
Q 1281 3584 2069 3584 
Q 2775 3584 3186 3129 
Q 3597 2675 3597 1894 
z
M 3022 2063 
Q 3016 2534 2758 2815 
Q 2500 3097 2075 3097 
Q 1594 3097 1305 2825 
Q 1016 2553 972 2059 
L 3022 2063 
z
" id="DejaVuSans-65" transform="scale(0.015625)"/>
       <path d="M 2631 2963 
Q 2534 3019 2420 3045 
Q 2306 3072 2169 3072 
Q 1681 3072 1420 2755 
Q 1159 2438 1159 1844 
L 1159 0 
L 581 0 
L 581 3500 
L 1159 3500 
L 1159 2956 
Q 1341 3275 1631 3429 
Q 1922 3584 2338 3584 
Q 2397 3584 2469 3576 
Q 2541 3569 2628 3553 
L 2631 2963 
z
" id="DejaVuSans-72" transform="scale(0.015625)"/>
       <path id="DejaVuSans-20" transform="scale(0.015625)"/>
       <path d="M 1959 3097 
Q 1497 3097 1228 2736 
Q 959 2375 959 1747 
Q 959 1119 1226 758 
Q 1494 397 1959 397 
Q 2419 397 2687 759 
Q 2956 1122 2956 1747 
Q 2956 2369 2687 2733 
Q 2419 3097 1959 3097 
z
M 1959 3584 
Q 2709 3584 3137 3096 
Q 3566 2609 3566 1747 
Q 3566 888 3137 398 
Q 2709 -91 1959 -91 
Q 1206 -91 779 398 
Q 353 888 353 1747 
Q 353 2609 779 3096 
Q 1206 3584 1959 3584 
z
" id="DejaVuSans-6f" transform="scale(0.015625)"/>
       <path d="M 2375 4863 
L 2375 4384 
L 1825 4384 
Q 1516 4384 1395 4259 
Q 1275 4134 1275 3809 
L 1275 3500 
L 2222 3500 
L 2222 3053 
L 1275 3053 
L 1275 0 
L 697 0 
L 697 3053 
L 147 3053 
L 147 3500 
L 697 3500 
L 697 3744 
Q 697 4328 969 4595 
Q 1241 4863 1831 4863 
L 2375 4863 
z
" id="DejaVuSans-66" transform="scale(0.015625)"/>
       <path d="M 1159 525 
L 1159 -1331 
L 581 -1331 
L 581 3500 
L 1159 3500 
L 1159 2969 
Q 1341 3281 1617 3432 
Q 1894 3584 2278 3584 
Q 2916 3584 3314 3078 
Q 3713 2572 3713 1747 
Q 3713 922 3314 415 
Q 2916 -91 2278 -91 
Q 1894 -91 1617 61 
Q 1341 213 1159 525 
z
M 3116 1747 
Q 3116 2381 2855 2742 
Q 2594 3103 2138 3103 
Q 1681 3103 1420 2742 
Q 1159 2381 1159 1747 
Q 1159 1113 1420 752 
Q 1681 391 2138 391 
Q 2594 391 2855 752 
Q 3116 1113 3116 1747 
z
" id="DejaVuSans-70" transform="scale(0.015625)"/>
       <path d="M 603 4863 
L 1178 4863 
L 1178 0 
L 603 0 
L 603 4863 
z
" id="DejaVuSans-6c" transform="scale(0.015625)"/>
       <path d="M 2194 1759 
Q 1497 1759 1228 1600 
Q 959 1441 959 1056 
Q 959 750 1161 570 
Q 1363 391 1709 391 
Q 2188 391 2477 730 
Q 2766 1069 2766 1631 
L 2766 1759 
L 2194 1759 
z
M 3341 1997 
L 3341 0 
L 2766 0 
L 2766 531 
Q 2569 213 2275 61 
Q 1981 -91 1556 -91 
Q 1019 -91 701 211 
Q 384 513 384 1019 
Q 384 1609 779 1909 
Q 1175 2209 1959 2209 
L 2766 2209 
L 2766 2266 
Q 2766 2663 2505 2880 
Q 2244 3097 1772 3097 
Q 1472 3097 1187 3025 
Q 903 2953 641 2809 
L 641 3341 
Q 956 3463 1253 3523 
Q 1550 3584 1831 3584 
Q 2591 3584 2966 3190 
Q 3341 2797 3341 1997 
z
" id="DejaVuSans-61" transform="scale(0.015625)"/>
       <path d="M 2059 -325 
Q 1816 -950 1584 -1140 
Q 1353 -1331 966 -1331 
L 506 -1331 
L 506 -850 
L 844 -850 
Q 1081 -850 1212 -737 
Q 1344 -625 1503 -206 
L 1606 56 
L 191 3500 
L 800 3500 
L 1894 763 
L 2988 3500 
L 3597 3500 
L 2059 -325 
z
" id="DejaVuSans-79" transform="scale(0.015625)"/>
       <path d="M 2834 3397 
L 2834 2853 
Q 2591 2978 2328 3040 
Q 2066 3103 1784 3103 
Q 1356 3103 1142 2972 
Q 928 2841 928 2578 
Q 928 2378 1081 2264 
Q 1234 2150 1697 2047 
L 1894 2003 
Q 2506 1872 2764 1633 
Q 3022 1394 3022 966 
Q 3022 478 2636 193 
Q 2250 -91 1575 -91 
Q 1294 -91 989 -36 
Q 684 19 347 128 
L 347 722 
Q 666 556 975 473 
Q 1284 391 1588 391 
Q 1994 391 2212 530 
Q 2431 669 2431 922 
Q 2431 1156 2273 1281 
Q 2116 1406 1581 1522 
L 1381 1569 
Q 847 1681 609 1914 
Q 372 2147 372 2553 
Q 372 3047 722 3315 
Q 1072 3584 1716 3584 
Q 2034 3584 2315 3537 
Q 2597 3491 2834 3397 
z
" id="DejaVuSans-73" transform="scale(0.015625)"/>
       <path d="M 1172 4494 
L 1172 3500 
L 2356 3500 
L 2356 3053 
L 1172 3053 
L 1172 1153 
Q 1172 725 1289 603 
Q 1406 481 1766 481 
L 2356 481 
L 2356 0 
L 1766 0 
Q 1100 0 847 248 
Q 594 497 594 1153 
L 594 3053 
L 172 3053 
L 172 3500 
L 594 3500 
L 594 4494 
L 1172 4494 
z
" id="DejaVuSans-74" transform="scale(0.015625)"/>
       <path d="M 603 3500 
L 1178 3500 
L 1178 0 
L 603 0 
L 603 3500 
z
M 603 4863 
L 1178 4863 
L 1178 4134 
L 603 4134 
L 603 4863 
z
" id="DejaVuSans-69" transform="scale(0.015625)"/>
      </defs>
      <use xlink:href="#DejaVuSans-4e"/>
      <use x="74.804688" xlink:href="#DejaVuSans-75"/>
      <use x="138.183594" xlink:href="#DejaVuSans-6d"/>
      <use x="235.595703" xlink:href="#DejaVuSans-62"/>
      <use x="299.072266" xlink:href="#DejaVuSans-65"/>
      <use x="360.595703" xlink:href="#DejaVuSans-72"/>
      <use x="401.708984" xlink:href="#DejaVuSans-20"/>
      <use x="433.496094" xlink:href="#DejaVuSans-6f"/>
      <use x="494.677734" xlink:href="#DejaVuSans-66"/>
      <use x="529.882812" xlink:href="#DejaVuSans-20"/>
      <use x="561.669922" xlink:href="#DejaVuSans-72"/>
      <use x="600.533203" xlink:href="#DejaVuSans-65"/>
      <use x="662.056641" xlink:href="#DejaVuSans-70"/>
      <use x="725.533203" xlink:href="#DejaVuSans-6c"/>
      <use x="753.316406" xlink:href="#DejaVuSans-61"/>
      <use x="814.595703" xlink:href="#DejaVuSans-79"/>
      <use x="873.775391" xlink:href="#DejaVuSans-73"/>
      <use x="925.875" xlink:href="#DejaVuSans-20"/>
      <use x="957.662109" xlink:href="#DejaVuSans-70"/>
      <use x="1021.138672" xlink:href="#DejaVuSans-65"/>
      <use x="1082.662109" xlink:href="#DejaVuSans-72"/>
      <use x="1123.775391" xlink:href="#DejaVuSans-20"/>
      <use x="1155.5625" xlink:href="#DejaVuSans-74"/>
      <use x="1194.771484" xlink:href="#DejaVuSans-72"/>
      <use x="1235.884766" xlink:href="#DejaVuSans-69"/>
      <use x="1263.667969" xlink:href="#DejaVuSans-61"/>
      <use x="1324.947266" xlink:href="#DejaVuSans-6c"/>
     </g>
    </g>
   </g>
   <g id="matplotlib.axis_2">
    <g id="ytick_1">
     <g id="line2d_7">
      <defs>
       <path d="M 0 0 
L -3.5 0 
" id="mdf0ada4410" style="stroke:#000000;stroke-width:0.8;"/>
      </defs>
      <g>
       <use style="stroke:#000000;stroke-width:0.8;" x="33.685" xlink:href="#mdf0ada4410" y="242.44"/>
      </g>
     </g>
     <g id="text_8">
      <!-- 0.0 -->
      <g transform="translate(10.781875 246.239219)scale(0.1 -0.1)">
       <defs>
        <path d="M 684 794 
L 1344 794 
L 1344 0 
L 684 0 
L 684 794 
z
" id="DejaVuSans-2e" transform="scale(0.015625)"/>
       </defs>
       <use xlink:href="#DejaVuSans-30"/>
       <use x="63.623047" xlink:href="#DejaVuSans-2e"/>
       <use x="95.410156" xlink:href="#DejaVuSans-30"/>
      </g>
     </g>
    </g>
    <g id="ytick_2">
     <g id="line2d_8">
      <g>
       <use style="stroke:#000000;stroke-width:0.8;" x="33.685" xlink:href="#mdf0ada4410" y="202.329177"/>
      </g>
     </g>
     <g id="text_9">
      <!-- 0.1 -->
      <g transform="translate(10.781875 206.128396)scale(0.1 -0.1)">
       <use xlink:href="#DejaVuSans-30"/>
       <use x="63.623047" xlink:href="#DejaVuSans-2e"/>
       <use x="95.410156" xlink:href="#DejaVuSans-31"/>
      </g>
     </g>
    </g>
    <g id="ytick_3">
     <g id="line2d_9">
      <g>
       <use style="stroke:#000000;stroke-width:0.8;" x="33.685" xlink:href="#mdf0ada4410" y="162.218355"/>
      </g>
     </g>
     <g id="text_10">
      <!-- 0.2 -->
      <g transform="translate(10.781875 166.017574)scale(0.1 -0.1)">
       <use xlink:href="#DejaVuSans-30"/>
       <use x="63.623047" xlink:href="#DejaVuSans-2e"/>
       <use x="95.410156" xlink:href="#DejaVuSans-32"/>
      </g>
     </g>
    </g>
    <g id="ytick_4">
     <g id="line2d_10">
      <g>
       <use style="stroke:#000000;stroke-width:0.8;" x="33.685" xlink:href="#mdf0ada4410" y="122.107532"/>
      </g>
     </g>
     <g id="text_11">
      <!-- 0.3 -->
      <g transform="translate(10.781875 125.906751)scale(0.1 -0.1)">
       <use xlink:href="#DejaVuSans-30"/>
       <use x="63.623047" xlink:href="#DejaVuSans-2e"/>
       <use x="95.410156" xlink:href="#DejaVuSans-33"/>
      </g>
     </g>
    </g>
    <g id="ytick_5">
     <g id="line2d_11">
      <g>
       <use style="stroke:#000000;stroke-width:0.8;" x="33.685" xlink:href="#mdf0ada4410" y="81.99671"/>
      </g>
     </g>
     <g id="text_12">
      <!-- 0.4 -->
      <g transform="translate(10.781875 85.795929)scale(0.1 -0.1)">
       <use xlink:href="#DejaVuSans-30"/>
       <use x="63.623047" xlink:href="#DejaVuSans-2e"/>
       <use x="95.410156" xlink:href="#DejaVuSans-34"/>
      </g>
     </g>
    </g>
    <g id="ytick_6">
     <g id="line2d_12">
      <g>
       <use style="stroke:#000000;stroke-width:0.8;" x="33.685" xlink:href="#mdf0ada4410" y="41.885887"/>
      </g>
     </g>
     <g id="text_13">
      <!-- 0.5 -->
      <g transform="translate(10.781875 45.685106)scale(0.1 -0.1)">
       <use xlink:href="#DejaVuSans-30"/>
       <use x="63.623047" xlink:href="#DejaVuSans-2e"/>
       <use x="95.410156" xlink:href="#DejaVuSans-35"/>
      </g>
     </g>
    </g>
   </g>
   <g id="patch_12">
    <path d="M 33.685 242.44 
L 33.685 10.8 
" style="fill:none;stroke:#000000;stroke-linecap:square;stroke-linejoin:miter;stroke-width:0.8;"/>
   </g>
   <g id="patch_13">
    <path d="M 485.575 242.44 
L 485.575 10.8 
" style="fill:none;stroke:#000000;stroke-linecap:square;stroke-linejoin:miter;stroke-width:0.8;"/>
   </g>
   <g id="patch_14">
    <path d="M 33.685 242.44 
L 485.575 242.44 
" style="fill:none;stroke:#000000;stroke-linecap:square;stroke-linejoin:miter;stroke-width:0.8;"/>
   </g>
   <g id="patch_15">
    <path d="M 33.685 10.8 
L 485.575 10.8 
" style="fill:none;stroke:#000000;stroke-linecap:square;stroke-linejoin:miter;stroke-width:0.8;"/>
   </g>
  </g>
  <g id="axes_2">
   <g id="patch_16">
    <path d="M 545.31 242.44 
L 997.2 242.44 
L 997.2 10.8 
L 545.31 10.8 
z
" style="fill:none;"/>
   </g>
   <g id="patch_17">
    <path clip-path="url(#pd8983463db)" d="M 545.31 126.62 
L 556.896923 126.62 
L 556.896923 126.62 
L 545.31 126.62 
z
" style="fill:#0000ff;"/>
   </g>
   <g id="patch_18">
    <path clip-path="url(#pd8983463db)" d="M 556.896923 126.62 
L 568.483846 126.62 
L 568.483846 126.560411 
L 556.896923 126.560411 
z
" style="fill:#0000ff;"/>
   </g>
   <g id="patch_19">
    <path clip-path="url(#pd8983463db)" d="M 568.483846 126.62 
L 580.070769 126.62 
L 580.070769 123.700163 
L 568.483846 123.700163 
z
" style="fill:#0000ff;"/>
   </g>
   <g id="patch_20">
    <path clip-path="url(#pd8983463db)" d="M 580.070769 126.62 
L 591.657692 126.62 
L 591.657692 120.780327 
L 580.070769 120.780327 
z
" style="fill:#0000ff;"/>
   </g>
   <g id="patch_21">
    <path clip-path="url(#pd8983463db)" d="M 591.657692 126.62 
L 603.244615 126.62 
L 603.244615 112.139993 
L 591.657692 112.139993 
z
" style="fill:#0000ff;"/>
   </g>
   <g id="patch_22">
    <path clip-path="url(#pd8983463db)" d="M 603.244615 126.62 
L 614.831538 126.62 
L 614.831538 107.790033 
L 603.244615 107.790033 
z
" style="fill:#0000ff;"/>
   </g>
   <g id="patch_23">
    <path clip-path="url(#pd8983463db)" d="M 614.831538 126.62 
L 626.418462 126.62 
L 626.418462 109.041391 
L 614.831538 109.041391 
z
" style="fill:#0000ff;"/>
   </g>
   <g id="patch_24">
    <path clip-path="url(#pd8983463db)" d="M 626.418462 126.62 
L 638.005385 126.62 
L 638.005385 104.870196 
L 626.418462 104.870196 
z
" style="fill:#0000ff;"/>
   </g>
   <g id="patch_25">
    <path clip-path="url(#pd8983463db)" d="M 638.005385 126.62 
L 649.592308 126.62 
L 649.592308 102.069536 
L 638.005385 102.069536 
z
" style="fill:#0000ff;"/>
   </g>
   <g id="patch_26">
    <path clip-path="url(#pd8983463db)" d="M 649.592308 126.62 
L 661.179231 126.62 
L 661.179231 105.644847 
L 649.592308 105.644847 
z
" style="fill:#0000ff;"/>
   </g>
   <g id="patch_27">
    <path clip-path="url(#pd8983463db)" d="M 661.179231 126.62 
L 672.766154 126.62 
L 672.766154 116.907074 
L 661.179231 116.907074 
z
" style="fill:#0000ff;"/>
   </g>
   <g id="patch_28">
    <path clip-path="url(#pd8983463db)" d="M 672.766154 126.62 
L 684.353077 126.62 
L 684.353077 120.482384 
L 672.766154 120.482384 
z
" style="fill:#0000ff;"/>
   </g>
   <g id="patch_29">
    <path clip-path="url(#pd8983463db)" d="M 684.353077 126.62 
L 695.94 126.62 
L 695.94 116.549543 
L 684.353077 116.549543 
z
" style="fill:#0000ff;"/>
   </g>
   <g id="patch_30">
    <path clip-path="url(#pd8983463db)" d="M 695.94 126.62 
L 707.526923 126.62 
L 707.526923 112.855056 
L 695.94 112.855056 
z
" style="fill:#0000ff;"/>
   </g>
   <g id="patch_31">
    <path clip-path="url(#pd8983463db)" d="M 707.526923 126.62 
L 719.113846 126.62 
L 719.113846 106.002378 
L 707.526923 106.002378 
z
" style="fill:#0000ff;"/>
   </g>
   <g id="patch_32">
    <path clip-path="url(#pd8983463db)" d="M 719.113846 126.62 
L 730.700769 126.62 
L 730.700769 97.362044 
L 719.113846 97.362044 
z
" style="fill:#0000ff;"/>
   </g>
   <g id="patch_33">
    <path clip-path="url(#pd8983463db)" d="M 730.700769 126.62 
L 742.287692 126.62 
L 742.287692 95.753155 
L 730.700769 95.753155 
z
" style="fill:#0000ff;"/>
   </g>
   <g id="patch_34">
    <path clip-path="url(#pd8983463db)" d="M 742.287692 126.62 
L 753.874615 126.62 
L 753.874615 110.233161 
L 742.287692 110.233161 
z
" style="fill:#0000ff;"/>
   </g>
   <g id="patch_35">
    <path clip-path="url(#pd8983463db)" d="M 753.874615 126.62 
L 765.461538 126.62 
L 765.461538 113.570118 
L 753.874615 113.570118 
z
" style="fill:#0000ff;"/>
   </g>
   <g id="patch_36">
    <path clip-path="url(#pd8983463db)" d="M 765.461538 126.62 
L 777.048462 126.62 
L 777.048462 106.419497 
L 765.461538 106.419497 
z
" style="fill:#0000ff;"/>
   </g>
   <g id="patch_37">
    <path clip-path="url(#pd8983463db)" d="M 777.048462 126.62 
L 788.635385 126.62 
L 788.635385 56.961039 
L 777.048462 56.961039 
z
" style="fill:#0000ff;"/>
   </g>
   <g id="patch_38">
    <path clip-path="url(#pd8983463db)" d="M 788.635385 126.62 
L 800.222308 126.62 
L 800.222308 126.62 
L 788.635385 126.62 
z
" style="fill:#0000ff;"/>
   </g>
   <g id="patch_39">
    <path clip-path="url(#pd8983463db)" d="M 800.222308 126.62 
L 811.809231 126.62 
L 811.809231 126.62 
L 800.222308 126.62 
z
" style="fill:#0000ff;"/>
   </g>
   <g id="patch_40">
    <path clip-path="url(#pd8983463db)" d="M 811.809231 126.62 
L 823.396154 126.62 
L 823.396154 126.62 
L 811.809231 126.62 
z
" style="fill:#0000ff;"/>
   </g>
   <g id="patch_41">
    <path clip-path="url(#pd8983463db)" d="M 823.396154 126.62 
L 834.983077 126.62 
L 834.983077 126.62 
L 823.396154 126.62 
z
" style="fill:#0000ff;"/>
   </g>
   <g id="patch_42">
    <path clip-path="url(#pd8983463db)" d="M 834.983077 126.62 
L 846.57 126.62 
L 846.57 126.62 
L 834.983077 126.62 
z
" style="fill:#0000ff;"/>
   </g>
   <g id="patch_43">
    <path clip-path="url(#pd8983463db)" d="M 846.57 126.62 
L 858.156923 126.62 
L 858.156923 126.62 
L 846.57 126.62 
z
" style="fill:#0000ff;"/>
   </g>
   <g id="patch_44">
    <path clip-path="url(#pd8983463db)" d="M 858.156923 126.62 
L 869.743846 126.62 
L 869.743846 126.62 
L 858.156923 126.62 
z
" style="fill:#0000ff;"/>
   </g>
   <g id="patch_45">
    <path clip-path="url(#pd8983463db)" d="M 869.743846 126.62 
L 881.330769 126.62 
L 881.330769 126.62 
L 869.743846 126.62 
z
" style="fill:#0000ff;"/>
   </g>
   <g id="patch_46">
    <path clip-path="url(#pd8983463db)" d="M 881.330769 126.62 
L 892.917692 126.62 
L 892.917692 126.62 
L 881.330769 126.62 
z
" style="fill:#0000ff;"/>
   </g>
   <g id="patch_47">
    <path clip-path="url(#pd8983463db)" d="M 892.917692 126.62 
L 904.504615 126.62 
L 904.504615 126.62 
L 892.917692 126.62 
z
" style="fill:#0000ff;"/>
   </g>
   <g id="patch_48">
    <path clip-path="url(#pd8983463db)" d="M 904.504615 126.62 
L 916.091538 126.62 
L 916.091538 126.62 
L 904.504615 126.62 
z
" style="fill:#0000ff;"/>
   </g>
   <g id="patch_49">
    <path clip-path="url(#pd8983463db)" d="M 916.091538 126.62 
L 927.678462 126.62 
L 927.678462 126.62 
L 916.091538 126.62 
z
" style="fill:#0000ff;"/>
   </g>
   <g id="patch_50">
    <path clip-path="url(#pd8983463db)" d="M 927.678462 126.62 
L 939.265385 126.62 
L 939.265385 126.62 
L 927.678462 126.62 
z
" style="fill:#0000ff;"/>
   </g>
   <g id="patch_51">
    <path clip-path="url(#pd8983463db)" d="M 939.265385 126.62 
L 950.852308 126.62 
L 950.852308 126.62 
L 939.265385 126.62 
z
" style="fill:#0000ff;"/>
   </g>
   <g id="patch_52">
    <path clip-path="url(#pd8983463db)" d="M 950.852308 126.62 
L 962.439231 126.62 
L 962.439231 126.62 
L 950.852308 126.62 
z
" style="fill:#0000ff;"/>
   </g>
   <g id="patch_53">
    <path clip-path="url(#pd8983463db)" d="M 962.439231 126.62 
L 974.026154 126.62 
L 974.026154 126.62 
L 962.439231 126.62 
z
" style="fill:#0000ff;"/>
   </g>
   <g id="patch_54">
    <path clip-path="url(#pd8983463db)" d="M 974.026154 126.62 
L 985.613077 126.62 
L 985.613077 126.62 
L 974.026154 126.62 
z
" style="fill:#0000ff;"/>
   </g>
   <g id="patch_55">
    <path clip-path="url(#pd8983463db)" d="M 985.613077 126.62 
L 997.2 126.62 
L 997.2 126.62 
L 985.613077 126.62 
z
" style="fill:#0000ff;"/>
   </g>
   <g id="patch_56">
    <path clip-path="url(#pd8983463db)" d="M 545.31 126.62 
L 556.896923 126.62 
L 556.896923 126.62 
L 545.31 126.62 
z
" style="fill:#ffa500;opacity:0.8;"/>
   </g>
   <g id="patch_57">
    <path clip-path="url(#pd8983463db)" d="M 556.896923 126.62 
L 568.483846 126.62 
L 568.483846 126.23092 
L 556.896923 126.23092 
z
" style="fill:#ffa500;opacity:0.8;"/>
   </g>
   <g id="patch_58">
    <path clip-path="url(#pd8983463db)" d="M 568.483846 126.62 
L 580.070769 126.62 
L 580.070769 121.367424 
L 568.483846 121.367424 
z
" style="fill:#ffa500;opacity:0.8;"/>
   </g>
   <g id="patch_59">
    <path clip-path="url(#pd8983463db)" d="M 580.070769 126.62 
L 591.657692 126.62 
L 591.657692 116.698467 
L 580.070769 116.698467 
z
" style="fill:#ffa500;opacity:0.8;"/>
   </g>
   <g id="patch_60">
    <path clip-path="url(#pd8983463db)" d="M 591.657692 126.62 
L 603.244615 126.62 
L 603.244615 115.336688 
L 591.657692 115.336688 
z
" style="fill:#ffa500;opacity:0.8;"/>
   </g>
   <g id="patch_61">
    <path clip-path="url(#pd8983463db)" d="M 603.244615 126.62 
L 614.831538 126.62 
L 614.831538 111.25135 
L 603.244615 111.25135 
z
" style="fill:#ffa500;opacity:0.8;"/>
   </g>
   <g id="patch_62">
    <path clip-path="url(#pd8983463db)" d="M 614.831538 126.62 
L 626.418462 126.62 
L 626.418462 97.633559 
L 614.831538 97.633559 
z
" style="fill:#ffa500;opacity:0.8;"/>
   </g>
   <g id="patch_63">
    <path clip-path="url(#pd8983463db)" d="M 626.418462 126.62 
L 638.005385 126.62 
L 638.005385 101.718897 
L 626.418462 101.718897 
z
" style="fill:#ffa500;opacity:0.8;"/>
   </g>
   <g id="patch_64">
    <path clip-path="url(#pd8983463db)" d="M 638.005385 126.62 
L 649.592308 126.62 
L 649.592308 112.22405 
L 638.005385 112.22405 
z
" style="fill:#ffa500;opacity:0.8;"/>
   </g>
   <g id="patch_65">
    <path clip-path="url(#pd8983463db)" d="M 649.592308 126.62 
L 661.179231 126.62 
L 661.179231 107.360553 
L 649.592308 107.360553 
z
" style="fill:#ffa500;opacity:0.8;"/>
   </g>
   <g id="patch_66">
    <path clip-path="url(#pd8983463db)" d="M 661.179231 126.62 
L 672.766154 126.62 
L 672.766154 112.807669 
L 661.179231 112.807669 
z
" style="fill:#ffa500;opacity:0.8;"/>
   </g>
   <g id="patch_67">
    <path clip-path="url(#pd8983463db)" d="M 672.766154 126.62 
L 684.353077 126.62 
L 684.353077 119.422025 
L 672.766154 119.422025 
z
" style="fill:#ffa500;opacity:0.8;"/>
   </g>
   <g id="patch_68">
    <path clip-path="url(#pd8983463db)" d="M 684.353077 126.62 
L 695.94 126.62 
L 695.94 112.22405 
L 684.353077 112.22405 
z
" style="fill:#ffa500;opacity:0.8;"/>
   </g>
   <g id="patch_69">
    <path clip-path="url(#pd8983463db)" d="M 695.94 126.62 
L 707.526923 126.62 
L 707.526923 104.053375 
L 695.94 104.053375 
z
" style="fill:#ffa500;opacity:0.8;"/>
   </g>
   <g id="patch_70">
    <path clip-path="url(#pd8983463db)" d="M 707.526923 126.62 
L 719.113846 126.62 
L 719.113846 93.353682 
L 707.526923 93.353682 
z
" style="fill:#ffa500;opacity:0.8;"/>
   </g>
   <g id="patch_71">
    <path clip-path="url(#pd8983463db)" d="M 719.113846 126.62 
L 730.700769 126.62 
L 730.700769 95.104541 
L 719.113846 95.104541 
z
" style="fill:#ffa500;opacity:0.8;"/>
   </g>
   <g id="patch_72">
    <path clip-path="url(#pd8983463db)" d="M 730.700769 126.62 
L 742.287692 126.62 
L 742.287692 92.575523 
L 730.700769 92.575523 
z
" style="fill:#ffa500;opacity:0.8;"/>
   </g>
   <g id="patch_73">
    <path clip-path="url(#pd8983463db)" d="M 742.287692 126.62 
L 753.874615 126.62 
L 753.874615 109.889571 
L 742.287692 109.889571 
z
" style="fill:#ffa500;opacity:0.8;"/>
   </g>
   <g id="patch_74">
    <path clip-path="url(#pd8983463db)" d="M 753.874615 126.62 
L 765.461538 126.62 
L 765.461538 123.507362 
L 753.874615 123.507362 
z
" style="fill:#ffa500;opacity:0.8;"/>
   </g>
   <g id="patch_75">
    <path clip-path="url(#pd8983463db)" d="M 765.461538 126.62 
L 777.048462 126.62 
L 777.048462 122.534663 
L 765.461538 122.534663 
z
" style="fill:#ffa500;opacity:0.8;"/>
   </g>
   <g id="patch_76">
    <path clip-path="url(#pd8983463db)" d="M 777.048462 126.62 
L 788.635385 126.62 
L 788.635385 70.397978 
L 777.048462 70.397978 
z
" style="fill:#ffa500;opacity:0.8;"/>
   </g>
   <g id="patch_77">
    <path clip-path="url(#pd8983463db)" d="M 788.635385 126.62 
L 800.222308 126.62 
L 800.222308 126.62 
L 788.635385 126.62 
z
" style="fill:#ffa500;opacity:0.8;"/>
   </g>
   <g id="patch_78">
    <path clip-path="url(#pd8983463db)" d="M 800.222308 126.62 
L 811.809231 126.62 
L 811.809231 126.62 
L 800.222308 126.62 
z
" style="fill:#ffa500;opacity:0.8;"/>
   </g>
   <g id="patch_79">
    <path clip-path="url(#pd8983463db)" d="M 811.809231 126.62 
L 823.396154 126.62 
L 823.396154 126.62 
L 811.809231 126.62 
z
" style="fill:#ffa500;opacity:0.8;"/>
   </g>
   <g id="patch_80">
    <path clip-path="url(#pd8983463db)" d="M 823.396154 126.62 
L 834.983077 126.62 
L 834.983077 126.62 
L 823.396154 126.62 
z
" style="fill:#ffa500;opacity:0.8;"/>
   </g>
   <g id="patch_81">
    <path clip-path="url(#pd8983463db)" d="M 834.983077 126.62 
L 846.57 126.62 
L 846.57 126.62 
L 834.983077 126.62 
z
" style="fill:#ffa500;opacity:0.8;"/>
   </g>
   <g id="patch_82">
    <path clip-path="url(#pd8983463db)" d="M 846.57 126.62 
L 858.156923 126.62 
L 858.156923 126.62 
L 846.57 126.62 
z
" style="fill:#ffa500;opacity:0.8;"/>
   </g>
   <g id="patch_83">
    <path clip-path="url(#pd8983463db)" d="M 858.156923 126.62 
L 869.743846 126.62 
L 869.743846 126.62 
L 858.156923 126.62 
z
" style="fill:#ffa500;opacity:0.8;"/>
   </g>
   <g id="patch_84">
    <path clip-path="url(#pd8983463db)" d="M 869.743846 126.62 
L 881.330769 126.62 
L 881.330769 126.62 
L 869.743846 126.62 
z
" style="fill:#ffa500;opacity:0.8;"/>
   </g>
   <g id="patch_85">
    <path clip-path="url(#pd8983463db)" d="M 881.330769 126.62 
L 892.917692 126.62 
L 892.917692 126.62 
L 881.330769 126.62 
z
" style="fill:#ffa500;opacity:0.8;"/>
   </g>
   <g id="patch_86">
    <path clip-path="url(#pd8983463db)" d="M 892.917692 126.62 
L 904.504615 126.62 
L 904.504615 126.62 
L 892.917692 126.62 
z
" style="fill:#ffa500;opacity:0.8;"/>
   </g>
   <g id="patch_87">
    <path clip-path="url(#pd8983463db)" d="M 904.504615 126.62 
L 916.091538 126.62 
L 916.091538 126.62 
L 904.504615 126.62 
z
" style="fill:#ffa500;opacity:0.8;"/>
   </g>
   <g id="patch_88">
    <path clip-path="url(#pd8983463db)" d="M 916.091538 126.62 
L 927.678462 126.62 
L 927.678462 126.62 
L 916.091538 126.62 
z
" style="fill:#ffa500;opacity:0.8;"/>
   </g>
   <g id="patch_89">
    <path clip-path="url(#pd8983463db)" d="M 927.678462 126.62 
L 939.265385 126.62 
L 939.265385 126.62 
L 927.678462 126.62 
z
" style="fill:#ffa500;opacity:0.8;"/>
   </g>
   <g id="patch_90">
    <path clip-path="url(#pd8983463db)" d="M 939.265385 126.62 
L 950.852308 126.62 
L 950.852308 126.62 
L 939.265385 126.62 
z
" style="fill:#ffa500;opacity:0.8;"/>
   </g>
   <g id="patch_91">
    <path clip-path="url(#pd8983463db)" d="M 950.852308 126.62 
L 962.439231 126.62 
L 962.439231 126.62 
L 950.852308 126.62 
z
" style="fill:#ffa500;opacity:0.8;"/>
   </g>
   <g id="patch_92">
    <path clip-path="url(#pd8983463db)" d="M 962.439231 126.62 
L 974.026154 126.62 
L 974.026154 126.62 
L 962.439231 126.62 
z
" style="fill:#ffa500;opacity:0.8;"/>
   </g>
   <g id="patch_93">
    <path clip-path="url(#pd8983463db)" d="M 974.026154 126.62 
L 985.613077 126.62 
L 985.613077 126.62 
L 974.026154 126.62 
z
" style="fill:#ffa500;opacity:0.8;"/>
   </g>
   <g id="patch_94">
    <path clip-path="url(#pd8983463db)" d="M 985.613077 126.62 
L 997.2 126.62 
L 997.2 126.62 
L 985.613077 126.62 
z
" style="fill:#ffa500;opacity:0.8;"/>
   </g>
   <g id="patch_95">
    <path clip-path="url(#pd8983463db)" d="M 545.31 126.62 
L 556.896923 126.62 
L 556.896923 126.62 
L 545.31 126.62 
z
" style="fill:#0000ff;"/>
   </g>
   <g id="patch_96">
    <path clip-path="url(#pd8983463db)" d="M 556.896923 126.62 
L 568.483846 126.62 
L 568.483846 126.62 
L 556.896923 126.62 
z
" style="fill:#0000ff;"/>
   </g>
   <g id="patch_97">
    <path clip-path="url(#pd8983463db)" d="M 568.483846 126.62 
L 580.070769 126.62 
L 580.070769 126.62 
L 568.483846 126.62 
z
" style="fill:#0000ff;"/>
   </g>
   <g id="patch_98">
    <path clip-path="url(#pd8983463db)" d="M 580.070769 126.62 
L 591.657692 126.62 
L 591.657692 126.62 
L 580.070769 126.62 
z
" style="fill:#0000ff;"/>
   </g>
   <g id="patch_99">
    <path clip-path="url(#pd8983463db)" d="M 591.657692 126.62 
L 603.244615 126.62 
L 603.244615 126.876978 
L 591.657692 126.876978 
z
" style="fill:#0000ff;"/>
   </g>
   <g id="patch_100">
    <path clip-path="url(#pd8983463db)" d="M 603.244615 126.62 
L 614.831538 126.62 
L 614.831538 126.62 
L 603.244615 126.62 
z
" style="fill:#0000ff;"/>
   </g>
   <g id="patch_101">
    <path clip-path="url(#pd8983463db)" d="M 614.831538 126.62 
L 626.418462 126.62 
L 626.418462 127.390934 
L 614.831538 127.390934 
z
" style="fill:#0000ff;"/>
   </g>
   <g id="patch_102">
    <path clip-path="url(#pd8983463db)" d="M 626.418462 126.62 
L 638.005385 126.62 
L 638.005385 127.133956 
L 626.418462 127.133956 
z
" style="fill:#0000ff;"/>
   </g>
   <g id="patch_103">
    <path clip-path="url(#pd8983463db)" d="M 638.005385 126.62 
L 649.592308 126.62 
L 649.592308 126.876978 
L 638.005385 126.876978 
z
" style="fill:#0000ff;"/>
   </g>
   <g id="patch_104">
    <path clip-path="url(#pd8983463db)" d="M 649.592308 126.62 
L 661.179231 126.62 
L 661.179231 127.647912 
L 649.592308 127.647912 
z
" style="fill:#0000ff;"/>
   </g>
   <g id="patch_105">
    <path clip-path="url(#pd8983463db)" d="M 661.179231 126.62 
L 672.766154 126.62 
L 672.766154 129.446758 
L 661.179231 129.446758 
z
" style="fill:#0000ff;"/>
   </g>
   <g id="patch_106">
    <path clip-path="url(#pd8983463db)" d="M 672.766154 126.62 
L 684.353077 126.62 
L 684.353077 129.960714 
L 672.766154 129.960714 
z
" style="fill:#0000ff;"/>
   </g>
   <g id="patch_107">
    <path clip-path="url(#pd8983463db)" d="M 684.353077 126.62 
L 695.94 126.62 
L 695.94 136.385165 
L 684.353077 136.385165 
z
" style="fill:#0000ff;"/>
   </g>
   <g id="patch_108">
    <path clip-path="url(#pd8983463db)" d="M 695.94 126.62 
L 707.526923 126.62 
L 707.526923 138.44099 
L 695.94 138.44099 
z
" style="fill:#0000ff;"/>
   </g>
   <g id="patch_109">
    <path clip-path="url(#pd8983463db)" d="M 707.526923 126.62 
L 719.113846 126.62 
L 719.113846 135.614231 
L 707.526923 135.614231 
z
" style="fill:#0000ff;"/>
   </g>
   <g id="patch_110">
    <path clip-path="url(#pd8983463db)" d="M 719.113846 126.62 
L 730.700769 126.62 
L 730.700769 140.753792 
L 719.113846 140.753792 
z
" style="fill:#0000ff;"/>
   </g>
   <g id="patch_111">
    <path clip-path="url(#pd8983463db)" d="M 730.700769 126.62 
L 742.287692 126.62 
L 742.287692 135.357253 
L 730.700769 135.357253 
z
" style="fill:#0000ff;"/>
   </g>
   <g id="patch_112">
    <path clip-path="url(#pd8983463db)" d="M 742.287692 126.62 
L 753.874615 126.62 
L 753.874615 130.731649 
L 742.287692 130.731649 
z
" style="fill:#0000ff;"/>
   </g>
   <g id="patch_113">
    <path clip-path="url(#pd8983463db)" d="M 753.874615 126.62 
L 765.461538 126.62 
L 765.461538 131.502583 
L 753.874615 131.502583 
z
" style="fill:#0000ff;"/>
   </g>
   <g id="patch_114">
    <path clip-path="url(#pd8983463db)" d="M 765.461538 126.62 
L 777.048462 126.62 
L 777.048462 137.413077 
L 765.461538 137.413077 
z
" style="fill:#0000ff;"/>
   </g>
   <g id="patch_115">
    <path clip-path="url(#pd8983463db)" d="M 777.048462 126.62 
L 788.635385 126.62 
L 788.635385 129.446758 
L 777.048462 129.446758 
z
" style="fill:#0000ff;"/>
   </g>
   <g id="patch_116">
    <path clip-path="url(#pd8983463db)" d="M 788.635385 126.62 
L 800.222308 126.62 
L 800.222308 130.988627 
L 788.635385 130.988627 
z
" style="fill:#0000ff;"/>
   </g>
   <g id="patch_117">
    <path clip-path="url(#pd8983463db)" d="M 800.222308 126.62 
L 811.809231 126.62 
L 811.809231 131.759561 
L 800.222308 131.759561 
z
" style="fill:#0000ff;"/>
   </g>
   <g id="patch_118">
    <path clip-path="url(#pd8983463db)" d="M 811.809231 126.62 
L 823.396154 126.62 
L 823.396154 130.474671 
L 811.809231 130.474671 
z
" style="fill:#0000ff;"/>
   </g>
   <g id="patch_119">
    <path clip-path="url(#pd8983463db)" d="M 823.396154 126.62 
L 834.983077 126.62 
L 834.983077 132.273517 
L 823.396154 132.273517 
z
" style="fill:#0000ff;"/>
   </g>
   <g id="patch_120">
    <path clip-path="url(#pd8983463db)" d="M 834.983077 126.62 
L 846.57 126.62 
L 846.57 131.759561 
L 834.983077 131.759561 
z
" style="fill:#0000ff;"/>
   </g>
   <g id="patch_121">
    <path clip-path="url(#pd8983463db)" d="M 846.57 126.62 
L 858.156923 126.62 
L 858.156923 130.474671 
L 846.57 130.474671 
z
" style="fill:#0000ff;"/>
   </g>
   <g id="patch_122">
    <path clip-path="url(#pd8983463db)" d="M 858.156923 126.62 
L 869.743846 126.62 
L 869.743846 136.642143 
L 858.156923 136.642143 
z
" style="fill:#0000ff;"/>
   </g>
   <g id="patch_123">
    <path clip-path="url(#pd8983463db)" d="M 869.743846 126.62 
L 881.330769 126.62 
L 881.330769 135.871209 
L 869.743846 135.871209 
z
" style="fill:#0000ff;"/>
   </g>
   <g id="patch_124">
    <path clip-path="url(#pd8983463db)" d="M 881.330769 126.62 
L 892.917692 126.62 
L 892.917692 133.044451 
L 881.330769 133.044451 
z
" style="fill:#0000ff;"/>
   </g>
   <g id="patch_125">
    <path clip-path="url(#pd8983463db)" d="M 892.917692 126.62 
L 904.504615 126.62 
L 904.504615 141.267748 
L 892.917692 141.267748 
z
" style="fill:#0000ff;"/>
   </g>
   <g id="patch_126">
    <path clip-path="url(#pd8983463db)" d="M 904.504615 126.62 
L 916.091538 126.62 
L 916.091538 155.915496 
L 904.504615 155.915496 
z
" style="fill:#0000ff;"/>
   </g>
   <g id="patch_127">
    <path clip-path="url(#pd8983463db)" d="M 916.091538 126.62 
L 927.678462 126.62 
L 927.678462 158.742254 
L 916.091538 158.742254 
z
" style="fill:#0000ff;"/>
   </g>
   <g id="patch_128">
    <path clip-path="url(#pd8983463db)" d="M 927.678462 126.62 
L 939.265385 126.62 
L 939.265385 136.642143 
L 927.678462 136.642143 
z
" style="fill:#0000ff;"/>
   </g>
   <g id="patch_129">
    <path clip-path="url(#pd8983463db)" d="M 939.265385 126.62 
L 950.852308 126.62 
L 950.852308 137.413077 
L 939.265385 137.413077 
z
" style="fill:#0000ff;"/>
   </g>
   <g id="patch_130">
    <path clip-path="url(#pd8983463db)" d="M 950.852308 126.62 
L 962.439231 126.62 
L 962.439231 135.871209 
L 950.852308 135.871209 
z
" style="fill:#0000ff;"/>
   </g>
   <g id="patch_131">
    <path clip-path="url(#pd8983463db)" d="M 962.439231 126.62 
L 974.026154 126.62 
L 974.026154 150.261979 
L 962.439231 150.261979 
z
" style="fill:#0000ff;"/>
   </g>
   <g id="patch_132">
    <path clip-path="url(#pd8983463db)" d="M 974.026154 126.62 
L 985.613077 126.62 
L 985.613077 145.636375 
L 974.026154 145.636375 
z
" style="fill:#0000ff;"/>
   </g>
   <g id="patch_133">
    <path clip-path="url(#pd8983463db)" d="M 985.613077 126.62 
L 997.2 126.62 
L 997.2 205.769235 
L 985.613077 205.769235 
z
" style="fill:#0000ff;"/>
   </g>
   <g id="patch_134">
    <path clip-path="url(#pd8983463db)" d="M 545.31 126.62 
L 556.896923 126.62 
L 556.896923 126.62 
L 545.31 126.62 
z
" style="fill:#ffa500;opacity:0.8;"/>
   </g>
   <g id="patch_135">
    <path clip-path="url(#pd8983463db)" d="M 556.896923 126.62 
L 568.483846 126.62 
L 568.483846 126.62 
L 556.896923 126.62 
z
" style="fill:#ffa500;opacity:0.8;"/>
   </g>
   <g id="patch_136">
    <path clip-path="url(#pd8983463db)" d="M 568.483846 126.62 
L 580.070769 126.62 
L 580.070769 126.62 
L 568.483846 126.62 
z
" style="fill:#ffa500;opacity:0.8;"/>
   </g>
   <g id="patch_137">
    <path clip-path="url(#pd8983463db)" d="M 580.070769 126.62 
L 591.657692 126.62 
L 591.657692 126.62 
L 580.070769 126.62 
z
" style="fill:#ffa500;opacity:0.8;"/>
   </g>
   <g id="patch_138">
    <path clip-path="url(#pd8983463db)" d="M 591.657692 126.62 
L 603.244615 126.62 
L 603.244615 126.62 
L 591.657692 126.62 
z
" style="fill:#ffa500;opacity:0.8;"/>
   </g>
   <g id="patch_139">
    <path clip-path="url(#pd8983463db)" d="M 603.244615 126.62 
L 614.831538 126.62 
L 614.831538 127.127203 
L 603.244615 127.127203 
z
" style="fill:#ffa500;opacity:0.8;"/>
   </g>
   <g id="patch_140">
    <path clip-path="url(#pd8983463db)" d="M 614.831538 126.62 
L 626.418462 126.62 
L 626.418462 128.39521 
L 614.831538 128.39521 
z
" style="fill:#ffa500;opacity:0.8;"/>
   </g>
   <g id="patch_141">
    <path clip-path="url(#pd8983463db)" d="M 626.418462 126.62 
L 638.005385 126.62 
L 638.005385 127.634406 
L 626.418462 127.634406 
z
" style="fill:#ffa500;opacity:0.8;"/>
   </g>
   <g id="patch_142">
    <path clip-path="url(#pd8983463db)" d="M 638.005385 126.62 
L 649.592308 126.62 
L 649.592308 128.39521 
L 638.005385 128.39521 
z
" style="fill:#ffa500;opacity:0.8;"/>
   </g>
   <g id="patch_143">
    <path clip-path="url(#pd8983463db)" d="M 649.592308 126.62 
L 661.179231 126.62 
L 661.179231 133.72084 
L 649.592308 133.72084 
z
" style="fill:#ffa500;opacity:0.8;"/>
   </g>
   <g id="patch_144">
    <path clip-path="url(#pd8983463db)" d="M 661.179231 126.62 
L 672.766154 126.62 
L 672.766154 135.49605 
L 661.179231 135.49605 
z
" style="fill:#ffa500;opacity:0.8;"/>
   </g>
   <g id="patch_145">
    <path clip-path="url(#pd8983463db)" d="M 672.766154 126.62 
L 684.353077 126.62 
L 684.353077 141.836085 
L 672.766154 141.836085 
z
" style="fill:#ffa500;opacity:0.8;"/>
   </g>
   <g id="patch_146">
    <path clip-path="url(#pd8983463db)" d="M 684.353077 126.62 
L 695.94 126.62 
L 695.94 141.836085 
L 684.353077 141.836085 
z
" style="fill:#ffa500;opacity:0.8;"/>
   </g>
   <g id="patch_147">
    <path clip-path="url(#pd8983463db)" d="M 695.94 126.62 
L 707.526923 126.62 
L 707.526923 148.429722 
L 695.94 148.429722 
z
" style="fill:#ffa500;opacity:0.8;"/>
   </g>
   <g id="patch_148">
    <path clip-path="url(#pd8983463db)" d="M 707.526923 126.62 
L 719.113846 126.62 
L 719.113846 143.104092 
L 707.526923 143.104092 
z
" style="fill:#ffa500;opacity:0.8;"/>
   </g>
   <g id="patch_149">
    <path clip-path="url(#pd8983463db)" d="M 719.113846 126.62 
L 730.700769 126.62 
L 730.700769 141.836085 
L 719.113846 141.836085 
z
" style="fill:#ffa500;opacity:0.8;"/>
   </g>
   <g id="patch_150">
    <path clip-path="url(#pd8983463db)" d="M 730.700769 126.62 
L 742.287692 126.62 
L 742.287692 144.879302 
L 730.700769 144.879302 
z
" style="fill:#ffa500;opacity:0.8;"/>
   </g>
   <g id="patch_151">
    <path clip-path="url(#pd8983463db)" d="M 742.287692 126.62 
L 753.874615 126.62 
L 753.874615 143.104092 
L 742.287692 143.104092 
z
" style="fill:#ffa500;opacity:0.8;"/>
   </g>
   <g id="patch_152">
    <path clip-path="url(#pd8983463db)" d="M 753.874615 126.62 
L 765.461538 126.62 
L 765.461538 136.510455 
L 753.874615 136.510455 
z
" style="fill:#ffa500;opacity:0.8;"/>
   </g>
   <g id="patch_153">
    <path clip-path="url(#pd8983463db)" d="M 765.461538 126.62 
L 777.048462 126.62 
L 777.048462 138.792868 
L 765.461538 138.792868 
z
" style="fill:#ffa500;opacity:0.8;"/>
   </g>
   <g id="patch_154">
    <path clip-path="url(#pd8983463db)" d="M 777.048462 126.62 
L 788.635385 126.62 
L 788.635385 135.749651 
L 777.048462 135.749651 
z
" style="fill:#ffa500;opacity:0.8;"/>
   </g>
   <g id="patch_155">
    <path clip-path="url(#pd8983463db)" d="M 788.635385 126.62 
L 800.222308 126.62 
L 800.222308 138.285665 
L 788.635385 138.285665 
z
" style="fill:#ffa500;opacity:0.8;"/>
   </g>
   <g id="patch_156">
    <path clip-path="url(#pd8983463db)" d="M 800.222308 126.62 
L 811.809231 126.62 
L 811.809231 133.467238 
L 800.222308 133.467238 
z
" style="fill:#ffa500;opacity:0.8;"/>
   </g>
   <g id="patch_157">
    <path clip-path="url(#pd8983463db)" d="M 811.809231 126.62 
L 823.396154 126.62 
L 823.396154 130.424021 
L 811.809231 130.424021 
z
" style="fill:#ffa500;opacity:0.8;"/>
   </g>
   <g id="patch_158">
    <path clip-path="url(#pd8983463db)" d="M 823.396154 126.62 
L 834.983077 126.62 
L 834.983077 134.481644 
L 823.396154 134.481644 
z
" style="fill:#ffa500;opacity:0.8;"/>
   </g>
   <g id="patch_159">
    <path clip-path="url(#pd8983463db)" d="M 834.983077 126.62 
L 846.57 126.62 
L 846.57 132.706434 
L 834.983077 132.706434 
z
" style="fill:#ffa500;opacity:0.8;"/>
   </g>
   <g id="patch_160">
    <path clip-path="url(#pd8983463db)" d="M 846.57 126.62 
L 858.156923 126.62 
L 858.156923 134.481644 
L 846.57 134.481644 
z
" style="fill:#ffa500;opacity:0.8;"/>
   </g>
   <g id="patch_161">
    <path clip-path="url(#pd8983463db)" d="M 858.156923 126.62 
L 869.743846 126.62 
L 869.743846 133.213637 
L 858.156923 133.213637 
z
" style="fill:#ffa500;opacity:0.8;"/>
   </g>
   <g id="patch_162">
    <path clip-path="url(#pd8983463db)" d="M 869.743846 126.62 
L 881.330769 126.62 
L 881.330769 137.017658 
L 869.743846 137.017658 
z
" style="fill:#ffa500;opacity:0.8;"/>
   </g>
   <g id="patch_163">
    <path clip-path="url(#pd8983463db)" d="M 881.330769 126.62 
L 892.917692 126.62 
L 892.917692 136.256854 
L 881.330769 136.256854 
z
" style="fill:#ffa500;opacity:0.8;"/>
   </g>
   <g id="patch_164">
    <path clip-path="url(#pd8983463db)" d="M 892.917692 126.62 
L 904.504615 126.62 
L 904.504615 139.04647 
L 892.917692 139.04647 
z
" style="fill:#ffa500;opacity:0.8;"/>
   </g>
   <g id="patch_165">
    <path clip-path="url(#pd8983463db)" d="M 904.504615 126.62 
L 916.091538 126.62 
L 916.091538 148.429722 
L 904.504615 148.429722 
z
" style="fill:#ffa500;opacity:0.8;"/>
   </g>
   <g id="patch_166">
    <path clip-path="url(#pd8983463db)" d="M 916.091538 126.62 
L 927.678462 126.62 
L 927.678462 155.530562 
L 916.091538 155.530562 
z
" style="fill:#ffa500;opacity:0.8;"/>
   </g>
   <g id="patch_167">
    <path clip-path="url(#pd8983463db)" d="M 927.678462 126.62 
L 939.265385 126.62 
L 939.265385 137.778463 
L 927.678462 137.778463 
z
" style="fill:#ffa500;opacity:0.8;"/>
   </g>
   <g id="patch_168">
    <path clip-path="url(#pd8983463db)" d="M 939.265385 126.62 
L 950.852308 126.62 
L 950.852308 132.452833 
L 939.265385 132.452833 
z
" style="fill:#ffa500;opacity:0.8;"/>
   </g>
   <g id="patch_169">
    <path clip-path="url(#pd8983463db)" d="M 950.852308 126.62 
L 962.439231 126.62 
L 962.439231 128.141609 
L 950.852308 128.141609 
z
" style="fill:#ffa500;opacity:0.8;"/>
   </g>
   <g id="patch_170">
    <path clip-path="url(#pd8983463db)" d="M 962.439231 126.62 
L 974.026154 126.62 
L 974.026154 129.409616 
L 962.439231 129.409616 
z
" style="fill:#ffa500;opacity:0.8;"/>
   </g>
   <g id="patch_171">
    <path clip-path="url(#pd8983463db)" d="M 974.026154 126.62 
L 985.613077 126.62 
L 985.613077 129.409616 
L 974.026154 129.409616 
z
" style="fill:#ffa500;opacity:0.8;"/>
   </g>
   <g id="patch_172">
    <path clip-path="url(#pd8983463db)" d="M 985.613077 126.62 
L 997.2 126.62 
L 997.2 164.406612 
L 985.613077 164.406612 
z
" style="fill:#ffa500;opacity:0.8;"/>
   </g>
   <g id="matplotlib.axis_3">
    <g id="xtick_7">
     <g id="line2d_13">
      <g>
       <use style="stroke:#000000;stroke-width:0.8;" x="551.103462" xlink:href="#mce820f6435" y="242.44"/>
      </g>
     </g>
     <g id="text_14">
      <!-- 0 -->
      <g transform="translate(547.922212 257.038437)scale(0.1 -0.1)">
       <use xlink:href="#DejaVuSans-30"/>
      </g>
     </g>
    </g>
    <g id="xtick_8">
     <g id="line2d_14">
      <g>
       <use style="stroke:#000000;stroke-width:0.8;" x="634.906021" xlink:href="#mce820f6435" y="242.44"/>
      </g>
     </g>
     <g id="text_15">
      <!-- 1 -->
      <g transform="translate(631.724771 257.038437)scale(0.1 -0.1)">
       <use xlink:href="#DejaVuSans-31"/>
      </g>
     </g>
    </g>
    <g id="xtick_9">
     <g id="line2d_15">
      <g>
       <use style="stroke:#000000;stroke-width:0.8;" x="718.70858" xlink:href="#mce820f6435" y="242.44"/>
      </g>
     </g>
     <g id="text_16">
      <!-- 2 -->
      <g transform="translate(715.52733 257.038437)scale(0.1 -0.1)">
       <use xlink:href="#DejaVuSans-32"/>
      </g>
     </g>
    </g>
    <g id="xtick_10">
     <g id="line2d_16">
      <g>
       <use style="stroke:#000000;stroke-width:0.8;" x="802.511139" xlink:href="#mce820f6435" y="242.44"/>
      </g>
     </g>
     <g id="text_17">
      <!-- 3 -->
      <g transform="translate(799.329889 257.038437)scale(0.1 -0.1)">
       <use xlink:href="#DejaVuSans-33"/>
      </g>
     </g>
    </g>
    <g id="xtick_11">
     <g id="line2d_17">
      <g>
       <use style="stroke:#000000;stroke-width:0.8;" x="886.313698" xlink:href="#mce820f6435" y="242.44"/>
      </g>
     </g>
     <g id="text_18">
      <!-- 4 -->
      <g transform="translate(883.132448 257.038437)scale(0.1 -0.1)">
       <use xlink:href="#DejaVuSans-34"/>
      </g>
     </g>
    </g>
    <g id="xtick_12">
     <g id="line2d_18">
      <g>
       <use style="stroke:#000000;stroke-width:0.8;" x="970.116257" xlink:href="#mce820f6435" y="242.44"/>
      </g>
     </g>
     <g id="text_19">
      <!-- 5 -->
      <g transform="translate(966.935007 257.038437)scale(0.1 -0.1)">
       <use xlink:href="#DejaVuSans-35"/>
      </g>
     </g>
    </g>
    <g id="text_20">
     <!-- Action entropy -->
     <g transform="translate(720.029219 273.755937)scale(0.14 -0.14)">
      <defs>
       <path d="M 2188 4044 
L 1331 1722 
L 3047 1722 
L 2188 4044 
z
M 1831 4666 
L 2547 4666 
L 4325 0 
L 3669 0 
L 3244 1197 
L 1141 1197 
L 716 0 
L 50 0 
L 1831 4666 
z
" id="DejaVuSans-41" transform="scale(0.015625)"/>
       <path d="M 3122 3366 
L 3122 2828 
Q 2878 2963 2633 3030 
Q 2388 3097 2138 3097 
Q 1578 3097 1268 2742 
Q 959 2388 959 1747 
Q 959 1106 1268 751 
Q 1578 397 2138 397 
Q 2388 397 2633 464 
Q 2878 531 3122 666 
L 3122 134 
Q 2881 22 2623 -34 
Q 2366 -91 2075 -91 
Q 1284 -91 818 406 
Q 353 903 353 1747 
Q 353 2603 823 3093 
Q 1294 3584 2113 3584 
Q 2378 3584 2631 3529 
Q 2884 3475 3122 3366 
z
" id="DejaVuSans-63" transform="scale(0.015625)"/>
       <path d="M 3513 2113 
L 3513 0 
L 2938 0 
L 2938 2094 
Q 2938 2591 2744 2837 
Q 2550 3084 2163 3084 
Q 1697 3084 1428 2787 
Q 1159 2491 1159 1978 
L 1159 0 
L 581 0 
L 581 3500 
L 1159 3500 
L 1159 2956 
Q 1366 3272 1645 3428 
Q 1925 3584 2291 3584 
Q 2894 3584 3203 3211 
Q 3513 2838 3513 2113 
z
" id="DejaVuSans-6e" transform="scale(0.015625)"/>
      </defs>
      <use xlink:href="#DejaVuSans-41"/>
      <use x="66.658203" xlink:href="#DejaVuSans-63"/>
      <use x="121.638672" xlink:href="#DejaVuSans-74"/>
      <use x="160.847656" xlink:href="#DejaVuSans-69"/>
      <use x="188.630859" xlink:href="#DejaVuSans-6f"/>
      <use x="249.8125" xlink:href="#DejaVuSans-6e"/>
      <use x="313.191406" xlink:href="#DejaVuSans-20"/>
      <use x="344.978516" xlink:href="#DejaVuSans-65"/>
      <use x="406.501953" xlink:href="#DejaVuSans-6e"/>
      <use x="469.880859" xlink:href="#DejaVuSans-74"/>
      <use x="509.089844" xlink:href="#DejaVuSans-72"/>
      <use x="547.953125" xlink:href="#DejaVuSans-6f"/>
      <use x="609.134766" xlink:href="#DejaVuSans-70"/>
      <use x="672.611328" xlink:href="#DejaVuSans-79"/>
     </g>
    </g>
   </g>
   <g id="matplotlib.axis_4">
    <g id="ytick_7">
     <g id="line2d_19">
      <g>
       <use style="stroke:#000000;stroke-width:0.8;" x="545.31" xlink:href="#mdf0ada4410" y="236.632296"/>
      </g>
     </g>
     <g id="text_21">
      <!-- 0.3 -->
      <g transform="translate(514.027187 240.431515)scale(0.1 -0.1)">
       <defs>
        <path d="M 678 2272 
L 4684 2272 
L 4684 1741 
L 678 1741 
L 678 2272 
z
" id="DejaVuSans-2212" transform="scale(0.015625)"/>
       </defs>
       <use xlink:href="#DejaVuSans-2212"/>
       <use x="83.789062" xlink:href="#DejaVuSans-30"/>
       <use x="147.412109" xlink:href="#DejaVuSans-2e"/>
       <use x="179.199219" xlink:href="#DejaVuSans-33"/>
      </g>
     </g>
    </g>
    <g id="ytick_8">
     <g id="line2d_20">
      <g>
       <use style="stroke:#000000;stroke-width:0.8;" x="545.31" xlink:href="#mdf0ada4410" y="199.961531"/>
      </g>
     </g>
     <g id="text_22">
      <!-- 0.2 -->
      <g transform="translate(514.027187 203.76075)scale(0.1 -0.1)">
       <use xlink:href="#DejaVuSans-2212"/>
       <use x="83.789062" xlink:href="#DejaVuSans-30"/>
       <use x="147.412109" xlink:href="#DejaVuSans-2e"/>
       <use x="179.199219" xlink:href="#DejaVuSans-32"/>
      </g>
     </g>
    </g>
    <g id="ytick_9">
     <g id="line2d_21">
      <g>
       <use style="stroke:#000000;stroke-width:0.8;" x="545.31" xlink:href="#mdf0ada4410" y="163.290765"/>
      </g>
     </g>
     <g id="text_23">
      <!-- 0.1 -->
      <g transform="translate(514.027187 167.089984)scale(0.1 -0.1)">
       <use xlink:href="#DejaVuSans-2212"/>
       <use x="83.789062" xlink:href="#DejaVuSans-30"/>
       <use x="147.412109" xlink:href="#DejaVuSans-2e"/>
       <use x="179.199219" xlink:href="#DejaVuSans-31"/>
      </g>
     </g>
    </g>
    <g id="ytick_10">
     <g id="line2d_22">
      <g>
       <use style="stroke:#000000;stroke-width:0.8;" x="545.31" xlink:href="#mdf0ada4410" y="126.62"/>
      </g>
     </g>
     <g id="text_24">
      <!-- 0.0 -->
      <g transform="translate(522.406875 130.419219)scale(0.1 -0.1)">
       <use xlink:href="#DejaVuSans-30"/>
       <use x="63.623047" xlink:href="#DejaVuSans-2e"/>
       <use x="95.410156" xlink:href="#DejaVuSans-30"/>
      </g>
     </g>
    </g>
    <g id="ytick_11">
     <g id="line2d_23">
      <g>
       <use style="stroke:#000000;stroke-width:0.8;" x="545.31" xlink:href="#mdf0ada4410" y="89.949235"/>
      </g>
     </g>
     <g id="text_25">
      <!-- 0.1 -->
      <g transform="translate(522.406875 93.748453)scale(0.1 -0.1)">
       <use xlink:href="#DejaVuSans-30"/>
       <use x="63.623047" xlink:href="#DejaVuSans-2e"/>
       <use x="95.410156" xlink:href="#DejaVuSans-31"/>
      </g>
     </g>
    </g>
    <g id="ytick_12">
     <g id="line2d_24">
      <g>
       <use style="stroke:#000000;stroke-width:0.8;" x="545.31" xlink:href="#mdf0ada4410" y="53.278469"/>
      </g>
     </g>
     <g id="text_26">
      <!-- 0.2 -->
      <g transform="translate(522.406875 57.077688)scale(0.1 -0.1)">
       <use xlink:href="#DejaVuSans-30"/>
       <use x="63.623047" xlink:href="#DejaVuSans-2e"/>
       <use x="95.410156" xlink:href="#DejaVuSans-32"/>
      </g>
     </g>
    </g>
    <g id="ytick_13">
     <g id="line2d_25">
      <g>
       <use style="stroke:#000000;stroke-width:0.8;" x="545.31" xlink:href="#mdf0ada4410" y="16.607704"/>
      </g>
     </g>
     <g id="text_27">
      <!-- 0.3 -->
      <g transform="translate(522.406875 20.406922)scale(0.1 -0.1)">
       <use xlink:href="#DejaVuSans-30"/>
       <use x="63.623047" xlink:href="#DejaVuSans-2e"/>
       <use x="95.410156" xlink:href="#DejaVuSans-33"/>
      </g>
     </g>
    </g>
    <g id="text_28">
     <!-- Proportion of replays -->
     <g transform="translate(507.115625 199.426563)rotate(-90)scale(0.14 -0.14)">
      <defs>
       <path d="M 1259 4147 
L 1259 2394 
L 2053 2394 
Q 2494 2394 2734 2622 
Q 2975 2850 2975 3272 
Q 2975 3691 2734 3919 
Q 2494 4147 2053 4147 
L 1259 4147 
z
M 628 4666 
L 2053 4666 
Q 2838 4666 3239 4311 
Q 3641 3956 3641 3272 
Q 3641 2581 3239 2228 
Q 2838 1875 2053 1875 
L 1259 1875 
L 1259 0 
L 628 0 
L 628 4666 
z
" id="DejaVuSans-50" transform="scale(0.015625)"/>
      </defs>
      <use xlink:href="#DejaVuSans-50"/>
      <use x="58.552734" xlink:href="#DejaVuSans-72"/>
      <use x="97.416016" xlink:href="#DejaVuSans-6f"/>
      <use x="158.597656" xlink:href="#DejaVuSans-70"/>
      <use x="222.074219" xlink:href="#DejaVuSans-6f"/>
      <use x="283.255859" xlink:href="#DejaVuSans-72"/>
      <use x="324.369141" xlink:href="#DejaVuSans-74"/>
      <use x="363.578125" xlink:href="#DejaVuSans-69"/>
      <use x="391.361328" xlink:href="#DejaVuSans-6f"/>
      <use x="452.542969" xlink:href="#DejaVuSans-6e"/>
      <use x="515.921875" xlink:href="#DejaVuSans-20"/>
      <use x="547.708984" xlink:href="#DejaVuSans-6f"/>
      <use x="608.890625" xlink:href="#DejaVuSans-66"/>
      <use x="644.095703" xlink:href="#DejaVuSans-20"/>
      <use x="675.882812" xlink:href="#DejaVuSans-72"/>
      <use x="714.746094" xlink:href="#DejaVuSans-65"/>
      <use x="776.269531" xlink:href="#DejaVuSans-70"/>
      <use x="839.746094" xlink:href="#DejaVuSans-6c"/>
      <use x="867.529297" xlink:href="#DejaVuSans-61"/>
      <use x="928.808594" xlink:href="#DejaVuSans-79"/>
      <use x="987.988281" xlink:href="#DejaVuSans-73"/>
     </g>
    </g>
   </g>
   <g id="line2d_26">
    <path clip-path="url(#pd8983463db)" d="M 545.31 126.62 
L 997.2 126.62 
" style="fill:none;stroke:#000000;stroke-linecap:square;stroke-width:1.5;"/>
   </g>
   <g id="patch_173">
    <path d="M 545.31 242.44 
L 545.31 10.8 
" style="fill:none;stroke:#000000;stroke-linecap:square;stroke-linejoin:miter;stroke-width:0.8;"/>
   </g>
   <g id="patch_174">
    <path d="M 997.2 242.44 
L 997.2 10.8 
" style="fill:none;stroke:#000000;stroke-linecap:square;stroke-linejoin:miter;stroke-width:0.8;"/>
   </g>
   <g id="patch_175">
    <path d="M 545.31 242.44 
L 997.2 242.44 
" style="fill:none;stroke:#000000;stroke-linecap:square;stroke-linejoin:miter;stroke-width:0.8;"/>
   </g>
   <g id="patch_176">
    <path d="M 545.31 10.8 
L 997.2 10.8 
" style="fill:none;stroke:#000000;stroke-linecap:square;stroke-linejoin:miter;stroke-width:0.8;"/>
   </g>
  </g>
 </g>
 <defs>
  <clipPath id="p7362675d74">
   <rect height="231.64" width="451.89" x="33.685" y="10.8"/>
  </clipPath>
  <clipPath id="pd8983463db">
   <rect height="231.64" width="451.89" x="545.31" y="10.8"/>
  </clipPath>
 </defs>
</svg>
