<?xml version="1.0" encoding="utf-8" standalone="no"?>
<!DOCTYPE svg PUBLIC "-//W3C//DTD SVG 1.1//EN"
  "http://www.w3.org/Graphics/SVG/1.1/DTD/svg11.dtd">
<svg height="288pt" version="1.1" viewBox="0 0 1152 288" width="1152pt" xmlns="http://www.w3.org/2000/svg" xmlns:xlink="http://www.w3.org/1999/xlink">
 <metadata>
  <rdf:RDF xmlns:cc="http://creativecommons.org/ns#" xmlns:dc="http://purl.org/dc/elements/1.1/" xmlns:rdf="http://www.w3.org/1999/02/22-rdf-syntax-ns#">
   <cc:Work>
    <dc:type rdf:resource="http://purl.org/dc/dcmitype/StillImage"/>
    <dc:date>2021-09-07T18:19:22.266040</dc:date>
    <dc:format>image/svg+xml</dc:format>
    <dc:creator>
     <cc:Agent>
      <dc:title>Matplotlib v3.4.2, https://matplotlib.org/</dc:title>
     </cc:Agent>
    </dc:creator>
   </cc:Work>
  </rdf:RDF>
 </metadata>
 <defs>
  <style type="text/css">*{stroke-linecap:butt;stroke-linejoin:round;}</style>
 </defs>
 <g id="figure_1">
  <g id="patch_1">
   <path d="M 0 288 
L 1152 288 
L 1152 0 
L 0 0 
z
" style="fill:none;"/>
  </g>
  <g id="axes_1">
   <g id="patch_2">
    <path d="M 144 252 
L 1036.8 252 
L 1036.8 34.56 
L 144 34.56 
z
" style="fill:none;"/>
   </g>
   <g id="patch_3">
    <path clip-path="url(#p7f43853a88)" d="M 184.581818 252 
L 197.464935 252 
L 197.464935 44.914286 
L 184.581818 44.914286 
z
" style="fill:none;opacity:0;"/>
   </g>
   <g id="patch_4">
    <path clip-path="url(#p7f43853a88)" d="M 210.348052 252 
L 223.231169 252 
L 223.231169 76.147596 
L 210.348052 76.147596 
z
" style="opacity:0.150823;"/>
   </g>
   <g id="patch_5">
    <path clip-path="url(#p7f43853a88)" d="M 236.114286 252 
L 248.997403 252 
L 248.997403 44.914286 
L 236.114286 44.914286 
z
" style="fill:none;opacity:0;"/>
   </g>
   <g id="patch_6">
    <path clip-path="url(#p7f43853a88)" d="M 261.880519 252 
L 274.763636 252 
L 274.763636 217.569238 
L 261.880519 217.569238 
z
" style="opacity:0.833737;"/>
   </g>
   <g id="patch_7">
    <path clip-path="url(#p7f43853a88)" d="M 287.646753 252 
L 300.52987 252 
L 300.52987 147.056066 
L 287.646753 147.056066 
z
" style="opacity:0.493234;"/>
   </g>
   <g id="patch_8">
    <path clip-path="url(#p7f43853a88)" d="M 313.412987 252 
L 326.296104 252 
L 326.296104 206.731223 
L 313.412987 206.731223 
z
" style="opacity:0.781401;"/>
   </g>
   <g id="patch_9">
    <path clip-path="url(#p7f43853a88)" d="M 339.179221 252 
L 352.062338 252 
L 352.062338 215.129496 
L 339.179221 215.129496 
z
" style="opacity:0.821955;"/>
   </g>
   <g id="patch_10">
    <path clip-path="url(#p7f43853a88)" d="M 364.945455 252 
L 377.828571 252 
L 377.828571 226.749111 
L 364.945455 226.749111 
z
" style="opacity:0.878066;"/>
   </g>
   <g id="patch_11">
    <path clip-path="url(#p7f43853a88)" d="M 390.711688 252 
L 403.594805 252 
L 403.594805 44.914286 
L 390.711688 44.914286 
z
" style="fill:none;opacity:0;"/>
   </g>
   <g id="patch_12">
    <path clip-path="url(#p7f43853a88)" d="M 416.477922 252 
L 429.361039 252 
L 429.361039 44.914286 
L 416.477922 44.914286 
z
" style="fill:none;opacity:0;"/>
   </g>
   <g id="patch_13">
    <path clip-path="url(#p7f43853a88)" d="M 442.244156 252 
L 455.127273 252 
L 455.127273 226.646788 
L 442.244156 226.646788 
z
" style="opacity:0.877571;"/>
   </g>
   <g id="patch_14">
    <path clip-path="url(#p7f43853a88)" d="M 468.01039 252 
L 480.893506 252 
L 480.893506 150.218386 
L 468.01039 150.218386 
z
" style="opacity:0.508505;"/>
   </g>
   <g id="patch_15">
    <path clip-path="url(#p7f43853a88)" d="M 493.776623 252 
L 506.65974 252 
L 506.65974 210.32261 
L 493.776623 210.32261 
z
" style="opacity:0.798743;"/>
   </g>
   <g id="patch_16">
    <path clip-path="url(#p7f43853a88)" d="M 519.542857 252 
L 532.425974 252 
L 532.425974 44.914286 
L 519.542857 44.914286 
z
" style="fill:none;opacity:0;"/>
   </g>
   <g id="patch_17">
    <path clip-path="url(#p7f43853a88)" d="M 545.309091 252 
L 558.192208 252 
L 558.192208 143.311783 
L 545.309091 143.311783 
z
" style="opacity:0.475153;"/>
   </g>
   <g id="patch_18">
    <path clip-path="url(#p7f43853a88)" d="M 571.075325 252 
L 583.958442 252 
L 583.958442 44.914286 
L 571.075325 44.914286 
z
" style="fill:none;opacity:0;"/>
   </g>
   <g id="patch_19">
    <path clip-path="url(#p7f43853a88)" d="M 596.841558 252 
L 609.724675 252 
L 609.724675 80.846076 
L 596.841558 80.846076 
z
" style="opacity:0.173512;"/>
   </g>
   <g id="patch_20">
    <path clip-path="url(#p7f43853a88)" d="M 622.607792 252 
L 635.490909 252 
L 635.490909 44.914286 
L 622.607792 44.914286 
z
" style="fill:none;opacity:0;"/>
   </g>
   <g id="patch_21">
    <path clip-path="url(#p7f43853a88)" d="M 648.374026 252 
L 661.257143 252 
L 661.257143 219.40743 
L 648.374026 219.40743 
z
" style="opacity:0.842613;"/>
   </g>
   <g id="patch_22">
    <path clip-path="url(#p7f43853a88)" d="M 674.14026 252 
L 687.023377 252 
L 687.023377 80.873766 
L 674.14026 80.873766 
z
" style="opacity:0.173645;"/>
   </g>
   <g id="patch_23">
    <path clip-path="url(#p7f43853a88)" d="M 699.906494 252 
L 712.78961 252 
L 712.78961 209.636065 
L 699.906494 209.636065 
z
" style="opacity:0.795428;"/>
   </g>
   <g id="patch_24">
    <path clip-path="url(#p7f43853a88)" d="M 725.672727 252 
L 738.555844 252 
L 738.555844 143.751006 
L 725.672727 143.751006 
z
" style="opacity:0.477274;"/>
   </g>
   <g id="patch_25">
    <path clip-path="url(#p7f43853a88)" d="M 751.438961 252 
L 764.322078 252 
L 764.322078 76.171676 
L 751.438961 76.171676 
z
" style="opacity:0.150939;"/>
   </g>
   <g id="patch_26">
    <path clip-path="url(#p7f43853a88)" d="M 777.205195 252 
L 790.088312 252 
L 790.088312 75.658007 
L 777.205195 75.658007 
z
" style="opacity:0.148459;"/>
   </g>
   <g id="patch_27">
    <path clip-path="url(#p7f43853a88)" d="M 802.971429 252 
L 815.854545 252 
L 815.854545 44.914286 
L 802.971429 44.914286 
z
" style="fill:none;opacity:0;"/>
   </g>
   <g id="patch_28">
    <path clip-path="url(#p7f43853a88)" d="M 828.737662 252 
L 841.620779 252 
L 841.620779 44.914286 
L 828.737662 44.914286 
z
" style="fill:none;opacity:0;"/>
   </g>
   <g id="patch_29">
    <path clip-path="url(#p7f43853a88)" d="M 854.503896 252 
L 867.387013 252 
L 867.387013 80.283099 
L 854.503896 80.283099 
z
" style="opacity:0.170793;"/>
   </g>
   <g id="patch_30">
    <path clip-path="url(#p7f43853a88)" d="M 880.27013 252 
L 893.153247 252 
L 893.153247 80.556612 
L 880.27013 80.556612 
z
" style="opacity:0.172114;"/>
   </g>
   <g id="patch_31">
    <path clip-path="url(#p7f43853a88)" d="M 906.036364 252 
L 918.919481 252 
L 918.919481 44.914286 
L 906.036364 44.914286 
z
" style="fill:none;opacity:0;"/>
   </g>
   <g id="patch_32">
    <path clip-path="url(#p7f43853a88)" d="M 931.802597 252 
L 944.685714 252 
L 944.685714 206.803148 
L 931.802597 206.803148 
z
" style="opacity:0.781748;"/>
   </g>
   <g id="patch_33">
    <path clip-path="url(#p7f43853a88)" d="M 957.568831 252 
L 970.451948 252 
L 970.451948 75.895871 
L 957.568831 75.895871 
z
" style="opacity:0.149608;"/>
   </g>
   <g id="patch_34">
    <path clip-path="url(#p7f43853a88)" d="M 983.335065 252 
L 996.218182 252 
L 996.218182 221.284727 
L 983.335065 221.284727 
z
" style="opacity:0.851678;"/>
   </g>
   <g id="matplotlib.axis_1">
    <g id="xtick_1">
     <g id="line2d_1">
      <defs>
       <path d="M 0 0 
L 0 3.5 
" id="me2949ea9b2" style="stroke:#000000;stroke-width:0.8;"/>
      </defs>
      <g>
       <use style="stroke:#000000;stroke-width:0.8;" x="191.023377" xlink:href="#me2949ea9b2" y="252"/>
      </g>
     </g>
     <g id="text_1">
      <!-- 0 -->
      <g transform="translate(187.842127 266.598437)scale(0.1 -0.1)">
       <defs>
        <path d="M 2034 4250 
Q 1547 4250 1301 3770 
Q 1056 3291 1056 2328 
Q 1056 1369 1301 889 
Q 1547 409 2034 409 
Q 2525 409 2770 889 
Q 3016 1369 3016 2328 
Q 3016 3291 2770 3770 
Q 2525 4250 2034 4250 
z
M 2034 4750 
Q 2819 4750 3233 4129 
Q 3647 3509 3647 2328 
Q 3647 1150 3233 529 
Q 2819 -91 2034 -91 
Q 1250 -91 836 529 
Q 422 1150 422 2328 
Q 422 3509 836 4129 
Q 1250 4750 2034 4750 
z
" id="DejaVuSans-30" transform="scale(0.015625)"/>
       </defs>
       <use xlink:href="#DejaVuSans-30"/>
      </g>
     </g>
    </g>
    <g id="xtick_2">
     <g id="line2d_2">
      <g>
       <use style="stroke:#000000;stroke-width:0.8;" x="319.854545" xlink:href="#me2949ea9b2" y="252"/>
      </g>
     </g>
     <g id="text_2">
      <!-- 5 -->
      <g transform="translate(316.673295 266.598437)scale(0.1 -0.1)">
       <defs>
        <path d="M 691 4666 
L 3169 4666 
L 3169 4134 
L 1269 4134 
L 1269 2991 
Q 1406 3038 1543 3061 
Q 1681 3084 1819 3084 
Q 2600 3084 3056 2656 
Q 3513 2228 3513 1497 
Q 3513 744 3044 326 
Q 2575 -91 1722 -91 
Q 1428 -91 1123 -41 
Q 819 9 494 109 
L 494 744 
Q 775 591 1075 516 
Q 1375 441 1709 441 
Q 2250 441 2565 725 
Q 2881 1009 2881 1497 
Q 2881 1984 2565 2268 
Q 2250 2553 1709 2553 
Q 1456 2553 1204 2497 
Q 953 2441 691 2322 
L 691 4666 
z
" id="DejaVuSans-35" transform="scale(0.015625)"/>
       </defs>
       <use xlink:href="#DejaVuSans-35"/>
      </g>
     </g>
    </g>
    <g id="xtick_3">
     <g id="line2d_3">
      <g>
       <use style="stroke:#000000;stroke-width:0.8;" x="448.685714" xlink:href="#me2949ea9b2" y="252"/>
      </g>
     </g>
     <g id="text_3">
      <!-- 10 -->
      <g transform="translate(442.323214 266.598437)scale(0.1 -0.1)">
       <defs>
        <path d="M 794 531 
L 1825 531 
L 1825 4091 
L 703 3866 
L 703 4441 
L 1819 4666 
L 2450 4666 
L 2450 531 
L 3481 531 
L 3481 0 
L 794 0 
L 794 531 
z
" id="DejaVuSans-31" transform="scale(0.015625)"/>
       </defs>
       <use xlink:href="#DejaVuSans-31"/>
       <use x="63.623047" xlink:href="#DejaVuSans-30"/>
      </g>
     </g>
    </g>
    <g id="xtick_4">
     <g id="line2d_4">
      <g>
       <use style="stroke:#000000;stroke-width:0.8;" x="577.516883" xlink:href="#me2949ea9b2" y="252"/>
      </g>
     </g>
     <g id="text_4">
      <!-- 15 -->
      <g transform="translate(571.154383 266.598437)scale(0.1 -0.1)">
       <use xlink:href="#DejaVuSans-31"/>
       <use x="63.623047" xlink:href="#DejaVuSans-35"/>
      </g>
     </g>
    </g>
    <g id="xtick_5">
     <g id="line2d_5">
      <g>
       <use style="stroke:#000000;stroke-width:0.8;" x="706.348052" xlink:href="#me2949ea9b2" y="252"/>
      </g>
     </g>
     <g id="text_5">
      <!-- 20 -->
      <g transform="translate(699.985552 266.598437)scale(0.1 -0.1)">
       <defs>
        <path d="M 1228 531 
L 3431 531 
L 3431 0 
L 469 0 
L 469 531 
Q 828 903 1448 1529 
Q 2069 2156 2228 2338 
Q 2531 2678 2651 2914 
Q 2772 3150 2772 3378 
Q 2772 3750 2511 3984 
Q 2250 4219 1831 4219 
Q 1534 4219 1204 4116 
Q 875 4013 500 3803 
L 500 4441 
Q 881 4594 1212 4672 
Q 1544 4750 1819 4750 
Q 2544 4750 2975 4387 
Q 3406 4025 3406 3419 
Q 3406 3131 3298 2873 
Q 3191 2616 2906 2266 
Q 2828 2175 2409 1742 
Q 1991 1309 1228 531 
z
" id="DejaVuSans-32" transform="scale(0.015625)"/>
       </defs>
       <use xlink:href="#DejaVuSans-32"/>
       <use x="63.623047" xlink:href="#DejaVuSans-30"/>
      </g>
     </g>
    </g>
    <g id="xtick_6">
     <g id="line2d_6">
      <g>
       <use style="stroke:#000000;stroke-width:0.8;" x="835.179221" xlink:href="#me2949ea9b2" y="252"/>
      </g>
     </g>
     <g id="text_6">
      <!-- 25 -->
      <g transform="translate(828.816721 266.598437)scale(0.1 -0.1)">
       <use xlink:href="#DejaVuSans-32"/>
       <use x="63.623047" xlink:href="#DejaVuSans-35"/>
      </g>
     </g>
    </g>
    <g id="xtick_7">
     <g id="line2d_7">
      <g>
       <use style="stroke:#000000;stroke-width:0.8;" x="964.01039" xlink:href="#me2949ea9b2" y="252"/>
      </g>
     </g>
     <g id="text_7">
      <!-- 30 -->
      <g transform="translate(957.64789 266.598437)scale(0.1 -0.1)">
       <defs>
        <path d="M 2597 2516 
Q 3050 2419 3304 2112 
Q 3559 1806 3559 1356 
Q 3559 666 3084 287 
Q 2609 -91 1734 -91 
Q 1441 -91 1130 -33 
Q 819 25 488 141 
L 488 750 
Q 750 597 1062 519 
Q 1375 441 1716 441 
Q 2309 441 2620 675 
Q 2931 909 2931 1356 
Q 2931 1769 2642 2001 
Q 2353 2234 1838 2234 
L 1294 2234 
L 1294 2753 
L 1863 2753 
Q 2328 2753 2575 2939 
Q 2822 3125 2822 3475 
Q 2822 3834 2567 4026 
Q 2313 4219 1838 4219 
Q 1578 4219 1281 4162 
Q 984 4106 628 3988 
L 628 4550 
Q 988 4650 1302 4700 
Q 1616 4750 1894 4750 
Q 2613 4750 3031 4423 
Q 3450 4097 3450 3541 
Q 3450 3153 3228 2886 
Q 3006 2619 2597 2516 
z
" id="DejaVuSans-33" transform="scale(0.015625)"/>
       </defs>
       <use xlink:href="#DejaVuSans-33"/>
       <use x="63.623047" xlink:href="#DejaVuSans-30"/>
      </g>
     </g>
    </g>
   </g>
   <g id="matplotlib.axis_2">
    <g id="ytick_1">
     <g id="line2d_8">
      <defs>
       <path d="M 0 0 
L -3.5 0 
" id="m270bd0ff35" style="stroke:#000000;stroke-width:0.8;"/>
      </defs>
      <g>
       <use style="stroke:#000000;stroke-width:0.8;" x="144" xlink:href="#m270bd0ff35" y="252"/>
      </g>
     </g>
     <g id="text_8">
      <!-- 0.0 -->
      <g transform="translate(121.096875 255.799219)scale(0.1 -0.1)">
       <defs>
        <path d="M 684 794 
L 1344 794 
L 1344 0 
L 684 0 
L 684 794 
z
" id="DejaVuSans-2e" transform="scale(0.015625)"/>
       </defs>
       <use xlink:href="#DejaVuSans-30"/>
       <use x="63.623047" xlink:href="#DejaVuSans-2e"/>
       <use x="95.410156" xlink:href="#DejaVuSans-30"/>
      </g>
     </g>
    </g>
    <g id="ytick_2">
     <g id="line2d_9">
      <g>
       <use style="stroke:#000000;stroke-width:0.8;" x="144" xlink:href="#m270bd0ff35" y="215.11729"/>
      </g>
     </g>
     <g id="text_9">
      <!-- 0.5 -->
      <g transform="translate(121.096875 218.916509)scale(0.1 -0.1)">
       <use xlink:href="#DejaVuSans-30"/>
       <use x="63.623047" xlink:href="#DejaVuSans-2e"/>
       <use x="95.410156" xlink:href="#DejaVuSans-35"/>
      </g>
     </g>
    </g>
    <g id="ytick_3">
     <g id="line2d_10">
      <g>
       <use style="stroke:#000000;stroke-width:0.8;" x="144" xlink:href="#m270bd0ff35" y="178.23458"/>
      </g>
     </g>
     <g id="text_10">
      <!-- 1.0 -->
      <g transform="translate(121.096875 182.033799)scale(0.1 -0.1)">
       <use xlink:href="#DejaVuSans-31"/>
       <use x="63.623047" xlink:href="#DejaVuSans-2e"/>
       <use x="95.410156" xlink:href="#DejaVuSans-30"/>
      </g>
     </g>
    </g>
    <g id="ytick_4">
     <g id="line2d_11">
      <g>
       <use style="stroke:#000000;stroke-width:0.8;" x="144" xlink:href="#m270bd0ff35" y="141.35187"/>
      </g>
     </g>
     <g id="text_11">
      <!-- 1.5 -->
      <g transform="translate(121.096875 145.151089)scale(0.1 -0.1)">
       <use xlink:href="#DejaVuSans-31"/>
       <use x="63.623047" xlink:href="#DejaVuSans-2e"/>
       <use x="95.410156" xlink:href="#DejaVuSans-35"/>
      </g>
     </g>
    </g>
    <g id="ytick_5">
     <g id="line2d_12">
      <g>
       <use style="stroke:#000000;stroke-width:0.8;" x="144" xlink:href="#m270bd0ff35" y="104.46916"/>
      </g>
     </g>
     <g id="text_12">
      <!-- 2.0 -->
      <g transform="translate(121.096875 108.268379)scale(0.1 -0.1)">
       <use xlink:href="#DejaVuSans-32"/>
       <use x="63.623047" xlink:href="#DejaVuSans-2e"/>
       <use x="95.410156" xlink:href="#DejaVuSans-30"/>
      </g>
     </g>
    </g>
    <g id="ytick_6">
     <g id="line2d_13">
      <g>
       <use style="stroke:#000000;stroke-width:0.8;" x="144" xlink:href="#m270bd0ff35" y="67.586451"/>
      </g>
     </g>
     <g id="text_13">
      <!-- 2.5 -->
      <g transform="translate(121.096875 71.385669)scale(0.1 -0.1)">
       <use xlink:href="#DejaVuSans-32"/>
       <use x="63.623047" xlink:href="#DejaVuSans-2e"/>
       <use x="95.410156" xlink:href="#DejaVuSans-35"/>
      </g>
     </g>
    </g>
   </g>
   <g id="patch_35">
    <path d="M 144 252 
L 144 34.56 
" style="fill:none;stroke:#000000;stroke-linecap:square;stroke-linejoin:miter;stroke-width:0.8;"/>
   </g>
   <g id="patch_36">
    <path d="M 1036.8 252 
L 1036.8 34.56 
" style="fill:none;stroke:#000000;stroke-linecap:square;stroke-linejoin:miter;stroke-width:0.8;"/>
   </g>
   <g id="patch_37">
    <path d="M 144 252 
L 1036.8 252 
" style="fill:none;stroke:#000000;stroke-linecap:square;stroke-linejoin:miter;stroke-width:0.8;"/>
   </g>
   <g id="patch_38">
    <path d="M 144 34.56 
L 1036.8 34.56 
" style="fill:none;stroke:#000000;stroke-linecap:square;stroke-linejoin:miter;stroke-width:0.8;"/>
   </g>
  </g>
 </g>
 <defs>
  <clipPath id="p7f43853a88">
   <rect height="217.44" width="892.8" x="144" y="34.56"/>
  </clipPath>
 </defs>
</svg>
