<?xml version="1.0" encoding="utf-8" standalone="no"?>
<!DOCTYPE svg PUBLIC "-//W3C//DTD SVG 1.1//EN"
  "http://www.w3.org/Graphics/SVG/1.1/DTD/svg11.dtd">
<!-- Created with matplotlib (https://matplotlib.org/) -->
<svg height="288pt" version="1.1" viewBox="0 0 1008 288" width="1008pt" xmlns="http://www.w3.org/2000/svg" xmlns:xlink="http://www.w3.org/1999/xlink">
 <defs>
  <style type="text/css">
*{stroke-linecap:butt;stroke-linejoin:round;}
  </style>
 </defs>
 <g id="figure_1">
  <g id="patch_1">
   <path d="M 0 288 
L 1008 288 
L 1008 0 
L 0 0 
z
" style="fill:none;"/>
  </g>
  <g id="axes_1">
   <g id="patch_2">
    <path d="M 40.12 242.44 
L 488.77 242.44 
L 488.77 10.8 
L 40.12 10.8 
z
" style="fill:none;"/>
   </g>
   <g id="patch_3">
    <path clip-path="url(#p83b809b671)" d="M 40.12 242.44 
L 48.277273 242.44 
L 48.277273 168.903492 
L 40.12 168.903492 
z
" style="fill:#0000ff;"/>
   </g>
   <g id="patch_4">
    <path clip-path="url(#p83b809b671)" d="M 48.277273 242.44 
L 56.434545 242.44 
L 56.434545 242.44 
L 48.277273 242.44 
z
" style="fill:#0000ff;"/>
   </g>
   <g id="patch_5">
    <path clip-path="url(#p83b809b671)" d="M 56.434545 242.44 
L 64.591818 242.44 
L 64.591818 242.44 
L 56.434545 242.44 
z
" style="fill:#0000ff;"/>
   </g>
   <g id="patch_6">
    <path clip-path="url(#p83b809b671)" d="M 64.591818 242.44 
L 72.749091 242.44 
L 72.749091 242.44 
L 64.591818 242.44 
z
" style="fill:#0000ff;"/>
   </g>
   <g id="patch_7">
    <path clip-path="url(#p83b809b671)" d="M 72.749091 242.44 
L 80.906364 242.44 
L 80.906364 242.44 
L 72.749091 242.44 
z
" style="fill:#0000ff;"/>
   </g>
   <g id="patch_8">
    <path clip-path="url(#p83b809b671)" d="M 80.906364 242.44 
L 89.063636 242.44 
L 89.063636 242.44 
L 80.906364 242.44 
z
" style="fill:#0000ff;"/>
   </g>
   <g id="patch_9">
    <path clip-path="url(#p83b809b671)" d="M 89.063636 242.44 
L 97.220909 242.44 
L 97.220909 168.903492 
L 89.063636 168.903492 
z
" style="fill:#0000ff;"/>
   </g>
   <g id="patch_10">
    <path clip-path="url(#p83b809b671)" d="M 97.220909 242.44 
L 105.378182 242.44 
L 105.378182 168.903492 
L 97.220909 168.903492 
z
" style="fill:#0000ff;"/>
   </g>
   <g id="patch_11">
    <path clip-path="url(#p83b809b671)" d="M 105.378182 242.44 
L 113.535455 242.44 
L 113.535455 168.903492 
L 105.378182 168.903492 
z
" style="fill:#0000ff;"/>
   </g>
   <g id="patch_12">
    <path clip-path="url(#p83b809b671)" d="M 113.535455 242.44 
L 121.692727 242.44 
L 121.692727 242.44 
L 113.535455 242.44 
z
" style="fill:#0000ff;"/>
   </g>
   <g id="patch_13">
    <path clip-path="url(#p83b809b671)" d="M 121.692727 242.44 
L 129.85 242.44 
L 129.85 242.44 
L 121.692727 242.44 
z
" style="fill:#0000ff;"/>
   </g>
   <g id="patch_14">
    <path clip-path="url(#p83b809b671)" d="M 129.85 242.44 
L 138.007273 242.44 
L 138.007273 242.44 
L 129.85 242.44 
z
" style="fill:#0000ff;"/>
   </g>
   <g id="patch_15">
    <path clip-path="url(#p83b809b671)" d="M 138.007273 242.44 
L 146.164545 242.44 
L 146.164545 242.44 
L 138.007273 242.44 
z
" style="fill:#0000ff;"/>
   </g>
   <g id="patch_16">
    <path clip-path="url(#p83b809b671)" d="M 146.164545 242.44 
L 154.321818 242.44 
L 154.321818 168.903492 
L 146.164545 168.903492 
z
" style="fill:#0000ff;"/>
   </g>
   <g id="patch_17">
    <path clip-path="url(#p83b809b671)" d="M 154.321818 242.44 
L 162.479091 242.44 
L 162.479091 242.44 
L 154.321818 242.44 
z
" style="fill:#0000ff;"/>
   </g>
   <g id="patch_18">
    <path clip-path="url(#p83b809b671)" d="M 162.479091 242.44 
L 170.636364 242.44 
L 170.636364 242.44 
L 162.479091 242.44 
z
" style="fill:#0000ff;"/>
   </g>
   <g id="patch_19">
    <path clip-path="url(#p83b809b671)" d="M 170.636364 242.44 
L 178.793636 242.44 
L 178.793636 242.44 
L 170.636364 242.44 
z
" style="fill:#0000ff;"/>
   </g>
   <g id="patch_20">
    <path clip-path="url(#p83b809b671)" d="M 178.793636 242.44 
L 186.950909 242.44 
L 186.950909 242.44 
L 178.793636 242.44 
z
" style="fill:#0000ff;"/>
   </g>
   <g id="patch_21">
    <path clip-path="url(#p83b809b671)" d="M 186.950909 242.44 
L 195.108182 242.44 
L 195.108182 168.903492 
L 186.950909 168.903492 
z
" style="fill:#0000ff;"/>
   </g>
   <g id="patch_22">
    <path clip-path="url(#p83b809b671)" d="M 195.108182 242.44 
L 203.265455 242.44 
L 203.265455 168.903492 
L 195.108182 168.903492 
z
" style="fill:#0000ff;"/>
   </g>
   <g id="patch_23">
    <path clip-path="url(#p83b809b671)" d="M 203.265455 242.44 
L 211.422727 242.44 
L 211.422727 168.903492 
L 203.265455 168.903492 
z
" style="fill:#0000ff;"/>
   </g>
   <g id="patch_24">
    <path clip-path="url(#p83b809b671)" d="M 211.422727 242.44 
L 219.58 242.44 
L 219.58 242.44 
L 211.422727 242.44 
z
" style="fill:#0000ff;"/>
   </g>
   <g id="patch_25">
    <path clip-path="url(#p83b809b671)" d="M 219.58 242.44 
L 227.737273 242.44 
L 227.737273 242.44 
L 219.58 242.44 
z
" style="fill:#0000ff;"/>
   </g>
   <g id="patch_26">
    <path clip-path="url(#p83b809b671)" d="M 227.737273 242.44 
L 235.894545 242.44 
L 235.894545 242.44 
L 227.737273 242.44 
z
" style="fill:#0000ff;"/>
   </g>
   <g id="patch_27">
    <path clip-path="url(#p83b809b671)" d="M 235.894545 242.44 
L 244.051818 242.44 
L 244.051818 242.44 
L 235.894545 242.44 
z
" style="fill:#0000ff;"/>
   </g>
   <g id="patch_28">
    <path clip-path="url(#p83b809b671)" d="M 244.051818 242.44 
L 252.209091 242.44 
L 252.209091 242.44 
L 244.051818 242.44 
z
" style="fill:#0000ff;"/>
   </g>
   <g id="patch_29">
    <path clip-path="url(#p83b809b671)" d="M 252.209091 242.44 
L 260.366364 242.44 
L 260.366364 242.44 
L 252.209091 242.44 
z
" style="fill:#0000ff;"/>
   </g>
   <g id="patch_30">
    <path clip-path="url(#p83b809b671)" d="M 260.366364 242.44 
L 268.523636 242.44 
L 268.523636 242.44 
L 260.366364 242.44 
z
" style="fill:#0000ff;"/>
   </g>
   <g id="patch_31">
    <path clip-path="url(#p83b809b671)" d="M 268.523636 242.44 
L 276.680909 242.44 
L 276.680909 168.903492 
L 268.523636 168.903492 
z
" style="fill:#0000ff;"/>
   </g>
   <g id="patch_32">
    <path clip-path="url(#p83b809b671)" d="M 276.680909 242.44 
L 284.838182 242.44 
L 284.838182 168.903492 
L 276.680909 168.903492 
z
" style="fill:#0000ff;"/>
   </g>
   <g id="patch_33">
    <path clip-path="url(#p83b809b671)" d="M 284.838182 242.44 
L 292.995455 242.44 
L 292.995455 242.44 
L 284.838182 242.44 
z
" style="fill:#0000ff;"/>
   </g>
   <g id="patch_34">
    <path clip-path="url(#p83b809b671)" d="M 292.995455 242.44 
L 301.152727 242.44 
L 301.152727 242.44 
L 292.995455 242.44 
z
" style="fill:#0000ff;"/>
   </g>
   <g id="patch_35">
    <path clip-path="url(#p83b809b671)" d="M 301.152727 242.44 
L 309.31 242.44 
L 309.31 242.44 
L 301.152727 242.44 
z
" style="fill:#0000ff;"/>
   </g>
   <g id="patch_36">
    <path clip-path="url(#p83b809b671)" d="M 309.31 242.44 
L 317.467273 242.44 
L 317.467273 168.903492 
L 309.31 168.903492 
z
" style="fill:#0000ff;"/>
   </g>
   <g id="patch_37">
    <path clip-path="url(#p83b809b671)" d="M 317.467273 242.44 
L 325.624545 242.44 
L 325.624545 242.44 
L 317.467273 242.44 
z
" style="fill:#0000ff;"/>
   </g>
   <g id="patch_38">
    <path clip-path="url(#p83b809b671)" d="M 325.624545 242.44 
L 333.781818 242.44 
L 333.781818 168.903492 
L 325.624545 168.903492 
z
" style="fill:#0000ff;"/>
   </g>
   <g id="patch_39">
    <path clip-path="url(#p83b809b671)" d="M 333.781818 242.44 
L 341.939091 242.44 
L 341.939091 242.44 
L 333.781818 242.44 
z
" style="fill:#0000ff;"/>
   </g>
   <g id="patch_40">
    <path clip-path="url(#p83b809b671)" d="M 341.939091 242.44 
L 350.096364 242.44 
L 350.096364 242.44 
L 341.939091 242.44 
z
" style="fill:#0000ff;"/>
   </g>
   <g id="patch_41">
    <path clip-path="url(#p83b809b671)" d="M 350.096364 242.44 
L 358.253636 242.44 
L 358.253636 242.44 
L 350.096364 242.44 
z
" style="fill:#0000ff;"/>
   </g>
   <g id="patch_42">
    <path clip-path="url(#p83b809b671)" d="M 358.253636 242.44 
L 366.410909 242.44 
L 366.410909 242.44 
L 358.253636 242.44 
z
" style="fill:#0000ff;"/>
   </g>
   <g id="patch_43">
    <path clip-path="url(#p83b809b671)" d="M 366.410909 242.44 
L 374.568182 242.44 
L 374.568182 168.903492 
L 366.410909 168.903492 
z
" style="fill:#0000ff;"/>
   </g>
   <g id="patch_44">
    <path clip-path="url(#p83b809b671)" d="M 374.568182 242.44 
L 382.725455 242.44 
L 382.725455 242.44 
L 374.568182 242.44 
z
" style="fill:#0000ff;"/>
   </g>
   <g id="patch_45">
    <path clip-path="url(#p83b809b671)" d="M 382.725455 242.44 
L 390.882727 242.44 
L 390.882727 95.366984 
L 382.725455 95.366984 
z
" style="fill:#0000ff;"/>
   </g>
   <g id="patch_46">
    <path clip-path="url(#p83b809b671)" d="M 390.882727 242.44 
L 399.04 242.44 
L 399.04 168.903492 
L 390.882727 168.903492 
z
" style="fill:#0000ff;"/>
   </g>
   <g id="patch_47">
    <path clip-path="url(#p83b809b671)" d="M 399.04 242.44 
L 407.197273 242.44 
L 407.197273 168.903492 
L 399.04 168.903492 
z
" style="fill:#0000ff;"/>
   </g>
   <g id="patch_48">
    <path clip-path="url(#p83b809b671)" d="M 407.197273 242.44 
L 415.354545 242.44 
L 415.354545 242.44 
L 407.197273 242.44 
z
" style="fill:#0000ff;"/>
   </g>
   <g id="patch_49">
    <path clip-path="url(#p83b809b671)" d="M 415.354545 242.44 
L 423.511818 242.44 
L 423.511818 168.903492 
L 415.354545 168.903492 
z
" style="fill:#0000ff;"/>
   </g>
   <g id="patch_50">
    <path clip-path="url(#p83b809b671)" d="M 423.511818 242.44 
L 431.669091 242.44 
L 431.669091 242.44 
L 423.511818 242.44 
z
" style="fill:#0000ff;"/>
   </g>
   <g id="patch_51">
    <path clip-path="url(#p83b809b671)" d="M 431.669091 242.44 
L 439.826364 242.44 
L 439.826364 168.903492 
L 431.669091 168.903492 
z
" style="fill:#0000ff;"/>
   </g>
   <g id="patch_52">
    <path clip-path="url(#p83b809b671)" d="M 439.826364 242.44 
L 447.983636 242.44 
L 447.983636 242.44 
L 439.826364 242.44 
z
" style="fill:#0000ff;"/>
   </g>
   <g id="patch_53">
    <path clip-path="url(#p83b809b671)" d="M 447.983636 242.44 
L 456.140909 242.44 
L 456.140909 168.903492 
L 447.983636 168.903492 
z
" style="fill:#0000ff;"/>
   </g>
   <g id="patch_54">
    <path clip-path="url(#p83b809b671)" d="M 456.140909 242.44 
L 464.298182 242.44 
L 464.298182 242.44 
L 456.140909 242.44 
z
" style="fill:#0000ff;"/>
   </g>
   <g id="patch_55">
    <path clip-path="url(#p83b809b671)" d="M 464.298182 242.44 
L 472.455455 242.44 
L 472.455455 242.44 
L 464.298182 242.44 
z
" style="fill:#0000ff;"/>
   </g>
   <g id="patch_56">
    <path clip-path="url(#p83b809b671)" d="M 472.455455 242.44 
L 480.612727 242.44 
L 480.612727 242.44 
L 472.455455 242.44 
z
" style="fill:#0000ff;"/>
   </g>
   <g id="patch_57">
    <path clip-path="url(#p83b809b671)" d="M 480.612727 242.44 
L 488.77 242.44 
L 488.77 168.903492 
L 480.612727 168.903492 
z
" style="fill:#0000ff;"/>
   </g>
   <g id="patch_58">
    <path clip-path="url(#p83b809b671)" d="M 40.12 242.44 
L 48.277273 242.44 
L 48.277273 168.903492 
L 40.12 168.903492 
z
" style="fill:#ffa500;opacity:0.8;"/>
   </g>
   <g id="patch_59">
    <path clip-path="url(#p83b809b671)" d="M 48.277273 242.44 
L 56.434545 242.44 
L 56.434545 168.903492 
L 48.277273 168.903492 
z
" style="fill:#ffa500;opacity:0.8;"/>
   </g>
   <g id="patch_60">
    <path clip-path="url(#p83b809b671)" d="M 56.434545 242.44 
L 64.591818 242.44 
L 64.591818 95.366984 
L 56.434545 95.366984 
z
" style="fill:#ffa500;opacity:0.8;"/>
   </g>
   <g id="patch_61">
    <path clip-path="url(#p83b809b671)" d="M 64.591818 242.44 
L 72.749091 242.44 
L 72.749091 95.366984 
L 64.591818 95.366984 
z
" style="fill:#ffa500;opacity:0.8;"/>
   </g>
   <g id="patch_62">
    <path clip-path="url(#p83b809b671)" d="M 72.749091 242.44 
L 80.906364 242.44 
L 80.906364 168.903492 
L 72.749091 168.903492 
z
" style="fill:#ffa500;opacity:0.8;"/>
   </g>
   <g id="patch_63">
    <path clip-path="url(#p83b809b671)" d="M 80.906364 242.44 
L 89.063636 242.44 
L 89.063636 21.830476 
L 80.906364 21.830476 
z
" style="fill:#ffa500;opacity:0.8;"/>
   </g>
   <g id="patch_64">
    <path clip-path="url(#p83b809b671)" d="M 89.063636 242.44 
L 97.220909 242.44 
L 97.220909 242.44 
L 89.063636 242.44 
z
" style="fill:#ffa500;opacity:0.8;"/>
   </g>
   <g id="patch_65">
    <path clip-path="url(#p83b809b671)" d="M 97.220909 242.44 
L 105.378182 242.44 
L 105.378182 95.366984 
L 97.220909 95.366984 
z
" style="fill:#ffa500;opacity:0.8;"/>
   </g>
   <g id="patch_66">
    <path clip-path="url(#p83b809b671)" d="M 105.378182 242.44 
L 113.535455 242.44 
L 113.535455 168.903492 
L 105.378182 168.903492 
z
" style="fill:#ffa500;opacity:0.8;"/>
   </g>
   <g id="patch_67">
    <path clip-path="url(#p83b809b671)" d="M 113.535455 242.44 
L 121.692727 242.44 
L 121.692727 95.366984 
L 113.535455 95.366984 
z
" style="fill:#ffa500;opacity:0.8;"/>
   </g>
   <g id="patch_68">
    <path clip-path="url(#p83b809b671)" d="M 121.692727 242.44 
L 129.85 242.44 
L 129.85 168.903492 
L 121.692727 168.903492 
z
" style="fill:#ffa500;opacity:0.8;"/>
   </g>
   <g id="patch_69">
    <path clip-path="url(#p83b809b671)" d="M 129.85 242.44 
L 138.007273 242.44 
L 138.007273 242.44 
L 129.85 242.44 
z
" style="fill:#ffa500;opacity:0.8;"/>
   </g>
   <g id="patch_70">
    <path clip-path="url(#p83b809b671)" d="M 138.007273 242.44 
L 146.164545 242.44 
L 146.164545 242.44 
L 138.007273 242.44 
z
" style="fill:#ffa500;opacity:0.8;"/>
   </g>
   <g id="patch_71">
    <path clip-path="url(#p83b809b671)" d="M 146.164545 242.44 
L 154.321818 242.44 
L 154.321818 242.44 
L 146.164545 242.44 
z
" style="fill:#ffa500;opacity:0.8;"/>
   </g>
   <g id="patch_72">
    <path clip-path="url(#p83b809b671)" d="M 154.321818 242.44 
L 162.479091 242.44 
L 162.479091 168.903492 
L 154.321818 168.903492 
z
" style="fill:#ffa500;opacity:0.8;"/>
   </g>
   <g id="patch_73">
    <path clip-path="url(#p83b809b671)" d="M 162.479091 242.44 
L 170.636364 242.44 
L 170.636364 242.44 
L 162.479091 242.44 
z
" style="fill:#ffa500;opacity:0.8;"/>
   </g>
   <g id="patch_74">
    <path clip-path="url(#p83b809b671)" d="M 170.636364 242.44 
L 178.793636 242.44 
L 178.793636 95.366984 
L 170.636364 95.366984 
z
" style="fill:#ffa500;opacity:0.8;"/>
   </g>
   <g id="patch_75">
    <path clip-path="url(#p83b809b671)" d="M 178.793636 242.44 
L 186.950909 242.44 
L 186.950909 242.44 
L 178.793636 242.44 
z
" style="fill:#ffa500;opacity:0.8;"/>
   </g>
   <g id="patch_76">
    <path clip-path="url(#p83b809b671)" d="M 186.950909 242.44 
L 195.108182 242.44 
L 195.108182 242.44 
L 186.950909 242.44 
z
" style="fill:#ffa500;opacity:0.8;"/>
   </g>
   <g id="patch_77">
    <path clip-path="url(#p83b809b671)" d="M 195.108182 242.44 
L 203.265455 242.44 
L 203.265455 242.44 
L 195.108182 242.44 
z
" style="fill:#ffa500;opacity:0.8;"/>
   </g>
   <g id="patch_78">
    <path clip-path="url(#p83b809b671)" d="M 203.265455 242.44 
L 211.422727 242.44 
L 211.422727 242.44 
L 203.265455 242.44 
z
" style="fill:#ffa500;opacity:0.8;"/>
   </g>
   <g id="patch_79">
    <path clip-path="url(#p83b809b671)" d="M 211.422727 242.44 
L 219.58 242.44 
L 219.58 168.903492 
L 211.422727 168.903492 
z
" style="fill:#ffa500;opacity:0.8;"/>
   </g>
   <g id="patch_80">
    <path clip-path="url(#p83b809b671)" d="M 219.58 242.44 
L 227.737273 242.44 
L 227.737273 242.44 
L 219.58 242.44 
z
" style="fill:#ffa500;opacity:0.8;"/>
   </g>
   <g id="patch_81">
    <path clip-path="url(#p83b809b671)" d="M 227.737273 242.44 
L 235.894545 242.44 
L 235.894545 242.44 
L 227.737273 242.44 
z
" style="fill:#ffa500;opacity:0.8;"/>
   </g>
   <g id="patch_82">
    <path clip-path="url(#p83b809b671)" d="M 235.894545 242.44 
L 244.051818 242.44 
L 244.051818 242.44 
L 235.894545 242.44 
z
" style="fill:#ffa500;opacity:0.8;"/>
   </g>
   <g id="patch_83">
    <path clip-path="url(#p83b809b671)" d="M 244.051818 242.44 
L 252.209091 242.44 
L 252.209091 242.44 
L 244.051818 242.44 
z
" style="fill:#ffa500;opacity:0.8;"/>
   </g>
   <g id="patch_84">
    <path clip-path="url(#p83b809b671)" d="M 252.209091 242.44 
L 260.366364 242.44 
L 260.366364 242.44 
L 252.209091 242.44 
z
" style="fill:#ffa500;opacity:0.8;"/>
   </g>
   <g id="patch_85">
    <path clip-path="url(#p83b809b671)" d="M 260.366364 242.44 
L 268.523636 242.44 
L 268.523636 168.903492 
L 260.366364 168.903492 
z
" style="fill:#ffa500;opacity:0.8;"/>
   </g>
   <g id="matplotlib.axis_1">
    <g id="xtick_1">
     <g id="line2d_1">
      <defs>
       <path d="M 0 0 
L 0 3.5 
" id="md2bf62df27" style="stroke:#000000;stroke-width:0.8;"/>
      </defs>
      <g>
       <use style="stroke:#000000;stroke-width:0.8;" x="44.198636" xlink:href="#md2bf62df27" y="242.44"/>
      </g>
     </g>
     <g id="text_1">
      <!-- 0 -->
      <defs>
       <path d="M 31.78125 66.40625 
Q 24.171875 66.40625 20.328125 58.90625 
Q 16.5 51.421875 16.5 36.375 
Q 16.5 21.390625 20.328125 13.890625 
Q 24.171875 6.390625 31.78125 6.390625 
Q 39.453125 6.390625 43.28125 13.890625 
Q 47.125 21.390625 47.125 36.375 
Q 47.125 51.421875 43.28125 58.90625 
Q 39.453125 66.40625 31.78125 66.40625 
z
M 31.78125 74.21875 
Q 44.046875 74.21875 50.515625 64.515625 
Q 56.984375 54.828125 56.984375 36.375 
Q 56.984375 17.96875 50.515625 8.265625 
Q 44.046875 -1.421875 31.78125 -1.421875 
Q 19.53125 -1.421875 13.0625 8.265625 
Q 6.59375 17.96875 6.59375 36.375 
Q 6.59375 54.828125 13.0625 64.515625 
Q 19.53125 74.21875 31.78125 74.21875 
z
" id="DejaVuSans-48"/>
      </defs>
      <g transform="translate(41.017386 257.038437)scale(0.1 -0.1)">
       <use xlink:href="#DejaVuSans-48"/>
      </g>
     </g>
    </g>
    <g id="xtick_2">
     <g id="line2d_2">
      <g>
       <use style="stroke:#000000;stroke-width:0.8;" x="125.771364" xlink:href="#md2bf62df27" y="242.44"/>
      </g>
     </g>
     <g id="text_2">
      <!-- 10 -->
      <defs>
       <path d="M 12.40625 8.296875 
L 28.515625 8.296875 
L 28.515625 63.921875 
L 10.984375 60.40625 
L 10.984375 69.390625 
L 28.421875 72.90625 
L 38.28125 72.90625 
L 38.28125 8.296875 
L 54.390625 8.296875 
L 54.390625 0 
L 12.40625 0 
z
" id="DejaVuSans-49"/>
      </defs>
      <g transform="translate(119.408864 257.038437)scale(0.1 -0.1)">
       <use xlink:href="#DejaVuSans-49"/>
       <use x="63.623047" xlink:href="#DejaVuSans-48"/>
      </g>
     </g>
    </g>
    <g id="xtick_3">
     <g id="line2d_3">
      <g>
       <use style="stroke:#000000;stroke-width:0.8;" x="207.344091" xlink:href="#md2bf62df27" y="242.44"/>
      </g>
     </g>
     <g id="text_3">
      <!-- 20 -->
      <defs>
       <path d="M 19.1875 8.296875 
L 53.609375 8.296875 
L 53.609375 0 
L 7.328125 0 
L 7.328125 8.296875 
Q 12.9375 14.109375 22.625 23.890625 
Q 32.328125 33.6875 34.8125 36.53125 
Q 39.546875 41.84375 41.421875 45.53125 
Q 43.3125 49.21875 43.3125 52.78125 
Q 43.3125 58.59375 39.234375 62.25 
Q 35.15625 65.921875 28.609375 65.921875 
Q 23.96875 65.921875 18.8125 64.3125 
Q 13.671875 62.703125 7.8125 59.421875 
L 7.8125 69.390625 
Q 13.765625 71.78125 18.9375 73 
Q 24.125 74.21875 28.421875 74.21875 
Q 39.75 74.21875 46.484375 68.546875 
Q 53.21875 62.890625 53.21875 53.421875 
Q 53.21875 48.921875 51.53125 44.890625 
Q 49.859375 40.875 45.40625 35.40625 
Q 44.1875 33.984375 37.640625 27.21875 
Q 31.109375 20.453125 19.1875 8.296875 
z
" id="DejaVuSans-50"/>
      </defs>
      <g transform="translate(200.981591 257.038437)scale(0.1 -0.1)">
       <use xlink:href="#DejaVuSans-50"/>
       <use x="63.623047" xlink:href="#DejaVuSans-48"/>
      </g>
     </g>
    </g>
    <g id="xtick_4">
     <g id="line2d_4">
      <g>
       <use style="stroke:#000000;stroke-width:0.8;" x="288.916818" xlink:href="#md2bf62df27" y="242.44"/>
      </g>
     </g>
     <g id="text_4">
      <!-- 30 -->
      <defs>
       <path d="M 40.578125 39.3125 
Q 47.65625 37.796875 51.625 33 
Q 55.609375 28.21875 55.609375 21.1875 
Q 55.609375 10.40625 48.1875 4.484375 
Q 40.765625 -1.421875 27.09375 -1.421875 
Q 22.515625 -1.421875 17.65625 -0.515625 
Q 12.796875 0.390625 7.625 2.203125 
L 7.625 11.71875 
Q 11.71875 9.328125 16.59375 8.109375 
Q 21.484375 6.890625 26.8125 6.890625 
Q 36.078125 6.890625 40.9375 10.546875 
Q 45.796875 14.203125 45.796875 21.1875 
Q 45.796875 27.640625 41.28125 31.265625 
Q 36.765625 34.90625 28.71875 34.90625 
L 20.21875 34.90625 
L 20.21875 43.015625 
L 29.109375 43.015625 
Q 36.375 43.015625 40.234375 45.921875 
Q 44.09375 48.828125 44.09375 54.296875 
Q 44.09375 59.90625 40.109375 62.90625 
Q 36.140625 65.921875 28.71875 65.921875 
Q 24.65625 65.921875 20.015625 65.03125 
Q 15.375 64.15625 9.8125 62.3125 
L 9.8125 71.09375 
Q 15.4375 72.65625 20.34375 73.4375 
Q 25.25 74.21875 29.59375 74.21875 
Q 40.828125 74.21875 47.359375 69.109375 
Q 53.90625 64.015625 53.90625 55.328125 
Q 53.90625 49.265625 50.4375 45.09375 
Q 46.96875 40.921875 40.578125 39.3125 
z
" id="DejaVuSans-51"/>
      </defs>
      <g transform="translate(282.554318 257.038437)scale(0.1 -0.1)">
       <use xlink:href="#DejaVuSans-51"/>
       <use x="63.623047" xlink:href="#DejaVuSans-48"/>
      </g>
     </g>
    </g>
    <g id="xtick_5">
     <g id="line2d_5">
      <g>
       <use style="stroke:#000000;stroke-width:0.8;" x="370.489545" xlink:href="#md2bf62df27" y="242.44"/>
      </g>
     </g>
     <g id="text_5">
      <!-- 40 -->
      <defs>
       <path d="M 37.796875 64.3125 
L 12.890625 25.390625 
L 37.796875 25.390625 
z
M 35.203125 72.90625 
L 47.609375 72.90625 
L 47.609375 25.390625 
L 58.015625 25.390625 
L 58.015625 17.1875 
L 47.609375 17.1875 
L 47.609375 0 
L 37.796875 0 
L 37.796875 17.1875 
L 4.890625 17.1875 
L 4.890625 26.703125 
z
" id="DejaVuSans-52"/>
      </defs>
      <g transform="translate(364.127045 257.038437)scale(0.1 -0.1)">
       <use xlink:href="#DejaVuSans-52"/>
       <use x="63.623047" xlink:href="#DejaVuSans-48"/>
      </g>
     </g>
    </g>
    <g id="xtick_6">
     <g id="line2d_6">
      <g>
       <use style="stroke:#000000;stroke-width:0.8;" x="452.062273" xlink:href="#md2bf62df27" y="242.44"/>
      </g>
     </g>
     <g id="text_6">
      <!-- 50 -->
      <defs>
       <path d="M 10.796875 72.90625 
L 49.515625 72.90625 
L 49.515625 64.59375 
L 19.828125 64.59375 
L 19.828125 46.734375 
Q 21.96875 47.46875 24.109375 47.828125 
Q 26.265625 48.1875 28.421875 48.1875 
Q 40.625 48.1875 47.75 41.5 
Q 54.890625 34.8125 54.890625 23.390625 
Q 54.890625 11.625 47.5625 5.09375 
Q 40.234375 -1.421875 26.90625 -1.421875 
Q 22.3125 -1.421875 17.546875 -0.640625 
Q 12.796875 0.140625 7.71875 1.703125 
L 7.71875 11.625 
Q 12.109375 9.234375 16.796875 8.0625 
Q 21.484375 6.890625 26.703125 6.890625 
Q 35.15625 6.890625 40.078125 11.328125 
Q 45.015625 15.765625 45.015625 23.390625 
Q 45.015625 31 40.078125 35.4375 
Q 35.15625 39.890625 26.703125 39.890625 
Q 22.75 39.890625 18.8125 39.015625 
Q 14.890625 38.140625 10.796875 36.28125 
z
" id="DejaVuSans-53"/>
      </defs>
      <g transform="translate(445.699773 257.038437)scale(0.1 -0.1)">
       <use xlink:href="#DejaVuSans-53"/>
       <use x="63.623047" xlink:href="#DejaVuSans-48"/>
      </g>
     </g>
    </g>
    <g id="text_7">
     <!-- Number of replays per trial -->
     <defs>
      <path d="M 9.8125 72.90625 
L 23.09375 72.90625 
L 55.421875 11.921875 
L 55.421875 72.90625 
L 64.984375 72.90625 
L 64.984375 0 
L 51.703125 0 
L 19.390625 60.984375 
L 19.390625 0 
L 9.8125 0 
z
" id="DejaVuSans-78"/>
      <path d="M 8.5 21.578125 
L 8.5 54.6875 
L 17.484375 54.6875 
L 17.484375 21.921875 
Q 17.484375 14.15625 20.5 10.265625 
Q 23.53125 6.390625 29.59375 6.390625 
Q 36.859375 6.390625 41.078125 11.03125 
Q 45.3125 15.671875 45.3125 23.6875 
L 45.3125 54.6875 
L 54.296875 54.6875 
L 54.296875 0 
L 45.3125 0 
L 45.3125 8.40625 
Q 42.046875 3.421875 37.71875 1 
Q 33.40625 -1.421875 27.6875 -1.421875 
Q 18.265625 -1.421875 13.375 4.4375 
Q 8.5 10.296875 8.5 21.578125 
z
M 31.109375 56 
z
" id="DejaVuSans-117"/>
      <path d="M 52 44.1875 
Q 55.375 50.25 60.0625 53.125 
Q 64.75 56 71.09375 56 
Q 79.640625 56 84.28125 50.015625 
Q 88.921875 44.046875 88.921875 33.015625 
L 88.921875 0 
L 79.890625 0 
L 79.890625 32.71875 
Q 79.890625 40.578125 77.09375 44.375 
Q 74.3125 48.1875 68.609375 48.1875 
Q 61.625 48.1875 57.5625 43.546875 
Q 53.515625 38.921875 53.515625 30.90625 
L 53.515625 0 
L 44.484375 0 
L 44.484375 32.71875 
Q 44.484375 40.625 41.703125 44.40625 
Q 38.921875 48.1875 33.109375 48.1875 
Q 26.21875 48.1875 22.15625 43.53125 
Q 18.109375 38.875 18.109375 30.90625 
L 18.109375 0 
L 9.078125 0 
L 9.078125 54.6875 
L 18.109375 54.6875 
L 18.109375 46.1875 
Q 21.1875 51.21875 25.484375 53.609375 
Q 29.78125 56 35.6875 56 
Q 41.65625 56 45.828125 52.96875 
Q 50 49.953125 52 44.1875 
z
" id="DejaVuSans-109"/>
      <path d="M 48.6875 27.296875 
Q 48.6875 37.203125 44.609375 42.84375 
Q 40.53125 48.484375 33.40625 48.484375 
Q 26.265625 48.484375 22.1875 42.84375 
Q 18.109375 37.203125 18.109375 27.296875 
Q 18.109375 17.390625 22.1875 11.75 
Q 26.265625 6.109375 33.40625 6.109375 
Q 40.53125 6.109375 44.609375 11.75 
Q 48.6875 17.390625 48.6875 27.296875 
z
M 18.109375 46.390625 
Q 20.953125 51.265625 25.265625 53.625 
Q 29.59375 56 35.59375 56 
Q 45.5625 56 51.78125 48.09375 
Q 58.015625 40.1875 58.015625 27.296875 
Q 58.015625 14.40625 51.78125 6.484375 
Q 45.5625 -1.421875 35.59375 -1.421875 
Q 29.59375 -1.421875 25.265625 0.953125 
Q 20.953125 3.328125 18.109375 8.203125 
L 18.109375 0 
L 9.078125 0 
L 9.078125 75.984375 
L 18.109375 75.984375 
z
" id="DejaVuSans-98"/>
      <path d="M 56.203125 29.59375 
L 56.203125 25.203125 
L 14.890625 25.203125 
Q 15.484375 15.921875 20.484375 11.0625 
Q 25.484375 6.203125 34.421875 6.203125 
Q 39.59375 6.203125 44.453125 7.46875 
Q 49.3125 8.734375 54.109375 11.28125 
L 54.109375 2.78125 
Q 49.265625 0.734375 44.1875 -0.34375 
Q 39.109375 -1.421875 33.890625 -1.421875 
Q 20.796875 -1.421875 13.15625 6.1875 
Q 5.515625 13.8125 5.515625 26.8125 
Q 5.515625 40.234375 12.765625 48.109375 
Q 20.015625 56 32.328125 56 
Q 43.359375 56 49.78125 48.890625 
Q 56.203125 41.796875 56.203125 29.59375 
z
M 47.21875 32.234375 
Q 47.125 39.59375 43.09375 43.984375 
Q 39.0625 48.390625 32.421875 48.390625 
Q 24.90625 48.390625 20.390625 44.140625 
Q 15.875 39.890625 15.1875 32.171875 
z
" id="DejaVuSans-101"/>
      <path d="M 41.109375 46.296875 
Q 39.59375 47.171875 37.8125 47.578125 
Q 36.03125 48 33.890625 48 
Q 26.265625 48 22.1875 43.046875 
Q 18.109375 38.09375 18.109375 28.8125 
L 18.109375 0 
L 9.078125 0 
L 9.078125 54.6875 
L 18.109375 54.6875 
L 18.109375 46.1875 
Q 20.953125 51.171875 25.484375 53.578125 
Q 30.03125 56 36.53125 56 
Q 37.453125 56 38.578125 55.875 
Q 39.703125 55.765625 41.0625 55.515625 
z
" id="DejaVuSans-114"/>
      <path id="DejaVuSans-32"/>
      <path d="M 30.609375 48.390625 
Q 23.390625 48.390625 19.1875 42.75 
Q 14.984375 37.109375 14.984375 27.296875 
Q 14.984375 17.484375 19.15625 11.84375 
Q 23.34375 6.203125 30.609375 6.203125 
Q 37.796875 6.203125 41.984375 11.859375 
Q 46.1875 17.53125 46.1875 27.296875 
Q 46.1875 37.015625 41.984375 42.703125 
Q 37.796875 48.390625 30.609375 48.390625 
z
M 30.609375 56 
Q 42.328125 56 49.015625 48.375 
Q 55.71875 40.765625 55.71875 27.296875 
Q 55.71875 13.875 49.015625 6.21875 
Q 42.328125 -1.421875 30.609375 -1.421875 
Q 18.84375 -1.421875 12.171875 6.21875 
Q 5.515625 13.875 5.515625 27.296875 
Q 5.515625 40.765625 12.171875 48.375 
Q 18.84375 56 30.609375 56 
z
" id="DejaVuSans-111"/>
      <path d="M 37.109375 75.984375 
L 37.109375 68.5 
L 28.515625 68.5 
Q 23.6875 68.5 21.796875 66.546875 
Q 19.921875 64.59375 19.921875 59.515625 
L 19.921875 54.6875 
L 34.71875 54.6875 
L 34.71875 47.703125 
L 19.921875 47.703125 
L 19.921875 0 
L 10.890625 0 
L 10.890625 47.703125 
L 2.296875 47.703125 
L 2.296875 54.6875 
L 10.890625 54.6875 
L 10.890625 58.5 
Q 10.890625 67.625 15.140625 71.796875 
Q 19.390625 75.984375 28.609375 75.984375 
z
" id="DejaVuSans-102"/>
      <path d="M 18.109375 8.203125 
L 18.109375 -20.796875 
L 9.078125 -20.796875 
L 9.078125 54.6875 
L 18.109375 54.6875 
L 18.109375 46.390625 
Q 20.953125 51.265625 25.265625 53.625 
Q 29.59375 56 35.59375 56 
Q 45.5625 56 51.78125 48.09375 
Q 58.015625 40.1875 58.015625 27.296875 
Q 58.015625 14.40625 51.78125 6.484375 
Q 45.5625 -1.421875 35.59375 -1.421875 
Q 29.59375 -1.421875 25.265625 0.953125 
Q 20.953125 3.328125 18.109375 8.203125 
z
M 48.6875 27.296875 
Q 48.6875 37.203125 44.609375 42.84375 
Q 40.53125 48.484375 33.40625 48.484375 
Q 26.265625 48.484375 22.1875 42.84375 
Q 18.109375 37.203125 18.109375 27.296875 
Q 18.109375 17.390625 22.1875 11.75 
Q 26.265625 6.109375 33.40625 6.109375 
Q 40.53125 6.109375 44.609375 11.75 
Q 48.6875 17.390625 48.6875 27.296875 
z
" id="DejaVuSans-112"/>
      <path d="M 9.421875 75.984375 
L 18.40625 75.984375 
L 18.40625 0 
L 9.421875 0 
z
" id="DejaVuSans-108"/>
      <path d="M 34.28125 27.484375 
Q 23.390625 27.484375 19.1875 25 
Q 14.984375 22.515625 14.984375 16.5 
Q 14.984375 11.71875 18.140625 8.90625 
Q 21.296875 6.109375 26.703125 6.109375 
Q 34.1875 6.109375 38.703125 11.40625 
Q 43.21875 16.703125 43.21875 25.484375 
L 43.21875 27.484375 
z
M 52.203125 31.203125 
L 52.203125 0 
L 43.21875 0 
L 43.21875 8.296875 
Q 40.140625 3.328125 35.546875 0.953125 
Q 30.953125 -1.421875 24.3125 -1.421875 
Q 15.921875 -1.421875 10.953125 3.296875 
Q 6 8.015625 6 15.921875 
Q 6 25.140625 12.171875 29.828125 
Q 18.359375 34.515625 30.609375 34.515625 
L 43.21875 34.515625 
L 43.21875 35.40625 
Q 43.21875 41.609375 39.140625 45 
Q 35.0625 48.390625 27.6875 48.390625 
Q 23 48.390625 18.546875 47.265625 
Q 14.109375 46.140625 10.015625 43.890625 
L 10.015625 52.203125 
Q 14.9375 54.109375 19.578125 55.046875 
Q 24.21875 56 28.609375 56 
Q 40.484375 56 46.34375 49.84375 
Q 52.203125 43.703125 52.203125 31.203125 
z
" id="DejaVuSans-97"/>
      <path d="M 32.171875 -5.078125 
Q 28.375 -14.84375 24.75 -17.8125 
Q 21.140625 -20.796875 15.09375 -20.796875 
L 7.90625 -20.796875 
L 7.90625 -13.28125 
L 13.1875 -13.28125 
Q 16.890625 -13.28125 18.9375 -11.515625 
Q 21 -9.765625 23.484375 -3.21875 
L 25.09375 0.875 
L 2.984375 54.6875 
L 12.5 54.6875 
L 29.59375 11.921875 
L 46.6875 54.6875 
L 56.203125 54.6875 
z
" id="DejaVuSans-121"/>
      <path d="M 44.28125 53.078125 
L 44.28125 44.578125 
Q 40.484375 46.53125 36.375 47.5 
Q 32.28125 48.484375 27.875 48.484375 
Q 21.1875 48.484375 17.84375 46.4375 
Q 14.5 44.390625 14.5 40.28125 
Q 14.5 37.15625 16.890625 35.375 
Q 19.28125 33.59375 26.515625 31.984375 
L 29.59375 31.296875 
Q 39.15625 29.25 43.1875 25.515625 
Q 47.21875 21.78125 47.21875 15.09375 
Q 47.21875 7.46875 41.1875 3.015625 
Q 35.15625 -1.421875 24.609375 -1.421875 
Q 20.21875 -1.421875 15.453125 -0.5625 
Q 10.6875 0.296875 5.421875 2 
L 5.421875 11.28125 
Q 10.40625 8.6875 15.234375 7.390625 
Q 20.0625 6.109375 24.8125 6.109375 
Q 31.15625 6.109375 34.5625 8.28125 
Q 37.984375 10.453125 37.984375 14.40625 
Q 37.984375 18.0625 35.515625 20.015625 
Q 33.0625 21.96875 24.703125 23.78125 
L 21.578125 24.515625 
Q 13.234375 26.265625 9.515625 29.90625 
Q 5.8125 33.546875 5.8125 39.890625 
Q 5.8125 47.609375 11.28125 51.796875 
Q 16.75 56 26.8125 56 
Q 31.78125 56 36.171875 55.265625 
Q 40.578125 54.546875 44.28125 53.078125 
z
" id="DejaVuSans-115"/>
      <path d="M 18.3125 70.21875 
L 18.3125 54.6875 
L 36.8125 54.6875 
L 36.8125 47.703125 
L 18.3125 47.703125 
L 18.3125 18.015625 
Q 18.3125 11.328125 20.140625 9.421875 
Q 21.96875 7.515625 27.59375 7.515625 
L 36.8125 7.515625 
L 36.8125 0 
L 27.59375 0 
Q 17.1875 0 13.234375 3.875 
Q 9.28125 7.765625 9.28125 18.015625 
L 9.28125 47.703125 
L 2.6875 47.703125 
L 2.6875 54.6875 
L 9.28125 54.6875 
L 9.28125 70.21875 
z
" id="DejaVuSans-116"/>
      <path d="M 9.421875 54.6875 
L 18.40625 54.6875 
L 18.40625 0 
L 9.421875 0 
z
M 9.421875 75.984375 
L 18.40625 75.984375 
L 18.40625 64.59375 
L 9.421875 64.59375 
z
" id="DejaVuSans-105"/>
     </defs>
     <g transform="translate(169.598281 273.755938)scale(0.14 -0.14)">
      <use xlink:href="#DejaVuSans-78"/>
      <use x="74.804688" xlink:href="#DejaVuSans-117"/>
      <use x="138.183594" xlink:href="#DejaVuSans-109"/>
      <use x="235.595703" xlink:href="#DejaVuSans-98"/>
      <use x="299.072266" xlink:href="#DejaVuSans-101"/>
      <use x="360.595703" xlink:href="#DejaVuSans-114"/>
      <use x="401.708984" xlink:href="#DejaVuSans-32"/>
      <use x="433.496094" xlink:href="#DejaVuSans-111"/>
      <use x="494.677734" xlink:href="#DejaVuSans-102"/>
      <use x="529.882812" xlink:href="#DejaVuSans-32"/>
      <use x="561.669922" xlink:href="#DejaVuSans-114"/>
      <use x="602.751953" xlink:href="#DejaVuSans-101"/>
      <use x="664.275391" xlink:href="#DejaVuSans-112"/>
      <use x="727.751953" xlink:href="#DejaVuSans-108"/>
      <use x="755.535156" xlink:href="#DejaVuSans-97"/>
      <use x="816.814453" xlink:href="#DejaVuSans-121"/>
      <use x="875.994141" xlink:href="#DejaVuSans-115"/>
      <use x="928.09375" xlink:href="#DejaVuSans-32"/>
      <use x="959.880859" xlink:href="#DejaVuSans-112"/>
      <use x="1023.357422" xlink:href="#DejaVuSans-101"/>
      <use x="1084.880859" xlink:href="#DejaVuSans-114"/>
      <use x="1125.994141" xlink:href="#DejaVuSans-32"/>
      <use x="1157.78125" xlink:href="#DejaVuSans-116"/>
      <use x="1196.990234" xlink:href="#DejaVuSans-114"/>
      <use x="1238.103516" xlink:href="#DejaVuSans-105"/>
      <use x="1265.886719" xlink:href="#DejaVuSans-97"/>
      <use x="1327.166016" xlink:href="#DejaVuSans-108"/>
     </g>
    </g>
   </g>
   <g id="matplotlib.axis_2">
    <g id="ytick_1">
     <g id="line2d_7">
      <defs>
       <path d="M 0 0 
L -3.5 0 
" id="mfb3cb27d7c" style="stroke:#000000;stroke-width:0.8;"/>
      </defs>
      <g>
       <use style="stroke:#000000;stroke-width:0.8;" x="40.12" xlink:href="#mfb3cb27d7c" y="242.44"/>
      </g>
     </g>
     <g id="text_8">
      <!-- 0.00 -->
      <defs>
       <path d="M 10.6875 12.40625 
L 21 12.40625 
L 21 0 
L 10.6875 0 
z
" id="DejaVuSans-46"/>
      </defs>
      <g transform="translate(10.854375 246.239219)scale(0.1 -0.1)">
       <use xlink:href="#DejaVuSans-48"/>
       <use x="63.623047" xlink:href="#DejaVuSans-46"/>
       <use x="95.410156" xlink:href="#DejaVuSans-48"/>
       <use x="159.033203" xlink:href="#DejaVuSans-48"/>
      </g>
     </g>
    </g>
    <g id="ytick_2">
     <g id="line2d_8">
      <g>
       <use style="stroke:#000000;stroke-width:0.8;" x="40.12" xlink:href="#mfb3cb27d7c" y="211.554667"/>
      </g>
     </g>
     <g id="text_9">
      <!-- 0.02 -->
      <g transform="translate(10.854375 215.353885)scale(0.1 -0.1)">
       <use xlink:href="#DejaVuSans-48"/>
       <use x="63.623047" xlink:href="#DejaVuSans-46"/>
       <use x="95.410156" xlink:href="#DejaVuSans-48"/>
       <use x="159.033203" xlink:href="#DejaVuSans-50"/>
      </g>
     </g>
    </g>
    <g id="ytick_3">
     <g id="line2d_9">
      <g>
       <use style="stroke:#000000;stroke-width:0.8;" x="40.12" xlink:href="#mfb3cb27d7c" y="180.669333"/>
      </g>
     </g>
     <g id="text_10">
      <!-- 0.04 -->
      <g transform="translate(10.854375 184.468552)scale(0.1 -0.1)">
       <use xlink:href="#DejaVuSans-48"/>
       <use x="63.623047" xlink:href="#DejaVuSans-46"/>
       <use x="95.410156" xlink:href="#DejaVuSans-48"/>
       <use x="159.033203" xlink:href="#DejaVuSans-52"/>
      </g>
     </g>
    </g>
    <g id="ytick_4">
     <g id="line2d_10">
      <g>
       <use style="stroke:#000000;stroke-width:0.8;" x="40.12" xlink:href="#mfb3cb27d7c" y="149.784"/>
      </g>
     </g>
     <g id="text_11">
      <!-- 0.06 -->
      <defs>
       <path d="M 33.015625 40.375 
Q 26.375 40.375 22.484375 35.828125 
Q 18.609375 31.296875 18.609375 23.390625 
Q 18.609375 15.53125 22.484375 10.953125 
Q 26.375 6.390625 33.015625 6.390625 
Q 39.65625 6.390625 43.53125 10.953125 
Q 47.40625 15.53125 47.40625 23.390625 
Q 47.40625 31.296875 43.53125 35.828125 
Q 39.65625 40.375 33.015625 40.375 
z
M 52.59375 71.296875 
L 52.59375 62.3125 
Q 48.875 64.0625 45.09375 64.984375 
Q 41.3125 65.921875 37.59375 65.921875 
Q 27.828125 65.921875 22.671875 59.328125 
Q 17.53125 52.734375 16.796875 39.40625 
Q 19.671875 43.65625 24.015625 45.921875 
Q 28.375 48.1875 33.59375 48.1875 
Q 44.578125 48.1875 50.953125 41.515625 
Q 57.328125 34.859375 57.328125 23.390625 
Q 57.328125 12.15625 50.6875 5.359375 
Q 44.046875 -1.421875 33.015625 -1.421875 
Q 20.359375 -1.421875 13.671875 8.265625 
Q 6.984375 17.96875 6.984375 36.375 
Q 6.984375 53.65625 15.1875 63.9375 
Q 23.390625 74.21875 37.203125 74.21875 
Q 40.921875 74.21875 44.703125 73.484375 
Q 48.484375 72.75 52.59375 71.296875 
z
" id="DejaVuSans-54"/>
      </defs>
      <g transform="translate(10.854375 153.583219)scale(0.1 -0.1)">
       <use xlink:href="#DejaVuSans-48"/>
       <use x="63.623047" xlink:href="#DejaVuSans-46"/>
       <use x="95.410156" xlink:href="#DejaVuSans-48"/>
       <use x="159.033203" xlink:href="#DejaVuSans-54"/>
      </g>
     </g>
    </g>
    <g id="ytick_5">
     <g id="line2d_11">
      <g>
       <use style="stroke:#000000;stroke-width:0.8;" x="40.12" xlink:href="#mfb3cb27d7c" y="118.898667"/>
      </g>
     </g>
     <g id="text_12">
      <!-- 0.08 -->
      <defs>
       <path d="M 31.78125 34.625 
Q 24.75 34.625 20.71875 30.859375 
Q 16.703125 27.09375 16.703125 20.515625 
Q 16.703125 13.921875 20.71875 10.15625 
Q 24.75 6.390625 31.78125 6.390625 
Q 38.8125 6.390625 42.859375 10.171875 
Q 46.921875 13.96875 46.921875 20.515625 
Q 46.921875 27.09375 42.890625 30.859375 
Q 38.875 34.625 31.78125 34.625 
z
M 21.921875 38.8125 
Q 15.578125 40.375 12.03125 44.71875 
Q 8.5 49.078125 8.5 55.328125 
Q 8.5 64.0625 14.71875 69.140625 
Q 20.953125 74.21875 31.78125 74.21875 
Q 42.671875 74.21875 48.875 69.140625 
Q 55.078125 64.0625 55.078125 55.328125 
Q 55.078125 49.078125 51.53125 44.71875 
Q 48 40.375 41.703125 38.8125 
Q 48.828125 37.15625 52.796875 32.3125 
Q 56.78125 27.484375 56.78125 20.515625 
Q 56.78125 9.90625 50.3125 4.234375 
Q 43.84375 -1.421875 31.78125 -1.421875 
Q 19.734375 -1.421875 13.25 4.234375 
Q 6.78125 9.90625 6.78125 20.515625 
Q 6.78125 27.484375 10.78125 32.3125 
Q 14.796875 37.15625 21.921875 38.8125 
z
M 18.3125 54.390625 
Q 18.3125 48.734375 21.84375 45.5625 
Q 25.390625 42.390625 31.78125 42.390625 
Q 38.140625 42.390625 41.71875 45.5625 
Q 45.3125 48.734375 45.3125 54.390625 
Q 45.3125 60.0625 41.71875 63.234375 
Q 38.140625 66.40625 31.78125 66.40625 
Q 25.390625 66.40625 21.84375 63.234375 
Q 18.3125 60.0625 18.3125 54.390625 
z
" id="DejaVuSans-56"/>
      </defs>
      <g transform="translate(10.854375 122.697885)scale(0.1 -0.1)">
       <use xlink:href="#DejaVuSans-48"/>
       <use x="63.623047" xlink:href="#DejaVuSans-46"/>
       <use x="95.410156" xlink:href="#DejaVuSans-48"/>
       <use x="159.033203" xlink:href="#DejaVuSans-56"/>
      </g>
     </g>
    </g>
    <g id="ytick_6">
     <g id="line2d_12">
      <g>
       <use style="stroke:#000000;stroke-width:0.8;" x="40.12" xlink:href="#mfb3cb27d7c" y="88.013333"/>
      </g>
     </g>
     <g id="text_13">
      <!-- 0.10 -->
      <g transform="translate(10.854375 91.812552)scale(0.1 -0.1)">
       <use xlink:href="#DejaVuSans-48"/>
       <use x="63.623047" xlink:href="#DejaVuSans-46"/>
       <use x="95.410156" xlink:href="#DejaVuSans-49"/>
       <use x="159.033203" xlink:href="#DejaVuSans-48"/>
      </g>
     </g>
    </g>
    <g id="ytick_7">
     <g id="line2d_13">
      <g>
       <use style="stroke:#000000;stroke-width:0.8;" x="40.12" xlink:href="#mfb3cb27d7c" y="57.128"/>
      </g>
     </g>
     <g id="text_14">
      <!-- 0.12 -->
      <g transform="translate(10.854375 60.927219)scale(0.1 -0.1)">
       <use xlink:href="#DejaVuSans-48"/>
       <use x="63.623047" xlink:href="#DejaVuSans-46"/>
       <use x="95.410156" xlink:href="#DejaVuSans-49"/>
       <use x="159.033203" xlink:href="#DejaVuSans-50"/>
      </g>
     </g>
    </g>
    <g id="ytick_8">
     <g id="line2d_14">
      <g>
       <use style="stroke:#000000;stroke-width:0.8;" x="40.12" xlink:href="#mfb3cb27d7c" y="26.242667"/>
      </g>
     </g>
     <g id="text_15">
      <!-- 0.14 -->
      <g transform="translate(10.854375 30.041885)scale(0.1 -0.1)">
       <use xlink:href="#DejaVuSans-48"/>
       <use x="63.623047" xlink:href="#DejaVuSans-46"/>
       <use x="95.410156" xlink:href="#DejaVuSans-49"/>
       <use x="159.033203" xlink:href="#DejaVuSans-52"/>
      </g>
     </g>
    </g>
   </g>
   <g id="patch_86">
    <path d="M 40.12 242.44 
L 40.12 10.8 
" style="fill:none;stroke:#000000;stroke-linecap:square;stroke-linejoin:miter;stroke-width:0.8;"/>
   </g>
   <g id="patch_87">
    <path d="M 488.77 242.44 
L 488.77 10.8 
" style="fill:none;stroke:#000000;stroke-linecap:square;stroke-linejoin:miter;stroke-width:0.8;"/>
   </g>
   <g id="patch_88">
    <path d="M 40.12 242.44 
L 488.77 242.44 
" style="fill:none;stroke:#000000;stroke-linecap:square;stroke-linejoin:miter;stroke-width:0.8;"/>
   </g>
   <g id="patch_89">
    <path d="M 40.12 10.8 
L 488.77 10.8 
" style="fill:none;stroke:#000000;stroke-linecap:square;stroke-linejoin:miter;stroke-width:0.8;"/>
   </g>
  </g>
  <g id="axes_2">
   <g id="patch_90">
    <path d="M 548.55 242.44 
L 997.2 242.44 
L 997.2 10.8 
L 548.55 10.8 
z
" style="fill:none;"/>
   </g>
   <g id="patch_91">
    <path clip-path="url(#pa5eb4f7c26)" d="M 548.55 126.62 
L 560.053846 126.62 
L 560.053846 126.62 
L 548.55 126.62 
z
" style="fill:#0000ff;"/>
   </g>
   <g id="patch_92">
    <path clip-path="url(#pa5eb4f7c26)" d="M 560.053846 126.62 
L 571.557692 126.62 
L 571.557692 126.179666 
L 560.053846 126.179666 
z
" style="fill:#0000ff;"/>
   </g>
   <g id="patch_93">
    <path clip-path="url(#pa5eb4f7c26)" d="M 571.557692 126.62 
L 583.061538 126.62 
L 583.061538 124.5332 
L 571.557692 124.5332 
z
" style="fill:#0000ff;"/>
   </g>
   <g id="patch_94">
    <path clip-path="url(#pa5eb4f7c26)" d="M 583.061538 126.62 
L 594.565385 126.62 
L 594.565385 119.000307 
L 583.061538 119.000307 
z
" style="fill:#0000ff;"/>
   </g>
   <g id="patch_95">
    <path clip-path="url(#pa5eb4f7c26)" d="M 594.565385 126.62 
L 606.069231 126.62 
L 606.069231 117.194299 
L 594.565385 117.194299 
z
" style="fill:#0000ff;"/>
   </g>
   <g id="patch_96">
    <path clip-path="url(#pa5eb4f7c26)" d="M 606.069231 126.62 
L 617.573077 126.62 
L 617.573077 116.683767 
L 606.069231 116.683767 
z
" style="fill:#0000ff;"/>
   </g>
   <g id="patch_97">
    <path clip-path="url(#pa5eb4f7c26)" d="M 617.573077 126.62 
L 629.076923 126.62 
L 629.076923 120.774406 
L 617.573077 120.774406 
z
" style="fill:#0000ff;"/>
   </g>
   <g id="patch_98">
    <path clip-path="url(#pa5eb4f7c26)" d="M 629.076923 126.62 
L 640.580769 126.62 
L 640.580769 119.93841 
L 629.076923 119.93841 
z
" style="fill:#0000ff;"/>
   </g>
   <g id="patch_99">
    <path clip-path="url(#pa5eb4f7c26)" d="M 640.580769 126.62 
L 652.084615 126.62 
L 652.084615 121.29132 
L 640.580769 121.29132 
z
" style="fill:#0000ff;"/>
   </g>
   <g id="patch_100">
    <path clip-path="url(#pa5eb4f7c26)" d="M 652.084615 126.62 
L 663.588462 126.62 
L 663.588462 124.322605 
L 652.084615 124.322605 
z
" style="fill:#0000ff;"/>
   </g>
   <g id="patch_101">
    <path clip-path="url(#pa5eb4f7c26)" d="M 663.588462 126.62 
L 675.092308 126.62 
L 675.092308 121.820997 
L 663.588462 121.820997 
z
" style="fill:#0000ff;"/>
   </g>
   <g id="patch_102">
    <path clip-path="url(#pa5eb4f7c26)" d="M 675.092308 126.62 
L 686.596154 126.62 
L 686.596154 121.597639 
L 675.092308 121.597639 
z
" style="fill:#0000ff;"/>
   </g>
   <g id="patch_103">
    <path clip-path="url(#pa5eb4f7c26)" d="M 686.596154 126.62 
L 698.1 126.62 
L 698.1 119.612945 
L 686.596154 119.612945 
z
" style="fill:#0000ff;"/>
   </g>
   <g id="patch_104">
    <path clip-path="url(#pa5eb4f7c26)" d="M 698.1 126.62 
L 709.603846 126.62 
L 709.603846 116.913506 
L 698.1 116.913506 
z
" style="fill:#0000ff;"/>
   </g>
   <g id="patch_105">
    <path clip-path="url(#pa5eb4f7c26)" d="M 709.603846 126.62 
L 721.107692 126.62 
L 721.107692 118.349378 
L 709.603846 118.349378 
z
" style="fill:#0000ff;"/>
   </g>
   <g id="patch_106">
    <path clip-path="url(#pa5eb4f7c26)" d="M 721.107692 126.62 
L 732.611538 126.62 
L 732.611538 119.651235 
L 721.107692 119.651235 
z
" style="fill:#0000ff;"/>
   </g>
   <g id="patch_107">
    <path clip-path="url(#pa5eb4f7c26)" d="M 732.611538 126.62 
L 744.115385 126.62 
L 744.115385 109.944742 
L 732.611538 109.944742 
z
" style="fill:#0000ff;"/>
   </g>
   <g id="patch_108">
    <path clip-path="url(#pa5eb4f7c26)" d="M 744.115385 126.62 
L 755.619231 126.62 
L 755.619231 113.339781 
L 744.115385 113.339781 
z
" style="fill:#0000ff;"/>
   </g>
   <g id="patch_109">
    <path clip-path="url(#pa5eb4f7c26)" d="M 755.619231 126.62 
L 767.123077 126.62 
L 767.123077 113.780115 
L 755.619231 113.780115 
z
" style="fill:#0000ff;"/>
   </g>
   <g id="patch_110">
    <path clip-path="url(#pa5eb4f7c26)" d="M 767.123077 126.62 
L 778.626923 126.62 
L 778.626923 115.892442 
L 767.123077 115.892442 
z
" style="fill:#0000ff;"/>
   </g>
   <g id="patch_111">
    <path clip-path="url(#pa5eb4f7c26)" d="M 778.626923 126.62 
L 790.130769 126.62 
L 790.130769 46.753618 
L 778.626923 46.753618 
z
" style="fill:#0000ff;"/>
   </g>
   <g id="patch_112">
    <path clip-path="url(#pa5eb4f7c26)" d="M 790.130769 126.62 
L 801.634615 126.62 
L 801.634615 126.62 
L 790.130769 126.62 
z
" style="fill:#0000ff;"/>
   </g>
   <g id="patch_113">
    <path clip-path="url(#pa5eb4f7c26)" d="M 801.634615 126.62 
L 813.138462 126.62 
L 813.138462 126.62 
L 801.634615 126.62 
z
" style="fill:#0000ff;"/>
   </g>
   <g id="patch_114">
    <path clip-path="url(#pa5eb4f7c26)" d="M 813.138462 126.62 
L 824.642308 126.62 
L 824.642308 126.62 
L 813.138462 126.62 
z
" style="fill:#0000ff;"/>
   </g>
   <g id="patch_115">
    <path clip-path="url(#pa5eb4f7c26)" d="M 824.642308 126.62 
L 836.146154 126.62 
L 836.146154 126.62 
L 824.642308 126.62 
z
" style="fill:#0000ff;"/>
   </g>
   <g id="patch_116">
    <path clip-path="url(#pa5eb4f7c26)" d="M 836.146154 126.62 
L 847.65 126.62 
L 847.65 126.62 
L 836.146154 126.62 
z
" style="fill:#0000ff;"/>
   </g>
   <g id="patch_117">
    <path clip-path="url(#pa5eb4f7c26)" d="M 847.65 126.62 
L 859.153846 126.62 
L 859.153846 126.62 
L 847.65 126.62 
z
" style="fill:#0000ff;"/>
   </g>
   <g id="patch_118">
    <path clip-path="url(#pa5eb4f7c26)" d="M 859.153846 126.62 
L 870.657692 126.62 
L 870.657692 126.62 
L 859.153846 126.62 
z
" style="fill:#0000ff;"/>
   </g>
   <g id="patch_119">
    <path clip-path="url(#pa5eb4f7c26)" d="M 870.657692 126.62 
L 882.161538 126.62 
L 882.161538 126.62 
L 870.657692 126.62 
z
" style="fill:#0000ff;"/>
   </g>
   <g id="patch_120">
    <path clip-path="url(#pa5eb4f7c26)" d="M 882.161538 126.62 
L 893.665385 126.62 
L 893.665385 126.62 
L 882.161538 126.62 
z
" style="fill:#0000ff;"/>
   </g>
   <g id="patch_121">
    <path clip-path="url(#pa5eb4f7c26)" d="M 893.665385 126.62 
L 905.169231 126.62 
L 905.169231 126.62 
L 893.665385 126.62 
z
" style="fill:#0000ff;"/>
   </g>
   <g id="patch_122">
    <path clip-path="url(#pa5eb4f7c26)" d="M 905.169231 126.62 
L 916.673077 126.62 
L 916.673077 126.62 
L 905.169231 126.62 
z
" style="fill:#0000ff;"/>
   </g>
   <g id="patch_123">
    <path clip-path="url(#pa5eb4f7c26)" d="M 916.673077 126.62 
L 928.176923 126.62 
L 928.176923 126.62 
L 916.673077 126.62 
z
" style="fill:#0000ff;"/>
   </g>
   <g id="patch_124">
    <path clip-path="url(#pa5eb4f7c26)" d="M 928.176923 126.62 
L 939.680769 126.62 
L 939.680769 126.62 
L 928.176923 126.62 
z
" style="fill:#0000ff;"/>
   </g>
   <g id="patch_125">
    <path clip-path="url(#pa5eb4f7c26)" d="M 939.680769 126.62 
L 951.184615 126.62 
L 951.184615 126.62 
L 939.680769 126.62 
z
" style="fill:#0000ff;"/>
   </g>
   <g id="patch_126">
    <path clip-path="url(#pa5eb4f7c26)" d="M 951.184615 126.62 
L 962.688462 126.62 
L 962.688462 126.62 
L 951.184615 126.62 
z
" style="fill:#0000ff;"/>
   </g>
   <g id="patch_127">
    <path clip-path="url(#pa5eb4f7c26)" d="M 962.688462 126.62 
L 974.192308 126.62 
L 974.192308 126.62 
L 962.688462 126.62 
z
" style="fill:#0000ff;"/>
   </g>
   <g id="patch_128">
    <path clip-path="url(#pa5eb4f7c26)" d="M 974.192308 126.62 
L 985.696154 126.62 
L 985.696154 126.62 
L 974.192308 126.62 
z
" style="fill:#0000ff;"/>
   </g>
   <g id="patch_129">
    <path clip-path="url(#pa5eb4f7c26)" d="M 985.696154 126.62 
L 997.2 126.62 
L 997.2 126.62 
L 985.696154 126.62 
z
" style="fill:#0000ff;"/>
   </g>
   <g id="patch_130">
    <path clip-path="url(#pa5eb4f7c26)" d="M 548.55 126.62 
L 560.053846 126.62 
L 560.053846 126.62 
L 548.55 126.62 
z
" style="fill:#ffa500;opacity:0.8;"/>
   </g>
   <g id="patch_131">
    <path clip-path="url(#pa5eb4f7c26)" d="M 560.053846 126.62 
L 571.557692 126.62 
L 571.557692 126.385884 
L 560.053846 126.385884 
z
" style="fill:#ffa500;opacity:0.8;"/>
   </g>
   <g id="patch_132">
    <path clip-path="url(#pa5eb4f7c26)" d="M 571.557692 126.62 
L 583.061538 126.62 
L 583.061538 117.772867 
L 571.557692 117.772867 
z
" style="fill:#ffa500;opacity:0.8;"/>
   </g>
   <g id="patch_133">
    <path clip-path="url(#pa5eb4f7c26)" d="M 583.061538 126.62 
L 594.565385 126.62 
L 594.565385 108.272672 
L 583.061538 108.272672 
z
" style="fill:#ffa500;opacity:0.8;"/>
   </g>
   <g id="patch_134">
    <path clip-path="url(#pa5eb4f7c26)" d="M 594.565385 126.62 
L 606.069231 126.62 
L 606.069231 111.513335 
L 594.565385 111.513335 
z
" style="fill:#ffa500;opacity:0.8;"/>
   </g>
   <g id="patch_135">
    <path clip-path="url(#pa5eb4f7c26)" d="M 606.069231 126.62 
L 617.573077 126.62 
L 617.573077 114.372019 
L 606.069231 114.372019 
z
" style="fill:#ffa500;opacity:0.8;"/>
   </g>
   <g id="patch_136">
    <path clip-path="url(#pa5eb4f7c26)" d="M 617.573077 126.62 
L 629.076923 126.62 
L 629.076923 119.818304 
L 617.573077 119.818304 
z
" style="fill:#ffa500;opacity:0.8;"/>
   </g>
   <g id="patch_137">
    <path clip-path="url(#pa5eb4f7c26)" d="M 629.076923 126.62 
L 640.580769 126.62 
L 640.580769 121.333899 
L 629.076923 121.333899 
z
" style="fill:#ffa500;opacity:0.8;"/>
   </g>
   <g id="patch_138">
    <path clip-path="url(#pa5eb4f7c26)" d="M 640.580769 126.62 
L 652.084615 126.62 
L 652.084615 123.699707 
L 640.580769 123.699707 
z
" style="fill:#ffa500;opacity:0.8;"/>
   </g>
   <g id="patch_139">
    <path clip-path="url(#pa5eb4f7c26)" d="M 652.084615 126.62 
L 663.588462 126.62 
L 663.588462 116.602285 
L 652.084615 116.602285 
z
" style="fill:#ffa500;opacity:0.8;"/>
   </g>
   <g id="patch_140">
    <path clip-path="url(#pa5eb4f7c26)" d="M 663.588462 126.62 
L 675.092308 126.62 
L 675.092308 113.361622 
L 663.588462 113.361622 
z
" style="fill:#ffa500;opacity:0.8;"/>
   </g>
   <g id="patch_141">
    <path clip-path="url(#pa5eb4f7c26)" d="M 675.092308 126.62 
L 686.596154 126.62 
L 686.596154 115.074368 
L 675.092308 115.074368 
z
" style="fill:#ffa500;opacity:0.8;"/>
   </g>
   <g id="patch_142">
    <path clip-path="url(#pa5eb4f7c26)" d="M 686.596154 126.62 
L 698.1 126.62 
L 698.1 118.881839 
L 686.596154 118.881839 
z
" style="fill:#ffa500;opacity:0.8;"/>
   </g>
   <g id="patch_143">
    <path clip-path="url(#pa5eb4f7c26)" d="M 698.1 126.62 
L 709.603846 126.62 
L 709.603846 120.37279 
L 698.1 120.37279 
z
" style="fill:#ffa500;opacity:0.8;"/>
   </g>
   <g id="patch_144">
    <path clip-path="url(#pa5eb4f7c26)" d="M 709.603846 126.62 
L 721.107692 126.62 
L 721.107692 118.746298 
L 709.603846 118.746298 
z
" style="fill:#ffa500;opacity:0.8;"/>
   </g>
   <g id="patch_145">
    <path clip-path="url(#pa5eb4f7c26)" d="M 721.107692 126.62 
L 732.611538 126.62 
L 732.611538 112.918033 
L 721.107692 112.918033 
z
" style="fill:#ffa500;opacity:0.8;"/>
   </g>
   <g id="patch_146">
    <path clip-path="url(#pa5eb4f7c26)" d="M 732.611538 126.62 
L 744.115385 126.62 
L 744.115385 112.560697 
L 732.611538 112.560697 
z
" style="fill:#ffa500;opacity:0.8;"/>
   </g>
   <g id="patch_147">
    <path clip-path="url(#pa5eb4f7c26)" d="M 744.115385 126.62 
L 755.619231 126.62 
L 755.619231 112.696239 
L 744.115385 112.696239 
z
" style="fill:#ffa500;opacity:0.8;"/>
   </g>
   <g id="patch_148">
    <path clip-path="url(#pa5eb4f7c26)" d="M 755.619231 126.62 
L 767.123077 126.62 
L 767.123077 118.881839 
L 755.619231 118.881839 
z
" style="fill:#ffa500;opacity:0.8;"/>
   </g>
   <g id="patch_149">
    <path clip-path="url(#pa5eb4f7c26)" d="M 767.123077 126.62 
L 778.626923 126.62 
L 778.626923 117.095161 
L 767.123077 117.095161 
z
" style="fill:#ffa500;opacity:0.8;"/>
   </g>
   <g id="patch_150">
    <path clip-path="url(#pa5eb4f7c26)" d="M 778.626923 126.62 
L 790.130769 126.62 
L 790.130769 87.214523 
L 778.626923 87.214523 
z
" style="fill:#ffa500;opacity:0.8;"/>
   </g>
   <g id="patch_151">
    <path clip-path="url(#pa5eb4f7c26)" d="M 790.130769 126.62 
L 801.634615 126.62 
L 801.634615 126.62 
L 790.130769 126.62 
z
" style="fill:#ffa500;opacity:0.8;"/>
   </g>
   <g id="patch_152">
    <path clip-path="url(#pa5eb4f7c26)" d="M 801.634615 126.62 
L 813.138462 126.62 
L 813.138462 126.62 
L 801.634615 126.62 
z
" style="fill:#ffa500;opacity:0.8;"/>
   </g>
   <g id="patch_153">
    <path clip-path="url(#pa5eb4f7c26)" d="M 813.138462 126.62 
L 824.642308 126.62 
L 824.642308 126.62 
L 813.138462 126.62 
z
" style="fill:#ffa500;opacity:0.8;"/>
   </g>
   <g id="patch_154">
    <path clip-path="url(#pa5eb4f7c26)" d="M 824.642308 126.62 
L 836.146154 126.62 
L 836.146154 126.62 
L 824.642308 126.62 
z
" style="fill:#ffa500;opacity:0.8;"/>
   </g>
   <g id="patch_155">
    <path clip-path="url(#pa5eb4f7c26)" d="M 836.146154 126.62 
L 847.65 126.62 
L 847.65 126.62 
L 836.146154 126.62 
z
" style="fill:#ffa500;opacity:0.8;"/>
   </g>
   <g id="patch_156">
    <path clip-path="url(#pa5eb4f7c26)" d="M 847.65 126.62 
L 859.153846 126.62 
L 859.153846 126.62 
L 847.65 126.62 
z
" style="fill:#ffa500;opacity:0.8;"/>
   </g>
   <g id="patch_157">
    <path clip-path="url(#pa5eb4f7c26)" d="M 859.153846 126.62 
L 870.657692 126.62 
L 870.657692 126.62 
L 859.153846 126.62 
z
" style="fill:#ffa500;opacity:0.8;"/>
   </g>
   <g id="patch_158">
    <path clip-path="url(#pa5eb4f7c26)" d="M 870.657692 126.62 
L 882.161538 126.62 
L 882.161538 126.62 
L 870.657692 126.62 
z
" style="fill:#ffa500;opacity:0.8;"/>
   </g>
   <g id="patch_159">
    <path clip-path="url(#pa5eb4f7c26)" d="M 882.161538 126.62 
L 893.665385 126.62 
L 893.665385 126.62 
L 882.161538 126.62 
z
" style="fill:#ffa500;opacity:0.8;"/>
   </g>
   <g id="patch_160">
    <path clip-path="url(#pa5eb4f7c26)" d="M 893.665385 126.62 
L 905.169231 126.62 
L 905.169231 126.62 
L 893.665385 126.62 
z
" style="fill:#ffa500;opacity:0.8;"/>
   </g>
   <g id="patch_161">
    <path clip-path="url(#pa5eb4f7c26)" d="M 905.169231 126.62 
L 916.673077 126.62 
L 916.673077 126.62 
L 905.169231 126.62 
z
" style="fill:#ffa500;opacity:0.8;"/>
   </g>
   <g id="patch_162">
    <path clip-path="url(#pa5eb4f7c26)" d="M 916.673077 126.62 
L 928.176923 126.62 
L 928.176923 126.62 
L 916.673077 126.62 
z
" style="fill:#ffa500;opacity:0.8;"/>
   </g>
   <g id="patch_163">
    <path clip-path="url(#pa5eb4f7c26)" d="M 928.176923 126.62 
L 939.680769 126.62 
L 939.680769 126.62 
L 928.176923 126.62 
z
" style="fill:#ffa500;opacity:0.8;"/>
   </g>
   <g id="patch_164">
    <path clip-path="url(#pa5eb4f7c26)" d="M 939.680769 126.62 
L 951.184615 126.62 
L 951.184615 126.62 
L 939.680769 126.62 
z
" style="fill:#ffa500;opacity:0.8;"/>
   </g>
   <g id="patch_165">
    <path clip-path="url(#pa5eb4f7c26)" d="M 951.184615 126.62 
L 962.688462 126.62 
L 962.688462 126.62 
L 951.184615 126.62 
z
" style="fill:#ffa500;opacity:0.8;"/>
   </g>
   <g id="patch_166">
    <path clip-path="url(#pa5eb4f7c26)" d="M 962.688462 126.62 
L 974.192308 126.62 
L 974.192308 126.62 
L 962.688462 126.62 
z
" style="fill:#ffa500;opacity:0.8;"/>
   </g>
   <g id="patch_167">
    <path clip-path="url(#pa5eb4f7c26)" d="M 974.192308 126.62 
L 985.696154 126.62 
L 985.696154 126.62 
L 974.192308 126.62 
z
" style="fill:#ffa500;opacity:0.8;"/>
   </g>
   <g id="patch_168">
    <path clip-path="url(#pa5eb4f7c26)" d="M 985.696154 126.62 
L 997.2 126.62 
L 997.2 126.62 
L 985.696154 126.62 
z
" style="fill:#ffa500;opacity:0.8;"/>
   </g>
   <g id="patch_169">
    <path clip-path="url(#pa5eb4f7c26)" d="M 548.55 126.62 
L 560.053846 126.62 
L 560.053846 126.62 
L 548.55 126.62 
z
" style="fill:#0000ff;"/>
   </g>
   <g id="patch_170">
    <path clip-path="url(#pa5eb4f7c26)" d="M 560.053846 126.62 
L 571.557692 126.62 
L 571.557692 126.62 
L 560.053846 126.62 
z
" style="fill:#0000ff;"/>
   </g>
   <g id="patch_171">
    <path clip-path="url(#pa5eb4f7c26)" d="M 571.557692 126.62 
L 583.061538 126.62 
L 583.061538 126.62 
L 571.557692 126.62 
z
" style="fill:#0000ff;"/>
   </g>
   <g id="patch_172">
    <path clip-path="url(#pa5eb4f7c26)" d="M 583.061538 126.62 
L 594.565385 126.62 
L 594.565385 126.62 
L 583.061538 126.62 
z
" style="fill:#0000ff;"/>
   </g>
   <g id="patch_173">
    <path clip-path="url(#pa5eb4f7c26)" d="M 594.565385 126.62 
L 606.069231 126.62 
L 606.069231 126.985587 
L 594.565385 126.985587 
z
" style="fill:#0000ff;"/>
   </g>
   <g id="patch_174">
    <path clip-path="url(#pa5eb4f7c26)" d="M 606.069231 126.62 
L 617.573077 126.62 
L 617.573077 127.172632 
L 606.069231 127.172632 
z
" style="fill:#0000ff;"/>
   </g>
   <g id="patch_175">
    <path clip-path="url(#pa5eb4f7c26)" d="M 617.573077 126.62 
L 629.076923 126.62 
L 629.076923 127.217268 
L 617.573077 127.217268 
z
" style="fill:#0000ff;"/>
   </g>
   <g id="patch_176">
    <path clip-path="url(#pa5eb4f7c26)" d="M 629.076923 126.62 
L 640.580769 126.62 
L 640.580769 128.875164 
L 629.076923 128.875164 
z
" style="fill:#0000ff;"/>
   </g>
   <g id="patch_177">
    <path clip-path="url(#pa5eb4f7c26)" d="M 640.580769 126.62 
L 652.084615 126.62 
L 652.084615 129.036703 
L 640.580769 129.036703 
z
" style="fill:#0000ff;"/>
   </g>
   <g id="patch_178">
    <path clip-path="url(#pa5eb4f7c26)" d="M 652.084615 126.62 
L 663.588462 126.62 
L 663.588462 129.712614 
L 652.084615 129.712614 
z
" style="fill:#0000ff;"/>
   </g>
   <g id="patch_179">
    <path clip-path="url(#pa5eb4f7c26)" d="M 663.588462 126.62 
L 675.092308 126.62 
L 675.092308 129.440549 
L 663.588462 129.440549 
z
" style="fill:#0000ff;"/>
   </g>
   <g id="patch_180">
    <path clip-path="url(#pa5eb4f7c26)" d="M 675.092308 126.62 
L 686.596154 126.62 
L 686.596154 129.48731 
L 675.092308 129.48731 
z
" style="fill:#0000ff;"/>
   </g>
   <g id="patch_181">
    <path clip-path="url(#pa5eb4f7c26)" d="M 686.596154 126.62 
L 698.1 126.62 
L 698.1 129.077087 
L 686.596154 129.077087 
z
" style="fill:#0000ff;"/>
   </g>
   <g id="patch_182">
    <path clip-path="url(#pa5eb4f7c26)" d="M 698.1 126.62 
L 709.603846 126.62 
L 709.603846 128.751885 
L 698.1 128.751885 
z
" style="fill:#0000ff;"/>
   </g>
   <g id="patch_183">
    <path clip-path="url(#pa5eb4f7c26)" d="M 709.603846 126.62 
L 721.107692 126.62 
L 721.107692 128.605225 
L 709.603846 128.605225 
z
" style="fill:#0000ff;"/>
   </g>
   <g id="patch_184">
    <path clip-path="url(#pa5eb4f7c26)" d="M 721.107692 126.62 
L 732.611538 126.62 
L 732.611538 129.094091 
L 721.107692 129.094091 
z
" style="fill:#0000ff;"/>
   </g>
   <g id="patch_185">
    <path clip-path="url(#pa5eb4f7c26)" d="M 732.611538 126.62 
L 744.115385 126.62 
L 744.115385 128.354415 
L 732.611538 128.354415 
z
" style="fill:#0000ff;"/>
   </g>
   <g id="patch_186">
    <path clip-path="url(#pa5eb4f7c26)" d="M 744.115385 126.62 
L 755.619231 126.62 
L 755.619231 128.452188 
L 744.115385 128.452188 
z
" style="fill:#0000ff;"/>
   </g>
   <g id="patch_187">
    <path clip-path="url(#pa5eb4f7c26)" d="M 755.619231 126.62 
L 767.123077 126.62 
L 767.123077 129.517068 
L 755.619231 129.517068 
z
" style="fill:#0000ff;"/>
   </g>
   <g id="patch_188">
    <path clip-path="url(#pa5eb4f7c26)" d="M 767.123077 126.62 
L 778.626923 126.62 
L 778.626923 128.403301 
L 767.123077 128.403301 
z
" style="fill:#0000ff;"/>
   </g>
   <g id="patch_189">
    <path clip-path="url(#pa5eb4f7c26)" d="M 778.626923 126.62 
L 790.130769 126.62 
L 790.130769 128.292775 
L 778.626923 128.292775 
z
" style="fill:#0000ff;"/>
   </g>
   <g id="patch_190">
    <path clip-path="url(#pa5eb4f7c26)" d="M 790.130769 126.62 
L 801.634615 126.62 
L 801.634615 128.715751 
L 790.130769 128.715751 
z
" style="fill:#0000ff;"/>
   </g>
   <g id="patch_191">
    <path clip-path="url(#pa5eb4f7c26)" d="M 801.634615 126.62 
L 813.138462 126.62 
L 813.138462 128.35654 
L 801.634615 128.35654 
z
" style="fill:#0000ff;"/>
   </g>
   <g id="patch_192">
    <path clip-path="url(#pa5eb4f7c26)" d="M 813.138462 126.62 
L 824.642308 126.62 
L 824.642308 128.337411 
L 813.138462 128.337411 
z
" style="fill:#0000ff;"/>
   </g>
   <g id="patch_193">
    <path clip-path="url(#pa5eb4f7c26)" d="M 824.642308 126.62 
L 836.146154 126.62 
L 836.146154 128.507451 
L 824.642308 128.507451 
z
" style="fill:#0000ff;"/>
   </g>
   <g id="patch_194">
    <path clip-path="url(#pa5eb4f7c26)" d="M 836.146154 126.62 
L 847.65 126.62 
L 847.65 128.411803 
L 836.146154 128.411803 
z
" style="fill:#0000ff;"/>
   </g>
   <g id="patch_195">
    <path clip-path="url(#pa5eb4f7c26)" d="M 847.65 126.62 
L 859.153846 126.62 
L 859.153846 128.836905 
L 847.65 128.836905 
z
" style="fill:#0000ff;"/>
   </g>
   <g id="patch_196">
    <path clip-path="url(#pa5eb4f7c26)" d="M 859.153846 126.62 
L 870.657692 126.62 
L 870.657692 129.631845 
L 859.153846 129.631845 
z
" style="fill:#0000ff;"/>
   </g>
   <g id="patch_197">
    <path clip-path="url(#pa5eb4f7c26)" d="M 870.657692 126.62 
L 882.161538 126.62 
L 882.161538 130.17385 
L 870.657692 130.17385 
z
" style="fill:#0000ff;"/>
   </g>
   <g id="patch_198">
    <path clip-path="url(#pa5eb4f7c26)" d="M 882.161538 126.62 
L 893.665385 126.62 
L 893.665385 130.669093 
L 882.161538 130.669093 
z
" style="fill:#0000ff;"/>
   </g>
   <g id="patch_199">
    <path clip-path="url(#pa5eb4f7c26)" d="M 893.665385 126.62 
L 905.169231 126.62 
L 905.169231 131.391766 
L 893.665385 131.391766 
z
" style="fill:#0000ff;"/>
   </g>
   <g id="patch_200">
    <path clip-path="url(#pa5eb4f7c26)" d="M 905.169231 126.62 
L 916.673077 126.62 
L 916.673077 131.76373 
L 905.169231 131.76373 
z
" style="fill:#0000ff;"/>
   </g>
   <g id="patch_201">
    <path clip-path="url(#pa5eb4f7c26)" d="M 916.673077 126.62 
L 928.176923 126.62 
L 928.176923 132.341868 
L 916.673077 132.341868 
z
" style="fill:#0000ff;"/>
   </g>
   <g id="patch_202">
    <path clip-path="url(#pa5eb4f7c26)" d="M 928.176923 126.62 
L 939.680769 126.62 
L 939.680769 134.322841 
L 928.176923 134.322841 
z
" style="fill:#0000ff;"/>
   </g>
   <g id="patch_203">
    <path clip-path="url(#pa5eb4f7c26)" d="M 939.680769 126.62 
L 951.184615 126.62 
L 951.184615 134.733064 
L 939.680769 134.733064 
z
" style="fill:#0000ff;"/>
   </g>
   <g id="patch_204">
    <path clip-path="url(#pa5eb4f7c26)" d="M 951.184615 126.62 
L 962.688462 126.62 
L 962.688462 136.93084 
L 951.184615 136.93084 
z
" style="fill:#0000ff;"/>
   </g>
   <g id="patch_205">
    <path clip-path="url(#pa5eb4f7c26)" d="M 962.688462 126.62 
L 974.192308 126.62 
L 974.192308 146.527509 
L 962.688462 146.527509 
z
" style="fill:#0000ff;"/>
   </g>
   <g id="patch_206">
    <path clip-path="url(#pa5eb4f7c26)" d="M 974.192308 126.62 
L 985.696154 126.62 
L 985.696154 140.440054 
L 974.192308 140.440054 
z
" style="fill:#0000ff;"/>
   </g>
   <g id="patch_207">
    <path clip-path="url(#pa5eb4f7c26)" d="M 985.696154 126.62 
L 997.2 126.62 
L 997.2 219.957438 
L 985.696154 219.957438 
z
" style="fill:#0000ff;"/>
   </g>
   <g id="patch_208">
    <path clip-path="url(#pa5eb4f7c26)" d="M 548.55 126.62 
L 560.053846 126.62 
L 560.053846 126.62 
L 548.55 126.62 
z
" style="fill:#ffa500;opacity:0.8;"/>
   </g>
   <g id="patch_209">
    <path clip-path="url(#pa5eb4f7c26)" d="M 560.053846 126.62 
L 571.557692 126.62 
L 571.557692 126.62 
L 560.053846 126.62 
z
" style="fill:#ffa500;opacity:0.8;"/>
   </g>
   <g id="patch_210">
    <path clip-path="url(#pa5eb4f7c26)" d="M 571.557692 126.62 
L 583.061538 126.62 
L 583.061538 126.62 
L 571.557692 126.62 
z
" style="fill:#ffa500;opacity:0.8;"/>
   </g>
   <g id="patch_211">
    <path clip-path="url(#pa5eb4f7c26)" d="M 583.061538 126.62 
L 594.565385 126.62 
L 594.565385 126.62 
L 583.061538 126.62 
z
" style="fill:#ffa500;opacity:0.8;"/>
   </g>
   <g id="patch_212">
    <path clip-path="url(#pa5eb4f7c26)" d="M 594.565385 126.62 
L 606.069231 126.62 
L 606.069231 126.62 
L 594.565385 126.62 
z
" style="fill:#ffa500;opacity:0.8;"/>
   </g>
   <g id="patch_213">
    <path clip-path="url(#pa5eb4f7c26)" d="M 606.069231 126.62 
L 617.573077 126.62 
L 617.573077 128.530001 
L 606.069231 128.530001 
z
" style="fill:#ffa500;opacity:0.8;"/>
   </g>
   <g id="patch_214">
    <path clip-path="url(#pa5eb4f7c26)" d="M 617.573077 126.62 
L 629.076923 126.62 
L 629.076923 131.898175 
L 617.573077 131.898175 
z
" style="fill:#ffa500;opacity:0.8;"/>
   </g>
   <g id="patch_215">
    <path clip-path="url(#pa5eb4f7c26)" d="M 629.076923 126.62 
L 640.580769 126.62 
L 640.580769 132.237046 
L 629.076923 132.237046 
z
" style="fill:#ffa500;opacity:0.8;"/>
   </g>
   <g id="patch_216">
    <path clip-path="url(#pa5eb4f7c26)" d="M 640.580769 126.62 
L 652.084615 126.62 
L 652.084615 133.500112 
L 640.580769 133.500112 
z
" style="fill:#ffa500;opacity:0.8;"/>
   </g>
   <g id="patch_217">
    <path clip-path="url(#pa5eb4f7c26)" d="M 652.084615 126.62 
L 663.588462 126.62 
L 663.588462 134.82479 
L 652.084615 134.82479 
z
" style="fill:#ffa500;opacity:0.8;"/>
   </g>
   <g id="patch_218">
    <path clip-path="url(#pa5eb4f7c26)" d="M 663.588462 126.62 
L 675.092308 126.62 
L 675.092308 133.705488 
L 663.588462 133.705488 
z
" style="fill:#ffa500;opacity:0.8;"/>
   </g>
   <g id="patch_219">
    <path clip-path="url(#pa5eb4f7c26)" d="M 675.092308 126.62 
L 686.596154 126.62 
L 686.596154 131.538766 
L 675.092308 131.538766 
z
" style="fill:#ffa500;opacity:0.8;"/>
   </g>
   <g id="patch_220">
    <path clip-path="url(#pa5eb4f7c26)" d="M 686.596154 126.62 
L 698.1 126.62 
L 698.1 130.131938 
L 686.596154 130.131938 
z
" style="fill:#ffa500;opacity:0.8;"/>
   </g>
   <g id="patch_221">
    <path clip-path="url(#pa5eb4f7c26)" d="M 698.1 126.62 
L 709.603846 126.62 
L 709.603846 131.713336 
L 698.1 131.713336 
z
" style="fill:#ffa500;opacity:0.8;"/>
   </g>
   <g id="patch_222">
    <path clip-path="url(#pa5eb4f7c26)" d="M 709.603846 126.62 
L 721.107692 126.62 
L 721.107692 131.015056 
L 709.603846 131.015056 
z
" style="fill:#ffa500;opacity:0.8;"/>
   </g>
   <g id="patch_223">
    <path clip-path="url(#pa5eb4f7c26)" d="M 721.107692 126.62 
L 732.611538 126.62 
L 732.611538 130.532422 
L 721.107692 130.532422 
z
" style="fill:#ffa500;opacity:0.8;"/>
   </g>
   <g id="patch_224">
    <path clip-path="url(#pa5eb4f7c26)" d="M 732.611538 126.62 
L 744.115385 126.62 
L 744.115385 129.084518 
L 732.611538 129.084518 
z
" style="fill:#ffa500;opacity:0.8;"/>
   </g>
   <g id="patch_225">
    <path clip-path="url(#pa5eb4f7c26)" d="M 744.115385 126.62 
L 755.619231 126.62 
L 755.619231 127.985754 
L 744.115385 127.985754 
z
" style="fill:#ffa500;opacity:0.8;"/>
   </g>
   <g id="patch_226">
    <path clip-path="url(#pa5eb4f7c26)" d="M 755.619231 126.62 
L 767.123077 126.62 
L 767.123077 127.749571 
L 755.619231 127.749571 
z
" style="fill:#ffa500;opacity:0.8;"/>
   </g>
   <g id="patch_227">
    <path clip-path="url(#pa5eb4f7c26)" d="M 767.123077 126.62 
L 778.626923 126.62 
L 778.626923 128.098711 
L 767.123077 128.098711 
z
" style="fill:#ffa500;opacity:0.8;"/>
   </g>
   <g id="patch_228">
    <path clip-path="url(#pa5eb4f7c26)" d="M 778.626923 126.62 
L 790.130769 126.62 
L 790.130769 130.070325 
L 778.626923 130.070325 
z
" style="fill:#ffa500;opacity:0.8;"/>
   </g>
   <g id="patch_229">
    <path clip-path="url(#pa5eb4f7c26)" d="M 790.130769 126.62 
L 801.634615 126.62 
L 801.634615 129.710916 
L 790.130769 129.710916 
z
" style="fill:#ffa500;opacity:0.8;"/>
   </g>
   <g id="patch_230">
    <path clip-path="url(#pa5eb4f7c26)" d="M 801.634615 126.62 
L 813.138462 126.62 
L 813.138462 129.23855 
L 801.634615 129.23855 
z
" style="fill:#ffa500;opacity:0.8;"/>
   </g>
   <g id="patch_231">
    <path clip-path="url(#pa5eb4f7c26)" d="M 813.138462 126.62 
L 824.642308 126.62 
L 824.642308 128.242474 
L 813.138462 128.242474 
z
" style="fill:#ffa500;opacity:0.8;"/>
   </g>
   <g id="patch_232">
    <path clip-path="url(#pa5eb4f7c26)" d="M 824.642308 126.62 
L 836.146154 126.62 
L 836.146154 128.242474 
L 824.642308 128.242474 
z
" style="fill:#ffa500;opacity:0.8;"/>
   </g>
   <g id="patch_233">
    <path clip-path="url(#pa5eb4f7c26)" d="M 836.146154 126.62 
L 847.65 126.62 
L 847.65 129.218012 
L 836.146154 129.218012 
z
" style="fill:#ffa500;opacity:0.8;"/>
   </g>
   <g id="patch_234">
    <path clip-path="url(#pa5eb4f7c26)" d="M 847.65 126.62 
L 859.153846 126.62 
L 859.153846 128.817528 
L 847.65 128.817528 
z
" style="fill:#ffa500;opacity:0.8;"/>
   </g>
   <g id="patch_235">
    <path clip-path="url(#pa5eb4f7c26)" d="M 859.153846 126.62 
L 870.657692 126.62 
L 870.657692 129.228281 
L 859.153846 129.228281 
z
" style="fill:#ffa500;opacity:0.8;"/>
   </g>
   <g id="patch_236">
    <path clip-path="url(#pa5eb4f7c26)" d="M 870.657692 126.62 
L 882.161538 126.62 
L 882.161538 129.23855 
L 870.657692 129.23855 
z
" style="fill:#ffa500;opacity:0.8;"/>
   </g>
   <g id="patch_237">
    <path clip-path="url(#pa5eb4f7c26)" d="M 882.161538 126.62 
L 893.665385 126.62 
L 893.665385 130.193551 
L 882.161538 130.193551 
z
" style="fill:#ffa500;opacity:0.8;"/>
   </g>
   <g id="patch_238">
    <path clip-path="url(#pa5eb4f7c26)" d="M 893.665385 126.62 
L 905.169231 126.62 
L 905.169231 129.947099 
L 893.665385 129.947099 
z
" style="fill:#ffa500;opacity:0.8;"/>
   </g>
   <g id="patch_239">
    <path clip-path="url(#pa5eb4f7c26)" d="M 905.169231 126.62 
L 916.673077 126.62 
L 916.673077 130.912368 
L 905.169231 130.912368 
z
" style="fill:#ffa500;opacity:0.8;"/>
   </g>
   <g id="patch_240">
    <path clip-path="url(#pa5eb4f7c26)" d="M 916.673077 126.62 
L 928.176923 126.62 
L 928.176923 130.902099 
L 916.673077 130.902099 
z
" style="fill:#ffa500;opacity:0.8;"/>
   </g>
   <g id="patch_241">
    <path clip-path="url(#pa5eb4f7c26)" d="M 928.176923 126.62 
L 939.680769 126.62 
L 939.680769 131.672261 
L 928.176923 131.672261 
z
" style="fill:#ffa500;opacity:0.8;"/>
   </g>
   <g id="patch_242">
    <path clip-path="url(#pa5eb4f7c26)" d="M 939.680769 126.62 
L 951.184615 126.62 
L 951.184615 131.68253 
L 939.680769 131.68253 
z
" style="fill:#ffa500;opacity:0.8;"/>
   </g>
   <g id="patch_243">
    <path clip-path="url(#pa5eb4f7c26)" d="M 951.184615 126.62 
L 962.688462 126.62 
L 962.688462 133.849252 
L 951.184615 133.849252 
z
" style="fill:#ffa500;opacity:0.8;"/>
   </g>
   <g id="patch_244">
    <path clip-path="url(#pa5eb4f7c26)" d="M 962.688462 126.62 
L 974.192308 126.62 
L 974.192308 144.15915 
L 962.688462 144.15915 
z
" style="fill:#ffa500;opacity:0.8;"/>
   </g>
   <g id="patch_245">
    <path clip-path="url(#pa5eb4f7c26)" d="M 974.192308 126.62 
L 985.696154 126.62 
L 985.696154 137.258501 
L 974.192308 137.258501 
z
" style="fill:#ffa500;opacity:0.8;"/>
   </g>
   <g id="patch_246">
    <path clip-path="url(#pa5eb4f7c26)" d="M 985.696154 126.62 
L 997.2 126.62 
L 997.2 204.776015 
L 985.696154 204.776015 
z
" style="fill:#ffa500;opacity:0.8;"/>
   </g>
   <g id="matplotlib.axis_3">
    <g id="xtick_7">
     <g id="line2d_15">
      <g>
       <use style="stroke:#000000;stroke-width:0.8;" x="554.301923" xlink:href="#md2bf62df27" y="242.44"/>
      </g>
     </g>
     <g id="text_16">
      <!-- 0 -->
      <g transform="translate(551.120673 257.038437)scale(0.1 -0.1)">
       <use xlink:href="#DejaVuSans-48"/>
      </g>
     </g>
    </g>
    <g id="xtick_8">
     <g id="line2d_16">
      <g>
       <use style="stroke:#000000;stroke-width:0.8;" x="637.503627" xlink:href="#md2bf62df27" y="242.44"/>
      </g>
     </g>
     <g id="text_17">
      <!-- 1 -->
      <g transform="translate(634.322377 257.038437)scale(0.1 -0.1)">
       <use xlink:href="#DejaVuSans-49"/>
      </g>
     </g>
    </g>
    <g id="xtick_9">
     <g id="line2d_17">
      <g>
       <use style="stroke:#000000;stroke-width:0.8;" x="720.705332" xlink:href="#md2bf62df27" y="242.44"/>
      </g>
     </g>
     <g id="text_18">
      <!-- 2 -->
      <g transform="translate(717.524082 257.038437)scale(0.1 -0.1)">
       <use xlink:href="#DejaVuSans-50"/>
      </g>
     </g>
    </g>
    <g id="xtick_10">
     <g id="line2d_18">
      <g>
       <use style="stroke:#000000;stroke-width:0.8;" x="803.907036" xlink:href="#md2bf62df27" y="242.44"/>
      </g>
     </g>
     <g id="text_19">
      <!-- 3 -->
      <g transform="translate(800.725786 257.038437)scale(0.1 -0.1)">
       <use xlink:href="#DejaVuSans-51"/>
      </g>
     </g>
    </g>
    <g id="xtick_11">
     <g id="line2d_19">
      <g>
       <use style="stroke:#000000;stroke-width:0.8;" x="887.10874" xlink:href="#md2bf62df27" y="242.44"/>
      </g>
     </g>
     <g id="text_20">
      <!-- 4 -->
      <g transform="translate(883.92749 257.038437)scale(0.1 -0.1)">
       <use xlink:href="#DejaVuSans-52"/>
      </g>
     </g>
    </g>
    <g id="xtick_12">
     <g id="line2d_20">
      <g>
       <use style="stroke:#000000;stroke-width:0.8;" x="970.310445" xlink:href="#md2bf62df27" y="242.44"/>
      </g>
     </g>
     <g id="text_21">
      <!-- 5 -->
      <g transform="translate(967.129195 257.038437)scale(0.1 -0.1)">
       <use xlink:href="#DejaVuSans-53"/>
      </g>
     </g>
    </g>
    <g id="text_22">
     <!-- Action entropy -->
     <defs>
      <path d="M 34.1875 63.1875 
L 20.796875 26.90625 
L 47.609375 26.90625 
z
M 28.609375 72.90625 
L 39.796875 72.90625 
L 67.578125 0 
L 57.328125 0 
L 50.6875 18.703125 
L 17.828125 18.703125 
L 11.1875 0 
L 0.78125 0 
z
" id="DejaVuSans-65"/>
      <path d="M 48.78125 52.59375 
L 48.78125 44.1875 
Q 44.96875 46.296875 41.140625 47.34375 
Q 37.3125 48.390625 33.40625 48.390625 
Q 24.65625 48.390625 19.8125 42.84375 
Q 14.984375 37.3125 14.984375 27.296875 
Q 14.984375 17.28125 19.8125 11.734375 
Q 24.65625 6.203125 33.40625 6.203125 
Q 37.3125 6.203125 41.140625 7.25 
Q 44.96875 8.296875 48.78125 10.40625 
L 48.78125 2.09375 
Q 45.015625 0.34375 40.984375 -0.53125 
Q 36.96875 -1.421875 32.421875 -1.421875 
Q 20.0625 -1.421875 12.78125 6.34375 
Q 5.515625 14.109375 5.515625 27.296875 
Q 5.515625 40.671875 12.859375 48.328125 
Q 20.21875 56 33.015625 56 
Q 37.15625 56 41.109375 55.140625 
Q 45.0625 54.296875 48.78125 52.59375 
z
" id="DejaVuSans-99"/>
      <path d="M 54.890625 33.015625 
L 54.890625 0 
L 45.90625 0 
L 45.90625 32.71875 
Q 45.90625 40.484375 42.875 44.328125 
Q 39.84375 48.1875 33.796875 48.1875 
Q 26.515625 48.1875 22.3125 43.546875 
Q 18.109375 38.921875 18.109375 30.90625 
L 18.109375 0 
L 9.078125 0 
L 9.078125 54.6875 
L 18.109375 54.6875 
L 18.109375 46.1875 
Q 21.34375 51.125 25.703125 53.5625 
Q 30.078125 56 35.796875 56 
Q 45.21875 56 50.046875 50.171875 
Q 54.890625 44.34375 54.890625 33.015625 
z
" id="DejaVuSans-110"/>
     </defs>
     <g transform="translate(721.3725 273.755938)scale(0.14 -0.14)">
      <use xlink:href="#DejaVuSans-65"/>
      <use x="68.392578" xlink:href="#DejaVuSans-99"/>
      <use x="123.373047" xlink:href="#DejaVuSans-116"/>
      <use x="162.582031" xlink:href="#DejaVuSans-105"/>
      <use x="190.365234" xlink:href="#DejaVuSans-111"/>
      <use x="251.546875" xlink:href="#DejaVuSans-110"/>
      <use x="314.925781" xlink:href="#DejaVuSans-32"/>
      <use x="346.712891" xlink:href="#DejaVuSans-101"/>
      <use x="408.236328" xlink:href="#DejaVuSans-110"/>
      <use x="471.615234" xlink:href="#DejaVuSans-116"/>
      <use x="510.824219" xlink:href="#DejaVuSans-114"/>
      <use x="551.90625" xlink:href="#DejaVuSans-111"/>
      <use x="613.087891" xlink:href="#DejaVuSans-112"/>
      <use x="676.564453" xlink:href="#DejaVuSans-121"/>
     </g>
    </g>
   </g>
   <g id="matplotlib.axis_4">
    <g id="ytick_9">
     <g id="line2d_21">
      <g>
       <use style="stroke:#000000;stroke-width:0.8;" x="548.55" xlink:href="#mfb3cb27d7c" y="216.550248"/>
      </g>
     </g>
     <g id="text_23">
      <!-- 0.4 -->
      <defs>
       <path d="M 10.59375 35.5 
L 73.1875 35.5 
L 73.1875 27.203125 
L 10.59375 27.203125 
z
" id="DejaVuSans-8722"/>
      </defs>
      <g transform="translate(517.267187 220.349467)scale(0.1 -0.1)">
       <use xlink:href="#DejaVuSans-8722"/>
       <use x="83.789062" xlink:href="#DejaVuSans-48"/>
       <use x="147.412109" xlink:href="#DejaVuSans-46"/>
       <use x="179.199219" xlink:href="#DejaVuSans-52"/>
      </g>
     </g>
    </g>
    <g id="ytick_10">
     <g id="line2d_22">
      <g>
       <use style="stroke:#000000;stroke-width:0.8;" x="548.55" xlink:href="#mfb3cb27d7c" y="171.585124"/>
      </g>
     </g>
     <g id="text_24">
      <!-- 0.2 -->
      <g transform="translate(517.267187 175.384343)scale(0.1 -0.1)">
       <use xlink:href="#DejaVuSans-8722"/>
       <use x="83.789062" xlink:href="#DejaVuSans-48"/>
       <use x="147.412109" xlink:href="#DejaVuSans-46"/>
       <use x="179.199219" xlink:href="#DejaVuSans-50"/>
      </g>
     </g>
    </g>
    <g id="ytick_11">
     <g id="line2d_23">
      <g>
       <use style="stroke:#000000;stroke-width:0.8;" x="548.55" xlink:href="#mfb3cb27d7c" y="126.62"/>
      </g>
     </g>
     <g id="text_25">
      <!-- 0.0 -->
      <g transform="translate(525.646875 130.419219)scale(0.1 -0.1)">
       <use xlink:href="#DejaVuSans-48"/>
       <use x="63.623047" xlink:href="#DejaVuSans-46"/>
       <use x="95.410156" xlink:href="#DejaVuSans-48"/>
      </g>
     </g>
    </g>
    <g id="ytick_12">
     <g id="line2d_24">
      <g>
       <use style="stroke:#000000;stroke-width:0.8;" x="548.55" xlink:href="#mfb3cb27d7c" y="81.654876"/>
      </g>
     </g>
     <g id="text_26">
      <!-- 0.2 -->
      <g transform="translate(525.646875 85.454095)scale(0.1 -0.1)">
       <use xlink:href="#DejaVuSans-48"/>
       <use x="63.623047" xlink:href="#DejaVuSans-46"/>
       <use x="95.410156" xlink:href="#DejaVuSans-50"/>
      </g>
     </g>
    </g>
    <g id="ytick_13">
     <g id="line2d_25">
      <g>
       <use style="stroke:#000000;stroke-width:0.8;" x="548.55" xlink:href="#mfb3cb27d7c" y="36.689752"/>
      </g>
     </g>
     <g id="text_27">
      <!-- 0.4 -->
      <g transform="translate(525.646875 40.48897)scale(0.1 -0.1)">
       <use xlink:href="#DejaVuSans-48"/>
       <use x="63.623047" xlink:href="#DejaVuSans-46"/>
       <use x="95.410156" xlink:href="#DejaVuSans-52"/>
      </g>
     </g>
    </g>
    <g id="text_28">
     <!-- Proportion of replays -->
     <defs>
      <path d="M 19.671875 64.796875 
L 19.671875 37.40625 
L 32.078125 37.40625 
Q 38.96875 37.40625 42.71875 40.96875 
Q 46.484375 44.53125 46.484375 51.125 
Q 46.484375 57.671875 42.71875 61.234375 
Q 38.96875 64.796875 32.078125 64.796875 
z
M 9.8125 72.90625 
L 32.078125 72.90625 
Q 44.34375 72.90625 50.609375 67.359375 
Q 56.890625 61.8125 56.890625 51.125 
Q 56.890625 40.328125 50.609375 34.8125 
Q 44.34375 29.296875 32.078125 29.296875 
L 19.671875 29.296875 
L 19.671875 0 
L 9.8125 0 
z
" id="DejaVuSans-80"/>
     </defs>
     <g transform="translate(510.355625 199.858594)rotate(-90)scale(0.14 -0.14)">
      <use xlink:href="#DejaVuSans-80"/>
      <use x="60.287109" xlink:href="#DejaVuSans-114"/>
      <use x="101.369141" xlink:href="#DejaVuSans-111"/>
      <use x="162.550781" xlink:href="#DejaVuSans-112"/>
      <use x="226.027344" xlink:href="#DejaVuSans-111"/>
      <use x="287.208984" xlink:href="#DejaVuSans-114"/>
      <use x="328.322266" xlink:href="#DejaVuSans-116"/>
      <use x="367.53125" xlink:href="#DejaVuSans-105"/>
      <use x="395.314453" xlink:href="#DejaVuSans-111"/>
      <use x="456.496094" xlink:href="#DejaVuSans-110"/>
      <use x="519.875" xlink:href="#DejaVuSans-32"/>
      <use x="551.662109" xlink:href="#DejaVuSans-111"/>
      <use x="612.84375" xlink:href="#DejaVuSans-102"/>
      <use x="648.048828" xlink:href="#DejaVuSans-32"/>
      <use x="679.835938" xlink:href="#DejaVuSans-114"/>
      <use x="720.917969" xlink:href="#DejaVuSans-101"/>
      <use x="782.441406" xlink:href="#DejaVuSans-112"/>
      <use x="845.917969" xlink:href="#DejaVuSans-108"/>
      <use x="873.701172" xlink:href="#DejaVuSans-97"/>
      <use x="934.980469" xlink:href="#DejaVuSans-121"/>
      <use x="994.160156" xlink:href="#DejaVuSans-115"/>
     </g>
    </g>
   </g>
   <g id="line2d_26">
    <path clip-path="url(#pa5eb4f7c26)" d="M 548.55 126.62 
L 997.2 126.62 
" style="fill:none;stroke:#000000;stroke-linecap:square;stroke-width:1.5;"/>
   </g>
   <g id="patch_247">
    <path d="M 548.55 242.44 
L 548.55 10.8 
" style="fill:none;stroke:#000000;stroke-linecap:square;stroke-linejoin:miter;stroke-width:0.8;"/>
   </g>
   <g id="patch_248">
    <path d="M 997.2 242.44 
L 997.2 10.8 
" style="fill:none;stroke:#000000;stroke-linecap:square;stroke-linejoin:miter;stroke-width:0.8;"/>
   </g>
   <g id="patch_249">
    <path d="M 548.55 242.44 
L 997.2 242.44 
" style="fill:none;stroke:#000000;stroke-linecap:square;stroke-linejoin:miter;stroke-width:0.8;"/>
   </g>
   <g id="patch_250">
    <path d="M 548.55 10.8 
L 997.2 10.8 
" style="fill:none;stroke:#000000;stroke-linecap:square;stroke-linejoin:miter;stroke-width:0.8;"/>
   </g>
  </g>
 </g>
 <defs>
  <clipPath id="p83b809b671">
   <rect height="231.64" width="448.65" x="40.12" y="10.8"/>
  </clipPath>
  <clipPath id="pa5eb4f7c26">
   <rect height="231.64" width="448.65" x="548.55" y="10.8"/>
  </clipPath>
 </defs>
</svg>
