<?xml version="1.0" encoding="utf-8" standalone="no"?>
<!DOCTYPE svg PUBLIC "-//W3C//DTD SVG 1.1//EN"
  "http://www.w3.org/Graphics/SVG/1.1/DTD/svg11.dtd">
<!-- Created with matplotlib (https://matplotlib.org/) -->
<svg height="288pt" version="1.1" viewBox="0 0 288 288" width="288pt" xmlns="http://www.w3.org/2000/svg" xmlns:xlink="http://www.w3.org/1999/xlink">
 <defs>
  <style type="text/css">
*{stroke-linecap:butt;stroke-linejoin:round;}
  </style>
 </defs>
 <g id="figure_1">
  <g id="patch_1">
   <path d="M 0 288 
L 288 288 
L 288 0 
L 0 0 
z
" style="fill:none;"/>
  </g>
  <g id="axes_1">
   <g id="patch_2">
    <path d="M 36 252 
L 259.2 252 
L 259.2 34.56 
L 36 34.56 
z
" style="fill:none;"/>
   </g>
   <g id="PathCollection_1">
    <defs>
     <path d="M 0 3 
C 0.795609 3 1.55874 2.683901 2.12132 2.12132 
C 2.683901 1.55874 3 0.795609 3 0 
C 3 -0.795609 2.683901 -1.55874 2.12132 -2.12132 
C 1.55874 -2.683901 0.795609 -3 0 -3 
C -0.795609 -3 -1.55874 -2.683901 -2.12132 -2.12132 
C -2.683901 -1.55874 -3 -0.795609 -3 0 
C -3 0.795609 -2.683901 1.55874 -2.12132 2.12132 
C -1.55874 2.683901 -0.795609 3 0 3 
z
" id="ma97127c30c" style="stroke:#00d667;"/>
    </defs>
    <g clip-path="url(#p657c6e236e)">
     <use style="fill:#00d667;stroke:#00d667;" x="91.236364" xlink:href="#ma97127c30c" y="246.123393"/>
     <use style="fill:#00d667;stroke:#00d667;" x="91.236364" xlink:href="#ma97127c30c" y="218.615928"/>
     <use style="fill:#00d667;stroke:#00d667;" x="91.236364" xlink:href="#ma97127c30c" y="208.172478"/>
     <use style="fill:#00d667;stroke:#00d667;" x="91.236364" xlink:href="#ma97127c30c" y="169.073372"/>
     <use style="fill:#00d667;stroke:#00d667;" x="91.236364" xlink:href="#ma97127c30c" y="211.222772"/>
     <use style="fill:#00d667;stroke:#00d667;" x="91.236364" xlink:href="#ma97127c30c" y="233.024518"/>
     <use style="fill:#00d667;stroke:#00d667;" x="91.236364" xlink:href="#ma97127c30c" y="242.191677"/>
     <use style="fill:#00d667;stroke:#00d667;" x="91.236364" xlink:href="#ma97127c30c" y="243.665816"/>
     <use style="fill:#00d667;stroke:#00d667;" x="91.236364" xlink:href="#ma97127c30c" y="251.319769"/>
     <use style="fill:#00d667;stroke:#00d667;" x="91.236364" xlink:href="#ma97127c30c" y="192.733314"/>
     <use style="fill:#00d667;stroke:#00d667;" x="91.236364" xlink:href="#ma97127c30c" y="244.90053"/>
     <use style="fill:#00d667;stroke:#00d667;" x="91.236364" xlink:href="#ma97127c30c" y="244.371942"/>
     <use style="fill:#00d667;stroke:#00d667;" x="91.236364" xlink:href="#ma97127c30c" y="250.790366"/>
     <use style="fill:#00d667;stroke:#00d667;" x="91.236364" xlink:href="#ma97127c30c" y="250.98803"/>
     <use style="fill:#00d667;stroke:#00d667;" x="91.236364" xlink:href="#ma97127c30c" y="235.702561"/>
     <use style="fill:#00d667;stroke:#00d667;" x="91.236364" xlink:href="#ma97127c30c" y="241.917836"/>
     <use style="fill:#00d667;stroke:#00d667;" x="91.236364" xlink:href="#ma97127c30c" y="200.942342"/>
     <use style="fill:#00d667;stroke:#00d667;" x="91.236364" xlink:href="#ma97127c30c" y="237.258925"/>
     <use style="fill:#00d667;stroke:#00d667;" x="91.236364" xlink:href="#ma97127c30c" y="250.176096"/>
     <use style="fill:#00d667;stroke:#00d667;" x="91.236364" xlink:href="#ma97127c30c" y="199.242117"/>
     <use style="fill:#00d667;stroke:#00d667;" x="91.236364" xlink:href="#ma97127c30c" y="251.710026"/>
     <use style="fill:#00d667;stroke:#00d667;" x="91.236364" xlink:href="#ma97127c30c" y="205.794589"/>
     <use style="fill:#00d667;stroke:#00d667;" x="91.236364" xlink:href="#ma97127c30c" y="250.195596"/>
     <use style="fill:#00d667;stroke:#00d667;" x="91.236364" xlink:href="#ma97127c30c" y="246.848609"/>
     <use style="fill:#00d667;stroke:#00d667;" x="91.236364" xlink:href="#ma97127c30c" y="219.538891"/>
     <use style="fill:#00d667;stroke:#00d667;" x="91.236364" xlink:href="#ma97127c30c" y="232.84536"/>
     <use style="fill:#00d667;stroke:#00d667;" x="91.236364" xlink:href="#ma97127c30c" y="223.865432"/>
     <use style="fill:#00d667;stroke:#00d667;" x="91.236364" xlink:href="#ma97127c30c" y="237.298271"/>
     <use style="fill:#00d667;stroke:#00d667;" x="91.236364" xlink:href="#ma97127c30c" y="229.16813"/>
     <use style="fill:#00d667;stroke:#00d667;" x="91.236364" xlink:href="#ma97127c30c" y="107.983841"/>
     <use style="fill:#00d667;stroke:#00d667;" x="91.236364" xlink:href="#ma97127c30c" y="250.832265"/>
     <use style="fill:#00d667;stroke:#00d667;" x="91.236364" xlink:href="#ma97127c30c" y="247.032198"/>
     <use style="fill:#00d667;stroke:#00d667;" x="91.236364" xlink:href="#ma97127c30c" y="176.140063"/>
     <use style="fill:#00d667;stroke:#00d667;" x="91.236364" xlink:href="#ma97127c30c" y="246.347997"/>
     <use style="fill:#00d667;stroke:#00d667;" x="91.236364" xlink:href="#ma97127c30c" y="237.741187"/>
     <use style="fill:#00d667;stroke:#00d667;" x="91.236364" xlink:href="#ma97127c30c" y="245.517864"/>
     <use style="fill:#00d667;stroke:#00d667;" x="91.236364" xlink:href="#ma97127c30c" y="236.659854"/>
     <use style="fill:#00d667;stroke:#00d667;" x="91.236364" xlink:href="#ma97127c30c" y="228.104549"/>
     <use style="fill:#00d667;stroke:#00d667;" x="91.236364" xlink:href="#ma97127c30c" y="245.303622"/>
     <use style="fill:#00d667;stroke:#00d667;" x="91.236364" xlink:href="#ma97127c30c" y="250.321007"/>
    </g>
   </g>
   <g id="PathCollection_2">
    <defs>
     <path d="M 0 3 
C 0.795609 3 1.55874 2.683901 2.12132 2.12132 
C 2.683901 1.55874 3 0.795609 3 0 
C 3 -0.795609 2.683901 -1.55874 2.12132 -2.12132 
C 1.55874 -2.683901 0.795609 -3 0 -3 
C -0.795609 -3 -1.55874 -2.683901 -2.12132 -2.12132 
C -2.683901 -1.55874 -3 -0.795609 -3 0 
C -3 0.795609 -2.683901 1.55874 -2.12132 2.12132 
C -1.55874 2.683901 -0.795609 3 0 3 
z
" id="m63b7c8173b" style="stroke:#000000;"/>
    </defs>
    <g clip-path="url(#p657c6e236e)">
     <use style="stroke:#000000;" x="203.963636" xlink:href="#m63b7c8173b" y="251.52968"/>
     <use style="stroke:#000000;" x="203.963636" xlink:href="#m63b7c8173b" y="187.554826"/>
     <use style="stroke:#000000;" x="203.963636" xlink:href="#m63b7c8173b" y="251.946664"/>
     <use style="stroke:#000000;" x="203.963636" xlink:href="#m63b7c8173b" y="251.938586"/>
     <use style="stroke:#000000;" x="203.963636" xlink:href="#m63b7c8173b" y="72.886725"/>
     <use style="stroke:#000000;" x="203.963636" xlink:href="#m63b7c8173b" y="183.629595"/>
     <use style="stroke:#000000;" x="203.963636" xlink:href="#m63b7c8173b" y="240.982382"/>
     <use style="stroke:#000000;" x="203.963636" xlink:href="#m63b7c8173b" y="112.108678"/>
     <use style="stroke:#000000;" x="203.963636" xlink:href="#m63b7c8173b" y="251.746597"/>
     <use style="stroke:#000000;" x="203.963636" xlink:href="#m63b7c8173b" y="99.13846"/>
     <use style="stroke:#000000;" x="203.963636" xlink:href="#m63b7c8173b" y="96.784794"/>
     <use style="stroke:#000000;" x="203.963636" xlink:href="#m63b7c8173b" y="170.749239"/>
     <use style="stroke:#000000;" x="203.963636" xlink:href="#m63b7c8173b" y="195.804413"/>
     <use style="stroke:#000000;" x="203.963636" xlink:href="#m63b7c8173b" y="168.793192"/>
     <use style="stroke:#000000;" x="203.963636" xlink:href="#m63b7c8173b" y="222.995198"/>
     <use style="stroke:#000000;" x="203.963636" xlink:href="#m63b7c8173b" y="164.707551"/>
     <use style="stroke:#000000;" x="203.963636" xlink:href="#m63b7c8173b" y="250.100835"/>
     <use style="stroke:#000000;" x="203.963636" xlink:href="#m63b7c8173b" y="171.245915"/>
     <use style="stroke:#000000;" x="203.963636" xlink:href="#m63b7c8173b" y="206.533326"/>
     <use style="stroke:#000000;" x="203.963636" xlink:href="#m63b7c8173b" y="251.782043"/>
     <use style="stroke:#000000;" x="203.963636" xlink:href="#m63b7c8173b" y="134.984714"/>
     <use style="stroke:#000000;" x="203.963636" xlink:href="#m63b7c8173b" y="251.940461"/>
     <use style="stroke:#000000;" x="203.963636" xlink:href="#m63b7c8173b" y="158.778056"/>
     <use style="stroke:#000000;" x="203.963636" xlink:href="#m63b7c8173b" y="240.674404"/>
     <use style="stroke:#000000;" x="203.963636" xlink:href="#m63b7c8173b" y="195.303927"/>
     <use style="stroke:#000000;" x="203.963636" xlink:href="#m63b7c8173b" y="116.077825"/>
     <use style="stroke:#000000;" x="203.963636" xlink:href="#m63b7c8173b" y="149.89207"/>
     <use style="stroke:#000000;" x="203.963636" xlink:href="#m63b7c8173b" y="196.674758"/>
     <use style="stroke:#000000;" x="203.963636" xlink:href="#m63b7c8173b" y="187.87286"/>
     <use style="stroke:#000000;" x="203.963636" xlink:href="#m63b7c8173b" y="173.09903"/>
     <use style="stroke:#000000;" x="203.963636" xlink:href="#m63b7c8173b" y="188.12102"/>
     <use style="stroke:#000000;" x="203.963636" xlink:href="#m63b7c8173b" y="147.604753"/>
     <use style="stroke:#000000;" x="203.963636" xlink:href="#m63b7c8173b" y="208.5522"/>
     <use style="stroke:#000000;" x="203.963636" xlink:href="#m63b7c8173b" y="175.823305"/>
     <use style="stroke:#000000;" x="203.963636" xlink:href="#m63b7c8173b" y="176.902982"/>
     <use style="stroke:#000000;" x="203.963636" xlink:href="#m63b7c8173b" y="198.067217"/>
     <use style="stroke:#000000;" x="203.963636" xlink:href="#m63b7c8173b" y="210.046726"/>
     <use style="stroke:#000000;" x="203.963636" xlink:href="#m63b7c8173b" y="209.024834"/>
     <use style="stroke:#000000;" x="203.963636" xlink:href="#m63b7c8173b" y="75.745239"/>
     <use style="stroke:#000000;" x="203.963636" xlink:href="#m63b7c8173b" y="198.989237"/>
    </g>
   </g>
   <g id="patch_3">
    <path clip-path="url(#p657c6e236e)" d="M 46.145455 252 
L 136.327273 252 
L 136.327273 228.542078 
L 46.145455 228.542078 
z
" style="fill:#00d667;opacity:0.4;"/>
   </g>
   <g id="patch_4">
    <path clip-path="url(#p657c6e236e)" d="M 158.872727 252 
L 249.054545 252 
L 249.054545 184.928358 
L 158.872727 184.928358 
z
" style="opacity:0.4;"/>
   </g>
   <g id="matplotlib.axis_1">
    <g id="xtick_1">
     <g id="line2d_1">
      <defs>
       <path d="M 0 0 
L 0 3.5 
" id="me598887c2c" style="stroke:#000000;stroke-width:0.8;"/>
      </defs>
      <g>
       <use style="stroke:#000000;stroke-width:0.8;" x="91.236364" xlink:href="#me598887c2c" y="252"/>
      </g>
     </g>
     <g id="text_1">
      <!-- 1.0 -->
      <defs>
       <path d="M 12.40625 8.296875 
L 28.515625 8.296875 
L 28.515625 63.921875 
L 10.984375 60.40625 
L 10.984375 69.390625 
L 28.421875 72.90625 
L 38.28125 72.90625 
L 38.28125 8.296875 
L 54.390625 8.296875 
L 54.390625 0 
L 12.40625 0 
z
" id="DejaVuSans-49"/>
       <path d="M 10.6875 12.40625 
L 21 12.40625 
L 21 0 
L 10.6875 0 
z
" id="DejaVuSans-46"/>
       <path d="M 31.78125 66.40625 
Q 24.171875 66.40625 20.328125 58.90625 
Q 16.5 51.421875 16.5 36.375 
Q 16.5 21.390625 20.328125 13.890625 
Q 24.171875 6.390625 31.78125 6.390625 
Q 39.453125 6.390625 43.28125 13.890625 
Q 47.125 21.390625 47.125 36.375 
Q 47.125 51.421875 43.28125 58.90625 
Q 39.453125 66.40625 31.78125 66.40625 
z
M 31.78125 74.21875 
Q 44.046875 74.21875 50.515625 64.515625 
Q 56.984375 54.828125 56.984375 36.375 
Q 56.984375 17.96875 50.515625 8.265625 
Q 44.046875 -1.421875 31.78125 -1.421875 
Q 19.53125 -1.421875 13.0625 8.265625 
Q 6.59375 17.96875 6.59375 36.375 
Q 6.59375 54.828125 13.0625 64.515625 
Q 19.53125 74.21875 31.78125 74.21875 
z
" id="DejaVuSans-48"/>
      </defs>
      <g transform="translate(83.284801 266.598437)scale(0.1 -0.1)">
       <use xlink:href="#DejaVuSans-49"/>
       <use x="63.623047" xlink:href="#DejaVuSans-46"/>
       <use x="95.410156" xlink:href="#DejaVuSans-48"/>
      </g>
     </g>
    </g>
    <g id="xtick_2">
     <g id="line2d_2">
      <g>
       <use style="stroke:#000000;stroke-width:0.8;" x="147.6" xlink:href="#me598887c2c" y="252"/>
      </g>
     </g>
     <g id="text_2">
      <!-- 1.5 -->
      <defs>
       <path d="M 10.796875 72.90625 
L 49.515625 72.90625 
L 49.515625 64.59375 
L 19.828125 64.59375 
L 19.828125 46.734375 
Q 21.96875 47.46875 24.109375 47.828125 
Q 26.265625 48.1875 28.421875 48.1875 
Q 40.625 48.1875 47.75 41.5 
Q 54.890625 34.8125 54.890625 23.390625 
Q 54.890625 11.625 47.5625 5.09375 
Q 40.234375 -1.421875 26.90625 -1.421875 
Q 22.3125 -1.421875 17.546875 -0.640625 
Q 12.796875 0.140625 7.71875 1.703125 
L 7.71875 11.625 
Q 12.109375 9.234375 16.796875 8.0625 
Q 21.484375 6.890625 26.703125 6.890625 
Q 35.15625 6.890625 40.078125 11.328125 
Q 45.015625 15.765625 45.015625 23.390625 
Q 45.015625 31 40.078125 35.4375 
Q 35.15625 39.890625 26.703125 39.890625 
Q 22.75 39.890625 18.8125 39.015625 
Q 14.890625 38.140625 10.796875 36.28125 
z
" id="DejaVuSans-53"/>
      </defs>
      <g transform="translate(139.648438 266.598437)scale(0.1 -0.1)">
       <use xlink:href="#DejaVuSans-49"/>
       <use x="63.623047" xlink:href="#DejaVuSans-46"/>
       <use x="95.410156" xlink:href="#DejaVuSans-53"/>
      </g>
     </g>
    </g>
    <g id="xtick_3">
     <g id="line2d_3">
      <g>
       <use style="stroke:#000000;stroke-width:0.8;" x="203.963636" xlink:href="#me598887c2c" y="252"/>
      </g>
     </g>
     <g id="text_3">
      <!-- 2.0 -->
      <defs>
       <path d="M 19.1875 8.296875 
L 53.609375 8.296875 
L 53.609375 0 
L 7.328125 0 
L 7.328125 8.296875 
Q 12.9375 14.109375 22.625 23.890625 
Q 32.328125 33.6875 34.8125 36.53125 
Q 39.546875 41.84375 41.421875 45.53125 
Q 43.3125 49.21875 43.3125 52.78125 
Q 43.3125 58.59375 39.234375 62.25 
Q 35.15625 65.921875 28.609375 65.921875 
Q 23.96875 65.921875 18.8125 64.3125 
Q 13.671875 62.703125 7.8125 59.421875 
L 7.8125 69.390625 
Q 13.765625 71.78125 18.9375 73 
Q 24.125 74.21875 28.421875 74.21875 
Q 39.75 74.21875 46.484375 68.546875 
Q 53.21875 62.890625 53.21875 53.421875 
Q 53.21875 48.921875 51.53125 44.890625 
Q 49.859375 40.875 45.40625 35.40625 
Q 44.1875 33.984375 37.640625 27.21875 
Q 31.109375 20.453125 19.1875 8.296875 
z
" id="DejaVuSans-50"/>
      </defs>
      <g transform="translate(196.012074 266.598437)scale(0.1 -0.1)">
       <use xlink:href="#DejaVuSans-50"/>
       <use x="63.623047" xlink:href="#DejaVuSans-46"/>
       <use x="95.410156" xlink:href="#DejaVuSans-48"/>
      </g>
     </g>
    </g>
   </g>
   <g id="matplotlib.axis_2">
    <g id="ytick_1">
     <g id="line2d_4">
      <defs>
       <path d="M 0 0 
L -3.5 0 
" id="m028e3323e8" style="stroke:#000000;stroke-width:0.8;"/>
      </defs>
      <g>
       <use style="stroke:#000000;stroke-width:0.8;" x="36" xlink:href="#m028e3323e8" y="252"/>
      </g>
     </g>
     <g id="text_4">
      <!-- 0.0 -->
      <g transform="translate(13.096875 255.799219)scale(0.1 -0.1)">
       <use xlink:href="#DejaVuSans-48"/>
       <use x="63.623047" xlink:href="#DejaVuSans-46"/>
       <use x="95.410156" xlink:href="#DejaVuSans-48"/>
      </g>
     </g>
    </g>
    <g id="ytick_2">
     <g id="line2d_5">
      <g>
       <use style="stroke:#000000;stroke-width:0.8;" x="36" xlink:href="#m028e3323e8" y="208.512"/>
      </g>
     </g>
     <g id="text_5">
      <!-- 0.2 -->
      <g transform="translate(13.096875 212.311219)scale(0.1 -0.1)">
       <use xlink:href="#DejaVuSans-48"/>
       <use x="63.623047" xlink:href="#DejaVuSans-46"/>
       <use x="95.410156" xlink:href="#DejaVuSans-50"/>
      </g>
     </g>
    </g>
    <g id="ytick_3">
     <g id="line2d_6">
      <g>
       <use style="stroke:#000000;stroke-width:0.8;" x="36" xlink:href="#m028e3323e8" y="165.024"/>
      </g>
     </g>
     <g id="text_6">
      <!-- 0.4 -->
      <defs>
       <path d="M 37.796875 64.3125 
L 12.890625 25.390625 
L 37.796875 25.390625 
z
M 35.203125 72.90625 
L 47.609375 72.90625 
L 47.609375 25.390625 
L 58.015625 25.390625 
L 58.015625 17.1875 
L 47.609375 17.1875 
L 47.609375 0 
L 37.796875 0 
L 37.796875 17.1875 
L 4.890625 17.1875 
L 4.890625 26.703125 
z
" id="DejaVuSans-52"/>
      </defs>
      <g transform="translate(13.096875 168.823219)scale(0.1 -0.1)">
       <use xlink:href="#DejaVuSans-48"/>
       <use x="63.623047" xlink:href="#DejaVuSans-46"/>
       <use x="95.410156" xlink:href="#DejaVuSans-52"/>
      </g>
     </g>
    </g>
    <g id="ytick_4">
     <g id="line2d_7">
      <g>
       <use style="stroke:#000000;stroke-width:0.8;" x="36" xlink:href="#m028e3323e8" y="121.536"/>
      </g>
     </g>
     <g id="text_7">
      <!-- 0.6 -->
      <defs>
       <path d="M 33.015625 40.375 
Q 26.375 40.375 22.484375 35.828125 
Q 18.609375 31.296875 18.609375 23.390625 
Q 18.609375 15.53125 22.484375 10.953125 
Q 26.375 6.390625 33.015625 6.390625 
Q 39.65625 6.390625 43.53125 10.953125 
Q 47.40625 15.53125 47.40625 23.390625 
Q 47.40625 31.296875 43.53125 35.828125 
Q 39.65625 40.375 33.015625 40.375 
z
M 52.59375 71.296875 
L 52.59375 62.3125 
Q 48.875 64.0625 45.09375 64.984375 
Q 41.3125 65.921875 37.59375 65.921875 
Q 27.828125 65.921875 22.671875 59.328125 
Q 17.53125 52.734375 16.796875 39.40625 
Q 19.671875 43.65625 24.015625 45.921875 
Q 28.375 48.1875 33.59375 48.1875 
Q 44.578125 48.1875 50.953125 41.515625 
Q 57.328125 34.859375 57.328125 23.390625 
Q 57.328125 12.15625 50.6875 5.359375 
Q 44.046875 -1.421875 33.015625 -1.421875 
Q 20.359375 -1.421875 13.671875 8.265625 
Q 6.984375 17.96875 6.984375 36.375 
Q 6.984375 53.65625 15.1875 63.9375 
Q 23.390625 74.21875 37.203125 74.21875 
Q 40.921875 74.21875 44.703125 73.484375 
Q 48.484375 72.75 52.59375 71.296875 
z
" id="DejaVuSans-54"/>
      </defs>
      <g transform="translate(13.096875 125.335219)scale(0.1 -0.1)">
       <use xlink:href="#DejaVuSans-48"/>
       <use x="63.623047" xlink:href="#DejaVuSans-46"/>
       <use x="95.410156" xlink:href="#DejaVuSans-54"/>
      </g>
     </g>
    </g>
    <g id="ytick_5">
     <g id="line2d_8">
      <g>
       <use style="stroke:#000000;stroke-width:0.8;" x="36" xlink:href="#m028e3323e8" y="78.048"/>
      </g>
     </g>
     <g id="text_8">
      <!-- 0.8 -->
      <defs>
       <path d="M 31.78125 34.625 
Q 24.75 34.625 20.71875 30.859375 
Q 16.703125 27.09375 16.703125 20.515625 
Q 16.703125 13.921875 20.71875 10.15625 
Q 24.75 6.390625 31.78125 6.390625 
Q 38.8125 6.390625 42.859375 10.171875 
Q 46.921875 13.96875 46.921875 20.515625 
Q 46.921875 27.09375 42.890625 30.859375 
Q 38.875 34.625 31.78125 34.625 
z
M 21.921875 38.8125 
Q 15.578125 40.375 12.03125 44.71875 
Q 8.5 49.078125 8.5 55.328125 
Q 8.5 64.0625 14.71875 69.140625 
Q 20.953125 74.21875 31.78125 74.21875 
Q 42.671875 74.21875 48.875 69.140625 
Q 55.078125 64.0625 55.078125 55.328125 
Q 55.078125 49.078125 51.53125 44.71875 
Q 48 40.375 41.703125 38.8125 
Q 48.828125 37.15625 52.796875 32.3125 
Q 56.78125 27.484375 56.78125 20.515625 
Q 56.78125 9.90625 50.3125 4.234375 
Q 43.84375 -1.421875 31.78125 -1.421875 
Q 19.734375 -1.421875 13.25 4.234375 
Q 6.78125 9.90625 6.78125 20.515625 
Q 6.78125 27.484375 10.78125 32.3125 
Q 14.796875 37.15625 21.921875 38.8125 
z
M 18.3125 54.390625 
Q 18.3125 48.734375 21.84375 45.5625 
Q 25.390625 42.390625 31.78125 42.390625 
Q 38.140625 42.390625 41.71875 45.5625 
Q 45.3125 48.734375 45.3125 54.390625 
Q 45.3125 60.0625 41.71875 63.234375 
Q 38.140625 66.40625 31.78125 66.40625 
Q 25.390625 66.40625 21.84375 63.234375 
Q 18.3125 60.0625 18.3125 54.390625 
z
" id="DejaVuSans-56"/>
      </defs>
      <g transform="translate(13.096875 81.847219)scale(0.1 -0.1)">
       <use xlink:href="#DejaVuSans-48"/>
       <use x="63.623047" xlink:href="#DejaVuSans-46"/>
       <use x="95.410156" xlink:href="#DejaVuSans-56"/>
      </g>
     </g>
    </g>
    <g id="ytick_6">
     <g id="line2d_9">
      <g>
       <use style="stroke:#000000;stroke-width:0.8;" x="36" xlink:href="#m028e3323e8" y="34.56"/>
      </g>
     </g>
     <g id="text_9">
      <!-- 1.0 -->
      <g transform="translate(13.096875 38.359219)scale(0.1 -0.1)">
       <use xlink:href="#DejaVuSans-49"/>
       <use x="63.623047" xlink:href="#DejaVuSans-46"/>
       <use x="95.410156" xlink:href="#DejaVuSans-48"/>
      </g>
     </g>
    </g>
    <g id="text_10">
     <!-- $\phi^{MB}$ -->
     <defs>
      <path d="M 46.734375 75.984375 
L 42.78125 55.8125 
Q 52.546875 55.8125 57.5625 48.34375 
Q 62.75 40.71875 60.15625 27.296875 
Q 57.515625 13.875 49.359375 6.25 
Q 41.453125 -1.21875 31.6875 -1.21875 
L 27.875 -20.796875 
L 18.953125 -20.796875 
L 22.75 -1.21875 
Q 13.03125 -1.21875 7.953125 6.25 
Q 2.78125 13.875 5.421875 27.296875 
Q 8.015625 40.71875 16.15625 48.34375 
Q 24.125 55.8125 33.84375 55.8125 
L 37.796875 75.984375 
z
M 33.25 6.78125 
Q 38.765625 6.78125 43.5 11.8125 
Q 48.6875 17.4375 50.6875 27.296875 
Q 52.640625 37.0625 49.515625 42.78125 
Q 46.734375 47.796875 41.21875 47.796875 
z
M 24.3125 6.78125 
L 32.28125 47.796875 
Q 26.8125 47.796875 22.078125 42.78125 
Q 16.75 37.0625 14.890625 27.296875 
Q 13.03125 17.4375 16.0625 11.8125 
Q 18.796875 6.78125 24.3125 6.78125 
z
" id="DejaVuSans-Oblique-981"/>
      <path d="M 16.890625 72.90625 
L 31.6875 72.90625 
L 40.1875 23.78125 
L 68.40625 72.90625 
L 83.59375 72.90625 
L 69.390625 0 
L 59.8125 0 
L 72.21875 63.921875 
L 43.609375 14.015625 
L 33.984375 14.015625 
L 24.703125 64.109375 
L 12.3125 0 
L 2.6875 0 
z
" id="DejaVuSans-Oblique-77"/>
      <path d="M 16.890625 72.90625 
L 42.09375 72.90625 
Q 52.34375 72.90625 57.421875 69.09375 
Q 62.5 65.28125 62.5 57.625 
Q 62.5 50.59375 58.125 45.484375 
Q 53.765625 40.375 46.6875 39.3125 
Q 52.734375 37.9375 55.765625 34.078125 
Q 58.796875 30.21875 58.796875 23.78125 
Q 58.796875 12.796875 50.65625 6.390625 
Q 42.53125 0 28.421875 0 
L 2.6875 0 
z
M 19.28125 34.8125 
L 14.109375 8.109375 
L 29.984375 8.109375 
Q 38.921875 8.109375 43.75 12.203125 
Q 48.578125 16.3125 48.578125 23.78125 
Q 48.578125 29.546875 45.375 32.171875 
Q 42.1875 34.8125 35.109375 34.8125 
z
M 25.09375 64.796875 
L 20.796875 42.828125 
L 35.5 42.828125 
Q 43.359375 42.828125 47.78125 46.234375 
Q 52.203125 49.65625 52.203125 55.71875 
Q 52.203125 60.453125 49.21875 62.625 
Q 46.234375 64.796875 39.703125 64.796875 
z
" id="DejaVuSans-Oblique-66"/>
     </defs>
     <g transform="translate(6.156875 156.23)rotate(-90)scale(0.14 -0.14)">
      <use transform="translate(0 0.684375)" xlink:href="#DejaVuSans-Oblique-981"/>
      <use transform="translate(73.414505 38.965625)scale(0.7)" xlink:href="#DejaVuSans-Oblique-77"/>
      <use transform="translate(133.810013 38.965625)scale(0.7)" xlink:href="#DejaVuSans-Oblique-66"/>
     </g>
    </g>
   </g>
   <g id="line2d_10">
    <path clip-path="url(#p657c6e236e)" d="M 91.236364 246.123393 
L 203.963636 251.52968 
" style="fill:none;stroke:#000000;stroke-linecap:square;stroke-opacity:0.8;stroke-width:1.5;"/>
   </g>
   <g id="line2d_11">
    <path clip-path="url(#p657c6e236e)" d="M 91.236364 218.615928 
L 203.963636 187.554826 
" style="fill:none;stroke:#000000;stroke-linecap:square;stroke-opacity:0.8;stroke-width:1.5;"/>
   </g>
   <g id="line2d_12">
    <path clip-path="url(#p657c6e236e)" d="M 91.236364 208.172478 
L 203.963636 251.946664 
" style="fill:none;stroke:#000000;stroke-linecap:square;stroke-opacity:0.8;stroke-width:1.5;"/>
   </g>
   <g id="line2d_13">
    <path clip-path="url(#p657c6e236e)" d="M 91.236364 169.073372 
L 203.963636 251.938586 
" style="fill:none;stroke:#000000;stroke-linecap:square;stroke-opacity:0.8;stroke-width:1.5;"/>
   </g>
   <g id="line2d_14">
    <path clip-path="url(#p657c6e236e)" d="M 91.236364 211.222772 
L 203.963636 72.886725 
" style="fill:none;stroke:#000000;stroke-linecap:square;stroke-opacity:0.8;stroke-width:1.5;"/>
   </g>
   <g id="line2d_15">
    <path clip-path="url(#p657c6e236e)" d="M 91.236364 233.024518 
L 203.963636 183.629595 
" style="fill:none;stroke:#000000;stroke-linecap:square;stroke-opacity:0.8;stroke-width:1.5;"/>
   </g>
   <g id="line2d_16">
    <path clip-path="url(#p657c6e236e)" d="M 91.236364 242.191677 
L 203.963636 240.982382 
" style="fill:none;stroke:#000000;stroke-linecap:square;stroke-opacity:0.8;stroke-width:1.5;"/>
   </g>
   <g id="line2d_17">
    <path clip-path="url(#p657c6e236e)" d="M 91.236364 243.665816 
L 203.963636 112.108678 
" style="fill:none;stroke:#000000;stroke-linecap:square;stroke-opacity:0.8;stroke-width:1.5;"/>
   </g>
   <g id="line2d_18">
    <path clip-path="url(#p657c6e236e)" d="M 91.236364 251.319769 
L 203.963636 251.746597 
" style="fill:none;stroke:#000000;stroke-linecap:square;stroke-opacity:0.8;stroke-width:1.5;"/>
   </g>
   <g id="line2d_19">
    <path clip-path="url(#p657c6e236e)" d="M 91.236364 192.733314 
L 203.963636 99.13846 
" style="fill:none;stroke:#000000;stroke-linecap:square;stroke-opacity:0.8;stroke-width:1.5;"/>
   </g>
   <g id="line2d_20">
    <path clip-path="url(#p657c6e236e)" d="M 91.236364 244.90053 
L 203.963636 96.784794 
" style="fill:none;stroke:#000000;stroke-linecap:square;stroke-opacity:0.8;stroke-width:1.5;"/>
   </g>
   <g id="line2d_21">
    <path clip-path="url(#p657c6e236e)" d="M 91.236364 244.371942 
L 203.963636 170.749239 
" style="fill:none;stroke:#000000;stroke-linecap:square;stroke-opacity:0.8;stroke-width:1.5;"/>
   </g>
   <g id="line2d_22">
    <path clip-path="url(#p657c6e236e)" d="M 91.236364 250.790366 
L 203.963636 195.804413 
" style="fill:none;stroke:#000000;stroke-linecap:square;stroke-opacity:0.8;stroke-width:1.5;"/>
   </g>
   <g id="line2d_23">
    <path clip-path="url(#p657c6e236e)" d="M 91.236364 250.98803 
L 203.963636 168.793192 
" style="fill:none;stroke:#000000;stroke-linecap:square;stroke-opacity:0.8;stroke-width:1.5;"/>
   </g>
   <g id="line2d_24">
    <path clip-path="url(#p657c6e236e)" d="M 91.236364 235.702561 
L 203.963636 222.995198 
" style="fill:none;stroke:#000000;stroke-linecap:square;stroke-opacity:0.8;stroke-width:1.5;"/>
   </g>
   <g id="line2d_25">
    <path clip-path="url(#p657c6e236e)" d="M 91.236364 241.917836 
L 203.963636 164.707551 
" style="fill:none;stroke:#000000;stroke-linecap:square;stroke-opacity:0.8;stroke-width:1.5;"/>
   </g>
   <g id="line2d_26">
    <path clip-path="url(#p657c6e236e)" d="M 91.236364 200.942342 
L 203.963636 250.100835 
" style="fill:none;stroke:#000000;stroke-linecap:square;stroke-opacity:0.8;stroke-width:1.5;"/>
   </g>
   <g id="line2d_27">
    <path clip-path="url(#p657c6e236e)" d="M 91.236364 237.258925 
L 203.963636 171.245915 
" style="fill:none;stroke:#000000;stroke-linecap:square;stroke-opacity:0.8;stroke-width:1.5;"/>
   </g>
   <g id="line2d_28">
    <path clip-path="url(#p657c6e236e)" d="M 91.236364 250.176096 
L 203.963636 206.533326 
" style="fill:none;stroke:#000000;stroke-linecap:square;stroke-opacity:0.8;stroke-width:1.5;"/>
   </g>
   <g id="line2d_29">
    <path clip-path="url(#p657c6e236e)" d="M 91.236364 199.242117 
L 203.963636 251.782043 
" style="fill:none;stroke:#000000;stroke-linecap:square;stroke-opacity:0.8;stroke-width:1.5;"/>
   </g>
   <g id="line2d_30">
    <path clip-path="url(#p657c6e236e)" d="M 91.236364 251.710026 
L 203.963636 134.984714 
" style="fill:none;stroke:#000000;stroke-linecap:square;stroke-opacity:0.8;stroke-width:1.5;"/>
   </g>
   <g id="line2d_31">
    <path clip-path="url(#p657c6e236e)" d="M 91.236364 205.794589 
L 203.963636 251.940461 
" style="fill:none;stroke:#000000;stroke-linecap:square;stroke-opacity:0.8;stroke-width:1.5;"/>
   </g>
   <g id="line2d_32">
    <path clip-path="url(#p657c6e236e)" d="M 91.236364 250.195596 
L 203.963636 158.778056 
" style="fill:none;stroke:#000000;stroke-linecap:square;stroke-opacity:0.8;stroke-width:1.5;"/>
   </g>
   <g id="line2d_33">
    <path clip-path="url(#p657c6e236e)" d="M 91.236364 246.848609 
L 203.963636 240.674404 
" style="fill:none;stroke:#000000;stroke-linecap:square;stroke-opacity:0.8;stroke-width:1.5;"/>
   </g>
   <g id="line2d_34">
    <path clip-path="url(#p657c6e236e)" d="M 91.236364 219.538891 
L 203.963636 195.303927 
" style="fill:none;stroke:#000000;stroke-linecap:square;stroke-opacity:0.8;stroke-width:1.5;"/>
   </g>
   <g id="line2d_35">
    <path clip-path="url(#p657c6e236e)" d="M 91.236364 232.84536 
L 203.963636 116.077825 
" style="fill:none;stroke:#000000;stroke-linecap:square;stroke-opacity:0.8;stroke-width:1.5;"/>
   </g>
   <g id="line2d_36">
    <path clip-path="url(#p657c6e236e)" d="M 91.236364 223.865432 
L 203.963636 149.89207 
" style="fill:none;stroke:#000000;stroke-linecap:square;stroke-opacity:0.8;stroke-width:1.5;"/>
   </g>
   <g id="line2d_37">
    <path clip-path="url(#p657c6e236e)" d="M 91.236364 237.298271 
L 203.963636 196.674758 
" style="fill:none;stroke:#000000;stroke-linecap:square;stroke-opacity:0.8;stroke-width:1.5;"/>
   </g>
   <g id="line2d_38">
    <path clip-path="url(#p657c6e236e)" d="M 91.236364 229.16813 
L 203.963636 187.87286 
" style="fill:none;stroke:#000000;stroke-linecap:square;stroke-opacity:0.8;stroke-width:1.5;"/>
   </g>
   <g id="line2d_39">
    <path clip-path="url(#p657c6e236e)" d="M 91.236364 107.983841 
L 203.963636 173.09903 
" style="fill:none;stroke:#000000;stroke-linecap:square;stroke-opacity:0.8;stroke-width:1.5;"/>
   </g>
   <g id="line2d_40">
    <path clip-path="url(#p657c6e236e)" d="M 91.236364 250.832265 
L 203.963636 188.12102 
" style="fill:none;stroke:#000000;stroke-linecap:square;stroke-opacity:0.8;stroke-width:1.5;"/>
   </g>
   <g id="line2d_41">
    <path clip-path="url(#p657c6e236e)" d="M 91.236364 247.032198 
L 203.963636 147.604753 
" style="fill:none;stroke:#000000;stroke-linecap:square;stroke-opacity:0.8;stroke-width:1.5;"/>
   </g>
   <g id="line2d_42">
    <path clip-path="url(#p657c6e236e)" d="M 91.236364 176.140063 
L 203.963636 208.5522 
" style="fill:none;stroke:#000000;stroke-linecap:square;stroke-opacity:0.8;stroke-width:1.5;"/>
   </g>
   <g id="line2d_43">
    <path clip-path="url(#p657c6e236e)" d="M 91.236364 246.347997 
L 203.963636 175.823305 
" style="fill:none;stroke:#000000;stroke-linecap:square;stroke-opacity:0.8;stroke-width:1.5;"/>
   </g>
   <g id="line2d_44">
    <path clip-path="url(#p657c6e236e)" d="M 91.236364 237.741187 
L 203.963636 176.902982 
" style="fill:none;stroke:#000000;stroke-linecap:square;stroke-opacity:0.8;stroke-width:1.5;"/>
   </g>
   <g id="line2d_45">
    <path clip-path="url(#p657c6e236e)" d="M 91.236364 245.517864 
L 203.963636 198.067217 
" style="fill:none;stroke:#000000;stroke-linecap:square;stroke-opacity:0.8;stroke-width:1.5;"/>
   </g>
   <g id="line2d_46">
    <path clip-path="url(#p657c6e236e)" d="M 91.236364 236.659854 
L 203.963636 210.046726 
" style="fill:none;stroke:#000000;stroke-linecap:square;stroke-opacity:0.8;stroke-width:1.5;"/>
   </g>
   <g id="line2d_47">
    <path clip-path="url(#p657c6e236e)" d="M 91.236364 228.104549 
L 203.963636 209.024834 
" style="fill:none;stroke:#000000;stroke-linecap:square;stroke-opacity:0.8;stroke-width:1.5;"/>
   </g>
   <g id="line2d_48">
    <path clip-path="url(#p657c6e236e)" d="M 91.236364 245.303622 
L 203.963636 75.745239 
" style="fill:none;stroke:#000000;stroke-linecap:square;stroke-opacity:0.8;stroke-width:1.5;"/>
   </g>
   <g id="line2d_49">
    <path clip-path="url(#p657c6e236e)" d="M 91.236364 250.321007 
L 203.963636 198.989237 
" style="fill:none;stroke:#000000;stroke-linecap:square;stroke-opacity:0.8;stroke-width:1.5;"/>
   </g>
   <g id="patch_5">
    <path d="M 36 252 
L 36 34.56 
" style="fill:none;stroke:#000000;stroke-linecap:square;stroke-linejoin:miter;stroke-width:0.8;"/>
   </g>
   <g id="patch_6">
    <path d="M 259.2 252 
L 259.2 34.56 
" style="fill:none;stroke:#000000;stroke-linecap:square;stroke-linejoin:miter;stroke-width:0.8;"/>
   </g>
   <g id="patch_7">
    <path d="M 36 252 
L 259.2 252 
" style="fill:none;stroke:#000000;stroke-linecap:square;stroke-linejoin:miter;stroke-width:0.8;"/>
   </g>
   <g id="patch_8">
    <path d="M 36 34.56 
L 259.2 34.56 
" style="fill:none;stroke:#000000;stroke-linecap:square;stroke-linejoin:miter;stroke-width:0.8;"/>
   </g>
  </g>
 </g>
 <defs>
  <clipPath id="p657c6e236e">
   <rect height="217.44" width="223.2" x="36" y="34.56"/>
  </clipPath>
 </defs>
</svg>
