<svg xmlns:inkscape="http://www.inkscape.org/namespaces/inkscape" xmlns:rdf="http://www.w3.org/1999/02/22-rdf-syntax-ns#" xmlns="http://www.w3.org/2000/svg" xmlns:sodipodi="http://sodipodi.sourceforge.net/DTD/sodipodi-0.dtd" xmlns:cc="http://creativecommons.org/ns#" xmlns:xlink="http://www.w3.org/1999/xlink" xmlns:dc="http://purl.org/dc/elements/1.1/" xmlns:svg="http://www.w3.org/2000/svg" xmlns:ns1="http://sozi.baierouge.fr" id="svg2" sodipodi:docname="pond.svg" viewBox="0 0 128 128" sodipodi:version="0.32" version="1.0" inkscape:output_extension="org.inkscape.output.svg.inkscape" inkscape:version="0.45+devel" width="128"  height="128" >
  <defs id="defs4">
    <linearGradient id="linearGradient2954">
      <stop id="stop2956" style="stop-color:#00a100" offset="0"/>
      <stop id="stop2958" style="stop-color:#00f500" offset="1"/>
    </linearGradient>
    <linearGradient id="linearGradient2894" y2="76.385" gradientUnits="userSpaceOnUse" x2="117.3" gradientTransform="translate(.86486 .17297)" y1="50.578" x1="24.462" inkscape:collect="always">
      <stop id="stop2890" style="stop-color:#007dff" offset="0"/>
      <stop id="stop2892" style="stop-color:#58abff" offset="1"/>
    </linearGradient>
    <linearGradient id="linearGradient2960" y2="65.194" xlink:href="#linearGradient2954" gradientUnits="userSpaceOnUse" x2="89.287" gradientTransform="translate(.86486 .17297)" y1="69.719" x1="81.092" inkscape:collect="always"/>
    <linearGradient id="linearGradient2964" y2="73.083" xlink:href="#linearGradient2954" gradientUnits="userSpaceOnUse" x2="100.6" gradientTransform="translate(.86486 .17297)" y1="73.083" x1="91.549" inkscape:collect="always"/>
    <linearGradient id="linearGradient2320">
      <stop id="stop2322" style="stop-color:#6a3c1d" offset="0"/>
      <stop id="stop2324" style="stop-color:#8f5127" offset="1"/>
    </linearGradient>
    <linearGradient id="linearGradient2338">
      <stop id="stop2340" style="stop-color:#b1b1b1" offset="0"/>
      <stop id="stop2342" style="stop-color:#e4e4e4" offset="1"/>
    </linearGradient>
    <linearGradient id="linearGradient3029" y2="53.189" xlink:href="#linearGradient2320" gradientUnits="userSpaceOnUse" x2="87.784" gradientTransform="translate(.86486 .17297)" y1="50.335" x1="59.849" inkscape:collect="always"/>
    <linearGradient id="linearGradient3035" y2="56.303" xlink:href="#linearGradient2320" gradientUnits="userSpaceOnUse" x2="72.476" gradientTransform="translate(.86486 .17297)" y1="60.454" x1="74.162" inkscape:collect="always"/>
    <linearGradient id="linearGradient3039" y2="39.784" xlink:href="#linearGradient2338" gradientUnits="userSpaceOnUse" x2="65.497" gradientTransform="translate(.86486 .17297)" y1="87.178" x1="13.319" inkscape:collect="always"/>
    <linearGradient id="linearGradient3045" y2="65.938" xlink:href="#linearGradient2338" gradientUnits="userSpaceOnUse" x2="46.125" gradientTransform="translate(.86486 .17297)" y1="79.688" x1="45.75" inkscape:collect="always"/>
    <linearGradient id="linearGradient3051" y2="30.125" xlink:href="#linearGradient2338" gradientUnits="userSpaceOnUse" x2="60" gradientTransform="translate(.86486 .17297)" y1="96.5" x1="21.875" inkscape:collect="always"/>
    <linearGradient id="linearGradient3060" y2="6.2363" xlink:href="#linearGradient2338" gradientUnits="userSpaceOnUse" x2="56.503" gradientTransform="translate(.86486 .17297)" y1="46.718" x1="52.244" inkscape:collect="always"/>
    <filter id="filter3178" height="1.3016" width="1.2099" y="-.15080" x="-.10495" inkscape:collect="always">
      <feGaussianBlur id="feGaussianBlur3180" stdDeviation="1.144094" inkscape:collect="always"/>
    </filter>
    <filter id="filter3244" height="1.2487" width="1.3494" y="-.12435" x="-.17471" inkscape:collect="always">
      <feGaussianBlur id="feGaussianBlur3246" stdDeviation="1.6400978" inkscape:collect="always"/>
    </filter>
  </defs>
  <sodipodi:namedview id="base" bordercolor="#666666" inkscape:pageshadow="2" guidetolerance="10" pagecolor="#ffffff" gridtolerance="10000" inkscape:window-height="975" width="744.09px" inkscape:zoom="1" objecttolerance="10" showgrid="false" borderopacity="1.0" inkscape:current-layer="layer2" inkscape:cx="208.06408" inkscape:cy="64" inkscape:window-y="24" inkscape:window-x="426" inkscape:window-width="1248" inkscape:pageopacity="0.0" inkscape:document-units="px"/>
  <g id="layer2" inkscape:label="colors" inkscape:groupmode="layer">
    <path id="path3182" style="filter:url(#filter3244);fill-rule:evenodd;fill:#000000;fill-opacity:.42922" d="m14.184 36.151s-8.3029 4.152-9.1678 4.671c-0.8648 0.519-3.4594 8.302-3.4594 10.205s4.6702 12.108 5.7081 12.627c1.0378 0.519 7.4381 4.151 11.07 4.151 3.633 0 12.8-26.119-4.151-31.654z"/>
    <path id="path2309" sodipodi:nodetypes="cccccccccccccsccccccccccccccccccccccccc" style="fill-rule:evenodd;fill:url(#linearGradient2894)" d="m38.047 33.872l-6.115 0.489-3.792 1.59-4.403 2.691-4.77 1.834-2.936 2.569-1.957 4.036 1.59 2.691 4.771 5.871 8.194 5.259 8.562 4.037 10.396 4.892 2.569 3.914s8.195 10.763 8.929 11.986c0.733 1.223 5.504 5.749 5.504 5.749l8.684 5.504 8.561 1.345 6.238-0.244 9.54-2.936 11.248-5.381 6-4.281 4.28-6.85 0.24-3.669-3.05-5.259-4.16-3.792c-3.28-2.744-7.2-5.165-11.13-7.583l-6.363-2.813-7.95-3.67-1.468-0.856-14.555-5.504-3.547-0.978-1.468-0.49-1.957-0.489-3.914-3.547-3.547-2.691-6.849-3.057-3.425-1.101h-3.057l-4.893 0.734z"/>
    <path id="path3064" style="filter:url(#filter3178);fill-rule:evenodd;fill:#000000;fill-opacity:.78995" d="m60.615 65.417l-11.313-5.48 1.944-4.773 3.713-1.768 1.06-1.414s5.127 0.531 5.834-1.414 2.828-2.298 2.828-2.298l4.42-1.061 6.364 5.834-14.85 12.374z"/>
    <path id="path2896" sodipodi:nodetypes="cccccccccccccc" style="fill-rule:evenodd;fill:url(#linearGradient2960)" d="m92.598 68.363l-1.468-2.568-2.263-1.101-2.813-0.489-3.608 0.856-2.141 1.651-0.55 1.835 1.284 2.262 3.18 1.346 2.324 0.122 3.241-0.489 1.896-0.856-5.565-3.18 6.483 0.611z"/>
    <path id="path2962" style="fill-rule:evenodd;fill:url(#linearGradient2964)" d="m96.512 70.504l-2.08 0.305-1.284 0.857-0.734 1.59 0.734 1.345 0.979 0.673 2.018 0.795 1.406-0.306 2.324-0.489 1.165-0.795 0.43-1.285-0.62-1.039-1.22-1.162-1.223 1.04-1.834 1.651 0.122-1.529 0.122-1.713-0.305 0.062z"/>
    <path id="path3025" style="fill-rule:evenodd;fill:#ff00ff" d="m38.919 50.768l-1.384-1.557-0.346-0.692-2.162 1.903 1.557 0.173 0.086 1.643 3.373 0.778 3.46-0.346 1.902-3.286-2.248 1.211-4.238 0.173z"/>
    <path id="path3027" sodipodi:nodetypes="ccccccccccccccccccccccccccccccccccccccccc" style="fill-rule:evenodd;fill:url(#linearGradient3029)" d="m51.892 60.108l0.086-2.249 1.384-2.248 2.249 0.173 1.038-2.422 2.854-0.173 0.692-1.557 2.421-0.605 1.038-1.816h1.73l1.038-2.076 2.162-0.086 0.432-1.471 1.903-0.173 0.692-1.47 2.075-0.173 0.346-1.384 2.076-0.173 0.087-1.297 1.989-0.259 10.465 4.583-1.125 1.99-1.898 0.017-1.129 1.799-1.729 0.173-0.519 1.73-1.903-0.173-0.432 1.643-1.99 0.086-1.383 2.335-2.249-0.173-0.865 1.903-2.249 0.433-0.778 1.556-2.162 0.606-1.47 1.816-2.336 0.346-0.951 2.076h-1.643l-0.346 2.594-9.6-5.881z"/>
    <path id="path3031" style="fill-rule:evenodd;fill:#000000;fill-opacity:.15686" d="m52.238 57.773l9.6 5.622-0.087 2.594-9.859-5.794 0.346-2.422z"/>
    <path id="path3033" sodipodi:nodetypes="cccccccccccccccccccccccccccccccccccccccc" style="fill-rule:evenodd;fill:url(#linearGradient3035)" d="m61.146 63.049l2.335 0.346 0.951-2.076 2.422-0.346 1.297-1.903 2.163-0.432 0.951-1.643 2.249-0.519 0.951-1.73 2.162-0.087 1.211-1.989h2.076l0.259-1.989 2.249 0.346 0.259-1.73 1.989-0.086 0.812-2.028 1.783 0.212 1.384-2.076 0.173 0.432 0.086 1.298-0.605 1.989-2.508 0.173-0.433 1.643-2.248 0.087-0.26 1.556-1.989 0.173-0.519 1.816h-1.903l-1.211 1.99-2.421 0.346-0.433 1.47-2.421 0.692-0.779 1.557-2.767 0.864-0.692 1.471-3.114 0.778-0.605 1.989-2.508 0.346-0.346-2.94z"/>
    <path id="path3037" sodipodi:nodetypes="ccccccccccccccccccccccccccccccccccccccccccccccccccccccccccccccc" style="fill-rule:evenodd;fill:url(#linearGradient3039)" d="m18.355 35.217c-1.164 0.33-1.888 0.072-3.669 1.223l-3.425 2.079-3.0575 3.181-1.8347 3.791-0.3669 3.669-0.3669 2.936 0.4892 3.302 2.3239 5.015 4.6479 5.137 4.77 3.058 7.094 4.648 7.339 3.669 3.791 2.324 4.526 2.935 3.669 5.26 4.281 6.237 4.158 5.749 4.526 4.4 7.461 4.16 10.396 3.92 7.339 1.22 5.504 0.12 5.504-0.23 4.403-0.75 8.193-2.57 4.04-2.08 6.11-4.28 5.14-5.5 1.35-2.202 1.95-3.791 0.98-2.691 1.47-6.116-1.59-3.547-1.22-1.345-2.22-1.489 0.14 3.201v3.303l-2.33 4.036-0.98 1.957-6.11 5.259-1.35 1.101-13.695 7.464-11.498 2.69-2.935 0.12-7.706-1.1-5.014-1.84-5.749-3.42-2.935-2.324-5.993-6.849-3.303-5.015-5.504-8.317-1.957-1.59-15.166-8.073-11.742-6.727-4.892-4.281-2.324-4.036 0.367-4.77-0.245-2.079 0.611-3.547 2.08-2.569 2.935-3.18 1.59-0.856z"/>
    <path id="path3041" sodipodi:nodetypes="ccccccccccccccccccccccccccccccccc" style="fill-rule:evenodd;fill:#000000;fill-opacity:.15686" d="m6.0019 49.16l-0.3669 2.936 0.4892 3.302 2.3239 5.015 4.6479 5.137 4.77 3.058 7.094 4.648 7.339 3.669 3.791 2.324 4.526 2.935 3.669 5.26 4.281 6.237 4.158 5.749 4.526 4.4 7.461 4.16 10.396 3.92 7.339 1.22 5.504 0.12 5.504-0.23-0.044-1.48-7.691 0.18-4.579-0.48-6.841-1.36-8.215-3.39-6.008-3.6-4.665-4.054c-2.617-2.073-4.888-5.013-7.047-8.232l-3.86-5.29-2.909-5.395-15.599-8.938-7.504-4.738c-4.41-2.197-7.03-5.512-9.6375-8.836-1.2592-2.363-2.496-4.755-2.8526-8.247z"/>
    <path id="path3043" sodipodi:nodetypes="ccccccccccccccccccccccccccccccccscccccccccccc" style="fill-rule:evenodd;fill:url(#linearGradient3045)" d="m10.74 45.423l0.375 2.375-0.25 2.125 0.625 3.625 2.625 3.375 5.5 4.25 3.875 2.5 10.625 6 10 5.25 2.625 1.5 4.875 7.5 9.25 12.25 4.5 3.5 7.125 3.747 2.75 1 8.75 1.38 4.875-0.75 4.875-0.63 5.75-2.37 8.37-4.252 6.13-4.5 4.12-3.125 3.38-6.125 0.87-1.75-0.25-5.625-1 3.875-5.87 7.5-4.75 3.375-7.75 4.5-11.5 4.497-9.5 1-7.875-1.497s-4.625-2.375-5.875-2.75-6.375-5.125-6.375-5.125l-6.75-7.625-4.625-7.625-2.25-3.125-2.5-2-6.125-3.5-7.25-3.375-8.5-4.875-2.75-1.625-6.375-5.625-3-4.875-0.75-2.375z"/>
    <path id="path3047" sodipodi:nodetypes="ccccccccccccccccccccscccccccccccc" style="fill-rule:evenodd;fill:#000000;fill-opacity:.15686" d="m10.74 45.423l0.375 2.375-0.25 2.125 0.625 3.625 2.625 3.375 5.5 4.25 3.875 2.5 10.625 6 10 5.25 2.625 1.5 4.875 7.5 9.25 12.25 4.5 3.5 7.125 3.747 2.75 1 8.75 1.38 7.375-0.75-0.125-4.63-9.5 1-7.875-1.497s-4.625-2.375-5.875-2.75-6.375-5.125-6.375-5.125l-6.75-7.625-4.625-7.625-2.25-3.125-2.5-2-6.125-3.5-7.25-3.375-8.5-4.875-2.75-1.625-6.375-5.625-3-4.875-0.75-2.375z"/>
    <path id="path3049" sodipodi:nodetypes="cccccccccccccccccccccccccccccscccccccccccccccccccccccccccccccccccccccccccccccccccccccc" style="fill-rule:evenodd;fill:url(#linearGradient3051)" d="m21.365 33.173l-5.625 3.5-3.5 4-1 3-0.375 2.25 2 4.25 3.5 4.25 5.125 4.5 4.125 2 8.5 4.75 7.875 3.75 3.875 2.125 2.875 3.375 4.625 7 4.25 6 4.5 4.625 3.25 2.875 4.375 2.75 6.125 2.247 4.625 0.75 6.75-0.25 4-0.75 7-2.122 5.12-2.25 8.75-5.125 4.75-4.375 4.38-5.125 0.87-4.25-0.62-5.625c0.59-0.782-7.47-9.167-7.88-9.125-0.49 0.051-7.12-4.625-7.12-4.625l-8.25-4.875-8-4.125-0.875-0.625-0.875 1-2.5 0.25 2.875 1 7.5 3.625 6.495 3.375 5.13 3 6.5 5.125 3.25 4 1.25 3.625 0.37 4.875-2.37 5-6 5.375-9.63 5.375-9.37 3.5-8.25 1.5-7.25-0.875-8.25-3.625-4.5-3.125-5-5.75-6-8.625-4.875-6.25-8.125-4-7.875-4.375-7.875-3.875-6.375-5.75-3.125-4-0.875-2.5 0.875-3.75 2.25-3.25 6.125-4.25 5.375-1.625 8.25-2.5 4.5-0.25 4.375-0.125 8.75 3.5 4.625 3.375 3.875 2.625 2.5 1.5 6.5 2.75h1.875l0.875-1.875-4.5-1.75-3.75-1.625-2.875-0.875-4.75-3.125-4.25-3-6.625-2.875-5.125-0.625-3.625-0.125-5 0.875-3.875 1-8.625 3.375z"/>
    <path id="path3053" sodipodi:nodetypes="cccccccccccccccccccccccccccccccccccscccccccccccccccccccc" style="fill-rule:evenodd;fill:url(#linearGradient3060)" d="m40.99 29.923l-3.875 0.5-2.875 0.625-4.25 1-6.125 2.375-5.125 2.75-3.75 3.25-0.75 2.125-0.375 3 0.375 1.5 0.75-2.625 2.75-3.375 5.375-2.25 2.625-1.5 4.375-2.125 3.75-1.125h2.625l3.427-0.573 3.573-0.427 1.625 0.125 2.75 0.25 2.25 0.875 3.75 1.625 2.625 1.375 2.375 2 2.088 1.765 2.162 2.11 1.375 0.5 1.5 0.5 2.5 0.875 0.75 0.25 1.5 0.125 1.375-1.75-6.875-2.625-4.125-2.25s-4.5-3.75-5.75-4.125-5.875-3.25-5.875-3.25l-4.375-1.125-4.125-0.375zm44.875 19.312l-0.75 1.813 3.75 2 4.25 1.875 5.875 2.375 5 3.062 3.25 2.125 4.25 2.688 3.87 3.75 2.88 3.875 1 2.375-1.13-5.375-4.37-5-5-3.875-8.13-5.125-5.87-2.5-8.875-4.063z"/>
    <path id="path3062" sodipodi:nodetypes="ccccccccccccccccscccccccccccccccc" style="fill-rule:evenodd;fill:#000000;fill-opacity:.15686" d="m45.115 33.173l2.75 0.25 2.25 0.875 3.75 1.625 2.625 1.375 2.375 2 2.088 1.765 2.162 2.11 1.375 0.5 1.5 0.5 2.5 0.875 0.75 0.25 1.5 0.125 1.375-1.75-6.875-2.625-4.125-2.25s-4.5-3.75-5.75-4.125-5.875-3.25-5.875-3.25l-4.375-1.125v2.875zm40.75 16.062l-0.75 1.813 3.75 2 4.25 1.875 5.875 2.375 5 3.062 3.25 2.125 4.25 2.688 0.13-1.966-2.88-2.284-8.13-5.125-5.87-2.5-8.875-4.063z"/>
  </g>
  <g id="layer1" inkscape:label="outline" inkscape:groupmode="layer">
    <path id="path2308" style="fill-rule:evenodd;fill:#000000" d="m41.896 27.673c-5.443-0.076-12.305 1.379-21.719 6.125-0.818 0.415-1.615 0.879-2.406 1.375-5.325 1.361-9.6683 5.204-11.375 10.094l-0.0624 0.062c-0.0747 0.486-0.3252 1.387-0.4687 2-0.0495 0.539-0.0666 1.077-0.0625 1.594-1.3315 9.09 4.1973 14.608 11.094 19.469 7.284 4.89 16.463 8.925 23.344 13.593 4.176 5.312 7.622 11.15 11.656 16.563 3.918 4.912 9.418 9.232 23.063 13.562 6.428 1.36 12.606 1.61 18.312 0.94l0.25 0.03v-0.06c16.379-2.01 28.829-11.59 32.249-24.285 0.68-1.853 1.19-3.772 1.47-5.75-0.21-1.185-0.81-2.244-1.56-3.218l-0.1-0.25-0.06 0.031c-0.93-1.147-2.09-2.126-3.19-3v-0.563l-0.03 0.063c0.02-1.427-0.22-2.908-0.72-4.469-2.38-5.949-9.08-10.757-17.03-15.437-4.856-2.862-10.2-5.66-15.404-8.125-0.051-0.025-0.105-0.038-0.156-0.063l0.375-0.75-0.25-1.781-11.063-5.156-1.875 0.468-0.593 1.188-0.719 0.031c-3.854-1.445-7.748-2.811-11.5-4.5-5.925-4.296-11.724-8.778-19.219-9.656-0.723-0.068-1.472-0.114-2.25-0.125zm-0.75 0.656c1.038-0.012 2.086 0.019 3.125 0.094l0.563 1.656c-1.205-0.194-2.445-0.331-3.75-0.344-0.594-0.005-1.196-0.004-1.813 0.032-1.331 0.276-3.065 0.668-4.906 1.093v-0.125l-2.438-1.062c3.014-0.875 6.104-1.308 9.219-1.344zm3.688 0.156c4.652 0.439 8.505 2.74 12.218 5.313l-0.906 0.906c-3.401-2.2-6.906-3.846-10.906-4.562l-0.406-1.657zm-13.563 1.407l2.406 1.125c-3.094 0.737-6.524 1.694-9.75 3.062l-2.031-0.531c3.452-1.659 6.565-2.844 9.375-3.656zm11.594 0.281c0.669 0.024 1.329 0.089 1.969 0.187l-0.125 2.5c-2.426-0.024-4.824 0.527-7.25 0.844-0.947 0.124-1.875 0.206-2.813 0.281l-0.219-2.656c1.824-0.396 3.516-0.698 4.907-0.906 1.228-0.205 2.401-0.291 3.531-0.25zm2.406 0.281c3.984 0.722 7.427 2.778 10.813 5.125l-0.032 1.313c-3.184-1.597-6.487-3.355-10.031-3.969-0.236-0.025-0.484-0.019-0.719-0.031l-0.031-2.438zm-11.406 1l0.125 2.594c-1.24 0.115-2.473 0.261-3.688 0.687-1.933 0.678-3.786 1.828-5.625 2.813l-0.031-3.219c3.024-1.283 6.279-2.211 9.219-2.875zm9.344 1.75c0.657-0.021 1.32 0.017 2 0.094 0.219-0.026 0.411-0.03 0.625 0 3.939 1.325 8.199 2.674 11.687 5 2.418 1.886 3.95 4.422 6 5.469 1.861 0.331 3.605 0.898 5.313 1.562l-0.407 1.344-2.125 0.281-1.25 1.938-1.562 0.187-1.25 1.688-2.094 0.468-1.281 1.75-2.281-0.093-1.5 2.593-1.907-0.031-1.5 2.313 0.063 2.375 9.812 6.156 2.625-0.563 0.844-1.812 2.844-0.719 0.656-1.656 2.906-0.875 0.407-1.438 2.75-0.812c0.008-0.568 0.069-1.091 0.437-1.344l2.531-0.719 0.719-1.531 2.125-0.469 0.563-1.375 2.062-0.375 0.438-1.343 1.218-0.219c0.253 0.086 0.502 0.184 0.75 0.281 4.358 2.783 9.32 4.244 13.969 6.406 7.774 4.569 15.064 8.626 19.624 16.938 0.46 5.59-4.22 10.133-8.66 13.469-17.357 10.51-30.213 13.948-44.745 3.843-6.545-5.89-13.691-16.752-17.438-21.812-3.245-2.081-6.832-3.508-10.312-5.125-8.031-4.514-19.509-8.867-23.438-18 1.274-4.908 4.759-6.375 8.875-8.031 2.583-1.259 4.889-2.9 7.125-3.688 1.502-0.528 2.908-0.701 4.25-0.812 0.955-0.079 1.877-0.13 2.782-0.219 1.89-0.554 3.778-1.029 5.75-1.094zm-22.063 0.688l2.188 0.437c-3.079 1.366-5.834 3.077-7.657 5.281l-1.562-0.562c1.946-2.234 4.462-3.763 7.031-5.156zm36.375 0.25c1.82 1.274 3.618 2.573 5.469 3.75 1.26 0.559 2.552 1.076 3.844 1.593l-1.469 1.375c-3.273-1.291-5.853-3.841-8.75-5.812l0.906-0.906zm-33.531 0.468l0.281 3.125c-0.407 0.213-0.811 0.441-1.219 0.625-2.974 0.9-5.224 2.208-7.156 4.625l0.063-2.593c1.828-2.431 4.758-4.318 8.031-5.782zm-6.688 0.844c-3.547 2.064-5.402 5.153-6.437 8.906l-4.0314 0.594c1.6067-4.53 5.8724-8.008 10.468-9.5zm39.25 0.438c2.784 2.037 5.5 4.107 8.688 5.437v2.5c-0.481-0.173-0.955-0.373-1.438-0.594-1.833-0.935-3.587-3.314-6.062-5.25-0.385-0.301-0.793-0.577-1.219-0.843l0.031-1.25zm-42.75 3.531l1.657 0.437c-1.422 1.824-2.208 3.978-2 6.5 0.607 1.711 1.469 3.254 2.5 4.688l-1.719 0.75c-1.263-1.61-2.272-3.391-2.906-5.375-0.261-2.664 0.815-5.014 2.468-7zm53.563 0.281c2.143 0.85 4.307 1.656 6.469 2.469l-0.469 1.219c-0.404-0.012-0.735 0.041-1.031 0.093-2.155-0.773-4.31-1.557-6.438-2.406l1.469-1.375zm10.937 1.188l9.75 4.562-0.718 1.625-1.5-0.187-9.594-4.688 0.25-1.25 1.812-0.062zm-62.781 0.156l-0.125 2.656c-0.57 0.95-0.952 1.895-1.219 2.75-0.064-0.167-0.128-0.329-0.187-0.5 0.025-1.829 0.596-3.458 1.531-4.906zm50.313 0.531c1.856 0.769 3.724 1.525 5.593 2.25-0.421 0.376-0.41 0.923-0.75 1.344l-1.031 0.062c-1.296-0.426-2.599-0.836-3.906-1.25l0.062-0.031 0.032-2.375zm8.375 0.781l1.75 0.063 9.5 4.719-0.969 1.718-1.594-0.031-9.031-5 0.344-1.469zm-2.438 1.625l1.75 0.032 9.063 5-0.375 1.843-1.813-0.406v-0.031l-9.25-4.813 0.625-1.625zm-60.937 0.688c-0.059 0.521-0.101 1.061-0.063 1.625l-0.031 3.625c-0.177 2.137 0.712 4.199 2.469 6.25l-4.3129 0.937c-1.66-2.719-2.7024-5.874-2.6875-9.656 0.0892-0.751 0.2723-1.482 0.5-2.187l4.1254-0.594zm58.406 0.937l1.625 0.188 9.219 4.906-0.375 1.719-1.907-0.219-8.937-5.125 0.375-1.469zm19.281 0.188l0.219 1.187-0.594 1.719-2.219 0.188-0.062-1.344 1.75 0.031 0.906-1.781zm-44.281 1.062c-1.066-0.064-2.199 0.406-3.531 1.375l0.312 0.25c2.312-1.469 4.184-1.283 6.219 0.407l0.219-0.25c-1.141-1.13-2.153-1.717-3.219-1.782zm22.375 0.282l1.781 0.25 9.125 4.968-0.844 2-2.312 0.094-8.75-5.187 1-2.125zm-55.281 0.625c0.653 1.568 1.521 3.005 2.531 4.343l-0.031 3.938c-1.735-2.144-2.584-4.393-2.438-6.156l-0.062-2.125zm74.125 0.062l0.062 1.375-0.25 1.313-1.969 0.187-0.281-1.219 1.719-0.25 0.719-1.406zm-48.375 0.125c-0.443 0.08-0.923 0.628-1.094 1.406l-1.531 0.938-0.094 0.375 1.656 0.406 0.125 1.844c2.402 0.202 4.576 1.085 7.406 0 1.499-1.242 2.199-2.644 2.032-4.219l-1.813 1.469c-1.525 0.3-3.001 0.779-4.844 0.125l-0.937-0.906c-0.058-1.128-0.463-1.517-0.906-1.438zm52.062 0.594c3.519 1.663 7.06 3.484 10.5 5.375l-0.937 0.687c-3.486-1.795-7.112-3.501-10.688-5.031l1.125-1.031zm-1.25 0.562l-0.312 0.282c-0.114-0.049-0.231-0.083-0.344-0.125l0.656-0.157zm-50.906 0.125c0.972 0.452 1.018 1.644 0.906 1.625 0.636 0.951 1.271 0.673 1.906 0.875 1.813 0.334 3.164-0.14 4.313-0.968l-0.938 1.531c-1.929 0.129-4.014 0.544-6.093-0.375l-0.125-1.656h-1.125c0.266 0.026 1.425-0.302 1.156-1.032zm26.875 0.063l1.5 0.125 8.594 5.312-0.657 1.563-2.187 0.281-8.313-5.469 1.063-1.812zm22.187 0.25c0.458 0.19 0.909 0.368 1.375 0.562v1.719c-0.541-0.297-1.08-0.561-1.625-0.781-0.114-0.046-0.23-0.082-0.343-0.125l0.437-1.344 0.156-0.031zm-3.343 0.125l0.218 1.312-0.25 1.219-1.812 0.156-0.281-1.25 1.843 0.032 0.282-1.469zm5.218 0.625c3.59 1.508 7.249 3.165 10.719 4.937l0.063 1.844c-3.779-1.34-7.37-2.93-10.813-4.969l0.031-1.812zm-81.968 0.531c0.3416 2.485 1.2818 4.709 2.625 6.719l-0.2812 1.719c-1.4124-2.477-2.2512-5.274-2.3438-8.438zm10.125 0.406c2.208 3.006 5.224 5.458 8.531 7.563l-1.344 0.656c-3.047-1.393-6.267-4.593-8.75-7.344l1.563-0.875zm46.312 0.094l8.438 5.469-0.75 1.531-1.969 0.25-0.031-0.062-8.532-5.282 0.875-1.5 1.969-0.406zm17.813 0.031l0.281 1.282c0.007 0.75-0.097 1.185-0.375 1.406-0.41 0.325-1.154 0.234-1.906 0.156l-0.157-1.406 2.032-0.031 0.125-1.407zm-65.875 1.375c2.407 2.972 5.578 5.414 9 7.532l-0.125 2.968c-2.685-1.614-5.278-3.379-7.719-5.406-0.476-0.431-0.886-0.892-1.281-1.344l0.125-3.75zm63.375 0.313l0.125 1.406c-0.444 0.197-0.223 1.108-0.657 1.469l-2.25 0.5-0.125-1.406 1.969-0.344 0.938-1.625zm-20.782 0.312l2.219 0.157 8.438 5.406-1.032 1.687-2 0.313-8.812-5.188 1.187-2.375zm43.153 0.782c4.23 2.286 8.3 4.829 12.16 7.687l-0.81 0.688c-2.56-2.029-5.54-3.959-8.75-5.782-1.15-0.651-2.33-1.282-3.534-1.906l0.934-0.687zm-63.215 0.687l-0.219 0.344c2.142 2.398 4.49 2.35 6.938 0.219l-0.282-0.063c-2.393 1.126-4.5 1.35-6.437-0.5zm37.344 0.563l0.281 1.343-0.281 1.313-2.313 0.469-0.187-1.438 1.875-0.437 0.625-1.25zm24.968 0.125c1.113 0.574 2.193 1.149 3.253 1.75 3.28 1.861 6.27 3.878 8.81 5.968v1.688c-3.87-2.509-7.59-5.271-11.656-7.469-0.072-0.036-0.147-0.058-0.219-0.094l-0.188-1.843zm-45.718 0.375l1.937 0.093 8.594 5.313-0.75 1.812-1.531-0.312-8.907-5.125 0.657-1.781zm-5.094 0.718c-1.838 3.076-6.053 2.709-9.125 2.219l-0.156 0.219c3.512 1.523 7.897 1.353 9.5-2.406l-0.219-0.032zm-34.719 0.063c0.428 0.464 0.893 0.91 1.406 1.375 2.421 2.115 5.027 3.965 7.719 5.656l-4.344 2.531c-0.106-0.06-0.206-0.126-0.312-0.187-3.524-2.352-6.829-5.148-9.0626-8.688l4.5936-0.687zm57.594 0.719l0.281 1.406-0.531 1.5-2.625 0.656-0.188-1.5 2.282-0.781 0.781-1.281zm-62.344 0.593c2.2889 3.237 5.5609 5.933 8.9059 8.282 0.119 0.079 0.256 0.139 0.375 0.218l-0.281 1.969c-3.831-2.153-6.916-5.205-9.3749-8.812l0.375-1.657zm43.375 0.125l8.875 5.219 0.156 2.188-9.093-5.532 0.062-1.875zm-27.25 0.938c3.415 2.131 7.08 3.894 10.5 5.562l-1.437 0.625c-3.193-1.765-6.794-3.531-10.25-5.593l1.187-0.594zm42.813 0.656l0.187 1.438-0.656 1.562-2.5 0.594-0.094-1.563 2.219-0.656 0.844-1.375zm-44.094 0.813c3.372 2.052 6.945 3.785 10.25 5.437l-0.031 3.094c-3.461-1.774-6.914-3.554-10.25-5.531l0.031-3zm88.81 1.531c4.04 3.129 7.17 6.463 8.53 9.875 0.23 0.605 0.38 1.195 0.5 1.781l-1.93 0.313c-0.12-0.842-0.32-1.704-0.63-2.594-1.31-3.041-3.87-5.908-7.19-8.594v-0.062l0.72-0.719zm-48.404 0.125l0.188 1.5-0.375 1.687-2.157 0.063-0.093-1.75 2.062-0.219 0.375-1.281zm47.684 1.562c3.01 2.561 5.31 5.222 6.47 7.907 0.32 0.775 0.51 1.54 0.63 2.281-1.74-3.414-4.11-6.257-7.13-8.563l0.03-1.625zm-88.528 0.313c3.314 2.046 6.772 3.869 10.25 5.656l-2.937 3.563c-3.92-2.297-7.867-4.557-11.844-6.844l4.531-2.375zm73.625 0.031l-0.062 0.219c5.705 1.138 9.885 3.424 10.245 9.625l0.13 0.187c0.62-7.398-4.58-8.535-10.313-10.031zm-10.75 0.125c-3.062 0.03-5.85 1.139-6.656 4.219 0.582 3.195 3.777 4.045 6.656 4.187 2.189 0.025 4.158-0.453 5.969-1.625l-5.281-3.031 6 0.469c-0.582-3.195-3.808-4.076-6.688-4.219zm0.188 0.281c2.485 0.091 5.116 1.383 6.031 3.844l-7-0.781 5.75 3.312c-1.323 0.943-3.318 1.007-4.969 1.125-2.612-0.113-5.511-0.947-6.218-3.656 0.521-2.846 3.941-3.597 6.406-3.844zm-50.469 0.313c0.543 0.265 1.1 0.552 1.625 0.812 3.232 1.636 6.609 3.012 9.719 4.875l-1.563 0.75c-2.853-2.116-6.418-3.382-9.656-4.906-0.459-0.272-0.984-0.541-1.469-0.812v-0.063l1.344-0.656zm-1.375 1.437c0.37 0.186 0.763 0.379 1.125 0.563 3.374 1.666 6.877 2.94 9.75 5.094l-0.281 3.281c-3.481-2.177-7.132-4.065-10.781-5.938l0.031-0.031 0.156-2.969zm-16 0.5c3.73 2.44 7.888 4.678 11.969 6.907l-0.063 2.156c-4.128-2.315-8.314-4.636-12.062-7.031l0.156-2.032zm57.844 0.782l-0.313 0.031c-2.573 2.71-1.888 5.87 1.594 6.594l0.188-0.219c-2.68-0.557-3.556-4.209-1.469-6.406zm-42.531 2.312c3.729 1.915 7.452 3.81 11.062 5.906l-3.406 4.125c-0.023-0.04-0.04-0.084-0.063-0.125-3.555-2.164-7.073-4.292-10.625-6.375l3.032-3.531zm63.093 0.438c-2.397 0.029-3.94 0.829-4.781 2.968 1.027 3.544 5.208 3.225 8.094 2.157 2.29-1.611 1.35-3.375-0.656-4.625l-2.938 2.437 0.281-2.937zm-0.25 0.312l-0.25 3.344 3.157-2.813c1.856 1.036 2.136 3.021 0.187 3.782-2.422 1.142-6.487 1.182-7.031-2 0.433-1.74 2.329-2.084 3.937-2.313zm-49.093 0.094c0.032 0.02 0.061 0.043 0.093 0.062 2.343 3.167 4.522 6.389 6.813 9.532l-1.5 0.656c-1.231-1.83-2.4-3.674-3.563-5.5-0.859-1.557-1.985-2.776-3.281-3.813l1.438-0.937zm-1.719 1.594c1.152 0.926 2.188 2.021 3.062 3.343 1.176 1.997 2.403 3.937 3.688 5.844l-0.125 2.906c-1.858-2.784-3.217-5.576-5.594-8.031-0.47-0.314-0.929-0.635-1.406-0.937l0.375-3.125zm-15.25 1.437c3.76 2.054 7.441 4.109 10.625 6.281 0.043 0.075 0.082 0.145 0.125 0.219l-0.438 2.219c-0.123-0.178-0.251-0.353-0.375-0.531-2.917-1.991-6.287-3.947-9.718-5.875l-0.219-2.313zm91.065 0.75c0.07 0.54 0.08 1.085 0.12 1.625-0.15 4.744-3.62 8.785-7.4 12.031l-1.04-1.156c3.99-3.244 6.78-7.366 6.35-12.344l1.97-0.156zm-76.44 1.469c0.385 0.226 0.774 0.456 1.156 0.687 2.338 2.674 4.027 5.885 5.938 8.875 0.019 0.033 0.042 0.062 0.062 0.094l-4.094 4.906c-2.427-3.261-4.609-6.719-6.593-10.281l0.031-0.156 3.5-4.125zm77.09 0.906c1.08 0.743 2.11 1.695 2.91 2.781l-2.88 0.719-0.03-3.5zm-22.59 2.031c-4.112 2.563-8.248 2.767-12.5 0.625l-0.25 0.094c4.719 3.463 8.813 1.778 13.25-0.562l-0.5-0.157zm22.16 0.125l-0.19 3.219c-0.46 3.226-2.67 6.665-6.97 10.188l-0.06-3.344c3.48-2.77 6.24-6.13 7.22-10.063zm3.59 1c0.68 1.008 1.17 2.081 1.34 3.094-0.85 4.951-2.87 9.462-5.81 13.375l-6.16-3.344c4.59-3.679 6.99-7.315 7.5-10.937v-1.656l3.13-0.532zm-83.906 0.594c2.254 3.882 4.344 7.261 6.437 10.219l0.063 1.937c-2.342-3.378-4.69-6.746-7.032-10.125l0.532-2.031zm13.218 0.094c2.687 3.662 5.513 7.205 8.875 10.375l-1.656 1.062c-3.314-3.219-6.145-6.967-8.75-10.812l1.531-0.625zm-1.812 1.312c2.607 3.815 5.469 7.413 8.75 10.688l-0.031 3.625c-3.431-3.218-6.369-7.08-8.782-11.25-0.003-0.005-0.028 0.005-0.031 0v-0.031l0.094-3.032zm-0.563 3.625c2.617 4.304 5.632 8.102 9.094 11.219l-3.062 4.411c-3.842-3.101-7.156-6.726-10.094-10.661l4.062-4.969zm60.533 1.657l1.06 1.156c-0.69 0.577-1.38 1.133-2.06 1.656-2.78 1.879-5.62 3.625-8.5 5.125l-1.53-1.5c3.07-1.468 6.08-3.156 9-4.969 0.7-0.467 1.38-0.957 2.03-1.468zm1.31 2.093l0.19 3.282c-0.62 0.499-1.29 0.998-2 1.5-3.02 2.138-5.9 3.906-8.66 5.375l-0.06-3.813c3.09-1.586 6.12-3.37 9.03-5.25 0.51-0.356 1.01-0.715 1.5-1.094zm10.84 1.063c-0.94 2.451-2.22 4.743-3.75 6.875l-0.12-0.469c1.55-2 2.87-4.14 3.87-6.406zm-76.933 0.594c3.09 4.334 6.245 7.783 10.157 10.753l0.125 2.56c-2.725-1.83-4.691-3.69-6.282-5.688-1.295-1.87-2.61-3.724-3.906-5.594v-0.031l-0.094-2zm15.75 0.25c0.348 0.323 0.704 0.653 1.063 0.968 4.142 3.291 8.428 5.171 12.781 5.969l-1.875 1.75c-3.634-0.919-7.249-2.581-10.812-5.125-0.922-0.73-1.804-1.505-2.657-2.312l1.5-1.25zm-1.687 1.906c0.691 0.674 1.396 1.355 2.125 2 3.648 2.892 7.413 4.694 11.219 5.657l-0.094 3.44c-5.063-1.39-9.49-4.06-13.313-7.535l0.063-3.562zm52.37 0.125l6.22 3.375c-2.84 3.727-6.51 6.907-10.81 9.347l-5.78-5.97c2.73-1.476 5.56-3.243 8.53-5.346 0.66-0.464 1.26-0.943 1.84-1.406zm-13.18 0.656l1.59 1.469c-3.778 1.935-7.615 3.47-11.499 4.406l-0.812-2.094c3.612-0.819 7.205-2.137 10.721-3.781zm1.81 2v3.875c-4.086 2.131-7.889 3.571-11.406 4.441l-0.032-0.13-0.156-3.65c3.93-1.018 7.803-2.621 11.594-4.536zm17.78 1.188l0.06 0.531c-2.83 3.857-6.53 7.157-10.9 9.687l-0.1-1.03c4.35-2.44 8.06-5.56 10.94-9.188zm-59.061 0.031c3.92 3.437 8.375 5.997 13.468 7.497l-1 4.97c-6.131-1.8-11.321-4.69-15.812-8.28l3.344-4.187zm28.125 0.719l0.781 2.093c-4.771 1.065-9.59 1.195-14.375 0.095l2.062-1.782c3.821 0.589 7.693 0.401 11.532-0.406zm13.566 2.468l6.12 5.78c-4.84 2.7-10.444 4.46-16.53 5.1l-1.25-6.25c3.612-0.92 7.495-2.43 11.66-4.63zm-12.629 0.28l0.094 3.78c-2.548 0.58-4.957 0.87-7.219 0.91-2.797 0.03-5.44-0.3-7.937-0.94l0.093-0.34-0.062-3.13c4.978 1.18 10.028 0.93 15.031-0.28zm-32.406 1.31c4.129 3.08 9.121 5.66 15.719 8.1v0.03l0.062 1.41c-7.195-2.35-12.129-4.64-15.719-7l-0.062-2.54zm17.25 2.88c2.458 0.69 5.065 1.15 7.812 1.31 2.398-0.04 4.942-0.33 7.625-0.97l1.657 6.1c-5.289 0.52-10.927 0.22-16.719-1.13-0.556-0.14-1.115-0.28-1.656-0.44l1.281-4.87zm33.995 1.62l-0.06 1.1c-4.78 2.7-10.316 4.51-16.31 5.25l-0.188-1.13c6.075-0.7 11.698-2.53 16.558-5.22zm-35.339 3.69c0.442 0.16 0.856 0.31 1.313 0.47h0.031l0.031 0.03c5.913 1.38 11.695 1.66 17.125 1.06l0.125 1.16c-5.658 0.66-11.701 0.35-17.906-1.09-0.195-0.07-0.371-0.13-0.563-0.19l-0.156-1.44z"/>
  </g>
  <metadata>
    <rdf:RDF>
      <cc:Work>
        <dc:format>image/svg+xml</dc:format>
        <dc:type rdf:resource="http://purl.org/dc/dcmitype/StillImage"/>
        <cc:license rdf:resource="http://creativecommons.org/licenses/publicdomain/"/>
        <dc:publisher>
          <cc:Agent rdf:about="http://openclipart.org/">
            <dc:title>Openclipart</dc:title>
          </cc:Agent>
        </dc:publisher>
        <dc:title>RPG map symbols: Pond</dc:title>
        <dc:date>2008-01-23T10:36:45</dc:date>
        <dc:description>Part of the fantasy RPG map elements collection (houses and various buildings): a pond</dc:description>
        <dc:source>https://openclipart.org/detail/11488/rpg-map-symbols:-pond-by-nicubunu</dc:source>
        <dc:creator>
          <cc:Agent>
            <dc:title>nicubunu</dc:title>
          </cc:Agent>
        </dc:creator>
        <dc:subject>
          <rdf:Bag>
            <rdf:li>cartography</rdf:li>
            <rdf:li>fantasy</rdf:li>
            <rdf:li>garden</rdf:li>
            <rdf:li>geography</rdf:li>
            <rdf:li>map</rdf:li>
            <rdf:li>pond</rdf:li>
          </rdf:Bag>
        </dc:subject>
      </cc:Work>
      <cc:License rdf:about="http://creativecommons.org/licenses/publicdomain/">
        <cc:permits rdf:resource="http://creativecommons.org/ns#Reproduction"/>
        <cc:permits rdf:resource="http://creativecommons.org/ns#Distribution"/>
        <cc:permits rdf:resource="http://creativecommons.org/ns#DerivativeWorks"/>
      </cc:License>
    </rdf:RDF>
  </metadata>
</svg>