<svg xmlns:rdf="http://www.w3.org/1999/02/22-rdf-syntax-ns#" xmlns="http://www.w3.org/2000/svg" xmlns:cc="http://web.resource.org/cc/" xmlns:xlink="http://www.w3.org/1999/xlink" xmlns:dc="http://purl.org/dc/elements/1.1/" xmlns:svg="http://www.w3.org/2000/svg" xmlns:inkscape="http://www.inkscape.org/namespaces/inkscape" xmlns:sodipodi="http://sodipodi.sourceforge.net/DTD/sodipodi-0.dtd" xmlns:ns1="http://sozi.baierouge.fr" id="Layer_1" enable-background="new 0 0 42.469 42.469" xml:space="preserve" viewBox="0 0 42.469 42.469" version="1.1" y="0px" x="0px" width="42.469"  height="42.469" >
<circle cy="21.234" cx="21.234" r="21.234" fill="#0033FF"/>
<path d="m29.999 8.867s-4.508-3.297-8.444-3.161-6.367 2.017-6.367 2.017l-2.172-3.937-4.615 9.909h10.994l-2.171-2.986s2.759-1.995 5.067-1.452 5.716 2.468 5.716 2.468l1.992-2.858z" fill="#FFFFFF"/>
<path d="m5.526 20.975s-0.171 5.583 2.166 8.752c2.337 3.171 5.263 4.112 5.263 4.112l-2.02 4.017 10.782-1.794-6.214-9.068-1.236 3.479s-3.205-1.149-4.062-3.36c-0.857-2.209-1.195-6.11-1.195-6.11l-3.484-0.028z" fill="#FFFFFF"/>
<path d="m27.408 34.493s5.105-2.266 6.947-5.746c1.845-3.479 1.425-6.524 1.425-6.524l4.495 0.079-6.29-8.939-5.479 9.531 3.672-0.395s0.354 3.387-1.268 5.117c-1.62 1.729-4.988 3.725-4.988 3.725l1.486 3.152z" fill="#FFFFFF"/>
<metadata><rdf:RDF><cc:Work><dc:format>image/svg+xml</dc:format><dc:type rdf:resource="http://purl.org/dc/dcmitype/StillImage"/><cc:license rdf:resource="http://creativecommons.org/licenses/publicdomain/"/><dc:publisher><cc:Agent rdf:about="http://openclipart.org/"><dc:title>Openclipart</dc:title></cc:Agent></dc:publisher><dc:title>Roundabout Traffic Sign</dc:title><dc:date>2009-03-25T16:58:36</dc:date><dc:description>Traffic sign for roundabouts, used in some parts of Eastern Europe.</dc:description><dc:source>https://openclipart.org/detail/23326/roundabout-traffic-sign-by-mokush</dc:source><dc:creator><cc:Agent><dc:title>mokush</dc:title></cc:Agent></dc:creator><dc:subject><rdf:Bag><rdf:li>indicator</rdf:li><rdf:li>road</rdf:li><rdf:li>road indicator</rdf:li><rdf:li>road sign</rdf:li><rdf:li>roundabout</rdf:li><rdf:li>traffic</rdf:li><rdf:li>traffic sign</rdf:li></rdf:Bag></dc:subject></cc:Work><cc:License rdf:about="http://creativecommons.org/licenses/publicdomain/"><cc:permits rdf:resource="http://creativecommons.org/ns#Reproduction"/><cc:permits rdf:resource="http://creativecommons.org/ns#Distribution"/><cc:permits rdf:resource="http://creativecommons.org/ns#DerivativeWorks"/></cc:License></rdf:RDF></metadata></svg>