<svg xmlns:inkscape="http://www.inkscape.org/namespaces/inkscape" xmlns:rdf="http://www.w3.org/1999/02/22-rdf-syntax-ns#" xmlns="http://www.w3.org/2000/svg" xmlns:sodipodi="http://sodipodi.sourceforge.net/DTD/sodipodi-0.dtd" xmlns:cc="http://creativecommons.org/ns#" xmlns:xlink="http://www.w3.org/1999/xlink" xmlns:dc="http://purl.org/dc/elements/1.1/" xmlns:svg="http://www.w3.org/2000/svg" xmlns:ns1="http://sozi.baierouge.fr" id="svg2" sodipodi:docname="Skiftnyckel.svg" inkscape:export-filename="C:\Documents and Settings\Dan\Skrivbord\Clipart egna (InkScape)\Original\Kanske Upload\Skiftnyckel.png" viewBox="0 0 251.63 78.273" sodipodi:version="0.32" inkscape:export-xdpi="310" version="1.0" inkscape:output_extension="org.inkscape.output.svg.inkscape" inkscape:export-ydpi="310" inkscape:version="0.45.1+0.46pre1+devel" width="251.63"  height="78.273" >
  <defs id="defs4">
    <linearGradient id="linearGradient3216" y2="419.4" spreadMethod="reflect" gradientUnits="userSpaceOnUse" x2="277.56" y1="422.13" x1="271.2" inkscape:collect="always">
      <stop id="stop3212" style="stop-color:#242424" offset="0"/>
      <stop id="stop3214" style="stop-color:#242424;stop-opacity:0" offset="1"/>
    </linearGradient>
    <filter id="filter3290" height="1.4093" width="1.0741" y="-.20464" x="-.037070" inkscape:collect="always">
      <feGaussianBlur id="feGaussianBlur3292" stdDeviation="0.22229631" inkscape:collect="always"/>
    </filter>
    <filter id="filter3294" height="1.4093" width="1.0731" y="-.20464" x="-.036526" inkscape:collect="always">
      <feGaussianBlur id="feGaussianBlur3296" stdDeviation="0.22229631" inkscape:collect="always"/>
    </filter>
    <filter id="filter3298" height="1.4459" width="1.0705" y="-.22297" x="-.035234" inkscape:collect="always">
      <feGaussianBlur id="feGaussianBlur3300" stdDeviation="0.22229631" inkscape:collect="always"/>
    </filter>
    <filter id="filter3338" height="1.7448" width="1.1651" y="-.37242" x="-.082567" inkscape:collect="always">
      <feGaussianBlur id="feGaussianBlur3340" stdDeviation="0.5730291" inkscape:collect="always"/>
    </filter>
    <filter id="filter3342" height="1.6674" width="1.1552" y="-.33370" x="-.077577" inkscape:collect="always">
      <feGaussianBlur id="feGaussianBlur3344" stdDeviation="0.5730291" inkscape:collect="always"/>
    </filter>
    <filter id="filter3346" height="1.7238" width="1.1542" y="-.36192" x="-.077111" inkscape:collect="always">
      <feGaussianBlur id="feGaussianBlur3348" stdDeviation="0.5730291" inkscape:collect="always"/>
    </filter>
    <filter id="filter3362" inkscape:collect="always">
      <feGaussianBlur id="feGaussianBlur3364" stdDeviation="0.42535691" inkscape:collect="always"/>
    </filter>
    <filter id="filter3506" inkscape:collect="always">
      <feGaussianBlur id="feGaussianBlur3508" stdDeviation="0.68393328" inkscape:collect="always"/>
    </filter>
    <filter id="filter3510" height="1.2603" width="1.7954" y="-.13015" x="-.39771" inkscape:collect="always">
      <feGaussianBlur id="feGaussianBlur3512" stdDeviation="0.68393328" inkscape:collect="always"/>
    </filter>
    <filter id="filter3514" height="1.288" width="2.1261" y="-.14399" x="-.56307" inkscape:collect="always">
      <feGaussianBlur id="feGaussianBlur3516" stdDeviation="0.68393328" inkscape:collect="always"/>
    </filter>
    <filter id="filter3518" height="1.3785" width="2.6365" y="-.18926" x="-.81824" inkscape:collect="always">
      <feGaussianBlur id="feGaussianBlur3520" stdDeviation="0.68393328" inkscape:collect="always"/>
    </filter>
    <filter id="filter3522" height="1.2667" width="1.7954" y="-.13335" x="-.39771" inkscape:collect="always">
      <feGaussianBlur id="feGaussianBlur3524" stdDeviation="0.68393328" inkscape:collect="always"/>
    </filter>
    <filter id="filter3554" inkscape:collect="always">
      <feGaussianBlur id="feGaussianBlur3556" stdDeviation="0.72751907" inkscape:collect="always"/>
    </filter>
    <filter id="filter3570" inkscape:collect="always">
      <feGaussianBlur id="feGaussianBlur3572" stdDeviation="0.52052232" inkscape:collect="always"/>
    </filter>
    <filter id="filter3633" height="1.3978" width="1.383" y="-.19889" x="-.19149" inkscape:collect="always">
      <feGaussianBlur id="feGaussianBlur3635" stdDeviation="1.5367055" inkscape:collect="always"/>
    </filter>
    <filter id="filter3753" height="2.4198" width="1.0401" y="-.70992" x="-.020064" inkscape:collect="always">
      <feGaussianBlur id="feGaussianBlur3755" stdDeviation="0.65434829" inkscape:collect="always"/>
    </filter>
    <filter id="filter3831" height="1.3775" width="1.1802" y="-.18873" x="-.090079" inkscape:collect="always">
      <feGaussianBlur id="feGaussianBlur3833" stdDeviation="0.48120542" inkscape:collect="always"/>
    </filter>
  </defs>
  <sodipodi:namedview id="base" bordercolor="#666666" inkscape:pageshadow="2" guidetolerance="10" pagecolor="#ffffff" gridtolerance="10000" inkscape:window-height="838" inkscape:zoom="2.3334524" objecttolerance="10" showgrid="false" borderopacity="1.0" inkscape:current-layer="layer2" inkscape:cx="117.53114" inkscape:cy="9.001574" inkscape:window-y="-4" inkscape:window-x="-4" inkscape:window-width="1152" inkscape:pageopacity="0.0" inkscape:document-units="px"/>
  <g id="layer2" inkscape:groupmode="layer" transform="translate(-217.98 -379.44)">
    <path id="path3757" style="filter:url(#filter3831);stroke:#dadada;stroke-width:2;fill:none" transform="translate(217.98 379.44)" d="m228.85 46.453s3.21 3.75 5.35 4.071c2.15 0.322 5.47-1.071 5.47-1.071"/>
    <path id="path3579" sodipodi:nodetypes="cscssc" style="filter:url(#filter3633);stroke:#252525;stroke-width:3;fill:none" d="m444.79 421.5s0.86-9.11 7.29-9.32c6.43-0.22 9.43 3.96 9.43 3.96s1.61 3.86 1.18 5.36-2.57 6-3.54 6.53c-0.96 0.54-1.71 0.86-1.71 0.86"/>
    <path id="path2402" style="fill-rule:evenodd;stroke:#2b2b2b;stroke-width:1px;fill:#3b3b3b" d="m32.312 0.5c-1.818 0-6.053 1.2036-8.781 2.7188-2.727 1.5151-7.875 5.4687-7.875 5.4687s-12.131 13.014-13.344 15.438c-1.2116 2.423-1.812 7.593-1.812 7.593s26.369-7.575 28.188-6.969c1.818 0.606 3.031 4.844 3.031 4.844l12.406 48.187s5.778-1.206 6.687-1.812c0.91-0.606 5.157-6.375 5.157-6.375s11.51-7.87 14.843-9.688c3.334-1.818 11.499-5.153 15.438-6.062s7.281-0.906 7.281-0.906l146.38 3.624s11.79-4.25 11.18-14.25c-0.91-15.126-13.31-16.343-13.31-16.343l-119.09 1.187c0.6-0.303-22.422 0.313-24.846 0.313s-19.998-5.769-23.938-6.375c-3.939-0.606-23.663-13.635-24.875-13.938-1.212-0.3028-10.9-6.656-12.719-6.656zm203.78 31.5c5.44 0 9.88 4.439 9.88 9.875s-4.44 9.844-9.88 9.844c-5.43 0-9.84-4.408-9.84-9.844s4.41-9.875 9.84-9.875z" transform="translate(217.98 379.44)"/>
    <path id="path2408" style="filter:url(#filter3518);stroke:#000000;stroke-width:1.4;fill:none" d="m288.18 439.63l-0.6-7.27"/>
    <path id="path2410" style="filter:url(#filter3514);stroke:#000000;stroke-width:1.4;fill:none" d="m276.67 446l-1.52-10"/>
    <path id="path2412" style="filter:url(#filter3522);stroke:#000000;stroke-width:1.4;fill:none" d="m280.61 407.82c0-1.22-2.73-10.91-2.73-10.91"/>
    <path id="path2414" style="filter:url(#filter3510);stroke:#000000;stroke-width:1.4;fill:none" d="m268.79 411.45l-2.73-11.21"/>
    <path id="path2416" style="filter:url(#filter3554);stroke:#979797;stroke-width:1px;fill:none" d="m288.48 431.15l12.73-1.21h33.34l101.21 3.33s4.24 0 4.54-1.82c0.31-1.82 0.61-21.21 0.61-21.21"/>
    <path id="path2418" sodipodi:nodetypes="cc" style="filter:url(#filter3753);stroke:#979797;stroke-width:1px;fill:none" d="m317.27 409.94l77.28-1.21"/>
    <path id="path2420" sodipodi:nodetypes="cscccscscscccc" style="filter:url(#filter3506);stroke:#000000;stroke-width:1.4;fill:none" d="m271.21 433.88s7.88 0.6 11.21-0.61c3.34-1.21 11.52-4.54 11.52-4.54l52.12-1.22 88.49 3.64s1.81 0.91 2.72-0.61c0.91-1.51 1.21-16.66 1.21-16.66s0.31-2.43-1.81-2.73-60 1.82-60 1.82h-51.22c-1.51 0-40-3.03-40-3.03h-5.45l-12.12 6.06 3.33 17.88z"/>
    <path id="path2422" style="fill-rule:evenodd;filter:url(#filter3362);stroke:#000000;stroke-width:1px;fill:url(#linearGradient3216)" d="m287.66 431.29l-5.57-21.11h-1.71l-8.68 4.07 4.61 19.61 4.82 0.21 6.53-2.78z"/>
    <path id="path2424" style="filter:url(#filter3298);stroke:#161616;stroke-width:1px;fill:none" d="m271.38 418.22l14.14-1.4"/>
    <path id="path2426" style="filter:url(#filter3294);stroke:#161616;stroke-width:1px;fill:none" d="m272.99 424.11l13.6-1.61"/>
    <path id="path2428" style="filter:url(#filter3290);stroke:#161616;stroke-width:1px;fill:none" d="m274.38 429.68l13.39-1.61"/>
    <path id="path2430" style="filter:url(#filter3338);stroke:#818181;stroke-width:2.3;fill:none" d="m270.63 416.5l14.36-1.39"/>
    <path id="path2432" style="filter:url(#filter3342);stroke:#818181;stroke-width:2.3;fill:none" d="m271.7 422.39l15.43-1.82"/>
    <path id="path2434" style="filter:url(#filter3346);stroke:#818181;stroke-width:2.3;fill:none" d="m273.2 427.64l15.54-1.5"/>
    <path id="path2436" sodipodi:nodetypes="cssccc" style="fill-rule:evenodd;stroke:#212121;stroke-width:.3;fill:#b8b8b8" d="m260.15 449.94s-15.45-2.73-21.21-5.46c-3.3-1.56-8.75-4.56-11.9-7.1-2.35-1.89-2.95-3.65-2.95-3.65l29.7-8.34 6.36 24.55z"/>
    <path id="path2438" style="fill-rule:evenodd;fill:#363636" d="m228.64 438.57l28.78 1.67 3.03 9.7s-16.36-3.03-19.39-4.24c-3.03-1.22-12.88-6.82-12.42-7.13z"/>
    <path id="path3574" sodipodi:nodetypes="ccccccccscccscc" style="fill-rule:evenodd;stroke:#212121;stroke-width:.5;fill:#b8b8b8" transform="translate(217.98 379.44)" d="m2.357 24.704l25.927-16.499 17.571 11.999 3.428 13.285-1.714 2.572 4.285 20.141 4.072 2.143 1.5 10.285s-2.357 2.357-3.214 3.429c-0.858 1.071-2.572 4.071-2.572 4.071l-7.714 1.714-12.213-48.854s-0.857-4.286-3.214-4.286-27.856 7.285-27.856 7.285c-0.1479-2.699-0.28146-5.367 1.714-7.285z"/>
    <path id="path2406" style="filter:url(#filter3570);stroke:#212121;stroke-width:1.6;fill:none" d="m220.3 403.27s23.34-15.45 25.46-15.45 18.48 10.6 18.48 10.6l3.94 13.94-1.82 3.03 4.25 19.7 3.94 2.12 1.81 10-4.24 4.24-2.42 3.34-7.28 1.81"/>
  </g>
  <metadata>
    <rdf:RDF>
      <cc:Work>
        <dc:format>image/svg+xml</dc:format>
        <dc:type rdf:resource="http://purl.org/dc/dcmitype/StillImage"/>
        <cc:license rdf:resource="http://creativecommons.org/licenses/publicdomain/"/>
        <dc:publisher>
          <cc:Agent rdf:about="http://openclipart.org/">
            <dc:title>Openclipart</dc:title>
          </cc:Agent>
        </dc:publisher>
        <dc:title>Adjustable spanner</dc:title>
        <dc:date>2008-03-22T21:43:23</dc:date>
        <dc:description>An adjustable spanner... enjoy! :-)</dc:description>
        <dc:source>https://openclipart.org/detail/15973/adjustable-spanner-by-mystica</dc:source>
        <dc:creator>
          <cc:Agent>
            <dc:title>mystica</dc:title>
          </cc:Agent>
        </dc:creator>
        <dc:subject>
          <rdf:Bag>
            <rdf:li>adjustable spanner</rdf:li>
            <rdf:li>tool</rdf:li>
          </rdf:Bag>
        </dc:subject>
      </cc:Work>
      <cc:License rdf:about="http://creativecommons.org/licenses/publicdomain/">
        <cc:permits rdf:resource="http://creativecommons.org/ns#Reproduction"/>
        <cc:permits rdf:resource="http://creativecommons.org/ns#Distribution"/>
        <cc:permits rdf:resource="http://creativecommons.org/ns#DerivativeWorks"/>
      </cc:License>
    </rdf:RDF>
  </metadata>
</svg>