<?xml version="1.0" encoding="utf-8" standalone="no"?>
<!DOCTYPE svg PUBLIC "-//W3C//DTD SVG 1.1//EN"
  "http://www.w3.org/Graphics/SVG/1.1/DTD/svg11.dtd">
<!-- Created with matplotlib (https://matplotlib.org/) -->
<svg height="288pt" version="1.1" viewBox="0 0 1152 288" width="1152pt" xmlns="http://www.w3.org/2000/svg" xmlns:xlink="http://www.w3.org/1999/xlink">
 <defs>
  <style type="text/css">
*{stroke-linecap:butt;stroke-linejoin:round;}
  </style>
 </defs>
 <g id="figure_1">
  <g id="patch_1">
   <path d="M 0 288 
L 1152 288 
L 1152 0 
L 0 0 
z
" style="fill:none;"/>
  </g>
  <g id="axes_1">
   <g id="patch_2">
    <path d="M 144 252 
L 1036.8 252 
L 1036.8 34.56 
L 144 34.56 
z
" style="fill:none;"/>
   </g>
   <g id="patch_3">
    <path clip-path="url(#pae5e4e15b6)" d="M 184.581818 252 
L 197.464935 252 
L 197.464935 101.01079 
L 184.581818 101.01079 
z
" style="opacity:0.270885;"/>
   </g>
   <g id="patch_4">
    <path clip-path="url(#pae5e4e15b6)" d="M 210.348052 252 
L 223.231169 252 
L 223.231169 52.803157 
L 210.348052 52.803157 
z
" style="opacity:0.038095;"/>
   </g>
   <g id="patch_5">
    <path clip-path="url(#pae5e4e15b6)" d="M 236.114286 252 
L 248.997403 252 
L 248.997403 93.171215 
L 236.114286 93.171215 
z
" style="opacity:0.233029;"/>
   </g>
   <g id="patch_6">
    <path clip-path="url(#pae5e4e15b6)" d="M 261.880519 252 
L 274.763636 252 
L 274.763636 92.801868 
L 261.880519 92.801868 
z
" style="opacity:0.231245;"/>
   </g>
   <g id="patch_7">
    <path clip-path="url(#pae5e4e15b6)" d="M 287.646753 252 
L 300.52987 252 
L 300.52987 83.301135 
L 287.646753 83.301135 
z
" style="opacity:0.185367;"/>
   </g>
   <g id="patch_8">
    <path clip-path="url(#pae5e4e15b6)" d="M 313.412987 252 
L 326.296104 252 
L 326.296104 91.501967 
L 313.412987 91.501967 
z
" style="opacity:0.224968;"/>
   </g>
   <g id="patch_9">
    <path clip-path="url(#pae5e4e15b6)" d="M 339.179221 252 
L 352.062338 252 
L 352.062338 81.367747 
L 339.179221 81.367747 
z
" style="opacity:0.176031;"/>
   </g>
   <g id="patch_10">
    <path clip-path="url(#pae5e4e15b6)" d="M 364.945455 252 
L 377.828571 252 
L 377.828571 109.741373 
L 364.945455 109.741373 
z
" style="opacity:0.313045;"/>
   </g>
   <g id="patch_11">
    <path clip-path="url(#pae5e4e15b6)" d="M 390.711688 252 
L 403.594805 252 
L 403.594805 45.099893 
L 390.711688 45.099893 
z
" style="opacity:0.000896;"/>
   </g>
   <g id="patch_12">
    <path clip-path="url(#pae5e4e15b6)" d="M 416.477922 252 
L 429.361039 252 
L 429.361039 44.914286 
L 416.477922 44.914286 
z
" style="fill:none;opacity:0;"/>
   </g>
   <g id="patch_13">
    <path clip-path="url(#pae5e4e15b6)" d="M 442.244156 252 
L 455.127273 252 
L 455.127273 107.215389 
L 442.244156 107.215389 
z
" style="opacity:0.300847;"/>
   </g>
   <g id="patch_14">
    <path clip-path="url(#pae5e4e15b6)" d="M 468.01039 252 
L 480.893506 252 
L 480.893506 143.301797 
L 468.01039 143.301797 
z
" style="opacity:0.475105;"/>
   </g>
   <g id="patch_15">
    <path clip-path="url(#pae5e4e15b6)" d="M 493.776623 252 
L 506.65974 252 
L 506.65974 78.055733 
L 493.776623 78.055733 
z
" style="opacity:0.160037;"/>
   </g>
   <g id="patch_16">
    <path clip-path="url(#pae5e4e15b6)" d="M 519.542857 252 
L 532.425974 252 
L 532.425974 130.648913 
L 519.542857 130.648913 
z
" style="opacity:0.414006;"/>
   </g>
   <g id="patch_17">
    <path clip-path="url(#pae5e4e15b6)" d="M 545.309091 252 
L 558.192208 252 
L 558.192208 128.453528 
L 545.309091 128.453528 
z
" style="opacity:0.403404;"/>
   </g>
   <g id="patch_18">
    <path clip-path="url(#pae5e4e15b6)" d="M 571.075325 252 
L 583.958442 252 
L 583.958442 94.464469 
L 571.075325 94.464469 
z
" style="opacity:0.239274;"/>
   </g>
   <g id="patch_19">
    <path clip-path="url(#pae5e4e15b6)" d="M 596.841558 252 
L 609.724675 252 
L 609.724675 59.455632 
L 596.841558 59.455632 
z
" style="opacity:0.070219;"/>
   </g>
   <g id="patch_20">
    <path clip-path="url(#pae5e4e15b6)" d="M 622.607792 252 
L 635.490909 252 
L 635.490909 94.65132 
L 622.607792 94.65132 
z
" style="opacity:0.240176;"/>
   </g>
   <g id="patch_21">
    <path clip-path="url(#pae5e4e15b6)" d="M 648.374026 252 
L 661.257143 252 
L 661.257143 130.694572 
L 648.374026 130.694572 
z
" style="opacity:0.414226;"/>
   </g>
   <g id="patch_22">
    <path clip-path="url(#pae5e4e15b6)" d="M 674.14026 252 
L 687.023377 252 
L 687.023377 128.130953 
L 674.14026 128.130953 
z
" style="opacity:0.401846;"/>
   </g>
   <g id="patch_23">
    <path clip-path="url(#pae5e4e15b6)" d="M 699.906494 252 
L 712.78961 252 
L 712.78961 79.975464 
L 699.906494 79.975464 
z
" style="opacity:0.169308;"/>
   </g>
   <g id="patch_24">
    <path clip-path="url(#pae5e4e15b6)" d="M 725.672727 252 
L 738.555844 252 
L 738.555844 72.219137 
L 725.672727 72.219137 
z
" style="opacity:0.131853;"/>
   </g>
   <g id="patch_25">
    <path clip-path="url(#pae5e4e15b6)" d="M 751.438961 252 
L 764.322078 252 
L 764.322078 129.187023 
L 751.438961 129.187023 
z
" style="opacity:0.406946;"/>
   </g>
   <g id="patch_26">
    <path clip-path="url(#pae5e4e15b6)" d="M 777.205195 252 
L 790.088312 252 
L 790.088312 115.656089 
L 777.205195 115.656089 
z
" style="opacity:0.341606;"/>
   </g>
   <g id="patch_27">
    <path clip-path="url(#pae5e4e15b6)" d="M 802.971429 252 
L 815.854545 252 
L 815.854545 44.914286 
L 802.971429 44.914286 
z
" style="fill:none;opacity:0;"/>
   </g>
   <g id="patch_28">
    <path clip-path="url(#pae5e4e15b6)" d="M 828.737662 252 
L 841.620779 252 
L 841.620779 44.99959 
L 828.737662 44.99959 
z
" style="opacity:0.000412;"/>
   </g>
   <g id="patch_29">
    <path clip-path="url(#pae5e4e15b6)" d="M 854.503896 252 
L 867.387013 252 
L 867.387013 105.444556 
L 854.503896 105.444556 
z
" style="opacity:0.292296;"/>
   </g>
   <g id="patch_30">
    <path clip-path="url(#pae5e4e15b6)" d="M 880.27013 252 
L 893.153247 252 
L 893.153247 97.028876 
L 880.27013 97.028876 
z
" style="opacity:0.251657;"/>
   </g>
   <g id="patch_31">
    <path clip-path="url(#pae5e4e15b6)" d="M 906.036364 252 
L 918.919481 252 
L 918.919481 134.20784 
L 906.036364 134.20784 
z
" style="opacity:0.431191;"/>
   </g>
   <g id="patch_32">
    <path clip-path="url(#pae5e4e15b6)" d="M 931.802597 252 
L 944.685714 252 
L 944.685714 62.283062 
L 931.802597 62.283062 
z
" style="opacity:0.083872;"/>
   </g>
   <g id="patch_33">
    <path clip-path="url(#pae5e4e15b6)" d="M 957.568831 252 
L 970.451948 252 
L 970.451948 81.235997 
L 957.568831 81.235997 
z
" style="opacity:0.175395;"/>
   </g>
   <g id="patch_34">
    <path clip-path="url(#pae5e4e15b6)" d="M 983.335065 252 
L 996.218182 252 
L 996.218182 131.718983 
L 983.335065 131.718983 
z
" style="opacity:0.419173;"/>
   </g>
   <g id="matplotlib.axis_1">
    <g id="xtick_1">
     <g id="line2d_1">
      <defs>
       <path d="M 0 0 
L 0 3.5 
" id="mabea77ff90" style="stroke:#000000;stroke-width:0.8;"/>
      </defs>
      <g>
       <use style="stroke:#000000;stroke-width:0.8;" x="191.023377" xlink:href="#mabea77ff90" y="252"/>
      </g>
     </g>
     <g id="text_1">
      <!-- 0 -->
      <defs>
       <path d="M 31.78125 66.40625 
Q 24.171875 66.40625 20.328125 58.90625 
Q 16.5 51.421875 16.5 36.375 
Q 16.5 21.390625 20.328125 13.890625 
Q 24.171875 6.390625 31.78125 6.390625 
Q 39.453125 6.390625 43.28125 13.890625 
Q 47.125 21.390625 47.125 36.375 
Q 47.125 51.421875 43.28125 58.90625 
Q 39.453125 66.40625 31.78125 66.40625 
z
M 31.78125 74.21875 
Q 44.046875 74.21875 50.515625 64.515625 
Q 56.984375 54.828125 56.984375 36.375 
Q 56.984375 17.96875 50.515625 8.265625 
Q 44.046875 -1.421875 31.78125 -1.421875 
Q 19.53125 -1.421875 13.0625 8.265625 
Q 6.59375 17.96875 6.59375 36.375 
Q 6.59375 54.828125 13.0625 64.515625 
Q 19.53125 74.21875 31.78125 74.21875 
z
" id="DejaVuSans-48"/>
      </defs>
      <g transform="translate(187.842127 266.598437)scale(0.1 -0.1)">
       <use xlink:href="#DejaVuSans-48"/>
      </g>
     </g>
    </g>
    <g id="xtick_2">
     <g id="line2d_2">
      <g>
       <use style="stroke:#000000;stroke-width:0.8;" x="319.854545" xlink:href="#mabea77ff90" y="252"/>
      </g>
     </g>
     <g id="text_2">
      <!-- 5 -->
      <defs>
       <path d="M 10.796875 72.90625 
L 49.515625 72.90625 
L 49.515625 64.59375 
L 19.828125 64.59375 
L 19.828125 46.734375 
Q 21.96875 47.46875 24.109375 47.828125 
Q 26.265625 48.1875 28.421875 48.1875 
Q 40.625 48.1875 47.75 41.5 
Q 54.890625 34.8125 54.890625 23.390625 
Q 54.890625 11.625 47.5625 5.09375 
Q 40.234375 -1.421875 26.90625 -1.421875 
Q 22.3125 -1.421875 17.546875 -0.640625 
Q 12.796875 0.140625 7.71875 1.703125 
L 7.71875 11.625 
Q 12.109375 9.234375 16.796875 8.0625 
Q 21.484375 6.890625 26.703125 6.890625 
Q 35.15625 6.890625 40.078125 11.328125 
Q 45.015625 15.765625 45.015625 23.390625 
Q 45.015625 31 40.078125 35.4375 
Q 35.15625 39.890625 26.703125 39.890625 
Q 22.75 39.890625 18.8125 39.015625 
Q 14.890625 38.140625 10.796875 36.28125 
z
" id="DejaVuSans-53"/>
      </defs>
      <g transform="translate(316.673295 266.598437)scale(0.1 -0.1)">
       <use xlink:href="#DejaVuSans-53"/>
      </g>
     </g>
    </g>
    <g id="xtick_3">
     <g id="line2d_3">
      <g>
       <use style="stroke:#000000;stroke-width:0.8;" x="448.685714" xlink:href="#mabea77ff90" y="252"/>
      </g>
     </g>
     <g id="text_3">
      <!-- 10 -->
      <defs>
       <path d="M 12.40625 8.296875 
L 28.515625 8.296875 
L 28.515625 63.921875 
L 10.984375 60.40625 
L 10.984375 69.390625 
L 28.421875 72.90625 
L 38.28125 72.90625 
L 38.28125 8.296875 
L 54.390625 8.296875 
L 54.390625 0 
L 12.40625 0 
z
" id="DejaVuSans-49"/>
      </defs>
      <g transform="translate(442.323214 266.598437)scale(0.1 -0.1)">
       <use xlink:href="#DejaVuSans-49"/>
       <use x="63.623047" xlink:href="#DejaVuSans-48"/>
      </g>
     </g>
    </g>
    <g id="xtick_4">
     <g id="line2d_4">
      <g>
       <use style="stroke:#000000;stroke-width:0.8;" x="577.516883" xlink:href="#mabea77ff90" y="252"/>
      </g>
     </g>
     <g id="text_4">
      <!-- 15 -->
      <g transform="translate(571.154383 266.598437)scale(0.1 -0.1)">
       <use xlink:href="#DejaVuSans-49"/>
       <use x="63.623047" xlink:href="#DejaVuSans-53"/>
      </g>
     </g>
    </g>
    <g id="xtick_5">
     <g id="line2d_5">
      <g>
       <use style="stroke:#000000;stroke-width:0.8;" x="706.348052" xlink:href="#mabea77ff90" y="252"/>
      </g>
     </g>
     <g id="text_5">
      <!-- 20 -->
      <defs>
       <path d="M 19.1875 8.296875 
L 53.609375 8.296875 
L 53.609375 0 
L 7.328125 0 
L 7.328125 8.296875 
Q 12.9375 14.109375 22.625 23.890625 
Q 32.328125 33.6875 34.8125 36.53125 
Q 39.546875 41.84375 41.421875 45.53125 
Q 43.3125 49.21875 43.3125 52.78125 
Q 43.3125 58.59375 39.234375 62.25 
Q 35.15625 65.921875 28.609375 65.921875 
Q 23.96875 65.921875 18.8125 64.3125 
Q 13.671875 62.703125 7.8125 59.421875 
L 7.8125 69.390625 
Q 13.765625 71.78125 18.9375 73 
Q 24.125 74.21875 28.421875 74.21875 
Q 39.75 74.21875 46.484375 68.546875 
Q 53.21875 62.890625 53.21875 53.421875 
Q 53.21875 48.921875 51.53125 44.890625 
Q 49.859375 40.875 45.40625 35.40625 
Q 44.1875 33.984375 37.640625 27.21875 
Q 31.109375 20.453125 19.1875 8.296875 
z
" id="DejaVuSans-50"/>
      </defs>
      <g transform="translate(699.985552 266.598437)scale(0.1 -0.1)">
       <use xlink:href="#DejaVuSans-50"/>
       <use x="63.623047" xlink:href="#DejaVuSans-48"/>
      </g>
     </g>
    </g>
    <g id="xtick_6">
     <g id="line2d_6">
      <g>
       <use style="stroke:#000000;stroke-width:0.8;" x="835.179221" xlink:href="#mabea77ff90" y="252"/>
      </g>
     </g>
     <g id="text_6">
      <!-- 25 -->
      <g transform="translate(828.816721 266.598437)scale(0.1 -0.1)">
       <use xlink:href="#DejaVuSans-50"/>
       <use x="63.623047" xlink:href="#DejaVuSans-53"/>
      </g>
     </g>
    </g>
    <g id="xtick_7">
     <g id="line2d_7">
      <g>
       <use style="stroke:#000000;stroke-width:0.8;" x="964.01039" xlink:href="#mabea77ff90" y="252"/>
      </g>
     </g>
     <g id="text_7">
      <!-- 30 -->
      <defs>
       <path d="M 40.578125 39.3125 
Q 47.65625 37.796875 51.625 33 
Q 55.609375 28.21875 55.609375 21.1875 
Q 55.609375 10.40625 48.1875 4.484375 
Q 40.765625 -1.421875 27.09375 -1.421875 
Q 22.515625 -1.421875 17.65625 -0.515625 
Q 12.796875 0.390625 7.625 2.203125 
L 7.625 11.71875 
Q 11.71875 9.328125 16.59375 8.109375 
Q 21.484375 6.890625 26.8125 6.890625 
Q 36.078125 6.890625 40.9375 10.546875 
Q 45.796875 14.203125 45.796875 21.1875 
Q 45.796875 27.640625 41.28125 31.265625 
Q 36.765625 34.90625 28.71875 34.90625 
L 20.21875 34.90625 
L 20.21875 43.015625 
L 29.109375 43.015625 
Q 36.375 43.015625 40.234375 45.921875 
Q 44.09375 48.828125 44.09375 54.296875 
Q 44.09375 59.90625 40.109375 62.90625 
Q 36.140625 65.921875 28.71875 65.921875 
Q 24.65625 65.921875 20.015625 65.03125 
Q 15.375 64.15625 9.8125 62.3125 
L 9.8125 71.09375 
Q 15.4375 72.65625 20.34375 73.4375 
Q 25.25 74.21875 29.59375 74.21875 
Q 40.828125 74.21875 47.359375 69.109375 
Q 53.90625 64.015625 53.90625 55.328125 
Q 53.90625 49.265625 50.4375 45.09375 
Q 46.96875 40.921875 40.578125 39.3125 
z
" id="DejaVuSans-51"/>
      </defs>
      <g transform="translate(957.64789 266.598437)scale(0.1 -0.1)">
       <use xlink:href="#DejaVuSans-51"/>
       <use x="63.623047" xlink:href="#DejaVuSans-48"/>
      </g>
     </g>
    </g>
   </g>
   <g id="matplotlib.axis_2">
    <g id="ytick_1">
     <g id="line2d_8">
      <defs>
       <path d="M 0 0 
L -3.5 0 
" id="m50ae519b4a" style="stroke:#000000;stroke-width:0.8;"/>
      </defs>
      <g>
       <use style="stroke:#000000;stroke-width:0.8;" x="144" xlink:href="#m50ae519b4a" y="252"/>
      </g>
     </g>
     <g id="text_8">
      <!-- 0.0 -->
      <defs>
       <path d="M 10.6875 12.40625 
L 21 12.40625 
L 21 0 
L 10.6875 0 
z
" id="DejaVuSans-46"/>
      </defs>
      <g transform="translate(121.096875 255.799219)scale(0.1 -0.1)">
       <use xlink:href="#DejaVuSans-48"/>
       <use x="63.623047" xlink:href="#DejaVuSans-46"/>
       <use x="95.410156" xlink:href="#DejaVuSans-48"/>
      </g>
     </g>
    </g>
    <g id="ytick_2">
     <g id="line2d_9">
      <g>
       <use style="stroke:#000000;stroke-width:0.8;" x="144" xlink:href="#m50ae519b4a" y="215.11729"/>
      </g>
     </g>
     <g id="text_9">
      <!-- 0.5 -->
      <g transform="translate(121.096875 218.916509)scale(0.1 -0.1)">
       <use xlink:href="#DejaVuSans-48"/>
       <use x="63.623047" xlink:href="#DejaVuSans-46"/>
       <use x="95.410156" xlink:href="#DejaVuSans-53"/>
      </g>
     </g>
    </g>
    <g id="ytick_3">
     <g id="line2d_10">
      <g>
       <use style="stroke:#000000;stroke-width:0.8;" x="144" xlink:href="#m50ae519b4a" y="178.23458"/>
      </g>
     </g>
     <g id="text_10">
      <!-- 1.0 -->
      <g transform="translate(121.096875 182.033799)scale(0.1 -0.1)">
       <use xlink:href="#DejaVuSans-49"/>
       <use x="63.623047" xlink:href="#DejaVuSans-46"/>
       <use x="95.410156" xlink:href="#DejaVuSans-48"/>
      </g>
     </g>
    </g>
    <g id="ytick_4">
     <g id="line2d_11">
      <g>
       <use style="stroke:#000000;stroke-width:0.8;" x="144" xlink:href="#m50ae519b4a" y="141.35187"/>
      </g>
     </g>
     <g id="text_11">
      <!-- 1.5 -->
      <g transform="translate(121.096875 145.151089)scale(0.1 -0.1)">
       <use xlink:href="#DejaVuSans-49"/>
       <use x="63.623047" xlink:href="#DejaVuSans-46"/>
       <use x="95.410156" xlink:href="#DejaVuSans-53"/>
      </g>
     </g>
    </g>
    <g id="ytick_5">
     <g id="line2d_12">
      <g>
       <use style="stroke:#000000;stroke-width:0.8;" x="144" xlink:href="#m50ae519b4a" y="104.46916"/>
      </g>
     </g>
     <g id="text_12">
      <!-- 2.0 -->
      <g transform="translate(121.096875 108.268379)scale(0.1 -0.1)">
       <use xlink:href="#DejaVuSans-50"/>
       <use x="63.623047" xlink:href="#DejaVuSans-46"/>
       <use x="95.410156" xlink:href="#DejaVuSans-48"/>
      </g>
     </g>
    </g>
    <g id="ytick_6">
     <g id="line2d_13">
      <g>
       <use style="stroke:#000000;stroke-width:0.8;" x="144" xlink:href="#m50ae519b4a" y="67.586451"/>
      </g>
     </g>
     <g id="text_13">
      <!-- 2.5 -->
      <g transform="translate(121.096875 71.385669)scale(0.1 -0.1)">
       <use xlink:href="#DejaVuSans-50"/>
       <use x="63.623047" xlink:href="#DejaVuSans-46"/>
       <use x="95.410156" xlink:href="#DejaVuSans-53"/>
      </g>
     </g>
    </g>
   </g>
   <g id="patch_35">
    <path d="M 144 252 
L 144 34.56 
" style="fill:none;stroke:#000000;stroke-linecap:square;stroke-linejoin:miter;stroke-width:0.8;"/>
   </g>
   <g id="patch_36">
    <path d="M 1036.8 252 
L 1036.8 34.56 
" style="fill:none;stroke:#000000;stroke-linecap:square;stroke-linejoin:miter;stroke-width:0.8;"/>
   </g>
   <g id="patch_37">
    <path d="M 144 252 
L 1036.8 252 
" style="fill:none;stroke:#000000;stroke-linecap:square;stroke-linejoin:miter;stroke-width:0.8;"/>
   </g>
   <g id="patch_38">
    <path d="M 144 34.56 
L 1036.8 34.56 
" style="fill:none;stroke:#000000;stroke-linecap:square;stroke-linejoin:miter;stroke-width:0.8;"/>
   </g>
  </g>
 </g>
 <defs>
  <clipPath id="pae5e4e15b6">
   <rect height="217.44" width="892.8" x="144" y="34.56"/>
  </clipPath>
 </defs>
</svg>
