<?xml version="1.0" encoding="utf-8" standalone="no"?>
<!DOCTYPE svg PUBLIC "-//W3C//DTD SVG 1.1//EN"
  "http://www.w3.org/Graphics/SVG/1.1/DTD/svg11.dtd">
<svg height="288pt" version="1.1" viewBox="0 0 1008 288" width="1008pt" xmlns="http://www.w3.org/2000/svg" xmlns:xlink="http://www.w3.org/1999/xlink">
 <metadata>
  <rdf:RDF xmlns:cc="http://creativecommons.org/ns#" xmlns:dc="http://purl.org/dc/elements/1.1/" xmlns:rdf="http://www.w3.org/1999/02/22-rdf-syntax-ns#">
   <cc:Work>
    <dc:type rdf:resource="http://purl.org/dc/dcmitype/StillImage"/>
    <dc:date>2021-09-04T17:58:55.223616</dc:date>
    <dc:format>image/svg+xml</dc:format>
    <dc:creator>
     <cc:Agent>
      <dc:title>Matplotlib v3.4.2, https://matplotlib.org/</dc:title>
     </cc:Agent>
    </dc:creator>
   </cc:Work>
  </rdf:RDF>
 </metadata>
 <defs>
  <style type="text/css">*{stroke-linecap:butt;stroke-linejoin:round;}</style>
 </defs>
 <g id="figure_1">
  <g id="patch_1">
   <path d="M 0 288 
L 1008 288 
L 1008 0 
L 0 0 
z
" style="fill:none;"/>
  </g>
  <g id="axes_1">
   <g id="patch_2">
    <path d="M 46.375 242.44 
L 491.92 242.44 
L 491.92 10.8 
L 46.375 10.8 
z
" style="fill:none;"/>
   </g>
   <g id="patch_3">
    <path clip-path="url(#pe936913c20)" d="M 46.375 242.44 
L 51.616706 242.44 
L 51.616706 187.287619 
L 46.375 187.287619 
z
" style="fill:#0000ff;"/>
   </g>
   <g id="patch_4">
    <path clip-path="url(#pe936913c20)" d="M 51.616706 242.44 
L 56.858412 242.44 
L 56.858412 187.287619 
L 51.616706 187.287619 
z
" style="fill:#0000ff;"/>
   </g>
   <g id="patch_5">
    <path clip-path="url(#pe936913c20)" d="M 56.858412 242.44 
L 62.100118 242.44 
L 62.100118 132.135238 
L 56.858412 132.135238 
z
" style="fill:#0000ff;"/>
   </g>
   <g id="patch_6">
    <path clip-path="url(#pe936913c20)" d="M 62.100118 242.44 
L 67.341824 242.44 
L 67.341824 242.44 
L 62.100118 242.44 
z
" style="fill:#0000ff;"/>
   </g>
   <g id="patch_7">
    <path clip-path="url(#pe936913c20)" d="M 67.341824 242.44 
L 72.583529 242.44 
L 72.583529 242.44 
L 67.341824 242.44 
z
" style="fill:#0000ff;"/>
   </g>
   <g id="patch_8">
    <path clip-path="url(#pe936913c20)" d="M 72.583529 242.44 
L 77.825235 242.44 
L 77.825235 187.287619 
L 72.583529 187.287619 
z
" style="fill:#0000ff;"/>
   </g>
   <g id="patch_9">
    <path clip-path="url(#pe936913c20)" d="M 77.825235 242.44 
L 83.066941 242.44 
L 83.066941 187.287619 
L 77.825235 187.287619 
z
" style="fill:#0000ff;"/>
   </g>
   <g id="patch_10">
    <path clip-path="url(#pe936913c20)" d="M 83.066941 242.44 
L 88.308647 242.44 
L 88.308647 242.44 
L 83.066941 242.44 
z
" style="fill:#0000ff;"/>
   </g>
   <g id="patch_11">
    <path clip-path="url(#pe936913c20)" d="M 88.308647 242.44 
L 93.550353 242.44 
L 93.550353 242.44 
L 88.308647 242.44 
z
" style="fill:#0000ff;"/>
   </g>
   <g id="patch_12">
    <path clip-path="url(#pe936913c20)" d="M 93.550353 242.44 
L 98.792059 242.44 
L 98.792059 242.44 
L 93.550353 242.44 
z
" style="fill:#0000ff;"/>
   </g>
   <g id="patch_13">
    <path clip-path="url(#pe936913c20)" d="M 98.792059 242.44 
L 104.033765 242.44 
L 104.033765 242.44 
L 98.792059 242.44 
z
" style="fill:#0000ff;"/>
   </g>
   <g id="patch_14">
    <path clip-path="url(#pe936913c20)" d="M 104.033765 242.44 
L 109.275471 242.44 
L 109.275471 242.44 
L 104.033765 242.44 
z
" style="fill:#0000ff;"/>
   </g>
   <g id="patch_15">
    <path clip-path="url(#pe936913c20)" d="M 109.275471 242.44 
L 114.517176 242.44 
L 114.517176 242.44 
L 109.275471 242.44 
z
" style="fill:#0000ff;"/>
   </g>
   <g id="patch_16">
    <path clip-path="url(#pe936913c20)" d="M 114.517176 242.44 
L 119.758882 242.44 
L 119.758882 242.44 
L 114.517176 242.44 
z
" style="fill:#0000ff;"/>
   </g>
   <g id="patch_17">
    <path clip-path="url(#pe936913c20)" d="M 119.758882 242.44 
L 125.000588 242.44 
L 125.000588 132.135238 
L 119.758882 132.135238 
z
" style="fill:#0000ff;"/>
   </g>
   <g id="patch_18">
    <path clip-path="url(#pe936913c20)" d="M 125.000588 242.44 
L 130.242294 242.44 
L 130.242294 242.44 
L 125.000588 242.44 
z
" style="fill:#0000ff;"/>
   </g>
   <g id="patch_19">
    <path clip-path="url(#pe936913c20)" d="M 130.242294 242.44 
L 135.484 242.44 
L 135.484 187.287619 
L 130.242294 187.287619 
z
" style="fill:#0000ff;"/>
   </g>
   <g id="patch_20">
    <path clip-path="url(#pe936913c20)" d="M 135.484 242.44 
L 140.725706 242.44 
L 140.725706 242.44 
L 135.484 242.44 
z
" style="fill:#0000ff;"/>
   </g>
   <g id="patch_21">
    <path clip-path="url(#pe936913c20)" d="M 140.725706 242.44 
L 145.967412 242.44 
L 145.967412 242.44 
L 140.725706 242.44 
z
" style="fill:#0000ff;"/>
   </g>
   <g id="patch_22">
    <path clip-path="url(#pe936913c20)" d="M 145.967412 242.44 
L 151.209118 242.44 
L 151.209118 187.287619 
L 145.967412 187.287619 
z
" style="fill:#0000ff;"/>
   </g>
   <g id="patch_23">
    <path clip-path="url(#pe936913c20)" d="M 151.209118 242.44 
L 156.450824 242.44 
L 156.450824 242.44 
L 151.209118 242.44 
z
" style="fill:#0000ff;"/>
   </g>
   <g id="patch_24">
    <path clip-path="url(#pe936913c20)" d="M 156.450824 242.44 
L 161.692529 242.44 
L 161.692529 187.287619 
L 156.450824 187.287619 
z
" style="fill:#0000ff;"/>
   </g>
   <g id="patch_25">
    <path clip-path="url(#pe936913c20)" d="M 161.692529 242.44 
L 166.934235 242.44 
L 166.934235 242.44 
L 161.692529 242.44 
z
" style="fill:#0000ff;"/>
   </g>
   <g id="patch_26">
    <path clip-path="url(#pe936913c20)" d="M 166.934235 242.44 
L 172.175941 242.44 
L 172.175941 242.44 
L 166.934235 242.44 
z
" style="fill:#0000ff;"/>
   </g>
   <g id="patch_27">
    <path clip-path="url(#pe936913c20)" d="M 172.175941 242.44 
L 177.417647 242.44 
L 177.417647 242.44 
L 172.175941 242.44 
z
" style="fill:#0000ff;"/>
   </g>
   <g id="patch_28">
    <path clip-path="url(#pe936913c20)" d="M 177.417647 242.44 
L 182.659353 242.44 
L 182.659353 242.44 
L 177.417647 242.44 
z
" style="fill:#0000ff;"/>
   </g>
   <g id="patch_29">
    <path clip-path="url(#pe936913c20)" d="M 182.659353 242.44 
L 187.901059 242.44 
L 187.901059 242.44 
L 182.659353 242.44 
z
" style="fill:#0000ff;"/>
   </g>
   <g id="patch_30">
    <path clip-path="url(#pe936913c20)" d="M 187.901059 242.44 
L 193.142765 242.44 
L 193.142765 242.44 
L 187.901059 242.44 
z
" style="fill:#0000ff;"/>
   </g>
   <g id="patch_31">
    <path clip-path="url(#pe936913c20)" d="M 193.142765 242.44 
L 198.384471 242.44 
L 198.384471 187.287619 
L 193.142765 187.287619 
z
" style="fill:#0000ff;"/>
   </g>
   <g id="patch_32">
    <path clip-path="url(#pe936913c20)" d="M 198.384471 242.44 
L 203.626176 242.44 
L 203.626176 187.287619 
L 198.384471 187.287619 
z
" style="fill:#0000ff;"/>
   </g>
   <g id="patch_33">
    <path clip-path="url(#pe936913c20)" d="M 203.626176 242.44 
L 208.867882 242.44 
L 208.867882 242.44 
L 203.626176 242.44 
z
" style="fill:#0000ff;"/>
   </g>
   <g id="patch_34">
    <path clip-path="url(#pe936913c20)" d="M 208.867882 242.44 
L 214.109588 242.44 
L 214.109588 187.287619 
L 208.867882 187.287619 
z
" style="fill:#0000ff;"/>
   </g>
   <g id="patch_35">
    <path clip-path="url(#pe936913c20)" d="M 214.109588 242.44 
L 219.351294 242.44 
L 219.351294 242.44 
L 214.109588 242.44 
z
" style="fill:#0000ff;"/>
   </g>
   <g id="patch_36">
    <path clip-path="url(#pe936913c20)" d="M 219.351294 242.44 
L 224.593 242.44 
L 224.593 132.135238 
L 219.351294 132.135238 
z
" style="fill:#0000ff;"/>
   </g>
   <g id="patch_37">
    <path clip-path="url(#pe936913c20)" d="M 224.593 242.44 
L 229.834706 242.44 
L 229.834706 242.44 
L 224.593 242.44 
z
" style="fill:#0000ff;"/>
   </g>
   <g id="patch_38">
    <path clip-path="url(#pe936913c20)" d="M 229.834706 242.44 
L 235.076412 242.44 
L 235.076412 242.44 
L 229.834706 242.44 
z
" style="fill:#0000ff;"/>
   </g>
   <g id="patch_39">
    <path clip-path="url(#pe936913c20)" d="M 235.076412 242.44 
L 240.318118 242.44 
L 240.318118 242.44 
L 235.076412 242.44 
z
" style="fill:#0000ff;"/>
   </g>
   <g id="patch_40">
    <path clip-path="url(#pe936913c20)" d="M 240.318118 242.44 
L 245.559824 242.44 
L 245.559824 242.44 
L 240.318118 242.44 
z
" style="fill:#0000ff;"/>
   </g>
   <g id="patch_41">
    <path clip-path="url(#pe936913c20)" d="M 245.559824 242.44 
L 250.801529 242.44 
L 250.801529 242.44 
L 245.559824 242.44 
z
" style="fill:#0000ff;"/>
   </g>
   <g id="patch_42">
    <path clip-path="url(#pe936913c20)" d="M 250.801529 242.44 
L 256.043235 242.44 
L 256.043235 242.44 
L 250.801529 242.44 
z
" style="fill:#0000ff;"/>
   </g>
   <g id="patch_43">
    <path clip-path="url(#pe936913c20)" d="M 256.043235 242.44 
L 261.284941 242.44 
L 261.284941 242.44 
L 256.043235 242.44 
z
" style="fill:#0000ff;"/>
   </g>
   <g id="patch_44">
    <path clip-path="url(#pe936913c20)" d="M 261.284941 242.44 
L 266.526647 242.44 
L 266.526647 242.44 
L 261.284941 242.44 
z
" style="fill:#0000ff;"/>
   </g>
   <g id="patch_45">
    <path clip-path="url(#pe936913c20)" d="M 266.526647 242.44 
L 271.768353 242.44 
L 271.768353 242.44 
L 266.526647 242.44 
z
" style="fill:#0000ff;"/>
   </g>
   <g id="patch_46">
    <path clip-path="url(#pe936913c20)" d="M 271.768353 242.44 
L 277.010059 242.44 
L 277.010059 242.44 
L 271.768353 242.44 
z
" style="fill:#0000ff;"/>
   </g>
   <g id="patch_47">
    <path clip-path="url(#pe936913c20)" d="M 277.010059 242.44 
L 282.251765 242.44 
L 282.251765 187.287619 
L 277.010059 187.287619 
z
" style="fill:#0000ff;"/>
   </g>
   <g id="patch_48">
    <path clip-path="url(#pe936913c20)" d="M 282.251765 242.44 
L 287.493471 242.44 
L 287.493471 242.44 
L 282.251765 242.44 
z
" style="fill:#0000ff;"/>
   </g>
   <g id="patch_49">
    <path clip-path="url(#pe936913c20)" d="M 287.493471 242.44 
L 292.735176 242.44 
L 292.735176 187.287619 
L 287.493471 187.287619 
z
" style="fill:#0000ff;"/>
   </g>
   <g id="patch_50">
    <path clip-path="url(#pe936913c20)" d="M 292.735176 242.44 
L 297.976882 242.44 
L 297.976882 242.44 
L 292.735176 242.44 
z
" style="fill:#0000ff;"/>
   </g>
   <g id="patch_51">
    <path clip-path="url(#pe936913c20)" d="M 297.976882 242.44 
L 303.218588 242.44 
L 303.218588 187.287619 
L 297.976882 187.287619 
z
" style="fill:#0000ff;"/>
   </g>
   <g id="patch_52">
    <path clip-path="url(#pe936913c20)" d="M 303.218588 242.44 
L 308.460294 242.44 
L 308.460294 242.44 
L 303.218588 242.44 
z
" style="fill:#0000ff;"/>
   </g>
   <g id="patch_53">
    <path clip-path="url(#pe936913c20)" d="M 308.460294 242.44 
L 313.702 242.44 
L 313.702 242.44 
L 308.460294 242.44 
z
" style="fill:#0000ff;"/>
   </g>
   <g id="patch_54">
    <path clip-path="url(#pe936913c20)" d="M 313.702 242.44 
L 318.943706 242.44 
L 318.943706 242.44 
L 313.702 242.44 
z
" style="fill:#0000ff;"/>
   </g>
   <g id="patch_55">
    <path clip-path="url(#pe936913c20)" d="M 318.943706 242.44 
L 324.185412 242.44 
L 324.185412 242.44 
L 318.943706 242.44 
z
" style="fill:#0000ff;"/>
   </g>
   <g id="patch_56">
    <path clip-path="url(#pe936913c20)" d="M 324.185412 242.44 
L 329.427118 242.44 
L 329.427118 242.44 
L 324.185412 242.44 
z
" style="fill:#0000ff;"/>
   </g>
   <g id="patch_57">
    <path clip-path="url(#pe936913c20)" d="M 329.427118 242.44 
L 334.668824 242.44 
L 334.668824 242.44 
L 329.427118 242.44 
z
" style="fill:#0000ff;"/>
   </g>
   <g id="patch_58">
    <path clip-path="url(#pe936913c20)" d="M 334.668824 242.44 
L 339.910529 242.44 
L 339.910529 242.44 
L 334.668824 242.44 
z
" style="fill:#0000ff;"/>
   </g>
   <g id="patch_59">
    <path clip-path="url(#pe936913c20)" d="M 339.910529 242.44 
L 345.152235 242.44 
L 345.152235 242.44 
L 339.910529 242.44 
z
" style="fill:#0000ff;"/>
   </g>
   <g id="patch_60">
    <path clip-path="url(#pe936913c20)" d="M 345.152235 242.44 
L 350.393941 242.44 
L 350.393941 242.44 
L 345.152235 242.44 
z
" style="fill:#0000ff;"/>
   </g>
   <g id="patch_61">
    <path clip-path="url(#pe936913c20)" d="M 350.393941 242.44 
L 355.635647 242.44 
L 355.635647 242.44 
L 350.393941 242.44 
z
" style="fill:#0000ff;"/>
   </g>
   <g id="patch_62">
    <path clip-path="url(#pe936913c20)" d="M 355.635647 242.44 
L 360.877353 242.44 
L 360.877353 242.44 
L 355.635647 242.44 
z
" style="fill:#0000ff;"/>
   </g>
   <g id="patch_63">
    <path clip-path="url(#pe936913c20)" d="M 360.877353 242.44 
L 366.119059 242.44 
L 366.119059 242.44 
L 360.877353 242.44 
z
" style="fill:#0000ff;"/>
   </g>
   <g id="patch_64">
    <path clip-path="url(#pe936913c20)" d="M 366.119059 242.44 
L 371.360765 242.44 
L 371.360765 242.44 
L 366.119059 242.44 
z
" style="fill:#0000ff;"/>
   </g>
   <g id="patch_65">
    <path clip-path="url(#pe936913c20)" d="M 371.360765 242.44 
L 376.602471 242.44 
L 376.602471 242.44 
L 371.360765 242.44 
z
" style="fill:#0000ff;"/>
   </g>
   <g id="patch_66">
    <path clip-path="url(#pe936913c20)" d="M 376.602471 242.44 
L 381.844176 242.44 
L 381.844176 242.44 
L 376.602471 242.44 
z
" style="fill:#0000ff;"/>
   </g>
   <g id="patch_67">
    <path clip-path="url(#pe936913c20)" d="M 381.844176 242.44 
L 387.085882 242.44 
L 387.085882 242.44 
L 381.844176 242.44 
z
" style="fill:#0000ff;"/>
   </g>
   <g id="patch_68">
    <path clip-path="url(#pe936913c20)" d="M 387.085882 242.44 
L 392.327588 242.44 
L 392.327588 242.44 
L 387.085882 242.44 
z
" style="fill:#0000ff;"/>
   </g>
   <g id="patch_69">
    <path clip-path="url(#pe936913c20)" d="M 392.327588 242.44 
L 397.569294 242.44 
L 397.569294 242.44 
L 392.327588 242.44 
z
" style="fill:#0000ff;"/>
   </g>
   <g id="patch_70">
    <path clip-path="url(#pe936913c20)" d="M 397.569294 242.44 
L 402.811 242.44 
L 402.811 242.44 
L 397.569294 242.44 
z
" style="fill:#0000ff;"/>
   </g>
   <g id="patch_71">
    <path clip-path="url(#pe936913c20)" d="M 402.811 242.44 
L 408.052706 242.44 
L 408.052706 242.44 
L 402.811 242.44 
z
" style="fill:#0000ff;"/>
   </g>
   <g id="patch_72">
    <path clip-path="url(#pe936913c20)" d="M 408.052706 242.44 
L 413.294412 242.44 
L 413.294412 242.44 
L 408.052706 242.44 
z
" style="fill:#0000ff;"/>
   </g>
   <g id="patch_73">
    <path clip-path="url(#pe936913c20)" d="M 413.294412 242.44 
L 418.536118 242.44 
L 418.536118 242.44 
L 413.294412 242.44 
z
" style="fill:#0000ff;"/>
   </g>
   <g id="patch_74">
    <path clip-path="url(#pe936913c20)" d="M 418.536118 242.44 
L 423.777824 242.44 
L 423.777824 242.44 
L 418.536118 242.44 
z
" style="fill:#0000ff;"/>
   </g>
   <g id="patch_75">
    <path clip-path="url(#pe936913c20)" d="M 423.777824 242.44 
L 429.019529 242.44 
L 429.019529 242.44 
L 423.777824 242.44 
z
" style="fill:#0000ff;"/>
   </g>
   <g id="patch_76">
    <path clip-path="url(#pe936913c20)" d="M 429.019529 242.44 
L 434.261235 242.44 
L 434.261235 242.44 
L 429.019529 242.44 
z
" style="fill:#0000ff;"/>
   </g>
   <g id="patch_77">
    <path clip-path="url(#pe936913c20)" d="M 434.261235 242.44 
L 439.502941 242.44 
L 439.502941 242.44 
L 434.261235 242.44 
z
" style="fill:#0000ff;"/>
   </g>
   <g id="patch_78">
    <path clip-path="url(#pe936913c20)" d="M 439.502941 242.44 
L 444.744647 242.44 
L 444.744647 242.44 
L 439.502941 242.44 
z
" style="fill:#0000ff;"/>
   </g>
   <g id="patch_79">
    <path clip-path="url(#pe936913c20)" d="M 444.744647 242.44 
L 449.986353 242.44 
L 449.986353 242.44 
L 444.744647 242.44 
z
" style="fill:#0000ff;"/>
   </g>
   <g id="patch_80">
    <path clip-path="url(#pe936913c20)" d="M 449.986353 242.44 
L 455.228059 242.44 
L 455.228059 242.44 
L 449.986353 242.44 
z
" style="fill:#0000ff;"/>
   </g>
   <g id="patch_81">
    <path clip-path="url(#pe936913c20)" d="M 455.228059 242.44 
L 460.469765 242.44 
L 460.469765 242.44 
L 455.228059 242.44 
z
" style="fill:#0000ff;"/>
   </g>
   <g id="patch_82">
    <path clip-path="url(#pe936913c20)" d="M 460.469765 242.44 
L 465.711471 242.44 
L 465.711471 242.44 
L 460.469765 242.44 
z
" style="fill:#0000ff;"/>
   </g>
   <g id="patch_83">
    <path clip-path="url(#pe936913c20)" d="M 465.711471 242.44 
L 470.953176 242.44 
L 470.953176 242.44 
L 465.711471 242.44 
z
" style="fill:#0000ff;"/>
   </g>
   <g id="patch_84">
    <path clip-path="url(#pe936913c20)" d="M 470.953176 242.44 
L 476.194882 242.44 
L 476.194882 242.44 
L 470.953176 242.44 
z
" style="fill:#0000ff;"/>
   </g>
   <g id="patch_85">
    <path clip-path="url(#pe936913c20)" d="M 476.194882 242.44 
L 481.436588 242.44 
L 481.436588 242.44 
L 476.194882 242.44 
z
" style="fill:#0000ff;"/>
   </g>
   <g id="patch_86">
    <path clip-path="url(#pe936913c20)" d="M 481.436588 242.44 
L 486.678294 242.44 
L 486.678294 242.44 
L 481.436588 242.44 
z
" style="fill:#0000ff;"/>
   </g>
   <g id="patch_87">
    <path clip-path="url(#pe936913c20)" d="M 486.678294 242.44 
L 491.92 242.44 
L 491.92 187.287619 
L 486.678294 187.287619 
z
" style="fill:#0000ff;"/>
   </g>
   <g id="patch_88">
    <path clip-path="url(#pe936913c20)" d="M 46.375 242.44 
L 51.616706 242.44 
L 51.616706 132.135238 
L 46.375 132.135238 
z
" style="fill:#ffa500;opacity:0.8;"/>
   </g>
   <g id="patch_89">
    <path clip-path="url(#pe936913c20)" d="M 51.616706 242.44 
L 56.858412 242.44 
L 56.858412 21.830476 
L 51.616706 21.830476 
z
" style="fill:#ffa500;opacity:0.8;"/>
   </g>
   <g id="patch_90">
    <path clip-path="url(#pe936913c20)" d="M 56.858412 242.44 
L 62.100118 242.44 
L 62.100118 242.44 
L 56.858412 242.44 
z
" style="fill:#ffa500;opacity:0.8;"/>
   </g>
   <g id="patch_91">
    <path clip-path="url(#pe936913c20)" d="M 62.100118 242.44 
L 67.341824 242.44 
L 67.341824 242.44 
L 62.100118 242.44 
z
" style="fill:#ffa500;opacity:0.8;"/>
   </g>
   <g id="patch_92">
    <path clip-path="url(#pe936913c20)" d="M 67.341824 242.44 
L 72.583529 242.44 
L 72.583529 242.44 
L 67.341824 242.44 
z
" style="fill:#ffa500;opacity:0.8;"/>
   </g>
   <g id="patch_93">
    <path clip-path="url(#pe936913c20)" d="M 72.583529 242.44 
L 77.825235 242.44 
L 77.825235 21.830476 
L 72.583529 21.830476 
z
" style="fill:#ffa500;opacity:0.8;"/>
   </g>
   <g id="patch_94">
    <path clip-path="url(#pe936913c20)" d="M 77.825235 242.44 
L 83.066941 242.44 
L 83.066941 187.287619 
L 77.825235 187.287619 
z
" style="fill:#ffa500;opacity:0.8;"/>
   </g>
   <g id="patch_95">
    <path clip-path="url(#pe936913c20)" d="M 83.066941 242.44 
L 88.308647 242.44 
L 88.308647 187.287619 
L 83.066941 187.287619 
z
" style="fill:#ffa500;opacity:0.8;"/>
   </g>
   <g id="patch_96">
    <path clip-path="url(#pe936913c20)" d="M 88.308647 242.44 
L 93.550353 242.44 
L 93.550353 242.44 
L 88.308647 242.44 
z
" style="fill:#ffa500;opacity:0.8;"/>
   </g>
   <g id="patch_97">
    <path clip-path="url(#pe936913c20)" d="M 93.550353 242.44 
L 98.792059 242.44 
L 98.792059 242.44 
L 93.550353 242.44 
z
" style="fill:#ffa500;opacity:0.8;"/>
   </g>
   <g id="patch_98">
    <path clip-path="url(#pe936913c20)" d="M 98.792059 242.44 
L 104.033765 242.44 
L 104.033765 187.287619 
L 98.792059 187.287619 
z
" style="fill:#ffa500;opacity:0.8;"/>
   </g>
   <g id="patch_99">
    <path clip-path="url(#pe936913c20)" d="M 104.033765 242.44 
L 109.275471 242.44 
L 109.275471 242.44 
L 104.033765 242.44 
z
" style="fill:#ffa500;opacity:0.8;"/>
   </g>
   <g id="patch_100">
    <path clip-path="url(#pe936913c20)" d="M 109.275471 242.44 
L 114.517176 242.44 
L 114.517176 242.44 
L 109.275471 242.44 
z
" style="fill:#ffa500;opacity:0.8;"/>
   </g>
   <g id="patch_101">
    <path clip-path="url(#pe936913c20)" d="M 114.517176 242.44 
L 119.758882 242.44 
L 119.758882 187.287619 
L 114.517176 187.287619 
z
" style="fill:#ffa500;opacity:0.8;"/>
   </g>
   <g id="patch_102">
    <path clip-path="url(#pe936913c20)" d="M 119.758882 242.44 
L 125.000588 242.44 
L 125.000588 242.44 
L 119.758882 242.44 
z
" style="fill:#ffa500;opacity:0.8;"/>
   </g>
   <g id="patch_103">
    <path clip-path="url(#pe936913c20)" d="M 125.000588 242.44 
L 130.242294 242.44 
L 130.242294 242.44 
L 125.000588 242.44 
z
" style="fill:#ffa500;opacity:0.8;"/>
   </g>
   <g id="patch_104">
    <path clip-path="url(#pe936913c20)" d="M 130.242294 242.44 
L 135.484 242.44 
L 135.484 187.287619 
L 130.242294 187.287619 
z
" style="fill:#ffa500;opacity:0.8;"/>
   </g>
   <g id="patch_105">
    <path clip-path="url(#pe936913c20)" d="M 135.484 242.44 
L 140.725706 242.44 
L 140.725706 242.44 
L 135.484 242.44 
z
" style="fill:#ffa500;opacity:0.8;"/>
   </g>
   <g id="patch_106">
    <path clip-path="url(#pe936913c20)" d="M 140.725706 242.44 
L 145.967412 242.44 
L 145.967412 242.44 
L 140.725706 242.44 
z
" style="fill:#ffa500;opacity:0.8;"/>
   </g>
   <g id="patch_107">
    <path clip-path="url(#pe936913c20)" d="M 145.967412 242.44 
L 151.209118 242.44 
L 151.209118 242.44 
L 145.967412 242.44 
z
" style="fill:#ffa500;opacity:0.8;"/>
   </g>
   <g id="patch_108">
    <path clip-path="url(#pe936913c20)" d="M 151.209118 242.44 
L 156.450824 242.44 
L 156.450824 187.287619 
L 151.209118 187.287619 
z
" style="fill:#ffa500;opacity:0.8;"/>
   </g>
   <g id="patch_109">
    <path clip-path="url(#pe936913c20)" d="M 156.450824 242.44 
L 161.692529 242.44 
L 161.692529 187.287619 
L 156.450824 187.287619 
z
" style="fill:#ffa500;opacity:0.8;"/>
   </g>
   <g id="patch_110">
    <path clip-path="url(#pe936913c20)" d="M 161.692529 242.44 
L 166.934235 242.44 
L 166.934235 187.287619 
L 161.692529 187.287619 
z
" style="fill:#ffa500;opacity:0.8;"/>
   </g>
   <g id="patch_111">
    <path clip-path="url(#pe936913c20)" d="M 166.934235 242.44 
L 172.175941 242.44 
L 172.175941 242.44 
L 166.934235 242.44 
z
" style="fill:#ffa500;opacity:0.8;"/>
   </g>
   <g id="patch_112">
    <path clip-path="url(#pe936913c20)" d="M 172.175941 242.44 
L 177.417647 242.44 
L 177.417647 242.44 
L 172.175941 242.44 
z
" style="fill:#ffa500;opacity:0.8;"/>
   </g>
   <g id="patch_113">
    <path clip-path="url(#pe936913c20)" d="M 177.417647 242.44 
L 182.659353 242.44 
L 182.659353 242.44 
L 177.417647 242.44 
z
" style="fill:#ffa500;opacity:0.8;"/>
   </g>
   <g id="patch_114">
    <path clip-path="url(#pe936913c20)" d="M 182.659353 242.44 
L 187.901059 242.44 
L 187.901059 242.44 
L 182.659353 242.44 
z
" style="fill:#ffa500;opacity:0.8;"/>
   </g>
   <g id="patch_115">
    <path clip-path="url(#pe936913c20)" d="M 187.901059 242.44 
L 193.142765 242.44 
L 193.142765 187.287619 
L 187.901059 187.287619 
z
" style="fill:#ffa500;opacity:0.8;"/>
   </g>
   <g id="patch_116">
    <path clip-path="url(#pe936913c20)" d="M 193.142765 242.44 
L 198.384471 242.44 
L 198.384471 242.44 
L 193.142765 242.44 
z
" style="fill:#ffa500;opacity:0.8;"/>
   </g>
   <g id="patch_117">
    <path clip-path="url(#pe936913c20)" d="M 198.384471 242.44 
L 203.626176 242.44 
L 203.626176 242.44 
L 198.384471 242.44 
z
" style="fill:#ffa500;opacity:0.8;"/>
   </g>
   <g id="patch_118">
    <path clip-path="url(#pe936913c20)" d="M 203.626176 242.44 
L 208.867882 242.44 
L 208.867882 242.44 
L 203.626176 242.44 
z
" style="fill:#ffa500;opacity:0.8;"/>
   </g>
   <g id="patch_119">
    <path clip-path="url(#pe936913c20)" d="M 208.867882 242.44 
L 214.109588 242.44 
L 214.109588 242.44 
L 208.867882 242.44 
z
" style="fill:#ffa500;opacity:0.8;"/>
   </g>
   <g id="patch_120">
    <path clip-path="url(#pe936913c20)" d="M 214.109588 242.44 
L 219.351294 242.44 
L 219.351294 242.44 
L 214.109588 242.44 
z
" style="fill:#ffa500;opacity:0.8;"/>
   </g>
   <g id="patch_121">
    <path clip-path="url(#pe936913c20)" d="M 219.351294 242.44 
L 224.593 242.44 
L 224.593 242.44 
L 219.351294 242.44 
z
" style="fill:#ffa500;opacity:0.8;"/>
   </g>
   <g id="patch_122">
    <path clip-path="url(#pe936913c20)" d="M 224.593 242.44 
L 229.834706 242.44 
L 229.834706 242.44 
L 224.593 242.44 
z
" style="fill:#ffa500;opacity:0.8;"/>
   </g>
   <g id="patch_123">
    <path clip-path="url(#pe936913c20)" d="M 229.834706 242.44 
L 235.076412 242.44 
L 235.076412 242.44 
L 229.834706 242.44 
z
" style="fill:#ffa500;opacity:0.8;"/>
   </g>
   <g id="patch_124">
    <path clip-path="url(#pe936913c20)" d="M 235.076412 242.44 
L 240.318118 242.44 
L 240.318118 242.44 
L 235.076412 242.44 
z
" style="fill:#ffa500;opacity:0.8;"/>
   </g>
   <g id="patch_125">
    <path clip-path="url(#pe936913c20)" d="M 240.318118 242.44 
L 245.559824 242.44 
L 245.559824 242.44 
L 240.318118 242.44 
z
" style="fill:#ffa500;opacity:0.8;"/>
   </g>
   <g id="patch_126">
    <path clip-path="url(#pe936913c20)" d="M 245.559824 242.44 
L 250.801529 242.44 
L 250.801529 242.44 
L 245.559824 242.44 
z
" style="fill:#ffa500;opacity:0.8;"/>
   </g>
   <g id="patch_127">
    <path clip-path="url(#pe936913c20)" d="M 250.801529 242.44 
L 256.043235 242.44 
L 256.043235 242.44 
L 250.801529 242.44 
z
" style="fill:#ffa500;opacity:0.8;"/>
   </g>
   <g id="patch_128">
    <path clip-path="url(#pe936913c20)" d="M 256.043235 242.44 
L 261.284941 242.44 
L 261.284941 242.44 
L 256.043235 242.44 
z
" style="fill:#ffa500;opacity:0.8;"/>
   </g>
   <g id="patch_129">
    <path clip-path="url(#pe936913c20)" d="M 261.284941 242.44 
L 266.526647 242.44 
L 266.526647 187.287619 
L 261.284941 187.287619 
z
" style="fill:#ffa500;opacity:0.8;"/>
   </g>
   <g id="matplotlib.axis_1">
    <g id="xtick_1">
     <g id="line2d_1">
      <defs>
       <path d="M 0 0 
L 0 3.5 
" id="m1ef13276a2" style="stroke:#000000;stroke-width:0.8;"/>
      </defs>
      <g>
       <use style="stroke:#000000;stroke-width:0.8;" x="48.995853" xlink:href="#m1ef13276a2" y="242.44"/>
      </g>
     </g>
     <g id="text_1">
      <!-- 0 -->
      <g transform="translate(45.814603 257.038437)scale(0.1 -0.1)">
       <defs>
        <path d="M 2034 4250 
Q 1547 4250 1301 3770 
Q 1056 3291 1056 2328 
Q 1056 1369 1301 889 
Q 1547 409 2034 409 
Q 2525 409 2770 889 
Q 3016 1369 3016 2328 
Q 3016 3291 2770 3770 
Q 2525 4250 2034 4250 
z
M 2034 4750 
Q 2819 4750 3233 4129 
Q 3647 3509 3647 2328 
Q 3647 1150 3233 529 
Q 2819 -91 2034 -91 
Q 1250 -91 836 529 
Q 422 1150 422 2328 
Q 422 3509 836 4129 
Q 1250 4750 2034 4750 
z
" id="DejaVuSans-30" transform="scale(0.015625)"/>
       </defs>
       <use xlink:href="#DejaVuSans-30"/>
      </g>
     </g>
    </g>
    <g id="xtick_2">
     <g id="line2d_2">
      <g>
       <use style="stroke:#000000;stroke-width:0.8;" x="101.412912" xlink:href="#m1ef13276a2" y="242.44"/>
      </g>
     </g>
     <g id="text_2">
      <!-- 10 -->
      <g transform="translate(95.050412 257.038437)scale(0.1 -0.1)">
       <defs>
        <path d="M 794 531 
L 1825 531 
L 1825 4091 
L 703 3866 
L 703 4441 
L 1819 4666 
L 2450 4666 
L 2450 531 
L 3481 531 
L 3481 0 
L 794 0 
L 794 531 
z
" id="DejaVuSans-31" transform="scale(0.015625)"/>
       </defs>
       <use xlink:href="#DejaVuSans-31"/>
       <use x="63.623047" xlink:href="#DejaVuSans-30"/>
      </g>
     </g>
    </g>
    <g id="xtick_3">
     <g id="line2d_3">
      <g>
       <use style="stroke:#000000;stroke-width:0.8;" x="153.829971" xlink:href="#m1ef13276a2" y="242.44"/>
      </g>
     </g>
     <g id="text_3">
      <!-- 20 -->
      <g transform="translate(147.467471 257.038437)scale(0.1 -0.1)">
       <defs>
        <path d="M 1228 531 
L 3431 531 
L 3431 0 
L 469 0 
L 469 531 
Q 828 903 1448 1529 
Q 2069 2156 2228 2338 
Q 2531 2678 2651 2914 
Q 2772 3150 2772 3378 
Q 2772 3750 2511 3984 
Q 2250 4219 1831 4219 
Q 1534 4219 1204 4116 
Q 875 4013 500 3803 
L 500 4441 
Q 881 4594 1212 4672 
Q 1544 4750 1819 4750 
Q 2544 4750 2975 4387 
Q 3406 4025 3406 3419 
Q 3406 3131 3298 2873 
Q 3191 2616 2906 2266 
Q 2828 2175 2409 1742 
Q 1991 1309 1228 531 
z
" id="DejaVuSans-32" transform="scale(0.015625)"/>
       </defs>
       <use xlink:href="#DejaVuSans-32"/>
       <use x="63.623047" xlink:href="#DejaVuSans-30"/>
      </g>
     </g>
    </g>
    <g id="xtick_4">
     <g id="line2d_4">
      <g>
       <use style="stroke:#000000;stroke-width:0.8;" x="206.247029" xlink:href="#m1ef13276a2" y="242.44"/>
      </g>
     </g>
     <g id="text_4">
      <!-- 30 -->
      <g transform="translate(199.884529 257.038437)scale(0.1 -0.1)">
       <defs>
        <path d="M 2597 2516 
Q 3050 2419 3304 2112 
Q 3559 1806 3559 1356 
Q 3559 666 3084 287 
Q 2609 -91 1734 -91 
Q 1441 -91 1130 -33 
Q 819 25 488 141 
L 488 750 
Q 750 597 1062 519 
Q 1375 441 1716 441 
Q 2309 441 2620 675 
Q 2931 909 2931 1356 
Q 2931 1769 2642 2001 
Q 2353 2234 1838 2234 
L 1294 2234 
L 1294 2753 
L 1863 2753 
Q 2328 2753 2575 2939 
Q 2822 3125 2822 3475 
Q 2822 3834 2567 4026 
Q 2313 4219 1838 4219 
Q 1578 4219 1281 4162 
Q 984 4106 628 3988 
L 628 4550 
Q 988 4650 1302 4700 
Q 1616 4750 1894 4750 
Q 2613 4750 3031 4423 
Q 3450 4097 3450 3541 
Q 3450 3153 3228 2886 
Q 3006 2619 2597 2516 
z
" id="DejaVuSans-33" transform="scale(0.015625)"/>
       </defs>
       <use xlink:href="#DejaVuSans-33"/>
       <use x="63.623047" xlink:href="#DejaVuSans-30"/>
      </g>
     </g>
    </g>
    <g id="xtick_5">
     <g id="line2d_5">
      <g>
       <use style="stroke:#000000;stroke-width:0.8;" x="258.664088" xlink:href="#m1ef13276a2" y="242.44"/>
      </g>
     </g>
     <g id="text_5">
      <!-- 40 -->
      <g transform="translate(252.301588 257.038437)scale(0.1 -0.1)">
       <defs>
        <path d="M 2419 4116 
L 825 1625 
L 2419 1625 
L 2419 4116 
z
M 2253 4666 
L 3047 4666 
L 3047 1625 
L 3713 1625 
L 3713 1100 
L 3047 1100 
L 3047 0 
L 2419 0 
L 2419 1100 
L 313 1100 
L 313 1709 
L 2253 4666 
z
" id="DejaVuSans-34" transform="scale(0.015625)"/>
       </defs>
       <use xlink:href="#DejaVuSans-34"/>
       <use x="63.623047" xlink:href="#DejaVuSans-30"/>
      </g>
     </g>
    </g>
    <g id="xtick_6">
     <g id="line2d_6">
      <g>
       <use style="stroke:#000000;stroke-width:0.8;" x="311.081147" xlink:href="#m1ef13276a2" y="242.44"/>
      </g>
     </g>
     <g id="text_6">
      <!-- 50 -->
      <g transform="translate(304.718647 257.038437)scale(0.1 -0.1)">
       <defs>
        <path d="M 691 4666 
L 3169 4666 
L 3169 4134 
L 1269 4134 
L 1269 2991 
Q 1406 3038 1543 3061 
Q 1681 3084 1819 3084 
Q 2600 3084 3056 2656 
Q 3513 2228 3513 1497 
Q 3513 744 3044 326 
Q 2575 -91 1722 -91 
Q 1428 -91 1123 -41 
Q 819 9 494 109 
L 494 744 
Q 775 591 1075 516 
Q 1375 441 1709 441 
Q 2250 441 2565 725 
Q 2881 1009 2881 1497 
Q 2881 1984 2565 2268 
Q 2250 2553 1709 2553 
Q 1456 2553 1204 2497 
Q 953 2441 691 2322 
L 691 4666 
z
" id="DejaVuSans-35" transform="scale(0.015625)"/>
       </defs>
       <use xlink:href="#DejaVuSans-35"/>
       <use x="63.623047" xlink:href="#DejaVuSans-30"/>
      </g>
     </g>
    </g>
    <g id="xtick_7">
     <g id="line2d_7">
      <g>
       <use style="stroke:#000000;stroke-width:0.8;" x="363.498206" xlink:href="#m1ef13276a2" y="242.44"/>
      </g>
     </g>
     <g id="text_7">
      <!-- 60 -->
      <g transform="translate(357.135706 257.038437)scale(0.1 -0.1)">
       <defs>
        <path d="M 2113 2584 
Q 1688 2584 1439 2293 
Q 1191 2003 1191 1497 
Q 1191 994 1439 701 
Q 1688 409 2113 409 
Q 2538 409 2786 701 
Q 3034 994 3034 1497 
Q 3034 2003 2786 2293 
Q 2538 2584 2113 2584 
z
M 3366 4563 
L 3366 3988 
Q 3128 4100 2886 4159 
Q 2644 4219 2406 4219 
Q 1781 4219 1451 3797 
Q 1122 3375 1075 2522 
Q 1259 2794 1537 2939 
Q 1816 3084 2150 3084 
Q 2853 3084 3261 2657 
Q 3669 2231 3669 1497 
Q 3669 778 3244 343 
Q 2819 -91 2113 -91 
Q 1303 -91 875 529 
Q 447 1150 447 2328 
Q 447 3434 972 4092 
Q 1497 4750 2381 4750 
Q 2619 4750 2861 4703 
Q 3103 4656 3366 4563 
z
" id="DejaVuSans-36" transform="scale(0.015625)"/>
       </defs>
       <use xlink:href="#DejaVuSans-36"/>
       <use x="63.623047" xlink:href="#DejaVuSans-30"/>
      </g>
     </g>
    </g>
    <g id="xtick_8">
     <g id="line2d_8">
      <g>
       <use style="stroke:#000000;stroke-width:0.8;" x="415.915265" xlink:href="#m1ef13276a2" y="242.44"/>
      </g>
     </g>
     <g id="text_8">
      <!-- 70 -->
      <g transform="translate(409.552765 257.038437)scale(0.1 -0.1)">
       <defs>
        <path d="M 525 4666 
L 3525 4666 
L 3525 4397 
L 1831 0 
L 1172 0 
L 2766 4134 
L 525 4134 
L 525 4666 
z
" id="DejaVuSans-37" transform="scale(0.015625)"/>
       </defs>
       <use xlink:href="#DejaVuSans-37"/>
       <use x="63.623047" xlink:href="#DejaVuSans-30"/>
      </g>
     </g>
    </g>
    <g id="xtick_9">
     <g id="line2d_9">
      <g>
       <use style="stroke:#000000;stroke-width:0.8;" x="468.332324" xlink:href="#m1ef13276a2" y="242.44"/>
      </g>
     </g>
     <g id="text_9">
      <!-- 80 -->
      <g transform="translate(461.969824 257.038437)scale(0.1 -0.1)">
       <defs>
        <path d="M 2034 2216 
Q 1584 2216 1326 1975 
Q 1069 1734 1069 1313 
Q 1069 891 1326 650 
Q 1584 409 2034 409 
Q 2484 409 2743 651 
Q 3003 894 3003 1313 
Q 3003 1734 2745 1975 
Q 2488 2216 2034 2216 
z
M 1403 2484 
Q 997 2584 770 2862 
Q 544 3141 544 3541 
Q 544 4100 942 4425 
Q 1341 4750 2034 4750 
Q 2731 4750 3128 4425 
Q 3525 4100 3525 3541 
Q 3525 3141 3298 2862 
Q 3072 2584 2669 2484 
Q 3125 2378 3379 2068 
Q 3634 1759 3634 1313 
Q 3634 634 3220 271 
Q 2806 -91 2034 -91 
Q 1263 -91 848 271 
Q 434 634 434 1313 
Q 434 1759 690 2068 
Q 947 2378 1403 2484 
z
M 1172 3481 
Q 1172 3119 1398 2916 
Q 1625 2713 2034 2713 
Q 2441 2713 2670 2916 
Q 2900 3119 2900 3481 
Q 2900 3844 2670 4047 
Q 2441 4250 2034 4250 
Q 1625 4250 1398 4047 
Q 1172 3844 1172 3481 
z
" id="DejaVuSans-38" transform="scale(0.015625)"/>
       </defs>
       <use xlink:href="#DejaVuSans-38"/>
       <use x="63.623047" xlink:href="#DejaVuSans-30"/>
      </g>
     </g>
    </g>
    <g id="text_10">
     <!-- Number of replays per trial -->
     <g transform="translate(174.456094 273.755937)scale(0.14 -0.14)">
      <defs>
       <path d="M 628 4666 
L 1478 4666 
L 3547 763 
L 3547 4666 
L 4159 4666 
L 4159 0 
L 3309 0 
L 1241 3903 
L 1241 0 
L 628 0 
L 628 4666 
z
" id="DejaVuSans-4e" transform="scale(0.015625)"/>
       <path d="M 544 1381 
L 544 3500 
L 1119 3500 
L 1119 1403 
Q 1119 906 1312 657 
Q 1506 409 1894 409 
Q 2359 409 2629 706 
Q 2900 1003 2900 1516 
L 2900 3500 
L 3475 3500 
L 3475 0 
L 2900 0 
L 2900 538 
Q 2691 219 2414 64 
Q 2138 -91 1772 -91 
Q 1169 -91 856 284 
Q 544 659 544 1381 
z
M 1991 3584 
L 1991 3584 
z
" id="DejaVuSans-75" transform="scale(0.015625)"/>
       <path d="M 3328 2828 
Q 3544 3216 3844 3400 
Q 4144 3584 4550 3584 
Q 5097 3584 5394 3201 
Q 5691 2819 5691 2113 
L 5691 0 
L 5113 0 
L 5113 2094 
Q 5113 2597 4934 2840 
Q 4756 3084 4391 3084 
Q 3944 3084 3684 2787 
Q 3425 2491 3425 1978 
L 3425 0 
L 2847 0 
L 2847 2094 
Q 2847 2600 2669 2842 
Q 2491 3084 2119 3084 
Q 1678 3084 1418 2786 
Q 1159 2488 1159 1978 
L 1159 0 
L 581 0 
L 581 3500 
L 1159 3500 
L 1159 2956 
Q 1356 3278 1631 3431 
Q 1906 3584 2284 3584 
Q 2666 3584 2933 3390 
Q 3200 3197 3328 2828 
z
" id="DejaVuSans-6d" transform="scale(0.015625)"/>
       <path d="M 3116 1747 
Q 3116 2381 2855 2742 
Q 2594 3103 2138 3103 
Q 1681 3103 1420 2742 
Q 1159 2381 1159 1747 
Q 1159 1113 1420 752 
Q 1681 391 2138 391 
Q 2594 391 2855 752 
Q 3116 1113 3116 1747 
z
M 1159 2969 
Q 1341 3281 1617 3432 
Q 1894 3584 2278 3584 
Q 2916 3584 3314 3078 
Q 3713 2572 3713 1747 
Q 3713 922 3314 415 
Q 2916 -91 2278 -91 
Q 1894 -91 1617 61 
Q 1341 213 1159 525 
L 1159 0 
L 581 0 
L 581 4863 
L 1159 4863 
L 1159 2969 
z
" id="DejaVuSans-62" transform="scale(0.015625)"/>
       <path d="M 3597 1894 
L 3597 1613 
L 953 1613 
Q 991 1019 1311 708 
Q 1631 397 2203 397 
Q 2534 397 2845 478 
Q 3156 559 3463 722 
L 3463 178 
Q 3153 47 2828 -22 
Q 2503 -91 2169 -91 
Q 1331 -91 842 396 
Q 353 884 353 1716 
Q 353 2575 817 3079 
Q 1281 3584 2069 3584 
Q 2775 3584 3186 3129 
Q 3597 2675 3597 1894 
z
M 3022 2063 
Q 3016 2534 2758 2815 
Q 2500 3097 2075 3097 
Q 1594 3097 1305 2825 
Q 1016 2553 972 2059 
L 3022 2063 
z
" id="DejaVuSans-65" transform="scale(0.015625)"/>
       <path d="M 2631 2963 
Q 2534 3019 2420 3045 
Q 2306 3072 2169 3072 
Q 1681 3072 1420 2755 
Q 1159 2438 1159 1844 
L 1159 0 
L 581 0 
L 581 3500 
L 1159 3500 
L 1159 2956 
Q 1341 3275 1631 3429 
Q 1922 3584 2338 3584 
Q 2397 3584 2469 3576 
Q 2541 3569 2628 3553 
L 2631 2963 
z
" id="DejaVuSans-72" transform="scale(0.015625)"/>
       <path id="DejaVuSans-20" transform="scale(0.015625)"/>
       <path d="M 1959 3097 
Q 1497 3097 1228 2736 
Q 959 2375 959 1747 
Q 959 1119 1226 758 
Q 1494 397 1959 397 
Q 2419 397 2687 759 
Q 2956 1122 2956 1747 
Q 2956 2369 2687 2733 
Q 2419 3097 1959 3097 
z
M 1959 3584 
Q 2709 3584 3137 3096 
Q 3566 2609 3566 1747 
Q 3566 888 3137 398 
Q 2709 -91 1959 -91 
Q 1206 -91 779 398 
Q 353 888 353 1747 
Q 353 2609 779 3096 
Q 1206 3584 1959 3584 
z
" id="DejaVuSans-6f" transform="scale(0.015625)"/>
       <path d="M 2375 4863 
L 2375 4384 
L 1825 4384 
Q 1516 4384 1395 4259 
Q 1275 4134 1275 3809 
L 1275 3500 
L 2222 3500 
L 2222 3053 
L 1275 3053 
L 1275 0 
L 697 0 
L 697 3053 
L 147 3053 
L 147 3500 
L 697 3500 
L 697 3744 
Q 697 4328 969 4595 
Q 1241 4863 1831 4863 
L 2375 4863 
z
" id="DejaVuSans-66" transform="scale(0.015625)"/>
       <path d="M 1159 525 
L 1159 -1331 
L 581 -1331 
L 581 3500 
L 1159 3500 
L 1159 2969 
Q 1341 3281 1617 3432 
Q 1894 3584 2278 3584 
Q 2916 3584 3314 3078 
Q 3713 2572 3713 1747 
Q 3713 922 3314 415 
Q 2916 -91 2278 -91 
Q 1894 -91 1617 61 
Q 1341 213 1159 525 
z
M 3116 1747 
Q 3116 2381 2855 2742 
Q 2594 3103 2138 3103 
Q 1681 3103 1420 2742 
Q 1159 2381 1159 1747 
Q 1159 1113 1420 752 
Q 1681 391 2138 391 
Q 2594 391 2855 752 
Q 3116 1113 3116 1747 
z
" id="DejaVuSans-70" transform="scale(0.015625)"/>
       <path d="M 603 4863 
L 1178 4863 
L 1178 0 
L 603 0 
L 603 4863 
z
" id="DejaVuSans-6c" transform="scale(0.015625)"/>
       <path d="M 2194 1759 
Q 1497 1759 1228 1600 
Q 959 1441 959 1056 
Q 959 750 1161 570 
Q 1363 391 1709 391 
Q 2188 391 2477 730 
Q 2766 1069 2766 1631 
L 2766 1759 
L 2194 1759 
z
M 3341 1997 
L 3341 0 
L 2766 0 
L 2766 531 
Q 2569 213 2275 61 
Q 1981 -91 1556 -91 
Q 1019 -91 701 211 
Q 384 513 384 1019 
Q 384 1609 779 1909 
Q 1175 2209 1959 2209 
L 2766 2209 
L 2766 2266 
Q 2766 2663 2505 2880 
Q 2244 3097 1772 3097 
Q 1472 3097 1187 3025 
Q 903 2953 641 2809 
L 641 3341 
Q 956 3463 1253 3523 
Q 1550 3584 1831 3584 
Q 2591 3584 2966 3190 
Q 3341 2797 3341 1997 
z
" id="DejaVuSans-61" transform="scale(0.015625)"/>
       <path d="M 2059 -325 
Q 1816 -950 1584 -1140 
Q 1353 -1331 966 -1331 
L 506 -1331 
L 506 -850 
L 844 -850 
Q 1081 -850 1212 -737 
Q 1344 -625 1503 -206 
L 1606 56 
L 191 3500 
L 800 3500 
L 1894 763 
L 2988 3500 
L 3597 3500 
L 2059 -325 
z
" id="DejaVuSans-79" transform="scale(0.015625)"/>
       <path d="M 2834 3397 
L 2834 2853 
Q 2591 2978 2328 3040 
Q 2066 3103 1784 3103 
Q 1356 3103 1142 2972 
Q 928 2841 928 2578 
Q 928 2378 1081 2264 
Q 1234 2150 1697 2047 
L 1894 2003 
Q 2506 1872 2764 1633 
Q 3022 1394 3022 966 
Q 3022 478 2636 193 
Q 2250 -91 1575 -91 
Q 1294 -91 989 -36 
Q 684 19 347 128 
L 347 722 
Q 666 556 975 473 
Q 1284 391 1588 391 
Q 1994 391 2212 530 
Q 2431 669 2431 922 
Q 2431 1156 2273 1281 
Q 2116 1406 1581 1522 
L 1381 1569 
Q 847 1681 609 1914 
Q 372 2147 372 2553 
Q 372 3047 722 3315 
Q 1072 3584 1716 3584 
Q 2034 3584 2315 3537 
Q 2597 3491 2834 3397 
z
" id="DejaVuSans-73" transform="scale(0.015625)"/>
       <path d="M 1172 4494 
L 1172 3500 
L 2356 3500 
L 2356 3053 
L 1172 3053 
L 1172 1153 
Q 1172 725 1289 603 
Q 1406 481 1766 481 
L 2356 481 
L 2356 0 
L 1766 0 
Q 1100 0 847 248 
Q 594 497 594 1153 
L 594 3053 
L 172 3053 
L 172 3500 
L 594 3500 
L 594 4494 
L 1172 4494 
z
" id="DejaVuSans-74" transform="scale(0.015625)"/>
       <path d="M 603 3500 
L 1178 3500 
L 1178 0 
L 603 0 
L 603 3500 
z
M 603 4863 
L 1178 4863 
L 1178 4134 
L 603 4134 
L 603 4863 
z
" id="DejaVuSans-69" transform="scale(0.015625)"/>
      </defs>
      <use xlink:href="#DejaVuSans-4e"/>
      <use x="74.804688" xlink:href="#DejaVuSans-75"/>
      <use x="138.183594" xlink:href="#DejaVuSans-6d"/>
      <use x="235.595703" xlink:href="#DejaVuSans-62"/>
      <use x="299.072266" xlink:href="#DejaVuSans-65"/>
      <use x="360.595703" xlink:href="#DejaVuSans-72"/>
      <use x="401.708984" xlink:href="#DejaVuSans-20"/>
      <use x="433.496094" xlink:href="#DejaVuSans-6f"/>
      <use x="494.677734" xlink:href="#DejaVuSans-66"/>
      <use x="529.882812" xlink:href="#DejaVuSans-20"/>
      <use x="561.669922" xlink:href="#DejaVuSans-72"/>
      <use x="600.533203" xlink:href="#DejaVuSans-65"/>
      <use x="662.056641" xlink:href="#DejaVuSans-70"/>
      <use x="725.533203" xlink:href="#DejaVuSans-6c"/>
      <use x="753.316406" xlink:href="#DejaVuSans-61"/>
      <use x="814.595703" xlink:href="#DejaVuSans-79"/>
      <use x="873.775391" xlink:href="#DejaVuSans-73"/>
      <use x="925.875" xlink:href="#DejaVuSans-20"/>
      <use x="957.662109" xlink:href="#DejaVuSans-70"/>
      <use x="1021.138672" xlink:href="#DejaVuSans-65"/>
      <use x="1082.662109" xlink:href="#DejaVuSans-72"/>
      <use x="1123.775391" xlink:href="#DejaVuSans-20"/>
      <use x="1155.5625" xlink:href="#DejaVuSans-74"/>
      <use x="1194.771484" xlink:href="#DejaVuSans-72"/>
      <use x="1235.884766" xlink:href="#DejaVuSans-69"/>
      <use x="1263.667969" xlink:href="#DejaVuSans-61"/>
      <use x="1324.947266" xlink:href="#DejaVuSans-6c"/>
     </g>
    </g>
   </g>
   <g id="matplotlib.axis_2">
    <g id="ytick_1">
     <g id="line2d_10">
      <defs>
       <path d="M 0 0 
L -3.5 0 
" id="me2c97d2b5a" style="stroke:#000000;stroke-width:0.8;"/>
      </defs>
      <g>
       <use style="stroke:#000000;stroke-width:0.8;" x="46.375" xlink:href="#me2c97d2b5a" y="242.44"/>
      </g>
     </g>
     <g id="text_11">
      <!-- 0.000 -->
      <g transform="translate(10.746875 246.239219)scale(0.1 -0.1)">
       <defs>
        <path d="M 684 794 
L 1344 794 
L 1344 0 
L 684 0 
L 684 794 
z
" id="DejaVuSans-2e" transform="scale(0.015625)"/>
       </defs>
       <use xlink:href="#DejaVuSans-30"/>
       <use x="63.623047" xlink:href="#DejaVuSans-2e"/>
       <use x="95.410156" xlink:href="#DejaVuSans-30"/>
       <use x="159.033203" xlink:href="#DejaVuSans-30"/>
       <use x="222.65625" xlink:href="#DejaVuSans-30"/>
      </g>
     </g>
    </g>
    <g id="ytick_2">
     <g id="line2d_11">
      <g>
       <use style="stroke:#000000;stroke-width:0.8;" x="46.375" xlink:href="#me2c97d2b5a" y="214.86381"/>
      </g>
     </g>
     <g id="text_12">
      <!-- 0.025 -->
      <g transform="translate(10.746875 218.663028)scale(0.1 -0.1)">
       <use xlink:href="#DejaVuSans-30"/>
       <use x="63.623047" xlink:href="#DejaVuSans-2e"/>
       <use x="95.410156" xlink:href="#DejaVuSans-30"/>
       <use x="159.033203" xlink:href="#DejaVuSans-32"/>
       <use x="222.65625" xlink:href="#DejaVuSans-35"/>
      </g>
     </g>
    </g>
    <g id="ytick_3">
     <g id="line2d_12">
      <g>
       <use style="stroke:#000000;stroke-width:0.8;" x="46.375" xlink:href="#me2c97d2b5a" y="187.287619"/>
      </g>
     </g>
     <g id="text_13">
      <!-- 0.050 -->
      <g transform="translate(10.746875 191.086838)scale(0.1 -0.1)">
       <use xlink:href="#DejaVuSans-30"/>
       <use x="63.623047" xlink:href="#DejaVuSans-2e"/>
       <use x="95.410156" xlink:href="#DejaVuSans-30"/>
       <use x="159.033203" xlink:href="#DejaVuSans-35"/>
       <use x="222.65625" xlink:href="#DejaVuSans-30"/>
      </g>
     </g>
    </g>
    <g id="ytick_4">
     <g id="line2d_13">
      <g>
       <use style="stroke:#000000;stroke-width:0.8;" x="46.375" xlink:href="#me2c97d2b5a" y="159.711429"/>
      </g>
     </g>
     <g id="text_14">
      <!-- 0.075 -->
      <g transform="translate(10.746875 163.510647)scale(0.1 -0.1)">
       <use xlink:href="#DejaVuSans-30"/>
       <use x="63.623047" xlink:href="#DejaVuSans-2e"/>
       <use x="95.410156" xlink:href="#DejaVuSans-30"/>
       <use x="159.033203" xlink:href="#DejaVuSans-37"/>
       <use x="222.65625" xlink:href="#DejaVuSans-35"/>
      </g>
     </g>
    </g>
    <g id="ytick_5">
     <g id="line2d_14">
      <g>
       <use style="stroke:#000000;stroke-width:0.8;" x="46.375" xlink:href="#me2c97d2b5a" y="132.135238"/>
      </g>
     </g>
     <g id="text_15">
      <!-- 0.100 -->
      <g transform="translate(10.746875 135.934457)scale(0.1 -0.1)">
       <use xlink:href="#DejaVuSans-30"/>
       <use x="63.623047" xlink:href="#DejaVuSans-2e"/>
       <use x="95.410156" xlink:href="#DejaVuSans-31"/>
       <use x="159.033203" xlink:href="#DejaVuSans-30"/>
       <use x="222.65625" xlink:href="#DejaVuSans-30"/>
      </g>
     </g>
    </g>
    <g id="ytick_6">
     <g id="line2d_15">
      <g>
       <use style="stroke:#000000;stroke-width:0.8;" x="46.375" xlink:href="#me2c97d2b5a" y="104.559048"/>
      </g>
     </g>
     <g id="text_16">
      <!-- 0.125 -->
      <g transform="translate(10.746875 108.358266)scale(0.1 -0.1)">
       <use xlink:href="#DejaVuSans-30"/>
       <use x="63.623047" xlink:href="#DejaVuSans-2e"/>
       <use x="95.410156" xlink:href="#DejaVuSans-31"/>
       <use x="159.033203" xlink:href="#DejaVuSans-32"/>
       <use x="222.65625" xlink:href="#DejaVuSans-35"/>
      </g>
     </g>
    </g>
    <g id="ytick_7">
     <g id="line2d_16">
      <g>
       <use style="stroke:#000000;stroke-width:0.8;" x="46.375" xlink:href="#me2c97d2b5a" y="76.982857"/>
      </g>
     </g>
     <g id="text_17">
      <!-- 0.150 -->
      <g transform="translate(10.746875 80.782076)scale(0.1 -0.1)">
       <use xlink:href="#DejaVuSans-30"/>
       <use x="63.623047" xlink:href="#DejaVuSans-2e"/>
       <use x="95.410156" xlink:href="#DejaVuSans-31"/>
       <use x="159.033203" xlink:href="#DejaVuSans-35"/>
       <use x="222.65625" xlink:href="#DejaVuSans-30"/>
      </g>
     </g>
    </g>
    <g id="ytick_8">
     <g id="line2d_17">
      <g>
       <use style="stroke:#000000;stroke-width:0.8;" x="46.375" xlink:href="#me2c97d2b5a" y="49.406667"/>
      </g>
     </g>
     <g id="text_18">
      <!-- 0.175 -->
      <g transform="translate(10.746875 53.205885)scale(0.1 -0.1)">
       <use xlink:href="#DejaVuSans-30"/>
       <use x="63.623047" xlink:href="#DejaVuSans-2e"/>
       <use x="95.410156" xlink:href="#DejaVuSans-31"/>
       <use x="159.033203" xlink:href="#DejaVuSans-37"/>
       <use x="222.65625" xlink:href="#DejaVuSans-35"/>
      </g>
     </g>
    </g>
    <g id="ytick_9">
     <g id="line2d_18">
      <g>
       <use style="stroke:#000000;stroke-width:0.8;" x="46.375" xlink:href="#me2c97d2b5a" y="21.830476"/>
      </g>
     </g>
     <g id="text_19">
      <!-- 0.200 -->
      <g transform="translate(10.746875 25.629695)scale(0.1 -0.1)">
       <use xlink:href="#DejaVuSans-30"/>
       <use x="63.623047" xlink:href="#DejaVuSans-2e"/>
       <use x="95.410156" xlink:href="#DejaVuSans-32"/>
       <use x="159.033203" xlink:href="#DejaVuSans-30"/>
       <use x="222.65625" xlink:href="#DejaVuSans-30"/>
      </g>
     </g>
    </g>
   </g>
   <g id="patch_130">
    <path d="M 46.375 242.44 
L 46.375 10.8 
" style="fill:none;stroke:#000000;stroke-linecap:square;stroke-linejoin:miter;stroke-width:0.8;"/>
   </g>
   <g id="patch_131">
    <path d="M 491.92 242.44 
L 491.92 10.8 
" style="fill:none;stroke:#000000;stroke-linecap:square;stroke-linejoin:miter;stroke-width:0.8;"/>
   </g>
   <g id="patch_132">
    <path d="M 46.375 242.44 
L 491.92 242.44 
" style="fill:none;stroke:#000000;stroke-linecap:square;stroke-linejoin:miter;stroke-width:0.8;"/>
   </g>
   <g id="patch_133">
    <path d="M 46.375 10.8 
L 491.92 10.8 
" style="fill:none;stroke:#000000;stroke-linecap:square;stroke-linejoin:miter;stroke-width:0.8;"/>
   </g>
  </g>
  <g id="axes_2">
   <g id="patch_134">
    <path d="M 551.655 242.44 
L 997.2 242.44 
L 997.2 10.8 
L 551.655 10.8 
z
" style="fill:none;"/>
   </g>
   <g id="patch_135">
    <path clip-path="url(#p64271d66e6)" d="M 551.655 126.62 
L 563.079231 126.62 
L 563.079231 126.62 
L 551.655 126.62 
z
" style="fill:#0000ff;"/>
   </g>
   <g id="patch_136">
    <path clip-path="url(#p64271d66e6)" d="M 563.079231 126.62 
L 574.503462 126.62 
L 574.503462 126.539082 
L 563.079231 126.539082 
z
" style="fill:#0000ff;"/>
   </g>
   <g id="patch_137">
    <path clip-path="url(#p64271d66e6)" d="M 574.503462 126.62 
L 585.927692 126.62 
L 585.927692 125.163473 
L 574.503462 125.163473 
z
" style="fill:#0000ff;"/>
   </g>
   <g id="patch_138">
    <path clip-path="url(#p64271d66e6)" d="M 585.927692 126.62 
L 597.351923 126.62 
L 597.351923 123.023636 
L 585.927692 123.023636 
z
" style="fill:#0000ff;"/>
   </g>
   <g id="patch_139">
    <path clip-path="url(#p64271d66e6)" d="M 597.351923 126.62 
L 608.776154 126.62 
L 608.776154 121.782891 
L 597.351923 121.782891 
z
" style="fill:#0000ff;"/>
   </g>
   <g id="patch_140">
    <path clip-path="url(#p64271d66e6)" d="M 608.776154 126.62 
L 620.200385 126.62 
L 620.200385 118.483227 
L 608.776154 118.483227 
z
" style="fill:#0000ff;"/>
   </g>
   <g id="patch_141">
    <path clip-path="url(#p64271d66e6)" d="M 620.200385 126.62 
L 631.624615 126.62 
L 631.624615 115.390354 
L 620.200385 115.390354 
z
" style="fill:#0000ff;"/>
   </g>
   <g id="patch_142">
    <path clip-path="url(#p64271d66e6)" d="M 631.624615 126.62 
L 643.048846 126.62 
L 643.048846 115.74999 
L 631.624615 115.74999 
z
" style="fill:#0000ff;"/>
   </g>
   <g id="patch_143">
    <path clip-path="url(#p64271d66e6)" d="M 643.048846 126.62 
L 654.473077 126.62 
L 654.473077 112.495281 
L 643.048846 112.495281 
z
" style="fill:#0000ff;"/>
   </g>
   <g id="patch_144">
    <path clip-path="url(#p64271d66e6)" d="M 654.473077 126.62 
L 665.897308 126.62 
L 665.897308 114.95879 
L 654.473077 114.95879 
z
" style="fill:#0000ff;"/>
   </g>
   <g id="patch_145">
    <path clip-path="url(#p64271d66e6)" d="M 665.897308 126.62 
L 677.321538 126.62 
L 677.321538 118.258454 
L 665.897308 118.258454 
z
" style="fill:#0000ff;"/>
   </g>
   <g id="patch_146">
    <path clip-path="url(#p64271d66e6)" d="M 677.321538 126.62 
L 688.745769 126.62 
L 688.745769 119.040663 
L 677.321538 119.040663 
z
" style="fill:#0000ff;"/>
   </g>
   <g id="patch_147">
    <path clip-path="url(#p64271d66e6)" d="M 688.745769 126.62 
L 700.17 126.62 
L 700.17 119.885809 
L 688.745769 119.885809 
z
" style="fill:#0000ff;"/>
   </g>
   <g id="patch_148">
    <path clip-path="url(#p64271d66e6)" d="M 700.17 126.62 
L 711.594231 126.62 
L 711.594231 121.531145 
L 700.17 121.531145 
z
" style="fill:#0000ff;"/>
   </g>
   <g id="patch_149">
    <path clip-path="url(#p64271d66e6)" d="M 711.594231 126.62 
L 723.018462 126.62 
L 723.018462 120.1915 
L 711.594231 120.1915 
z
" style="fill:#0000ff;"/>
   </g>
   <g id="patch_150">
    <path clip-path="url(#p64271d66e6)" d="M 723.018462 126.62 
L 734.442692 126.62 
L 734.442692 118.770936 
L 723.018462 118.770936 
z
" style="fill:#0000ff;"/>
   </g>
   <g id="patch_151">
    <path clip-path="url(#p64271d66e6)" d="M 734.442692 126.62 
L 745.866923 126.62 
L 745.866923 115.705036 
L 734.442692 115.705036 
z
" style="fill:#0000ff;"/>
   </g>
   <g id="patch_152">
    <path clip-path="url(#p64271d66e6)" d="M 745.866923 126.62 
L 757.291154 126.62 
L 757.291154 111.901881 
L 745.866923 111.901881 
z
" style="fill:#0000ff;"/>
   </g>
   <g id="patch_153">
    <path clip-path="url(#p64271d66e6)" d="M 757.291154 126.62 
L 768.715385 126.62 
L 768.715385 107.94588 
L 757.291154 107.94588 
z
" style="fill:#0000ff;"/>
   </g>
   <g id="patch_154">
    <path clip-path="url(#p64271d66e6)" d="M 768.715385 126.62 
L 780.139615 126.62 
L 780.139615 107.882944 
L 768.715385 107.882944 
z
" style="fill:#0000ff;"/>
   </g>
   <g id="patch_155">
    <path clip-path="url(#p64271d66e6)" d="M 780.139615 126.62 
L 791.563846 126.62 
L 791.563846 36.88173 
L 780.139615 36.88173 
z
" style="fill:#0000ff;"/>
   </g>
   <g id="patch_156">
    <path clip-path="url(#p64271d66e6)" d="M 791.563846 126.62 
L 802.988077 126.62 
L 802.988077 126.62 
L 791.563846 126.62 
z
" style="fill:#0000ff;"/>
   </g>
   <g id="patch_157">
    <path clip-path="url(#p64271d66e6)" d="M 802.988077 126.62 
L 814.412308 126.62 
L 814.412308 126.62 
L 802.988077 126.62 
z
" style="fill:#0000ff;"/>
   </g>
   <g id="patch_158">
    <path clip-path="url(#p64271d66e6)" d="M 814.412308 126.62 
L 825.836538 126.62 
L 825.836538 126.62 
L 814.412308 126.62 
z
" style="fill:#0000ff;"/>
   </g>
   <g id="patch_159">
    <path clip-path="url(#p64271d66e6)" d="M 825.836538 126.62 
L 837.260769 126.62 
L 837.260769 126.62 
L 825.836538 126.62 
z
" style="fill:#0000ff;"/>
   </g>
   <g id="patch_160">
    <path clip-path="url(#p64271d66e6)" d="M 837.260769 126.62 
L 848.685 126.62 
L 848.685 126.62 
L 837.260769 126.62 
z
" style="fill:#0000ff;"/>
   </g>
   <g id="patch_161">
    <path clip-path="url(#p64271d66e6)" d="M 848.685 126.62 
L 860.109231 126.62 
L 860.109231 126.62 
L 848.685 126.62 
z
" style="fill:#0000ff;"/>
   </g>
   <g id="patch_162">
    <path clip-path="url(#p64271d66e6)" d="M 860.109231 126.62 
L 871.533462 126.62 
L 871.533462 126.62 
L 860.109231 126.62 
z
" style="fill:#0000ff;"/>
   </g>
   <g id="patch_163">
    <path clip-path="url(#p64271d66e6)" d="M 871.533462 126.62 
L 882.957692 126.62 
L 882.957692 126.62 
L 871.533462 126.62 
z
" style="fill:#0000ff;"/>
   </g>
   <g id="patch_164">
    <path clip-path="url(#p64271d66e6)" d="M 882.957692 126.62 
L 894.381923 126.62 
L 894.381923 126.62 
L 882.957692 126.62 
z
" style="fill:#0000ff;"/>
   </g>
   <g id="patch_165">
    <path clip-path="url(#p64271d66e6)" d="M 894.381923 126.62 
L 905.806154 126.62 
L 905.806154 126.62 
L 894.381923 126.62 
z
" style="fill:#0000ff;"/>
   </g>
   <g id="patch_166">
    <path clip-path="url(#p64271d66e6)" d="M 905.806154 126.62 
L 917.230385 126.62 
L 917.230385 126.62 
L 905.806154 126.62 
z
" style="fill:#0000ff;"/>
   </g>
   <g id="patch_167">
    <path clip-path="url(#p64271d66e6)" d="M 917.230385 126.62 
L 928.654615 126.62 
L 928.654615 126.62 
L 917.230385 126.62 
z
" style="fill:#0000ff;"/>
   </g>
   <g id="patch_168">
    <path clip-path="url(#p64271d66e6)" d="M 928.654615 126.62 
L 940.078846 126.62 
L 940.078846 126.62 
L 928.654615 126.62 
z
" style="fill:#0000ff;"/>
   </g>
   <g id="patch_169">
    <path clip-path="url(#p64271d66e6)" d="M 940.078846 126.62 
L 951.503077 126.62 
L 951.503077 126.62 
L 940.078846 126.62 
z
" style="fill:#0000ff;"/>
   </g>
   <g id="patch_170">
    <path clip-path="url(#p64271d66e6)" d="M 951.503077 126.62 
L 962.927308 126.62 
L 962.927308 126.62 
L 951.503077 126.62 
z
" style="fill:#0000ff;"/>
   </g>
   <g id="patch_171">
    <path clip-path="url(#p64271d66e6)" d="M 962.927308 126.62 
L 974.351538 126.62 
L 974.351538 126.62 
L 962.927308 126.62 
z
" style="fill:#0000ff;"/>
   </g>
   <g id="patch_172">
    <path clip-path="url(#p64271d66e6)" d="M 974.351538 126.62 
L 985.775769 126.62 
L 985.775769 126.62 
L 974.351538 126.62 
z
" style="fill:#0000ff;"/>
   </g>
   <g id="patch_173">
    <path clip-path="url(#p64271d66e6)" d="M 985.775769 126.62 
L 997.2 126.62 
L 997.2 126.62 
L 985.775769 126.62 
z
" style="fill:#0000ff;"/>
   </g>
   <g id="patch_174">
    <path clip-path="url(#p64271d66e6)" d="M 551.655 126.62 
L 563.079231 126.62 
L 563.079231 126.62 
L 551.655 126.62 
z
" style="fill:#ffa500;opacity:0.8;"/>
   </g>
   <g id="patch_175">
    <path clip-path="url(#p64271d66e6)" d="M 563.079231 126.62 
L 574.503462 126.62 
L 574.503462 126.36558 
L 563.079231 126.36558 
z
" style="fill:#ffa500;opacity:0.8;"/>
   </g>
   <g id="patch_176">
    <path clip-path="url(#p64271d66e6)" d="M 574.503462 126.62 
L 585.927692 126.62 
L 585.927692 123.530609 
L 574.503462 123.530609 
z
" style="fill:#ffa500;opacity:0.8;"/>
   </g>
   <g id="patch_177">
    <path clip-path="url(#p64271d66e6)" d="M 585.927692 126.62 
L 597.351923 126.62 
L 597.351923 121.249911 
L 585.927692 121.249911 
z
" style="fill:#ffa500;opacity:0.8;"/>
   </g>
   <g id="patch_178">
    <path clip-path="url(#p64271d66e6)" d="M 597.351923 126.62 
L 608.776154 126.62 
L 608.776154 117.651679 
L 597.351923 117.651679 
z
" style="fill:#ffa500;opacity:0.8;"/>
   </g>
   <g id="patch_179">
    <path clip-path="url(#p64271d66e6)" d="M 608.776154 126.62 
L 620.200385 126.62 
L 620.200385 107.81106 
L 608.776154 107.81106 
z
" style="fill:#ffa500;opacity:0.8;"/>
   </g>
   <g id="patch_180">
    <path clip-path="url(#p64271d66e6)" d="M 620.200385 126.62 
L 631.624615 126.62 
L 631.624615 113.135717 
L 620.200385 113.135717 
z
" style="fill:#ffa500;opacity:0.8;"/>
   </g>
   <g id="patch_181">
    <path clip-path="url(#p64271d66e6)" d="M 631.624615 126.62 
L 643.048846 126.62 
L 643.048846 113.417396 
L 631.624615 113.417396 
z
" style="fill:#ffa500;opacity:0.8;"/>
   </g>
   <g id="patch_182">
    <path clip-path="url(#p64271d66e6)" d="M 643.048846 126.62 
L 654.473077 126.62 
L 654.473077 110.646031 
L 643.048846 110.646031 
z
" style="fill:#ffa500;opacity:0.8;"/>
   </g>
   <g id="patch_183">
    <path clip-path="url(#p64271d66e6)" d="M 654.473077 126.62 
L 665.897308 126.62 
L 665.897308 110.964056 
L 654.473077 110.964056 
z
" style="fill:#ffa500;opacity:0.8;"/>
   </g>
   <g id="patch_184">
    <path clip-path="url(#p64271d66e6)" d="M 665.897308 126.62 
L 677.321538 126.62 
L 677.321538 113.517347 
L 665.897308 113.517347 
z
" style="fill:#ffa500;opacity:0.8;"/>
   </g>
   <g id="patch_185">
    <path clip-path="url(#p64271d66e6)" d="M 677.321538 126.62 
L 688.745769 126.62 
L 688.745769 118.678448 
L 677.321538 118.678448 
z
" style="fill:#ffa500;opacity:0.8;"/>
   </g>
   <g id="patch_186">
    <path clip-path="url(#p64271d66e6)" d="M 688.745769 126.62 
L 700.17 126.62 
L 700.17 117.49721 
L 688.745769 117.49721 
z
" style="fill:#ffa500;opacity:0.8;"/>
   </g>
   <g id="patch_187">
    <path clip-path="url(#p64271d66e6)" d="M 700.17 126.62 
L 711.594231 126.62 
L 711.594231 120.822848 
L 700.17 120.822848 
z
" style="fill:#ffa500;opacity:0.8;"/>
   </g>
   <g id="patch_188">
    <path clip-path="url(#p64271d66e6)" d="M 711.594231 126.62 
L 723.018462 126.62 
L 723.018462 120.668379 
L 711.594231 120.668379 
z
" style="fill:#ffa500;opacity:0.8;"/>
   </g>
   <g id="patch_189">
    <path clip-path="url(#p64271d66e6)" d="M 723.018462 126.62 
L 734.442692 126.62 
L 734.442692 119.750648 
L 723.018462 119.750648 
z
" style="fill:#ffa500;opacity:0.8;"/>
   </g>
   <g id="patch_190">
    <path clip-path="url(#p64271d66e6)" d="M 734.442692 126.62 
L 745.866923 126.62 
L 745.866923 116.070638 
L 734.442692 116.070638 
z
" style="fill:#ffa500;opacity:0.8;"/>
   </g>
   <g id="patch_191">
    <path clip-path="url(#p64271d66e6)" d="M 745.866923 126.62 
L 757.291154 126.62 
L 757.291154 114.880314 
L 745.866923 114.880314 
z
" style="fill:#ffa500;opacity:0.8;"/>
   </g>
   <g id="patch_192">
    <path clip-path="url(#p64271d66e6)" d="M 757.291154 126.62 
L 768.715385 126.62 
L 768.715385 114.162485 
L 757.291154 114.162485 
z
" style="fill:#ffa500;opacity:0.8;"/>
   </g>
   <g id="patch_193">
    <path clip-path="url(#p64271d66e6)" d="M 768.715385 126.62 
L 780.139615 126.62 
L 780.139615 113.235667 
L 768.715385 113.235667 
z
" style="fill:#ffa500;opacity:0.8;"/>
   </g>
   <g id="patch_194">
    <path clip-path="url(#p64271d66e6)" d="M 780.139615 126.62 
L 791.563846 126.62 
L 791.563846 57.526677 
L 780.139615 57.526677 
z
" style="fill:#ffa500;opacity:0.8;"/>
   </g>
   <g id="patch_195">
    <path clip-path="url(#p64271d66e6)" d="M 791.563846 126.62 
L 802.988077 126.62 
L 802.988077 126.62 
L 791.563846 126.62 
z
" style="fill:#ffa500;opacity:0.8;"/>
   </g>
   <g id="patch_196">
    <path clip-path="url(#p64271d66e6)" d="M 802.988077 126.62 
L 814.412308 126.62 
L 814.412308 126.62 
L 802.988077 126.62 
z
" style="fill:#ffa500;opacity:0.8;"/>
   </g>
   <g id="patch_197">
    <path clip-path="url(#p64271d66e6)" d="M 814.412308 126.62 
L 825.836538 126.62 
L 825.836538 126.62 
L 814.412308 126.62 
z
" style="fill:#ffa500;opacity:0.8;"/>
   </g>
   <g id="patch_198">
    <path clip-path="url(#p64271d66e6)" d="M 825.836538 126.62 
L 837.260769 126.62 
L 837.260769 126.62 
L 825.836538 126.62 
z
" style="fill:#ffa500;opacity:0.8;"/>
   </g>
   <g id="patch_199">
    <path clip-path="url(#p64271d66e6)" d="M 837.260769 126.62 
L 848.685 126.62 
L 848.685 126.62 
L 837.260769 126.62 
z
" style="fill:#ffa500;opacity:0.8;"/>
   </g>
   <g id="patch_200">
    <path clip-path="url(#p64271d66e6)" d="M 848.685 126.62 
L 860.109231 126.62 
L 860.109231 126.62 
L 848.685 126.62 
z
" style="fill:#ffa500;opacity:0.8;"/>
   </g>
   <g id="patch_201">
    <path clip-path="url(#p64271d66e6)" d="M 860.109231 126.62 
L 871.533462 126.62 
L 871.533462 126.62 
L 860.109231 126.62 
z
" style="fill:#ffa500;opacity:0.8;"/>
   </g>
   <g id="patch_202">
    <path clip-path="url(#p64271d66e6)" d="M 871.533462 126.62 
L 882.957692 126.62 
L 882.957692 126.62 
L 871.533462 126.62 
z
" style="fill:#ffa500;opacity:0.8;"/>
   </g>
   <g id="patch_203">
    <path clip-path="url(#p64271d66e6)" d="M 882.957692 126.62 
L 894.381923 126.62 
L 894.381923 126.62 
L 882.957692 126.62 
z
" style="fill:#ffa500;opacity:0.8;"/>
   </g>
   <g id="patch_204">
    <path clip-path="url(#p64271d66e6)" d="M 894.381923 126.62 
L 905.806154 126.62 
L 905.806154 126.62 
L 894.381923 126.62 
z
" style="fill:#ffa500;opacity:0.8;"/>
   </g>
   <g id="patch_205">
    <path clip-path="url(#p64271d66e6)" d="M 905.806154 126.62 
L 917.230385 126.62 
L 917.230385 126.62 
L 905.806154 126.62 
z
" style="fill:#ffa500;opacity:0.8;"/>
   </g>
   <g id="patch_206">
    <path clip-path="url(#p64271d66e6)" d="M 917.230385 126.62 
L 928.654615 126.62 
L 928.654615 126.62 
L 917.230385 126.62 
z
" style="fill:#ffa500;opacity:0.8;"/>
   </g>
   <g id="patch_207">
    <path clip-path="url(#p64271d66e6)" d="M 928.654615 126.62 
L 940.078846 126.62 
L 940.078846 126.62 
L 928.654615 126.62 
z
" style="fill:#ffa500;opacity:0.8;"/>
   </g>
   <g id="patch_208">
    <path clip-path="url(#p64271d66e6)" d="M 940.078846 126.62 
L 951.503077 126.62 
L 951.503077 126.62 
L 940.078846 126.62 
z
" style="fill:#ffa500;opacity:0.8;"/>
   </g>
   <g id="patch_209">
    <path clip-path="url(#p64271d66e6)" d="M 951.503077 126.62 
L 962.927308 126.62 
L 962.927308 126.62 
L 951.503077 126.62 
z
" style="fill:#ffa500;opacity:0.8;"/>
   </g>
   <g id="patch_210">
    <path clip-path="url(#p64271d66e6)" d="M 962.927308 126.62 
L 974.351538 126.62 
L 974.351538 126.62 
L 962.927308 126.62 
z
" style="fill:#ffa500;opacity:0.8;"/>
   </g>
   <g id="patch_211">
    <path clip-path="url(#p64271d66e6)" d="M 974.351538 126.62 
L 985.775769 126.62 
L 985.775769 126.62 
L 974.351538 126.62 
z
" style="fill:#ffa500;opacity:0.8;"/>
   </g>
   <g id="patch_212">
    <path clip-path="url(#p64271d66e6)" d="M 985.775769 126.62 
L 997.2 126.62 
L 997.2 126.62 
L 985.775769 126.62 
z
" style="fill:#ffa500;opacity:0.8;"/>
   </g>
   <g id="patch_213">
    <path clip-path="url(#p64271d66e6)" d="M 551.655 126.62 
L 563.079231 126.62 
L 563.079231 126.62 
L 551.655 126.62 
z
" style="fill:#0000ff;"/>
   </g>
   <g id="patch_214">
    <path clip-path="url(#p64271d66e6)" d="M 563.079231 126.62 
L 574.503462 126.62 
L 574.503462 126.62 
L 563.079231 126.62 
z
" style="fill:#0000ff;"/>
   </g>
   <g id="patch_215">
    <path clip-path="url(#p64271d66e6)" d="M 574.503462 126.62 
L 585.927692 126.62 
L 585.927692 126.62 
L 574.503462 126.62 
z
" style="fill:#0000ff;"/>
   </g>
   <g id="patch_216">
    <path clip-path="url(#p64271d66e6)" d="M 585.927692 126.62 
L 597.351923 126.62 
L 597.351923 126.636248 
L 585.927692 126.636248 
z
" style="fill:#0000ff;"/>
   </g>
   <g id="patch_217">
    <path clip-path="url(#p64271d66e6)" d="M 597.351923 126.62 
L 608.776154 126.62 
L 608.776154 126.886472 
L 597.351923 126.886472 
z
" style="fill:#0000ff;"/>
   </g>
   <g id="patch_218">
    <path clip-path="url(#p64271d66e6)" d="M 608.776154 126.62 
L 620.200385 126.62 
L 620.200385 126.90597 
L 608.776154 126.90597 
z
" style="fill:#0000ff;"/>
   </g>
   <g id="patch_219">
    <path clip-path="url(#p64271d66e6)" d="M 620.200385 126.62 
L 631.624615 126.62 
L 631.624615 127.513655 
L 620.200385 127.513655 
z
" style="fill:#0000ff;"/>
   </g>
   <g id="patch_220">
    <path clip-path="url(#p64271d66e6)" d="M 631.624615 126.62 
L 643.048846 126.62 
L 643.048846 127.490908 
L 631.624615 127.490908 
z
" style="fill:#0000ff;"/>
   </g>
   <g id="patch_221">
    <path clip-path="url(#p64271d66e6)" d="M 643.048846 126.62 
L 654.473077 126.62 
L 654.473077 127.435663 
L 643.048846 127.435663 
z
" style="fill:#0000ff;"/>
   </g>
   <g id="patch_222">
    <path clip-path="url(#p64271d66e6)" d="M 654.473077 126.62 
L 665.897308 126.62 
L 665.897308 127.698885 
L 654.473077 127.698885 
z
" style="fill:#0000ff;"/>
   </g>
   <g id="patch_223">
    <path clip-path="url(#p64271d66e6)" d="M 665.897308 126.62 
L 677.321538 126.62 
L 677.321538 127.741131 
L 665.897308 127.741131 
z
" style="fill:#0000ff;"/>
   </g>
   <g id="patch_224">
    <path clip-path="url(#p64271d66e6)" d="M 677.321538 126.62 
L 688.745769 126.62 
L 688.745769 128.345567 
L 677.321538 128.345567 
z
" style="fill:#0000ff;"/>
   </g>
   <g id="patch_225">
    <path clip-path="url(#p64271d66e6)" d="M 688.745769 126.62 
L 700.17 126.62 
L 700.17 128.885009 
L 688.745769 128.885009 
z
" style="fill:#0000ff;"/>
   </g>
   <g id="patch_226">
    <path clip-path="url(#p64271d66e6)" d="M 700.17 126.62 
L 711.594231 126.62 
L 711.594231 130.659321 
L 700.17 130.659321 
z
" style="fill:#0000ff;"/>
   </g>
   <g id="patch_227">
    <path clip-path="url(#p64271d66e6)" d="M 711.594231 126.62 
L 723.018462 126.62 
L 723.018462 131.081776 
L 711.594231 131.081776 
z
" style="fill:#0000ff;"/>
   </g>
   <g id="patch_228">
    <path clip-path="url(#p64271d66e6)" d="M 723.018462 126.62 
L 734.442692 126.62 
L 734.442692 132.040424 
L 723.018462 132.040424 
z
" style="fill:#0000ff;"/>
   </g>
   <g id="patch_229">
    <path clip-path="url(#p64271d66e6)" d="M 734.442692 126.62 
L 745.866923 126.62 
L 745.866923 131.829197 
L 734.442692 131.829197 
z
" style="fill:#0000ff;"/>
   </g>
   <g id="patch_230">
    <path clip-path="url(#p64271d66e6)" d="M 745.866923 126.62 
L 757.291154 126.62 
L 757.291154 132.2679 
L 745.866923 132.2679 
z
" style="fill:#0000ff;"/>
   </g>
   <g id="patch_231">
    <path clip-path="url(#p64271d66e6)" d="M 757.291154 126.62 
L 768.715385 126.62 
L 768.715385 131.718708 
L 757.291154 131.718708 
z
" style="fill:#0000ff;"/>
   </g>
   <g id="patch_232">
    <path clip-path="url(#p64271d66e6)" d="M 768.715385 126.62 
L 780.139615 126.62 
L 780.139615 131.695961 
L 768.715385 131.695961 
z
" style="fill:#0000ff;"/>
   </g>
   <g id="patch_233">
    <path clip-path="url(#p64271d66e6)" d="M 780.139615 126.62 
L 791.563846 126.62 
L 791.563846 130.782808 
L 780.139615 130.782808 
z
" style="fill:#0000ff;"/>
   </g>
   <g id="patch_234">
    <path clip-path="url(#p64271d66e6)" d="M 791.563846 126.62 
L 802.988077 126.62 
L 802.988077 130.682069 
L 791.563846 130.682069 
z
" style="fill:#0000ff;"/>
   </g>
   <g id="patch_235">
    <path clip-path="url(#p64271d66e6)" d="M 802.988077 126.62 
L 814.412308 126.62 
L 814.412308 130.558582 
L 802.988077 130.558582 
z
" style="fill:#0000ff;"/>
   </g>
   <g id="patch_236">
    <path clip-path="url(#p64271d66e6)" d="M 814.412308 126.62 
L 825.836538 126.62 
L 825.836538 131.23451 
L 814.412308 131.23451 
z
" style="fill:#0000ff;"/>
   </g>
   <g id="patch_237">
    <path clip-path="url(#p64271d66e6)" d="M 825.836538 126.62 
L 837.260769 126.62 
L 837.260769 131.176016 
L 825.836538 131.176016 
z
" style="fill:#0000ff;"/>
   </g>
   <g id="patch_238">
    <path clip-path="url(#p64271d66e6)" d="M 837.260769 126.62 
L 848.685 126.62 
L 848.685 131.189015 
L 837.260769 131.189015 
z
" style="fill:#0000ff;"/>
   </g>
   <g id="patch_239">
    <path clip-path="url(#p64271d66e6)" d="M 848.685 126.62 
L 860.109231 126.62 
L 860.109231 132.352391 
L 848.685 132.352391 
z
" style="fill:#0000ff;"/>
   </g>
   <g id="patch_240">
    <path clip-path="url(#p64271d66e6)" d="M 860.109231 126.62 
L 871.533462 126.62 
L 871.533462 132.108667 
L 860.109231 132.108667 
z
" style="fill:#0000ff;"/>
   </g>
   <g id="patch_241">
    <path clip-path="url(#p64271d66e6)" d="M 871.533462 126.62 
L 882.957692 126.62 
L 882.957692 132.55062 
L 871.533462 132.55062 
z
" style="fill:#0000ff;"/>
   </g>
   <g id="patch_242">
    <path clip-path="url(#p64271d66e6)" d="M 882.957692 126.62 
L 894.381923 126.62 
L 894.381923 132.329644 
L 882.957692 132.329644 
z
" style="fill:#0000ff;"/>
   </g>
   <g id="patch_243">
    <path clip-path="url(#p64271d66e6)" d="M 894.381923 126.62 
L 905.806154 126.62 
L 905.806154 131.978681 
L 894.381923 131.978681 
z
" style="fill:#0000ff;"/>
   </g>
   <g id="patch_244">
    <path clip-path="url(#p64271d66e6)" d="M 905.806154 126.62 
L 917.230385 126.62 
L 917.230385 132.206157 
L 905.806154 132.206157 
z
" style="fill:#0000ff;"/>
   </g>
   <g id="patch_245">
    <path clip-path="url(#p64271d66e6)" d="M 917.230385 126.62 
L 928.654615 126.62 
L 928.654615 133.886228 
L 917.230385 133.886228 
z
" style="fill:#0000ff;"/>
   </g>
   <g id="patch_246">
    <path clip-path="url(#p64271d66e6)" d="M 928.654615 126.62 
L 940.078846 126.62 
L 940.078846 136.115492 
L 928.654615 136.115492 
z
" style="fill:#0000ff;"/>
   </g>
   <g id="patch_247">
    <path clip-path="url(#p64271d66e6)" d="M 940.078846 126.62 
L 951.503077 126.62 
L 951.503077 138.461742 
L 940.078846 138.461742 
z
" style="fill:#0000ff;"/>
   </g>
   <g id="patch_248">
    <path clip-path="url(#p64271d66e6)" d="M 951.503077 126.62 
L 962.927308 126.62 
L 962.927308 145.331513 
L 951.503077 145.331513 
z
" style="fill:#0000ff;"/>
   </g>
   <g id="patch_249">
    <path clip-path="url(#p64271d66e6)" d="M 962.927308 126.62 
L 974.351538 126.62 
L 974.351538 154.882248 
L 962.927308 154.882248 
z
" style="fill:#0000ff;"/>
   </g>
   <g id="patch_250">
    <path clip-path="url(#p64271d66e6)" d="M 974.351538 126.62 
L 985.775769 126.62 
L 985.775769 151.268632 
L 974.351538 151.268632 
z
" style="fill:#0000ff;"/>
   </g>
   <g id="patch_251">
    <path clip-path="url(#p64271d66e6)" d="M 985.775769 126.62 
L 997.2 126.62 
L 997.2 183.20949 
L 985.775769 183.20949 
z
" style="fill:#0000ff;"/>
   </g>
   <g id="patch_252">
    <path clip-path="url(#p64271d66e6)" d="M 551.655 126.62 
L 563.079231 126.62 
L 563.079231 126.62 
L 551.655 126.62 
z
" style="fill:#ffa500;opacity:0.8;"/>
   </g>
   <g id="patch_253">
    <path clip-path="url(#p64271d66e6)" d="M 563.079231 126.62 
L 574.503462 126.62 
L 574.503462 126.62 
L 563.079231 126.62 
z
" style="fill:#ffa500;opacity:0.8;"/>
   </g>
   <g id="patch_254">
    <path clip-path="url(#p64271d66e6)" d="M 574.503462 126.62 
L 585.927692 126.62 
L 585.927692 126.62 
L 574.503462 126.62 
z
" style="fill:#ffa500;opacity:0.8;"/>
   </g>
   <g id="patch_255">
    <path clip-path="url(#p64271d66e6)" d="M 585.927692 126.62 
L 597.351923 126.62 
L 597.351923 126.632545 
L 585.927692 126.632545 
z
" style="fill:#ffa500;opacity:0.8;"/>
   </g>
   <g id="patch_256">
    <path clip-path="url(#p64271d66e6)" d="M 597.351923 126.62 
L 608.776154 126.62 
L 608.776154 128.802782 
L 597.351923 128.802782 
z
" style="fill:#ffa500;opacity:0.8;"/>
   </g>
   <g id="patch_257">
    <path clip-path="url(#p64271d66e6)" d="M 608.776154 126.62 
L 620.200385 126.62 
L 620.200385 128.150456 
L 608.776154 128.150456 
z
" style="fill:#ffa500;opacity:0.8;"/>
   </g>
   <g id="patch_258">
    <path clip-path="url(#p64271d66e6)" d="M 620.200385 126.62 
L 631.624615 126.62 
L 631.624615 129.492741 
L 620.200385 129.492741 
z
" style="fill:#ffa500;opacity:0.8;"/>
   </g>
   <g id="patch_259">
    <path clip-path="url(#p64271d66e6)" d="M 631.624615 126.62 
L 643.048846 126.62 
L 643.048846 130.797392 
L 631.624615 130.797392 
z
" style="fill:#ffa500;opacity:0.8;"/>
   </g>
   <g id="patch_260">
    <path clip-path="url(#p64271d66e6)" d="M 643.048846 126.62 
L 654.473077 126.62 
L 654.473077 128.953318 
L 643.048846 128.953318 
z
" style="fill:#ffa500;opacity:0.8;"/>
   </g>
   <g id="patch_261">
    <path clip-path="url(#p64271d66e6)" d="M 654.473077 126.62 
L 665.897308 126.62 
L 665.897308 130.521408 
L 654.473077 130.521408 
z
" style="fill:#ffa500;opacity:0.8;"/>
   </g>
   <g id="patch_262">
    <path clip-path="url(#p64271d66e6)" d="M 665.897308 126.62 
L 677.321538 126.62 
L 677.321538 130.6594 
L 665.897308 130.6594 
z
" style="fill:#ffa500;opacity:0.8;"/>
   </g>
   <g id="patch_263">
    <path clip-path="url(#p64271d66e6)" d="M 677.321538 126.62 
L 688.745769 126.62 
L 688.745769 133.293792 
L 677.321538 133.293792 
z
" style="fill:#ffa500;opacity:0.8;"/>
   </g>
   <g id="patch_264">
    <path clip-path="url(#p64271d66e6)" d="M 688.745769 126.62 
L 700.17 126.62 
L 700.17 135.84037 
L 688.745769 135.84037 
z
" style="fill:#ffa500;opacity:0.8;"/>
   </g>
   <g id="patch_265">
    <path clip-path="url(#p64271d66e6)" d="M 700.17 126.62 
L 711.594231 126.62 
L 711.594231 134.385182 
L 700.17 134.385182 
z
" style="fill:#ffa500;opacity:0.8;"/>
   </g>
   <g id="patch_266">
    <path clip-path="url(#p64271d66e6)" d="M 711.594231 126.62 
L 723.018462 126.62 
L 723.018462 141.096608 
L 711.594231 141.096608 
z
" style="fill:#ffa500;opacity:0.8;"/>
   </g>
   <g id="patch_267">
    <path clip-path="url(#p64271d66e6)" d="M 723.018462 126.62 
L 734.442692 126.62 
L 734.442692 137.985517 
L 723.018462 137.985517 
z
" style="fill:#ffa500;opacity:0.8;"/>
   </g>
   <g id="patch_268">
    <path clip-path="url(#p64271d66e6)" d="M 734.442692 126.62 
L 745.866923 126.62 
L 745.866923 140.419193 
L 734.442692 140.419193 
z
" style="fill:#ffa500;opacity:0.8;"/>
   </g>
   <g id="patch_269">
    <path clip-path="url(#p64271d66e6)" d="M 745.866923 126.62 
L 757.291154 126.62 
L 757.291154 138.085875 
L 745.866923 138.085875 
z
" style="fill:#ffa500;opacity:0.8;"/>
   </g>
   <g id="patch_270">
    <path clip-path="url(#p64271d66e6)" d="M 757.291154 126.62 
L 768.715385 126.62 
L 768.715385 134.93715 
L 757.291154 134.93715 
z
" style="fill:#ffa500;opacity:0.8;"/>
   </g>
   <g id="patch_271">
    <path clip-path="url(#p64271d66e6)" d="M 768.715385 126.62 
L 780.139615 126.62 
L 780.139615 133.419239 
L 768.715385 133.419239 
z
" style="fill:#ffa500;opacity:0.8;"/>
   </g>
   <g id="patch_272">
    <path clip-path="url(#p64271d66e6)" d="M 780.139615 126.62 
L 791.563846 126.62 
L 791.563846 131.424628 
L 780.139615 131.424628 
z
" style="fill:#ffa500;opacity:0.8;"/>
   </g>
   <g id="patch_273">
    <path clip-path="url(#p64271d66e6)" d="M 791.563846 126.62 
L 802.988077 126.62 
L 802.988077 131.211368 
L 791.563846 131.211368 
z
" style="fill:#ffa500;opacity:0.8;"/>
   </g>
   <g id="patch_274">
    <path clip-path="url(#p64271d66e6)" d="M 802.988077 126.62 
L 814.412308 126.62 
L 814.412308 134.849337 
L 802.988077 134.849337 
z
" style="fill:#ffa500;opacity:0.8;"/>
   </g>
   <g id="patch_275">
    <path clip-path="url(#p64271d66e6)" d="M 814.412308 126.62 
L 825.836538 126.62 
L 825.836538 131.612799 
L 814.412308 131.612799 
z
" style="fill:#ffa500;opacity:0.8;"/>
   </g>
   <g id="patch_276">
    <path clip-path="url(#p64271d66e6)" d="M 825.836538 126.62 
L 837.260769 126.62 
L 837.260769 130.295603 
L 825.836538 130.295603 
z
" style="fill:#ffa500;opacity:0.8;"/>
   </g>
   <g id="patch_277">
    <path clip-path="url(#p64271d66e6)" d="M 837.260769 126.62 
L 848.685 126.62 
L 848.685 131.085921 
L 837.260769 131.085921 
z
" style="fill:#ffa500;opacity:0.8;"/>
   </g>
   <g id="patch_278">
    <path clip-path="url(#p64271d66e6)" d="M 848.685 126.62 
L 860.109231 126.62 
L 860.109231 130.145067 
L 848.685 130.145067 
z
" style="fill:#ffa500;opacity:0.8;"/>
   </g>
   <g id="patch_279">
    <path clip-path="url(#p64271d66e6)" d="M 860.109231 126.62 
L 871.533462 126.62 
L 871.533462 129.266936 
L 860.109231 129.266936 
z
" style="fill:#ffa500;opacity:0.8;"/>
   </g>
   <g id="patch_280">
    <path clip-path="url(#p64271d66e6)" d="M 871.533462 126.62 
L 882.957692 126.62 
L 882.957692 130.270514 
L 871.533462 130.270514 
z
" style="fill:#ffa500;opacity:0.8;"/>
   </g>
   <g id="patch_281">
    <path clip-path="url(#p64271d66e6)" d="M 882.957692 126.62 
L 894.381923 126.62 
L 894.381923 130.44614 
L 882.957692 130.44614 
z
" style="fill:#ffa500;opacity:0.8;"/>
   </g>
   <g id="patch_282">
    <path clip-path="url(#p64271d66e6)" d="M 894.381923 126.62 
L 905.806154 126.62 
L 905.806154 130.860116 
L 894.381923 130.860116 
z
" style="fill:#ffa500;opacity:0.8;"/>
   </g>
   <g id="patch_283">
    <path clip-path="url(#p64271d66e6)" d="M 905.806154 126.62 
L 917.230385 126.62 
L 917.230385 133.82067 
L 905.806154 133.82067 
z
" style="fill:#ffa500;opacity:0.8;"/>
   </g>
   <g id="patch_284">
    <path clip-path="url(#p64271d66e6)" d="M 917.230385 126.62 
L 928.654615 126.62 
L 928.654615 135.576931 
L 917.230385 135.576931 
z
" style="fill:#ffa500;opacity:0.8;"/>
   </g>
   <g id="patch_285">
    <path clip-path="url(#p64271d66e6)" d="M 928.654615 126.62 
L 940.078846 126.62 
L 940.078846 133.105621 
L 928.654615 133.105621 
z
" style="fill:#ffa500;opacity:0.8;"/>
   </g>
   <g id="patch_286">
    <path clip-path="url(#p64271d66e6)" d="M 940.078846 126.62 
L 951.503077 126.62 
L 951.503077 135.024963 
L 940.078846 135.024963 
z
" style="fill:#ffa500;opacity:0.8;"/>
   </g>
   <g id="patch_287">
    <path clip-path="url(#p64271d66e6)" d="M 951.503077 126.62 
L 962.927308 126.62 
L 962.927308 135.978362 
L 951.503077 135.978362 
z
" style="fill:#ffa500;opacity:0.8;"/>
   </g>
   <g id="patch_288">
    <path clip-path="url(#p64271d66e6)" d="M 962.927308 126.62 
L 974.351538 126.62 
L 974.351538 139.942494 
L 962.927308 139.942494 
z
" style="fill:#ffa500;opacity:0.8;"/>
   </g>
   <g id="patch_289">
    <path clip-path="url(#p64271d66e6)" d="M 974.351538 126.62 
L 985.775769 126.62 
L 985.775769 138.286591 
L 974.351538 138.286591 
z
" style="fill:#ffa500;opacity:0.8;"/>
   </g>
   <g id="patch_290">
    <path clip-path="url(#p64271d66e6)" d="M 985.775769 126.62 
L 997.2 126.62 
L 997.2 162.460269 
L 985.775769 162.460269 
z
" style="fill:#ffa500;opacity:0.8;"/>
   </g>
   <g id="matplotlib.axis_3">
    <g id="xtick_10">
     <g id="line2d_19">
      <g>
       <use style="stroke:#000000;stroke-width:0.8;" x="557.367115" xlink:href="#m1ef13276a2" y="242.44"/>
      </g>
     </g>
     <g id="text_20">
      <!-- 0 -->
      <g transform="translate(554.185865 257.038437)scale(0.1 -0.1)">
       <use xlink:href="#DejaVuSans-30"/>
      </g>
     </g>
    </g>
    <g id="xtick_11">
     <g id="line2d_20">
      <g>
       <use style="stroke:#000000;stroke-width:0.8;" x="639.993001" xlink:href="#m1ef13276a2" y="242.44"/>
      </g>
     </g>
     <g id="text_21">
      <!-- 1 -->
      <g transform="translate(636.811751 257.038437)scale(0.1 -0.1)">
       <use xlink:href="#DejaVuSans-31"/>
      </g>
     </g>
    </g>
    <g id="xtick_12">
     <g id="line2d_21">
      <g>
       <use style="stroke:#000000;stroke-width:0.8;" x="722.618886" xlink:href="#m1ef13276a2" y="242.44"/>
      </g>
     </g>
     <g id="text_22">
      <!-- 2 -->
      <g transform="translate(719.437636 257.038437)scale(0.1 -0.1)">
       <use xlink:href="#DejaVuSans-32"/>
      </g>
     </g>
    </g>
    <g id="xtick_13">
     <g id="line2d_22">
      <g>
       <use style="stroke:#000000;stroke-width:0.8;" x="805.244771" xlink:href="#m1ef13276a2" y="242.44"/>
      </g>
     </g>
     <g id="text_23">
      <!-- 3 -->
      <g transform="translate(802.063521 257.038437)scale(0.1 -0.1)">
       <use xlink:href="#DejaVuSans-33"/>
      </g>
     </g>
    </g>
    <g id="xtick_14">
     <g id="line2d_23">
      <g>
       <use style="stroke:#000000;stroke-width:0.8;" x="887.870656" xlink:href="#m1ef13276a2" y="242.44"/>
      </g>
     </g>
     <g id="text_24">
      <!-- 4 -->
      <g transform="translate(884.689406 257.038437)scale(0.1 -0.1)">
       <use xlink:href="#DejaVuSans-34"/>
      </g>
     </g>
    </g>
    <g id="xtick_15">
     <g id="line2d_24">
      <g>
       <use style="stroke:#000000;stroke-width:0.8;" x="970.496541" xlink:href="#m1ef13276a2" y="242.44"/>
      </g>
     </g>
     <g id="text_25">
      <!-- 5 -->
      <g transform="translate(967.315291 257.038437)scale(0.1 -0.1)">
       <use xlink:href="#DejaVuSans-35"/>
      </g>
     </g>
    </g>
    <g id="text_26">
     <!-- Action entropy -->
     <g transform="translate(723.201719 273.755937)scale(0.14 -0.14)">
      <defs>
       <path d="M 2188 4044 
L 1331 1722 
L 3047 1722 
L 2188 4044 
z
M 1831 4666 
L 2547 4666 
L 4325 0 
L 3669 0 
L 3244 1197 
L 1141 1197 
L 716 0 
L 50 0 
L 1831 4666 
z
" id="DejaVuSans-41" transform="scale(0.015625)"/>
       <path d="M 3122 3366 
L 3122 2828 
Q 2878 2963 2633 3030 
Q 2388 3097 2138 3097 
Q 1578 3097 1268 2742 
Q 959 2388 959 1747 
Q 959 1106 1268 751 
Q 1578 397 2138 397 
Q 2388 397 2633 464 
Q 2878 531 3122 666 
L 3122 134 
Q 2881 22 2623 -34 
Q 2366 -91 2075 -91 
Q 1284 -91 818 406 
Q 353 903 353 1747 
Q 353 2603 823 3093 
Q 1294 3584 2113 3584 
Q 2378 3584 2631 3529 
Q 2884 3475 3122 3366 
z
" id="DejaVuSans-63" transform="scale(0.015625)"/>
       <path d="M 3513 2113 
L 3513 0 
L 2938 0 
L 2938 2094 
Q 2938 2591 2744 2837 
Q 2550 3084 2163 3084 
Q 1697 3084 1428 2787 
Q 1159 2491 1159 1978 
L 1159 0 
L 581 0 
L 581 3500 
L 1159 3500 
L 1159 2956 
Q 1366 3272 1645 3428 
Q 1925 3584 2291 3584 
Q 2894 3584 3203 3211 
Q 3513 2838 3513 2113 
z
" id="DejaVuSans-6e" transform="scale(0.015625)"/>
      </defs>
      <use xlink:href="#DejaVuSans-41"/>
      <use x="66.658203" xlink:href="#DejaVuSans-63"/>
      <use x="121.638672" xlink:href="#DejaVuSans-74"/>
      <use x="160.847656" xlink:href="#DejaVuSans-69"/>
      <use x="188.630859" xlink:href="#DejaVuSans-6f"/>
      <use x="249.8125" xlink:href="#DejaVuSans-6e"/>
      <use x="313.191406" xlink:href="#DejaVuSans-20"/>
      <use x="344.978516" xlink:href="#DejaVuSans-65"/>
      <use x="406.501953" xlink:href="#DejaVuSans-6e"/>
      <use x="469.880859" xlink:href="#DejaVuSans-74"/>
      <use x="509.089844" xlink:href="#DejaVuSans-72"/>
      <use x="547.953125" xlink:href="#DejaVuSans-6f"/>
      <use x="609.134766" xlink:href="#DejaVuSans-70"/>
      <use x="672.611328" xlink:href="#DejaVuSans-79"/>
     </g>
    </g>
   </g>
   <g id="matplotlib.axis_4">
    <g id="ytick_10">
     <g id="line2d_25">
      <g>
       <use style="stroke:#000000;stroke-width:0.8;" x="551.655" xlink:href="#me2c97d2b5a" y="230.94692"/>
      </g>
     </g>
     <g id="text_27">
      <!-- 0.4 -->
      <g transform="translate(520.372187 234.746139)scale(0.1 -0.1)">
       <defs>
        <path d="M 678 2272 
L 4684 2272 
L 4684 1741 
L 678 1741 
L 678 2272 
z
" id="DejaVuSans-2212" transform="scale(0.015625)"/>
       </defs>
       <use xlink:href="#DejaVuSans-2212"/>
       <use x="83.789062" xlink:href="#DejaVuSans-30"/>
       <use x="147.412109" xlink:href="#DejaVuSans-2e"/>
       <use x="179.199219" xlink:href="#DejaVuSans-34"/>
      </g>
     </g>
    </g>
    <g id="ytick_11">
     <g id="line2d_26">
      <g>
       <use style="stroke:#000000;stroke-width:0.8;" x="551.655" xlink:href="#me2c97d2b5a" y="204.86519"/>
      </g>
     </g>
     <g id="text_28">
      <!-- 0.3 -->
      <g transform="translate(520.372187 208.664409)scale(0.1 -0.1)">
       <use xlink:href="#DejaVuSans-2212"/>
       <use x="83.789062" xlink:href="#DejaVuSans-30"/>
       <use x="147.412109" xlink:href="#DejaVuSans-2e"/>
       <use x="179.199219" xlink:href="#DejaVuSans-33"/>
      </g>
     </g>
    </g>
    <g id="ytick_12">
     <g id="line2d_27">
      <g>
       <use style="stroke:#000000;stroke-width:0.8;" x="551.655" xlink:href="#me2c97d2b5a" y="178.78346"/>
      </g>
     </g>
     <g id="text_29">
      <!-- 0.2 -->
      <g transform="translate(520.372187 182.582679)scale(0.1 -0.1)">
       <use xlink:href="#DejaVuSans-2212"/>
       <use x="83.789062" xlink:href="#DejaVuSans-30"/>
       <use x="147.412109" xlink:href="#DejaVuSans-2e"/>
       <use x="179.199219" xlink:href="#DejaVuSans-32"/>
      </g>
     </g>
    </g>
    <g id="ytick_13">
     <g id="line2d_28">
      <g>
       <use style="stroke:#000000;stroke-width:0.8;" x="551.655" xlink:href="#me2c97d2b5a" y="152.70173"/>
      </g>
     </g>
     <g id="text_30">
      <!-- 0.1 -->
      <g transform="translate(520.372187 156.500949)scale(0.1 -0.1)">
       <use xlink:href="#DejaVuSans-2212"/>
       <use x="83.789062" xlink:href="#DejaVuSans-30"/>
       <use x="147.412109" xlink:href="#DejaVuSans-2e"/>
       <use x="179.199219" xlink:href="#DejaVuSans-31"/>
      </g>
     </g>
    </g>
    <g id="ytick_14">
     <g id="line2d_29">
      <g>
       <use style="stroke:#000000;stroke-width:0.8;" x="551.655" xlink:href="#me2c97d2b5a" y="126.62"/>
      </g>
     </g>
     <g id="text_31">
      <!-- 0.0 -->
      <g transform="translate(528.751875 130.419219)scale(0.1 -0.1)">
       <use xlink:href="#DejaVuSans-30"/>
       <use x="63.623047" xlink:href="#DejaVuSans-2e"/>
       <use x="95.410156" xlink:href="#DejaVuSans-30"/>
      </g>
     </g>
    </g>
    <g id="ytick_15">
     <g id="line2d_30">
      <g>
       <use style="stroke:#000000;stroke-width:0.8;" x="551.655" xlink:href="#me2c97d2b5a" y="100.53827"/>
      </g>
     </g>
     <g id="text_32">
      <!-- 0.1 -->
      <g transform="translate(528.751875 104.337489)scale(0.1 -0.1)">
       <use xlink:href="#DejaVuSans-30"/>
       <use x="63.623047" xlink:href="#DejaVuSans-2e"/>
       <use x="95.410156" xlink:href="#DejaVuSans-31"/>
      </g>
     </g>
    </g>
    <g id="ytick_16">
     <g id="line2d_31">
      <g>
       <use style="stroke:#000000;stroke-width:0.8;" x="551.655" xlink:href="#me2c97d2b5a" y="74.45654"/>
      </g>
     </g>
     <g id="text_33">
      <!-- 0.2 -->
      <g transform="translate(528.751875 78.255759)scale(0.1 -0.1)">
       <use xlink:href="#DejaVuSans-30"/>
       <use x="63.623047" xlink:href="#DejaVuSans-2e"/>
       <use x="95.410156" xlink:href="#DejaVuSans-32"/>
      </g>
     </g>
    </g>
    <g id="ytick_17">
     <g id="line2d_32">
      <g>
       <use style="stroke:#000000;stroke-width:0.8;" x="551.655" xlink:href="#me2c97d2b5a" y="48.37481"/>
      </g>
     </g>
     <g id="text_34">
      <!-- 0.3 -->
      <g transform="translate(528.751875 52.174029)scale(0.1 -0.1)">
       <use xlink:href="#DejaVuSans-30"/>
       <use x="63.623047" xlink:href="#DejaVuSans-2e"/>
       <use x="95.410156" xlink:href="#DejaVuSans-33"/>
      </g>
     </g>
    </g>
    <g id="ytick_18">
     <g id="line2d_33">
      <g>
       <use style="stroke:#000000;stroke-width:0.8;" x="551.655" xlink:href="#me2c97d2b5a" y="22.29308"/>
      </g>
     </g>
     <g id="text_35">
      <!-- 0.4 -->
      <g transform="translate(528.751875 26.092299)scale(0.1 -0.1)">
       <use xlink:href="#DejaVuSans-30"/>
       <use x="63.623047" xlink:href="#DejaVuSans-2e"/>
       <use x="95.410156" xlink:href="#DejaVuSans-34"/>
      </g>
     </g>
    </g>
    <g id="text_36">
     <!-- Proportion of replays -->
     <g transform="translate(513.460625 199.426563)rotate(-90)scale(0.14 -0.14)">
      <defs>
       <path d="M 1259 4147 
L 1259 2394 
L 2053 2394 
Q 2494 2394 2734 2622 
Q 2975 2850 2975 3272 
Q 2975 3691 2734 3919 
Q 2494 4147 2053 4147 
L 1259 4147 
z
M 628 4666 
L 2053 4666 
Q 2838 4666 3239 4311 
Q 3641 3956 3641 3272 
Q 3641 2581 3239 2228 
Q 2838 1875 2053 1875 
L 1259 1875 
L 1259 0 
L 628 0 
L 628 4666 
z
" id="DejaVuSans-50" transform="scale(0.015625)"/>
      </defs>
      <use xlink:href="#DejaVuSans-50"/>
      <use x="58.552734" xlink:href="#DejaVuSans-72"/>
      <use x="97.416016" xlink:href="#DejaVuSans-6f"/>
      <use x="158.597656" xlink:href="#DejaVuSans-70"/>
      <use x="222.074219" xlink:href="#DejaVuSans-6f"/>
      <use x="283.255859" xlink:href="#DejaVuSans-72"/>
      <use x="324.369141" xlink:href="#DejaVuSans-74"/>
      <use x="363.578125" xlink:href="#DejaVuSans-69"/>
      <use x="391.361328" xlink:href="#DejaVuSans-6f"/>
      <use x="452.542969" xlink:href="#DejaVuSans-6e"/>
      <use x="515.921875" xlink:href="#DejaVuSans-20"/>
      <use x="547.708984" xlink:href="#DejaVuSans-6f"/>
      <use x="608.890625" xlink:href="#DejaVuSans-66"/>
      <use x="644.095703" xlink:href="#DejaVuSans-20"/>
      <use x="675.882812" xlink:href="#DejaVuSans-72"/>
      <use x="714.746094" xlink:href="#DejaVuSans-65"/>
      <use x="776.269531" xlink:href="#DejaVuSans-70"/>
      <use x="839.746094" xlink:href="#DejaVuSans-6c"/>
      <use x="867.529297" xlink:href="#DejaVuSans-61"/>
      <use x="928.808594" xlink:href="#DejaVuSans-79"/>
      <use x="987.988281" xlink:href="#DejaVuSans-73"/>
     </g>
    </g>
   </g>
   <g id="line2d_34">
    <path clip-path="url(#p64271d66e6)" d="M 551.655 126.62 
L 997.2 126.62 
" style="fill:none;stroke:#000000;stroke-linecap:square;stroke-width:1.5;"/>
   </g>
   <g id="patch_291">
    <path d="M 551.655 242.44 
L 551.655 10.8 
" style="fill:none;stroke:#000000;stroke-linecap:square;stroke-linejoin:miter;stroke-width:0.8;"/>
   </g>
   <g id="patch_292">
    <path d="M 997.2 242.44 
L 997.2 10.8 
" style="fill:none;stroke:#000000;stroke-linecap:square;stroke-linejoin:miter;stroke-width:0.8;"/>
   </g>
   <g id="patch_293">
    <path d="M 551.655 242.44 
L 997.2 242.44 
" style="fill:none;stroke:#000000;stroke-linecap:square;stroke-linejoin:miter;stroke-width:0.8;"/>
   </g>
   <g id="patch_294">
    <path d="M 551.655 10.8 
L 997.2 10.8 
" style="fill:none;stroke:#000000;stroke-linecap:square;stroke-linejoin:miter;stroke-width:0.8;"/>
   </g>
  </g>
 </g>
 <defs>
  <clipPath id="pe936913c20">
   <rect height="231.64" width="445.545" x="46.375" y="10.8"/>
  </clipPath>
  <clipPath id="p64271d66e6">
   <rect height="231.64" width="445.545" x="551.655" y="10.8"/>
  </clipPath>
 </defs>
</svg>
