<?xml version="1.0" encoding="utf-8" standalone="no"?>
<!DOCTYPE svg PUBLIC "-//W3C//DTD SVG 1.1//EN"
  "http://www.w3.org/Graphics/SVG/1.1/DTD/svg11.dtd">
<svg height="288pt" version="1.1" viewBox="0 0 1008 288" width="1008pt" xmlns="http://www.w3.org/2000/svg" xmlns:xlink="http://www.w3.org/1999/xlink">
 <metadata>
  <rdf:RDF xmlns:cc="http://creativecommons.org/ns#" xmlns:dc="http://purl.org/dc/elements/1.1/" xmlns:rdf="http://www.w3.org/1999/02/22-rdf-syntax-ns#">
   <cc:Work>
    <dc:type rdf:resource="http://purl.org/dc/dcmitype/StillImage"/>
    <dc:date>2021-09-07T18:51:00.790427</dc:date>
    <dc:format>image/svg+xml</dc:format>
    <dc:creator>
     <cc:Agent>
      <dc:title>Matplotlib v3.4.2, https://matplotlib.org/</dc:title>
     </cc:Agent>
    </dc:creator>
   </cc:Work>
  </rdf:RDF>
 </metadata>
 <defs>
  <style type="text/css">*{stroke-linecap:butt;stroke-linejoin:round;}</style>
 </defs>
 <g id="figure_1">
  <g id="patch_1">
   <path d="M 0 288 
L 1008 288 
L 1008 0 
L 0 0 
z
" style="fill:none;"/>
  </g>
  <g id="axes_1">
   <g id="patch_2">
    <path d="M 33.8 242.2 
L 491.225 242.2 
L 491.225 27.8 
L 33.8 27.8 
z
" style="fill:none;"/>
   </g>
   <g id="patch_3">
    <path clip-path="url(#p93e428499d)" d="M 33.8 242.2 
L 52.470408 242.2 
L 52.470408 218.168811 
L 33.8 218.168811 
z
" style="fill:#0000ff;"/>
   </g>
   <g id="patch_4">
    <path clip-path="url(#p93e428499d)" d="M 52.470408 242.2 
L 71.140816 242.2 
L 71.140816 231.751657 
L 52.470408 231.751657 
z
" style="fill:#0000ff;"/>
   </g>
   <g id="patch_5">
    <path clip-path="url(#p93e428499d)" d="M 71.140816 242.2 
L 89.811224 242.2 
L 89.811224 226.527485 
L 71.140816 226.527485 
z
" style="fill:#0000ff;"/>
   </g>
   <g id="patch_6">
    <path clip-path="url(#p93e428499d)" d="M 89.811224 242.2 
L 108.481633 242.2 
L 108.481633 208.765302 
L 89.811224 208.765302 
z
" style="fill:#0000ff;"/>
   </g>
   <g id="patch_7">
    <path clip-path="url(#p93e428499d)" d="M 108.481633 242.2 
L 127.152041 242.2 
L 127.152041 216.079142 
L 108.481633 216.079142 
z
" style="fill:#0000ff;"/>
   </g>
   <g id="patch_8">
    <path clip-path="url(#p93e428499d)" d="M 127.152041 242.2 
L 145.822449 242.2 
L 145.822449 210.854971 
L 127.152041 210.854971 
z
" style="fill:#0000ff;"/>
   </g>
   <g id="patch_9">
    <path clip-path="url(#p93e428499d)" d="M 145.822449 242.2 
L 164.492857 242.2 
L 164.492857 215.034308 
L 145.822449 215.034308 
z
" style="fill:#0000ff;"/>
   </g>
   <g id="patch_10">
    <path clip-path="url(#p93e428499d)" d="M 164.492857 242.2 
L 183.163265 242.2 
L 183.163265 234.88616 
L 164.492857 234.88616 
z
" style="fill:#0000ff;"/>
   </g>
   <g id="patch_11">
    <path clip-path="url(#p93e428499d)" d="M 183.163265 242.2 
L 201.833673 242.2 
L 201.833673 231.751657 
L 183.163265 231.751657 
z
" style="fill:#0000ff;"/>
   </g>
   <g id="patch_12">
    <path clip-path="url(#p93e428499d)" d="M 201.833673 242.2 
L 220.504082 242.2 
L 220.504082 231.751657 
L 201.833673 231.751657 
z
" style="fill:#0000ff;"/>
   </g>
   <g id="patch_13">
    <path clip-path="url(#p93e428499d)" d="M 220.504082 242.2 
L 239.17449 242.2 
L 239.17449 228.617154 
L 220.504082 228.617154 
z
" style="fill:#0000ff;"/>
   </g>
   <g id="patch_14">
    <path clip-path="url(#p93e428499d)" d="M 239.17449 242.2 
L 257.844898 242.2 
L 257.844898 239.065497 
L 239.17449 239.065497 
z
" style="fill:#0000ff;"/>
   </g>
   <g id="patch_15">
    <path clip-path="url(#p93e428499d)" d="M 257.844898 242.2 
L 276.515306 242.2 
L 276.515306 235.930994 
L 257.844898 235.930994 
z
" style="fill:#0000ff;"/>
   </g>
   <g id="patch_16">
    <path clip-path="url(#p93e428499d)" d="M 276.515306 242.2 
L 295.185714 242.2 
L 295.185714 231.751657 
L 276.515306 231.751657 
z
" style="fill:#0000ff;"/>
   </g>
   <g id="patch_17">
    <path clip-path="url(#p93e428499d)" d="M 295.185714 242.2 
L 313.856122 242.2 
L 313.856122 240.110331 
L 295.185714 240.110331 
z
" style="fill:#0000ff;"/>
   </g>
   <g id="patch_18">
    <path clip-path="url(#p93e428499d)" d="M 313.856122 242.2 
L 332.526531 242.2 
L 332.526531 239.065497 
L 313.856122 239.065497 
z
" style="fill:#0000ff;"/>
   </g>
   <g id="patch_19">
    <path clip-path="url(#p93e428499d)" d="M 332.526531 242.2 
L 351.196939 242.2 
L 351.196939 240.110331 
L 332.526531 240.110331 
z
" style="fill:#0000ff;"/>
   </g>
   <g id="patch_20">
    <path clip-path="url(#p93e428499d)" d="M 351.196939 242.2 
L 369.867347 242.2 
L 369.867347 241.155166 
L 351.196939 241.155166 
z
" style="fill:#0000ff;"/>
   </g>
   <g id="patch_21">
    <path clip-path="url(#p93e428499d)" d="M 369.867347 242.2 
L 388.537755 242.2 
L 388.537755 242.2 
L 369.867347 242.2 
z
" style="fill:#0000ff;"/>
   </g>
   <g id="patch_22">
    <path clip-path="url(#p93e428499d)" d="M 388.537755 242.2 
L 407.208163 242.2 
L 407.208163 242.2 
L 388.537755 242.2 
z
" style="fill:#0000ff;"/>
   </g>
   <g id="patch_23">
    <path clip-path="url(#p93e428499d)" d="M 407.208163 242.2 
L 425.878571 242.2 
L 425.878571 242.2 
L 407.208163 242.2 
z
" style="fill:#0000ff;"/>
   </g>
   <g id="patch_24">
    <path clip-path="url(#p93e428499d)" d="M 425.878571 242.2 
L 444.54898 242.2 
L 444.54898 242.2 
L 425.878571 242.2 
z
" style="fill:#0000ff;"/>
   </g>
   <g id="patch_25">
    <path clip-path="url(#p93e428499d)" d="M 444.54898 242.2 
L 463.219388 242.2 
L 463.219388 242.2 
L 444.54898 242.2 
z
" style="fill:#0000ff;"/>
   </g>
   <g id="patch_26">
    <path clip-path="url(#p93e428499d)" d="M 463.219388 242.2 
L 481.889796 242.2 
L 481.889796 242.2 
L 463.219388 242.2 
z
" style="fill:#0000ff;"/>
   </g>
   <g id="patch_27">
    <path clip-path="url(#p93e428499d)" d="M 33.8 242.2 
L 52.470408 242.2 
L 52.470408 226.527485 
L 33.8 226.527485 
z
" style="fill:#ffa500;opacity:0.8;"/>
   </g>
   <g id="patch_28">
    <path clip-path="url(#p93e428499d)" d="M 52.470408 242.2 
L 71.140816 242.2 
L 71.140816 198.316959 
L 52.470408 198.316959 
z
" style="fill:#ffa500;opacity:0.8;"/>
   </g>
   <g id="patch_29">
    <path clip-path="url(#p93e428499d)" d="M 71.140816 242.2 
L 89.811224 242.2 
L 89.811224 201.451462 
L 71.140816 201.451462 
z
" style="fill:#ffa500;opacity:0.8;"/>
   </g>
   <g id="patch_30">
    <path clip-path="url(#p93e428499d)" d="M 89.811224 242.2 
L 108.481633 242.2 
L 108.481633 207.720468 
L 89.811224 207.720468 
z
" style="fill:#ffa500;opacity:0.8;"/>
   </g>
   <g id="patch_31">
    <path clip-path="url(#p93e428499d)" d="M 108.481633 242.2 
L 127.152041 242.2 
L 127.152041 223.392982 
L 108.481633 223.392982 
z
" style="fill:#ffa500;opacity:0.8;"/>
   </g>
   <g id="patch_32">
    <path clip-path="url(#p93e428499d)" d="M 127.152041 242.2 
L 145.822449 242.2 
L 145.822449 229.661988 
L 127.152041 229.661988 
z
" style="fill:#ffa500;opacity:0.8;"/>
   </g>
   <g id="patch_33">
    <path clip-path="url(#p93e428499d)" d="M 145.822449 242.2 
L 164.492857 242.2 
L 164.492857 232.796491 
L 145.822449 232.796491 
z
" style="fill:#ffa500;opacity:0.8;"/>
   </g>
   <g id="patch_34">
    <path clip-path="url(#p93e428499d)" d="M 164.492857 242.2 
L 183.163265 242.2 
L 183.163265 242.2 
L 164.492857 242.2 
z
" style="fill:#ffa500;opacity:0.8;"/>
   </g>
   <g id="patch_35">
    <path clip-path="url(#p93e428499d)" d="M 183.163265 242.2 
L 201.833673 242.2 
L 201.833673 238.020663 
L 183.163265 238.020663 
z
" style="fill:#ffa500;opacity:0.8;"/>
   </g>
   <g id="patch_36">
    <path clip-path="url(#p93e428499d)" d="M 201.833673 242.2 
L 220.504082 242.2 
L 220.504082 238.020663 
L 201.833673 238.020663 
z
" style="fill:#ffa500;opacity:0.8;"/>
   </g>
   <g id="patch_37">
    <path clip-path="url(#p93e428499d)" d="M 220.504082 242.2 
L 239.17449 242.2 
L 239.17449 235.930994 
L 220.504082 235.930994 
z
" style="fill:#ffa500;opacity:0.8;"/>
   </g>
   <g id="patch_38">
    <path clip-path="url(#p93e428499d)" d="M 239.17449 242.2 
L 257.844898 242.2 
L 257.844898 235.930994 
L 239.17449 235.930994 
z
" style="fill:#ffa500;opacity:0.8;"/>
   </g>
   <g id="patch_39">
    <path clip-path="url(#p93e428499d)" d="M 257.844898 242.2 
L 276.515306 242.2 
L 276.515306 235.930994 
L 257.844898 235.930994 
z
" style="fill:#ffa500;opacity:0.8;"/>
   </g>
   <g id="patch_40">
    <path clip-path="url(#p93e428499d)" d="M 276.515306 242.2 
L 295.185714 242.2 
L 295.185714 234.88616 
L 276.515306 234.88616 
z
" style="fill:#ffa500;opacity:0.8;"/>
   </g>
   <g id="patch_41">
    <path clip-path="url(#p93e428499d)" d="M 295.185714 242.2 
L 313.856122 242.2 
L 313.856122 236.975828 
L 295.185714 236.975828 
z
" style="fill:#ffa500;opacity:0.8;"/>
   </g>
   <g id="patch_42">
    <path clip-path="url(#p93e428499d)" d="M 313.856122 242.2 
L 332.526531 242.2 
L 332.526531 230.706823 
L 313.856122 230.706823 
z
" style="fill:#ffa500;opacity:0.8;"/>
   </g>
   <g id="patch_43">
    <path clip-path="url(#p93e428499d)" d="M 332.526531 242.2 
L 351.196939 242.2 
L 351.196939 240.110331 
L 332.526531 240.110331 
z
" style="fill:#ffa500;opacity:0.8;"/>
   </g>
   <g id="patch_44">
    <path clip-path="url(#p93e428499d)" d="M 351.196939 242.2 
L 369.867347 242.2 
L 369.867347 239.065497 
L 351.196939 239.065497 
z
" style="fill:#ffa500;opacity:0.8;"/>
   </g>
   <g id="patch_45">
    <path clip-path="url(#p93e428499d)" d="M 369.867347 242.2 
L 388.537755 242.2 
L 388.537755 240.110331 
L 369.867347 240.110331 
z
" style="fill:#ffa500;opacity:0.8;"/>
   </g>
   <g id="patch_46">
    <path clip-path="url(#p93e428499d)" d="M 388.537755 242.2 
L 407.208163 242.2 
L 407.208163 241.155166 
L 388.537755 241.155166 
z
" style="fill:#ffa500;opacity:0.8;"/>
   </g>
   <g id="patch_47">
    <path clip-path="url(#p93e428499d)" d="M 407.208163 242.2 
L 425.878571 242.2 
L 425.878571 241.155166 
L 407.208163 241.155166 
z
" style="fill:#ffa500;opacity:0.8;"/>
   </g>
   <g id="patch_48">
    <path clip-path="url(#p93e428499d)" d="M 425.878571 242.2 
L 444.54898 242.2 
L 444.54898 241.155166 
L 425.878571 241.155166 
z
" style="fill:#ffa500;opacity:0.8;"/>
   </g>
   <g id="patch_49">
    <path clip-path="url(#p93e428499d)" d="M 444.54898 242.2 
L 463.219388 242.2 
L 463.219388 241.155166 
L 444.54898 241.155166 
z
" style="fill:#ffa500;opacity:0.8;"/>
   </g>
   <g id="patch_50">
    <path clip-path="url(#p93e428499d)" d="M 463.219388 242.2 
L 481.889796 242.2 
L 481.889796 242.2 
L 463.219388 242.2 
z
" style="fill:#ffa500;opacity:0.8;"/>
   </g>
   <g id="matplotlib.axis_1">
    <g id="xtick_1">
     <g id="line2d_1">
      <defs>
       <path d="M 0 0 
L 0 3.5 
" id="ma077595cf3" style="stroke:#000000;stroke-width:0.8;"/>
      </defs>
      <g>
       <use style="stroke:#000000;stroke-width:0.8;" x="43.135204" xlink:href="#ma077595cf3" y="242.2"/>
      </g>
     </g>
     <g id="text_1">
      <!-- 0 -->
      <g transform="translate(39.953954 256.798437)scale(0.1 -0.1)">
       <defs>
        <path d="M 2034 4250 
Q 1547 4250 1301 3770 
Q 1056 3291 1056 2328 
Q 1056 1369 1301 889 
Q 1547 409 2034 409 
Q 2525 409 2770 889 
Q 3016 1369 3016 2328 
Q 3016 3291 2770 3770 
Q 2525 4250 2034 4250 
z
M 2034 4750 
Q 2819 4750 3233 4129 
Q 3647 3509 3647 2328 
Q 3647 1150 3233 529 
Q 2819 -91 2034 -91 
Q 1250 -91 836 529 
Q 422 1150 422 2328 
Q 422 3509 836 4129 
Q 1250 4750 2034 4750 
z
" id="DejaVuSans-30" transform="scale(0.015625)"/>
       </defs>
       <use xlink:href="#DejaVuSans-30"/>
      </g>
     </g>
    </g>
    <g id="xtick_2">
     <g id="line2d_2">
      <g>
       <use style="stroke:#000000;stroke-width:0.8;" x="99.146429" xlink:href="#ma077595cf3" y="242.2"/>
      </g>
     </g>
     <g id="text_2">
      <!-- 10 -->
      <g transform="translate(92.783929 256.798437)scale(0.1 -0.1)">
       <defs>
        <path d="M 794 531 
L 1825 531 
L 1825 4091 
L 703 3866 
L 703 4441 
L 1819 4666 
L 2450 4666 
L 2450 531 
L 3481 531 
L 3481 0 
L 794 0 
L 794 531 
z
" id="DejaVuSans-31" transform="scale(0.015625)"/>
       </defs>
       <use xlink:href="#DejaVuSans-31"/>
       <use x="63.623047" xlink:href="#DejaVuSans-30"/>
      </g>
     </g>
    </g>
    <g id="xtick_3">
     <g id="line2d_3">
      <g>
       <use style="stroke:#000000;stroke-width:0.8;" x="155.157653" xlink:href="#ma077595cf3" y="242.2"/>
      </g>
     </g>
     <g id="text_3">
      <!-- 20 -->
      <g transform="translate(148.795153 256.798437)scale(0.1 -0.1)">
       <defs>
        <path d="M 1228 531 
L 3431 531 
L 3431 0 
L 469 0 
L 469 531 
Q 828 903 1448 1529 
Q 2069 2156 2228 2338 
Q 2531 2678 2651 2914 
Q 2772 3150 2772 3378 
Q 2772 3750 2511 3984 
Q 2250 4219 1831 4219 
Q 1534 4219 1204 4116 
Q 875 4013 500 3803 
L 500 4441 
Q 881 4594 1212 4672 
Q 1544 4750 1819 4750 
Q 2544 4750 2975 4387 
Q 3406 4025 3406 3419 
Q 3406 3131 3298 2873 
Q 3191 2616 2906 2266 
Q 2828 2175 2409 1742 
Q 1991 1309 1228 531 
z
" id="DejaVuSans-32" transform="scale(0.015625)"/>
       </defs>
       <use xlink:href="#DejaVuSans-32"/>
       <use x="63.623047" xlink:href="#DejaVuSans-30"/>
      </g>
     </g>
    </g>
    <g id="xtick_4">
     <g id="line2d_4">
      <g>
       <use style="stroke:#000000;stroke-width:0.8;" x="211.168878" xlink:href="#ma077595cf3" y="242.2"/>
      </g>
     </g>
     <g id="text_4">
      <!-- 30 -->
      <g transform="translate(204.806378 256.798437)scale(0.1 -0.1)">
       <defs>
        <path d="M 2597 2516 
Q 3050 2419 3304 2112 
Q 3559 1806 3559 1356 
Q 3559 666 3084 287 
Q 2609 -91 1734 -91 
Q 1441 -91 1130 -33 
Q 819 25 488 141 
L 488 750 
Q 750 597 1062 519 
Q 1375 441 1716 441 
Q 2309 441 2620 675 
Q 2931 909 2931 1356 
Q 2931 1769 2642 2001 
Q 2353 2234 1838 2234 
L 1294 2234 
L 1294 2753 
L 1863 2753 
Q 2328 2753 2575 2939 
Q 2822 3125 2822 3475 
Q 2822 3834 2567 4026 
Q 2313 4219 1838 4219 
Q 1578 4219 1281 4162 
Q 984 4106 628 3988 
L 628 4550 
Q 988 4650 1302 4700 
Q 1616 4750 1894 4750 
Q 2613 4750 3031 4423 
Q 3450 4097 3450 3541 
Q 3450 3153 3228 2886 
Q 3006 2619 2597 2516 
z
" id="DejaVuSans-33" transform="scale(0.015625)"/>
       </defs>
       <use xlink:href="#DejaVuSans-33"/>
       <use x="63.623047" xlink:href="#DejaVuSans-30"/>
      </g>
     </g>
    </g>
    <g id="xtick_5">
     <g id="line2d_5">
      <g>
       <use style="stroke:#000000;stroke-width:0.8;" x="267.180102" xlink:href="#ma077595cf3" y="242.2"/>
      </g>
     </g>
     <g id="text_5">
      <!-- 40 -->
      <g transform="translate(260.817602 256.798437)scale(0.1 -0.1)">
       <defs>
        <path d="M 2419 4116 
L 825 1625 
L 2419 1625 
L 2419 4116 
z
M 2253 4666 
L 3047 4666 
L 3047 1625 
L 3713 1625 
L 3713 1100 
L 3047 1100 
L 3047 0 
L 2419 0 
L 2419 1100 
L 313 1100 
L 313 1709 
L 2253 4666 
z
" id="DejaVuSans-34" transform="scale(0.015625)"/>
       </defs>
       <use xlink:href="#DejaVuSans-34"/>
       <use x="63.623047" xlink:href="#DejaVuSans-30"/>
      </g>
     </g>
    </g>
    <g id="xtick_6">
     <g id="line2d_6">
      <g>
       <use style="stroke:#000000;stroke-width:0.8;" x="323.191327" xlink:href="#ma077595cf3" y="242.2"/>
      </g>
     </g>
     <g id="text_6">
      <!-- 50 -->
      <g transform="translate(316.828827 256.798437)scale(0.1 -0.1)">
       <defs>
        <path d="M 691 4666 
L 3169 4666 
L 3169 4134 
L 1269 4134 
L 1269 2991 
Q 1406 3038 1543 3061 
Q 1681 3084 1819 3084 
Q 2600 3084 3056 2656 
Q 3513 2228 3513 1497 
Q 3513 744 3044 326 
Q 2575 -91 1722 -91 
Q 1428 -91 1123 -41 
Q 819 9 494 109 
L 494 744 
Q 775 591 1075 516 
Q 1375 441 1709 441 
Q 2250 441 2565 725 
Q 2881 1009 2881 1497 
Q 2881 1984 2565 2268 
Q 2250 2553 1709 2553 
Q 1456 2553 1204 2497 
Q 953 2441 691 2322 
L 691 4666 
z
" id="DejaVuSans-35" transform="scale(0.015625)"/>
       </defs>
       <use xlink:href="#DejaVuSans-35"/>
       <use x="63.623047" xlink:href="#DejaVuSans-30"/>
      </g>
     </g>
    </g>
    <g id="xtick_7">
     <g id="line2d_7">
      <g>
       <use style="stroke:#000000;stroke-width:0.8;" x="379.202551" xlink:href="#ma077595cf3" y="242.2"/>
      </g>
     </g>
     <g id="text_7">
      <!-- 60 -->
      <g transform="translate(372.840051 256.798437)scale(0.1 -0.1)">
       <defs>
        <path d="M 2113 2584 
Q 1688 2584 1439 2293 
Q 1191 2003 1191 1497 
Q 1191 994 1439 701 
Q 1688 409 2113 409 
Q 2538 409 2786 701 
Q 3034 994 3034 1497 
Q 3034 2003 2786 2293 
Q 2538 2584 2113 2584 
z
M 3366 4563 
L 3366 3988 
Q 3128 4100 2886 4159 
Q 2644 4219 2406 4219 
Q 1781 4219 1451 3797 
Q 1122 3375 1075 2522 
Q 1259 2794 1537 2939 
Q 1816 3084 2150 3084 
Q 2853 3084 3261 2657 
Q 3669 2231 3669 1497 
Q 3669 778 3244 343 
Q 2819 -91 2113 -91 
Q 1303 -91 875 529 
Q 447 1150 447 2328 
Q 447 3434 972 4092 
Q 1497 4750 2381 4750 
Q 2619 4750 2861 4703 
Q 3103 4656 3366 4563 
z
" id="DejaVuSans-36" transform="scale(0.015625)"/>
       </defs>
       <use xlink:href="#DejaVuSans-36"/>
       <use x="63.623047" xlink:href="#DejaVuSans-30"/>
      </g>
     </g>
    </g>
    <g id="xtick_8">
     <g id="line2d_8">
      <g>
       <use style="stroke:#000000;stroke-width:0.8;" x="435.213776" xlink:href="#ma077595cf3" y="242.2"/>
      </g>
     </g>
     <g id="text_8">
      <!-- 70 -->
      <g transform="translate(428.851276 256.798437)scale(0.1 -0.1)">
       <defs>
        <path d="M 525 4666 
L 3525 4666 
L 3525 4397 
L 1831 0 
L 1172 0 
L 2766 4134 
L 525 4134 
L 525 4666 
z
" id="DejaVuSans-37" transform="scale(0.015625)"/>
       </defs>
       <use xlink:href="#DejaVuSans-37"/>
       <use x="63.623047" xlink:href="#DejaVuSans-30"/>
      </g>
     </g>
    </g>
    <g id="xtick_9">
     <g id="line2d_9">
      <g>
       <use style="stroke:#000000;stroke-width:0.8;" x="491.225" xlink:href="#ma077595cf3" y="242.2"/>
      </g>
     </g>
     <g id="text_9">
      <!-- 80 -->
      <g transform="translate(484.8625 256.798437)scale(0.1 -0.1)">
       <defs>
        <path d="M 2034 2216 
Q 1584 2216 1326 1975 
Q 1069 1734 1069 1313 
Q 1069 891 1326 650 
Q 1584 409 2034 409 
Q 2484 409 2743 651 
Q 3003 894 3003 1313 
Q 3003 1734 2745 1975 
Q 2488 2216 2034 2216 
z
M 1403 2484 
Q 997 2584 770 2862 
Q 544 3141 544 3541 
Q 544 4100 942 4425 
Q 1341 4750 2034 4750 
Q 2731 4750 3128 4425 
Q 3525 4100 3525 3541 
Q 3525 3141 3298 2862 
Q 3072 2584 2669 2484 
Q 3125 2378 3379 2068 
Q 3634 1759 3634 1313 
Q 3634 634 3220 271 
Q 2806 -91 2034 -91 
Q 1263 -91 848 271 
Q 434 634 434 1313 
Q 434 1759 690 2068 
Q 947 2378 1403 2484 
z
M 1172 3481 
Q 1172 3119 1398 2916 
Q 1625 2713 2034 2713 
Q 2441 2713 2670 2916 
Q 2900 3119 2900 3481 
Q 2900 3844 2670 4047 
Q 2441 4250 2034 4250 
Q 1625 4250 1398 4047 
Q 1172 3844 1172 3481 
z
" id="DejaVuSans-38" transform="scale(0.015625)"/>
       </defs>
       <use xlink:href="#DejaVuSans-38"/>
       <use x="63.623047" xlink:href="#DejaVuSans-30"/>
      </g>
     </g>
    </g>
    <g id="text_10">
     <!-- Number of replays per trial -->
     <g transform="translate(167.821094 273.515938)scale(0.14 -0.14)">
      <defs>
       <path d="M 628 4666 
L 1478 4666 
L 3547 763 
L 3547 4666 
L 4159 4666 
L 4159 0 
L 3309 0 
L 1241 3903 
L 1241 0 
L 628 0 
L 628 4666 
z
" id="DejaVuSans-4e" transform="scale(0.015625)"/>
       <path d="M 544 1381 
L 544 3500 
L 1119 3500 
L 1119 1403 
Q 1119 906 1312 657 
Q 1506 409 1894 409 
Q 2359 409 2629 706 
Q 2900 1003 2900 1516 
L 2900 3500 
L 3475 3500 
L 3475 0 
L 2900 0 
L 2900 538 
Q 2691 219 2414 64 
Q 2138 -91 1772 -91 
Q 1169 -91 856 284 
Q 544 659 544 1381 
z
M 1991 3584 
L 1991 3584 
z
" id="DejaVuSans-75" transform="scale(0.015625)"/>
       <path d="M 3328 2828 
Q 3544 3216 3844 3400 
Q 4144 3584 4550 3584 
Q 5097 3584 5394 3201 
Q 5691 2819 5691 2113 
L 5691 0 
L 5113 0 
L 5113 2094 
Q 5113 2597 4934 2840 
Q 4756 3084 4391 3084 
Q 3944 3084 3684 2787 
Q 3425 2491 3425 1978 
L 3425 0 
L 2847 0 
L 2847 2094 
Q 2847 2600 2669 2842 
Q 2491 3084 2119 3084 
Q 1678 3084 1418 2786 
Q 1159 2488 1159 1978 
L 1159 0 
L 581 0 
L 581 3500 
L 1159 3500 
L 1159 2956 
Q 1356 3278 1631 3431 
Q 1906 3584 2284 3584 
Q 2666 3584 2933 3390 
Q 3200 3197 3328 2828 
z
" id="DejaVuSans-6d" transform="scale(0.015625)"/>
       <path d="M 3116 1747 
Q 3116 2381 2855 2742 
Q 2594 3103 2138 3103 
Q 1681 3103 1420 2742 
Q 1159 2381 1159 1747 
Q 1159 1113 1420 752 
Q 1681 391 2138 391 
Q 2594 391 2855 752 
Q 3116 1113 3116 1747 
z
M 1159 2969 
Q 1341 3281 1617 3432 
Q 1894 3584 2278 3584 
Q 2916 3584 3314 3078 
Q 3713 2572 3713 1747 
Q 3713 922 3314 415 
Q 2916 -91 2278 -91 
Q 1894 -91 1617 61 
Q 1341 213 1159 525 
L 1159 0 
L 581 0 
L 581 4863 
L 1159 4863 
L 1159 2969 
z
" id="DejaVuSans-62" transform="scale(0.015625)"/>
       <path d="M 3597 1894 
L 3597 1613 
L 953 1613 
Q 991 1019 1311 708 
Q 1631 397 2203 397 
Q 2534 397 2845 478 
Q 3156 559 3463 722 
L 3463 178 
Q 3153 47 2828 -22 
Q 2503 -91 2169 -91 
Q 1331 -91 842 396 
Q 353 884 353 1716 
Q 353 2575 817 3079 
Q 1281 3584 2069 3584 
Q 2775 3584 3186 3129 
Q 3597 2675 3597 1894 
z
M 3022 2063 
Q 3016 2534 2758 2815 
Q 2500 3097 2075 3097 
Q 1594 3097 1305 2825 
Q 1016 2553 972 2059 
L 3022 2063 
z
" id="DejaVuSans-65" transform="scale(0.015625)"/>
       <path d="M 2631 2963 
Q 2534 3019 2420 3045 
Q 2306 3072 2169 3072 
Q 1681 3072 1420 2755 
Q 1159 2438 1159 1844 
L 1159 0 
L 581 0 
L 581 3500 
L 1159 3500 
L 1159 2956 
Q 1341 3275 1631 3429 
Q 1922 3584 2338 3584 
Q 2397 3584 2469 3576 
Q 2541 3569 2628 3553 
L 2631 2963 
z
" id="DejaVuSans-72" transform="scale(0.015625)"/>
       <path id="DejaVuSans-20" transform="scale(0.015625)"/>
       <path d="M 1959 3097 
Q 1497 3097 1228 2736 
Q 959 2375 959 1747 
Q 959 1119 1226 758 
Q 1494 397 1959 397 
Q 2419 397 2687 759 
Q 2956 1122 2956 1747 
Q 2956 2369 2687 2733 
Q 2419 3097 1959 3097 
z
M 1959 3584 
Q 2709 3584 3137 3096 
Q 3566 2609 3566 1747 
Q 3566 888 3137 398 
Q 2709 -91 1959 -91 
Q 1206 -91 779 398 
Q 353 888 353 1747 
Q 353 2609 779 3096 
Q 1206 3584 1959 3584 
z
" id="DejaVuSans-6f" transform="scale(0.015625)"/>
       <path d="M 2375 4863 
L 2375 4384 
L 1825 4384 
Q 1516 4384 1395 4259 
Q 1275 4134 1275 3809 
L 1275 3500 
L 2222 3500 
L 2222 3053 
L 1275 3053 
L 1275 0 
L 697 0 
L 697 3053 
L 147 3053 
L 147 3500 
L 697 3500 
L 697 3744 
Q 697 4328 969 4595 
Q 1241 4863 1831 4863 
L 2375 4863 
z
" id="DejaVuSans-66" transform="scale(0.015625)"/>
       <path d="M 1159 525 
L 1159 -1331 
L 581 -1331 
L 581 3500 
L 1159 3500 
L 1159 2969 
Q 1341 3281 1617 3432 
Q 1894 3584 2278 3584 
Q 2916 3584 3314 3078 
Q 3713 2572 3713 1747 
Q 3713 922 3314 415 
Q 2916 -91 2278 -91 
Q 1894 -91 1617 61 
Q 1341 213 1159 525 
z
M 3116 1747 
Q 3116 2381 2855 2742 
Q 2594 3103 2138 3103 
Q 1681 3103 1420 2742 
Q 1159 2381 1159 1747 
Q 1159 1113 1420 752 
Q 1681 391 2138 391 
Q 2594 391 2855 752 
Q 3116 1113 3116 1747 
z
" id="DejaVuSans-70" transform="scale(0.015625)"/>
       <path d="M 603 4863 
L 1178 4863 
L 1178 0 
L 603 0 
L 603 4863 
z
" id="DejaVuSans-6c" transform="scale(0.015625)"/>
       <path d="M 2194 1759 
Q 1497 1759 1228 1600 
Q 959 1441 959 1056 
Q 959 750 1161 570 
Q 1363 391 1709 391 
Q 2188 391 2477 730 
Q 2766 1069 2766 1631 
L 2766 1759 
L 2194 1759 
z
M 3341 1997 
L 3341 0 
L 2766 0 
L 2766 531 
Q 2569 213 2275 61 
Q 1981 -91 1556 -91 
Q 1019 -91 701 211 
Q 384 513 384 1019 
Q 384 1609 779 1909 
Q 1175 2209 1959 2209 
L 2766 2209 
L 2766 2266 
Q 2766 2663 2505 2880 
Q 2244 3097 1772 3097 
Q 1472 3097 1187 3025 
Q 903 2953 641 2809 
L 641 3341 
Q 956 3463 1253 3523 
Q 1550 3584 1831 3584 
Q 2591 3584 2966 3190 
Q 3341 2797 3341 1997 
z
" id="DejaVuSans-61" transform="scale(0.015625)"/>
       <path d="M 2059 -325 
Q 1816 -950 1584 -1140 
Q 1353 -1331 966 -1331 
L 506 -1331 
L 506 -850 
L 844 -850 
Q 1081 -850 1212 -737 
Q 1344 -625 1503 -206 
L 1606 56 
L 191 3500 
L 800 3500 
L 1894 763 
L 2988 3500 
L 3597 3500 
L 2059 -325 
z
" id="DejaVuSans-79" transform="scale(0.015625)"/>
       <path d="M 2834 3397 
L 2834 2853 
Q 2591 2978 2328 3040 
Q 2066 3103 1784 3103 
Q 1356 3103 1142 2972 
Q 928 2841 928 2578 
Q 928 2378 1081 2264 
Q 1234 2150 1697 2047 
L 1894 2003 
Q 2506 1872 2764 1633 
Q 3022 1394 3022 966 
Q 3022 478 2636 193 
Q 2250 -91 1575 -91 
Q 1294 -91 989 -36 
Q 684 19 347 128 
L 347 722 
Q 666 556 975 473 
Q 1284 391 1588 391 
Q 1994 391 2212 530 
Q 2431 669 2431 922 
Q 2431 1156 2273 1281 
Q 2116 1406 1581 1522 
L 1381 1569 
Q 847 1681 609 1914 
Q 372 2147 372 2553 
Q 372 3047 722 3315 
Q 1072 3584 1716 3584 
Q 2034 3584 2315 3537 
Q 2597 3491 2834 3397 
z
" id="DejaVuSans-73" transform="scale(0.015625)"/>
       <path d="M 1172 4494 
L 1172 3500 
L 2356 3500 
L 2356 3053 
L 1172 3053 
L 1172 1153 
Q 1172 725 1289 603 
Q 1406 481 1766 481 
L 2356 481 
L 2356 0 
L 1766 0 
Q 1100 0 847 248 
Q 594 497 594 1153 
L 594 3053 
L 172 3053 
L 172 3500 
L 594 3500 
L 594 4494 
L 1172 4494 
z
" id="DejaVuSans-74" transform="scale(0.015625)"/>
       <path d="M 603 3500 
L 1178 3500 
L 1178 0 
L 603 0 
L 603 3500 
z
M 603 4863 
L 1178 4863 
L 1178 4134 
L 603 4134 
L 603 4863 
z
" id="DejaVuSans-69" transform="scale(0.015625)"/>
      </defs>
      <use xlink:href="#DejaVuSans-4e"/>
      <use x="74.804688" xlink:href="#DejaVuSans-75"/>
      <use x="138.183594" xlink:href="#DejaVuSans-6d"/>
      <use x="235.595703" xlink:href="#DejaVuSans-62"/>
      <use x="299.072266" xlink:href="#DejaVuSans-65"/>
      <use x="360.595703" xlink:href="#DejaVuSans-72"/>
      <use x="401.708984" xlink:href="#DejaVuSans-20"/>
      <use x="433.496094" xlink:href="#DejaVuSans-6f"/>
      <use x="494.677734" xlink:href="#DejaVuSans-66"/>
      <use x="529.882812" xlink:href="#DejaVuSans-20"/>
      <use x="561.669922" xlink:href="#DejaVuSans-72"/>
      <use x="600.533203" xlink:href="#DejaVuSans-65"/>
      <use x="662.056641" xlink:href="#DejaVuSans-70"/>
      <use x="725.533203" xlink:href="#DejaVuSans-6c"/>
      <use x="753.316406" xlink:href="#DejaVuSans-61"/>
      <use x="814.595703" xlink:href="#DejaVuSans-79"/>
      <use x="873.775391" xlink:href="#DejaVuSans-73"/>
      <use x="925.875" xlink:href="#DejaVuSans-20"/>
      <use x="957.662109" xlink:href="#DejaVuSans-70"/>
      <use x="1021.138672" xlink:href="#DejaVuSans-65"/>
      <use x="1082.662109" xlink:href="#DejaVuSans-72"/>
      <use x="1123.775391" xlink:href="#DejaVuSans-20"/>
      <use x="1155.5625" xlink:href="#DejaVuSans-74"/>
      <use x="1194.771484" xlink:href="#DejaVuSans-72"/>
      <use x="1235.884766" xlink:href="#DejaVuSans-69"/>
      <use x="1263.667969" xlink:href="#DejaVuSans-61"/>
      <use x="1324.947266" xlink:href="#DejaVuSans-6c"/>
     </g>
    </g>
   </g>
   <g id="matplotlib.axis_2">
    <g id="ytick_1">
     <g id="line2d_10">
      <defs>
       <path d="M 0 0 
L -3.5 0 
" id="ma6a1c10715" style="stroke:#000000;stroke-width:0.8;"/>
      </defs>
      <g>
       <use style="stroke:#000000;stroke-width:0.8;" x="33.8" xlink:href="#ma6a1c10715" y="242.2"/>
      </g>
     </g>
     <g id="text_11">
      <!-- 0.0 -->
      <g transform="translate(10.896875 245.999219)scale(0.1 -0.1)">
       <defs>
        <path d="M 684 794 
L 1344 794 
L 1344 0 
L 684 0 
L 684 794 
z
" id="DejaVuSans-2e" transform="scale(0.015625)"/>
       </defs>
       <use xlink:href="#DejaVuSans-30"/>
       <use x="63.623047" xlink:href="#DejaVuSans-2e"/>
       <use x="95.410156" xlink:href="#DejaVuSans-30"/>
      </g>
     </g>
    </g>
    <g id="ytick_2">
     <g id="line2d_11">
      <g>
       <use style="stroke:#000000;stroke-width:0.8;" x="33.8" xlink:href="#ma6a1c10715" y="218.377778"/>
      </g>
     </g>
     <g id="text_12">
      <!-- 0.1 -->
      <g transform="translate(10.896875 222.176997)scale(0.1 -0.1)">
       <use xlink:href="#DejaVuSans-30"/>
       <use x="63.623047" xlink:href="#DejaVuSans-2e"/>
       <use x="95.410156" xlink:href="#DejaVuSans-31"/>
      </g>
     </g>
    </g>
    <g id="ytick_3">
     <g id="line2d_12">
      <g>
       <use style="stroke:#000000;stroke-width:0.8;" x="33.8" xlink:href="#ma6a1c10715" y="194.555556"/>
      </g>
     </g>
     <g id="text_13">
      <!-- 0.2 -->
      <g transform="translate(10.896875 198.354774)scale(0.1 -0.1)">
       <use xlink:href="#DejaVuSans-30"/>
       <use x="63.623047" xlink:href="#DejaVuSans-2e"/>
       <use x="95.410156" xlink:href="#DejaVuSans-32"/>
      </g>
     </g>
    </g>
    <g id="ytick_4">
     <g id="line2d_13">
      <g>
       <use style="stroke:#000000;stroke-width:0.8;" x="33.8" xlink:href="#ma6a1c10715" y="170.733333"/>
      </g>
     </g>
     <g id="text_14">
      <!-- 0.3 -->
      <g transform="translate(10.896875 174.532552)scale(0.1 -0.1)">
       <use xlink:href="#DejaVuSans-30"/>
       <use x="63.623047" xlink:href="#DejaVuSans-2e"/>
       <use x="95.410156" xlink:href="#DejaVuSans-33"/>
      </g>
     </g>
    </g>
    <g id="ytick_5">
     <g id="line2d_14">
      <g>
       <use style="stroke:#000000;stroke-width:0.8;" x="33.8" xlink:href="#ma6a1c10715" y="146.911111"/>
      </g>
     </g>
     <g id="text_15">
      <!-- 0.4 -->
      <g transform="translate(10.896875 150.71033)scale(0.1 -0.1)">
       <use xlink:href="#DejaVuSans-30"/>
       <use x="63.623047" xlink:href="#DejaVuSans-2e"/>
       <use x="95.410156" xlink:href="#DejaVuSans-34"/>
      </g>
     </g>
    </g>
    <g id="ytick_6">
     <g id="line2d_15">
      <g>
       <use style="stroke:#000000;stroke-width:0.8;" x="33.8" xlink:href="#ma6a1c10715" y="123.088889"/>
      </g>
     </g>
     <g id="text_16">
      <!-- 0.5 -->
      <g transform="translate(10.896875 126.888108)scale(0.1 -0.1)">
       <use xlink:href="#DejaVuSans-30"/>
       <use x="63.623047" xlink:href="#DejaVuSans-2e"/>
       <use x="95.410156" xlink:href="#DejaVuSans-35"/>
      </g>
     </g>
    </g>
    <g id="ytick_7">
     <g id="line2d_16">
      <g>
       <use style="stroke:#000000;stroke-width:0.8;" x="33.8" xlink:href="#ma6a1c10715" y="99.266667"/>
      </g>
     </g>
     <g id="text_17">
      <!-- 0.6 -->
      <g transform="translate(10.896875 103.065885)scale(0.1 -0.1)">
       <use xlink:href="#DejaVuSans-30"/>
       <use x="63.623047" xlink:href="#DejaVuSans-2e"/>
       <use x="95.410156" xlink:href="#DejaVuSans-36"/>
      </g>
     </g>
    </g>
    <g id="ytick_8">
     <g id="line2d_17">
      <g>
       <use style="stroke:#000000;stroke-width:0.8;" x="33.8" xlink:href="#ma6a1c10715" y="75.444444"/>
      </g>
     </g>
     <g id="text_18">
      <!-- 0.7 -->
      <g transform="translate(10.896875 79.243663)scale(0.1 -0.1)">
       <use xlink:href="#DejaVuSans-30"/>
       <use x="63.623047" xlink:href="#DejaVuSans-2e"/>
       <use x="95.410156" xlink:href="#DejaVuSans-37"/>
      </g>
     </g>
    </g>
    <g id="ytick_9">
     <g id="line2d_18">
      <g>
       <use style="stroke:#000000;stroke-width:0.8;" x="33.8" xlink:href="#ma6a1c10715" y="51.622222"/>
      </g>
     </g>
     <g id="text_19">
      <!-- 0.8 -->
      <g transform="translate(10.896875 55.421441)scale(0.1 -0.1)">
       <use xlink:href="#DejaVuSans-30"/>
       <use x="63.623047" xlink:href="#DejaVuSans-2e"/>
       <use x="95.410156" xlink:href="#DejaVuSans-38"/>
      </g>
     </g>
    </g>
    <g id="ytick_10">
     <g id="line2d_19">
      <g>
       <use style="stroke:#000000;stroke-width:0.8;" x="33.8" xlink:href="#ma6a1c10715" y="27.8"/>
      </g>
     </g>
     <g id="text_20">
      <!-- 0.9 -->
      <g transform="translate(10.896875 31.599219)scale(0.1 -0.1)">
       <defs>
        <path d="M 703 97 
L 703 672 
Q 941 559 1184 500 
Q 1428 441 1663 441 
Q 2288 441 2617 861 
Q 2947 1281 2994 2138 
Q 2813 1869 2534 1725 
Q 2256 1581 1919 1581 
Q 1219 1581 811 2004 
Q 403 2428 403 3163 
Q 403 3881 828 4315 
Q 1253 4750 1959 4750 
Q 2769 4750 3195 4129 
Q 3622 3509 3622 2328 
Q 3622 1225 3098 567 
Q 2575 -91 1691 -91 
Q 1453 -91 1209 -44 
Q 966 3 703 97 
z
M 1959 2075 
Q 2384 2075 2632 2365 
Q 2881 2656 2881 3163 
Q 2881 3666 2632 3958 
Q 2384 4250 1959 4250 
Q 1534 4250 1286 3958 
Q 1038 3666 1038 3163 
Q 1038 2656 1286 2365 
Q 1534 2075 1959 2075 
z
" id="DejaVuSans-39" transform="scale(0.015625)"/>
       </defs>
       <use xlink:href="#DejaVuSans-30"/>
       <use x="63.623047" xlink:href="#DejaVuSans-2e"/>
       <use x="95.410156" xlink:href="#DejaVuSans-39"/>
      </g>
     </g>
    </g>
   </g>
   <g id="patch_51">
    <path d="M 33.8 242.2 
L 33.8 27.8 
" style="fill:none;stroke:#000000;stroke-linecap:square;stroke-linejoin:miter;stroke-width:0.8;"/>
   </g>
   <g id="patch_52">
    <path d="M 491.225 242.2 
L 491.225 27.8 
" style="fill:none;stroke:#000000;stroke-linecap:square;stroke-linejoin:miter;stroke-width:0.8;"/>
   </g>
   <g id="patch_53">
    <path d="M 33.8 242.2 
L 491.225 242.2 
" style="fill:none;stroke:#000000;stroke-linecap:square;stroke-linejoin:miter;stroke-width:0.8;"/>
   </g>
   <g id="patch_54">
    <path d="M 33.8 27.8 
L 491.225 27.8 
" style="fill:none;stroke:#000000;stroke-linecap:square;stroke-linejoin:miter;stroke-width:0.8;"/>
   </g>
   <g id="text_21">
    <!-- $t=-2.750E+00, p=5.964E-03$ -->
    <g transform="translate(159.6725 21.8)scale(0.12 -0.12)">
     <defs>
      <path d="M 2706 3500 
L 2619 3053 
L 1472 3053 
L 1100 1153 
Q 1081 1047 1072 975 
Q 1063 903 1063 863 
Q 1063 663 1183 572 
Q 1303 481 1569 481 
L 2150 481 
L 2053 0 
L 1503 0 
Q 991 0 739 200 
Q 488 400 488 806 
Q 488 878 497 964 
Q 506 1050 525 1153 
L 897 3053 
L 409 3053 
L 500 3500 
L 978 3500 
L 1172 4494 
L 1747 4494 
L 1556 3500 
L 2706 3500 
z
" id="DejaVuSans-Oblique-74" transform="scale(0.015625)"/>
      <path d="M 678 2906 
L 4684 2906 
L 4684 2381 
L 678 2381 
L 678 2906 
z
M 678 1631 
L 4684 1631 
L 4684 1100 
L 678 1100 
L 678 1631 
z
" id="DejaVuSans-3d" transform="scale(0.015625)"/>
      <path d="M 678 2272 
L 4684 2272 
L 4684 1741 
L 678 1741 
L 678 2272 
z
" id="DejaVuSans-2212" transform="scale(0.015625)"/>
      <path d="M 1081 4666 
L 4031 4666 
L 3928 4134 
L 1606 4134 
L 1338 2753 
L 3566 2753 
L 3463 2222 
L 1234 2222 
L 909 531 
L 3284 531 
L 3181 0 
L 172 0 
L 1081 4666 
z
" id="DejaVuSans-Oblique-45" transform="scale(0.015625)"/>
      <path d="M 2944 4013 
L 2944 2272 
L 4684 2272 
L 4684 1741 
L 2944 1741 
L 2944 0 
L 2419 0 
L 2419 1741 
L 678 1741 
L 678 2272 
L 2419 2272 
L 2419 4013 
L 2944 4013 
z
" id="DejaVuSans-2b" transform="scale(0.015625)"/>
      <path d="M 750 794 
L 1409 794 
L 1409 256 
L 897 -744 
L 494 -744 
L 750 256 
L 750 794 
z
" id="DejaVuSans-2c" transform="scale(0.015625)"/>
      <path d="M 3175 2156 
Q 3175 2616 2975 2859 
Q 2775 3103 2400 3103 
Q 2144 3103 1911 2972 
Q 1678 2841 1497 2591 
Q 1319 2344 1212 1994 
Q 1106 1644 1106 1300 
Q 1106 863 1306 627 
Q 1506 391 1875 391 
Q 2147 391 2380 519 
Q 2613 647 2778 891 
Q 2956 1147 3065 1494 
Q 3175 1841 3175 2156 
z
M 1394 2969 
Q 1625 3272 1939 3428 
Q 2253 3584 2638 3584 
Q 3175 3584 3472 3232 
Q 3769 2881 3769 2247 
Q 3769 1728 3584 1258 
Q 3400 788 3053 416 
Q 2822 169 2531 39 
Q 2241 -91 1919 -91 
Q 1547 -91 1294 64 
Q 1041 219 916 525 
L 556 -1331 
L -19 -1331 
L 922 3500 
L 1497 3500 
L 1394 2969 
z
" id="DejaVuSans-Oblique-70" transform="scale(0.015625)"/>
     </defs>
     <use transform="translate(0 0.78125)" xlink:href="#DejaVuSans-Oblique-74"/>
     <use transform="translate(58.691406 0.78125)" xlink:href="#DejaVuSans-3d"/>
     <use transform="translate(181.445312 0.78125)" xlink:href="#DejaVuSans-2212"/>
     <use transform="translate(284.716797 0.78125)" xlink:href="#DejaVuSans-32"/>
     <use transform="translate(348.339844 0.78125)" xlink:href="#DejaVuSans-2e"/>
     <use transform="translate(372.376953 0.78125)" xlink:href="#DejaVuSans-37"/>
     <use transform="translate(436 0.78125)" xlink:href="#DejaVuSans-35"/>
     <use transform="translate(499.623047 0.78125)" xlink:href="#DejaVuSans-30"/>
     <use transform="translate(563.246094 0.78125)" xlink:href="#DejaVuSans-Oblique-45"/>
     <use transform="translate(645.912109 0.78125)" xlink:href="#DejaVuSans-2b"/>
     <use transform="translate(749.183594 0.78125)" xlink:href="#DejaVuSans-30"/>
     <use transform="translate(812.806641 0.78125)" xlink:href="#DejaVuSans-30"/>
     <use transform="translate(876.429688 0.78125)" xlink:href="#DejaVuSans-2c"/>
     <use transform="translate(927.699219 0.78125)" xlink:href="#DejaVuSans-Oblique-70"/>
     <use transform="translate(1010.658203 0.78125)" xlink:href="#DejaVuSans-3d"/>
     <use transform="translate(1113.929688 0.78125)" xlink:href="#DejaVuSans-35"/>
     <use transform="translate(1177.552734 0.78125)" xlink:href="#DejaVuSans-2e"/>
     <use transform="translate(1209.339844 0.78125)" xlink:href="#DejaVuSans-39"/>
     <use transform="translate(1272.962891 0.78125)" xlink:href="#DejaVuSans-36"/>
     <use transform="translate(1336.585938 0.78125)" xlink:href="#DejaVuSans-34"/>
     <use transform="translate(1400.208984 0.78125)" xlink:href="#DejaVuSans-Oblique-45"/>
     <use transform="translate(1482.875 0.78125)" xlink:href="#DejaVuSans-2212"/>
     <use transform="translate(1586.146484 0.78125)" xlink:href="#DejaVuSans-30"/>
     <use transform="translate(1649.769531 0.78125)" xlink:href="#DejaVuSans-33"/>
    </g>
   </g>
  </g>
  <g id="axes_2">
   <g id="patch_55">
    <path d="M 539.775 242.2 
L 997.2 242.2 
L 997.2 27.8 
L 539.775 27.8 
z
" style="fill:none;"/>
   </g>
   <g id="patch_56">
    <path clip-path="url(#pa7185e606a)" d="M 533.910577 135 
L 545.639423 135 
L 545.639423 135 
L 533.910577 135 
z
" style="fill:#0000ff;"/>
   </g>
   <g id="patch_57">
    <path clip-path="url(#pa7185e606a)" d="M 545.639423 135 
L 557.368269 135 
L 557.368269 135 
L 545.639423 135 
z
" style="fill:#0000ff;"/>
   </g>
   <g id="patch_58">
    <path clip-path="url(#pa7185e606a)" d="M 557.368269 135 
L 569.097115 135 
L 569.097115 109.64822 
L 557.368269 109.64822 
z
" style="fill:#0000ff;"/>
   </g>
   <g id="patch_59">
    <path clip-path="url(#pa7185e606a)" d="M 569.097115 135 
L 580.825962 135 
L 580.825962 38.156202 
L 569.097115 38.156202 
z
" style="fill:#0000ff;"/>
   </g>
   <g id="patch_60">
    <path clip-path="url(#pa7185e606a)" d="M 580.825962 135 
L 592.554808 135 
L 592.554808 97.986402 
L 580.825962 97.986402 
z
" style="fill:#0000ff;"/>
   </g>
   <g id="patch_61">
    <path clip-path="url(#pa7185e606a)" d="M 592.554808 135 
L 604.283654 135 
L 604.283654 124.098735 
L 592.554808 124.098735 
z
" style="fill:#0000ff;"/>
   </g>
   <g id="patch_62">
    <path clip-path="url(#pa7185e606a)" d="M 604.283654 135 
L 616.0125 135 
L 616.0125 128.028261 
L 604.283654 128.028261 
z
" style="fill:#0000ff;"/>
   </g>
   <g id="patch_63">
    <path clip-path="url(#pa7185e606a)" d="M 616.0125 135 
L 627.741346 135 
L 627.741346 121.310039 
L 616.0125 121.310039 
z
" style="fill:#0000ff;"/>
   </g>
   <g id="patch_64">
    <path clip-path="url(#pa7185e606a)" d="M 627.741346 135 
L 639.470192 135 
L 639.470192 124.60577 
L 627.741346 124.60577 
z
" style="fill:#0000ff;"/>
   </g>
   <g id="patch_65">
    <path clip-path="url(#pa7185e606a)" d="M 639.470192 135 
L 651.199038 135 
L 651.199038 128.281778 
L 639.470192 128.281778 
z
" style="fill:#0000ff;"/>
   </g>
   <g id="patch_66">
    <path clip-path="url(#pa7185e606a)" d="M 651.199038 135 
L 662.927885 135 
L 662.927885 123.971976 
L 651.199038 123.971976 
z
" style="fill:#0000ff;"/>
   </g>
   <g id="patch_67">
    <path clip-path="url(#pa7185e606a)" d="M 662.927885 135 
L 674.656731 135 
L 674.656731 135 
L 662.927885 135 
z
" style="fill:#0000ff;"/>
   </g>
   <g id="patch_68">
    <path clip-path="url(#pa7185e606a)" d="M 674.656731 135 
L 686.385577 135 
L 686.385577 130.309921 
L 674.656731 130.309921 
z
" style="fill:#0000ff;"/>
   </g>
   <g id="patch_69">
    <path clip-path="url(#pa7185e606a)" d="M 686.385577 135 
L 698.114423 135 
L 698.114423 128.915573 
L 686.385577 128.915573 
z
" style="fill:#0000ff;"/>
   </g>
   <g id="patch_70">
    <path clip-path="url(#pa7185e606a)" d="M 698.114423 135 
L 709.843269 135 
L 709.843269 125.619842 
L 698.114423 125.619842 
z
" style="fill:#0000ff;"/>
   </g>
   <g id="patch_71">
    <path clip-path="url(#pa7185e606a)" d="M 709.843269 135 
L 721.572115 135 
L 721.572115 135 
L 709.843269 135 
z
" style="fill:#0000ff;"/>
   </g>
   <g id="patch_72">
    <path clip-path="url(#pa7185e606a)" d="M 721.572115 135 
L 733.300962 135 
L 733.300962 103.437034 
L 721.572115 103.437034 
z
" style="fill:#0000ff;"/>
   </g>
   <g id="patch_73">
    <path clip-path="url(#pa7185e606a)" d="M 733.300962 135 
L 745.029808 135 
L 745.029808 114.465059 
L 733.300962 114.465059 
z
" style="fill:#0000ff;"/>
   </g>
   <g id="patch_74">
    <path clip-path="url(#pa7185e606a)" d="M 745.029808 135 
L 756.758654 135 
L 756.758654 135 
L 745.029808 135 
z
" style="fill:#0000ff;"/>
   </g>
   <g id="patch_75">
    <path clip-path="url(#pa7185e606a)" d="M 756.758654 135 
L 768.4875 135 
L 768.4875 135 
L 756.758654 135 
z
" style="fill:#0000ff;"/>
   </g>
   <g id="patch_76">
    <path clip-path="url(#pa7185e606a)" d="M 768.4875 135 
L 780.216346 135 
L 780.216346 68.831855 
L 768.4875 68.831855 
z
" style="fill:#0000ff;"/>
   </g>
   <g id="patch_77">
    <path clip-path="url(#pa7185e606a)" d="M 780.216346 135 
L 791.945192 135 
L 791.945192 135 
L 780.216346 135 
z
" style="fill:#0000ff;"/>
   </g>
   <g id="patch_78">
    <path clip-path="url(#pa7185e606a)" d="M 791.945192 135 
L 803.674038 135 
L 803.674038 135 
L 791.945192 135 
z
" style="fill:#0000ff;"/>
   </g>
   <g id="patch_79">
    <path clip-path="url(#pa7185e606a)" d="M 803.674038 135 
L 815.402885 135 
L 815.402885 135 
L 803.674038 135 
z
" style="fill:#0000ff;"/>
   </g>
   <g id="patch_80">
    <path clip-path="url(#pa7185e606a)" d="M 815.402885 135 
L 827.131731 135 
L 827.131731 135 
L 815.402885 135 
z
" style="fill:#0000ff;"/>
   </g>
   <g id="patch_81">
    <path clip-path="url(#pa7185e606a)" d="M 827.131731 135 
L 838.860577 135 
L 838.860577 135 
L 827.131731 135 
z
" style="fill:#0000ff;"/>
   </g>
   <g id="patch_82">
    <path clip-path="url(#pa7185e606a)" d="M 838.860577 135 
L 850.589423 135 
L 850.589423 135 
L 838.860577 135 
z
" style="fill:#0000ff;"/>
   </g>
   <g id="patch_83">
    <path clip-path="url(#pa7185e606a)" d="M 850.589423 135 
L 862.318269 135 
L 862.318269 135 
L 850.589423 135 
z
" style="fill:#0000ff;"/>
   </g>
   <g id="patch_84">
    <path clip-path="url(#pa7185e606a)" d="M 862.318269 135 
L 874.047115 135 
L 874.047115 135 
L 862.318269 135 
z
" style="fill:#0000ff;"/>
   </g>
   <g id="patch_85">
    <path clip-path="url(#pa7185e606a)" d="M 874.047115 135 
L 885.775962 135 
L 885.775962 135 
L 874.047115 135 
z
" style="fill:#0000ff;"/>
   </g>
   <g id="patch_86">
    <path clip-path="url(#pa7185e606a)" d="M 885.775962 135 
L 897.504808 135 
L 897.504808 135 
L 885.775962 135 
z
" style="fill:#0000ff;"/>
   </g>
   <g id="patch_87">
    <path clip-path="url(#pa7185e606a)" d="M 897.504808 135 
L 909.233654 135 
L 909.233654 135 
L 897.504808 135 
z
" style="fill:#0000ff;"/>
   </g>
   <g id="patch_88">
    <path clip-path="url(#pa7185e606a)" d="M 909.233654 135 
L 920.9625 135 
L 920.9625 135 
L 909.233654 135 
z
" style="fill:#0000ff;"/>
   </g>
   <g id="patch_89">
    <path clip-path="url(#pa7185e606a)" d="M 920.9625 135 
L 932.691346 135 
L 932.691346 135 
L 920.9625 135 
z
" style="fill:#0000ff;"/>
   </g>
   <g id="patch_90">
    <path clip-path="url(#pa7185e606a)" d="M 932.691346 135 
L 944.420192 135 
L 944.420192 135 
L 932.691346 135 
z
" style="fill:#0000ff;"/>
   </g>
   <g id="patch_91">
    <path clip-path="url(#pa7185e606a)" d="M 944.420192 135 
L 956.149038 135 
L 956.149038 135 
L 944.420192 135 
z
" style="fill:#0000ff;"/>
   </g>
   <g id="patch_92">
    <path clip-path="url(#pa7185e606a)" d="M 956.149038 135 
L 967.877885 135 
L 967.877885 135 
L 956.149038 135 
z
" style="fill:#0000ff;"/>
   </g>
   <g id="patch_93">
    <path clip-path="url(#pa7185e606a)" d="M 967.877885 135 
L 979.606731 135 
L 979.606731 135 
L 967.877885 135 
z
" style="fill:#0000ff;"/>
   </g>
   <g id="patch_94">
    <path clip-path="url(#pa7185e606a)" d="M 979.606731 135 
L 991.335577 135 
L 991.335577 135 
L 979.606731 135 
z
" style="fill:#0000ff;"/>
   </g>
   <g id="patch_95">
    <path clip-path="url(#pa7185e606a)" d="M 533.910577 135 
L 545.639423 135 
L 545.639423 135 
L 533.910577 135 
z
" style="fill:#ffa500;opacity:0.8;"/>
   </g>
   <g id="patch_96">
    <path clip-path="url(#pa7185e606a)" d="M 545.639423 135 
L 557.368269 135 
L 557.368269 135 
L 545.639423 135 
z
" style="fill:#ffa500;opacity:0.8;"/>
   </g>
   <g id="patch_97">
    <path clip-path="url(#pa7185e606a)" d="M 557.368269 135 
L 569.097115 135 
L 569.097115 124.982192 
L 557.368269 124.982192 
z
" style="fill:#ffa500;opacity:0.8;"/>
   </g>
   <g id="patch_98">
    <path clip-path="url(#pa7185e606a)" d="M 569.097115 135 
L 580.825962 135 
L 580.825962 70.073261 
L 569.097115 70.073261 
z
" style="fill:#ffa500;opacity:0.8;"/>
   </g>
   <g id="patch_99">
    <path clip-path="url(#pa7185e606a)" d="M 580.825962 135 
L 592.554808 135 
L 592.554808 78.389932 
L 580.825962 78.389932 
z
" style="fill:#ffa500;opacity:0.8;"/>
   </g>
   <g id="patch_100">
    <path clip-path="url(#pa7185e606a)" d="M 592.554808 135 
L 604.283654 135 
L 604.283654 125.643745 
L 592.554808 125.643745 
z
" style="fill:#ffa500;opacity:0.8;"/>
   </g>
   <g id="patch_101">
    <path clip-path="url(#pa7185e606a)" d="M 604.283654 135 
L 616.0125 135 
L 616.0125 128.289959 
L 604.283654 128.289959 
z
" style="fill:#ffa500;opacity:0.8;"/>
   </g>
   <g id="patch_102">
    <path clip-path="url(#pa7185e606a)" d="M 616.0125 135 
L 627.741346 135 
L 627.741346 117.516089 
L 616.0125 117.516089 
z
" style="fill:#ffa500;opacity:0.8;"/>
   </g>
   <g id="patch_103">
    <path clip-path="url(#pa7185e606a)" d="M 627.741346 135 
L 639.470192 135 
L 639.470192 114.491845 
L 627.741346 114.491845 
z
" style="fill:#ffa500;opacity:0.8;"/>
   </g>
   <g id="patch_104">
    <path clip-path="url(#pa7185e606a)" d="M 639.470192 135 
L 651.199038 135 
L 651.199038 125.265715 
L 639.470192 125.265715 
z
" style="fill:#ffa500;opacity:0.8;"/>
   </g>
   <g id="patch_105">
    <path clip-path="url(#pa7185e606a)" d="M 651.199038 135 
L 662.927885 135 
L 662.927885 127.43939 
L 651.199038 127.43939 
z
" style="fill:#ffa500;opacity:0.8;"/>
   </g>
   <g id="patch_106">
    <path clip-path="url(#pa7185e606a)" d="M 662.927885 135 
L 674.656731 135 
L 674.656731 127.250375 
L 662.927885 127.250375 
z
" style="fill:#ffa500;opacity:0.8;"/>
   </g>
   <g id="patch_107">
    <path clip-path="url(#pa7185e606a)" d="M 674.656731 135 
L 686.385577 135 
L 686.385577 131.975756 
L 674.656731 131.975756 
z
" style="fill:#ffa500;opacity:0.8;"/>
   </g>
   <g id="patch_108">
    <path clip-path="url(#pa7185e606a)" d="M 686.385577 135 
L 698.114423 135 
L 698.114423 131.314203 
L 686.385577 131.314203 
z
" style="fill:#ffa500;opacity:0.8;"/>
   </g>
   <g id="patch_109">
    <path clip-path="url(#pa7185e606a)" d="M 698.114423 135 
L 709.843269 135 
L 709.843269 123.753593 
L 698.114423 123.753593 
z
" style="fill:#ffa500;opacity:0.8;"/>
   </g>
   <g id="patch_110">
    <path clip-path="url(#pa7185e606a)" d="M 709.843269 135 
L 721.572115 135 
L 721.572115 135 
L 709.843269 135 
z
" style="fill:#ffa500;opacity:0.8;"/>
   </g>
   <g id="patch_111">
    <path clip-path="url(#pa7185e606a)" d="M 721.572115 135 
L 733.300962 135 
L 733.300962 119.311734 
L 721.572115 119.311734 
z
" style="fill:#ffa500;opacity:0.8;"/>
   </g>
   <g id="patch_112">
    <path clip-path="url(#pa7185e606a)" d="M 733.300962 135 
L 745.029808 135 
L 745.029808 89.825355 
L 733.300962 89.825355 
z
" style="fill:#ffa500;opacity:0.8;"/>
   </g>
   <g id="patch_113">
    <path clip-path="url(#pa7185e606a)" d="M 745.029808 135 
L 756.758654 135 
L 756.758654 128.667989 
L 745.029808 128.667989 
z
" style="fill:#ffa500;opacity:0.8;"/>
   </g>
   <g id="patch_114">
    <path clip-path="url(#pa7185e606a)" d="M 756.758654 135 
L 768.4875 135 
L 768.4875 135 
L 756.758654 135 
z
" style="fill:#ffa500;opacity:0.8;"/>
   </g>
   <g id="patch_115">
    <path clip-path="url(#pa7185e606a)" d="M 768.4875 135 
L 780.216346 135 
L 780.216346 73.475536 
L 768.4875 73.475536 
z
" style="fill:#ffa500;opacity:0.8;"/>
   </g>
   <g id="patch_116">
    <path clip-path="url(#pa7185e606a)" d="M 780.216346 135 
L 791.945192 135 
L 791.945192 135 
L 780.216346 135 
z
" style="fill:#ffa500;opacity:0.8;"/>
   </g>
   <g id="patch_117">
    <path clip-path="url(#pa7185e606a)" d="M 791.945192 135 
L 803.674038 135 
L 803.674038 135 
L 791.945192 135 
z
" style="fill:#ffa500;opacity:0.8;"/>
   </g>
   <g id="patch_118">
    <path clip-path="url(#pa7185e606a)" d="M 803.674038 135 
L 815.402885 135 
L 815.402885 135 
L 803.674038 135 
z
" style="fill:#ffa500;opacity:0.8;"/>
   </g>
   <g id="patch_119">
    <path clip-path="url(#pa7185e606a)" d="M 815.402885 135 
L 827.131731 135 
L 827.131731 135 
L 815.402885 135 
z
" style="fill:#ffa500;opacity:0.8;"/>
   </g>
   <g id="patch_120">
    <path clip-path="url(#pa7185e606a)" d="M 827.131731 135 
L 838.860577 135 
L 838.860577 135 
L 827.131731 135 
z
" style="fill:#ffa500;opacity:0.8;"/>
   </g>
   <g id="patch_121">
    <path clip-path="url(#pa7185e606a)" d="M 838.860577 135 
L 850.589423 135 
L 850.589423 135 
L 838.860577 135 
z
" style="fill:#ffa500;opacity:0.8;"/>
   </g>
   <g id="patch_122">
    <path clip-path="url(#pa7185e606a)" d="M 850.589423 135 
L 862.318269 135 
L 862.318269 135 
L 850.589423 135 
z
" style="fill:#ffa500;opacity:0.8;"/>
   </g>
   <g id="patch_123">
    <path clip-path="url(#pa7185e606a)" d="M 862.318269 135 
L 874.047115 135 
L 874.047115 135 
L 862.318269 135 
z
" style="fill:#ffa500;opacity:0.8;"/>
   </g>
   <g id="patch_124">
    <path clip-path="url(#pa7185e606a)" d="M 874.047115 135 
L 885.775962 135 
L 885.775962 135 
L 874.047115 135 
z
" style="fill:#ffa500;opacity:0.8;"/>
   </g>
   <g id="patch_125">
    <path clip-path="url(#pa7185e606a)" d="M 885.775962 135 
L 897.504808 135 
L 897.504808 135 
L 885.775962 135 
z
" style="fill:#ffa500;opacity:0.8;"/>
   </g>
   <g id="patch_126">
    <path clip-path="url(#pa7185e606a)" d="M 897.504808 135 
L 909.233654 135 
L 909.233654 135 
L 897.504808 135 
z
" style="fill:#ffa500;opacity:0.8;"/>
   </g>
   <g id="patch_127">
    <path clip-path="url(#pa7185e606a)" d="M 909.233654 135 
L 920.9625 135 
L 920.9625 135 
L 909.233654 135 
z
" style="fill:#ffa500;opacity:0.8;"/>
   </g>
   <g id="patch_128">
    <path clip-path="url(#pa7185e606a)" d="M 920.9625 135 
L 932.691346 135 
L 932.691346 135 
L 920.9625 135 
z
" style="fill:#ffa500;opacity:0.8;"/>
   </g>
   <g id="patch_129">
    <path clip-path="url(#pa7185e606a)" d="M 932.691346 135 
L 944.420192 135 
L 944.420192 135 
L 932.691346 135 
z
" style="fill:#ffa500;opacity:0.8;"/>
   </g>
   <g id="patch_130">
    <path clip-path="url(#pa7185e606a)" d="M 944.420192 135 
L 956.149038 135 
L 956.149038 135 
L 944.420192 135 
z
" style="fill:#ffa500;opacity:0.8;"/>
   </g>
   <g id="patch_131">
    <path clip-path="url(#pa7185e606a)" d="M 956.149038 135 
L 967.877885 135 
L 967.877885 135 
L 956.149038 135 
z
" style="fill:#ffa500;opacity:0.8;"/>
   </g>
   <g id="patch_132">
    <path clip-path="url(#pa7185e606a)" d="M 967.877885 135 
L 979.606731 135 
L 979.606731 135 
L 967.877885 135 
z
" style="fill:#ffa500;opacity:0.8;"/>
   </g>
   <g id="patch_133">
    <path clip-path="url(#pa7185e606a)" d="M 979.606731 135 
L 991.335577 135 
L 991.335577 135 
L 979.606731 135 
z
" style="fill:#ffa500;opacity:0.8;"/>
   </g>
   <g id="patch_134">
    <path clip-path="url(#pa7185e606a)" d="M 533.910577 135 
L 545.639423 135 
L 545.639423 135 
L 533.910577 135 
z
" style="fill:#0000ff;"/>
   </g>
   <g id="patch_135">
    <path clip-path="url(#pa7185e606a)" d="M 545.639423 135 
L 557.368269 135 
L 557.368269 135 
L 545.639423 135 
z
" style="fill:#0000ff;"/>
   </g>
   <g id="patch_136">
    <path clip-path="url(#pa7185e606a)" d="M 557.368269 135 
L 569.097115 135 
L 569.097115 135 
L 557.368269 135 
z
" style="fill:#0000ff;"/>
   </g>
   <g id="patch_137">
    <path clip-path="url(#pa7185e606a)" d="M 569.097115 135 
L 580.825962 135 
L 580.825962 135 
L 569.097115 135 
z
" style="fill:#0000ff;"/>
   </g>
   <g id="patch_138">
    <path clip-path="url(#pa7185e606a)" d="M 580.825962 135 
L 592.554808 135 
L 592.554808 135 
L 580.825962 135 
z
" style="fill:#0000ff;"/>
   </g>
   <g id="patch_139">
    <path clip-path="url(#pa7185e606a)" d="M 592.554808 135 
L 604.283654 135 
L 604.283654 146.953803 
L 592.554808 146.953803 
z
" style="fill:#0000ff;"/>
   </g>
   <g id="patch_140">
    <path clip-path="url(#pa7185e606a)" d="M 604.283654 135 
L 616.0125 135 
L 616.0125 151.009558 
L 604.283654 151.009558 
z
" style="fill:#0000ff;"/>
   </g>
   <g id="patch_141">
    <path clip-path="url(#pa7185e606a)" d="M 616.0125 135 
L 627.741346 135 
L 627.741346 150.582636 
L 616.0125 150.582636 
z
" style="fill:#0000ff;"/>
   </g>
   <g id="patch_142">
    <path clip-path="url(#pa7185e606a)" d="M 627.741346 135 
L 639.470192 135 
L 639.470192 151.863401 
L 627.741346 151.863401 
z
" style="fill:#0000ff;"/>
   </g>
   <g id="patch_143">
    <path clip-path="url(#pa7185e606a)" d="M 639.470192 135 
L 651.199038 135 
L 651.199038 152.930705 
L 639.470192 152.930705 
z
" style="fill:#0000ff;"/>
   </g>
   <g id="patch_144">
    <path clip-path="url(#pa7185e606a)" d="M 651.199038 135 
L 662.927885 135 
L 662.927885 157.840303 
L 651.199038 157.840303 
z
" style="fill:#0000ff;"/>
   </g>
   <g id="patch_145">
    <path clip-path="url(#pa7185e606a)" d="M 662.927885 135 
L 674.656731 135 
L 674.656731 152.503783 
L 662.927885 152.503783 
z
" style="fill:#0000ff;"/>
   </g>
   <g id="patch_146">
    <path clip-path="url(#pa7185e606a)" d="M 674.656731 135 
L 686.385577 135 
L 686.385577 147.380725 
L 674.656731 147.380725 
z
" style="fill:#0000ff;"/>
   </g>
   <g id="patch_147">
    <path clip-path="url(#pa7185e606a)" d="M 686.385577 135 
L 698.114423 135 
L 698.114423 143.751892 
L 686.385577 143.751892 
z
" style="fill:#0000ff;"/>
   </g>
   <g id="patch_148">
    <path clip-path="url(#pa7185e606a)" d="M 698.114423 135 
L 709.843269 135 
L 709.843269 148.234568 
L 698.114423 148.234568 
z
" style="fill:#0000ff;"/>
   </g>
   <g id="patch_149">
    <path clip-path="url(#pa7185e606a)" d="M 709.843269 135 
L 721.572115 135 
L 721.572115 144.819196 
L 709.843269 144.819196 
z
" style="fill:#0000ff;"/>
   </g>
   <g id="patch_150">
    <path clip-path="url(#pa7185e606a)" d="M 721.572115 135 
L 733.300962 135 
L 733.300962 144.605735 
L 721.572115 144.605735 
z
" style="fill:#0000ff;"/>
   </g>
   <g id="patch_151">
    <path clip-path="url(#pa7185e606a)" d="M 733.300962 135 
L 745.029808 135 
L 745.029808 157.840303 
L 733.300962 157.840303 
z
" style="fill:#0000ff;"/>
   </g>
   <g id="patch_152">
    <path clip-path="url(#pa7185e606a)" d="M 745.029808 135 
L 756.758654 135 
L 756.758654 164.457587 
L 745.029808 164.457587 
z
" style="fill:#0000ff;"/>
   </g>
   <g id="patch_153">
    <path clip-path="url(#pa7185e606a)" d="M 756.758654 135 
L 768.4875 135 
L 768.4875 152.503783 
L 756.758654 152.503783 
z
" style="fill:#0000ff;"/>
   </g>
   <g id="patch_154">
    <path clip-path="url(#pa7185e606a)" d="M 768.4875 135 
L 780.216346 135 
L 780.216346 162.7499 
L 768.4875 162.7499 
z
" style="fill:#0000ff;"/>
   </g>
   <g id="patch_155">
    <path clip-path="url(#pa7185e606a)" d="M 780.216346 135 
L 791.945192 135 
L 791.945192 160.188371 
L 780.216346 160.188371 
z
" style="fill:#0000ff;"/>
   </g>
   <g id="patch_156">
    <path clip-path="url(#pa7185e606a)" d="M 791.945192 135 
L 803.674038 135 
L 803.674038 145.673039 
L 791.945192 145.673039 
z
" style="fill:#0000ff;"/>
   </g>
   <g id="patch_157">
    <path clip-path="url(#pa7185e606a)" d="M 803.674038 135 
L 815.402885 135 
L 815.402885 138.628833 
L 803.674038 138.628833 
z
" style="fill:#0000ff;"/>
   </g>
   <g id="patch_158">
    <path clip-path="url(#pa7185e606a)" d="M 815.402885 135 
L 827.131731 135 
L 827.131731 141.403823 
L 815.402885 141.403823 
z
" style="fill:#0000ff;"/>
   </g>
   <g id="patch_159">
    <path clip-path="url(#pa7185e606a)" d="M 827.131731 135 
L 838.860577 135 
L 838.860577 140.123059 
L 827.131731 140.123059 
z
" style="fill:#0000ff;"/>
   </g>
   <g id="patch_160">
    <path clip-path="url(#pa7185e606a)" d="M 838.860577 135 
L 850.589423 135 
L 850.589423 139.696137 
L 838.860577 139.696137 
z
" style="fill:#0000ff;"/>
   </g>
   <g id="patch_161">
    <path clip-path="url(#pa7185e606a)" d="M 850.589423 135 
L 862.318269 135 
L 862.318269 139.269215 
L 850.589423 139.269215 
z
" style="fill:#0000ff;"/>
   </g>
   <g id="patch_162">
    <path clip-path="url(#pa7185e606a)" d="M 862.318269 135 
L 874.047115 135 
L 874.047115 135.853843 
L 862.318269 135.853843 
z
" style="fill:#0000ff;"/>
   </g>
   <g id="patch_163">
    <path clip-path="url(#pa7185e606a)" d="M 874.047115 135 
L 885.775962 135 
L 885.775962 145.459578 
L 874.047115 145.459578 
z
" style="fill:#0000ff;"/>
   </g>
   <g id="patch_164">
    <path clip-path="url(#pa7185e606a)" d="M 885.775962 135 
L 897.504808 135 
L 897.504808 145.673039 
L 885.775962 145.673039 
z
" style="fill:#0000ff;"/>
   </g>
   <g id="patch_165">
    <path clip-path="url(#pa7185e606a)" d="M 897.504808 135 
L 909.233654 135 
L 909.233654 137.561529 
L 897.504808 137.561529 
z
" style="fill:#0000ff;"/>
   </g>
   <g id="patch_166">
    <path clip-path="url(#pa7185e606a)" d="M 909.233654 135 
L 920.9625 135 
L 920.9625 137.134608 
L 909.233654 137.134608 
z
" style="fill:#0000ff;"/>
   </g>
   <g id="patch_167">
    <path clip-path="url(#pa7185e606a)" d="M 920.9625 135 
L 932.691346 135 
L 932.691346 135.640382 
L 920.9625 135.640382 
z
" style="fill:#0000ff;"/>
   </g>
   <g id="patch_168">
    <path clip-path="url(#pa7185e606a)" d="M 932.691346 135 
L 944.420192 135 
L 944.420192 135 
L 932.691346 135 
z
" style="fill:#0000ff;"/>
   </g>
   <g id="patch_169">
    <path clip-path="url(#pa7185e606a)" d="M 944.420192 135 
L 956.149038 135 
L 956.149038 135 
L 944.420192 135 
z
" style="fill:#0000ff;"/>
   </g>
   <g id="patch_170">
    <path clip-path="url(#pa7185e606a)" d="M 956.149038 135 
L 967.877885 135 
L 967.877885 135 
L 956.149038 135 
z
" style="fill:#0000ff;"/>
   </g>
   <g id="patch_171">
    <path clip-path="url(#pa7185e606a)" d="M 967.877885 135 
L 979.606731 135 
L 979.606731 135 
L 967.877885 135 
z
" style="fill:#0000ff;"/>
   </g>
   <g id="patch_172">
    <path clip-path="url(#pa7185e606a)" d="M 979.606731 135 
L 991.335577 135 
L 991.335577 135 
L 979.606731 135 
z
" style="fill:#0000ff;"/>
   </g>
   <g id="patch_173">
    <path clip-path="url(#pa7185e606a)" d="M 533.910577 135 
L 545.639423 135 
L 545.639423 135 
L 533.910577 135 
z
" style="fill:#ffa500;opacity:0.8;"/>
   </g>
   <g id="patch_174">
    <path clip-path="url(#pa7185e606a)" d="M 545.639423 135 
L 557.368269 135 
L 557.368269 135 
L 545.639423 135 
z
" style="fill:#ffa500;opacity:0.8;"/>
   </g>
   <g id="patch_175">
    <path clip-path="url(#pa7185e606a)" d="M 557.368269 135 
L 569.097115 135 
L 569.097115 135 
L 557.368269 135 
z
" style="fill:#ffa500;opacity:0.8;"/>
   </g>
   <g id="patch_176">
    <path clip-path="url(#pa7185e606a)" d="M 569.097115 135 
L 580.825962 135 
L 580.825962 135 
L 569.097115 135 
z
" style="fill:#ffa500;opacity:0.8;"/>
   </g>
   <g id="patch_177">
    <path clip-path="url(#pa7185e606a)" d="M 580.825962 135 
L 592.554808 135 
L 592.554808 135 
L 580.825962 135 
z
" style="fill:#ffa500;opacity:0.8;"/>
   </g>
   <g id="patch_178">
    <path clip-path="url(#pa7185e606a)" d="M 592.554808 135 
L 604.283654 135 
L 604.283654 169.723204 
L 592.554808 169.723204 
z
" style="fill:#ffa500;opacity:0.8;"/>
   </g>
   <g id="patch_179">
    <path clip-path="url(#pa7185e606a)" d="M 604.283654 135 
L 616.0125 135 
L 616.0125 170.985866 
L 604.283654 170.985866 
z
" style="fill:#ffa500;opacity:0.8;"/>
   </g>
   <g id="patch_180">
    <path clip-path="url(#pa7185e606a)" d="M 616.0125 135 
L 627.741346 135 
L 627.741346 156.465253 
L 616.0125 156.465253 
z
" style="fill:#ffa500;opacity:0.8;"/>
   </g>
   <g id="patch_181">
    <path clip-path="url(#pa7185e606a)" d="M 627.741346 135 
L 639.470192 135 
L 639.470192 154.57126 
L 627.741346 154.57126 
z
" style="fill:#ffa500;opacity:0.8;"/>
   </g>
   <g id="patch_182">
    <path clip-path="url(#pa7185e606a)" d="M 639.470192 135 
L 651.199038 135 
L 651.199038 150.151943 
L 639.470192 150.151943 
z
" style="fill:#ffa500;opacity:0.8;"/>
   </g>
   <g id="patch_183">
    <path clip-path="url(#pa7185e606a)" d="M 651.199038 135 
L 662.927885 135 
L 662.927885 153.308598 
L 651.199038 153.308598 
z
" style="fill:#ffa500;opacity:0.8;"/>
   </g>
   <g id="patch_184">
    <path clip-path="url(#pa7185e606a)" d="M 662.927885 135 
L 674.656731 135 
L 674.656731 152.045936 
L 662.927885 152.045936 
z
" style="fill:#ffa500;opacity:0.8;"/>
   </g>
   <g id="patch_185">
    <path clip-path="url(#pa7185e606a)" d="M 674.656731 135 
L 686.385577 135 
L 686.385577 143.207303 
L 674.656731 143.207303 
z
" style="fill:#ffa500;opacity:0.8;"/>
   </g>
   <g id="patch_186">
    <path clip-path="url(#pa7185e606a)" d="M 686.385577 135 
L 698.114423 135 
L 698.114423 144.469965 
L 686.385577 144.469965 
z
" style="fill:#ffa500;opacity:0.8;"/>
   </g>
   <g id="patch_187">
    <path clip-path="url(#pa7185e606a)" d="M 698.114423 135 
L 709.843269 135 
L 709.843269 139.419317 
L 698.114423 139.419317 
z
" style="fill:#ffa500;opacity:0.8;"/>
   </g>
   <g id="patch_188">
    <path clip-path="url(#pa7185e606a)" d="M 709.843269 135 
L 721.572115 135 
L 721.572115 148.257951 
L 709.843269 148.257951 
z
" style="fill:#ffa500;opacity:0.8;"/>
   </g>
   <g id="patch_189">
    <path clip-path="url(#pa7185e606a)" d="M 721.572115 135 
L 733.300962 135 
L 733.300962 144.469965 
L 721.572115 144.469965 
z
" style="fill:#ffa500;opacity:0.8;"/>
   </g>
   <g id="patch_190">
    <path clip-path="url(#pa7185e606a)" d="M 733.300962 135 
L 745.029808 135 
L 745.029808 152.677267 
L 733.300962 152.677267 
z
" style="fill:#ffa500;opacity:0.8;"/>
   </g>
   <g id="patch_191">
    <path clip-path="url(#pa7185e606a)" d="M 745.029808 135 
L 756.758654 135 
L 756.758654 140.681979 
L 745.029808 140.681979 
z
" style="fill:#ffa500;opacity:0.8;"/>
   </g>
   <g id="patch_192">
    <path clip-path="url(#pa7185e606a)" d="M 756.758654 135 
L 768.4875 135 
L 768.4875 147.62662 
L 756.758654 147.62662 
z
" style="fill:#ffa500;opacity:0.8;"/>
   </g>
   <g id="patch_193">
    <path clip-path="url(#pa7185e606a)" d="M 768.4875 135 
L 780.216346 135 
L 780.216346 135.631331 
L 768.4875 135.631331 
z
" style="fill:#ffa500;opacity:0.8;"/>
   </g>
   <g id="patch_194">
    <path clip-path="url(#pa7185e606a)" d="M 780.216346 135 
L 791.945192 135 
L 791.945192 167.19788 
L 780.216346 167.19788 
z
" style="fill:#ffa500;opacity:0.8;"/>
   </g>
   <g id="patch_195">
    <path clip-path="url(#pa7185e606a)" d="M 791.945192 135 
L 803.674038 135 
L 803.674038 156.465253 
L 791.945192 156.465253 
z
" style="fill:#ffa500;opacity:0.8;"/>
   </g>
   <g id="patch_196">
    <path clip-path="url(#pa7185e606a)" d="M 803.674038 135 
L 815.402885 135 
L 815.402885 160.253239 
L 803.674038 160.253239 
z
" style="fill:#ffa500;opacity:0.8;"/>
   </g>
   <g id="patch_197">
    <path clip-path="url(#pa7185e606a)" d="M 815.402885 135 
L 827.131731 135 
L 827.131731 157.096584 
L 815.402885 157.096584 
z
" style="fill:#ffa500;opacity:0.8;"/>
   </g>
   <g id="patch_198">
    <path clip-path="url(#pa7185e606a)" d="M 827.131731 135 
L 838.860577 135 
L 838.860577 143.207303 
L 827.131731 143.207303 
z
" style="fill:#ffa500;opacity:0.8;"/>
   </g>
   <g id="patch_199">
    <path clip-path="url(#pa7185e606a)" d="M 838.860577 135 
L 850.589423 135 
L 850.589423 138.156655 
L 838.860577 138.156655 
z
" style="fill:#ffa500;opacity:0.8;"/>
   </g>
   <g id="patch_200">
    <path clip-path="url(#pa7185e606a)" d="M 850.589423 135 
L 862.318269 135 
L 862.318269 135 
L 850.589423 135 
z
" style="fill:#ffa500;opacity:0.8;"/>
   </g>
   <g id="patch_201">
    <path clip-path="url(#pa7185e606a)" d="M 862.318269 135 
L 874.047115 135 
L 874.047115 135 
L 862.318269 135 
z
" style="fill:#ffa500;opacity:0.8;"/>
   </g>
   <g id="patch_202">
    <path clip-path="url(#pa7185e606a)" d="M 874.047115 135 
L 885.775962 135 
L 885.775962 136.262662 
L 874.047115 136.262662 
z
" style="fill:#ffa500;opacity:0.8;"/>
   </g>
   <g id="patch_203">
    <path clip-path="url(#pa7185e606a)" d="M 885.775962 135 
L 897.504808 135 
L 897.504808 135 
L 885.775962 135 
z
" style="fill:#ffa500;opacity:0.8;"/>
   </g>
   <g id="patch_204">
    <path clip-path="url(#pa7185e606a)" d="M 897.504808 135 
L 909.233654 135 
L 909.233654 135 
L 897.504808 135 
z
" style="fill:#ffa500;opacity:0.8;"/>
   </g>
   <g id="patch_205">
    <path clip-path="url(#pa7185e606a)" d="M 909.233654 135 
L 920.9625 135 
L 920.9625 135 
L 909.233654 135 
z
" style="fill:#ffa500;opacity:0.8;"/>
   </g>
   <g id="patch_206">
    <path clip-path="url(#pa7185e606a)" d="M 920.9625 135 
L 932.691346 135 
L 932.691346 135 
L 920.9625 135 
z
" style="fill:#ffa500;opacity:0.8;"/>
   </g>
   <g id="patch_207">
    <path clip-path="url(#pa7185e606a)" d="M 932.691346 135 
L 944.420192 135 
L 944.420192 135 
L 932.691346 135 
z
" style="fill:#ffa500;opacity:0.8;"/>
   </g>
   <g id="patch_208">
    <path clip-path="url(#pa7185e606a)" d="M 944.420192 135 
L 956.149038 135 
L 956.149038 135 
L 944.420192 135 
z
" style="fill:#ffa500;opacity:0.8;"/>
   </g>
   <g id="patch_209">
    <path clip-path="url(#pa7185e606a)" d="M 956.149038 135 
L 967.877885 135 
L 967.877885 135 
L 956.149038 135 
z
" style="fill:#ffa500;opacity:0.8;"/>
   </g>
   <g id="patch_210">
    <path clip-path="url(#pa7185e606a)" d="M 967.877885 135 
L 979.606731 135 
L 979.606731 135 
L 967.877885 135 
z
" style="fill:#ffa500;opacity:0.8;"/>
   </g>
   <g id="patch_211">
    <path clip-path="url(#pa7185e606a)" d="M 979.606731 135 
L 991.335577 135 
L 991.335577 135 
L 979.606731 135 
z
" style="fill:#ffa500;opacity:0.8;"/>
   </g>
   <g id="matplotlib.axis_3">
    <g id="xtick_10">
     <g id="line2d_20">
      <g>
       <use style="stroke:#000000;stroke-width:0.8;" x="539.775" xlink:href="#ma077595cf3" y="242.2"/>
      </g>
     </g>
     <g id="text_22">
      <!-- 0 -->
      <g transform="translate(536.59375 256.798437)scale(0.1 -0.1)">
       <use xlink:href="#DejaVuSans-30"/>
      </g>
     </g>
    </g>
    <g id="xtick_11">
     <g id="line2d_21">
      <g>
       <use style="stroke:#000000;stroke-width:0.8;" x="624.60402" xlink:href="#ma077595cf3" y="242.2"/>
      </g>
     </g>
     <g id="text_23">
      <!-- 1 -->
      <g transform="translate(621.42277 256.798437)scale(0.1 -0.1)">
       <use xlink:href="#DejaVuSans-31"/>
      </g>
     </g>
    </g>
    <g id="xtick_12">
     <g id="line2d_22">
      <g>
       <use style="stroke:#000000;stroke-width:0.8;" x="709.433039" xlink:href="#ma077595cf3" y="242.2"/>
      </g>
     </g>
     <g id="text_24">
      <!-- 2 -->
      <g transform="translate(706.251789 256.798437)scale(0.1 -0.1)">
       <use xlink:href="#DejaVuSans-32"/>
      </g>
     </g>
    </g>
    <g id="xtick_13">
     <g id="line2d_23">
      <g>
       <use style="stroke:#000000;stroke-width:0.8;" x="794.262059" xlink:href="#ma077595cf3" y="242.2"/>
      </g>
     </g>
     <g id="text_25">
      <!-- 3 -->
      <g transform="translate(791.080809 256.798437)scale(0.1 -0.1)">
       <use xlink:href="#DejaVuSans-33"/>
      </g>
     </g>
    </g>
    <g id="xtick_14">
     <g id="line2d_24">
      <g>
       <use style="stroke:#000000;stroke-width:0.8;" x="879.091078" xlink:href="#ma077595cf3" y="242.2"/>
      </g>
     </g>
     <g id="text_26">
      <!-- 4 -->
      <g transform="translate(875.909828 256.798437)scale(0.1 -0.1)">
       <use xlink:href="#DejaVuSans-34"/>
      </g>
     </g>
    </g>
    <g id="xtick_15">
     <g id="line2d_25">
      <g>
       <use style="stroke:#000000;stroke-width:0.8;" x="963.920098" xlink:href="#ma077595cf3" y="242.2"/>
      </g>
     </g>
     <g id="text_27">
      <!-- 5 -->
      <g transform="translate(960.738848 256.798437)scale(0.1 -0.1)">
       <use xlink:href="#DejaVuSans-35"/>
      </g>
     </g>
    </g>
    <g id="text_28">
     <!-- Action entropy -->
     <g transform="translate(717.261719 273.515938)scale(0.14 -0.14)">
      <defs>
       <path d="M 2188 4044 
L 1331 1722 
L 3047 1722 
L 2188 4044 
z
M 1831 4666 
L 2547 4666 
L 4325 0 
L 3669 0 
L 3244 1197 
L 1141 1197 
L 716 0 
L 50 0 
L 1831 4666 
z
" id="DejaVuSans-41" transform="scale(0.015625)"/>
       <path d="M 3122 3366 
L 3122 2828 
Q 2878 2963 2633 3030 
Q 2388 3097 2138 3097 
Q 1578 3097 1268 2742 
Q 959 2388 959 1747 
Q 959 1106 1268 751 
Q 1578 397 2138 397 
Q 2388 397 2633 464 
Q 2878 531 3122 666 
L 3122 134 
Q 2881 22 2623 -34 
Q 2366 -91 2075 -91 
Q 1284 -91 818 406 
Q 353 903 353 1747 
Q 353 2603 823 3093 
Q 1294 3584 2113 3584 
Q 2378 3584 2631 3529 
Q 2884 3475 3122 3366 
z
" id="DejaVuSans-63" transform="scale(0.015625)"/>
       <path d="M 3513 2113 
L 3513 0 
L 2938 0 
L 2938 2094 
Q 2938 2591 2744 2837 
Q 2550 3084 2163 3084 
Q 1697 3084 1428 2787 
Q 1159 2491 1159 1978 
L 1159 0 
L 581 0 
L 581 3500 
L 1159 3500 
L 1159 2956 
Q 1366 3272 1645 3428 
Q 1925 3584 2291 3584 
Q 2894 3584 3203 3211 
Q 3513 2838 3513 2113 
z
" id="DejaVuSans-6e" transform="scale(0.015625)"/>
      </defs>
      <use xlink:href="#DejaVuSans-41"/>
      <use x="66.658203" xlink:href="#DejaVuSans-63"/>
      <use x="121.638672" xlink:href="#DejaVuSans-74"/>
      <use x="160.847656" xlink:href="#DejaVuSans-69"/>
      <use x="188.630859" xlink:href="#DejaVuSans-6f"/>
      <use x="249.8125" xlink:href="#DejaVuSans-6e"/>
      <use x="313.191406" xlink:href="#DejaVuSans-20"/>
      <use x="344.978516" xlink:href="#DejaVuSans-65"/>
      <use x="406.501953" xlink:href="#DejaVuSans-6e"/>
      <use x="469.880859" xlink:href="#DejaVuSans-74"/>
      <use x="509.089844" xlink:href="#DejaVuSans-72"/>
      <use x="547.953125" xlink:href="#DejaVuSans-6f"/>
      <use x="609.134766" xlink:href="#DejaVuSans-70"/>
      <use x="672.611328" xlink:href="#DejaVuSans-79"/>
     </g>
    </g>
   </g>
   <g id="matplotlib.axis_4">
    <g id="ytick_11">
     <g id="line2d_26">
      <g>
       <use style="stroke:#000000;stroke-width:0.8;" x="539.775" xlink:href="#ma6a1c10715" y="242.2"/>
      </g>
     </g>
     <g id="text_29">
      <!-- 0.3 -->
      <g transform="translate(508.492188 245.999219)scale(0.1 -0.1)">
       <use xlink:href="#DejaVuSans-2212"/>
       <use x="83.789062" xlink:href="#DejaVuSans-30"/>
       <use x="147.412109" xlink:href="#DejaVuSans-2e"/>
       <use x="179.199219" xlink:href="#DejaVuSans-33"/>
      </g>
     </g>
    </g>
    <g id="ytick_12">
     <g id="line2d_27">
      <g>
       <use style="stroke:#000000;stroke-width:0.8;" x="539.775" xlink:href="#ma6a1c10715" y="206.466667"/>
      </g>
     </g>
     <g id="text_30">
      <!-- 0.2 -->
      <g transform="translate(508.492188 210.265885)scale(0.1 -0.1)">
       <use xlink:href="#DejaVuSans-2212"/>
       <use x="83.789062" xlink:href="#DejaVuSans-30"/>
       <use x="147.412109" xlink:href="#DejaVuSans-2e"/>
       <use x="179.199219" xlink:href="#DejaVuSans-32"/>
      </g>
     </g>
    </g>
    <g id="ytick_13">
     <g id="line2d_28">
      <g>
       <use style="stroke:#000000;stroke-width:0.8;" x="539.775" xlink:href="#ma6a1c10715" y="170.733333"/>
      </g>
     </g>
     <g id="text_31">
      <!-- 0.1 -->
      <g transform="translate(508.492188 174.532552)scale(0.1 -0.1)">
       <use xlink:href="#DejaVuSans-2212"/>
       <use x="83.789062" xlink:href="#DejaVuSans-30"/>
       <use x="147.412109" xlink:href="#DejaVuSans-2e"/>
       <use x="179.199219" xlink:href="#DejaVuSans-31"/>
      </g>
     </g>
    </g>
    <g id="ytick_14">
     <g id="line2d_29">
      <g>
       <use style="stroke:#000000;stroke-width:0.8;" x="539.775" xlink:href="#ma6a1c10715" y="135"/>
      </g>
     </g>
     <g id="text_32">
      <!-- 0.0 -->
      <g transform="translate(516.871875 138.799219)scale(0.1 -0.1)">
       <use xlink:href="#DejaVuSans-30"/>
       <use x="63.623047" xlink:href="#DejaVuSans-2e"/>
       <use x="95.410156" xlink:href="#DejaVuSans-30"/>
      </g>
     </g>
    </g>
    <g id="ytick_15">
     <g id="line2d_30">
      <g>
       <use style="stroke:#000000;stroke-width:0.8;" x="539.775" xlink:href="#ma6a1c10715" y="99.266667"/>
      </g>
     </g>
     <g id="text_33">
      <!-- 0.1 -->
      <g transform="translate(516.871875 103.065885)scale(0.1 -0.1)">
       <use xlink:href="#DejaVuSans-30"/>
       <use x="63.623047" xlink:href="#DejaVuSans-2e"/>
       <use x="95.410156" xlink:href="#DejaVuSans-31"/>
      </g>
     </g>
    </g>
    <g id="ytick_16">
     <g id="line2d_31">
      <g>
       <use style="stroke:#000000;stroke-width:0.8;" x="539.775" xlink:href="#ma6a1c10715" y="63.533333"/>
      </g>
     </g>
     <g id="text_34">
      <!-- 0.2 -->
      <g transform="translate(516.871875 67.332552)scale(0.1 -0.1)">
       <use xlink:href="#DejaVuSans-30"/>
       <use x="63.623047" xlink:href="#DejaVuSans-2e"/>
       <use x="95.410156" xlink:href="#DejaVuSans-32"/>
      </g>
     </g>
    </g>
    <g id="ytick_17">
     <g id="line2d_32">
      <g>
       <use style="stroke:#000000;stroke-width:0.8;" x="539.775" xlink:href="#ma6a1c10715" y="27.8"/>
      </g>
     </g>
     <g id="text_35">
      <!-- 0.3 -->
      <g transform="translate(516.871875 31.599219)scale(0.1 -0.1)">
       <use xlink:href="#DejaVuSans-30"/>
       <use x="63.623047" xlink:href="#DejaVuSans-2e"/>
       <use x="95.410156" xlink:href="#DejaVuSans-33"/>
      </g>
     </g>
    </g>
   </g>
   <g id="line2d_33">
    <path clip-path="url(#pa7185e606a)" d="M 539.775 135 
L 997.2 135 
" style="fill:none;stroke:#000000;stroke-linecap:square;stroke-width:1.5;"/>
   </g>
   <g id="patch_212">
    <path d="M 539.775 242.2 
L 539.775 27.8 
" style="fill:none;stroke:#000000;stroke-linecap:square;stroke-linejoin:miter;stroke-width:0.8;"/>
   </g>
   <g id="patch_213">
    <path d="M 997.2 242.2 
L 997.2 27.8 
" style="fill:none;stroke:#000000;stroke-linecap:square;stroke-linejoin:miter;stroke-width:0.8;"/>
   </g>
   <g id="patch_214">
    <path d="M 539.775 242.2 
L 997.2 242.2 
" style="fill:none;stroke:#000000;stroke-linecap:square;stroke-linejoin:miter;stroke-width:0.8;"/>
   </g>
   <g id="patch_215">
    <path d="M 539.775 27.8 
L 997.2 27.8 
" style="fill:none;stroke:#000000;stroke-linecap:square;stroke-linejoin:miter;stroke-width:0.8;"/>
   </g>
   <g id="text_36">
    <!-- $tp=-4.584E+00, pp=4.560E-06, ts=7.434E+00, ps=1.052E-13$ -->
    <g transform="translate(552.3675 21.8)scale(0.12 -0.12)">
     <defs>
      <path d="M 3200 3397 
L 3091 2853 
Q 2863 2978 2609 3040 
Q 2356 3103 2088 3103 
Q 1634 3103 1373 2948 
Q 1113 2794 1113 2528 
Q 1113 2219 1719 2053 
Q 1766 2041 1788 2034 
L 1972 1978 
Q 2547 1819 2739 1644 
Q 2931 1469 2931 1166 
Q 2931 609 2489 259 
Q 2047 -91 1331 -91 
Q 1053 -91 747 -37 
Q 441 16 72 128 
L 184 722 
Q 500 559 806 475 
Q 1113 391 1394 391 
Q 1816 391 2080 572 
Q 2344 753 2344 1031 
Q 2344 1331 1650 1516 
L 1591 1531 
L 1394 1581 
Q 956 1697 753 1886 
Q 550 2075 550 2369 
Q 550 2928 970 3256 
Q 1391 3584 2113 3584 
Q 2397 3584 2667 3537 
Q 2938 3491 3200 3397 
z
" id="DejaVuSans-Oblique-73" transform="scale(0.015625)"/>
     </defs>
     <use transform="translate(0 0.78125)" xlink:href="#DejaVuSans-Oblique-74"/>
     <use transform="translate(39.208984 0.78125)" xlink:href="#DejaVuSans-Oblique-70"/>
     <use transform="translate(122.167969 0.78125)" xlink:href="#DejaVuSans-3d"/>
     <use transform="translate(244.921875 0.78125)" xlink:href="#DejaVuSans-2212"/>
     <use transform="translate(348.193359 0.78125)" xlink:href="#DejaVuSans-34"/>
     <use transform="translate(411.816406 0.78125)" xlink:href="#DejaVuSans-2e"/>
     <use transform="translate(443.603516 0.78125)" xlink:href="#DejaVuSans-35"/>
     <use transform="translate(507.226562 0.78125)" xlink:href="#DejaVuSans-38"/>
     <use transform="translate(570.849609 0.78125)" xlink:href="#DejaVuSans-34"/>
     <use transform="translate(634.472656 0.78125)" xlink:href="#DejaVuSans-Oblique-45"/>
     <use transform="translate(717.138672 0.78125)" xlink:href="#DejaVuSans-2b"/>
     <use transform="translate(820.410156 0.78125)" xlink:href="#DejaVuSans-30"/>
     <use transform="translate(884.033203 0.78125)" xlink:href="#DejaVuSans-30"/>
     <use transform="translate(947.65625 0.78125)" xlink:href="#DejaVuSans-2c"/>
     <use transform="translate(998.925781 0.78125)" xlink:href="#DejaVuSans-Oblique-70"/>
     <use transform="translate(1062.402344 0.78125)" xlink:href="#DejaVuSans-Oblique-70"/>
     <use transform="translate(1145.361328 0.78125)" xlink:href="#DejaVuSans-3d"/>
     <use transform="translate(1248.632812 0.78125)" xlink:href="#DejaVuSans-34"/>
     <use transform="translate(1312.255859 0.78125)" xlink:href="#DejaVuSans-2e"/>
     <use transform="translate(1344.042969 0.78125)" xlink:href="#DejaVuSans-35"/>
     <use transform="translate(1407.666016 0.78125)" xlink:href="#DejaVuSans-36"/>
     <use transform="translate(1471.289062 0.78125)" xlink:href="#DejaVuSans-30"/>
     <use transform="translate(1534.912109 0.78125)" xlink:href="#DejaVuSans-Oblique-45"/>
     <use transform="translate(1617.578125 0.78125)" xlink:href="#DejaVuSans-2212"/>
     <use transform="translate(1720.849609 0.78125)" xlink:href="#DejaVuSans-30"/>
     <use transform="translate(1784.472656 0.78125)" xlink:href="#DejaVuSans-36"/>
     <use transform="translate(1848.095703 0.78125)" xlink:href="#DejaVuSans-2c"/>
     <use transform="translate(1899.365234 0.78125)" xlink:href="#DejaVuSans-Oblique-74"/>
     <use transform="translate(1938.574219 0.78125)" xlink:href="#DejaVuSans-Oblique-73"/>
     <use transform="translate(2010.15625 0.78125)" xlink:href="#DejaVuSans-3d"/>
     <use transform="translate(2113.427734 0.78125)" xlink:href="#DejaVuSans-37"/>
     <use transform="translate(2177.050781 0.78125)" xlink:href="#DejaVuSans-2e"/>
     <use transform="translate(2208.837891 0.78125)" xlink:href="#DejaVuSans-34"/>
     <use transform="translate(2272.460938 0.78125)" xlink:href="#DejaVuSans-33"/>
     <use transform="translate(2336.083984 0.78125)" xlink:href="#DejaVuSans-34"/>
     <use transform="translate(2399.707031 0.78125)" xlink:href="#DejaVuSans-Oblique-45"/>
     <use transform="translate(2482.373047 0.78125)" xlink:href="#DejaVuSans-2b"/>
     <use transform="translate(2585.644531 0.78125)" xlink:href="#DejaVuSans-30"/>
     <use transform="translate(2649.267578 0.78125)" xlink:href="#DejaVuSans-30"/>
     <use transform="translate(2712.890625 0.78125)" xlink:href="#DejaVuSans-2c"/>
     <use transform="translate(2764.160156 0.78125)" xlink:href="#DejaVuSans-Oblique-70"/>
     <use transform="translate(2827.636719 0.78125)" xlink:href="#DejaVuSans-Oblique-73"/>
     <use transform="translate(2899.21875 0.78125)" xlink:href="#DejaVuSans-3d"/>
     <use transform="translate(3002.490234 0.78125)" xlink:href="#DejaVuSans-31"/>
     <use transform="translate(3066.113281 0.78125)" xlink:href="#DejaVuSans-2e"/>
     <use transform="translate(3097.900391 0.78125)" xlink:href="#DejaVuSans-30"/>
     <use transform="translate(3161.523438 0.78125)" xlink:href="#DejaVuSans-35"/>
     <use transform="translate(3225.146484 0.78125)" xlink:href="#DejaVuSans-32"/>
     <use transform="translate(3288.769531 0.78125)" xlink:href="#DejaVuSans-Oblique-45"/>
     <use transform="translate(3371.435547 0.78125)" xlink:href="#DejaVuSans-2212"/>
     <use transform="translate(3474.707031 0.78125)" xlink:href="#DejaVuSans-31"/>
     <use transform="translate(3538.330078 0.78125)" xlink:href="#DejaVuSans-33"/>
    </g>
   </g>
  </g>
 </g>
 <defs>
  <clipPath id="p93e428499d">
   <rect height="214.4" width="457.425" x="33.8" y="27.8"/>
  </clipPath>
  <clipPath id="pa7185e606a">
   <rect height="214.4" width="457.425" x="539.775" y="27.8"/>
  </clipPath>
 </defs>
</svg>
