<?xml version="1.0" encoding="utf-8" standalone="no"?>
<!DOCTYPE svg PUBLIC "-//W3C//DTD SVG 1.1//EN"
  "http://www.w3.org/Graphics/SVG/1.1/DTD/svg11.dtd">
<svg height="288pt" version="1.1" viewBox="0 0 1008 288" width="1008pt" xmlns="http://www.w3.org/2000/svg" xmlns:xlink="http://www.w3.org/1999/xlink">
 <metadata>
  <rdf:RDF xmlns:cc="http://creativecommons.org/ns#" xmlns:dc="http://purl.org/dc/elements/1.1/" xmlns:rdf="http://www.w3.org/1999/02/22-rdf-syntax-ns#">
   <cc:Work>
    <dc:type rdf:resource="http://purl.org/dc/dcmitype/StillImage"/>
    <dc:date>2021-09-07T19:40:32.859568</dc:date>
    <dc:format>image/svg+xml</dc:format>
    <dc:creator>
     <cc:Agent>
      <dc:title>Matplotlib v3.4.2, https://matplotlib.org/</dc:title>
     </cc:Agent>
    </dc:creator>
   </cc:Work>
  </rdf:RDF>
 </metadata>
 <defs>
  <style type="text/css">*{stroke-linecap:butt;stroke-linejoin:round;}</style>
 </defs>
 <g id="figure_1">
  <g id="patch_1">
   <path d="M 0 288 
L 1008 288 
L 1008 0 
L 0 0 
z
" style="fill:none;"/>
  </g>
  <g id="axes_1">
   <g id="patch_2">
    <path d="M 46.375 242.44 
L 491.92 242.44 
L 491.92 10.8 
L 46.375 10.8 
z
" style="fill:none;"/>
   </g>
   <g id="patch_3">
    <path clip-path="url(#p12bc772c29)" d="M 46.375 242.44 
L 50.462569 242.44 
L 50.462569 242.44 
L 46.375 242.44 
z
" style="fill:#0000ff;"/>
   </g>
   <g id="patch_4">
    <path clip-path="url(#p12bc772c29)" d="M 50.462569 242.44 
L 54.550138 242.44 
L 54.550138 76.982857 
L 50.462569 76.982857 
z
" style="fill:#0000ff;"/>
   </g>
   <g id="patch_5">
    <path clip-path="url(#p12bc772c29)" d="M 54.550138 242.44 
L 58.637706 242.44 
L 58.637706 132.135238 
L 54.550138 132.135238 
z
" style="fill:#0000ff;"/>
   </g>
   <g id="patch_6">
    <path clip-path="url(#p12bc772c29)" d="M 58.637706 242.44 
L 62.725275 242.44 
L 62.725275 242.44 
L 58.637706 242.44 
z
" style="fill:#0000ff;"/>
   </g>
   <g id="patch_7">
    <path clip-path="url(#p12bc772c29)" d="M 62.725275 242.44 
L 66.812844 242.44 
L 66.812844 187.287619 
L 62.725275 187.287619 
z
" style="fill:#0000ff;"/>
   </g>
   <g id="patch_8">
    <path clip-path="url(#p12bc772c29)" d="M 66.812844 242.44 
L 70.900413 242.44 
L 70.900413 242.44 
L 66.812844 242.44 
z
" style="fill:#0000ff;"/>
   </g>
   <g id="patch_9">
    <path clip-path="url(#p12bc772c29)" d="M 70.900413 242.44 
L 74.987982 242.44 
L 74.987982 242.44 
L 70.900413 242.44 
z
" style="fill:#0000ff;"/>
   </g>
   <g id="patch_10">
    <path clip-path="url(#p12bc772c29)" d="M 74.987982 242.44 
L 79.07555 242.44 
L 79.07555 242.44 
L 74.987982 242.44 
z
" style="fill:#0000ff;"/>
   </g>
   <g id="patch_11">
    <path clip-path="url(#p12bc772c29)" d="M 79.07555 242.44 
L 83.163119 242.44 
L 83.163119 242.44 
L 79.07555 242.44 
z
" style="fill:#0000ff;"/>
   </g>
   <g id="patch_12">
    <path clip-path="url(#p12bc772c29)" d="M 83.163119 242.44 
L 87.250688 242.44 
L 87.250688 242.44 
L 83.163119 242.44 
z
" style="fill:#0000ff;"/>
   </g>
   <g id="patch_13">
    <path clip-path="url(#p12bc772c29)" d="M 87.250688 242.44 
L 91.338257 242.44 
L 91.338257 242.44 
L 87.250688 242.44 
z
" style="fill:#0000ff;"/>
   </g>
   <g id="patch_14">
    <path clip-path="url(#p12bc772c29)" d="M 91.338257 242.44 
L 95.425826 242.44 
L 95.425826 242.44 
L 91.338257 242.44 
z
" style="fill:#0000ff;"/>
   </g>
   <g id="patch_15">
    <path clip-path="url(#p12bc772c29)" d="M 95.425826 242.44 
L 99.513394 242.44 
L 99.513394 187.287619 
L 95.425826 187.287619 
z
" style="fill:#0000ff;"/>
   </g>
   <g id="patch_16">
    <path clip-path="url(#p12bc772c29)" d="M 99.513394 242.44 
L 103.600963 242.44 
L 103.600963 242.44 
L 99.513394 242.44 
z
" style="fill:#0000ff;"/>
   </g>
   <g id="patch_17">
    <path clip-path="url(#p12bc772c29)" d="M 103.600963 242.44 
L 107.688532 242.44 
L 107.688532 187.287619 
L 103.600963 187.287619 
z
" style="fill:#0000ff;"/>
   </g>
   <g id="patch_18">
    <path clip-path="url(#p12bc772c29)" d="M 107.688532 242.44 
L 111.776101 242.44 
L 111.776101 187.287619 
L 107.688532 187.287619 
z
" style="fill:#0000ff;"/>
   </g>
   <g id="patch_19">
    <path clip-path="url(#p12bc772c29)" d="M 111.776101 242.44 
L 115.86367 242.44 
L 115.86367 187.287619 
L 111.776101 187.287619 
z
" style="fill:#0000ff;"/>
   </g>
   <g id="patch_20">
    <path clip-path="url(#p12bc772c29)" d="M 115.86367 242.44 
L 119.951239 242.44 
L 119.951239 242.44 
L 115.86367 242.44 
z
" style="fill:#0000ff;"/>
   </g>
   <g id="patch_21">
    <path clip-path="url(#p12bc772c29)" d="M 119.951239 242.44 
L 124.038807 242.44 
L 124.038807 242.44 
L 119.951239 242.44 
z
" style="fill:#0000ff;"/>
   </g>
   <g id="patch_22">
    <path clip-path="url(#p12bc772c29)" d="M 124.038807 242.44 
L 128.126376 242.44 
L 128.126376 242.44 
L 124.038807 242.44 
z
" style="fill:#0000ff;"/>
   </g>
   <g id="patch_23">
    <path clip-path="url(#p12bc772c29)" d="M 128.126376 242.44 
L 132.213945 242.44 
L 132.213945 242.44 
L 128.126376 242.44 
z
" style="fill:#0000ff;"/>
   </g>
   <g id="patch_24">
    <path clip-path="url(#p12bc772c29)" d="M 132.213945 242.44 
L 136.301514 242.44 
L 136.301514 242.44 
L 132.213945 242.44 
z
" style="fill:#0000ff;"/>
   </g>
   <g id="patch_25">
    <path clip-path="url(#p12bc772c29)" d="M 136.301514 242.44 
L 140.389083 242.44 
L 140.389083 242.44 
L 136.301514 242.44 
z
" style="fill:#0000ff;"/>
   </g>
   <g id="patch_26">
    <path clip-path="url(#p12bc772c29)" d="M 140.389083 242.44 
L 144.476651 242.44 
L 144.476651 132.135238 
L 140.389083 132.135238 
z
" style="fill:#0000ff;"/>
   </g>
   <g id="patch_27">
    <path clip-path="url(#p12bc772c29)" d="M 144.476651 242.44 
L 148.56422 242.44 
L 148.56422 187.287619 
L 144.476651 187.287619 
z
" style="fill:#0000ff;"/>
   </g>
   <g id="patch_28">
    <path clip-path="url(#p12bc772c29)" d="M 148.56422 242.44 
L 152.651789 242.44 
L 152.651789 242.44 
L 148.56422 242.44 
z
" style="fill:#0000ff;"/>
   </g>
   <g id="patch_29">
    <path clip-path="url(#p12bc772c29)" d="M 152.651789 242.44 
L 156.739358 242.44 
L 156.739358 242.44 
L 152.651789 242.44 
z
" style="fill:#0000ff;"/>
   </g>
   <g id="patch_30">
    <path clip-path="url(#p12bc772c29)" d="M 156.739358 242.44 
L 160.826927 242.44 
L 160.826927 242.44 
L 156.739358 242.44 
z
" style="fill:#0000ff;"/>
   </g>
   <g id="patch_31">
    <path clip-path="url(#p12bc772c29)" d="M 160.826927 242.44 
L 164.914495 242.44 
L 164.914495 187.287619 
L 160.826927 187.287619 
z
" style="fill:#0000ff;"/>
   </g>
   <g id="patch_32">
    <path clip-path="url(#p12bc772c29)" d="M 164.914495 242.44 
L 169.002064 242.44 
L 169.002064 187.287619 
L 164.914495 187.287619 
z
" style="fill:#0000ff;"/>
   </g>
   <g id="patch_33">
    <path clip-path="url(#p12bc772c29)" d="M 169.002064 242.44 
L 173.089633 242.44 
L 173.089633 242.44 
L 169.002064 242.44 
z
" style="fill:#0000ff;"/>
   </g>
   <g id="patch_34">
    <path clip-path="url(#p12bc772c29)" d="M 173.089633 242.44 
L 177.177202 242.44 
L 177.177202 242.44 
L 173.089633 242.44 
z
" style="fill:#0000ff;"/>
   </g>
   <g id="patch_35">
    <path clip-path="url(#p12bc772c29)" d="M 177.177202 242.44 
L 181.264771 242.44 
L 181.264771 242.44 
L 177.177202 242.44 
z
" style="fill:#0000ff;"/>
   </g>
   <g id="patch_36">
    <path clip-path="url(#p12bc772c29)" d="M 181.264771 242.44 
L 185.352339 242.44 
L 185.352339 242.44 
L 181.264771 242.44 
z
" style="fill:#0000ff;"/>
   </g>
   <g id="patch_37">
    <path clip-path="url(#p12bc772c29)" d="M 185.352339 242.44 
L 189.439908 242.44 
L 189.439908 242.44 
L 185.352339 242.44 
z
" style="fill:#0000ff;"/>
   </g>
   <g id="patch_38">
    <path clip-path="url(#p12bc772c29)" d="M 189.439908 242.44 
L 193.527477 242.44 
L 193.527477 242.44 
L 189.439908 242.44 
z
" style="fill:#0000ff;"/>
   </g>
   <g id="patch_39">
    <path clip-path="url(#p12bc772c29)" d="M 193.527477 242.44 
L 197.615046 242.44 
L 197.615046 187.287619 
L 193.527477 187.287619 
z
" style="fill:#0000ff;"/>
   </g>
   <g id="patch_40">
    <path clip-path="url(#p12bc772c29)" d="M 197.615046 242.44 
L 201.702615 242.44 
L 201.702615 242.44 
L 197.615046 242.44 
z
" style="fill:#0000ff;"/>
   </g>
   <g id="patch_41">
    <path clip-path="url(#p12bc772c29)" d="M 201.702615 242.44 
L 205.790183 242.44 
L 205.790183 242.44 
L 201.702615 242.44 
z
" style="fill:#0000ff;"/>
   </g>
   <g id="patch_42">
    <path clip-path="url(#p12bc772c29)" d="M 205.790183 242.44 
L 209.877752 242.44 
L 209.877752 187.287619 
L 205.790183 187.287619 
z
" style="fill:#0000ff;"/>
   </g>
   <g id="patch_43">
    <path clip-path="url(#p12bc772c29)" d="M 209.877752 242.44 
L 213.965321 242.44 
L 213.965321 242.44 
L 209.877752 242.44 
z
" style="fill:#0000ff;"/>
   </g>
   <g id="patch_44">
    <path clip-path="url(#p12bc772c29)" d="M 213.965321 242.44 
L 218.05289 242.44 
L 218.05289 242.44 
L 213.965321 242.44 
z
" style="fill:#0000ff;"/>
   </g>
   <g id="patch_45">
    <path clip-path="url(#p12bc772c29)" d="M 218.05289 242.44 
L 222.140459 242.44 
L 222.140459 242.44 
L 218.05289 242.44 
z
" style="fill:#0000ff;"/>
   </g>
   <g id="patch_46">
    <path clip-path="url(#p12bc772c29)" d="M 222.140459 242.44 
L 226.228028 242.44 
L 226.228028 242.44 
L 222.140459 242.44 
z
" style="fill:#0000ff;"/>
   </g>
   <g id="patch_47">
    <path clip-path="url(#p12bc772c29)" d="M 226.228028 242.44 
L 230.315596 242.44 
L 230.315596 242.44 
L 226.228028 242.44 
z
" style="fill:#0000ff;"/>
   </g>
   <g id="patch_48">
    <path clip-path="url(#p12bc772c29)" d="M 230.315596 242.44 
L 234.403165 242.44 
L 234.403165 242.44 
L 230.315596 242.44 
z
" style="fill:#0000ff;"/>
   </g>
   <g id="patch_49">
    <path clip-path="url(#p12bc772c29)" d="M 234.403165 242.44 
L 238.490734 242.44 
L 238.490734 242.44 
L 234.403165 242.44 
z
" style="fill:#0000ff;"/>
   </g>
   <g id="patch_50">
    <path clip-path="url(#p12bc772c29)" d="M 238.490734 242.44 
L 242.578303 242.44 
L 242.578303 242.44 
L 238.490734 242.44 
z
" style="fill:#0000ff;"/>
   </g>
   <g id="patch_51">
    <path clip-path="url(#p12bc772c29)" d="M 242.578303 242.44 
L 246.665872 242.44 
L 246.665872 242.44 
L 242.578303 242.44 
z
" style="fill:#0000ff;"/>
   </g>
   <g id="patch_52">
    <path clip-path="url(#p12bc772c29)" d="M 246.665872 242.44 
L 250.75344 242.44 
L 250.75344 187.287619 
L 246.665872 187.287619 
z
" style="fill:#0000ff;"/>
   </g>
   <g id="patch_53">
    <path clip-path="url(#p12bc772c29)" d="M 250.75344 242.44 
L 254.841009 242.44 
L 254.841009 242.44 
L 250.75344 242.44 
z
" style="fill:#0000ff;"/>
   </g>
   <g id="patch_54">
    <path clip-path="url(#p12bc772c29)" d="M 254.841009 242.44 
L 258.928578 242.44 
L 258.928578 242.44 
L 254.841009 242.44 
z
" style="fill:#0000ff;"/>
   </g>
   <g id="patch_55">
    <path clip-path="url(#p12bc772c29)" d="M 258.928578 242.44 
L 263.016147 242.44 
L 263.016147 242.44 
L 258.928578 242.44 
z
" style="fill:#0000ff;"/>
   </g>
   <g id="patch_56">
    <path clip-path="url(#p12bc772c29)" d="M 263.016147 242.44 
L 267.103716 242.44 
L 267.103716 242.44 
L 263.016147 242.44 
z
" style="fill:#0000ff;"/>
   </g>
   <g id="patch_57">
    <path clip-path="url(#p12bc772c29)" d="M 267.103716 242.44 
L 271.191284 242.44 
L 271.191284 242.44 
L 267.103716 242.44 
z
" style="fill:#0000ff;"/>
   </g>
   <g id="patch_58">
    <path clip-path="url(#p12bc772c29)" d="M 271.191284 242.44 
L 275.278853 242.44 
L 275.278853 242.44 
L 271.191284 242.44 
z
" style="fill:#0000ff;"/>
   </g>
   <g id="patch_59">
    <path clip-path="url(#p12bc772c29)" d="M 275.278853 242.44 
L 279.366422 242.44 
L 279.366422 242.44 
L 275.278853 242.44 
z
" style="fill:#0000ff;"/>
   </g>
   <g id="patch_60">
    <path clip-path="url(#p12bc772c29)" d="M 279.366422 242.44 
L 283.453991 242.44 
L 283.453991 242.44 
L 279.366422 242.44 
z
" style="fill:#0000ff;"/>
   </g>
   <g id="patch_61">
    <path clip-path="url(#p12bc772c29)" d="M 283.453991 242.44 
L 287.54156 242.44 
L 287.54156 242.44 
L 283.453991 242.44 
z
" style="fill:#0000ff;"/>
   </g>
   <g id="patch_62">
    <path clip-path="url(#p12bc772c29)" d="M 287.54156 242.44 
L 291.629128 242.44 
L 291.629128 242.44 
L 287.54156 242.44 
z
" style="fill:#0000ff;"/>
   </g>
   <g id="patch_63">
    <path clip-path="url(#p12bc772c29)" d="M 291.629128 242.44 
L 295.716697 242.44 
L 295.716697 242.44 
L 291.629128 242.44 
z
" style="fill:#0000ff;"/>
   </g>
   <g id="patch_64">
    <path clip-path="url(#p12bc772c29)" d="M 295.716697 242.44 
L 299.804266 242.44 
L 299.804266 242.44 
L 295.716697 242.44 
z
" style="fill:#0000ff;"/>
   </g>
   <g id="patch_65">
    <path clip-path="url(#p12bc772c29)" d="M 299.804266 242.44 
L 303.891835 242.44 
L 303.891835 242.44 
L 299.804266 242.44 
z
" style="fill:#0000ff;"/>
   </g>
   <g id="patch_66">
    <path clip-path="url(#p12bc772c29)" d="M 303.891835 242.44 
L 307.979404 242.44 
L 307.979404 242.44 
L 303.891835 242.44 
z
" style="fill:#0000ff;"/>
   </g>
   <g id="patch_67">
    <path clip-path="url(#p12bc772c29)" d="M 307.979404 242.44 
L 312.066972 242.44 
L 312.066972 242.44 
L 307.979404 242.44 
z
" style="fill:#0000ff;"/>
   </g>
   <g id="patch_68">
    <path clip-path="url(#p12bc772c29)" d="M 312.066972 242.44 
L 316.154541 242.44 
L 316.154541 242.44 
L 312.066972 242.44 
z
" style="fill:#0000ff;"/>
   </g>
   <g id="patch_69">
    <path clip-path="url(#p12bc772c29)" d="M 316.154541 242.44 
L 320.24211 242.44 
L 320.24211 242.44 
L 316.154541 242.44 
z
" style="fill:#0000ff;"/>
   </g>
   <g id="patch_70">
    <path clip-path="url(#p12bc772c29)" d="M 320.24211 242.44 
L 324.329679 242.44 
L 324.329679 242.44 
L 320.24211 242.44 
z
" style="fill:#0000ff;"/>
   </g>
   <g id="patch_71">
    <path clip-path="url(#p12bc772c29)" d="M 324.329679 242.44 
L 328.417248 242.44 
L 328.417248 242.44 
L 324.329679 242.44 
z
" style="fill:#0000ff;"/>
   </g>
   <g id="patch_72">
    <path clip-path="url(#p12bc772c29)" d="M 328.417248 242.44 
L 332.504817 242.44 
L 332.504817 242.44 
L 328.417248 242.44 
z
" style="fill:#0000ff;"/>
   </g>
   <g id="patch_73">
    <path clip-path="url(#p12bc772c29)" d="M 332.504817 242.44 
L 336.592385 242.44 
L 336.592385 242.44 
L 332.504817 242.44 
z
" style="fill:#0000ff;"/>
   </g>
   <g id="patch_74">
    <path clip-path="url(#p12bc772c29)" d="M 336.592385 242.44 
L 340.679954 242.44 
L 340.679954 242.44 
L 336.592385 242.44 
z
" style="fill:#0000ff;"/>
   </g>
   <g id="patch_75">
    <path clip-path="url(#p12bc772c29)" d="M 340.679954 242.44 
L 344.767523 242.44 
L 344.767523 242.44 
L 340.679954 242.44 
z
" style="fill:#0000ff;"/>
   </g>
   <g id="patch_76">
    <path clip-path="url(#p12bc772c29)" d="M 344.767523 242.44 
L 348.855092 242.44 
L 348.855092 187.287619 
L 344.767523 187.287619 
z
" style="fill:#0000ff;"/>
   </g>
   <g id="patch_77">
    <path clip-path="url(#p12bc772c29)" d="M 348.855092 242.44 
L 352.942661 242.44 
L 352.942661 242.44 
L 348.855092 242.44 
z
" style="fill:#0000ff;"/>
   </g>
   <g id="patch_78">
    <path clip-path="url(#p12bc772c29)" d="M 352.942661 242.44 
L 357.030229 242.44 
L 357.030229 242.44 
L 352.942661 242.44 
z
" style="fill:#0000ff;"/>
   </g>
   <g id="patch_79">
    <path clip-path="url(#p12bc772c29)" d="M 357.030229 242.44 
L 361.117798 242.44 
L 361.117798 242.44 
L 357.030229 242.44 
z
" style="fill:#0000ff;"/>
   </g>
   <g id="patch_80">
    <path clip-path="url(#p12bc772c29)" d="M 361.117798 242.44 
L 365.205367 242.44 
L 365.205367 242.44 
L 361.117798 242.44 
z
" style="fill:#0000ff;"/>
   </g>
   <g id="patch_81">
    <path clip-path="url(#p12bc772c29)" d="M 365.205367 242.44 
L 369.292936 242.44 
L 369.292936 242.44 
L 365.205367 242.44 
z
" style="fill:#0000ff;"/>
   </g>
   <g id="patch_82">
    <path clip-path="url(#p12bc772c29)" d="M 369.292936 242.44 
L 373.380505 242.44 
L 373.380505 242.44 
L 369.292936 242.44 
z
" style="fill:#0000ff;"/>
   </g>
   <g id="patch_83">
    <path clip-path="url(#p12bc772c29)" d="M 373.380505 242.44 
L 377.468073 242.44 
L 377.468073 242.44 
L 373.380505 242.44 
z
" style="fill:#0000ff;"/>
   </g>
   <g id="patch_84">
    <path clip-path="url(#p12bc772c29)" d="M 377.468073 242.44 
L 381.555642 242.44 
L 381.555642 242.44 
L 377.468073 242.44 
z
" style="fill:#0000ff;"/>
   </g>
   <g id="patch_85">
    <path clip-path="url(#p12bc772c29)" d="M 381.555642 242.44 
L 385.643211 242.44 
L 385.643211 242.44 
L 381.555642 242.44 
z
" style="fill:#0000ff;"/>
   </g>
   <g id="patch_86">
    <path clip-path="url(#p12bc772c29)" d="M 385.643211 242.44 
L 389.73078 242.44 
L 389.73078 242.44 
L 385.643211 242.44 
z
" style="fill:#0000ff;"/>
   </g>
   <g id="patch_87">
    <path clip-path="url(#p12bc772c29)" d="M 389.73078 242.44 
L 393.818349 242.44 
L 393.818349 242.44 
L 389.73078 242.44 
z
" style="fill:#0000ff;"/>
   </g>
   <g id="patch_88">
    <path clip-path="url(#p12bc772c29)" d="M 393.818349 242.44 
L 397.905917 242.44 
L 397.905917 242.44 
L 393.818349 242.44 
z
" style="fill:#0000ff;"/>
   </g>
   <g id="patch_89">
    <path clip-path="url(#p12bc772c29)" d="M 397.905917 242.44 
L 401.993486 242.44 
L 401.993486 242.44 
L 397.905917 242.44 
z
" style="fill:#0000ff;"/>
   </g>
   <g id="patch_90">
    <path clip-path="url(#p12bc772c29)" d="M 401.993486 242.44 
L 406.081055 242.44 
L 406.081055 242.44 
L 401.993486 242.44 
z
" style="fill:#0000ff;"/>
   </g>
   <g id="patch_91">
    <path clip-path="url(#p12bc772c29)" d="M 406.081055 242.44 
L 410.168624 242.44 
L 410.168624 242.44 
L 406.081055 242.44 
z
" style="fill:#0000ff;"/>
   </g>
   <g id="patch_92">
    <path clip-path="url(#p12bc772c29)" d="M 410.168624 242.44 
L 414.256193 242.44 
L 414.256193 242.44 
L 410.168624 242.44 
z
" style="fill:#0000ff;"/>
   </g>
   <g id="patch_93">
    <path clip-path="url(#p12bc772c29)" d="M 414.256193 242.44 
L 418.343761 242.44 
L 418.343761 242.44 
L 414.256193 242.44 
z
" style="fill:#0000ff;"/>
   </g>
   <g id="patch_94">
    <path clip-path="url(#p12bc772c29)" d="M 418.343761 242.44 
L 422.43133 242.44 
L 422.43133 242.44 
L 418.343761 242.44 
z
" style="fill:#0000ff;"/>
   </g>
   <g id="patch_95">
    <path clip-path="url(#p12bc772c29)" d="M 422.43133 242.44 
L 426.518899 242.44 
L 426.518899 242.44 
L 422.43133 242.44 
z
" style="fill:#0000ff;"/>
   </g>
   <g id="patch_96">
    <path clip-path="url(#p12bc772c29)" d="M 426.518899 242.44 
L 430.606468 242.44 
L 430.606468 242.44 
L 426.518899 242.44 
z
" style="fill:#0000ff;"/>
   </g>
   <g id="patch_97">
    <path clip-path="url(#p12bc772c29)" d="M 430.606468 242.44 
L 434.694037 242.44 
L 434.694037 242.44 
L 430.606468 242.44 
z
" style="fill:#0000ff;"/>
   </g>
   <g id="patch_98">
    <path clip-path="url(#p12bc772c29)" d="M 434.694037 242.44 
L 438.781606 242.44 
L 438.781606 242.44 
L 434.694037 242.44 
z
" style="fill:#0000ff;"/>
   </g>
   <g id="patch_99">
    <path clip-path="url(#p12bc772c29)" d="M 438.781606 242.44 
L 442.869174 242.44 
L 442.869174 242.44 
L 438.781606 242.44 
z
" style="fill:#0000ff;"/>
   </g>
   <g id="patch_100">
    <path clip-path="url(#p12bc772c29)" d="M 442.869174 242.44 
L 446.956743 242.44 
L 446.956743 242.44 
L 442.869174 242.44 
z
" style="fill:#0000ff;"/>
   </g>
   <g id="patch_101">
    <path clip-path="url(#p12bc772c29)" d="M 446.956743 242.44 
L 451.044312 242.44 
L 451.044312 242.44 
L 446.956743 242.44 
z
" style="fill:#0000ff;"/>
   </g>
   <g id="patch_102">
    <path clip-path="url(#p12bc772c29)" d="M 451.044312 242.44 
L 455.131881 242.44 
L 455.131881 242.44 
L 451.044312 242.44 
z
" style="fill:#0000ff;"/>
   </g>
   <g id="patch_103">
    <path clip-path="url(#p12bc772c29)" d="M 455.131881 242.44 
L 459.21945 242.44 
L 459.21945 242.44 
L 455.131881 242.44 
z
" style="fill:#0000ff;"/>
   </g>
   <g id="patch_104">
    <path clip-path="url(#p12bc772c29)" d="M 459.21945 242.44 
L 463.307018 242.44 
L 463.307018 242.44 
L 459.21945 242.44 
z
" style="fill:#0000ff;"/>
   </g>
   <g id="patch_105">
    <path clip-path="url(#p12bc772c29)" d="M 463.307018 242.44 
L 467.394587 242.44 
L 467.394587 242.44 
L 463.307018 242.44 
z
" style="fill:#0000ff;"/>
   </g>
   <g id="patch_106">
    <path clip-path="url(#p12bc772c29)" d="M 467.394587 242.44 
L 471.482156 242.44 
L 471.482156 242.44 
L 467.394587 242.44 
z
" style="fill:#0000ff;"/>
   </g>
   <g id="patch_107">
    <path clip-path="url(#p12bc772c29)" d="M 471.482156 242.44 
L 475.569725 242.44 
L 475.569725 242.44 
L 471.482156 242.44 
z
" style="fill:#0000ff;"/>
   </g>
   <g id="patch_108">
    <path clip-path="url(#p12bc772c29)" d="M 475.569725 242.44 
L 479.657294 242.44 
L 479.657294 242.44 
L 475.569725 242.44 
z
" style="fill:#0000ff;"/>
   </g>
   <g id="patch_109">
    <path clip-path="url(#p12bc772c29)" d="M 479.657294 242.44 
L 483.744862 242.44 
L 483.744862 242.44 
L 479.657294 242.44 
z
" style="fill:#0000ff;"/>
   </g>
   <g id="patch_110">
    <path clip-path="url(#p12bc772c29)" d="M 483.744862 242.44 
L 487.832431 242.44 
L 487.832431 242.44 
L 483.744862 242.44 
z
" style="fill:#0000ff;"/>
   </g>
   <g id="patch_111">
    <path clip-path="url(#p12bc772c29)" d="M 487.832431 242.44 
L 491.92 242.44 
L 491.92 187.287619 
L 487.832431 187.287619 
z
" style="fill:#0000ff;"/>
   </g>
   <g id="patch_112">
    <path clip-path="url(#p12bc772c29)" d="M 46.375 242.44 
L 50.462569 242.44 
L 50.462569 132.135238 
L 46.375 132.135238 
z
" style="fill:#ffa500;opacity:0.8;"/>
   </g>
   <g id="patch_113">
    <path clip-path="url(#p12bc772c29)" d="M 50.462569 242.44 
L 54.550138 242.44 
L 54.550138 21.830476 
L 50.462569 21.830476 
z
" style="fill:#ffa500;opacity:0.8;"/>
   </g>
   <g id="patch_114">
    <path clip-path="url(#p12bc772c29)" d="M 54.550138 242.44 
L 58.637706 242.44 
L 58.637706 242.44 
L 54.550138 242.44 
z
" style="fill:#ffa500;opacity:0.8;"/>
   </g>
   <g id="patch_115">
    <path clip-path="url(#p12bc772c29)" d="M 58.637706 242.44 
L 62.725275 242.44 
L 62.725275 242.44 
L 58.637706 242.44 
z
" style="fill:#ffa500;opacity:0.8;"/>
   </g>
   <g id="patch_116">
    <path clip-path="url(#p12bc772c29)" d="M 62.725275 242.44 
L 66.812844 242.44 
L 66.812844 132.135238 
L 62.725275 132.135238 
z
" style="fill:#ffa500;opacity:0.8;"/>
   </g>
   <g id="patch_117">
    <path clip-path="url(#p12bc772c29)" d="M 66.812844 242.44 
L 70.900413 242.44 
L 70.900413 187.287619 
L 66.812844 187.287619 
z
" style="fill:#ffa500;opacity:0.8;"/>
   </g>
   <g id="patch_118">
    <path clip-path="url(#p12bc772c29)" d="M 70.900413 242.44 
L 74.987982 242.44 
L 74.987982 187.287619 
L 70.900413 187.287619 
z
" style="fill:#ffa500;opacity:0.8;"/>
   </g>
   <g id="patch_119">
    <path clip-path="url(#p12bc772c29)" d="M 74.987982 242.44 
L 79.07555 242.44 
L 79.07555 242.44 
L 74.987982 242.44 
z
" style="fill:#ffa500;opacity:0.8;"/>
   </g>
   <g id="patch_120">
    <path clip-path="url(#p12bc772c29)" d="M 79.07555 242.44 
L 83.163119 242.44 
L 83.163119 132.135238 
L 79.07555 132.135238 
z
" style="fill:#ffa500;opacity:0.8;"/>
   </g>
   <g id="patch_121">
    <path clip-path="url(#p12bc772c29)" d="M 83.163119 242.44 
L 87.250688 242.44 
L 87.250688 242.44 
L 83.163119 242.44 
z
" style="fill:#ffa500;opacity:0.8;"/>
   </g>
   <g id="patch_122">
    <path clip-path="url(#p12bc772c29)" d="M 87.250688 242.44 
L 91.338257 242.44 
L 91.338257 187.287619 
L 87.250688 187.287619 
z
" style="fill:#ffa500;opacity:0.8;"/>
   </g>
   <g id="patch_123">
    <path clip-path="url(#p12bc772c29)" d="M 91.338257 242.44 
L 95.425826 242.44 
L 95.425826 242.44 
L 91.338257 242.44 
z
" style="fill:#ffa500;opacity:0.8;"/>
   </g>
   <g id="patch_124">
    <path clip-path="url(#p12bc772c29)" d="M 95.425826 242.44 
L 99.513394 242.44 
L 99.513394 187.287619 
L 95.425826 187.287619 
z
" style="fill:#ffa500;opacity:0.8;"/>
   </g>
   <g id="patch_125">
    <path clip-path="url(#p12bc772c29)" d="M 99.513394 242.44 
L 103.600963 242.44 
L 103.600963 242.44 
L 99.513394 242.44 
z
" style="fill:#ffa500;opacity:0.8;"/>
   </g>
   <g id="patch_126">
    <path clip-path="url(#p12bc772c29)" d="M 103.600963 242.44 
L 107.688532 242.44 
L 107.688532 187.287619 
L 103.600963 187.287619 
z
" style="fill:#ffa500;opacity:0.8;"/>
   </g>
   <g id="patch_127">
    <path clip-path="url(#p12bc772c29)" d="M 107.688532 242.44 
L 111.776101 242.44 
L 111.776101 242.44 
L 107.688532 242.44 
z
" style="fill:#ffa500;opacity:0.8;"/>
   </g>
   <g id="patch_128">
    <path clip-path="url(#p12bc772c29)" d="M 111.776101 242.44 
L 115.86367 242.44 
L 115.86367 187.287619 
L 111.776101 187.287619 
z
" style="fill:#ffa500;opacity:0.8;"/>
   </g>
   <g id="patch_129">
    <path clip-path="url(#p12bc772c29)" d="M 115.86367 242.44 
L 119.951239 242.44 
L 119.951239 187.287619 
L 115.86367 187.287619 
z
" style="fill:#ffa500;opacity:0.8;"/>
   </g>
   <g id="patch_130">
    <path clip-path="url(#p12bc772c29)" d="M 119.951239 242.44 
L 124.038807 242.44 
L 124.038807 242.44 
L 119.951239 242.44 
z
" style="fill:#ffa500;opacity:0.8;"/>
   </g>
   <g id="patch_131">
    <path clip-path="url(#p12bc772c29)" d="M 124.038807 242.44 
L 128.126376 242.44 
L 128.126376 187.287619 
L 124.038807 187.287619 
z
" style="fill:#ffa500;opacity:0.8;"/>
   </g>
   <g id="patch_132">
    <path clip-path="url(#p12bc772c29)" d="M 128.126376 242.44 
L 132.213945 242.44 
L 132.213945 242.44 
L 128.126376 242.44 
z
" style="fill:#ffa500;opacity:0.8;"/>
   </g>
   <g id="patch_133">
    <path clip-path="url(#p12bc772c29)" d="M 132.213945 242.44 
L 136.301514 242.44 
L 136.301514 242.44 
L 132.213945 242.44 
z
" style="fill:#ffa500;opacity:0.8;"/>
   </g>
   <g id="patch_134">
    <path clip-path="url(#p12bc772c29)" d="M 136.301514 242.44 
L 140.389083 242.44 
L 140.389083 242.44 
L 136.301514 242.44 
z
" style="fill:#ffa500;opacity:0.8;"/>
   </g>
   <g id="patch_135">
    <path clip-path="url(#p12bc772c29)" d="M 140.389083 242.44 
L 144.476651 242.44 
L 144.476651 187.287619 
L 140.389083 187.287619 
z
" style="fill:#ffa500;opacity:0.8;"/>
   </g>
   <g id="patch_136">
    <path clip-path="url(#p12bc772c29)" d="M 144.476651 242.44 
L 148.56422 242.44 
L 148.56422 242.44 
L 144.476651 242.44 
z
" style="fill:#ffa500;opacity:0.8;"/>
   </g>
   <g id="patch_137">
    <path clip-path="url(#p12bc772c29)" d="M 148.56422 242.44 
L 152.651789 242.44 
L 152.651789 242.44 
L 148.56422 242.44 
z
" style="fill:#ffa500;opacity:0.8;"/>
   </g>
   <g id="patch_138">
    <path clip-path="url(#p12bc772c29)" d="M 152.651789 242.44 
L 156.739358 242.44 
L 156.739358 242.44 
L 152.651789 242.44 
z
" style="fill:#ffa500;opacity:0.8;"/>
   </g>
   <g id="patch_139">
    <path clip-path="url(#p12bc772c29)" d="M 156.739358 242.44 
L 160.826927 242.44 
L 160.826927 242.44 
L 156.739358 242.44 
z
" style="fill:#ffa500;opacity:0.8;"/>
   </g>
   <g id="patch_140">
    <path clip-path="url(#p12bc772c29)" d="M 160.826927 242.44 
L 164.914495 242.44 
L 164.914495 242.44 
L 160.826927 242.44 
z
" style="fill:#ffa500;opacity:0.8;"/>
   </g>
   <g id="patch_141">
    <path clip-path="url(#p12bc772c29)" d="M 164.914495 242.44 
L 169.002064 242.44 
L 169.002064 242.44 
L 164.914495 242.44 
z
" style="fill:#ffa500;opacity:0.8;"/>
   </g>
   <g id="patch_142">
    <path clip-path="url(#p12bc772c29)" d="M 169.002064 242.44 
L 173.089633 242.44 
L 173.089633 242.44 
L 169.002064 242.44 
z
" style="fill:#ffa500;opacity:0.8;"/>
   </g>
   <g id="patch_143">
    <path clip-path="url(#p12bc772c29)" d="M 173.089633 242.44 
L 177.177202 242.44 
L 177.177202 242.44 
L 173.089633 242.44 
z
" style="fill:#ffa500;opacity:0.8;"/>
   </g>
   <g id="patch_144">
    <path clip-path="url(#p12bc772c29)" d="M 177.177202 242.44 
L 181.264771 242.44 
L 181.264771 242.44 
L 177.177202 242.44 
z
" style="fill:#ffa500;opacity:0.8;"/>
   </g>
   <g id="patch_145">
    <path clip-path="url(#p12bc772c29)" d="M 181.264771 242.44 
L 185.352339 242.44 
L 185.352339 242.44 
L 181.264771 242.44 
z
" style="fill:#ffa500;opacity:0.8;"/>
   </g>
   <g id="patch_146">
    <path clip-path="url(#p12bc772c29)" d="M 185.352339 242.44 
L 189.439908 242.44 
L 189.439908 242.44 
L 185.352339 242.44 
z
" style="fill:#ffa500;opacity:0.8;"/>
   </g>
   <g id="patch_147">
    <path clip-path="url(#p12bc772c29)" d="M 189.439908 242.44 
L 193.527477 242.44 
L 193.527477 242.44 
L 189.439908 242.44 
z
" style="fill:#ffa500;opacity:0.8;"/>
   </g>
   <g id="patch_148">
    <path clip-path="url(#p12bc772c29)" d="M 193.527477 242.44 
L 197.615046 242.44 
L 197.615046 242.44 
L 193.527477 242.44 
z
" style="fill:#ffa500;opacity:0.8;"/>
   </g>
   <g id="patch_149">
    <path clip-path="url(#p12bc772c29)" d="M 197.615046 242.44 
L 201.702615 242.44 
L 201.702615 242.44 
L 197.615046 242.44 
z
" style="fill:#ffa500;opacity:0.8;"/>
   </g>
   <g id="patch_150">
    <path clip-path="url(#p12bc772c29)" d="M 201.702615 242.44 
L 205.790183 242.44 
L 205.790183 242.44 
L 201.702615 242.44 
z
" style="fill:#ffa500;opacity:0.8;"/>
   </g>
   <g id="patch_151">
    <path clip-path="url(#p12bc772c29)" d="M 205.790183 242.44 
L 209.877752 242.44 
L 209.877752 242.44 
L 205.790183 242.44 
z
" style="fill:#ffa500;opacity:0.8;"/>
   </g>
   <g id="patch_152">
    <path clip-path="url(#p12bc772c29)" d="M 209.877752 242.44 
L 213.965321 242.44 
L 213.965321 242.44 
L 209.877752 242.44 
z
" style="fill:#ffa500;opacity:0.8;"/>
   </g>
   <g id="patch_153">
    <path clip-path="url(#p12bc772c29)" d="M 213.965321 242.44 
L 218.05289 242.44 
L 218.05289 242.44 
L 213.965321 242.44 
z
" style="fill:#ffa500;opacity:0.8;"/>
   </g>
   <g id="patch_154">
    <path clip-path="url(#p12bc772c29)" d="M 218.05289 242.44 
L 222.140459 242.44 
L 222.140459 242.44 
L 218.05289 242.44 
z
" style="fill:#ffa500;opacity:0.8;"/>
   </g>
   <g id="patch_155">
    <path clip-path="url(#p12bc772c29)" d="M 222.140459 242.44 
L 226.228028 242.44 
L 226.228028 242.44 
L 222.140459 242.44 
z
" style="fill:#ffa500;opacity:0.8;"/>
   </g>
   <g id="patch_156">
    <path clip-path="url(#p12bc772c29)" d="M 226.228028 242.44 
L 230.315596 242.44 
L 230.315596 242.44 
L 226.228028 242.44 
z
" style="fill:#ffa500;opacity:0.8;"/>
   </g>
   <g id="patch_157">
    <path clip-path="url(#p12bc772c29)" d="M 230.315596 242.44 
L 234.403165 242.44 
L 234.403165 242.44 
L 230.315596 242.44 
z
" style="fill:#ffa500;opacity:0.8;"/>
   </g>
   <g id="patch_158">
    <path clip-path="url(#p12bc772c29)" d="M 234.403165 242.44 
L 238.490734 242.44 
L 238.490734 242.44 
L 234.403165 242.44 
z
" style="fill:#ffa500;opacity:0.8;"/>
   </g>
   <g id="patch_159">
    <path clip-path="url(#p12bc772c29)" d="M 238.490734 242.44 
L 242.578303 242.44 
L 242.578303 242.44 
L 238.490734 242.44 
z
" style="fill:#ffa500;opacity:0.8;"/>
   </g>
   <g id="patch_160">
    <path clip-path="url(#p12bc772c29)" d="M 242.578303 242.44 
L 246.665872 242.44 
L 246.665872 242.44 
L 242.578303 242.44 
z
" style="fill:#ffa500;opacity:0.8;"/>
   </g>
   <g id="patch_161">
    <path clip-path="url(#p12bc772c29)" d="M 246.665872 242.44 
L 250.75344 242.44 
L 250.75344 242.44 
L 246.665872 242.44 
z
" style="fill:#ffa500;opacity:0.8;"/>
   </g>
   <g id="patch_162">
    <path clip-path="url(#p12bc772c29)" d="M 250.75344 242.44 
L 254.841009 242.44 
L 254.841009 242.44 
L 250.75344 242.44 
z
" style="fill:#ffa500;opacity:0.8;"/>
   </g>
   <g id="patch_163">
    <path clip-path="url(#p12bc772c29)" d="M 254.841009 242.44 
L 258.928578 242.44 
L 258.928578 242.44 
L 254.841009 242.44 
z
" style="fill:#ffa500;opacity:0.8;"/>
   </g>
   <g id="patch_164">
    <path clip-path="url(#p12bc772c29)" d="M 258.928578 242.44 
L 263.016147 242.44 
L 263.016147 242.44 
L 258.928578 242.44 
z
" style="fill:#ffa500;opacity:0.8;"/>
   </g>
   <g id="patch_165">
    <path clip-path="url(#p12bc772c29)" d="M 263.016147 242.44 
L 267.103716 242.44 
L 267.103716 242.44 
L 263.016147 242.44 
z
" style="fill:#ffa500;opacity:0.8;"/>
   </g>
   <g id="patch_166">
    <path clip-path="url(#p12bc772c29)" d="M 267.103716 242.44 
L 271.191284 242.44 
L 271.191284 187.287619 
L 267.103716 187.287619 
z
" style="fill:#ffa500;opacity:0.8;"/>
   </g>
   <g id="matplotlib.axis_1">
    <g id="xtick_1">
     <g id="line2d_1">
      <defs>
       <path d="M 0 0 
L 0 3.5 
" id="m8a0f2ab098" style="stroke:#000000;stroke-width:0.8;"/>
      </defs>
      <g>
       <use style="stroke:#000000;stroke-width:0.8;" x="48.418784" xlink:href="#m8a0f2ab098" y="242.44"/>
      </g>
     </g>
     <g id="text_1">
      <!-- 0 -->
      <g transform="translate(45.237534 257.038437)scale(0.1 -0.1)">
       <defs>
        <path d="M 2034 4250 
Q 1547 4250 1301 3770 
Q 1056 3291 1056 2328 
Q 1056 1369 1301 889 
Q 1547 409 2034 409 
Q 2525 409 2770 889 
Q 3016 1369 3016 2328 
Q 3016 3291 2770 3770 
Q 2525 4250 2034 4250 
z
M 2034 4750 
Q 2819 4750 3233 4129 
Q 3647 3509 3647 2328 
Q 3647 1150 3233 529 
Q 2819 -91 2034 -91 
Q 1250 -91 836 529 
Q 422 1150 422 2328 
Q 422 3509 836 4129 
Q 1250 4750 2034 4750 
z
" id="DejaVuSans-30" transform="scale(0.015625)"/>
       </defs>
       <use xlink:href="#DejaVuSans-30"/>
      </g>
     </g>
    </g>
    <g id="xtick_2">
     <g id="line2d_2">
      <g>
       <use style="stroke:#000000;stroke-width:0.8;" x="130.170161" xlink:href="#m8a0f2ab098" y="242.44"/>
      </g>
     </g>
     <g id="text_2">
      <!-- 20 -->
      <g transform="translate(123.807661 257.038437)scale(0.1 -0.1)">
       <defs>
        <path d="M 1228 531 
L 3431 531 
L 3431 0 
L 469 0 
L 469 531 
Q 828 903 1448 1529 
Q 2069 2156 2228 2338 
Q 2531 2678 2651 2914 
Q 2772 3150 2772 3378 
Q 2772 3750 2511 3984 
Q 2250 4219 1831 4219 
Q 1534 4219 1204 4116 
Q 875 4013 500 3803 
L 500 4441 
Q 881 4594 1212 4672 
Q 1544 4750 1819 4750 
Q 2544 4750 2975 4387 
Q 3406 4025 3406 3419 
Q 3406 3131 3298 2873 
Q 3191 2616 2906 2266 
Q 2828 2175 2409 1742 
Q 1991 1309 1228 531 
z
" id="DejaVuSans-32" transform="scale(0.015625)"/>
       </defs>
       <use xlink:href="#DejaVuSans-32"/>
       <use x="63.623047" xlink:href="#DejaVuSans-30"/>
      </g>
     </g>
    </g>
    <g id="xtick_3">
     <g id="line2d_3">
      <g>
       <use style="stroke:#000000;stroke-width:0.8;" x="211.921537" xlink:href="#m8a0f2ab098" y="242.44"/>
      </g>
     </g>
     <g id="text_3">
      <!-- 40 -->
      <g transform="translate(205.559037 257.038437)scale(0.1 -0.1)">
       <defs>
        <path d="M 2419 4116 
L 825 1625 
L 2419 1625 
L 2419 4116 
z
M 2253 4666 
L 3047 4666 
L 3047 1625 
L 3713 1625 
L 3713 1100 
L 3047 1100 
L 3047 0 
L 2419 0 
L 2419 1100 
L 313 1100 
L 313 1709 
L 2253 4666 
z
" id="DejaVuSans-34" transform="scale(0.015625)"/>
       </defs>
       <use xlink:href="#DejaVuSans-34"/>
       <use x="63.623047" xlink:href="#DejaVuSans-30"/>
      </g>
     </g>
    </g>
    <g id="xtick_4">
     <g id="line2d_4">
      <g>
       <use style="stroke:#000000;stroke-width:0.8;" x="293.672913" xlink:href="#m8a0f2ab098" y="242.44"/>
      </g>
     </g>
     <g id="text_4">
      <!-- 60 -->
      <g transform="translate(287.310413 257.038437)scale(0.1 -0.1)">
       <defs>
        <path d="M 2113 2584 
Q 1688 2584 1439 2293 
Q 1191 2003 1191 1497 
Q 1191 994 1439 701 
Q 1688 409 2113 409 
Q 2538 409 2786 701 
Q 3034 994 3034 1497 
Q 3034 2003 2786 2293 
Q 2538 2584 2113 2584 
z
M 3366 4563 
L 3366 3988 
Q 3128 4100 2886 4159 
Q 2644 4219 2406 4219 
Q 1781 4219 1451 3797 
Q 1122 3375 1075 2522 
Q 1259 2794 1537 2939 
Q 1816 3084 2150 3084 
Q 2853 3084 3261 2657 
Q 3669 2231 3669 1497 
Q 3669 778 3244 343 
Q 2819 -91 2113 -91 
Q 1303 -91 875 529 
Q 447 1150 447 2328 
Q 447 3434 972 4092 
Q 1497 4750 2381 4750 
Q 2619 4750 2861 4703 
Q 3103 4656 3366 4563 
z
" id="DejaVuSans-36" transform="scale(0.015625)"/>
       </defs>
       <use xlink:href="#DejaVuSans-36"/>
       <use x="63.623047" xlink:href="#DejaVuSans-30"/>
      </g>
     </g>
    </g>
    <g id="xtick_5">
     <g id="line2d_5">
      <g>
       <use style="stroke:#000000;stroke-width:0.8;" x="375.424289" xlink:href="#m8a0f2ab098" y="242.44"/>
      </g>
     </g>
     <g id="text_5">
      <!-- 80 -->
      <g transform="translate(369.061789 257.038437)scale(0.1 -0.1)">
       <defs>
        <path d="M 2034 2216 
Q 1584 2216 1326 1975 
Q 1069 1734 1069 1313 
Q 1069 891 1326 650 
Q 1584 409 2034 409 
Q 2484 409 2743 651 
Q 3003 894 3003 1313 
Q 3003 1734 2745 1975 
Q 2488 2216 2034 2216 
z
M 1403 2484 
Q 997 2584 770 2862 
Q 544 3141 544 3541 
Q 544 4100 942 4425 
Q 1341 4750 2034 4750 
Q 2731 4750 3128 4425 
Q 3525 4100 3525 3541 
Q 3525 3141 3298 2862 
Q 3072 2584 2669 2484 
Q 3125 2378 3379 2068 
Q 3634 1759 3634 1313 
Q 3634 634 3220 271 
Q 2806 -91 2034 -91 
Q 1263 -91 848 271 
Q 434 634 434 1313 
Q 434 1759 690 2068 
Q 947 2378 1403 2484 
z
M 1172 3481 
Q 1172 3119 1398 2916 
Q 1625 2713 2034 2713 
Q 2441 2713 2670 2916 
Q 2900 3119 2900 3481 
Q 2900 3844 2670 4047 
Q 2441 4250 2034 4250 
Q 1625 4250 1398 4047 
Q 1172 3844 1172 3481 
z
" id="DejaVuSans-38" transform="scale(0.015625)"/>
       </defs>
       <use xlink:href="#DejaVuSans-38"/>
       <use x="63.623047" xlink:href="#DejaVuSans-30"/>
      </g>
     </g>
    </g>
    <g id="xtick_6">
     <g id="line2d_6">
      <g>
       <use style="stroke:#000000;stroke-width:0.8;" x="457.175665" xlink:href="#m8a0f2ab098" y="242.44"/>
      </g>
     </g>
     <g id="text_6">
      <!-- 100 -->
      <g transform="translate(447.631915 257.038437)scale(0.1 -0.1)">
       <defs>
        <path d="M 794 531 
L 1825 531 
L 1825 4091 
L 703 3866 
L 703 4441 
L 1819 4666 
L 2450 4666 
L 2450 531 
L 3481 531 
L 3481 0 
L 794 0 
L 794 531 
z
" id="DejaVuSans-31" transform="scale(0.015625)"/>
       </defs>
       <use xlink:href="#DejaVuSans-31"/>
       <use x="63.623047" xlink:href="#DejaVuSans-30"/>
       <use x="127.246094" xlink:href="#DejaVuSans-30"/>
      </g>
     </g>
    </g>
    <g id="text_7">
     <!-- Number of replays per trial -->
     <g transform="translate(174.456094 273.755937)scale(0.14 -0.14)">
      <defs>
       <path d="M 628 4666 
L 1478 4666 
L 3547 763 
L 3547 4666 
L 4159 4666 
L 4159 0 
L 3309 0 
L 1241 3903 
L 1241 0 
L 628 0 
L 628 4666 
z
" id="DejaVuSans-4e" transform="scale(0.015625)"/>
       <path d="M 544 1381 
L 544 3500 
L 1119 3500 
L 1119 1403 
Q 1119 906 1312 657 
Q 1506 409 1894 409 
Q 2359 409 2629 706 
Q 2900 1003 2900 1516 
L 2900 3500 
L 3475 3500 
L 3475 0 
L 2900 0 
L 2900 538 
Q 2691 219 2414 64 
Q 2138 -91 1772 -91 
Q 1169 -91 856 284 
Q 544 659 544 1381 
z
M 1991 3584 
L 1991 3584 
z
" id="DejaVuSans-75" transform="scale(0.015625)"/>
       <path d="M 3328 2828 
Q 3544 3216 3844 3400 
Q 4144 3584 4550 3584 
Q 5097 3584 5394 3201 
Q 5691 2819 5691 2113 
L 5691 0 
L 5113 0 
L 5113 2094 
Q 5113 2597 4934 2840 
Q 4756 3084 4391 3084 
Q 3944 3084 3684 2787 
Q 3425 2491 3425 1978 
L 3425 0 
L 2847 0 
L 2847 2094 
Q 2847 2600 2669 2842 
Q 2491 3084 2119 3084 
Q 1678 3084 1418 2786 
Q 1159 2488 1159 1978 
L 1159 0 
L 581 0 
L 581 3500 
L 1159 3500 
L 1159 2956 
Q 1356 3278 1631 3431 
Q 1906 3584 2284 3584 
Q 2666 3584 2933 3390 
Q 3200 3197 3328 2828 
z
" id="DejaVuSans-6d" transform="scale(0.015625)"/>
       <path d="M 3116 1747 
Q 3116 2381 2855 2742 
Q 2594 3103 2138 3103 
Q 1681 3103 1420 2742 
Q 1159 2381 1159 1747 
Q 1159 1113 1420 752 
Q 1681 391 2138 391 
Q 2594 391 2855 752 
Q 3116 1113 3116 1747 
z
M 1159 2969 
Q 1341 3281 1617 3432 
Q 1894 3584 2278 3584 
Q 2916 3584 3314 3078 
Q 3713 2572 3713 1747 
Q 3713 922 3314 415 
Q 2916 -91 2278 -91 
Q 1894 -91 1617 61 
Q 1341 213 1159 525 
L 1159 0 
L 581 0 
L 581 4863 
L 1159 4863 
L 1159 2969 
z
" id="DejaVuSans-62" transform="scale(0.015625)"/>
       <path d="M 3597 1894 
L 3597 1613 
L 953 1613 
Q 991 1019 1311 708 
Q 1631 397 2203 397 
Q 2534 397 2845 478 
Q 3156 559 3463 722 
L 3463 178 
Q 3153 47 2828 -22 
Q 2503 -91 2169 -91 
Q 1331 -91 842 396 
Q 353 884 353 1716 
Q 353 2575 817 3079 
Q 1281 3584 2069 3584 
Q 2775 3584 3186 3129 
Q 3597 2675 3597 1894 
z
M 3022 2063 
Q 3016 2534 2758 2815 
Q 2500 3097 2075 3097 
Q 1594 3097 1305 2825 
Q 1016 2553 972 2059 
L 3022 2063 
z
" id="DejaVuSans-65" transform="scale(0.015625)"/>
       <path d="M 2631 2963 
Q 2534 3019 2420 3045 
Q 2306 3072 2169 3072 
Q 1681 3072 1420 2755 
Q 1159 2438 1159 1844 
L 1159 0 
L 581 0 
L 581 3500 
L 1159 3500 
L 1159 2956 
Q 1341 3275 1631 3429 
Q 1922 3584 2338 3584 
Q 2397 3584 2469 3576 
Q 2541 3569 2628 3553 
L 2631 2963 
z
" id="DejaVuSans-72" transform="scale(0.015625)"/>
       <path id="DejaVuSans-20" transform="scale(0.015625)"/>
       <path d="M 1959 3097 
Q 1497 3097 1228 2736 
Q 959 2375 959 1747 
Q 959 1119 1226 758 
Q 1494 397 1959 397 
Q 2419 397 2687 759 
Q 2956 1122 2956 1747 
Q 2956 2369 2687 2733 
Q 2419 3097 1959 3097 
z
M 1959 3584 
Q 2709 3584 3137 3096 
Q 3566 2609 3566 1747 
Q 3566 888 3137 398 
Q 2709 -91 1959 -91 
Q 1206 -91 779 398 
Q 353 888 353 1747 
Q 353 2609 779 3096 
Q 1206 3584 1959 3584 
z
" id="DejaVuSans-6f" transform="scale(0.015625)"/>
       <path d="M 2375 4863 
L 2375 4384 
L 1825 4384 
Q 1516 4384 1395 4259 
Q 1275 4134 1275 3809 
L 1275 3500 
L 2222 3500 
L 2222 3053 
L 1275 3053 
L 1275 0 
L 697 0 
L 697 3053 
L 147 3053 
L 147 3500 
L 697 3500 
L 697 3744 
Q 697 4328 969 4595 
Q 1241 4863 1831 4863 
L 2375 4863 
z
" id="DejaVuSans-66" transform="scale(0.015625)"/>
       <path d="M 1159 525 
L 1159 -1331 
L 581 -1331 
L 581 3500 
L 1159 3500 
L 1159 2969 
Q 1341 3281 1617 3432 
Q 1894 3584 2278 3584 
Q 2916 3584 3314 3078 
Q 3713 2572 3713 1747 
Q 3713 922 3314 415 
Q 2916 -91 2278 -91 
Q 1894 -91 1617 61 
Q 1341 213 1159 525 
z
M 3116 1747 
Q 3116 2381 2855 2742 
Q 2594 3103 2138 3103 
Q 1681 3103 1420 2742 
Q 1159 2381 1159 1747 
Q 1159 1113 1420 752 
Q 1681 391 2138 391 
Q 2594 391 2855 752 
Q 3116 1113 3116 1747 
z
" id="DejaVuSans-70" transform="scale(0.015625)"/>
       <path d="M 603 4863 
L 1178 4863 
L 1178 0 
L 603 0 
L 603 4863 
z
" id="DejaVuSans-6c" transform="scale(0.015625)"/>
       <path d="M 2194 1759 
Q 1497 1759 1228 1600 
Q 959 1441 959 1056 
Q 959 750 1161 570 
Q 1363 391 1709 391 
Q 2188 391 2477 730 
Q 2766 1069 2766 1631 
L 2766 1759 
L 2194 1759 
z
M 3341 1997 
L 3341 0 
L 2766 0 
L 2766 531 
Q 2569 213 2275 61 
Q 1981 -91 1556 -91 
Q 1019 -91 701 211 
Q 384 513 384 1019 
Q 384 1609 779 1909 
Q 1175 2209 1959 2209 
L 2766 2209 
L 2766 2266 
Q 2766 2663 2505 2880 
Q 2244 3097 1772 3097 
Q 1472 3097 1187 3025 
Q 903 2953 641 2809 
L 641 3341 
Q 956 3463 1253 3523 
Q 1550 3584 1831 3584 
Q 2591 3584 2966 3190 
Q 3341 2797 3341 1997 
z
" id="DejaVuSans-61" transform="scale(0.015625)"/>
       <path d="M 2059 -325 
Q 1816 -950 1584 -1140 
Q 1353 -1331 966 -1331 
L 506 -1331 
L 506 -850 
L 844 -850 
Q 1081 -850 1212 -737 
Q 1344 -625 1503 -206 
L 1606 56 
L 191 3500 
L 800 3500 
L 1894 763 
L 2988 3500 
L 3597 3500 
L 2059 -325 
z
" id="DejaVuSans-79" transform="scale(0.015625)"/>
       <path d="M 2834 3397 
L 2834 2853 
Q 2591 2978 2328 3040 
Q 2066 3103 1784 3103 
Q 1356 3103 1142 2972 
Q 928 2841 928 2578 
Q 928 2378 1081 2264 
Q 1234 2150 1697 2047 
L 1894 2003 
Q 2506 1872 2764 1633 
Q 3022 1394 3022 966 
Q 3022 478 2636 193 
Q 2250 -91 1575 -91 
Q 1294 -91 989 -36 
Q 684 19 347 128 
L 347 722 
Q 666 556 975 473 
Q 1284 391 1588 391 
Q 1994 391 2212 530 
Q 2431 669 2431 922 
Q 2431 1156 2273 1281 
Q 2116 1406 1581 1522 
L 1381 1569 
Q 847 1681 609 1914 
Q 372 2147 372 2553 
Q 372 3047 722 3315 
Q 1072 3584 1716 3584 
Q 2034 3584 2315 3537 
Q 2597 3491 2834 3397 
z
" id="DejaVuSans-73" transform="scale(0.015625)"/>
       <path d="M 1172 4494 
L 1172 3500 
L 2356 3500 
L 2356 3053 
L 1172 3053 
L 1172 1153 
Q 1172 725 1289 603 
Q 1406 481 1766 481 
L 2356 481 
L 2356 0 
L 1766 0 
Q 1100 0 847 248 
Q 594 497 594 1153 
L 594 3053 
L 172 3053 
L 172 3500 
L 594 3500 
L 594 4494 
L 1172 4494 
z
" id="DejaVuSans-74" transform="scale(0.015625)"/>
       <path d="M 603 3500 
L 1178 3500 
L 1178 0 
L 603 0 
L 603 3500 
z
M 603 4863 
L 1178 4863 
L 1178 4134 
L 603 4134 
L 603 4863 
z
" id="DejaVuSans-69" transform="scale(0.015625)"/>
      </defs>
      <use xlink:href="#DejaVuSans-4e"/>
      <use x="74.804688" xlink:href="#DejaVuSans-75"/>
      <use x="138.183594" xlink:href="#DejaVuSans-6d"/>
      <use x="235.595703" xlink:href="#DejaVuSans-62"/>
      <use x="299.072266" xlink:href="#DejaVuSans-65"/>
      <use x="360.595703" xlink:href="#DejaVuSans-72"/>
      <use x="401.708984" xlink:href="#DejaVuSans-20"/>
      <use x="433.496094" xlink:href="#DejaVuSans-6f"/>
      <use x="494.677734" xlink:href="#DejaVuSans-66"/>
      <use x="529.882812" xlink:href="#DejaVuSans-20"/>
      <use x="561.669922" xlink:href="#DejaVuSans-72"/>
      <use x="600.533203" xlink:href="#DejaVuSans-65"/>
      <use x="662.056641" xlink:href="#DejaVuSans-70"/>
      <use x="725.533203" xlink:href="#DejaVuSans-6c"/>
      <use x="753.316406" xlink:href="#DejaVuSans-61"/>
      <use x="814.595703" xlink:href="#DejaVuSans-79"/>
      <use x="873.775391" xlink:href="#DejaVuSans-73"/>
      <use x="925.875" xlink:href="#DejaVuSans-20"/>
      <use x="957.662109" xlink:href="#DejaVuSans-70"/>
      <use x="1021.138672" xlink:href="#DejaVuSans-65"/>
      <use x="1082.662109" xlink:href="#DejaVuSans-72"/>
      <use x="1123.775391" xlink:href="#DejaVuSans-20"/>
      <use x="1155.5625" xlink:href="#DejaVuSans-74"/>
      <use x="1194.771484" xlink:href="#DejaVuSans-72"/>
      <use x="1235.884766" xlink:href="#DejaVuSans-69"/>
      <use x="1263.667969" xlink:href="#DejaVuSans-61"/>
      <use x="1324.947266" xlink:href="#DejaVuSans-6c"/>
     </g>
    </g>
   </g>
   <g id="matplotlib.axis_2">
    <g id="ytick_1">
     <g id="line2d_7">
      <defs>
       <path d="M 0 0 
L -3.5 0 
" id="m57eb2d9eee" style="stroke:#000000;stroke-width:0.8;"/>
      </defs>
      <g>
       <use style="stroke:#000000;stroke-width:0.8;" x="46.375" xlink:href="#m57eb2d9eee" y="242.44"/>
      </g>
     </g>
     <g id="text_8">
      <!-- 0.000 -->
      <g transform="translate(10.746875 246.239219)scale(0.1 -0.1)">
       <defs>
        <path d="M 684 794 
L 1344 794 
L 1344 0 
L 684 0 
L 684 794 
z
" id="DejaVuSans-2e" transform="scale(0.015625)"/>
       </defs>
       <use xlink:href="#DejaVuSans-30"/>
       <use x="63.623047" xlink:href="#DejaVuSans-2e"/>
       <use x="95.410156" xlink:href="#DejaVuSans-30"/>
       <use x="159.033203" xlink:href="#DejaVuSans-30"/>
       <use x="222.65625" xlink:href="#DejaVuSans-30"/>
      </g>
     </g>
    </g>
    <g id="ytick_2">
     <g id="line2d_8">
      <g>
       <use style="stroke:#000000;stroke-width:0.8;" x="46.375" xlink:href="#m57eb2d9eee" y="214.86381"/>
      </g>
     </g>
     <g id="text_9">
      <!-- 0.025 -->
      <g transform="translate(10.746875 218.663028)scale(0.1 -0.1)">
       <defs>
        <path d="M 691 4666 
L 3169 4666 
L 3169 4134 
L 1269 4134 
L 1269 2991 
Q 1406 3038 1543 3061 
Q 1681 3084 1819 3084 
Q 2600 3084 3056 2656 
Q 3513 2228 3513 1497 
Q 3513 744 3044 326 
Q 2575 -91 1722 -91 
Q 1428 -91 1123 -41 
Q 819 9 494 109 
L 494 744 
Q 775 591 1075 516 
Q 1375 441 1709 441 
Q 2250 441 2565 725 
Q 2881 1009 2881 1497 
Q 2881 1984 2565 2268 
Q 2250 2553 1709 2553 
Q 1456 2553 1204 2497 
Q 953 2441 691 2322 
L 691 4666 
z
" id="DejaVuSans-35" transform="scale(0.015625)"/>
       </defs>
       <use xlink:href="#DejaVuSans-30"/>
       <use x="63.623047" xlink:href="#DejaVuSans-2e"/>
       <use x="95.410156" xlink:href="#DejaVuSans-30"/>
       <use x="159.033203" xlink:href="#DejaVuSans-32"/>
       <use x="222.65625" xlink:href="#DejaVuSans-35"/>
      </g>
     </g>
    </g>
    <g id="ytick_3">
     <g id="line2d_9">
      <g>
       <use style="stroke:#000000;stroke-width:0.8;" x="46.375" xlink:href="#m57eb2d9eee" y="187.287619"/>
      </g>
     </g>
     <g id="text_10">
      <!-- 0.050 -->
      <g transform="translate(10.746875 191.086838)scale(0.1 -0.1)">
       <use xlink:href="#DejaVuSans-30"/>
       <use x="63.623047" xlink:href="#DejaVuSans-2e"/>
       <use x="95.410156" xlink:href="#DejaVuSans-30"/>
       <use x="159.033203" xlink:href="#DejaVuSans-35"/>
       <use x="222.65625" xlink:href="#DejaVuSans-30"/>
      </g>
     </g>
    </g>
    <g id="ytick_4">
     <g id="line2d_10">
      <g>
       <use style="stroke:#000000;stroke-width:0.8;" x="46.375" xlink:href="#m57eb2d9eee" y="159.711429"/>
      </g>
     </g>
     <g id="text_11">
      <!-- 0.075 -->
      <g transform="translate(10.746875 163.510647)scale(0.1 -0.1)">
       <defs>
        <path d="M 525 4666 
L 3525 4666 
L 3525 4397 
L 1831 0 
L 1172 0 
L 2766 4134 
L 525 4134 
L 525 4666 
z
" id="DejaVuSans-37" transform="scale(0.015625)"/>
       </defs>
       <use xlink:href="#DejaVuSans-30"/>
       <use x="63.623047" xlink:href="#DejaVuSans-2e"/>
       <use x="95.410156" xlink:href="#DejaVuSans-30"/>
       <use x="159.033203" xlink:href="#DejaVuSans-37"/>
       <use x="222.65625" xlink:href="#DejaVuSans-35"/>
      </g>
     </g>
    </g>
    <g id="ytick_5">
     <g id="line2d_11">
      <g>
       <use style="stroke:#000000;stroke-width:0.8;" x="46.375" xlink:href="#m57eb2d9eee" y="132.135238"/>
      </g>
     </g>
     <g id="text_12">
      <!-- 0.100 -->
      <g transform="translate(10.746875 135.934457)scale(0.1 -0.1)">
       <use xlink:href="#DejaVuSans-30"/>
       <use x="63.623047" xlink:href="#DejaVuSans-2e"/>
       <use x="95.410156" xlink:href="#DejaVuSans-31"/>
       <use x="159.033203" xlink:href="#DejaVuSans-30"/>
       <use x="222.65625" xlink:href="#DejaVuSans-30"/>
      </g>
     </g>
    </g>
    <g id="ytick_6">
     <g id="line2d_12">
      <g>
       <use style="stroke:#000000;stroke-width:0.8;" x="46.375" xlink:href="#m57eb2d9eee" y="104.559048"/>
      </g>
     </g>
     <g id="text_13">
      <!-- 0.125 -->
      <g transform="translate(10.746875 108.358266)scale(0.1 -0.1)">
       <use xlink:href="#DejaVuSans-30"/>
       <use x="63.623047" xlink:href="#DejaVuSans-2e"/>
       <use x="95.410156" xlink:href="#DejaVuSans-31"/>
       <use x="159.033203" xlink:href="#DejaVuSans-32"/>
       <use x="222.65625" xlink:href="#DejaVuSans-35"/>
      </g>
     </g>
    </g>
    <g id="ytick_7">
     <g id="line2d_13">
      <g>
       <use style="stroke:#000000;stroke-width:0.8;" x="46.375" xlink:href="#m57eb2d9eee" y="76.982857"/>
      </g>
     </g>
     <g id="text_14">
      <!-- 0.150 -->
      <g transform="translate(10.746875 80.782076)scale(0.1 -0.1)">
       <use xlink:href="#DejaVuSans-30"/>
       <use x="63.623047" xlink:href="#DejaVuSans-2e"/>
       <use x="95.410156" xlink:href="#DejaVuSans-31"/>
       <use x="159.033203" xlink:href="#DejaVuSans-35"/>
       <use x="222.65625" xlink:href="#DejaVuSans-30"/>
      </g>
     </g>
    </g>
    <g id="ytick_8">
     <g id="line2d_14">
      <g>
       <use style="stroke:#000000;stroke-width:0.8;" x="46.375" xlink:href="#m57eb2d9eee" y="49.406667"/>
      </g>
     </g>
     <g id="text_15">
      <!-- 0.175 -->
      <g transform="translate(10.746875 53.205885)scale(0.1 -0.1)">
       <use xlink:href="#DejaVuSans-30"/>
       <use x="63.623047" xlink:href="#DejaVuSans-2e"/>
       <use x="95.410156" xlink:href="#DejaVuSans-31"/>
       <use x="159.033203" xlink:href="#DejaVuSans-37"/>
       <use x="222.65625" xlink:href="#DejaVuSans-35"/>
      </g>
     </g>
    </g>
    <g id="ytick_9">
     <g id="line2d_15">
      <g>
       <use style="stroke:#000000;stroke-width:0.8;" x="46.375" xlink:href="#m57eb2d9eee" y="21.830476"/>
      </g>
     </g>
     <g id="text_16">
      <!-- 0.200 -->
      <g transform="translate(10.746875 25.629695)scale(0.1 -0.1)">
       <use xlink:href="#DejaVuSans-30"/>
       <use x="63.623047" xlink:href="#DejaVuSans-2e"/>
       <use x="95.410156" xlink:href="#DejaVuSans-32"/>
       <use x="159.033203" xlink:href="#DejaVuSans-30"/>
       <use x="222.65625" xlink:href="#DejaVuSans-30"/>
      </g>
     </g>
    </g>
   </g>
   <g id="patch_167">
    <path d="M 46.375 242.44 
L 46.375 10.8 
" style="fill:none;stroke:#000000;stroke-linecap:square;stroke-linejoin:miter;stroke-width:0.8;"/>
   </g>
   <g id="patch_168">
    <path d="M 491.92 242.44 
L 491.92 10.8 
" style="fill:none;stroke:#000000;stroke-linecap:square;stroke-linejoin:miter;stroke-width:0.8;"/>
   </g>
   <g id="patch_169">
    <path d="M 46.375 242.44 
L 491.92 242.44 
" style="fill:none;stroke:#000000;stroke-linecap:square;stroke-linejoin:miter;stroke-width:0.8;"/>
   </g>
   <g id="patch_170">
    <path d="M 46.375 10.8 
L 491.92 10.8 
" style="fill:none;stroke:#000000;stroke-linecap:square;stroke-linejoin:miter;stroke-width:0.8;"/>
   </g>
  </g>
  <g id="axes_2">
   <g id="patch_171">
    <path d="M 551.655 242.44 
L 997.2 242.44 
L 997.2 10.8 
L 551.655 10.8 
z
" style="fill:none;"/>
   </g>
   <g id="patch_172">
    <path clip-path="url(#pc2216fae1c)" d="M 551.655 126.62 
L 563.079231 126.62 
L 563.079231 126.62 
L 551.655 126.62 
z
" style="fill:#0000ff;"/>
   </g>
   <g id="patch_173">
    <path clip-path="url(#pc2216fae1c)" d="M 563.079231 126.62 
L 574.503462 126.62 
L 574.503462 126.568166 
L 563.079231 126.568166 
z
" style="fill:#0000ff;"/>
   </g>
   <g id="patch_174">
    <path clip-path="url(#pc2216fae1c)" d="M 574.503462 126.62 
L 585.927692 126.62 
L 585.927692 124.581199 
L 574.503462 124.581199 
z
" style="fill:#0000ff;"/>
   </g>
   <g id="patch_175">
    <path clip-path="url(#pc2216fae1c)" d="M 585.927692 126.62 
L 597.351923 126.62 
L 597.351923 121.332941 
L 585.927692 121.332941 
z
" style="fill:#0000ff;"/>
   </g>
   <g id="patch_176">
    <path clip-path="url(#pc2216fae1c)" d="M 597.351923 126.62 
L 608.776154 126.62 
L 608.776154 124.23564 
L 597.351923 124.23564 
z
" style="fill:#0000ff;"/>
   </g>
   <g id="patch_177">
    <path clip-path="url(#pc2216fae1c)" d="M 608.776154 126.62 
L 620.200385 126.62 
L 620.200385 125.364467 
L 608.776154 125.364467 
z
" style="fill:#0000ff;"/>
   </g>
   <g id="patch_178">
    <path clip-path="url(#pc2216fae1c)" d="M 620.200385 126.62 
L 631.624615 126.62 
L 631.624615 123.573318 
L 620.200385 123.573318 
z
" style="fill:#0000ff;"/>
   </g>
   <g id="patch_179">
    <path clip-path="url(#pc2216fae1c)" d="M 631.624615 126.62 
L 643.048846 126.62 
L 643.048846 123.492687 
L 631.624615 123.492687 
z
" style="fill:#0000ff;"/>
   </g>
   <g id="patch_180">
    <path clip-path="url(#pc2216fae1c)" d="M 643.048846 126.62 
L 654.473077 126.62 
L 654.473077 122.075894 
L 643.048846 122.075894 
z
" style="fill:#0000ff;"/>
   </g>
   <g id="patch_181">
    <path clip-path="url(#pc2216fae1c)" d="M 654.473077 126.62 
L 665.897308 126.62 
L 665.897308 121.707297 
L 654.473077 121.707297 
z
" style="fill:#0000ff;"/>
   </g>
   <g id="patch_182">
    <path clip-path="url(#pc2216fae1c)" d="M 665.897308 126.62 
L 677.321538 126.62 
L 677.321538 121.995263 
L 665.897308 121.995263 
z
" style="fill:#0000ff;"/>
   </g>
   <g id="patch_183">
    <path clip-path="url(#pc2216fae1c)" d="M 677.321538 126.62 
L 688.745769 126.62 
L 688.745769 123.371741 
L 677.321538 123.371741 
z
" style="fill:#0000ff;"/>
   </g>
   <g id="patch_184">
    <path clip-path="url(#pc2216fae1c)" d="M 688.745769 126.62 
L 700.17 126.62 
L 700.17 123.066497 
L 688.745769 123.066497 
z
" style="fill:#0000ff;"/>
   </g>
   <g id="patch_185">
    <path clip-path="url(#pc2216fae1c)" d="M 700.17 126.62 
L 711.594231 126.62 
L 711.594231 122.10469 
L 700.17 122.10469 
z
" style="fill:#0000ff;"/>
   </g>
   <g id="patch_186">
    <path clip-path="url(#pc2216fae1c)" d="M 711.594231 126.62 
L 723.018462 126.62 
L 723.018462 120.054371 
L 711.594231 120.054371 
z
" style="fill:#0000ff;"/>
   </g>
   <g id="patch_187">
    <path clip-path="url(#pc2216fae1c)" d="M 723.018462 126.62 
L 734.442692 126.62 
L 734.442692 119.288381 
L 723.018462 119.288381 
z
" style="fill:#0000ff;"/>
   </g>
   <g id="patch_188">
    <path clip-path="url(#pc2216fae1c)" d="M 734.442692 126.62 
L 745.866923 126.62 
L 745.866923 116.466312 
L 734.442692 116.466312 
z
" style="fill:#0000ff;"/>
   </g>
   <g id="patch_189">
    <path clip-path="url(#pc2216fae1c)" d="M 745.866923 126.62 
L 757.291154 126.62 
L 757.291154 112.573009 
L 745.866923 112.573009 
z
" style="fill:#0000ff;"/>
   </g>
   <g id="patch_190">
    <path clip-path="url(#pc2216fae1c)" d="M 757.291154 126.62 
L 768.715385 126.62 
L 768.715385 109.693348 
L 757.291154 109.693348 
z
" style="fill:#0000ff;"/>
   </g>
   <g id="patch_191">
    <path clip-path="url(#pc2216fae1c)" d="M 768.715385 126.62 
L 780.139615 126.62 
L 780.139615 102.540268 
L 768.715385 102.540268 
z
" style="fill:#0000ff;"/>
   </g>
   <g id="patch_192">
    <path clip-path="url(#pc2216fae1c)" d="M 780.139615 126.62 
L 791.563846 126.62 
L 791.563846 16.67451 
L 780.139615 16.67451 
z
" style="fill:#0000ff;"/>
   </g>
   <g id="patch_193">
    <path clip-path="url(#pc2216fae1c)" d="M 791.563846 126.62 
L 802.988077 126.62 
L 802.988077 126.62 
L 791.563846 126.62 
z
" style="fill:#0000ff;"/>
   </g>
   <g id="patch_194">
    <path clip-path="url(#pc2216fae1c)" d="M 802.988077 126.62 
L 814.412308 126.62 
L 814.412308 126.62 
L 802.988077 126.62 
z
" style="fill:#0000ff;"/>
   </g>
   <g id="patch_195">
    <path clip-path="url(#pc2216fae1c)" d="M 814.412308 126.62 
L 825.836538 126.62 
L 825.836538 126.62 
L 814.412308 126.62 
z
" style="fill:#0000ff;"/>
   </g>
   <g id="patch_196">
    <path clip-path="url(#pc2216fae1c)" d="M 825.836538 126.62 
L 837.260769 126.62 
L 837.260769 126.62 
L 825.836538 126.62 
z
" style="fill:#0000ff;"/>
   </g>
   <g id="patch_197">
    <path clip-path="url(#pc2216fae1c)" d="M 837.260769 126.62 
L 848.685 126.62 
L 848.685 126.62 
L 837.260769 126.62 
z
" style="fill:#0000ff;"/>
   </g>
   <g id="patch_198">
    <path clip-path="url(#pc2216fae1c)" d="M 848.685 126.62 
L 860.109231 126.62 
L 860.109231 126.62 
L 848.685 126.62 
z
" style="fill:#0000ff;"/>
   </g>
   <g id="patch_199">
    <path clip-path="url(#pc2216fae1c)" d="M 860.109231 126.62 
L 871.533462 126.62 
L 871.533462 126.62 
L 860.109231 126.62 
z
" style="fill:#0000ff;"/>
   </g>
   <g id="patch_200">
    <path clip-path="url(#pc2216fae1c)" d="M 871.533462 126.62 
L 882.957692 126.62 
L 882.957692 126.62 
L 871.533462 126.62 
z
" style="fill:#0000ff;"/>
   </g>
   <g id="patch_201">
    <path clip-path="url(#pc2216fae1c)" d="M 882.957692 126.62 
L 894.381923 126.62 
L 894.381923 126.62 
L 882.957692 126.62 
z
" style="fill:#0000ff;"/>
   </g>
   <g id="patch_202">
    <path clip-path="url(#pc2216fae1c)" d="M 894.381923 126.62 
L 905.806154 126.62 
L 905.806154 126.62 
L 894.381923 126.62 
z
" style="fill:#0000ff;"/>
   </g>
   <g id="patch_203">
    <path clip-path="url(#pc2216fae1c)" d="M 905.806154 126.62 
L 917.230385 126.62 
L 917.230385 126.62 
L 905.806154 126.62 
z
" style="fill:#0000ff;"/>
   </g>
   <g id="patch_204">
    <path clip-path="url(#pc2216fae1c)" d="M 917.230385 126.62 
L 928.654615 126.62 
L 928.654615 126.62 
L 917.230385 126.62 
z
" style="fill:#0000ff;"/>
   </g>
   <g id="patch_205">
    <path clip-path="url(#pc2216fae1c)" d="M 928.654615 126.62 
L 940.078846 126.62 
L 940.078846 126.62 
L 928.654615 126.62 
z
" style="fill:#0000ff;"/>
   </g>
   <g id="patch_206">
    <path clip-path="url(#pc2216fae1c)" d="M 940.078846 126.62 
L 951.503077 126.62 
L 951.503077 126.62 
L 940.078846 126.62 
z
" style="fill:#0000ff;"/>
   </g>
   <g id="patch_207">
    <path clip-path="url(#pc2216fae1c)" d="M 951.503077 126.62 
L 962.927308 126.62 
L 962.927308 126.62 
L 951.503077 126.62 
z
" style="fill:#0000ff;"/>
   </g>
   <g id="patch_208">
    <path clip-path="url(#pc2216fae1c)" d="M 962.927308 126.62 
L 974.351538 126.62 
L 974.351538 126.62 
L 962.927308 126.62 
z
" style="fill:#0000ff;"/>
   </g>
   <g id="patch_209">
    <path clip-path="url(#pc2216fae1c)" d="M 974.351538 126.62 
L 985.775769 126.62 
L 985.775769 126.62 
L 974.351538 126.62 
z
" style="fill:#0000ff;"/>
   </g>
   <g id="patch_210">
    <path clip-path="url(#pc2216fae1c)" d="M 985.775769 126.62 
L 997.2 126.62 
L 997.2 126.62 
L 985.775769 126.62 
z
" style="fill:#0000ff;"/>
   </g>
   <g id="patch_211">
    <path clip-path="url(#pc2216fae1c)" d="M 551.655 126.62 
L 563.079231 126.62 
L 563.079231 126.62 
L 551.655 126.62 
z
" style="fill:#ffa500;opacity:0.8;"/>
   </g>
   <g id="patch_212">
    <path clip-path="url(#pc2216fae1c)" d="M 563.079231 126.62 
L 574.503462 126.62 
L 574.503462 126.449996 
L 563.079231 126.449996 
z
" style="fill:#ffa500;opacity:0.8;"/>
   </g>
   <g id="patch_213">
    <path clip-path="url(#pc2216fae1c)" d="M 574.503462 126.62 
L 585.927692 126.62 
L 585.927692 124.365872 
L 574.503462 124.365872 
z
" style="fill:#ffa500;opacity:0.8;"/>
   </g>
   <g id="patch_214">
    <path clip-path="url(#pc2216fae1c)" d="M 585.927692 126.62 
L 597.351923 126.62 
L 597.351923 121.066533 
L 585.927692 121.066533 
z
" style="fill:#ffa500;opacity:0.8;"/>
   </g>
   <g id="patch_215">
    <path clip-path="url(#pc2216fae1c)" d="M 597.351923 126.62 
L 608.776154 126.62 
L 608.776154 121.028755 
L 597.351923 121.028755 
z
" style="fill:#ffa500;opacity:0.8;"/>
   </g>
   <g id="patch_216">
    <path clip-path="url(#pc2216fae1c)" d="M 608.776154 126.62 
L 620.200385 126.62 
L 620.200385 122.672128 
L 608.776154 122.672128 
z
" style="fill:#ffa500;opacity:0.8;"/>
   </g>
   <g id="patch_217">
    <path clip-path="url(#pc2216fae1c)" d="M 620.200385 126.62 
L 631.624615 126.62 
L 631.624615 123.566223 
L 620.200385 123.566223 
z
" style="fill:#ffa500;opacity:0.8;"/>
   </g>
   <g id="patch_218">
    <path clip-path="url(#pc2216fae1c)" d="M 631.624615 126.62 
L 643.048846 126.62 
L 643.048846 120.921715 
L 631.624615 120.921715 
z
" style="fill:#ffa500;opacity:0.8;"/>
   </g>
   <g id="patch_219">
    <path clip-path="url(#pc2216fae1c)" d="M 643.048846 126.62 
L 654.473077 126.62 
L 654.473077 120.285774 
L 643.048846 120.285774 
z
" style="fill:#ffa500;opacity:0.8;"/>
   </g>
   <g id="patch_220">
    <path clip-path="url(#pc2216fae1c)" d="M 654.473077 126.62 
L 665.897308 126.62 
L 665.897308 119.845023 
L 654.473077 119.845023 
z
" style="fill:#ffa500;opacity:0.8;"/>
   </g>
   <g id="patch_221">
    <path clip-path="url(#pc2216fae1c)" d="M 665.897308 126.62 
L 677.321538 126.62 
L 677.321538 120.247995 
L 665.897308 120.247995 
z
" style="fill:#ffa500;opacity:0.8;"/>
   </g>
   <g id="patch_222">
    <path clip-path="url(#pc2216fae1c)" d="M 677.321538 126.62 
L 688.745769 126.62 
L 688.745769 121.009865 
L 677.321538 121.009865 
z
" style="fill:#ffa500;opacity:0.8;"/>
   </g>
   <g id="patch_223">
    <path clip-path="url(#pc2216fae1c)" d="M 688.745769 126.62 
L 700.17 126.62 
L 700.17 119.555386 
L 688.745769 119.555386 
z
" style="fill:#ffa500;opacity:0.8;"/>
   </g>
   <g id="patch_224">
    <path clip-path="url(#pc2216fae1c)" d="M 700.17 126.62 
L 711.594231 126.62 
L 711.594231 119.517607 
L 700.17 119.517607 
z
" style="fill:#ffa500;opacity:0.8;"/>
   </g>
   <g id="patch_225">
    <path clip-path="url(#pc2216fae1c)" d="M 711.594231 126.62 
L 723.018462 126.62 
L 723.018462 119.586868 
L 711.594231 119.586868 
z
" style="fill:#ffa500;opacity:0.8;"/>
   </g>
   <g id="patch_226">
    <path clip-path="url(#pc2216fae1c)" d="M 723.018462 126.62 
L 734.442692 126.62 
L 734.442692 118.088314 
L 723.018462 118.088314 
z
" style="fill:#ffa500;opacity:0.8;"/>
   </g>
   <g id="patch_227">
    <path clip-path="url(#pc2216fae1c)" d="M 734.442692 126.62 
L 745.866923 126.62 
L 745.866923 116.048265 
L 734.442692 116.048265 
z
" style="fill:#ffa500;opacity:0.8;"/>
   </g>
   <g id="patch_228">
    <path clip-path="url(#pc2216fae1c)" d="M 745.866923 126.62 
L 757.291154 126.62 
L 757.291154 110.028861 
L 745.866923 110.028861 
z
" style="fill:#ffa500;opacity:0.8;"/>
   </g>
   <g id="patch_229">
    <path clip-path="url(#pc2216fae1c)" d="M 757.291154 126.62 
L 768.715385 126.62 
L 768.715385 111.206297 
L 757.291154 111.206297 
z
" style="fill:#ffa500;opacity:0.8;"/>
   </g>
   <g id="patch_230">
    <path clip-path="url(#pc2216fae1c)" d="M 768.715385 126.62 
L 780.139615 126.62 
L 780.139615 107.006567 
L 768.715385 107.006567 
z
" style="fill:#ffa500;opacity:0.8;"/>
   </g>
   <g id="patch_231">
    <path clip-path="url(#pc2216fae1c)" d="M 780.139615 126.62 
L 791.563846 126.62 
L 791.563846 38.261955 
L 780.139615 38.261955 
z
" style="fill:#ffa500;opacity:0.8;"/>
   </g>
   <g id="patch_232">
    <path clip-path="url(#pc2216fae1c)" d="M 791.563846 126.62 
L 802.988077 126.62 
L 802.988077 126.62 
L 791.563846 126.62 
z
" style="fill:#ffa500;opacity:0.8;"/>
   </g>
   <g id="patch_233">
    <path clip-path="url(#pc2216fae1c)" d="M 802.988077 126.62 
L 814.412308 126.62 
L 814.412308 126.62 
L 802.988077 126.62 
z
" style="fill:#ffa500;opacity:0.8;"/>
   </g>
   <g id="patch_234">
    <path clip-path="url(#pc2216fae1c)" d="M 814.412308 126.62 
L 825.836538 126.62 
L 825.836538 126.62 
L 814.412308 126.62 
z
" style="fill:#ffa500;opacity:0.8;"/>
   </g>
   <g id="patch_235">
    <path clip-path="url(#pc2216fae1c)" d="M 825.836538 126.62 
L 837.260769 126.62 
L 837.260769 126.62 
L 825.836538 126.62 
z
" style="fill:#ffa500;opacity:0.8;"/>
   </g>
   <g id="patch_236">
    <path clip-path="url(#pc2216fae1c)" d="M 837.260769 126.62 
L 848.685 126.62 
L 848.685 126.62 
L 837.260769 126.62 
z
" style="fill:#ffa500;opacity:0.8;"/>
   </g>
   <g id="patch_237">
    <path clip-path="url(#pc2216fae1c)" d="M 848.685 126.62 
L 860.109231 126.62 
L 860.109231 126.62 
L 848.685 126.62 
z
" style="fill:#ffa500;opacity:0.8;"/>
   </g>
   <g id="patch_238">
    <path clip-path="url(#pc2216fae1c)" d="M 860.109231 126.62 
L 871.533462 126.62 
L 871.533462 126.62 
L 860.109231 126.62 
z
" style="fill:#ffa500;opacity:0.8;"/>
   </g>
   <g id="patch_239">
    <path clip-path="url(#pc2216fae1c)" d="M 871.533462 126.62 
L 882.957692 126.62 
L 882.957692 126.62 
L 871.533462 126.62 
z
" style="fill:#ffa500;opacity:0.8;"/>
   </g>
   <g id="patch_240">
    <path clip-path="url(#pc2216fae1c)" d="M 882.957692 126.62 
L 894.381923 126.62 
L 894.381923 126.62 
L 882.957692 126.62 
z
" style="fill:#ffa500;opacity:0.8;"/>
   </g>
   <g id="patch_241">
    <path clip-path="url(#pc2216fae1c)" d="M 894.381923 126.62 
L 905.806154 126.62 
L 905.806154 126.62 
L 894.381923 126.62 
z
" style="fill:#ffa500;opacity:0.8;"/>
   </g>
   <g id="patch_242">
    <path clip-path="url(#pc2216fae1c)" d="M 905.806154 126.62 
L 917.230385 126.62 
L 917.230385 126.62 
L 905.806154 126.62 
z
" style="fill:#ffa500;opacity:0.8;"/>
   </g>
   <g id="patch_243">
    <path clip-path="url(#pc2216fae1c)" d="M 917.230385 126.62 
L 928.654615 126.62 
L 928.654615 126.62 
L 917.230385 126.62 
z
" style="fill:#ffa500;opacity:0.8;"/>
   </g>
   <g id="patch_244">
    <path clip-path="url(#pc2216fae1c)" d="M 928.654615 126.62 
L 940.078846 126.62 
L 940.078846 126.62 
L 928.654615 126.62 
z
" style="fill:#ffa500;opacity:0.8;"/>
   </g>
   <g id="patch_245">
    <path clip-path="url(#pc2216fae1c)" d="M 940.078846 126.62 
L 951.503077 126.62 
L 951.503077 126.62 
L 940.078846 126.62 
z
" style="fill:#ffa500;opacity:0.8;"/>
   </g>
   <g id="patch_246">
    <path clip-path="url(#pc2216fae1c)" d="M 951.503077 126.62 
L 962.927308 126.62 
L 962.927308 126.62 
L 951.503077 126.62 
z
" style="fill:#ffa500;opacity:0.8;"/>
   </g>
   <g id="patch_247">
    <path clip-path="url(#pc2216fae1c)" d="M 962.927308 126.62 
L 974.351538 126.62 
L 974.351538 126.62 
L 962.927308 126.62 
z
" style="fill:#ffa500;opacity:0.8;"/>
   </g>
   <g id="patch_248">
    <path clip-path="url(#pc2216fae1c)" d="M 974.351538 126.62 
L 985.775769 126.62 
L 985.775769 126.62 
L 974.351538 126.62 
z
" style="fill:#ffa500;opacity:0.8;"/>
   </g>
   <g id="patch_249">
    <path clip-path="url(#pc2216fae1c)" d="M 985.775769 126.62 
L 997.2 126.62 
L 997.2 126.62 
L 985.775769 126.62 
z
" style="fill:#ffa500;opacity:0.8;"/>
   </g>
   <g id="patch_250">
    <path clip-path="url(#pc2216fae1c)" d="M 551.655 126.62 
L 563.079231 126.62 
L 563.079231 126.62 
L 551.655 126.62 
z
" style="fill:#0000ff;"/>
   </g>
   <g id="patch_251">
    <path clip-path="url(#pc2216fae1c)" d="M 563.079231 126.62 
L 574.503462 126.62 
L 574.503462 126.62 
L 563.079231 126.62 
z
" style="fill:#0000ff;"/>
   </g>
   <g id="patch_252">
    <path clip-path="url(#pc2216fae1c)" d="M 574.503462 126.62 
L 585.927692 126.62 
L 585.927692 126.62 
L 574.503462 126.62 
z
" style="fill:#0000ff;"/>
   </g>
   <g id="patch_253">
    <path clip-path="url(#pc2216fae1c)" d="M 585.927692 126.62 
L 597.351923 126.62 
L 597.351923 126.63426 
L 585.927692 126.63426 
z
" style="fill:#0000ff;"/>
   </g>
   <g id="patch_254">
    <path clip-path="url(#pc2216fae1c)" d="M 597.351923 126.62 
L 608.776154 126.62 
L 608.776154 126.810138 
L 597.351923 126.810138 
z
" style="fill:#0000ff;"/>
   </g>
   <g id="patch_255">
    <path clip-path="url(#pc2216fae1c)" d="M 608.776154 126.62 
L 620.200385 126.62 
L 620.200385 127.002652 
L 608.776154 127.002652 
z
" style="fill:#0000ff;"/>
   </g>
   <g id="patch_256">
    <path clip-path="url(#pc2216fae1c)" d="M 620.200385 126.62 
L 631.624615 126.62 
L 631.624615 127.294989 
L 620.200385 127.294989 
z
" style="fill:#0000ff;"/>
   </g>
   <g id="patch_257">
    <path clip-path="url(#pc2216fae1c)" d="M 631.624615 126.62 
L 643.048846 126.62 
L 643.048846 127.304496 
L 631.624615 127.304496 
z
" style="fill:#0000ff;"/>
   </g>
   <g id="patch_258">
    <path clip-path="url(#pc2216fae1c)" d="M 643.048846 126.62 
L 654.473077 126.62 
L 654.473077 127.021666 
L 643.048846 127.021666 
z
" style="fill:#0000ff;"/>
   </g>
   <g id="patch_259">
    <path clip-path="url(#pc2216fae1c)" d="M 654.473077 126.62 
L 665.897308 126.62 
L 665.897308 127.04781 
L 654.473077 127.04781 
z
" style="fill:#0000ff;"/>
   </g>
   <g id="patch_260">
    <path clip-path="url(#pc2216fae1c)" d="M 665.897308 126.62 
L 677.321538 126.62 
L 677.321538 127.081084 
L 665.897308 127.081084 
z
" style="fill:#0000ff;"/>
   </g>
   <g id="patch_261">
    <path clip-path="url(#pc2216fae1c)" d="M 677.321538 126.62 
L 688.745769 126.62 
L 688.745769 127.195167 
L 677.321538 127.195167 
z
" style="fill:#0000ff;"/>
   </g>
   <g id="patch_262">
    <path clip-path="url(#pc2216fae1c)" d="M 688.745769 126.62 
L 700.17 126.62 
L 700.17 127.22131 
L 688.745769 127.22131 
z
" style="fill:#0000ff;"/>
   </g>
   <g id="patch_263">
    <path clip-path="url(#pc2216fae1c)" d="M 700.17 126.62 
L 711.594231 126.62 
L 711.594231 128.074553 
L 700.17 128.074553 
z
" style="fill:#0000ff;"/>
   </g>
   <g id="patch_264">
    <path clip-path="url(#pc2216fae1c)" d="M 711.594231 126.62 
L 723.018462 126.62 
L 723.018462 128.849364 
L 711.594231 128.849364 
z
" style="fill:#0000ff;"/>
   </g>
   <g id="patch_265">
    <path clip-path="url(#pc2216fae1c)" d="M 723.018462 126.62 
L 734.442692 126.62 
L 734.442692 129.051386 
L 723.018462 129.051386 
z
" style="fill:#0000ff;"/>
   </g>
   <g id="patch_266">
    <path clip-path="url(#pc2216fae1c)" d="M 734.442692 126.62 
L 745.866923 126.62 
L 745.866923 129.23677 
L 734.442692 129.23677 
z
" style="fill:#0000ff;"/>
   </g>
   <g id="patch_267">
    <path clip-path="url(#pc2216fae1c)" d="M 745.866923 126.62 
L 757.291154 126.62 
L 757.291154 129.621799 
L 745.866923 129.621799 
z
" style="fill:#0000ff;"/>
   </g>
   <g id="patch_268">
    <path clip-path="url(#pc2216fae1c)" d="M 757.291154 126.62 
L 768.715385 126.62 
L 768.715385 129.481572 
L 757.291154 129.481572 
z
" style="fill:#0000ff;"/>
   </g>
   <g id="patch_269">
    <path clip-path="url(#pc2216fae1c)" d="M 768.715385 126.62 
L 780.139615 126.62 
L 780.139615 129.467312 
L 768.715385 129.467312 
z
" style="fill:#0000ff;"/>
   </g>
   <g id="patch_270">
    <path clip-path="url(#pc2216fae1c)" d="M 780.139615 126.62 
L 791.563846 126.62 
L 791.563846 129.557627 
L 780.139615 129.557627 
z
" style="fill:#0000ff;"/>
   </g>
   <g id="patch_271">
    <path clip-path="url(#pc2216fae1c)" d="M 791.563846 126.62 
L 802.988077 126.62 
L 802.988077 129.201119 
L 791.563846 129.201119 
z
" style="fill:#0000ff;"/>
   </g>
   <g id="patch_272">
    <path clip-path="url(#pc2216fae1c)" d="M 802.988077 126.62 
L 814.412308 126.62 
L 814.412308 128.970577 
L 802.988077 128.970577 
z
" style="fill:#0000ff;"/>
   </g>
   <g id="patch_273">
    <path clip-path="url(#pc2216fae1c)" d="M 814.412308 126.62 
L 825.836538 126.62 
L 825.836538 129.464935 
L 814.412308 129.464935 
z
" style="fill:#0000ff;"/>
   </g>
   <g id="patch_274">
    <path clip-path="url(#pc2216fae1c)" d="M 825.836538 126.62 
L 837.260769 126.62 
L 837.260769 129.636059 
L 825.836538 129.636059 
z
" style="fill:#0000ff;"/>
   </g>
   <g id="patch_275">
    <path clip-path="url(#pc2216fae1c)" d="M 837.260769 126.62 
L 848.685 126.62 
L 848.685 129.700231 
L 837.260769 129.700231 
z
" style="fill:#0000ff;"/>
   </g>
   <g id="patch_276">
    <path clip-path="url(#pc2216fae1c)" d="M 848.685 126.62 
L 860.109231 126.62 
L 860.109231 130.444144 
L 848.685 130.444144 
z
" style="fill:#0000ff;"/>
   </g>
   <g id="patch_277">
    <path clip-path="url(#pc2216fae1c)" d="M 860.109231 126.62 
L 871.533462 126.62 
L 871.533462 130.460781 
L 860.109231 130.460781 
z
" style="fill:#0000ff;"/>
   </g>
   <g id="patch_278">
    <path clip-path="url(#pc2216fae1c)" d="M 871.533462 126.62 
L 882.957692 126.62 
L 882.957692 130.803029 
L 871.533462 130.803029 
z
" style="fill:#0000ff;"/>
   </g>
   <g id="patch_279">
    <path clip-path="url(#pc2216fae1c)" d="M 882.957692 126.62 
L 894.381923 126.62 
L 894.381923 131.924842 
L 882.957692 131.924842 
z
" style="fill:#0000ff;"/>
   </g>
   <g id="patch_280">
    <path clip-path="url(#pc2216fae1c)" d="M 894.381923 126.62 
L 905.806154 126.62 
L 905.806154 132.093589 
L 894.381923 132.093589 
z
" style="fill:#0000ff;"/>
   </g>
   <g id="patch_281">
    <path clip-path="url(#pc2216fae1c)" d="M 905.806154 126.62 
L 917.230385 126.62 
L 917.230385 132.28848 
L 905.806154 132.28848 
z
" style="fill:#0000ff;"/>
   </g>
   <g id="patch_282">
    <path clip-path="url(#pc2216fae1c)" d="M 917.230385 126.62 
L 928.654615 126.62 
L 928.654615 133.125086 
L 917.230385 133.125086 
z
" style="fill:#0000ff;"/>
   </g>
   <g id="patch_283">
    <path clip-path="url(#pc2216fae1c)" d="M 928.654615 126.62 
L 940.078846 126.62 
L 940.078846 134.45605 
L 928.654615 134.45605 
z
" style="fill:#0000ff;"/>
   </g>
   <g id="patch_284">
    <path clip-path="url(#pc2216fae1c)" d="M 940.078846 126.62 
L 951.503077 126.62 
L 951.503077 135.46378 
L 940.078846 135.46378 
z
" style="fill:#0000ff;"/>
   </g>
   <g id="patch_285">
    <path clip-path="url(#pc2216fae1c)" d="M 951.503077 126.62 
L 962.927308 126.62 
L 962.927308 140.664045 
L 951.503077 140.664045 
z
" style="fill:#0000ff;"/>
   </g>
   <g id="patch_286">
    <path clip-path="url(#pc2216fae1c)" d="M 962.927308 126.62 
L 974.351538 126.62 
L 974.351538 143.399652 
L 962.927308 143.399652 
z
" style="fill:#0000ff;"/>
   </g>
   <g id="patch_287">
    <path clip-path="url(#pc2216fae1c)" d="M 974.351538 126.62 
L 985.775769 126.62 
L 985.775769 154.907736 
L 974.351538 154.907736 
z
" style="fill:#0000ff;"/>
   </g>
   <g id="patch_288">
    <path clip-path="url(#pc2216fae1c)" d="M 985.775769 126.62 
L 997.2 126.62 
L 997.2 209.00191 
L 985.775769 209.00191 
z
" style="fill:#0000ff;"/>
   </g>
   <g id="patch_289">
    <path clip-path="url(#pc2216fae1c)" d="M 551.655 126.62 
L 563.079231 126.62 
L 563.079231 126.62 
L 551.655 126.62 
z
" style="fill:#ffa500;opacity:0.8;"/>
   </g>
   <g id="patch_290">
    <path clip-path="url(#pc2216fae1c)" d="M 563.079231 126.62 
L 574.503462 126.62 
L 574.503462 126.62 
L 563.079231 126.62 
z
" style="fill:#ffa500;opacity:0.8;"/>
   </g>
   <g id="patch_291">
    <path clip-path="url(#pc2216fae1c)" d="M 574.503462 126.62 
L 585.927692 126.62 
L 585.927692 126.62 
L 574.503462 126.62 
z
" style="fill:#ffa500;opacity:0.8;"/>
   </g>
   <g id="patch_292">
    <path clip-path="url(#pc2216fae1c)" d="M 585.927692 126.62 
L 597.351923 126.62 
L 597.351923 126.664476 
L 585.927692 126.664476 
z
" style="fill:#ffa500;opacity:0.8;"/>
   </g>
   <g id="patch_293">
    <path clip-path="url(#pc2216fae1c)" d="M 597.351923 126.62 
L 608.776154 126.62 
L 608.776154 128.465737 
L 597.351923 128.465737 
z
" style="fill:#ffa500;opacity:0.8;"/>
   </g>
   <g id="patch_294">
    <path clip-path="url(#pc2216fae1c)" d="M 608.776154 126.62 
L 620.200385 126.62 
L 620.200385 128.454618 
L 608.776154 128.454618 
z
" style="fill:#ffa500;opacity:0.8;"/>
   </g>
   <g id="patch_295">
    <path clip-path="url(#pc2216fae1c)" d="M 620.200385 126.62 
L 631.624615 126.62 
L 631.624615 128.465737 
L 620.200385 128.465737 
z
" style="fill:#ffa500;opacity:0.8;"/>
   </g>
   <g id="patch_296">
    <path clip-path="url(#pc2216fae1c)" d="M 631.624615 126.62 
L 643.048846 126.62 
L 643.048846 128.387905 
L 631.624615 128.387905 
z
" style="fill:#ffa500;opacity:0.8;"/>
   </g>
   <g id="patch_297">
    <path clip-path="url(#pc2216fae1c)" d="M 643.048846 126.62 
L 654.473077 126.62 
L 654.473077 127.642939 
L 643.048846 127.642939 
z
" style="fill:#ffa500;opacity:0.8;"/>
   </g>
   <g id="patch_298">
    <path clip-path="url(#pc2216fae1c)" d="M 654.473077 126.62 
L 665.897308 126.62 
L 665.897308 128.154408 
L 654.473077 128.154408 
z
" style="fill:#ffa500;opacity:0.8;"/>
   </g>
   <g id="patch_299">
    <path clip-path="url(#pc2216fae1c)" d="M 665.897308 126.62 
L 677.321538 126.62 
L 677.321538 128.443499 
L 665.897308 128.443499 
z
" style="fill:#ffa500;opacity:0.8;"/>
   </g>
   <g id="patch_300">
    <path clip-path="url(#pc2216fae1c)" d="M 677.321538 126.62 
L 688.745769 126.62 
L 688.745769 130.066858 
L 677.321538 130.066858 
z
" style="fill:#ffa500;opacity:0.8;"/>
   </g>
   <g id="patch_301">
    <path clip-path="url(#pc2216fae1c)" d="M 688.745769 126.62 
L 700.17 126.62 
L 700.17 129.066158 
L 688.745769 129.066158 
z
" style="fill:#ffa500;opacity:0.8;"/>
   </g>
   <g id="patch_302">
    <path clip-path="url(#pc2216fae1c)" d="M 700.17 126.62 
L 711.594231 126.62 
L 711.594231 129.299654 
L 700.17 129.299654 
z
" style="fill:#ffa500;opacity:0.8;"/>
   </g>
   <g id="patch_303">
    <path clip-path="url(#pc2216fae1c)" d="M 711.594231 126.62 
L 723.018462 126.62 
L 723.018462 132.490778 
L 711.594231 132.490778 
z
" style="fill:#ffa500;opacity:0.8;"/>
   </g>
   <g id="patch_304">
    <path clip-path="url(#pc2216fae1c)" d="M 723.018462 126.62 
L 734.442692 126.62 
L 734.442692 132.090498 
L 723.018462 132.090498 
z
" style="fill:#ffa500;opacity:0.8;"/>
   </g>
   <g id="patch_305">
    <path clip-path="url(#pc2216fae1c)" d="M 734.442692 126.62 
L 745.866923 126.62 
L 745.866923 130.878538 
L 734.442692 130.878538 
z
" style="fill:#ffa500;opacity:0.8;"/>
   </g>
   <g id="patch_306">
    <path clip-path="url(#pc2216fae1c)" d="M 745.866923 126.62 
L 757.291154 126.62 
L 757.291154 131.212105 
L 745.866923 131.212105 
z
" style="fill:#ffa500;opacity:0.8;"/>
   </g>
   <g id="patch_307">
    <path clip-path="url(#pc2216fae1c)" d="M 757.291154 126.62 
L 768.715385 126.62 
L 768.715385 132.323995 
L 757.291154 132.323995 
z
" style="fill:#ffa500;opacity:0.8;"/>
   </g>
   <g id="patch_308">
    <path clip-path="url(#pc2216fae1c)" d="M 768.715385 126.62 
L 780.139615 126.62 
L 780.139615 131.645742 
L 768.715385 131.645742 
z
" style="fill:#ffa500;opacity:0.8;"/>
   </g>
   <g id="patch_309">
    <path clip-path="url(#pc2216fae1c)" d="M 780.139615 126.62 
L 791.563846 126.62 
L 791.563846 130.900776 
L 780.139615 130.900776 
z
" style="fill:#ffa500;opacity:0.8;"/>
   </g>
   <g id="patch_310">
    <path clip-path="url(#pc2216fae1c)" d="M 791.563846 126.62 
L 802.988077 126.62 
L 802.988077 131.745812 
L 791.563846 131.745812 
z
" style="fill:#ffa500;opacity:0.8;"/>
   </g>
   <g id="patch_311">
    <path clip-path="url(#pc2216fae1c)" d="M 802.988077 126.62 
L 814.412308 126.62 
L 814.412308 132.157211 
L 802.988077 132.157211 
z
" style="fill:#ffa500;opacity:0.8;"/>
   </g>
   <g id="patch_312">
    <path clip-path="url(#pc2216fae1c)" d="M 814.412308 126.62 
L 825.836538 126.62 
L 825.836538 132.246162 
L 814.412308 132.246162 
z
" style="fill:#ffa500;opacity:0.8;"/>
   </g>
   <g id="patch_313">
    <path clip-path="url(#pc2216fae1c)" d="M 825.836538 126.62 
L 837.260769 126.62 
L 837.260769 129.822243 
L 825.836538 129.822243 
z
" style="fill:#ffa500;opacity:0.8;"/>
   </g>
   <g id="patch_314">
    <path clip-path="url(#pc2216fae1c)" d="M 837.260769 126.62 
L 848.685 126.62 
L 848.685 129.477557 
L 837.260769 129.477557 
z
" style="fill:#ffa500;opacity:0.8;"/>
   </g>
   <g id="patch_315">
    <path clip-path="url(#pc2216fae1c)" d="M 848.685 126.62 
L 860.109231 126.62 
L 860.109231 131.011965 
L 848.685 131.011965 
z
" style="fill:#ffa500;opacity:0.8;"/>
   </g>
   <g id="patch_316">
    <path clip-path="url(#pc2216fae1c)" d="M 860.109231 126.62 
L 871.533462 126.62 
L 871.533462 130.333712 
L 860.109231 130.333712 
z
" style="fill:#ffa500;opacity:0.8;"/>
   </g>
   <g id="patch_317">
    <path clip-path="url(#pc2216fae1c)" d="M 871.533462 126.62 
L 882.957692 126.62 
L 882.957692 131.56791 
L 871.533462 131.56791 
z
" style="fill:#ffa500;opacity:0.8;"/>
   </g>
   <g id="patch_318">
    <path clip-path="url(#pc2216fae1c)" d="M 882.957692 126.62 
L 894.381923 126.62 
L 894.381923 133.402528 
L 882.957692 133.402528 
z
" style="fill:#ffa500;opacity:0.8;"/>
   </g>
   <g id="patch_319">
    <path clip-path="url(#pc2216fae1c)" d="M 894.381923 126.62 
L 905.806154 126.62 
L 905.806154 132.757632 
L 894.381923 132.757632 
z
" style="fill:#ffa500;opacity:0.8;"/>
   </g>
   <g id="patch_320">
    <path clip-path="url(#pc2216fae1c)" d="M 905.806154 126.62 
L 917.230385 126.62 
L 917.230385 133.758332 
L 905.806154 133.758332 
z
" style="fill:#ffa500;opacity:0.8;"/>
   </g>
   <g id="patch_321">
    <path clip-path="url(#pc2216fae1c)" d="M 917.230385 126.62 
L 928.654615 126.62 
L 928.654615 133.302458 
L 917.230385 133.302458 
z
" style="fill:#ffa500;opacity:0.8;"/>
   </g>
   <g id="patch_322">
    <path clip-path="url(#pc2216fae1c)" d="M 928.654615 126.62 
L 940.078846 126.62 
L 940.078846 132.679799 
L 928.654615 132.679799 
z
" style="fill:#ffa500;opacity:0.8;"/>
   </g>
   <g id="patch_323">
    <path clip-path="url(#pc2216fae1c)" d="M 940.078846 126.62 
L 951.503077 126.62 
L 951.503077 132.913296 
L 940.078846 132.913296 
z
" style="fill:#ffa500;opacity:0.8;"/>
   </g>
   <g id="patch_324">
    <path clip-path="url(#pc2216fae1c)" d="M 951.503077 126.62 
L 962.927308 126.62 
L 962.927308 136.827148 
L 951.503077 136.827148 
z
" style="fill:#ffa500;opacity:0.8;"/>
   </g>
   <g id="patch_325">
    <path clip-path="url(#pc2216fae1c)" d="M 962.927308 126.62 
L 974.351538 126.62 
L 974.351538 140.34072 
L 962.927308 140.34072 
z
" style="fill:#ffa500;opacity:0.8;"/>
   </g>
   <g id="patch_326">
    <path clip-path="url(#pc2216fae1c)" d="M 974.351538 126.62 
L 985.775769 126.62 
L 985.775769 141.975198 
L 974.351538 141.975198 
z
" style="fill:#ffa500;opacity:0.8;"/>
   </g>
   <g id="patch_327">
    <path clip-path="url(#pc2216fae1c)" d="M 985.775769 126.62 
L 997.2 126.62 
L 997.2 188.985898 
L 985.775769 188.985898 
z
" style="fill:#ffa500;opacity:0.8;"/>
   </g>
   <g id="matplotlib.axis_3">
    <g id="xtick_7">
     <g id="line2d_16">
      <g>
       <use style="stroke:#000000;stroke-width:0.8;" x="557.367115" xlink:href="#m8a0f2ab098" y="242.44"/>
      </g>
     </g>
     <g id="text_17">
      <!-- 0 -->
      <g transform="translate(554.185865 257.038437)scale(0.1 -0.1)">
       <use xlink:href="#DejaVuSans-30"/>
      </g>
     </g>
    </g>
    <g id="xtick_8">
     <g id="line2d_17">
      <g>
       <use style="stroke:#000000;stroke-width:0.8;" x="639.993001" xlink:href="#m8a0f2ab098" y="242.44"/>
      </g>
     </g>
     <g id="text_18">
      <!-- 1 -->
      <g transform="translate(636.811751 257.038437)scale(0.1 -0.1)">
       <use xlink:href="#DejaVuSans-31"/>
      </g>
     </g>
    </g>
    <g id="xtick_9">
     <g id="line2d_18">
      <g>
       <use style="stroke:#000000;stroke-width:0.8;" x="722.618886" xlink:href="#m8a0f2ab098" y="242.44"/>
      </g>
     </g>
     <g id="text_19">
      <!-- 2 -->
      <g transform="translate(719.437636 257.038437)scale(0.1 -0.1)">
       <use xlink:href="#DejaVuSans-32"/>
      </g>
     </g>
    </g>
    <g id="xtick_10">
     <g id="line2d_19">
      <g>
       <use style="stroke:#000000;stroke-width:0.8;" x="805.244771" xlink:href="#m8a0f2ab098" y="242.44"/>
      </g>
     </g>
     <g id="text_20">
      <!-- 3 -->
      <g transform="translate(802.063521 257.038437)scale(0.1 -0.1)">
       <defs>
        <path d="M 2597 2516 
Q 3050 2419 3304 2112 
Q 3559 1806 3559 1356 
Q 3559 666 3084 287 
Q 2609 -91 1734 -91 
Q 1441 -91 1130 -33 
Q 819 25 488 141 
L 488 750 
Q 750 597 1062 519 
Q 1375 441 1716 441 
Q 2309 441 2620 675 
Q 2931 909 2931 1356 
Q 2931 1769 2642 2001 
Q 2353 2234 1838 2234 
L 1294 2234 
L 1294 2753 
L 1863 2753 
Q 2328 2753 2575 2939 
Q 2822 3125 2822 3475 
Q 2822 3834 2567 4026 
Q 2313 4219 1838 4219 
Q 1578 4219 1281 4162 
Q 984 4106 628 3988 
L 628 4550 
Q 988 4650 1302 4700 
Q 1616 4750 1894 4750 
Q 2613 4750 3031 4423 
Q 3450 4097 3450 3541 
Q 3450 3153 3228 2886 
Q 3006 2619 2597 2516 
z
" id="DejaVuSans-33" transform="scale(0.015625)"/>
       </defs>
       <use xlink:href="#DejaVuSans-33"/>
      </g>
     </g>
    </g>
    <g id="xtick_11">
     <g id="line2d_20">
      <g>
       <use style="stroke:#000000;stroke-width:0.8;" x="887.870656" xlink:href="#m8a0f2ab098" y="242.44"/>
      </g>
     </g>
     <g id="text_21">
      <!-- 4 -->
      <g transform="translate(884.689406 257.038437)scale(0.1 -0.1)">
       <use xlink:href="#DejaVuSans-34"/>
      </g>
     </g>
    </g>
    <g id="xtick_12">
     <g id="line2d_21">
      <g>
       <use style="stroke:#000000;stroke-width:0.8;" x="970.496541" xlink:href="#m8a0f2ab098" y="242.44"/>
      </g>
     </g>
     <g id="text_22">
      <!-- 5 -->
      <g transform="translate(967.315291 257.038437)scale(0.1 -0.1)">
       <use xlink:href="#DejaVuSans-35"/>
      </g>
     </g>
    </g>
    <g id="text_23">
     <!-- Action entropy -->
     <g transform="translate(723.201719 273.755937)scale(0.14 -0.14)">
      <defs>
       <path d="M 2188 4044 
L 1331 1722 
L 3047 1722 
L 2188 4044 
z
M 1831 4666 
L 2547 4666 
L 4325 0 
L 3669 0 
L 3244 1197 
L 1141 1197 
L 716 0 
L 50 0 
L 1831 4666 
z
" id="DejaVuSans-41" transform="scale(0.015625)"/>
       <path d="M 3122 3366 
L 3122 2828 
Q 2878 2963 2633 3030 
Q 2388 3097 2138 3097 
Q 1578 3097 1268 2742 
Q 959 2388 959 1747 
Q 959 1106 1268 751 
Q 1578 397 2138 397 
Q 2388 397 2633 464 
Q 2878 531 3122 666 
L 3122 134 
Q 2881 22 2623 -34 
Q 2366 -91 2075 -91 
Q 1284 -91 818 406 
Q 353 903 353 1747 
Q 353 2603 823 3093 
Q 1294 3584 2113 3584 
Q 2378 3584 2631 3529 
Q 2884 3475 3122 3366 
z
" id="DejaVuSans-63" transform="scale(0.015625)"/>
       <path d="M 3513 2113 
L 3513 0 
L 2938 0 
L 2938 2094 
Q 2938 2591 2744 2837 
Q 2550 3084 2163 3084 
Q 1697 3084 1428 2787 
Q 1159 2491 1159 1978 
L 1159 0 
L 581 0 
L 581 3500 
L 1159 3500 
L 1159 2956 
Q 1366 3272 1645 3428 
Q 1925 3584 2291 3584 
Q 2894 3584 3203 3211 
Q 3513 2838 3513 2113 
z
" id="DejaVuSans-6e" transform="scale(0.015625)"/>
      </defs>
      <use xlink:href="#DejaVuSans-41"/>
      <use x="66.658203" xlink:href="#DejaVuSans-63"/>
      <use x="121.638672" xlink:href="#DejaVuSans-74"/>
      <use x="160.847656" xlink:href="#DejaVuSans-69"/>
      <use x="188.630859" xlink:href="#DejaVuSans-6f"/>
      <use x="249.8125" xlink:href="#DejaVuSans-6e"/>
      <use x="313.191406" xlink:href="#DejaVuSans-20"/>
      <use x="344.978516" xlink:href="#DejaVuSans-65"/>
      <use x="406.501953" xlink:href="#DejaVuSans-6e"/>
      <use x="469.880859" xlink:href="#DejaVuSans-74"/>
      <use x="509.089844" xlink:href="#DejaVuSans-72"/>
      <use x="547.953125" xlink:href="#DejaVuSans-6f"/>
      <use x="609.134766" xlink:href="#DejaVuSans-70"/>
      <use x="672.611328" xlink:href="#DejaVuSans-79"/>
     </g>
    </g>
   </g>
   <g id="matplotlib.axis_4">
    <g id="ytick_10">
     <g id="line2d_22">
      <g>
       <use style="stroke:#000000;stroke-width:0.8;" x="551.655" xlink:href="#m57eb2d9eee" y="219.276"/>
      </g>
     </g>
     <g id="text_24">
      <!-- 0.4 -->
      <g transform="translate(520.372187 223.075219)scale(0.1 -0.1)">
       <defs>
        <path d="M 678 2272 
L 4684 2272 
L 4684 1741 
L 678 1741 
L 678 2272 
z
" id="DejaVuSans-2212" transform="scale(0.015625)"/>
       </defs>
       <use xlink:href="#DejaVuSans-2212"/>
       <use x="83.789062" xlink:href="#DejaVuSans-30"/>
       <use x="147.412109" xlink:href="#DejaVuSans-2e"/>
       <use x="179.199219" xlink:href="#DejaVuSans-34"/>
      </g>
     </g>
    </g>
    <g id="ytick_11">
     <g id="line2d_23">
      <g>
       <use style="stroke:#000000;stroke-width:0.8;" x="551.655" xlink:href="#m57eb2d9eee" y="172.948"/>
      </g>
     </g>
     <g id="text_25">
      <!-- 0.2 -->
      <g transform="translate(520.372187 176.747219)scale(0.1 -0.1)">
       <use xlink:href="#DejaVuSans-2212"/>
       <use x="83.789062" xlink:href="#DejaVuSans-30"/>
       <use x="147.412109" xlink:href="#DejaVuSans-2e"/>
       <use x="179.199219" xlink:href="#DejaVuSans-32"/>
      </g>
     </g>
    </g>
    <g id="ytick_12">
     <g id="line2d_24">
      <g>
       <use style="stroke:#000000;stroke-width:0.8;" x="551.655" xlink:href="#m57eb2d9eee" y="126.62"/>
      </g>
     </g>
     <g id="text_26">
      <!-- 0.0 -->
      <g transform="translate(528.751875 130.419219)scale(0.1 -0.1)">
       <use xlink:href="#DejaVuSans-30"/>
       <use x="63.623047" xlink:href="#DejaVuSans-2e"/>
       <use x="95.410156" xlink:href="#DejaVuSans-30"/>
      </g>
     </g>
    </g>
    <g id="ytick_13">
     <g id="line2d_25">
      <g>
       <use style="stroke:#000000;stroke-width:0.8;" x="551.655" xlink:href="#m57eb2d9eee" y="80.292"/>
      </g>
     </g>
     <g id="text_27">
      <!-- 0.2 -->
      <g transform="translate(528.751875 84.091219)scale(0.1 -0.1)">
       <use xlink:href="#DejaVuSans-30"/>
       <use x="63.623047" xlink:href="#DejaVuSans-2e"/>
       <use x="95.410156" xlink:href="#DejaVuSans-32"/>
      </g>
     </g>
    </g>
    <g id="ytick_14">
     <g id="line2d_26">
      <g>
       <use style="stroke:#000000;stroke-width:0.8;" x="551.655" xlink:href="#m57eb2d9eee" y="33.964"/>
      </g>
     </g>
     <g id="text_28">
      <!-- 0.4 -->
      <g transform="translate(528.751875 37.763219)scale(0.1 -0.1)">
       <use xlink:href="#DejaVuSans-30"/>
       <use x="63.623047" xlink:href="#DejaVuSans-2e"/>
       <use x="95.410156" xlink:href="#DejaVuSans-34"/>
      </g>
     </g>
    </g>
    <g id="text_29">
     <!-- Proportion of replays -->
     <g transform="translate(513.460625 199.426563)rotate(-90)scale(0.14 -0.14)">
      <defs>
       <path d="M 1259 4147 
L 1259 2394 
L 2053 2394 
Q 2494 2394 2734 2622 
Q 2975 2850 2975 3272 
Q 2975 3691 2734 3919 
Q 2494 4147 2053 4147 
L 1259 4147 
z
M 628 4666 
L 2053 4666 
Q 2838 4666 3239 4311 
Q 3641 3956 3641 3272 
Q 3641 2581 3239 2228 
Q 2838 1875 2053 1875 
L 1259 1875 
L 1259 0 
L 628 0 
L 628 4666 
z
" id="DejaVuSans-50" transform="scale(0.015625)"/>
      </defs>
      <use xlink:href="#DejaVuSans-50"/>
      <use x="58.552734" xlink:href="#DejaVuSans-72"/>
      <use x="97.416016" xlink:href="#DejaVuSans-6f"/>
      <use x="158.597656" xlink:href="#DejaVuSans-70"/>
      <use x="222.074219" xlink:href="#DejaVuSans-6f"/>
      <use x="283.255859" xlink:href="#DejaVuSans-72"/>
      <use x="324.369141" xlink:href="#DejaVuSans-74"/>
      <use x="363.578125" xlink:href="#DejaVuSans-69"/>
      <use x="391.361328" xlink:href="#DejaVuSans-6f"/>
      <use x="452.542969" xlink:href="#DejaVuSans-6e"/>
      <use x="515.921875" xlink:href="#DejaVuSans-20"/>
      <use x="547.708984" xlink:href="#DejaVuSans-6f"/>
      <use x="608.890625" xlink:href="#DejaVuSans-66"/>
      <use x="644.095703" xlink:href="#DejaVuSans-20"/>
      <use x="675.882812" xlink:href="#DejaVuSans-72"/>
      <use x="714.746094" xlink:href="#DejaVuSans-65"/>
      <use x="776.269531" xlink:href="#DejaVuSans-70"/>
      <use x="839.746094" xlink:href="#DejaVuSans-6c"/>
      <use x="867.529297" xlink:href="#DejaVuSans-61"/>
      <use x="928.808594" xlink:href="#DejaVuSans-79"/>
      <use x="987.988281" xlink:href="#DejaVuSans-73"/>
     </g>
    </g>
   </g>
   <g id="line2d_27">
    <path clip-path="url(#pc2216fae1c)" d="M 551.655 126.62 
L 997.2 126.62 
" style="fill:none;stroke:#000000;stroke-linecap:square;stroke-width:1.5;"/>
   </g>
   <g id="patch_328">
    <path d="M 551.655 242.44 
L 551.655 10.8 
" style="fill:none;stroke:#000000;stroke-linecap:square;stroke-linejoin:miter;stroke-width:0.8;"/>
   </g>
   <g id="patch_329">
    <path d="M 997.2 242.44 
L 997.2 10.8 
" style="fill:none;stroke:#000000;stroke-linecap:square;stroke-linejoin:miter;stroke-width:0.8;"/>
   </g>
   <g id="patch_330">
    <path d="M 551.655 242.44 
L 997.2 242.44 
" style="fill:none;stroke:#000000;stroke-linecap:square;stroke-linejoin:miter;stroke-width:0.8;"/>
   </g>
   <g id="patch_331">
    <path d="M 551.655 10.8 
L 997.2 10.8 
" style="fill:none;stroke:#000000;stroke-linecap:square;stroke-linejoin:miter;stroke-width:0.8;"/>
   </g>
  </g>
 </g>
 <defs>
  <clipPath id="p12bc772c29">
   <rect height="231.64" width="445.545" x="46.375" y="10.8"/>
  </clipPath>
  <clipPath id="pc2216fae1c">
   <rect height="231.64" width="445.545" x="551.655" y="10.8"/>
  </clipPath>
 </defs>
</svg>
