<?xml version="1.0" encoding="utf-8" standalone="no"?>
<!DOCTYPE svg PUBLIC "-//W3C//DTD SVG 1.1//EN"
  "http://www.w3.org/Graphics/SVG/1.1/DTD/svg11.dtd">
<svg height="288pt" version="1.1" viewBox="0 0 1008 288" width="1008pt" xmlns="http://www.w3.org/2000/svg" xmlns:xlink="http://www.w3.org/1999/xlink">
 <metadata>
  <rdf:RDF xmlns:cc="http://creativecommons.org/ns#" xmlns:dc="http://purl.org/dc/elements/1.1/" xmlns:rdf="http://www.w3.org/1999/02/22-rdf-syntax-ns#">
   <cc:Work>
    <dc:type rdf:resource="http://purl.org/dc/dcmitype/StillImage"/>
    <dc:date>2021-09-04T14:33:58.189251</dc:date>
    <dc:format>image/svg+xml</dc:format>
    <dc:creator>
     <cc:Agent>
      <dc:title>Matplotlib v3.4.2, https://matplotlib.org/</dc:title>
     </cc:Agent>
    </dc:creator>
   </cc:Work>
  </rdf:RDF>
 </metadata>
 <defs>
  <style type="text/css">*{stroke-linecap:butt;stroke-linejoin:round;}</style>
 </defs>
 <g id="figure_1">
  <g id="patch_1">
   <path d="M 0 288 
L 1008 288 
L 1008 0 
L 0 0 
z
" style="fill:none;"/>
  </g>
  <g id="axes_1">
   <g id="patch_2">
    <path d="M 40.03 242.44 
L 488.7475 242.44 
L 488.7475 10.8 
L 40.03 10.8 
z
" style="fill:none;"/>
   </g>
   <g id="patch_3">
    <path clip-path="url(#p5cb22e848b)" d="M 40.03 242.44 
L 45.07177 242.44 
L 45.07177 168.903492 
L 40.03 168.903492 
z
" style="fill:#0000ff;"/>
   </g>
   <g id="patch_4">
    <path clip-path="url(#p5cb22e848b)" d="M 45.07177 242.44 
L 50.113539 242.44 
L 50.113539 242.44 
L 45.07177 242.44 
z
" style="fill:#0000ff;"/>
   </g>
   <g id="patch_5">
    <path clip-path="url(#p5cb22e848b)" d="M 50.113539 242.44 
L 55.155309 242.44 
L 55.155309 21.830476 
L 50.113539 21.830476 
z
" style="fill:#0000ff;"/>
   </g>
   <g id="patch_6">
    <path clip-path="url(#p5cb22e848b)" d="M 55.155309 242.44 
L 60.197079 242.44 
L 60.197079 242.44 
L 55.155309 242.44 
z
" style="fill:#0000ff;"/>
   </g>
   <g id="patch_7">
    <path clip-path="url(#p5cb22e848b)" d="M 60.197079 242.44 
L 65.238848 242.44 
L 65.238848 242.44 
L 60.197079 242.44 
z
" style="fill:#0000ff;"/>
   </g>
   <g id="patch_8">
    <path clip-path="url(#p5cb22e848b)" d="M 65.238848 242.44 
L 70.280618 242.44 
L 70.280618 168.903492 
L 65.238848 168.903492 
z
" style="fill:#0000ff;"/>
   </g>
   <g id="patch_9">
    <path clip-path="url(#p5cb22e848b)" d="M 70.280618 242.44 
L 75.322388 242.44 
L 75.322388 242.44 
L 70.280618 242.44 
z
" style="fill:#0000ff;"/>
   </g>
   <g id="patch_10">
    <path clip-path="url(#p5cb22e848b)" d="M 75.322388 242.44 
L 80.364157 242.44 
L 80.364157 242.44 
L 75.322388 242.44 
z
" style="fill:#0000ff;"/>
   </g>
   <g id="patch_11">
    <path clip-path="url(#p5cb22e848b)" d="M 80.364157 242.44 
L 85.405927 242.44 
L 85.405927 242.44 
L 80.364157 242.44 
z
" style="fill:#0000ff;"/>
   </g>
   <g id="patch_12">
    <path clip-path="url(#p5cb22e848b)" d="M 85.405927 242.44 
L 90.447697 242.44 
L 90.447697 168.903492 
L 85.405927 168.903492 
z
" style="fill:#0000ff;"/>
   </g>
   <g id="patch_13">
    <path clip-path="url(#p5cb22e848b)" d="M 90.447697 242.44 
L 95.489466 242.44 
L 95.489466 242.44 
L 90.447697 242.44 
z
" style="fill:#0000ff;"/>
   </g>
   <g id="patch_14">
    <path clip-path="url(#p5cb22e848b)" d="M 95.489466 242.44 
L 100.531236 242.44 
L 100.531236 242.44 
L 95.489466 242.44 
z
" style="fill:#0000ff;"/>
   </g>
   <g id="patch_15">
    <path clip-path="url(#p5cb22e848b)" d="M 100.531236 242.44 
L 105.573006 242.44 
L 105.573006 242.44 
L 100.531236 242.44 
z
" style="fill:#0000ff;"/>
   </g>
   <g id="patch_16">
    <path clip-path="url(#p5cb22e848b)" d="M 105.573006 242.44 
L 110.614775 242.44 
L 110.614775 242.44 
L 105.573006 242.44 
z
" style="fill:#0000ff;"/>
   </g>
   <g id="patch_17">
    <path clip-path="url(#p5cb22e848b)" d="M 110.614775 242.44 
L 115.656545 242.44 
L 115.656545 242.44 
L 110.614775 242.44 
z
" style="fill:#0000ff;"/>
   </g>
   <g id="patch_18">
    <path clip-path="url(#p5cb22e848b)" d="M 115.656545 242.44 
L 120.698315 242.44 
L 120.698315 95.366984 
L 115.656545 95.366984 
z
" style="fill:#0000ff;"/>
   </g>
   <g id="patch_19">
    <path clip-path="url(#p5cb22e848b)" d="M 120.698315 242.44 
L 125.740084 242.44 
L 125.740084 242.44 
L 120.698315 242.44 
z
" style="fill:#0000ff;"/>
   </g>
   <g id="patch_20">
    <path clip-path="url(#p5cb22e848b)" d="M 125.740084 242.44 
L 130.781854 242.44 
L 130.781854 168.903492 
L 125.740084 168.903492 
z
" style="fill:#0000ff;"/>
   </g>
   <g id="patch_21">
    <path clip-path="url(#p5cb22e848b)" d="M 130.781854 242.44 
L 135.823624 242.44 
L 135.823624 242.44 
L 130.781854 242.44 
z
" style="fill:#0000ff;"/>
   </g>
   <g id="patch_22">
    <path clip-path="url(#p5cb22e848b)" d="M 135.823624 242.44 
L 140.865393 242.44 
L 140.865393 242.44 
L 135.823624 242.44 
z
" style="fill:#0000ff;"/>
   </g>
   <g id="patch_23">
    <path clip-path="url(#p5cb22e848b)" d="M 140.865393 242.44 
L 145.907163 242.44 
L 145.907163 168.903492 
L 140.865393 168.903492 
z
" style="fill:#0000ff;"/>
   </g>
   <g id="patch_24">
    <path clip-path="url(#p5cb22e848b)" d="M 145.907163 242.44 
L 150.948933 242.44 
L 150.948933 242.44 
L 145.907163 242.44 
z
" style="fill:#0000ff;"/>
   </g>
   <g id="patch_25">
    <path clip-path="url(#p5cb22e848b)" d="M 150.948933 242.44 
L 155.990702 242.44 
L 155.990702 242.44 
L 150.948933 242.44 
z
" style="fill:#0000ff;"/>
   </g>
   <g id="patch_26">
    <path clip-path="url(#p5cb22e848b)" d="M 155.990702 242.44 
L 161.032472 242.44 
L 161.032472 168.903492 
L 155.990702 168.903492 
z
" style="fill:#0000ff;"/>
   </g>
   <g id="patch_27">
    <path clip-path="url(#p5cb22e848b)" d="M 161.032472 242.44 
L 166.074242 242.44 
L 166.074242 242.44 
L 161.032472 242.44 
z
" style="fill:#0000ff;"/>
   </g>
   <g id="patch_28">
    <path clip-path="url(#p5cb22e848b)" d="M 166.074242 242.44 
L 171.116011 242.44 
L 171.116011 242.44 
L 166.074242 242.44 
z
" style="fill:#0000ff;"/>
   </g>
   <g id="patch_29">
    <path clip-path="url(#p5cb22e848b)" d="M 171.116011 242.44 
L 176.157781 242.44 
L 176.157781 242.44 
L 171.116011 242.44 
z
" style="fill:#0000ff;"/>
   </g>
   <g id="patch_30">
    <path clip-path="url(#p5cb22e848b)" d="M 176.157781 242.44 
L 181.199551 242.44 
L 181.199551 242.44 
L 176.157781 242.44 
z
" style="fill:#0000ff;"/>
   </g>
   <g id="patch_31">
    <path clip-path="url(#p5cb22e848b)" d="M 181.199551 242.44 
L 186.24132 242.44 
L 186.24132 168.903492 
L 181.199551 168.903492 
z
" style="fill:#0000ff;"/>
   </g>
   <g id="patch_32">
    <path clip-path="url(#p5cb22e848b)" d="M 186.24132 242.44 
L 191.28309 242.44 
L 191.28309 242.44 
L 186.24132 242.44 
z
" style="fill:#0000ff;"/>
   </g>
   <g id="patch_33">
    <path clip-path="url(#p5cb22e848b)" d="M 191.28309 242.44 
L 196.32486 242.44 
L 196.32486 242.44 
L 191.28309 242.44 
z
" style="fill:#0000ff;"/>
   </g>
   <g id="patch_34">
    <path clip-path="url(#p5cb22e848b)" d="M 196.32486 242.44 
L 201.366629 242.44 
L 201.366629 168.903492 
L 196.32486 168.903492 
z
" style="fill:#0000ff;"/>
   </g>
   <g id="patch_35">
    <path clip-path="url(#p5cb22e848b)" d="M 201.366629 242.44 
L 206.408399 242.44 
L 206.408399 242.44 
L 201.366629 242.44 
z
" style="fill:#0000ff;"/>
   </g>
   <g id="patch_36">
    <path clip-path="url(#p5cb22e848b)" d="M 206.408399 242.44 
L 211.450169 242.44 
L 211.450169 168.903492 
L 206.408399 168.903492 
z
" style="fill:#0000ff;"/>
   </g>
   <g id="patch_37">
    <path clip-path="url(#p5cb22e848b)" d="M 211.450169 242.44 
L 216.491938 242.44 
L 216.491938 95.366984 
L 211.450169 95.366984 
z
" style="fill:#0000ff;"/>
   </g>
   <g id="patch_38">
    <path clip-path="url(#p5cb22e848b)" d="M 216.491938 242.44 
L 221.533708 242.44 
L 221.533708 242.44 
L 216.491938 242.44 
z
" style="fill:#0000ff;"/>
   </g>
   <g id="patch_39">
    <path clip-path="url(#p5cb22e848b)" d="M 221.533708 242.44 
L 226.575478 242.44 
L 226.575478 242.44 
L 221.533708 242.44 
z
" style="fill:#0000ff;"/>
   </g>
   <g id="patch_40">
    <path clip-path="url(#p5cb22e848b)" d="M 226.575478 242.44 
L 231.617247 242.44 
L 231.617247 242.44 
L 226.575478 242.44 
z
" style="fill:#0000ff;"/>
   </g>
   <g id="patch_41">
    <path clip-path="url(#p5cb22e848b)" d="M 231.617247 242.44 
L 236.659017 242.44 
L 236.659017 242.44 
L 231.617247 242.44 
z
" style="fill:#0000ff;"/>
   </g>
   <g id="patch_42">
    <path clip-path="url(#p5cb22e848b)" d="M 236.659017 242.44 
L 241.700787 242.44 
L 241.700787 242.44 
L 236.659017 242.44 
z
" style="fill:#0000ff;"/>
   </g>
   <g id="patch_43">
    <path clip-path="url(#p5cb22e848b)" d="M 241.700787 242.44 
L 246.742556 242.44 
L 246.742556 242.44 
L 241.700787 242.44 
z
" style="fill:#0000ff;"/>
   </g>
   <g id="patch_44">
    <path clip-path="url(#p5cb22e848b)" d="M 246.742556 242.44 
L 251.784326 242.44 
L 251.784326 242.44 
L 246.742556 242.44 
z
" style="fill:#0000ff;"/>
   </g>
   <g id="patch_45">
    <path clip-path="url(#p5cb22e848b)" d="M 251.784326 242.44 
L 256.826096 242.44 
L 256.826096 242.44 
L 251.784326 242.44 
z
" style="fill:#0000ff;"/>
   </g>
   <g id="patch_46">
    <path clip-path="url(#p5cb22e848b)" d="M 256.826096 242.44 
L 261.867865 242.44 
L 261.867865 168.903492 
L 256.826096 168.903492 
z
" style="fill:#0000ff;"/>
   </g>
   <g id="patch_47">
    <path clip-path="url(#p5cb22e848b)" d="M 261.867865 242.44 
L 266.909635 242.44 
L 266.909635 242.44 
L 261.867865 242.44 
z
" style="fill:#0000ff;"/>
   </g>
   <g id="patch_48">
    <path clip-path="url(#p5cb22e848b)" d="M 266.909635 242.44 
L 271.951404 242.44 
L 271.951404 242.44 
L 266.909635 242.44 
z
" style="fill:#0000ff;"/>
   </g>
   <g id="patch_49">
    <path clip-path="url(#p5cb22e848b)" d="M 271.951404 242.44 
L 276.993174 242.44 
L 276.993174 242.44 
L 271.951404 242.44 
z
" style="fill:#0000ff;"/>
   </g>
   <g id="patch_50">
    <path clip-path="url(#p5cb22e848b)" d="M 276.993174 242.44 
L 282.034944 242.44 
L 282.034944 168.903492 
L 276.993174 168.903492 
z
" style="fill:#0000ff;"/>
   </g>
   <g id="patch_51">
    <path clip-path="url(#p5cb22e848b)" d="M 282.034944 242.44 
L 287.076713 242.44 
L 287.076713 242.44 
L 282.034944 242.44 
z
" style="fill:#0000ff;"/>
   </g>
   <g id="patch_52">
    <path clip-path="url(#p5cb22e848b)" d="M 287.076713 242.44 
L 292.118483 242.44 
L 292.118483 242.44 
L 287.076713 242.44 
z
" style="fill:#0000ff;"/>
   </g>
   <g id="patch_53">
    <path clip-path="url(#p5cb22e848b)" d="M 292.118483 242.44 
L 297.160253 242.44 
L 297.160253 242.44 
L 292.118483 242.44 
z
" style="fill:#0000ff;"/>
   </g>
   <g id="patch_54">
    <path clip-path="url(#p5cb22e848b)" d="M 297.160253 242.44 
L 302.202022 242.44 
L 302.202022 168.903492 
L 297.160253 168.903492 
z
" style="fill:#0000ff;"/>
   </g>
   <g id="patch_55">
    <path clip-path="url(#p5cb22e848b)" d="M 302.202022 242.44 
L 307.243792 242.44 
L 307.243792 242.44 
L 302.202022 242.44 
z
" style="fill:#0000ff;"/>
   </g>
   <g id="patch_56">
    <path clip-path="url(#p5cb22e848b)" d="M 307.243792 242.44 
L 312.285562 242.44 
L 312.285562 242.44 
L 307.243792 242.44 
z
" style="fill:#0000ff;"/>
   </g>
   <g id="patch_57">
    <path clip-path="url(#p5cb22e848b)" d="M 312.285562 242.44 
L 317.327331 242.44 
L 317.327331 242.44 
L 312.285562 242.44 
z
" style="fill:#0000ff;"/>
   </g>
   <g id="patch_58">
    <path clip-path="url(#p5cb22e848b)" d="M 317.327331 242.44 
L 322.369101 242.44 
L 322.369101 242.44 
L 317.327331 242.44 
z
" style="fill:#0000ff;"/>
   </g>
   <g id="patch_59">
    <path clip-path="url(#p5cb22e848b)" d="M 322.369101 242.44 
L 327.410871 242.44 
L 327.410871 242.44 
L 322.369101 242.44 
z
" style="fill:#0000ff;"/>
   </g>
   <g id="patch_60">
    <path clip-path="url(#p5cb22e848b)" d="M 327.410871 242.44 
L 332.45264 242.44 
L 332.45264 242.44 
L 327.410871 242.44 
z
" style="fill:#0000ff;"/>
   </g>
   <g id="patch_61">
    <path clip-path="url(#p5cb22e848b)" d="M 332.45264 242.44 
L 337.49441 242.44 
L 337.49441 242.44 
L 332.45264 242.44 
z
" style="fill:#0000ff;"/>
   </g>
   <g id="patch_62">
    <path clip-path="url(#p5cb22e848b)" d="M 337.49441 242.44 
L 342.53618 242.44 
L 342.53618 242.44 
L 337.49441 242.44 
z
" style="fill:#0000ff;"/>
   </g>
   <g id="patch_63">
    <path clip-path="url(#p5cb22e848b)" d="M 342.53618 242.44 
L 347.577949 242.44 
L 347.577949 242.44 
L 342.53618 242.44 
z
" style="fill:#0000ff;"/>
   </g>
   <g id="patch_64">
    <path clip-path="url(#p5cb22e848b)" d="M 347.577949 242.44 
L 352.619719 242.44 
L 352.619719 242.44 
L 347.577949 242.44 
z
" style="fill:#0000ff;"/>
   </g>
   <g id="patch_65">
    <path clip-path="url(#p5cb22e848b)" d="M 352.619719 242.44 
L 357.661489 242.44 
L 357.661489 242.44 
L 352.619719 242.44 
z
" style="fill:#0000ff;"/>
   </g>
   <g id="patch_66">
    <path clip-path="url(#p5cb22e848b)" d="M 357.661489 242.44 
L 362.703258 242.44 
L 362.703258 242.44 
L 357.661489 242.44 
z
" style="fill:#0000ff;"/>
   </g>
   <g id="patch_67">
    <path clip-path="url(#p5cb22e848b)" d="M 362.703258 242.44 
L 367.745028 242.44 
L 367.745028 242.44 
L 362.703258 242.44 
z
" style="fill:#0000ff;"/>
   </g>
   <g id="patch_68">
    <path clip-path="url(#p5cb22e848b)" d="M 367.745028 242.44 
L 372.786798 242.44 
L 372.786798 242.44 
L 367.745028 242.44 
z
" style="fill:#0000ff;"/>
   </g>
   <g id="patch_69">
    <path clip-path="url(#p5cb22e848b)" d="M 372.786798 242.44 
L 377.828567 242.44 
L 377.828567 242.44 
L 372.786798 242.44 
z
" style="fill:#0000ff;"/>
   </g>
   <g id="patch_70">
    <path clip-path="url(#p5cb22e848b)" d="M 377.828567 242.44 
L 382.870337 242.44 
L 382.870337 242.44 
L 377.828567 242.44 
z
" style="fill:#0000ff;"/>
   </g>
   <g id="patch_71">
    <path clip-path="url(#p5cb22e848b)" d="M 382.870337 242.44 
L 387.912107 242.44 
L 387.912107 242.44 
L 382.870337 242.44 
z
" style="fill:#0000ff;"/>
   </g>
   <g id="patch_72">
    <path clip-path="url(#p5cb22e848b)" d="M 387.912107 242.44 
L 392.953876 242.44 
L 392.953876 242.44 
L 387.912107 242.44 
z
" style="fill:#0000ff;"/>
   </g>
   <g id="patch_73">
    <path clip-path="url(#p5cb22e848b)" d="M 392.953876 242.44 
L 397.995646 242.44 
L 397.995646 242.44 
L 392.953876 242.44 
z
" style="fill:#0000ff;"/>
   </g>
   <g id="patch_74">
    <path clip-path="url(#p5cb22e848b)" d="M 397.995646 242.44 
L 403.037416 242.44 
L 403.037416 242.44 
L 397.995646 242.44 
z
" style="fill:#0000ff;"/>
   </g>
   <g id="patch_75">
    <path clip-path="url(#p5cb22e848b)" d="M 403.037416 242.44 
L 408.079185 242.44 
L 408.079185 242.44 
L 403.037416 242.44 
z
" style="fill:#0000ff;"/>
   </g>
   <g id="patch_76">
    <path clip-path="url(#p5cb22e848b)" d="M 408.079185 242.44 
L 413.120955 242.44 
L 413.120955 242.44 
L 408.079185 242.44 
z
" style="fill:#0000ff;"/>
   </g>
   <g id="patch_77">
    <path clip-path="url(#p5cb22e848b)" d="M 413.120955 242.44 
L 418.162725 242.44 
L 418.162725 242.44 
L 413.120955 242.44 
z
" style="fill:#0000ff;"/>
   </g>
   <g id="patch_78">
    <path clip-path="url(#p5cb22e848b)" d="M 418.162725 242.44 
L 423.204494 242.44 
L 423.204494 242.44 
L 418.162725 242.44 
z
" style="fill:#0000ff;"/>
   </g>
   <g id="patch_79">
    <path clip-path="url(#p5cb22e848b)" d="M 423.204494 242.44 
L 428.246264 242.44 
L 428.246264 242.44 
L 423.204494 242.44 
z
" style="fill:#0000ff;"/>
   </g>
   <g id="patch_80">
    <path clip-path="url(#p5cb22e848b)" d="M 428.246264 242.44 
L 433.288034 242.44 
L 433.288034 242.44 
L 428.246264 242.44 
z
" style="fill:#0000ff;"/>
   </g>
   <g id="patch_81">
    <path clip-path="url(#p5cb22e848b)" d="M 433.288034 242.44 
L 438.329803 242.44 
L 438.329803 242.44 
L 433.288034 242.44 
z
" style="fill:#0000ff;"/>
   </g>
   <g id="patch_82">
    <path clip-path="url(#p5cb22e848b)" d="M 438.329803 242.44 
L 443.371573 242.44 
L 443.371573 242.44 
L 438.329803 242.44 
z
" style="fill:#0000ff;"/>
   </g>
   <g id="patch_83">
    <path clip-path="url(#p5cb22e848b)" d="M 443.371573 242.44 
L 448.413343 242.44 
L 448.413343 242.44 
L 443.371573 242.44 
z
" style="fill:#0000ff;"/>
   </g>
   <g id="patch_84">
    <path clip-path="url(#p5cb22e848b)" d="M 448.413343 242.44 
L 453.455112 242.44 
L 453.455112 242.44 
L 448.413343 242.44 
z
" style="fill:#0000ff;"/>
   </g>
   <g id="patch_85">
    <path clip-path="url(#p5cb22e848b)" d="M 453.455112 242.44 
L 458.496882 242.44 
L 458.496882 242.44 
L 453.455112 242.44 
z
" style="fill:#0000ff;"/>
   </g>
   <g id="patch_86">
    <path clip-path="url(#p5cb22e848b)" d="M 458.496882 242.44 
L 463.538652 242.44 
L 463.538652 242.44 
L 458.496882 242.44 
z
" style="fill:#0000ff;"/>
   </g>
   <g id="patch_87">
    <path clip-path="url(#p5cb22e848b)" d="M 463.538652 242.44 
L 468.580421 242.44 
L 468.580421 242.44 
L 463.538652 242.44 
z
" style="fill:#0000ff;"/>
   </g>
   <g id="patch_88">
    <path clip-path="url(#p5cb22e848b)" d="M 468.580421 242.44 
L 473.622191 242.44 
L 473.622191 242.44 
L 468.580421 242.44 
z
" style="fill:#0000ff;"/>
   </g>
   <g id="patch_89">
    <path clip-path="url(#p5cb22e848b)" d="M 473.622191 242.44 
L 478.663961 242.44 
L 478.663961 242.44 
L 473.622191 242.44 
z
" style="fill:#0000ff;"/>
   </g>
   <g id="patch_90">
    <path clip-path="url(#p5cb22e848b)" d="M 478.663961 242.44 
L 483.70573 242.44 
L 483.70573 242.44 
L 478.663961 242.44 
z
" style="fill:#0000ff;"/>
   </g>
   <g id="patch_91">
    <path clip-path="url(#p5cb22e848b)" d="M 483.70573 242.44 
L 488.7475 242.44 
L 488.7475 168.903492 
L 483.70573 168.903492 
z
" style="fill:#0000ff;"/>
   </g>
   <g id="patch_92">
    <path clip-path="url(#p5cb22e848b)" d="M 40.03 242.44 
L 45.07177 242.44 
L 45.07177 95.366984 
L 40.03 95.366984 
z
" style="fill:#ffa500;opacity:0.8;"/>
   </g>
   <g id="patch_93">
    <path clip-path="url(#p5cb22e848b)" d="M 45.07177 242.44 
L 50.113539 242.44 
L 50.113539 21.830476 
L 45.07177 21.830476 
z
" style="fill:#ffa500;opacity:0.8;"/>
   </g>
   <g id="patch_94">
    <path clip-path="url(#p5cb22e848b)" d="M 50.113539 242.44 
L 55.155309 242.44 
L 55.155309 168.903492 
L 50.113539 168.903492 
z
" style="fill:#ffa500;opacity:0.8;"/>
   </g>
   <g id="patch_95">
    <path clip-path="url(#p5cb22e848b)" d="M 55.155309 242.44 
L 60.197079 242.44 
L 60.197079 242.44 
L 55.155309 242.44 
z
" style="fill:#ffa500;opacity:0.8;"/>
   </g>
   <g id="patch_96">
    <path clip-path="url(#p5cb22e848b)" d="M 60.197079 242.44 
L 65.238848 242.44 
L 65.238848 242.44 
L 60.197079 242.44 
z
" style="fill:#ffa500;opacity:0.8;"/>
   </g>
   <g id="patch_97">
    <path clip-path="url(#p5cb22e848b)" d="M 65.238848 242.44 
L 70.280618 242.44 
L 70.280618 95.366984 
L 65.238848 95.366984 
z
" style="fill:#ffa500;opacity:0.8;"/>
   </g>
   <g id="patch_98">
    <path clip-path="url(#p5cb22e848b)" d="M 70.280618 242.44 
L 75.322388 242.44 
L 75.322388 95.366984 
L 70.280618 95.366984 
z
" style="fill:#ffa500;opacity:0.8;"/>
   </g>
   <g id="patch_99">
    <path clip-path="url(#p5cb22e848b)" d="M 75.322388 242.44 
L 80.364157 242.44 
L 80.364157 95.366984 
L 75.322388 95.366984 
z
" style="fill:#ffa500;opacity:0.8;"/>
   </g>
   <g id="patch_100">
    <path clip-path="url(#p5cb22e848b)" d="M 80.364157 242.44 
L 85.405927 242.44 
L 85.405927 242.44 
L 80.364157 242.44 
z
" style="fill:#ffa500;opacity:0.8;"/>
   </g>
   <g id="patch_101">
    <path clip-path="url(#p5cb22e848b)" d="M 85.405927 242.44 
L 90.447697 242.44 
L 90.447697 242.44 
L 85.405927 242.44 
z
" style="fill:#ffa500;opacity:0.8;"/>
   </g>
   <g id="patch_102">
    <path clip-path="url(#p5cb22e848b)" d="M 90.447697 242.44 
L 95.489466 242.44 
L 95.489466 168.903492 
L 90.447697 168.903492 
z
" style="fill:#ffa500;opacity:0.8;"/>
   </g>
   <g id="patch_103">
    <path clip-path="url(#p5cb22e848b)" d="M 95.489466 242.44 
L 100.531236 242.44 
L 100.531236 242.44 
L 95.489466 242.44 
z
" style="fill:#ffa500;opacity:0.8;"/>
   </g>
   <g id="patch_104">
    <path clip-path="url(#p5cb22e848b)" d="M 100.531236 242.44 
L 105.573006 242.44 
L 105.573006 242.44 
L 100.531236 242.44 
z
" style="fill:#ffa500;opacity:0.8;"/>
   </g>
   <g id="patch_105">
    <path clip-path="url(#p5cb22e848b)" d="M 105.573006 242.44 
L 110.614775 242.44 
L 110.614775 168.903492 
L 105.573006 168.903492 
z
" style="fill:#ffa500;opacity:0.8;"/>
   </g>
   <g id="patch_106">
    <path clip-path="url(#p5cb22e848b)" d="M 110.614775 242.44 
L 115.656545 242.44 
L 115.656545 242.44 
L 110.614775 242.44 
z
" style="fill:#ffa500;opacity:0.8;"/>
   </g>
   <g id="patch_107">
    <path clip-path="url(#p5cb22e848b)" d="M 115.656545 242.44 
L 120.698315 242.44 
L 120.698315 242.44 
L 115.656545 242.44 
z
" style="fill:#ffa500;opacity:0.8;"/>
   </g>
   <g id="patch_108">
    <path clip-path="url(#p5cb22e848b)" d="M 120.698315 242.44 
L 125.740084 242.44 
L 125.740084 168.903492 
L 120.698315 168.903492 
z
" style="fill:#ffa500;opacity:0.8;"/>
   </g>
   <g id="patch_109">
    <path clip-path="url(#p5cb22e848b)" d="M 125.740084 242.44 
L 130.781854 242.44 
L 130.781854 242.44 
L 125.740084 242.44 
z
" style="fill:#ffa500;opacity:0.8;"/>
   </g>
   <g id="patch_110">
    <path clip-path="url(#p5cb22e848b)" d="M 130.781854 242.44 
L 135.823624 242.44 
L 135.823624 242.44 
L 130.781854 242.44 
z
" style="fill:#ffa500;opacity:0.8;"/>
   </g>
   <g id="patch_111">
    <path clip-path="url(#p5cb22e848b)" d="M 135.823624 242.44 
L 140.865393 242.44 
L 140.865393 242.44 
L 135.823624 242.44 
z
" style="fill:#ffa500;opacity:0.8;"/>
   </g>
   <g id="patch_112">
    <path clip-path="url(#p5cb22e848b)" d="M 140.865393 242.44 
L 145.907163 242.44 
L 145.907163 242.44 
L 140.865393 242.44 
z
" style="fill:#ffa500;opacity:0.8;"/>
   </g>
   <g id="patch_113">
    <path clip-path="url(#p5cb22e848b)" d="M 145.907163 242.44 
L 150.948933 242.44 
L 150.948933 168.903492 
L 145.907163 168.903492 
z
" style="fill:#ffa500;opacity:0.8;"/>
   </g>
   <g id="patch_114">
    <path clip-path="url(#p5cb22e848b)" d="M 150.948933 242.44 
L 155.990702 242.44 
L 155.990702 95.366984 
L 150.948933 95.366984 
z
" style="fill:#ffa500;opacity:0.8;"/>
   </g>
   <g id="patch_115">
    <path clip-path="url(#p5cb22e848b)" d="M 155.990702 242.44 
L 161.032472 242.44 
L 161.032472 242.44 
L 155.990702 242.44 
z
" style="fill:#ffa500;opacity:0.8;"/>
   </g>
   <g id="patch_116">
    <path clip-path="url(#p5cb22e848b)" d="M 161.032472 242.44 
L 166.074242 242.44 
L 166.074242 242.44 
L 161.032472 242.44 
z
" style="fill:#ffa500;opacity:0.8;"/>
   </g>
   <g id="patch_117">
    <path clip-path="url(#p5cb22e848b)" d="M 166.074242 242.44 
L 171.116011 242.44 
L 171.116011 242.44 
L 166.074242 242.44 
z
" style="fill:#ffa500;opacity:0.8;"/>
   </g>
   <g id="patch_118">
    <path clip-path="url(#p5cb22e848b)" d="M 171.116011 242.44 
L 176.157781 242.44 
L 176.157781 242.44 
L 171.116011 242.44 
z
" style="fill:#ffa500;opacity:0.8;"/>
   </g>
   <g id="patch_119">
    <path clip-path="url(#p5cb22e848b)" d="M 176.157781 242.44 
L 181.199551 242.44 
L 181.199551 242.44 
L 176.157781 242.44 
z
" style="fill:#ffa500;opacity:0.8;"/>
   </g>
   <g id="patch_120">
    <path clip-path="url(#p5cb22e848b)" d="M 181.199551 242.44 
L 186.24132 242.44 
L 186.24132 168.903492 
L 181.199551 168.903492 
z
" style="fill:#ffa500;opacity:0.8;"/>
   </g>
   <g id="patch_121">
    <path clip-path="url(#p5cb22e848b)" d="M 186.24132 242.44 
L 191.28309 242.44 
L 191.28309 242.44 
L 186.24132 242.44 
z
" style="fill:#ffa500;opacity:0.8;"/>
   </g>
   <g id="patch_122">
    <path clip-path="url(#p5cb22e848b)" d="M 191.28309 242.44 
L 196.32486 242.44 
L 196.32486 242.44 
L 191.28309 242.44 
z
" style="fill:#ffa500;opacity:0.8;"/>
   </g>
   <g id="patch_123">
    <path clip-path="url(#p5cb22e848b)" d="M 196.32486 242.44 
L 201.366629 242.44 
L 201.366629 242.44 
L 196.32486 242.44 
z
" style="fill:#ffa500;opacity:0.8;"/>
   </g>
   <g id="patch_124">
    <path clip-path="url(#p5cb22e848b)" d="M 201.366629 242.44 
L 206.408399 242.44 
L 206.408399 242.44 
L 201.366629 242.44 
z
" style="fill:#ffa500;opacity:0.8;"/>
   </g>
   <g id="patch_125">
    <path clip-path="url(#p5cb22e848b)" d="M 206.408399 242.44 
L 211.450169 242.44 
L 211.450169 242.44 
L 206.408399 242.44 
z
" style="fill:#ffa500;opacity:0.8;"/>
   </g>
   <g id="patch_126">
    <path clip-path="url(#p5cb22e848b)" d="M 211.450169 242.44 
L 216.491938 242.44 
L 216.491938 242.44 
L 211.450169 242.44 
z
" style="fill:#ffa500;opacity:0.8;"/>
   </g>
   <g id="patch_127">
    <path clip-path="url(#p5cb22e848b)" d="M 216.491938 242.44 
L 221.533708 242.44 
L 221.533708 242.44 
L 216.491938 242.44 
z
" style="fill:#ffa500;opacity:0.8;"/>
   </g>
   <g id="patch_128">
    <path clip-path="url(#p5cb22e848b)" d="M 221.533708 242.44 
L 226.575478 242.44 
L 226.575478 242.44 
L 221.533708 242.44 
z
" style="fill:#ffa500;opacity:0.8;"/>
   </g>
   <g id="patch_129">
    <path clip-path="url(#p5cb22e848b)" d="M 226.575478 242.44 
L 231.617247 242.44 
L 231.617247 242.44 
L 226.575478 242.44 
z
" style="fill:#ffa500;opacity:0.8;"/>
   </g>
   <g id="patch_130">
    <path clip-path="url(#p5cb22e848b)" d="M 231.617247 242.44 
L 236.659017 242.44 
L 236.659017 242.44 
L 231.617247 242.44 
z
" style="fill:#ffa500;opacity:0.8;"/>
   </g>
   <g id="patch_131">
    <path clip-path="url(#p5cb22e848b)" d="M 236.659017 242.44 
L 241.700787 242.44 
L 241.700787 242.44 
L 236.659017 242.44 
z
" style="fill:#ffa500;opacity:0.8;"/>
   </g>
   <g id="patch_132">
    <path clip-path="url(#p5cb22e848b)" d="M 241.700787 242.44 
L 246.742556 242.44 
L 246.742556 242.44 
L 241.700787 242.44 
z
" style="fill:#ffa500;opacity:0.8;"/>
   </g>
   <g id="patch_133">
    <path clip-path="url(#p5cb22e848b)" d="M 246.742556 242.44 
L 251.784326 242.44 
L 251.784326 242.44 
L 246.742556 242.44 
z
" style="fill:#ffa500;opacity:0.8;"/>
   </g>
   <g id="patch_134">
    <path clip-path="url(#p5cb22e848b)" d="M 251.784326 242.44 
L 256.826096 242.44 
L 256.826096 168.903492 
L 251.784326 168.903492 
z
" style="fill:#ffa500;opacity:0.8;"/>
   </g>
   <g id="matplotlib.axis_1">
    <g id="xtick_1">
     <g id="line2d_1">
      <defs>
       <path d="M 0 0 
L 0 3.5 
" id="mce882dad6a" style="stroke:#000000;stroke-width:0.8;"/>
      </defs>
      <g>
       <use style="stroke:#000000;stroke-width:0.8;" x="42.550885" xlink:href="#mce882dad6a" y="242.44"/>
      </g>
     </g>
     <g id="text_1">
      <!-- 0 -->
      <g transform="translate(39.369635 257.038437)scale(0.1 -0.1)">
       <defs>
        <path d="M 2034 4250 
Q 1547 4250 1301 3770 
Q 1056 3291 1056 2328 
Q 1056 1369 1301 889 
Q 1547 409 2034 409 
Q 2525 409 2770 889 
Q 3016 1369 3016 2328 
Q 3016 3291 2770 3770 
Q 2525 4250 2034 4250 
z
M 2034 4750 
Q 2819 4750 3233 4129 
Q 3647 3509 3647 2328 
Q 3647 1150 3233 529 
Q 2819 -91 2034 -91 
Q 1250 -91 836 529 
Q 422 1150 422 2328 
Q 422 3509 836 4129 
Q 1250 4750 2034 4750 
z
" id="DejaVuSans-30" transform="scale(0.015625)"/>
       </defs>
       <use xlink:href="#DejaVuSans-30"/>
      </g>
     </g>
    </g>
    <g id="xtick_2">
     <g id="line2d_2">
      <g>
       <use style="stroke:#000000;stroke-width:0.8;" x="92.968581" xlink:href="#mce882dad6a" y="242.44"/>
      </g>
     </g>
     <g id="text_2">
      <!-- 10 -->
      <g transform="translate(86.606081 257.038437)scale(0.1 -0.1)">
       <defs>
        <path d="M 794 531 
L 1825 531 
L 1825 4091 
L 703 3866 
L 703 4441 
L 1819 4666 
L 2450 4666 
L 2450 531 
L 3481 531 
L 3481 0 
L 794 0 
L 794 531 
z
" id="DejaVuSans-31" transform="scale(0.015625)"/>
       </defs>
       <use xlink:href="#DejaVuSans-31"/>
       <use x="63.623047" xlink:href="#DejaVuSans-30"/>
      </g>
     </g>
    </g>
    <g id="xtick_3">
     <g id="line2d_3">
      <g>
       <use style="stroke:#000000;stroke-width:0.8;" x="143.386278" xlink:href="#mce882dad6a" y="242.44"/>
      </g>
     </g>
     <g id="text_3">
      <!-- 20 -->
      <g transform="translate(137.023778 257.038437)scale(0.1 -0.1)">
       <defs>
        <path d="M 1228 531 
L 3431 531 
L 3431 0 
L 469 0 
L 469 531 
Q 828 903 1448 1529 
Q 2069 2156 2228 2338 
Q 2531 2678 2651 2914 
Q 2772 3150 2772 3378 
Q 2772 3750 2511 3984 
Q 2250 4219 1831 4219 
Q 1534 4219 1204 4116 
Q 875 4013 500 3803 
L 500 4441 
Q 881 4594 1212 4672 
Q 1544 4750 1819 4750 
Q 2544 4750 2975 4387 
Q 3406 4025 3406 3419 
Q 3406 3131 3298 2873 
Q 3191 2616 2906 2266 
Q 2828 2175 2409 1742 
Q 1991 1309 1228 531 
z
" id="DejaVuSans-32" transform="scale(0.015625)"/>
       </defs>
       <use xlink:href="#DejaVuSans-32"/>
       <use x="63.623047" xlink:href="#DejaVuSans-30"/>
      </g>
     </g>
    </g>
    <g id="xtick_4">
     <g id="line2d_4">
      <g>
       <use style="stroke:#000000;stroke-width:0.8;" x="193.803975" xlink:href="#mce882dad6a" y="242.44"/>
      </g>
     </g>
     <g id="text_4">
      <!-- 30 -->
      <g transform="translate(187.441475 257.038437)scale(0.1 -0.1)">
       <defs>
        <path d="M 2597 2516 
Q 3050 2419 3304 2112 
Q 3559 1806 3559 1356 
Q 3559 666 3084 287 
Q 2609 -91 1734 -91 
Q 1441 -91 1130 -33 
Q 819 25 488 141 
L 488 750 
Q 750 597 1062 519 
Q 1375 441 1716 441 
Q 2309 441 2620 675 
Q 2931 909 2931 1356 
Q 2931 1769 2642 2001 
Q 2353 2234 1838 2234 
L 1294 2234 
L 1294 2753 
L 1863 2753 
Q 2328 2753 2575 2939 
Q 2822 3125 2822 3475 
Q 2822 3834 2567 4026 
Q 2313 4219 1838 4219 
Q 1578 4219 1281 4162 
Q 984 4106 628 3988 
L 628 4550 
Q 988 4650 1302 4700 
Q 1616 4750 1894 4750 
Q 2613 4750 3031 4423 
Q 3450 4097 3450 3541 
Q 3450 3153 3228 2886 
Q 3006 2619 2597 2516 
z
" id="DejaVuSans-33" transform="scale(0.015625)"/>
       </defs>
       <use xlink:href="#DejaVuSans-33"/>
       <use x="63.623047" xlink:href="#DejaVuSans-30"/>
      </g>
     </g>
    </g>
    <g id="xtick_5">
     <g id="line2d_5">
      <g>
       <use style="stroke:#000000;stroke-width:0.8;" x="244.221671" xlink:href="#mce882dad6a" y="242.44"/>
      </g>
     </g>
     <g id="text_5">
      <!-- 40 -->
      <g transform="translate(237.859171 257.038437)scale(0.1 -0.1)">
       <defs>
        <path d="M 2419 4116 
L 825 1625 
L 2419 1625 
L 2419 4116 
z
M 2253 4666 
L 3047 4666 
L 3047 1625 
L 3713 1625 
L 3713 1100 
L 3047 1100 
L 3047 0 
L 2419 0 
L 2419 1100 
L 313 1100 
L 313 1709 
L 2253 4666 
z
" id="DejaVuSans-34" transform="scale(0.015625)"/>
       </defs>
       <use xlink:href="#DejaVuSans-34"/>
       <use x="63.623047" xlink:href="#DejaVuSans-30"/>
      </g>
     </g>
    </g>
    <g id="xtick_6">
     <g id="line2d_6">
      <g>
       <use style="stroke:#000000;stroke-width:0.8;" x="294.639368" xlink:href="#mce882dad6a" y="242.44"/>
      </g>
     </g>
     <g id="text_6">
      <!-- 50 -->
      <g transform="translate(288.276868 257.038437)scale(0.1 -0.1)">
       <defs>
        <path d="M 691 4666 
L 3169 4666 
L 3169 4134 
L 1269 4134 
L 1269 2991 
Q 1406 3038 1543 3061 
Q 1681 3084 1819 3084 
Q 2600 3084 3056 2656 
Q 3513 2228 3513 1497 
Q 3513 744 3044 326 
Q 2575 -91 1722 -91 
Q 1428 -91 1123 -41 
Q 819 9 494 109 
L 494 744 
Q 775 591 1075 516 
Q 1375 441 1709 441 
Q 2250 441 2565 725 
Q 2881 1009 2881 1497 
Q 2881 1984 2565 2268 
Q 2250 2553 1709 2553 
Q 1456 2553 1204 2497 
Q 953 2441 691 2322 
L 691 4666 
z
" id="DejaVuSans-35" transform="scale(0.015625)"/>
       </defs>
       <use xlink:href="#DejaVuSans-35"/>
       <use x="63.623047" xlink:href="#DejaVuSans-30"/>
      </g>
     </g>
    </g>
    <g id="xtick_7">
     <g id="line2d_7">
      <g>
       <use style="stroke:#000000;stroke-width:0.8;" x="345.057065" xlink:href="#mce882dad6a" y="242.44"/>
      </g>
     </g>
     <g id="text_7">
      <!-- 60 -->
      <g transform="translate(338.694565 257.038437)scale(0.1 -0.1)">
       <defs>
        <path d="M 2113 2584 
Q 1688 2584 1439 2293 
Q 1191 2003 1191 1497 
Q 1191 994 1439 701 
Q 1688 409 2113 409 
Q 2538 409 2786 701 
Q 3034 994 3034 1497 
Q 3034 2003 2786 2293 
Q 2538 2584 2113 2584 
z
M 3366 4563 
L 3366 3988 
Q 3128 4100 2886 4159 
Q 2644 4219 2406 4219 
Q 1781 4219 1451 3797 
Q 1122 3375 1075 2522 
Q 1259 2794 1537 2939 
Q 1816 3084 2150 3084 
Q 2853 3084 3261 2657 
Q 3669 2231 3669 1497 
Q 3669 778 3244 343 
Q 2819 -91 2113 -91 
Q 1303 -91 875 529 
Q 447 1150 447 2328 
Q 447 3434 972 4092 
Q 1497 4750 2381 4750 
Q 2619 4750 2861 4703 
Q 3103 4656 3366 4563 
z
" id="DejaVuSans-36" transform="scale(0.015625)"/>
       </defs>
       <use xlink:href="#DejaVuSans-36"/>
       <use x="63.623047" xlink:href="#DejaVuSans-30"/>
      </g>
     </g>
    </g>
    <g id="xtick_8">
     <g id="line2d_8">
      <g>
       <use style="stroke:#000000;stroke-width:0.8;" x="395.474761" xlink:href="#mce882dad6a" y="242.44"/>
      </g>
     </g>
     <g id="text_8">
      <!-- 70 -->
      <g transform="translate(389.112261 257.038437)scale(0.1 -0.1)">
       <defs>
        <path d="M 525 4666 
L 3525 4666 
L 3525 4397 
L 1831 0 
L 1172 0 
L 2766 4134 
L 525 4134 
L 525 4666 
z
" id="DejaVuSans-37" transform="scale(0.015625)"/>
       </defs>
       <use xlink:href="#DejaVuSans-37"/>
       <use x="63.623047" xlink:href="#DejaVuSans-30"/>
      </g>
     </g>
    </g>
    <g id="xtick_9">
     <g id="line2d_9">
      <g>
       <use style="stroke:#000000;stroke-width:0.8;" x="445.892458" xlink:href="#mce882dad6a" y="242.44"/>
      </g>
     </g>
     <g id="text_9">
      <!-- 80 -->
      <g transform="translate(439.529958 257.038437)scale(0.1 -0.1)">
       <defs>
        <path d="M 2034 2216 
Q 1584 2216 1326 1975 
Q 1069 1734 1069 1313 
Q 1069 891 1326 650 
Q 1584 409 2034 409 
Q 2484 409 2743 651 
Q 3003 894 3003 1313 
Q 3003 1734 2745 1975 
Q 2488 2216 2034 2216 
z
M 1403 2484 
Q 997 2584 770 2862 
Q 544 3141 544 3541 
Q 544 4100 942 4425 
Q 1341 4750 2034 4750 
Q 2731 4750 3128 4425 
Q 3525 4100 3525 3541 
Q 3525 3141 3298 2862 
Q 3072 2584 2669 2484 
Q 3125 2378 3379 2068 
Q 3634 1759 3634 1313 
Q 3634 634 3220 271 
Q 2806 -91 2034 -91 
Q 1263 -91 848 271 
Q 434 634 434 1313 
Q 434 1759 690 2068 
Q 947 2378 1403 2484 
z
M 1172 3481 
Q 1172 3119 1398 2916 
Q 1625 2713 2034 2713 
Q 2441 2713 2670 2916 
Q 2900 3119 2900 3481 
Q 2900 3844 2670 4047 
Q 2441 4250 2034 4250 
Q 1625 4250 1398 4047 
Q 1172 3844 1172 3481 
z
" id="DejaVuSans-38" transform="scale(0.015625)"/>
       </defs>
       <use xlink:href="#DejaVuSans-38"/>
       <use x="63.623047" xlink:href="#DejaVuSans-30"/>
      </g>
     </g>
    </g>
    <g id="text_10">
     <!-- Number of replays per trial -->
     <g transform="translate(169.697344 273.755938)scale(0.14 -0.14)">
      <defs>
       <path d="M 628 4666 
L 1478 4666 
L 3547 763 
L 3547 4666 
L 4159 4666 
L 4159 0 
L 3309 0 
L 1241 3903 
L 1241 0 
L 628 0 
L 628 4666 
z
" id="DejaVuSans-4e" transform="scale(0.015625)"/>
       <path d="M 544 1381 
L 544 3500 
L 1119 3500 
L 1119 1403 
Q 1119 906 1312 657 
Q 1506 409 1894 409 
Q 2359 409 2629 706 
Q 2900 1003 2900 1516 
L 2900 3500 
L 3475 3500 
L 3475 0 
L 2900 0 
L 2900 538 
Q 2691 219 2414 64 
Q 2138 -91 1772 -91 
Q 1169 -91 856 284 
Q 544 659 544 1381 
z
M 1991 3584 
L 1991 3584 
z
" id="DejaVuSans-75" transform="scale(0.015625)"/>
       <path d="M 3328 2828 
Q 3544 3216 3844 3400 
Q 4144 3584 4550 3584 
Q 5097 3584 5394 3201 
Q 5691 2819 5691 2113 
L 5691 0 
L 5113 0 
L 5113 2094 
Q 5113 2597 4934 2840 
Q 4756 3084 4391 3084 
Q 3944 3084 3684 2787 
Q 3425 2491 3425 1978 
L 3425 0 
L 2847 0 
L 2847 2094 
Q 2847 2600 2669 2842 
Q 2491 3084 2119 3084 
Q 1678 3084 1418 2786 
Q 1159 2488 1159 1978 
L 1159 0 
L 581 0 
L 581 3500 
L 1159 3500 
L 1159 2956 
Q 1356 3278 1631 3431 
Q 1906 3584 2284 3584 
Q 2666 3584 2933 3390 
Q 3200 3197 3328 2828 
z
" id="DejaVuSans-6d" transform="scale(0.015625)"/>
       <path d="M 3116 1747 
Q 3116 2381 2855 2742 
Q 2594 3103 2138 3103 
Q 1681 3103 1420 2742 
Q 1159 2381 1159 1747 
Q 1159 1113 1420 752 
Q 1681 391 2138 391 
Q 2594 391 2855 752 
Q 3116 1113 3116 1747 
z
M 1159 2969 
Q 1341 3281 1617 3432 
Q 1894 3584 2278 3584 
Q 2916 3584 3314 3078 
Q 3713 2572 3713 1747 
Q 3713 922 3314 415 
Q 2916 -91 2278 -91 
Q 1894 -91 1617 61 
Q 1341 213 1159 525 
L 1159 0 
L 581 0 
L 581 4863 
L 1159 4863 
L 1159 2969 
z
" id="DejaVuSans-62" transform="scale(0.015625)"/>
       <path d="M 3597 1894 
L 3597 1613 
L 953 1613 
Q 991 1019 1311 708 
Q 1631 397 2203 397 
Q 2534 397 2845 478 
Q 3156 559 3463 722 
L 3463 178 
Q 3153 47 2828 -22 
Q 2503 -91 2169 -91 
Q 1331 -91 842 396 
Q 353 884 353 1716 
Q 353 2575 817 3079 
Q 1281 3584 2069 3584 
Q 2775 3584 3186 3129 
Q 3597 2675 3597 1894 
z
M 3022 2063 
Q 3016 2534 2758 2815 
Q 2500 3097 2075 3097 
Q 1594 3097 1305 2825 
Q 1016 2553 972 2059 
L 3022 2063 
z
" id="DejaVuSans-65" transform="scale(0.015625)"/>
       <path d="M 2631 2963 
Q 2534 3019 2420 3045 
Q 2306 3072 2169 3072 
Q 1681 3072 1420 2755 
Q 1159 2438 1159 1844 
L 1159 0 
L 581 0 
L 581 3500 
L 1159 3500 
L 1159 2956 
Q 1341 3275 1631 3429 
Q 1922 3584 2338 3584 
Q 2397 3584 2469 3576 
Q 2541 3569 2628 3553 
L 2631 2963 
z
" id="DejaVuSans-72" transform="scale(0.015625)"/>
       <path id="DejaVuSans-20" transform="scale(0.015625)"/>
       <path d="M 1959 3097 
Q 1497 3097 1228 2736 
Q 959 2375 959 1747 
Q 959 1119 1226 758 
Q 1494 397 1959 397 
Q 2419 397 2687 759 
Q 2956 1122 2956 1747 
Q 2956 2369 2687 2733 
Q 2419 3097 1959 3097 
z
M 1959 3584 
Q 2709 3584 3137 3096 
Q 3566 2609 3566 1747 
Q 3566 888 3137 398 
Q 2709 -91 1959 -91 
Q 1206 -91 779 398 
Q 353 888 353 1747 
Q 353 2609 779 3096 
Q 1206 3584 1959 3584 
z
" id="DejaVuSans-6f" transform="scale(0.015625)"/>
       <path d="M 2375 4863 
L 2375 4384 
L 1825 4384 
Q 1516 4384 1395 4259 
Q 1275 4134 1275 3809 
L 1275 3500 
L 2222 3500 
L 2222 3053 
L 1275 3053 
L 1275 0 
L 697 0 
L 697 3053 
L 147 3053 
L 147 3500 
L 697 3500 
L 697 3744 
Q 697 4328 969 4595 
Q 1241 4863 1831 4863 
L 2375 4863 
z
" id="DejaVuSans-66" transform="scale(0.015625)"/>
       <path d="M 1159 525 
L 1159 -1331 
L 581 -1331 
L 581 3500 
L 1159 3500 
L 1159 2969 
Q 1341 3281 1617 3432 
Q 1894 3584 2278 3584 
Q 2916 3584 3314 3078 
Q 3713 2572 3713 1747 
Q 3713 922 3314 415 
Q 2916 -91 2278 -91 
Q 1894 -91 1617 61 
Q 1341 213 1159 525 
z
M 3116 1747 
Q 3116 2381 2855 2742 
Q 2594 3103 2138 3103 
Q 1681 3103 1420 2742 
Q 1159 2381 1159 1747 
Q 1159 1113 1420 752 
Q 1681 391 2138 391 
Q 2594 391 2855 752 
Q 3116 1113 3116 1747 
z
" id="DejaVuSans-70" transform="scale(0.015625)"/>
       <path d="M 603 4863 
L 1178 4863 
L 1178 0 
L 603 0 
L 603 4863 
z
" id="DejaVuSans-6c" transform="scale(0.015625)"/>
       <path d="M 2194 1759 
Q 1497 1759 1228 1600 
Q 959 1441 959 1056 
Q 959 750 1161 570 
Q 1363 391 1709 391 
Q 2188 391 2477 730 
Q 2766 1069 2766 1631 
L 2766 1759 
L 2194 1759 
z
M 3341 1997 
L 3341 0 
L 2766 0 
L 2766 531 
Q 2569 213 2275 61 
Q 1981 -91 1556 -91 
Q 1019 -91 701 211 
Q 384 513 384 1019 
Q 384 1609 779 1909 
Q 1175 2209 1959 2209 
L 2766 2209 
L 2766 2266 
Q 2766 2663 2505 2880 
Q 2244 3097 1772 3097 
Q 1472 3097 1187 3025 
Q 903 2953 641 2809 
L 641 3341 
Q 956 3463 1253 3523 
Q 1550 3584 1831 3584 
Q 2591 3584 2966 3190 
Q 3341 2797 3341 1997 
z
" id="DejaVuSans-61" transform="scale(0.015625)"/>
       <path d="M 2059 -325 
Q 1816 -950 1584 -1140 
Q 1353 -1331 966 -1331 
L 506 -1331 
L 506 -850 
L 844 -850 
Q 1081 -850 1212 -737 
Q 1344 -625 1503 -206 
L 1606 56 
L 191 3500 
L 800 3500 
L 1894 763 
L 2988 3500 
L 3597 3500 
L 2059 -325 
z
" id="DejaVuSans-79" transform="scale(0.015625)"/>
       <path d="M 2834 3397 
L 2834 2853 
Q 2591 2978 2328 3040 
Q 2066 3103 1784 3103 
Q 1356 3103 1142 2972 
Q 928 2841 928 2578 
Q 928 2378 1081 2264 
Q 1234 2150 1697 2047 
L 1894 2003 
Q 2506 1872 2764 1633 
Q 3022 1394 3022 966 
Q 3022 478 2636 193 
Q 2250 -91 1575 -91 
Q 1294 -91 989 -36 
Q 684 19 347 128 
L 347 722 
Q 666 556 975 473 
Q 1284 391 1588 391 
Q 1994 391 2212 530 
Q 2431 669 2431 922 
Q 2431 1156 2273 1281 
Q 2116 1406 1581 1522 
L 1381 1569 
Q 847 1681 609 1914 
Q 372 2147 372 2553 
Q 372 3047 722 3315 
Q 1072 3584 1716 3584 
Q 2034 3584 2315 3537 
Q 2597 3491 2834 3397 
z
" id="DejaVuSans-73" transform="scale(0.015625)"/>
       <path d="M 1172 4494 
L 1172 3500 
L 2356 3500 
L 2356 3053 
L 1172 3053 
L 1172 1153 
Q 1172 725 1289 603 
Q 1406 481 1766 481 
L 2356 481 
L 2356 0 
L 1766 0 
Q 1100 0 847 248 
Q 594 497 594 1153 
L 594 3053 
L 172 3053 
L 172 3500 
L 594 3500 
L 594 4494 
L 1172 4494 
z
" id="DejaVuSans-74" transform="scale(0.015625)"/>
       <path d="M 603 3500 
L 1178 3500 
L 1178 0 
L 603 0 
L 603 3500 
z
M 603 4863 
L 1178 4863 
L 1178 4134 
L 603 4134 
L 603 4863 
z
" id="DejaVuSans-69" transform="scale(0.015625)"/>
      </defs>
      <use xlink:href="#DejaVuSans-4e"/>
      <use x="74.804688" xlink:href="#DejaVuSans-75"/>
      <use x="138.183594" xlink:href="#DejaVuSans-6d"/>
      <use x="235.595703" xlink:href="#DejaVuSans-62"/>
      <use x="299.072266" xlink:href="#DejaVuSans-65"/>
      <use x="360.595703" xlink:href="#DejaVuSans-72"/>
      <use x="401.708984" xlink:href="#DejaVuSans-20"/>
      <use x="433.496094" xlink:href="#DejaVuSans-6f"/>
      <use x="494.677734" xlink:href="#DejaVuSans-66"/>
      <use x="529.882812" xlink:href="#DejaVuSans-20"/>
      <use x="561.669922" xlink:href="#DejaVuSans-72"/>
      <use x="600.533203" xlink:href="#DejaVuSans-65"/>
      <use x="662.056641" xlink:href="#DejaVuSans-70"/>
      <use x="725.533203" xlink:href="#DejaVuSans-6c"/>
      <use x="753.316406" xlink:href="#DejaVuSans-61"/>
      <use x="814.595703" xlink:href="#DejaVuSans-79"/>
      <use x="873.775391" xlink:href="#DejaVuSans-73"/>
      <use x="925.875" xlink:href="#DejaVuSans-20"/>
      <use x="957.662109" xlink:href="#DejaVuSans-70"/>
      <use x="1021.138672" xlink:href="#DejaVuSans-65"/>
      <use x="1082.662109" xlink:href="#DejaVuSans-72"/>
      <use x="1123.775391" xlink:href="#DejaVuSans-20"/>
      <use x="1155.5625" xlink:href="#DejaVuSans-74"/>
      <use x="1194.771484" xlink:href="#DejaVuSans-72"/>
      <use x="1235.884766" xlink:href="#DejaVuSans-69"/>
      <use x="1263.667969" xlink:href="#DejaVuSans-61"/>
      <use x="1324.947266" xlink:href="#DejaVuSans-6c"/>
     </g>
    </g>
   </g>
   <g id="matplotlib.axis_2">
    <g id="ytick_1">
     <g id="line2d_10">
      <defs>
       <path d="M 0 0 
L -3.5 0 
" id="mc5c54fca9a" style="stroke:#000000;stroke-width:0.8;"/>
      </defs>
      <g>
       <use style="stroke:#000000;stroke-width:0.8;" x="40.03" xlink:href="#mc5c54fca9a" y="242.44"/>
      </g>
     </g>
     <g id="text_11">
      <!-- 0.00 -->
      <g transform="translate(10.764375 246.239219)scale(0.1 -0.1)">
       <defs>
        <path d="M 684 794 
L 1344 794 
L 1344 0 
L 684 0 
L 684 794 
z
" id="DejaVuSans-2e" transform="scale(0.015625)"/>
       </defs>
       <use xlink:href="#DejaVuSans-30"/>
       <use x="63.623047" xlink:href="#DejaVuSans-2e"/>
       <use x="95.410156" xlink:href="#DejaVuSans-30"/>
       <use x="159.033203" xlink:href="#DejaVuSans-30"/>
      </g>
     </g>
    </g>
    <g id="ytick_2">
     <g id="line2d_11">
      <g>
       <use style="stroke:#000000;stroke-width:0.8;" x="40.03" xlink:href="#mc5c54fca9a" y="213.025397"/>
      </g>
     </g>
     <g id="text_12">
      <!-- 0.02 -->
      <g transform="translate(10.764375 216.824616)scale(0.1 -0.1)">
       <use xlink:href="#DejaVuSans-30"/>
       <use x="63.623047" xlink:href="#DejaVuSans-2e"/>
       <use x="95.410156" xlink:href="#DejaVuSans-30"/>
       <use x="159.033203" xlink:href="#DejaVuSans-32"/>
      </g>
     </g>
    </g>
    <g id="ytick_3">
     <g id="line2d_12">
      <g>
       <use style="stroke:#000000;stroke-width:0.8;" x="40.03" xlink:href="#mc5c54fca9a" y="183.610794"/>
      </g>
     </g>
     <g id="text_13">
      <!-- 0.04 -->
      <g transform="translate(10.764375 187.410012)scale(0.1 -0.1)">
       <use xlink:href="#DejaVuSans-30"/>
       <use x="63.623047" xlink:href="#DejaVuSans-2e"/>
       <use x="95.410156" xlink:href="#DejaVuSans-30"/>
       <use x="159.033203" xlink:href="#DejaVuSans-34"/>
      </g>
     </g>
    </g>
    <g id="ytick_4">
     <g id="line2d_13">
      <g>
       <use style="stroke:#000000;stroke-width:0.8;" x="40.03" xlink:href="#mc5c54fca9a" y="154.19619"/>
      </g>
     </g>
     <g id="text_14">
      <!-- 0.06 -->
      <g transform="translate(10.764375 157.995409)scale(0.1 -0.1)">
       <use xlink:href="#DejaVuSans-30"/>
       <use x="63.623047" xlink:href="#DejaVuSans-2e"/>
       <use x="95.410156" xlink:href="#DejaVuSans-30"/>
       <use x="159.033203" xlink:href="#DejaVuSans-36"/>
      </g>
     </g>
    </g>
    <g id="ytick_5">
     <g id="line2d_14">
      <g>
       <use style="stroke:#000000;stroke-width:0.8;" x="40.03" xlink:href="#mc5c54fca9a" y="124.781587"/>
      </g>
     </g>
     <g id="text_15">
      <!-- 0.08 -->
      <g transform="translate(10.764375 128.580806)scale(0.1 -0.1)">
       <use xlink:href="#DejaVuSans-30"/>
       <use x="63.623047" xlink:href="#DejaVuSans-2e"/>
       <use x="95.410156" xlink:href="#DejaVuSans-30"/>
       <use x="159.033203" xlink:href="#DejaVuSans-38"/>
      </g>
     </g>
    </g>
    <g id="ytick_6">
     <g id="line2d_15">
      <g>
       <use style="stroke:#000000;stroke-width:0.8;" x="40.03" xlink:href="#mc5c54fca9a" y="95.366984"/>
      </g>
     </g>
     <g id="text_16">
      <!-- 0.10 -->
      <g transform="translate(10.764375 99.166203)scale(0.1 -0.1)">
       <use xlink:href="#DejaVuSans-30"/>
       <use x="63.623047" xlink:href="#DejaVuSans-2e"/>
       <use x="95.410156" xlink:href="#DejaVuSans-31"/>
       <use x="159.033203" xlink:href="#DejaVuSans-30"/>
      </g>
     </g>
    </g>
    <g id="ytick_7">
     <g id="line2d_16">
      <g>
       <use style="stroke:#000000;stroke-width:0.8;" x="40.03" xlink:href="#mc5c54fca9a" y="65.952381"/>
      </g>
     </g>
     <g id="text_17">
      <!-- 0.12 -->
      <g transform="translate(10.764375 69.7516)scale(0.1 -0.1)">
       <use xlink:href="#DejaVuSans-30"/>
       <use x="63.623047" xlink:href="#DejaVuSans-2e"/>
       <use x="95.410156" xlink:href="#DejaVuSans-31"/>
       <use x="159.033203" xlink:href="#DejaVuSans-32"/>
      </g>
     </g>
    </g>
    <g id="ytick_8">
     <g id="line2d_17">
      <g>
       <use style="stroke:#000000;stroke-width:0.8;" x="40.03" xlink:href="#mc5c54fca9a" y="36.537778"/>
      </g>
     </g>
     <g id="text_18">
      <!-- 0.14 -->
      <g transform="translate(10.764375 40.336997)scale(0.1 -0.1)">
       <use xlink:href="#DejaVuSans-30"/>
       <use x="63.623047" xlink:href="#DejaVuSans-2e"/>
       <use x="95.410156" xlink:href="#DejaVuSans-31"/>
       <use x="159.033203" xlink:href="#DejaVuSans-34"/>
      </g>
     </g>
    </g>
   </g>
   <g id="patch_135">
    <path d="M 40.03 242.44 
L 40.03 10.8 
" style="fill:none;stroke:#000000;stroke-linecap:square;stroke-linejoin:miter;stroke-width:0.8;"/>
   </g>
   <g id="patch_136">
    <path d="M 488.7475 242.44 
L 488.7475 10.8 
" style="fill:none;stroke:#000000;stroke-linecap:square;stroke-linejoin:miter;stroke-width:0.8;"/>
   </g>
   <g id="patch_137">
    <path d="M 40.03 242.44 
L 488.7475 242.44 
" style="fill:none;stroke:#000000;stroke-linecap:square;stroke-linejoin:miter;stroke-width:0.8;"/>
   </g>
   <g id="patch_138">
    <path d="M 40.03 10.8 
L 488.7475 10.8 
" style="fill:none;stroke:#000000;stroke-linecap:square;stroke-linejoin:miter;stroke-width:0.8;"/>
   </g>
  </g>
  <g id="axes_2">
   <g id="patch_139">
    <path d="M 548.4825 242.44 
L 997.2 242.44 
L 997.2 10.8 
L 548.4825 10.8 
z
" style="fill:none;"/>
   </g>
   <g id="patch_140">
    <path clip-path="url(#p80300ebca3)" d="M 548.4825 126.62 
L 559.988077 126.62 
L 559.988077 126.62 
L 548.4825 126.62 
z
" style="fill:#0000ff;"/>
   </g>
   <g id="patch_141">
    <path clip-path="url(#p80300ebca3)" d="M 559.988077 126.62 
L 571.493654 126.62 
L 571.493654 126.540938 
L 559.988077 126.540938 
z
" style="fill:#0000ff;"/>
   </g>
   <g id="patch_142">
    <path clip-path="url(#p80300ebca3)" d="M 571.493654 126.62 
L 582.999231 126.62 
L 582.999231 125.188095 
L 571.493654 125.188095 
z
" style="fill:#0000ff;"/>
   </g>
   <g id="patch_143">
    <path clip-path="url(#p80300ebca3)" d="M 582.999231 126.62 
L 594.504808 126.62 
L 594.504808 123.369664 
L 582.999231 123.369664 
z
" style="fill:#0000ff;"/>
   </g>
   <g id="patch_144">
    <path clip-path="url(#p80300ebca3)" d="M 594.504808 126.62 
L 606.010385 126.62 
L 606.010385 121.762066 
L 594.504808 121.762066 
z
" style="fill:#0000ff;"/>
   </g>
   <g id="patch_145">
    <path clip-path="url(#p80300ebca3)" d="M 606.010385 126.62 
L 617.515962 126.62 
L 617.515962 118.687424 
L 606.010385 118.687424 
z
" style="fill:#0000ff;"/>
   </g>
   <g id="patch_146">
    <path clip-path="url(#p80300ebca3)" d="M 617.515962 126.62 
L 629.021538 126.62 
L 629.021538 115.709414 
L 617.515962 115.709414 
z
" style="fill:#0000ff;"/>
   </g>
   <g id="patch_147">
    <path clip-path="url(#p80300ebca3)" d="M 629.021538 126.62 
L 640.527115 126.62 
L 640.527115 115.076916 
L 629.021538 115.076916 
z
" style="fill:#0000ff;"/>
   </g>
   <g id="patch_148">
    <path clip-path="url(#p80300ebca3)" d="M 640.527115 126.62 
L 652.032692 126.62 
L 652.032692 112.951021 
L 640.527115 112.951021 
z
" style="fill:#0000ff;"/>
   </g>
   <g id="patch_149">
    <path clip-path="url(#p80300ebca3)" d="M 652.032692 126.62 
L 663.538269 126.62 
L 663.538269 115.032993 
L 652.032692 115.032993 
z
" style="fill:#0000ff;"/>
   </g>
   <g id="patch_150">
    <path clip-path="url(#p80300ebca3)" d="M 663.538269 126.62 
L 675.043846 126.62 
L 675.043846 117.975864 
L 663.538269 117.975864 
z
" style="fill:#0000ff;"/>
   </g>
   <g id="patch_151">
    <path clip-path="url(#p80300ebca3)" d="M 675.043846 126.62 
L 686.549423 126.62 
L 686.549423 119.311137 
L 675.043846 119.311137 
z
" style="fill:#0000ff;"/>
   </g>
   <g id="patch_152">
    <path clip-path="url(#p80300ebca3)" d="M 686.549423 126.62 
L 698.055 126.62 
L 698.055 121.006583 
L 686.549423 121.006583 
z
" style="fill:#0000ff;"/>
   </g>
   <g id="patch_153">
    <path clip-path="url(#p80300ebca3)" d="M 698.055 126.62 
L 709.560577 126.62 
L 709.560577 121.542449 
L 698.055 121.542449 
z
" style="fill:#0000ff;"/>
   </g>
   <g id="patch_154">
    <path clip-path="url(#p80300ebca3)" d="M 709.560577 126.62 
L 721.066154 126.62 
L 721.066154 120.031482 
L 709.560577 120.031482 
z
" style="fill:#0000ff;"/>
   </g>
   <g id="patch_155">
    <path clip-path="url(#p80300ebca3)" d="M 721.066154 126.62 
L 732.571731 126.62 
L 732.571731 119.776726 
L 721.066154 119.776726 
z
" style="fill:#0000ff;"/>
   </g>
   <g id="patch_156">
    <path clip-path="url(#p80300ebca3)" d="M 732.571731 126.62 
L 744.077308 126.62 
L 744.077308 116.210141 
L 732.571731 116.210141 
z
" style="fill:#0000ff;"/>
   </g>
   <g id="patch_157">
    <path clip-path="url(#p80300ebca3)" d="M 744.077308 126.62 
L 755.582885 126.62 
L 755.582885 110.5528 
L 744.077308 110.5528 
z
" style="fill:#0000ff;"/>
   </g>
   <g id="patch_158">
    <path clip-path="url(#p80300ebca3)" d="M 755.582885 126.62 
L 767.088462 126.62 
L 767.088462 105.650943 
L 755.582885 105.650943 
z
" style="fill:#0000ff;"/>
   </g>
   <g id="patch_159">
    <path clip-path="url(#p80300ebca3)" d="M 767.088462 126.62 
L 778.594038 126.62 
L 778.594038 108.295135 
L 767.088462 108.295135 
z
" style="fill:#0000ff;"/>
   </g>
   <g id="patch_160">
    <path clip-path="url(#p80300ebca3)" d="M 778.594038 126.62 
L 790.099615 126.62 
L 790.099615 36.884383 
L 778.594038 36.884383 
z
" style="fill:#0000ff;"/>
   </g>
   <g id="patch_161">
    <path clip-path="url(#p80300ebca3)" d="M 790.099615 126.62 
L 801.605192 126.62 
L 801.605192 126.62 
L 790.099615 126.62 
z
" style="fill:#0000ff;"/>
   </g>
   <g id="patch_162">
    <path clip-path="url(#p80300ebca3)" d="M 801.605192 126.62 
L 813.110769 126.62 
L 813.110769 126.62 
L 801.605192 126.62 
z
" style="fill:#0000ff;"/>
   </g>
   <g id="patch_163">
    <path clip-path="url(#p80300ebca3)" d="M 813.110769 126.62 
L 824.616346 126.62 
L 824.616346 126.62 
L 813.110769 126.62 
z
" style="fill:#0000ff;"/>
   </g>
   <g id="patch_164">
    <path clip-path="url(#p80300ebca3)" d="M 824.616346 126.62 
L 836.121923 126.62 
L 836.121923 126.62 
L 824.616346 126.62 
z
" style="fill:#0000ff;"/>
   </g>
   <g id="patch_165">
    <path clip-path="url(#p80300ebca3)" d="M 836.121923 126.62 
L 847.6275 126.62 
L 847.6275 126.62 
L 836.121923 126.62 
z
" style="fill:#0000ff;"/>
   </g>
   <g id="patch_166">
    <path clip-path="url(#p80300ebca3)" d="M 847.6275 126.62 
L 859.133077 126.62 
L 859.133077 126.62 
L 847.6275 126.62 
z
" style="fill:#0000ff;"/>
   </g>
   <g id="patch_167">
    <path clip-path="url(#p80300ebca3)" d="M 859.133077 126.62 
L 870.638654 126.62 
L 870.638654 126.62 
L 859.133077 126.62 
z
" style="fill:#0000ff;"/>
   </g>
   <g id="patch_168">
    <path clip-path="url(#p80300ebca3)" d="M 870.638654 126.62 
L 882.144231 126.62 
L 882.144231 126.62 
L 870.638654 126.62 
z
" style="fill:#0000ff;"/>
   </g>
   <g id="patch_169">
    <path clip-path="url(#p80300ebca3)" d="M 882.144231 126.62 
L 893.649808 126.62 
L 893.649808 126.62 
L 882.144231 126.62 
z
" style="fill:#0000ff;"/>
   </g>
   <g id="patch_170">
    <path clip-path="url(#p80300ebca3)" d="M 893.649808 126.62 
L 905.155385 126.62 
L 905.155385 126.62 
L 893.649808 126.62 
z
" style="fill:#0000ff;"/>
   </g>
   <g id="patch_171">
    <path clip-path="url(#p80300ebca3)" d="M 905.155385 126.62 
L 916.660962 126.62 
L 916.660962 126.62 
L 905.155385 126.62 
z
" style="fill:#0000ff;"/>
   </g>
   <g id="patch_172">
    <path clip-path="url(#p80300ebca3)" d="M 916.660962 126.62 
L 928.166538 126.62 
L 928.166538 126.62 
L 916.660962 126.62 
z
" style="fill:#0000ff;"/>
   </g>
   <g id="patch_173">
    <path clip-path="url(#p80300ebca3)" d="M 928.166538 126.62 
L 939.672115 126.62 
L 939.672115 126.62 
L 928.166538 126.62 
z
" style="fill:#0000ff;"/>
   </g>
   <g id="patch_174">
    <path clip-path="url(#p80300ebca3)" d="M 939.672115 126.62 
L 951.177692 126.62 
L 951.177692 126.62 
L 939.672115 126.62 
z
" style="fill:#0000ff;"/>
   </g>
   <g id="patch_175">
    <path clip-path="url(#p80300ebca3)" d="M 951.177692 126.62 
L 962.683269 126.62 
L 962.683269 126.62 
L 951.177692 126.62 
z
" style="fill:#0000ff;"/>
   </g>
   <g id="patch_176">
    <path clip-path="url(#p80300ebca3)" d="M 962.683269 126.62 
L 974.188846 126.62 
L 974.188846 126.62 
L 962.683269 126.62 
z
" style="fill:#0000ff;"/>
   </g>
   <g id="patch_177">
    <path clip-path="url(#p80300ebca3)" d="M 974.188846 126.62 
L 985.694423 126.62 
L 985.694423 126.62 
L 974.188846 126.62 
z
" style="fill:#0000ff;"/>
   </g>
   <g id="patch_178">
    <path clip-path="url(#p80300ebca3)" d="M 985.694423 126.62 
L 997.2 126.62 
L 997.2 126.62 
L 985.694423 126.62 
z
" style="fill:#0000ff;"/>
   </g>
   <g id="patch_179">
    <path clip-path="url(#p80300ebca3)" d="M 548.4825 126.62 
L 559.988077 126.62 
L 559.988077 126.62 
L 548.4825 126.62 
z
" style="fill:#ffa500;opacity:0.8;"/>
   </g>
   <g id="patch_180">
    <path clip-path="url(#p80300ebca3)" d="M 559.988077 126.62 
L 571.493654 126.62 
L 571.493654 126.379796 
L 559.988077 126.379796 
z
" style="fill:#ffa500;opacity:0.8;"/>
   </g>
   <g id="patch_181">
    <path clip-path="url(#p80300ebca3)" d="M 571.493654 126.62 
L 582.999231 126.62 
L 582.999231 123.559622 
L 571.493654 123.559622 
z
" style="fill:#ffa500;opacity:0.8;"/>
   </g>
   <g id="patch_182">
    <path clip-path="url(#p80300ebca3)" d="M 582.999231 126.62 
L 594.504808 126.62 
L 594.504808 121.91378 
L 582.999231 121.91378 
z
" style="fill:#ffa500;opacity:0.8;"/>
   </g>
   <g id="patch_183">
    <path clip-path="url(#p80300ebca3)" d="M 594.504808 126.62 
L 606.010385 126.62 
L 606.010385 117.714657 
L 594.504808 117.714657 
z
" style="fill:#ffa500;opacity:0.8;"/>
   </g>
   <g id="patch_184">
    <path clip-path="url(#p80300ebca3)" d="M 606.010385 126.62 
L 617.515962 126.62 
L 617.515962 108.675866 
L 606.010385 108.675866 
z
" style="fill:#ffa500;opacity:0.8;"/>
   </g>
   <g id="patch_185">
    <path clip-path="url(#p80300ebca3)" d="M 617.515962 126.62 
L 629.021538 126.62 
L 629.021538 114.405178 
L 617.515962 114.405178 
z
" style="fill:#ffa500;opacity:0.8;"/>
   </g>
   <g id="patch_186">
    <path clip-path="url(#p80300ebca3)" d="M 629.021538 126.62 
L 640.527115 126.62 
L 640.527115 112.581407 
L 629.021538 112.581407 
z
" style="fill:#ffa500;opacity:0.8;"/>
   </g>
   <g id="patch_187">
    <path clip-path="url(#p80300ebca3)" d="M 640.527115 126.62 
L 652.032692 126.62 
L 652.032692 110.54412 
L 640.527115 110.54412 
z
" style="fill:#ffa500;opacity:0.8;"/>
   </g>
   <g id="patch_188">
    <path clip-path="url(#p80300ebca3)" d="M 652.032692 126.62 
L 663.538269 126.62 
L 663.538269 112.492442 
L 652.032692 112.492442 
z
" style="fill:#ffa500;opacity:0.8;"/>
   </g>
   <g id="patch_189">
    <path clip-path="url(#p80300ebca3)" d="M 663.538269 126.62 
L 675.043846 126.62 
L 675.043846 112.892782 
L 663.538269 112.892782 
z
" style="fill:#ffa500;opacity:0.8;"/>
   </g>
   <g id="patch_190">
    <path clip-path="url(#p80300ebca3)" d="M 675.043846 126.62 
L 686.549423 126.62 
L 686.549423 118.284029 
L 675.043846 118.284029 
z
" style="fill:#ffa500;opacity:0.8;"/>
   </g>
   <g id="patch_191">
    <path clip-path="url(#p80300ebca3)" d="M 686.549423 126.62 
L 698.055 126.62 
L 698.055 119.627393 
L 686.549423 119.627393 
z
" style="fill:#ffa500;opacity:0.8;"/>
   </g>
   <g id="patch_192">
    <path clip-path="url(#p80300ebca3)" d="M 698.055 126.62 
L 709.560577 126.62 
L 709.560577 120.93517 
L 698.055 120.93517 
z
" style="fill:#ffa500;opacity:0.8;"/>
   </g>
   <g id="patch_193">
    <path clip-path="url(#p80300ebca3)" d="M 709.560577 126.62 
L 721.066154 126.62 
L 721.066154 119.511739 
L 709.560577 119.511739 
z
" style="fill:#ffa500;opacity:0.8;"/>
   </g>
   <g id="patch_194">
    <path clip-path="url(#p80300ebca3)" d="M 721.066154 126.62 
L 732.571731 126.62 
L 732.571731 119.832011 
L 721.066154 119.832011 
z
" style="fill:#ffa500;opacity:0.8;"/>
   </g>
   <g id="patch_195">
    <path clip-path="url(#p80300ebca3)" d="M 732.571731 126.62 
L 744.077308 126.62 
L 744.077308 117.776932 
L 732.571731 117.776932 
z
" style="fill:#ffa500;opacity:0.8;"/>
   </g>
   <g id="patch_196">
    <path clip-path="url(#p80300ebca3)" d="M 744.077308 126.62 
L 755.582885 126.62 
L 755.582885 114.164974 
L 744.077308 114.164974 
z
" style="fill:#ffa500;opacity:0.8;"/>
   </g>
   <g id="patch_197">
    <path clip-path="url(#p80300ebca3)" d="M 755.582885 126.62 
L 767.088462 126.62 
L 767.088462 112.910575 
L 755.582885 112.910575 
z
" style="fill:#ffa500;opacity:0.8;"/>
   </g>
   <g id="patch_198">
    <path clip-path="url(#p80300ebca3)" d="M 767.088462 126.62 
L 778.594038 126.62 
L 778.594038 112.305617 
L 767.088462 112.305617 
z
" style="fill:#ffa500;opacity:0.8;"/>
   </g>
   <g id="patch_199">
    <path clip-path="url(#p80300ebca3)" d="M 778.594038 126.62 
L 790.099615 126.62 
L 790.099615 55.048084 
L 778.594038 55.048084 
z
" style="fill:#ffa500;opacity:0.8;"/>
   </g>
   <g id="patch_200">
    <path clip-path="url(#p80300ebca3)" d="M 790.099615 126.62 
L 801.605192 126.62 
L 801.605192 126.62 
L 790.099615 126.62 
z
" style="fill:#ffa500;opacity:0.8;"/>
   </g>
   <g id="patch_201">
    <path clip-path="url(#p80300ebca3)" d="M 801.605192 126.62 
L 813.110769 126.62 
L 813.110769 126.62 
L 801.605192 126.62 
z
" style="fill:#ffa500;opacity:0.8;"/>
   </g>
   <g id="patch_202">
    <path clip-path="url(#p80300ebca3)" d="M 813.110769 126.62 
L 824.616346 126.62 
L 824.616346 126.62 
L 813.110769 126.62 
z
" style="fill:#ffa500;opacity:0.8;"/>
   </g>
   <g id="patch_203">
    <path clip-path="url(#p80300ebca3)" d="M 824.616346 126.62 
L 836.121923 126.62 
L 836.121923 126.62 
L 824.616346 126.62 
z
" style="fill:#ffa500;opacity:0.8;"/>
   </g>
   <g id="patch_204">
    <path clip-path="url(#p80300ebca3)" d="M 836.121923 126.62 
L 847.6275 126.62 
L 847.6275 126.62 
L 836.121923 126.62 
z
" style="fill:#ffa500;opacity:0.8;"/>
   </g>
   <g id="patch_205">
    <path clip-path="url(#p80300ebca3)" d="M 847.6275 126.62 
L 859.133077 126.62 
L 859.133077 126.62 
L 847.6275 126.62 
z
" style="fill:#ffa500;opacity:0.8;"/>
   </g>
   <g id="patch_206">
    <path clip-path="url(#p80300ebca3)" d="M 859.133077 126.62 
L 870.638654 126.62 
L 870.638654 126.62 
L 859.133077 126.62 
z
" style="fill:#ffa500;opacity:0.8;"/>
   </g>
   <g id="patch_207">
    <path clip-path="url(#p80300ebca3)" d="M 870.638654 126.62 
L 882.144231 126.62 
L 882.144231 126.62 
L 870.638654 126.62 
z
" style="fill:#ffa500;opacity:0.8;"/>
   </g>
   <g id="patch_208">
    <path clip-path="url(#p80300ebca3)" d="M 882.144231 126.62 
L 893.649808 126.62 
L 893.649808 126.62 
L 882.144231 126.62 
z
" style="fill:#ffa500;opacity:0.8;"/>
   </g>
   <g id="patch_209">
    <path clip-path="url(#p80300ebca3)" d="M 893.649808 126.62 
L 905.155385 126.62 
L 905.155385 126.62 
L 893.649808 126.62 
z
" style="fill:#ffa500;opacity:0.8;"/>
   </g>
   <g id="patch_210">
    <path clip-path="url(#p80300ebca3)" d="M 905.155385 126.62 
L 916.660962 126.62 
L 916.660962 126.62 
L 905.155385 126.62 
z
" style="fill:#ffa500;opacity:0.8;"/>
   </g>
   <g id="patch_211">
    <path clip-path="url(#p80300ebca3)" d="M 916.660962 126.62 
L 928.166538 126.62 
L 928.166538 126.62 
L 916.660962 126.62 
z
" style="fill:#ffa500;opacity:0.8;"/>
   </g>
   <g id="patch_212">
    <path clip-path="url(#p80300ebca3)" d="M 928.166538 126.62 
L 939.672115 126.62 
L 939.672115 126.62 
L 928.166538 126.62 
z
" style="fill:#ffa500;opacity:0.8;"/>
   </g>
   <g id="patch_213">
    <path clip-path="url(#p80300ebca3)" d="M 939.672115 126.62 
L 951.177692 126.62 
L 951.177692 126.62 
L 939.672115 126.62 
z
" style="fill:#ffa500;opacity:0.8;"/>
   </g>
   <g id="patch_214">
    <path clip-path="url(#p80300ebca3)" d="M 951.177692 126.62 
L 962.683269 126.62 
L 962.683269 126.62 
L 951.177692 126.62 
z
" style="fill:#ffa500;opacity:0.8;"/>
   </g>
   <g id="patch_215">
    <path clip-path="url(#p80300ebca3)" d="M 962.683269 126.62 
L 974.188846 126.62 
L 974.188846 126.62 
L 962.683269 126.62 
z
" style="fill:#ffa500;opacity:0.8;"/>
   </g>
   <g id="patch_216">
    <path clip-path="url(#p80300ebca3)" d="M 974.188846 126.62 
L 985.694423 126.62 
L 985.694423 126.62 
L 974.188846 126.62 
z
" style="fill:#ffa500;opacity:0.8;"/>
   </g>
   <g id="patch_217">
    <path clip-path="url(#p80300ebca3)" d="M 985.694423 126.62 
L 997.2 126.62 
L 997.2 126.62 
L 985.694423 126.62 
z
" style="fill:#ffa500;opacity:0.8;"/>
   </g>
   <g id="patch_218">
    <path clip-path="url(#p80300ebca3)" d="M 548.4825 126.62 
L 559.988077 126.62 
L 559.988077 126.62 
L 548.4825 126.62 
z
" style="fill:#0000ff;"/>
   </g>
   <g id="patch_219">
    <path clip-path="url(#p80300ebca3)" d="M 559.988077 126.62 
L 571.493654 126.62 
L 571.493654 126.62 
L 559.988077 126.62 
z
" style="fill:#0000ff;"/>
   </g>
   <g id="patch_220">
    <path clip-path="url(#p80300ebca3)" d="M 571.493654 126.62 
L 582.999231 126.62 
L 582.999231 126.62 
L 571.493654 126.62 
z
" style="fill:#0000ff;"/>
   </g>
   <g id="patch_221">
    <path clip-path="url(#p80300ebca3)" d="M 582.999231 126.62 
L 594.504808 126.62 
L 594.504808 126.638457 
L 582.999231 126.638457 
z
" style="fill:#0000ff;"/>
   </g>
   <g id="patch_222">
    <path clip-path="url(#p80300ebca3)" d="M 594.504808 126.62 
L 606.010385 126.62 
L 606.010385 126.866099 
L 594.504808 126.866099 
z
" style="fill:#0000ff;"/>
   </g>
   <g id="patch_223">
    <path clip-path="url(#p80300ebca3)" d="M 606.010385 126.62 
L 617.515962 126.62 
L 617.515962 126.943005 
L 606.010385 126.943005 
z
" style="fill:#0000ff;"/>
   </g>
   <g id="patch_224">
    <path clip-path="url(#p80300ebca3)" d="M 617.515962 126.62 
L 629.021538 126.62 
L 629.021538 127.361374 
L 617.515962 127.361374 
z
" style="fill:#0000ff;"/>
   </g>
   <g id="patch_225">
    <path clip-path="url(#p80300ebca3)" d="M 629.021538 126.62 
L 640.527115 126.62 
L 640.527115 127.459814 
L 629.021538 127.459814 
z
" style="fill:#0000ff;"/>
   </g>
   <g id="patch_226">
    <path clip-path="url(#p80300ebca3)" d="M 640.527115 126.62 
L 652.032692 126.62 
L 652.032692 127.413671 
L 640.527115 127.413671 
z
" style="fill:#0000ff;"/>
   </g>
   <g id="patch_227">
    <path clip-path="url(#p80300ebca3)" d="M 652.032692 126.62 
L 663.538269 126.62 
L 663.538269 127.558254 
L 652.032692 127.558254 
z
" style="fill:#0000ff;"/>
   </g>
   <g id="patch_228">
    <path clip-path="url(#p80300ebca3)" d="M 663.538269 126.62 
L 675.043846 126.62 
L 675.043846 127.705914 
L 663.538269 127.705914 
z
" style="fill:#0000ff;"/>
   </g>
   <g id="patch_229">
    <path clip-path="url(#p80300ebca3)" d="M 675.043846 126.62 
L 686.549423 126.62 
L 686.549423 128.24118 
L 675.043846 128.24118 
z
" style="fill:#0000ff;"/>
   </g>
   <g id="patch_230">
    <path clip-path="url(#p80300ebca3)" d="M 686.549423 126.62 
L 698.055 126.62 
L 698.055 128.942563 
L 686.549423 128.942563 
z
" style="fill:#0000ff;"/>
   </g>
   <g id="patch_231">
    <path clip-path="url(#p80300ebca3)" d="M 698.055 126.62 
L 709.560577 126.62 
L 709.560577 130.576048 
L 698.055 130.576048 
z
" style="fill:#0000ff;"/>
   </g>
   <g id="patch_232">
    <path clip-path="url(#p80300ebca3)" d="M 709.560577 126.62 
L 721.066154 126.62 
L 721.066154 130.975959 
L 709.560577 130.975959 
z
" style="fill:#0000ff;"/>
   </g>
   <g id="patch_233">
    <path clip-path="url(#p80300ebca3)" d="M 721.066154 126.62 
L 732.571731 126.62 
L 732.571731 132.126474 
L 721.066154 132.126474 
z
" style="fill:#0000ff;"/>
   </g>
   <g id="patch_234">
    <path clip-path="url(#p80300ebca3)" d="M 732.571731 126.62 
L 744.077308 126.62 
L 744.077308 131.74502 
L 732.571731 131.74502 
z
" style="fill:#0000ff;"/>
   </g>
   <g id="patch_235">
    <path clip-path="url(#p80300ebca3)" d="M 744.077308 126.62 
L 755.582885 126.62 
L 755.582885 132.221838 
L 744.077308 132.221838 
z
" style="fill:#0000ff;"/>
   </g>
   <g id="patch_236">
    <path clip-path="url(#p80300ebca3)" d="M 755.582885 126.62 
L 767.088462 126.62 
L 767.088462 131.449701 
L 755.582885 131.449701 
z
" style="fill:#0000ff;"/>
   </g>
   <g id="patch_237">
    <path clip-path="url(#p80300ebca3)" d="M 767.088462 126.62 
L 778.594038 126.62 
L 778.594038 131.415862 
L 767.088462 131.415862 
z
" style="fill:#0000ff;"/>
   </g>
   <g id="patch_238">
    <path clip-path="url(#p80300ebca3)" d="M 778.594038 126.62 
L 790.099615 126.62 
L 790.099615 131.000569 
L 778.594038 131.000569 
z
" style="fill:#0000ff;"/>
   </g>
   <g id="patch_239">
    <path clip-path="url(#p80300ebca3)" d="M 790.099615 126.62 
L 801.605192 126.62 
L 801.605192 130.576048 
L 790.099615 130.576048 
z
" style="fill:#0000ff;"/>
   </g>
   <g id="patch_240">
    <path clip-path="url(#p80300ebca3)" d="M 801.605192 126.62 
L 813.110769 126.62 
L 813.110769 130.55759 
L 801.605192 130.55759 
z
" style="fill:#0000ff;"/>
   </g>
   <g id="patch_241">
    <path clip-path="url(#p80300ebca3)" d="M 813.110769 126.62 
L 824.616346 126.62 
L 824.616346 131.120543 
L 813.110769 131.120543 
z
" style="fill:#0000ff;"/>
   </g>
   <g id="patch_242">
    <path clip-path="url(#p80300ebca3)" d="M 824.616346 126.62 
L 836.121923 126.62 
L 836.121923 130.85291 
L 824.616346 130.85291 
z
" style="fill:#0000ff;"/>
   </g>
   <g id="patch_243">
    <path clip-path="url(#p80300ebca3)" d="M 836.121923 126.62 
L 847.6275 126.62 
L 847.6275 131.160534 
L 836.121923 131.160534 
z
" style="fill:#0000ff;"/>
   </g>
   <g id="patch_244">
    <path clip-path="url(#p80300ebca3)" d="M 847.6275 126.62 
L 859.133077 126.62 
L 859.133077 132.181846 
L 847.6275 132.181846 
z
" style="fill:#0000ff;"/>
   </g>
   <g id="patch_245">
    <path clip-path="url(#p80300ebca3)" d="M 859.133077 126.62 
L 870.638654 126.62 
L 870.638654 132.012653 
L 859.133077 132.012653 
z
" style="fill:#0000ff;"/>
   </g>
   <g id="patch_246">
    <path clip-path="url(#p80300ebca3)" d="M 870.638654 126.62 
L 882.144231 126.62 
L 882.144231 132.317201 
L 870.638654 132.317201 
z
" style="fill:#0000ff;"/>
   </g>
   <g id="patch_247">
    <path clip-path="url(#p80300ebca3)" d="M 882.144231 126.62 
L 893.649808 126.62 
L 893.649808 132.2526 
L 882.144231 132.2526 
z
" style="fill:#0000ff;"/>
   </g>
   <g id="patch_248">
    <path clip-path="url(#p80300ebca3)" d="M 893.649808 126.62 
L 905.155385 126.62 
L 905.155385 132.634054 
L 893.649808 132.634054 
z
" style="fill:#0000ff;"/>
   </g>
   <g id="patch_249">
    <path clip-path="url(#p80300ebca3)" d="M 905.155385 126.62 
L 916.660962 126.62 
L 916.660962 132.117245 
L 905.155385 132.117245 
z
" style="fill:#0000ff;"/>
   </g>
   <g id="patch_250">
    <path clip-path="url(#p80300ebca3)" d="M 916.660962 126.62 
L 928.166538 126.62 
L 928.166538 134.218319 
L 916.660962 134.218319 
z
" style="fill:#0000ff;"/>
   </g>
   <g id="patch_251">
    <path clip-path="url(#p80300ebca3)" d="M 928.166538 126.62 
L 939.672115 126.62 
L 939.672115 136.297859 
L 928.166538 136.297859 
z
" style="fill:#0000ff;"/>
   </g>
   <g id="patch_252">
    <path clip-path="url(#p80300ebca3)" d="M 939.672115 126.62 
L 951.177692 126.62 
L 951.177692 138.863445 
L 939.672115 138.863445 
z
" style="fill:#0000ff;"/>
   </g>
   <g id="patch_253">
    <path clip-path="url(#p80300ebca3)" d="M 951.177692 126.62 
L 962.683269 126.62 
L 962.683269 145.680398 
L 951.177692 145.680398 
z
" style="fill:#0000ff;"/>
   </g>
   <g id="patch_254">
    <path clip-path="url(#p80300ebca3)" d="M 962.683269 126.62 
L 974.188846 126.62 
L 974.188846 154.623035 
L 962.683269 154.623035 
z
" style="fill:#0000ff;"/>
   </g>
   <g id="patch_255">
    <path clip-path="url(#p80300ebca3)" d="M 974.188846 126.62 
L 985.694423 126.62 
L 985.694423 151.602165 
L 974.188846 151.602165 
z
" style="fill:#0000ff;"/>
   </g>
   <g id="patch_256">
    <path clip-path="url(#p80300ebca3)" d="M 985.694423 126.62 
L 997.2 126.62 
L 997.2 183.453579 
L 985.694423 183.453579 
z
" style="fill:#0000ff;"/>
   </g>
   <g id="patch_257">
    <path clip-path="url(#p80300ebca3)" d="M 548.4825 126.62 
L 559.988077 126.62 
L 559.988077 126.62 
L 548.4825 126.62 
z
" style="fill:#ffa500;opacity:0.8;"/>
   </g>
   <g id="patch_258">
    <path clip-path="url(#p80300ebca3)" d="M 559.988077 126.62 
L 571.493654 126.62 
L 571.493654 126.62 
L 559.988077 126.62 
z
" style="fill:#ffa500;opacity:0.8;"/>
   </g>
   <g id="patch_259">
    <path clip-path="url(#p80300ebca3)" d="M 571.493654 126.62 
L 582.999231 126.62 
L 582.999231 126.62 
L 571.493654 126.62 
z
" style="fill:#ffa500;opacity:0.8;"/>
   </g>
   <g id="patch_260">
    <path clip-path="url(#p80300ebca3)" d="M 582.999231 126.62 
L 594.504808 126.62 
L 594.504808 126.667558 
L 582.999231 126.667558 
z
" style="fill:#ffa500;opacity:0.8;"/>
   </g>
   <g id="patch_261">
    <path clip-path="url(#p80300ebca3)" d="M 594.504808 126.62 
L 606.010385 126.62 
L 606.010385 128.593658 
L 594.504808 128.593658 
z
" style="fill:#ffa500;opacity:0.8;"/>
   </g>
   <g id="patch_262">
    <path clip-path="url(#p80300ebca3)" d="M 606.010385 126.62 
L 617.515962 126.62 
L 617.515962 127.927845 
L 606.010385 127.927845 
z
" style="fill:#ffa500;opacity:0.8;"/>
   </g>
   <g id="patch_263">
    <path clip-path="url(#p80300ebca3)" d="M 617.515962 126.62 
L 629.021538 126.62 
L 629.021538 129.318917 
L 617.515962 129.318917 
z
" style="fill:#ffa500;opacity:0.8;"/>
   </g>
   <g id="patch_264">
    <path clip-path="url(#p80300ebca3)" d="M 629.021538 126.62 
L 640.527115 126.62 
L 640.527115 130.388973 
L 629.021538 130.388973 
z
" style="fill:#ffa500;opacity:0.8;"/>
   </g>
   <g id="patch_265">
    <path clip-path="url(#p80300ebca3)" d="M 640.527115 126.62 
L 652.032692 126.62 
L 652.032692 128.343978 
L 640.527115 128.343978 
z
" style="fill:#ffa500;opacity:0.8;"/>
   </g>
   <g id="patch_266">
    <path clip-path="url(#p80300ebca3)" d="M 652.032692 126.62 
L 663.538269 126.62 
L 663.538269 130.305746 
L 652.032692 130.305746 
z
" style="fill:#ffa500;opacity:0.8;"/>
   </g>
   <g id="patch_267">
    <path clip-path="url(#p80300ebca3)" d="M 663.538269 126.62 
L 675.043846 126.62 
L 675.043846 130.281967 
L 663.538269 130.281967 
z
" style="fill:#ffa500;opacity:0.8;"/>
   </g>
   <g id="patch_268">
    <path clip-path="url(#p80300ebca3)" d="M 675.043846 126.62 
L 686.549423 126.62 
L 686.549423 132.86199 
L 675.043846 132.86199 
z
" style="fill:#ffa500;opacity:0.8;"/>
   </g>
   <g id="patch_269">
    <path clip-path="url(#p80300ebca3)" d="M 686.549423 126.62 
L 698.055 126.62 
L 698.055 134.966432 
L 686.549423 134.966432 
z
" style="fill:#ffa500;opacity:0.8;"/>
   </g>
   <g id="patch_270">
    <path clip-path="url(#p80300ebca3)" d="M 698.055 126.62 
L 709.560577 126.62 
L 709.560577 134.383846 
L 698.055 134.383846 
z
" style="fill:#ffa500;opacity:0.8;"/>
   </g>
   <g id="patch_271">
    <path clip-path="url(#p80300ebca3)" d="M 709.560577 126.62 
L 721.066154 126.62 
L 721.066154 140.709062 
L 709.560577 140.709062 
z
" style="fill:#ffa500;opacity:0.8;"/>
   </g>
   <g id="patch_272">
    <path clip-path="url(#p80300ebca3)" d="M 721.066154 126.62 
L 732.571731 126.62 
L 732.571731 138.236045 
L 721.066154 138.236045 
z
" style="fill:#ffa500;opacity:0.8;"/>
   </g>
   <g id="patch_273">
    <path clip-path="url(#p80300ebca3)" d="M 732.571731 126.62 
L 744.077308 126.62 
L 744.077308 139.020753 
L 732.571731 139.020753 
z
" style="fill:#ffa500;opacity:0.8;"/>
   </g>
   <g id="patch_274">
    <path clip-path="url(#p80300ebca3)" d="M 744.077308 126.62 
L 755.582885 126.62 
L 755.582885 135.834366 
L 744.077308 135.834366 
z
" style="fill:#ffa500;opacity:0.8;"/>
   </g>
   <g id="patch_275">
    <path clip-path="url(#p80300ebca3)" d="M 755.582885 126.62 
L 767.088462 126.62 
L 767.088462 134.835647 
L 755.582885 134.835647 
z
" style="fill:#ffa500;opacity:0.8;"/>
   </g>
   <g id="patch_276">
    <path clip-path="url(#p80300ebca3)" d="M 767.088462 126.62 
L 778.594038 126.62 
L 778.594038 134.324399 
L 767.088462 134.324399 
z
" style="fill:#ffa500;opacity:0.8;"/>
   </g>
   <g id="patch_277">
    <path clip-path="url(#p80300ebca3)" d="M 778.594038 126.62 
L 790.099615 126.62 
L 790.099615 131.566034 
L 778.594038 131.566034 
z
" style="fill:#ffa500;opacity:0.8;"/>
   </g>
   <g id="patch_278">
    <path clip-path="url(#p80300ebca3)" d="M 790.099615 126.62 
L 801.605192 126.62 
L 801.605192 131.88705 
L 790.099615 131.88705 
z
" style="fill:#ffa500;opacity:0.8;"/>
   </g>
   <g id="patch_279">
    <path clip-path="url(#p80300ebca3)" d="M 801.605192 126.62 
L 813.110769 126.62 
L 813.110769 134.264951 
L 801.605192 134.264951 
z
" style="fill:#ffa500;opacity:0.8;"/>
   </g>
   <g id="patch_280">
    <path clip-path="url(#p80300ebca3)" d="M 813.110769 126.62 
L 824.616346 126.62 
L 824.616346 132.540973 
L 813.110769 132.540973 
z
" style="fill:#ffa500;opacity:0.8;"/>
   </g>
   <g id="patch_281">
    <path clip-path="url(#p80300ebca3)" d="M 824.616346 126.62 
L 836.121923 126.62 
L 836.121923 130.543536 
L 824.616346 130.543536 
z
" style="fill:#ffa500;opacity:0.8;"/>
   </g>
   <g id="patch_282">
    <path clip-path="url(#p80300ebca3)" d="M 836.121923 126.62 
L 847.6275 126.62 
L 847.6275 129.865835 
L 836.121923 129.865835 
z
" style="fill:#ffa500;opacity:0.8;"/>
   </g>
   <g id="patch_283">
    <path clip-path="url(#p80300ebca3)" d="M 847.6275 126.62 
L 859.133077 126.62 
L 859.133077 130.388973 
L 847.6275 130.388973 
z
" style="fill:#ffa500;opacity:0.8;"/>
   </g>
   <g id="patch_284">
    <path clip-path="url(#p80300ebca3)" d="M 859.133077 126.62 
L 870.638654 126.62 
L 870.638654 129.842056 
L 859.133077 129.842056 
z
" style="fill:#ffa500;opacity:0.8;"/>
   </g>
   <g id="patch_285">
    <path clip-path="url(#p80300ebca3)" d="M 870.638654 126.62 
L 882.144231 126.62 
L 882.144231 130.484089 
L 870.638654 130.484089 
z
" style="fill:#ffa500;opacity:0.8;"/>
   </g>
   <g id="patch_286">
    <path clip-path="url(#p80300ebca3)" d="M 882.144231 126.62 
L 893.649808 126.62 
L 893.649808 131.64926 
L 882.144231 131.64926 
z
" style="fill:#ffa500;opacity:0.8;"/>
   </g>
   <g id="patch_287">
    <path clip-path="url(#p80300ebca3)" d="M 893.649808 126.62 
L 905.155385 126.62 
L 905.155385 130.864553 
L 893.649808 130.864553 
z
" style="fill:#ffa500;opacity:0.8;"/>
   </g>
   <g id="patch_288">
    <path clip-path="url(#p80300ebca3)" d="M 905.155385 126.62 
L 916.660962 126.62 
L 916.660962 134.062829 
L 905.155385 134.062829 
z
" style="fill:#ffa500;opacity:0.8;"/>
   </g>
   <g id="patch_289">
    <path clip-path="url(#p80300ebca3)" d="M 916.660962 126.62 
L 928.166538 126.62 
L 928.166538 135.644133 
L 916.660962 135.644133 
z
" style="fill:#ffa500;opacity:0.8;"/>
   </g>
   <g id="patch_290">
    <path clip-path="url(#p80300ebca3)" d="M 928.166538 126.62 
L 939.672115 126.62 
L 939.672115 133.57536 
L 928.166538 133.57536 
z
" style="fill:#ffa500;opacity:0.8;"/>
   </g>
   <g id="patch_291">
    <path clip-path="url(#p80300ebca3)" d="M 939.672115 126.62 
L 951.177692 126.62 
L 951.177692 134.930763 
L 939.672115 134.930763 
z
" style="fill:#ffa500;opacity:0.8;"/>
   </g>
   <g id="patch_292">
    <path clip-path="url(#p80300ebca3)" d="M 951.177692 126.62 
L 962.683269 126.62 
L 962.683269 135.667912 
L 951.177692 135.667912 
z
" style="fill:#ffa500;opacity:0.8;"/>
   </g>
   <g id="patch_293">
    <path clip-path="url(#p80300ebca3)" d="M 962.683269 126.62 
L 974.188846 126.62 
L 974.188846 141.148974 
L 962.683269 141.148974 
z
" style="fill:#ffa500;opacity:0.8;"/>
   </g>
   <g id="patch_294">
    <path clip-path="url(#p80300ebca3)" d="M 974.188846 126.62 
L 985.694423 126.62 
L 985.694423 139.032642 
L 974.188846 139.032642 
z
" style="fill:#ffa500;opacity:0.8;"/>
   </g>
   <g id="patch_295">
    <path clip-path="url(#p80300ebca3)" d="M 985.694423 126.62 
L 997.2 126.62 
L 997.2 164.202722 
L 985.694423 164.202722 
z
" style="fill:#ffa500;opacity:0.8;"/>
   </g>
   <g id="matplotlib.axis_3">
    <g id="xtick_10">
     <g id="line2d_18">
      <g>
       <use style="stroke:#000000;stroke-width:0.8;" x="554.235288" xlink:href="#mce882dad6a" y="242.44"/>
      </g>
     </g>
     <g id="text_19">
      <!-- 0 -->
      <g transform="translate(551.054038 257.038437)scale(0.1 -0.1)">
       <use xlink:href="#DejaVuSans-30"/>
      </g>
     </g>
    </g>
    <g id="xtick_11">
     <g id="line2d_19">
      <g>
       <use style="stroke:#000000;stroke-width:0.8;" x="637.449511" xlink:href="#mce882dad6a" y="242.44"/>
      </g>
     </g>
     <g id="text_20">
      <!-- 1 -->
      <g transform="translate(634.268261 257.038437)scale(0.1 -0.1)">
       <use xlink:href="#DejaVuSans-31"/>
      </g>
     </g>
    </g>
    <g id="xtick_12">
     <g id="line2d_20">
      <g>
       <use style="stroke:#000000;stroke-width:0.8;" x="720.663733" xlink:href="#mce882dad6a" y="242.44"/>
      </g>
     </g>
     <g id="text_21">
      <!-- 2 -->
      <g transform="translate(717.482483 257.038437)scale(0.1 -0.1)">
       <use xlink:href="#DejaVuSans-32"/>
      </g>
     </g>
    </g>
    <g id="xtick_13">
     <g id="line2d_21">
      <g>
       <use style="stroke:#000000;stroke-width:0.8;" x="803.877955" xlink:href="#mce882dad6a" y="242.44"/>
      </g>
     </g>
     <g id="text_22">
      <!-- 3 -->
      <g transform="translate(800.696705 257.038437)scale(0.1 -0.1)">
       <use xlink:href="#DejaVuSans-33"/>
      </g>
     </g>
    </g>
    <g id="xtick_14">
     <g id="line2d_22">
      <g>
       <use style="stroke:#000000;stroke-width:0.8;" x="887.092177" xlink:href="#mce882dad6a" y="242.44"/>
      </g>
     </g>
     <g id="text_23">
      <!-- 4 -->
      <g transform="translate(883.910927 257.038437)scale(0.1 -0.1)">
       <use xlink:href="#DejaVuSans-34"/>
      </g>
     </g>
    </g>
    <g id="xtick_15">
     <g id="line2d_23">
      <g>
       <use style="stroke:#000000;stroke-width:0.8;" x="970.306399" xlink:href="#mce882dad6a" y="242.44"/>
      </g>
     </g>
     <g id="text_24">
      <!-- 5 -->
      <g transform="translate(967.125149 257.038437)scale(0.1 -0.1)">
       <use xlink:href="#DejaVuSans-35"/>
      </g>
     </g>
    </g>
    <g id="text_25">
     <!-- Action entropy -->
     <g transform="translate(721.615469 273.755938)scale(0.14 -0.14)">
      <defs>
       <path d="M 2188 4044 
L 1331 1722 
L 3047 1722 
L 2188 4044 
z
M 1831 4666 
L 2547 4666 
L 4325 0 
L 3669 0 
L 3244 1197 
L 1141 1197 
L 716 0 
L 50 0 
L 1831 4666 
z
" id="DejaVuSans-41" transform="scale(0.015625)"/>
       <path d="M 3122 3366 
L 3122 2828 
Q 2878 2963 2633 3030 
Q 2388 3097 2138 3097 
Q 1578 3097 1268 2742 
Q 959 2388 959 1747 
Q 959 1106 1268 751 
Q 1578 397 2138 397 
Q 2388 397 2633 464 
Q 2878 531 3122 666 
L 3122 134 
Q 2881 22 2623 -34 
Q 2366 -91 2075 -91 
Q 1284 -91 818 406 
Q 353 903 353 1747 
Q 353 2603 823 3093 
Q 1294 3584 2113 3584 
Q 2378 3584 2631 3529 
Q 2884 3475 3122 3366 
z
" id="DejaVuSans-63" transform="scale(0.015625)"/>
       <path d="M 3513 2113 
L 3513 0 
L 2938 0 
L 2938 2094 
Q 2938 2591 2744 2837 
Q 2550 3084 2163 3084 
Q 1697 3084 1428 2787 
Q 1159 2491 1159 1978 
L 1159 0 
L 581 0 
L 581 3500 
L 1159 3500 
L 1159 2956 
Q 1366 3272 1645 3428 
Q 1925 3584 2291 3584 
Q 2894 3584 3203 3211 
Q 3513 2838 3513 2113 
z
" id="DejaVuSans-6e" transform="scale(0.015625)"/>
      </defs>
      <use xlink:href="#DejaVuSans-41"/>
      <use x="66.658203" xlink:href="#DejaVuSans-63"/>
      <use x="121.638672" xlink:href="#DejaVuSans-74"/>
      <use x="160.847656" xlink:href="#DejaVuSans-69"/>
      <use x="188.630859" xlink:href="#DejaVuSans-6f"/>
      <use x="249.8125" xlink:href="#DejaVuSans-6e"/>
      <use x="313.191406" xlink:href="#DejaVuSans-20"/>
      <use x="344.978516" xlink:href="#DejaVuSans-65"/>
      <use x="406.501953" xlink:href="#DejaVuSans-6e"/>
      <use x="469.880859" xlink:href="#DejaVuSans-74"/>
      <use x="509.089844" xlink:href="#DejaVuSans-72"/>
      <use x="547.953125" xlink:href="#DejaVuSans-6f"/>
      <use x="609.134766" xlink:href="#DejaVuSans-70"/>
      <use x="672.611328" xlink:href="#DejaVuSans-79"/>
     </g>
    </g>
   </g>
   <g id="matplotlib.axis_4">
    <g id="ytick_9">
     <g id="line2d_24">
      <g>
       <use style="stroke:#000000;stroke-width:0.8;" x="548.4825" xlink:href="#mc5c54fca9a" y="230.957531"/>
      </g>
     </g>
     <g id="text_26">
      <!-- 0.4 -->
      <g transform="translate(517.199688 234.756749)scale(0.1 -0.1)">
       <defs>
        <path d="M 678 2272 
L 4684 2272 
L 4684 1741 
L 678 1741 
L 678 2272 
z
" id="DejaVuSans-2212" transform="scale(0.015625)"/>
       </defs>
       <use xlink:href="#DejaVuSans-2212"/>
       <use x="83.789062" xlink:href="#DejaVuSans-30"/>
       <use x="147.412109" xlink:href="#DejaVuSans-2e"/>
       <use x="179.199219" xlink:href="#DejaVuSans-34"/>
      </g>
     </g>
    </g>
    <g id="ytick_10">
     <g id="line2d_25">
      <g>
       <use style="stroke:#000000;stroke-width:0.8;" x="548.4825" xlink:href="#mc5c54fca9a" y="204.873148"/>
      </g>
     </g>
     <g id="text_27">
      <!-- 0.3 -->
      <g transform="translate(517.199688 208.672367)scale(0.1 -0.1)">
       <use xlink:href="#DejaVuSans-2212"/>
       <use x="83.789062" xlink:href="#DejaVuSans-30"/>
       <use x="147.412109" xlink:href="#DejaVuSans-2e"/>
       <use x="179.199219" xlink:href="#DejaVuSans-33"/>
      </g>
     </g>
    </g>
    <g id="ytick_11">
     <g id="line2d_26">
      <g>
       <use style="stroke:#000000;stroke-width:0.8;" x="548.4825" xlink:href="#mc5c54fca9a" y="178.788765"/>
      </g>
     </g>
     <g id="text_28">
      <!-- 0.2 -->
      <g transform="translate(517.199688 182.587984)scale(0.1 -0.1)">
       <use xlink:href="#DejaVuSans-2212"/>
       <use x="83.789062" xlink:href="#DejaVuSans-30"/>
       <use x="147.412109" xlink:href="#DejaVuSans-2e"/>
       <use x="179.199219" xlink:href="#DejaVuSans-32"/>
      </g>
     </g>
    </g>
    <g id="ytick_12">
     <g id="line2d_27">
      <g>
       <use style="stroke:#000000;stroke-width:0.8;" x="548.4825" xlink:href="#mc5c54fca9a" y="152.704383"/>
      </g>
     </g>
     <g id="text_29">
      <!-- 0.1 -->
      <g transform="translate(517.199688 156.503601)scale(0.1 -0.1)">
       <use xlink:href="#DejaVuSans-2212"/>
       <use x="83.789062" xlink:href="#DejaVuSans-30"/>
       <use x="147.412109" xlink:href="#DejaVuSans-2e"/>
       <use x="179.199219" xlink:href="#DejaVuSans-31"/>
      </g>
     </g>
    </g>
    <g id="ytick_13">
     <g id="line2d_28">
      <g>
       <use style="stroke:#000000;stroke-width:0.8;" x="548.4825" xlink:href="#mc5c54fca9a" y="126.62"/>
      </g>
     </g>
     <g id="text_30">
      <!-- 0.0 -->
      <g transform="translate(525.579375 130.419219)scale(0.1 -0.1)">
       <use xlink:href="#DejaVuSans-30"/>
       <use x="63.623047" xlink:href="#DejaVuSans-2e"/>
       <use x="95.410156" xlink:href="#DejaVuSans-30"/>
      </g>
     </g>
    </g>
    <g id="ytick_14">
     <g id="line2d_29">
      <g>
       <use style="stroke:#000000;stroke-width:0.8;" x="548.4825" xlink:href="#mc5c54fca9a" y="100.535617"/>
      </g>
     </g>
     <g id="text_31">
      <!-- 0.1 -->
      <g transform="translate(525.579375 104.334836)scale(0.1 -0.1)">
       <use xlink:href="#DejaVuSans-30"/>
       <use x="63.623047" xlink:href="#DejaVuSans-2e"/>
       <use x="95.410156" xlink:href="#DejaVuSans-31"/>
      </g>
     </g>
    </g>
    <g id="ytick_15">
     <g id="line2d_30">
      <g>
       <use style="stroke:#000000;stroke-width:0.8;" x="548.4825" xlink:href="#mc5c54fca9a" y="74.451235"/>
      </g>
     </g>
     <g id="text_32">
      <!-- 0.2 -->
      <g transform="translate(525.579375 78.250453)scale(0.1 -0.1)">
       <use xlink:href="#DejaVuSans-30"/>
       <use x="63.623047" xlink:href="#DejaVuSans-2e"/>
       <use x="95.410156" xlink:href="#DejaVuSans-32"/>
      </g>
     </g>
    </g>
    <g id="ytick_16">
     <g id="line2d_31">
      <g>
       <use style="stroke:#000000;stroke-width:0.8;" x="548.4825" xlink:href="#mc5c54fca9a" y="48.366852"/>
      </g>
     </g>
     <g id="text_33">
      <!-- 0.3 -->
      <g transform="translate(525.579375 52.166071)scale(0.1 -0.1)">
       <use xlink:href="#DejaVuSans-30"/>
       <use x="63.623047" xlink:href="#DejaVuSans-2e"/>
       <use x="95.410156" xlink:href="#DejaVuSans-33"/>
      </g>
     </g>
    </g>
    <g id="ytick_17">
     <g id="line2d_32">
      <g>
       <use style="stroke:#000000;stroke-width:0.8;" x="548.4825" xlink:href="#mc5c54fca9a" y="22.282469"/>
      </g>
     </g>
     <g id="text_34">
      <!-- 0.4 -->
      <g transform="translate(525.579375 26.081688)scale(0.1 -0.1)">
       <use xlink:href="#DejaVuSans-30"/>
       <use x="63.623047" xlink:href="#DejaVuSans-2e"/>
       <use x="95.410156" xlink:href="#DejaVuSans-34"/>
      </g>
     </g>
    </g>
    <g id="text_35">
     <!-- Proportion of replays -->
     <g transform="translate(510.288125 199.426563)rotate(-90)scale(0.14 -0.14)">
      <defs>
       <path d="M 1259 4147 
L 1259 2394 
L 2053 2394 
Q 2494 2394 2734 2622 
Q 2975 2850 2975 3272 
Q 2975 3691 2734 3919 
Q 2494 4147 2053 4147 
L 1259 4147 
z
M 628 4666 
L 2053 4666 
Q 2838 4666 3239 4311 
Q 3641 3956 3641 3272 
Q 3641 2581 3239 2228 
Q 2838 1875 2053 1875 
L 1259 1875 
L 1259 0 
L 628 0 
L 628 4666 
z
" id="DejaVuSans-50" transform="scale(0.015625)"/>
      </defs>
      <use xlink:href="#DejaVuSans-50"/>
      <use x="58.552734" xlink:href="#DejaVuSans-72"/>
      <use x="97.416016" xlink:href="#DejaVuSans-6f"/>
      <use x="158.597656" xlink:href="#DejaVuSans-70"/>
      <use x="222.074219" xlink:href="#DejaVuSans-6f"/>
      <use x="283.255859" xlink:href="#DejaVuSans-72"/>
      <use x="324.369141" xlink:href="#DejaVuSans-74"/>
      <use x="363.578125" xlink:href="#DejaVuSans-69"/>
      <use x="391.361328" xlink:href="#DejaVuSans-6f"/>
      <use x="452.542969" xlink:href="#DejaVuSans-6e"/>
      <use x="515.921875" xlink:href="#DejaVuSans-20"/>
      <use x="547.708984" xlink:href="#DejaVuSans-6f"/>
      <use x="608.890625" xlink:href="#DejaVuSans-66"/>
      <use x="644.095703" xlink:href="#DejaVuSans-20"/>
      <use x="675.882812" xlink:href="#DejaVuSans-72"/>
      <use x="714.746094" xlink:href="#DejaVuSans-65"/>
      <use x="776.269531" xlink:href="#DejaVuSans-70"/>
      <use x="839.746094" xlink:href="#DejaVuSans-6c"/>
      <use x="867.529297" xlink:href="#DejaVuSans-61"/>
      <use x="928.808594" xlink:href="#DejaVuSans-79"/>
      <use x="987.988281" xlink:href="#DejaVuSans-73"/>
     </g>
    </g>
   </g>
   <g id="line2d_33">
    <path clip-path="url(#p80300ebca3)" d="M 548.4825 126.62 
L 997.2 126.62 
" style="fill:none;stroke:#000000;stroke-linecap:square;stroke-width:1.5;"/>
   </g>
   <g id="patch_296">
    <path d="M 548.4825 242.44 
L 548.4825 10.8 
" style="fill:none;stroke:#000000;stroke-linecap:square;stroke-linejoin:miter;stroke-width:0.8;"/>
   </g>
   <g id="patch_297">
    <path d="M 997.2 242.44 
L 997.2 10.8 
" style="fill:none;stroke:#000000;stroke-linecap:square;stroke-linejoin:miter;stroke-width:0.8;"/>
   </g>
   <g id="patch_298">
    <path d="M 548.4825 242.44 
L 997.2 242.44 
" style="fill:none;stroke:#000000;stroke-linecap:square;stroke-linejoin:miter;stroke-width:0.8;"/>
   </g>
   <g id="patch_299">
    <path d="M 548.4825 10.8 
L 997.2 10.8 
" style="fill:none;stroke:#000000;stroke-linecap:square;stroke-linejoin:miter;stroke-width:0.8;"/>
   </g>
  </g>
 </g>
 <defs>
  <clipPath id="p5cb22e848b">
   <rect height="231.64" width="448.7175" x="40.03" y="10.8"/>
  </clipPath>
  <clipPath id="p80300ebca3">
   <rect height="231.64" width="448.7175" x="548.4825" y="10.8"/>
  </clipPath>
 </defs>
</svg>
