<?xml version="1.0" encoding="utf-8" standalone="no"?>
<!DOCTYPE svg PUBLIC "-//W3C//DTD SVG 1.1//EN"
  "http://www.w3.org/Graphics/SVG/1.1/DTD/svg11.dtd">
<svg height="288pt" version="1.1" viewBox="0 0 288 288" width="288pt" xmlns="http://www.w3.org/2000/svg" xmlns:xlink="http://www.w3.org/1999/xlink">
 <metadata>
  <rdf:RDF xmlns:cc="http://creativecommons.org/ns#" xmlns:dc="http://purl.org/dc/elements/1.1/" xmlns:rdf="http://www.w3.org/1999/02/22-rdf-syntax-ns#">
   <cc:Work>
    <dc:type rdf:resource="http://purl.org/dc/dcmitype/StillImage"/>
    <dc:date>2021-09-07T11:07:54.426894</dc:date>
    <dc:format>image/svg+xml</dc:format>
    <dc:creator>
     <cc:Agent>
      <dc:title>Matplotlib v3.4.2, https://matplotlib.org/</dc:title>
     </cc:Agent>
    </dc:creator>
   </cc:Work>
  </rdf:RDF>
 </metadata>
 <defs>
  <style type="text/css">*{stroke-linecap:butt;stroke-linejoin:round;}</style>
 </defs>
 <g id="figure_1">
  <g id="patch_1">
   <path d="M 0 288 
L 288 288 
L 288 0 
L 0 0 
z
" style="fill:none;"/>
  </g>
  <g id="axes_1">
   <g id="patch_2">
    <path d="M 36 252 
L 259.2 252 
L 259.2 34.56 
L 36 34.56 
z
" style="fill:none;"/>
   </g>
   <g id="PathCollection_1">
    <defs>
     <path d="M 0 3 
C 0.795609 3 1.55874 2.683901 2.12132 2.12132 
C 2.683901 1.55874 3 0.795609 3 0 
C 3 -0.795609 2.683901 -1.55874 2.12132 -2.12132 
C 1.55874 -2.683901 0.795609 -3 0 -3 
C -0.795609 -3 -1.55874 -2.683901 -2.12132 -2.12132 
C -2.683901 -1.55874 -3 -0.795609 -3 0 
C -3 0.795609 -2.683901 1.55874 -2.12132 2.12132 
C -1.55874 2.683901 -0.795609 3 0 3 
z
" id="mab37eee6f5" style="stroke:#ff0000;"/>
    </defs>
    <g clip-path="url(#p685a2f3939)">
     <use style="fill:#ff0000;stroke:#ff0000;" x="91.236364" xlink:href="#mab37eee6f5" y="147.018374"/>
     <use style="fill:#ff0000;stroke:#ff0000;" x="91.236364" xlink:href="#mab37eee6f5" y="182.271584"/>
     <use style="fill:#ff0000;stroke:#ff0000;" x="91.236364" xlink:href="#mab37eee6f5" y="197.59535"/>
     <use style="fill:#ff0000;stroke:#ff0000;" x="91.236364" xlink:href="#mab37eee6f5" y="44.962368"/>
     <use style="fill:#ff0000;stroke:#ff0000;" x="91.236364" xlink:href="#mab37eee6f5" y="137.687181"/>
     <use style="fill:#ff0000;stroke:#ff0000;" x="91.236364" xlink:href="#mab37eee6f5" y="55.103744"/>
     <use style="fill:#ff0000;stroke:#ff0000;" x="91.236364" xlink:href="#mab37eee6f5" y="69.001164"/>
     <use style="fill:#ff0000;stroke:#ff0000;" x="91.236364" xlink:href="#mab37eee6f5" y="45.119133"/>
     <use style="fill:#ff0000;stroke:#ff0000;" x="91.236364" xlink:href="#mab37eee6f5" y="61.02093"/>
     <use style="fill:#ff0000;stroke:#ff0000;" x="91.236364" xlink:href="#mab37eee6f5" y="44.924831"/>
     <use style="fill:#ff0000;stroke:#ff0000;" x="91.236364" xlink:href="#mab37eee6f5" y="73.705519"/>
     <use style="fill:#ff0000;stroke:#ff0000;" x="91.236364" xlink:href="#mab37eee6f5" y="168.383196"/>
     <use style="fill:#ff0000;stroke:#ff0000;" x="91.236364" xlink:href="#mab37eee6f5" y="121.300461"/>
     <use style="fill:#ff0000;stroke:#ff0000;" x="91.236364" xlink:href="#mab37eee6f5" y="50.010657"/>
     <use style="fill:#ff0000;stroke:#ff0000;" x="91.236364" xlink:href="#mab37eee6f5" y="44.914286"/>
     <use style="fill:#ff0000;stroke:#ff0000;" x="91.236364" xlink:href="#mab37eee6f5" y="64.357964"/>
     <use style="fill:#ff0000;stroke:#ff0000;" x="91.236364" xlink:href="#mab37eee6f5" y="103.223458"/>
     <use style="fill:#ff0000;stroke:#ff0000;" x="91.236364" xlink:href="#mab37eee6f5" y="48.12024"/>
     <use style="fill:#ff0000;stroke:#ff0000;" x="91.236364" xlink:href="#mab37eee6f5" y="56.072703"/>
     <use style="fill:#ff0000;stroke:#ff0000;" x="91.236364" xlink:href="#mab37eee6f5" y="44.91651"/>
    </g>
   </g>
   <g id="PathCollection_2">
    <defs>
     <path d="M 0 3 
C 0.795609 3 1.55874 2.683901 2.12132 2.12132 
C 2.683901 1.55874 3 0.795609 3 0 
C 3 -0.795609 2.683901 -1.55874 2.12132 -2.12132 
C 1.55874 -2.683901 0.795609 -3 0 -3 
C -0.795609 -3 -1.55874 -2.683901 -2.12132 -2.12132 
C -2.683901 -1.55874 -3 -0.795609 -3 0 
C -3 0.795609 -2.683901 1.55874 -2.12132 2.12132 
C -1.55874 2.683901 -0.795609 3 0 3 
z
" id="m48b8cd74ff" style="stroke:#0000ff;"/>
    </defs>
    <g clip-path="url(#p685a2f3939)">
     <use style="fill:#0000ff;stroke:#0000ff;" x="203.963636" xlink:href="#m48b8cd74ff" y="45.694723"/>
     <use style="fill:#0000ff;stroke:#0000ff;" x="203.963636" xlink:href="#m48b8cd74ff" y="46.433053"/>
     <use style="fill:#0000ff;stroke:#0000ff;" x="203.963636" xlink:href="#m48b8cd74ff" y="90.408721"/>
     <use style="fill:#0000ff;stroke:#0000ff;" x="203.963636" xlink:href="#m48b8cd74ff" y="46.019871"/>
     <use style="fill:#0000ff;stroke:#0000ff;" x="203.963636" xlink:href="#m48b8cd74ff" y="47.630982"/>
     <use style="fill:#0000ff;stroke:#0000ff;" x="203.963636" xlink:href="#m48b8cd74ff" y="48.041188"/>
     <use style="fill:#0000ff;stroke:#0000ff;" x="203.963636" xlink:href="#m48b8cd74ff" y="53.381866"/>
     <use style="fill:#0000ff;stroke:#0000ff;" x="203.963636" xlink:href="#m48b8cd74ff" y="45.010284"/>
     <use style="fill:#0000ff;stroke:#0000ff;" x="203.963636" xlink:href="#m48b8cd74ff" y="46.207997"/>
     <use style="fill:#0000ff;stroke:#0000ff;" x="203.963636" xlink:href="#m48b8cd74ff" y="45.046904"/>
     <use style="fill:#0000ff;stroke:#0000ff;" x="203.963636" xlink:href="#m48b8cd74ff" y="78.537491"/>
     <use style="fill:#0000ff;stroke:#0000ff;" x="203.963636" xlink:href="#m48b8cd74ff" y="54.724745"/>
     <use style="fill:#0000ff;stroke:#0000ff;" x="203.963636" xlink:href="#m48b8cd74ff" y="46.128533"/>
     <use style="fill:#0000ff;stroke:#0000ff;" x="203.963636" xlink:href="#m48b8cd74ff" y="44.95905"/>
     <use style="fill:#0000ff;stroke:#0000ff;" x="203.963636" xlink:href="#m48b8cd74ff" y="67.603112"/>
     <use style="fill:#0000ff;stroke:#0000ff;" x="203.963636" xlink:href="#m48b8cd74ff" y="57.36101"/>
     <use style="fill:#0000ff;stroke:#0000ff;" x="203.963636" xlink:href="#m48b8cd74ff" y="45.104201"/>
     <use style="fill:#0000ff;stroke:#0000ff;" x="203.963636" xlink:href="#m48b8cd74ff" y="45.179292"/>
     <use style="fill:#0000ff;stroke:#0000ff;" x="203.963636" xlink:href="#m48b8cd74ff" y="124.095583"/>
     <use style="fill:#0000ff;stroke:#0000ff;" x="203.963636" xlink:href="#m48b8cd74ff" y="44.923396"/>
    </g>
   </g>
   <g id="patch_3">
    <path clip-path="url(#p685a2f3939)" d="M 46.145455 252 
L 136.327273 252 
L 136.327273 87.985483 
L 46.145455 87.985483 
z
" style="fill:#ff0000;opacity:0.5;"/>
   </g>
   <g id="patch_4">
    <path clip-path="url(#p685a2f3939)" d="M 158.872727 252 
L 249.054545 252 
L 249.054545 56.1246 
L 158.872727 56.1246 
z
" style="fill:#0000ff;opacity:0.5;"/>
   </g>
   <g id="matplotlib.axis_1">
    <g id="xtick_1">
     <g id="line2d_1">
      <defs>
       <path d="M 0 0 
L 0 3.5 
" id="m102d5578dc" style="stroke:#000000;stroke-width:0.8;"/>
      </defs>
      <g>
       <use style="stroke:#000000;stroke-width:0.8;" x="91.236364" xlink:href="#m102d5578dc" y="252"/>
      </g>
     </g>
     <g id="text_1">
      <!-- 1.0 -->
      <g transform="translate(83.284801 266.598437)scale(0.1 -0.1)">
       <defs>
        <path d="M 794 531 
L 1825 531 
L 1825 4091 
L 703 3866 
L 703 4441 
L 1819 4666 
L 2450 4666 
L 2450 531 
L 3481 531 
L 3481 0 
L 794 0 
L 794 531 
z
" id="DejaVuSans-31" transform="scale(0.015625)"/>
        <path d="M 684 794 
L 1344 794 
L 1344 0 
L 684 0 
L 684 794 
z
" id="DejaVuSans-2e" transform="scale(0.015625)"/>
        <path d="M 2034 4250 
Q 1547 4250 1301 3770 
Q 1056 3291 1056 2328 
Q 1056 1369 1301 889 
Q 1547 409 2034 409 
Q 2525 409 2770 889 
Q 3016 1369 3016 2328 
Q 3016 3291 2770 3770 
Q 2525 4250 2034 4250 
z
M 2034 4750 
Q 2819 4750 3233 4129 
Q 3647 3509 3647 2328 
Q 3647 1150 3233 529 
Q 2819 -91 2034 -91 
Q 1250 -91 836 529 
Q 422 1150 422 2328 
Q 422 3509 836 4129 
Q 1250 4750 2034 4750 
z
" id="DejaVuSans-30" transform="scale(0.015625)"/>
       </defs>
       <use xlink:href="#DejaVuSans-31"/>
       <use x="63.623047" xlink:href="#DejaVuSans-2e"/>
       <use x="95.410156" xlink:href="#DejaVuSans-30"/>
      </g>
     </g>
    </g>
    <g id="xtick_2">
     <g id="line2d_2">
      <g>
       <use style="stroke:#000000;stroke-width:0.8;" x="147.6" xlink:href="#m102d5578dc" y="252"/>
      </g>
     </g>
     <g id="text_2">
      <!-- 1.5 -->
      <g transform="translate(139.648438 266.598437)scale(0.1 -0.1)">
       <defs>
        <path d="M 691 4666 
L 3169 4666 
L 3169 4134 
L 1269 4134 
L 1269 2991 
Q 1406 3038 1543 3061 
Q 1681 3084 1819 3084 
Q 2600 3084 3056 2656 
Q 3513 2228 3513 1497 
Q 3513 744 3044 326 
Q 2575 -91 1722 -91 
Q 1428 -91 1123 -41 
Q 819 9 494 109 
L 494 744 
Q 775 591 1075 516 
Q 1375 441 1709 441 
Q 2250 441 2565 725 
Q 2881 1009 2881 1497 
Q 2881 1984 2565 2268 
Q 2250 2553 1709 2553 
Q 1456 2553 1204 2497 
Q 953 2441 691 2322 
L 691 4666 
z
" id="DejaVuSans-35" transform="scale(0.015625)"/>
       </defs>
       <use xlink:href="#DejaVuSans-31"/>
       <use x="63.623047" xlink:href="#DejaVuSans-2e"/>
       <use x="95.410156" xlink:href="#DejaVuSans-35"/>
      </g>
     </g>
    </g>
    <g id="xtick_3">
     <g id="line2d_3">
      <g>
       <use style="stroke:#000000;stroke-width:0.8;" x="203.963636" xlink:href="#m102d5578dc" y="252"/>
      </g>
     </g>
     <g id="text_3">
      <!-- 2.0 -->
      <g transform="translate(196.012074 266.598437)scale(0.1 -0.1)">
       <defs>
        <path d="M 1228 531 
L 3431 531 
L 3431 0 
L 469 0 
L 469 531 
Q 828 903 1448 1529 
Q 2069 2156 2228 2338 
Q 2531 2678 2651 2914 
Q 2772 3150 2772 3378 
Q 2772 3750 2511 3984 
Q 2250 4219 1831 4219 
Q 1534 4219 1204 4116 
Q 875 4013 500 3803 
L 500 4441 
Q 881 4594 1212 4672 
Q 1544 4750 1819 4750 
Q 2544 4750 2975 4387 
Q 3406 4025 3406 3419 
Q 3406 3131 3298 2873 
Q 3191 2616 2906 2266 
Q 2828 2175 2409 1742 
Q 1991 1309 1228 531 
z
" id="DejaVuSans-32" transform="scale(0.015625)"/>
       </defs>
       <use xlink:href="#DejaVuSans-32"/>
       <use x="63.623047" xlink:href="#DejaVuSans-2e"/>
       <use x="95.410156" xlink:href="#DejaVuSans-30"/>
      </g>
     </g>
    </g>
   </g>
   <g id="matplotlib.axis_2">
    <g id="ytick_1">
     <g id="line2d_4">
      <defs>
       <path d="M 0 0 
L -3.5 0 
" id="m73e216887b" style="stroke:#000000;stroke-width:0.8;"/>
      </defs>
      <g>
       <use style="stroke:#000000;stroke-width:0.8;" x="36" xlink:href="#m73e216887b" y="252"/>
      </g>
     </g>
     <g id="text_4">
      <!-- 0.0 -->
      <g transform="translate(13.096875 255.799219)scale(0.1 -0.1)">
       <use xlink:href="#DejaVuSans-30"/>
       <use x="63.623047" xlink:href="#DejaVuSans-2e"/>
       <use x="95.410156" xlink:href="#DejaVuSans-30"/>
      </g>
     </g>
    </g>
    <g id="ytick_2">
     <g id="line2d_5">
      <g>
       <use style="stroke:#000000;stroke-width:0.8;" x="36" xlink:href="#m73e216887b" y="215.11729"/>
      </g>
     </g>
     <g id="text_5">
      <!-- 0.5 -->
      <g transform="translate(13.096875 218.916509)scale(0.1 -0.1)">
       <use xlink:href="#DejaVuSans-30"/>
       <use x="63.623047" xlink:href="#DejaVuSans-2e"/>
       <use x="95.410156" xlink:href="#DejaVuSans-35"/>
      </g>
     </g>
    </g>
    <g id="ytick_3">
     <g id="line2d_6">
      <g>
       <use style="stroke:#000000;stroke-width:0.8;" x="36" xlink:href="#m73e216887b" y="178.23458"/>
      </g>
     </g>
     <g id="text_6">
      <!-- 1.0 -->
      <g transform="translate(13.096875 182.033799)scale(0.1 -0.1)">
       <use xlink:href="#DejaVuSans-31"/>
       <use x="63.623047" xlink:href="#DejaVuSans-2e"/>
       <use x="95.410156" xlink:href="#DejaVuSans-30"/>
      </g>
     </g>
    </g>
    <g id="ytick_4">
     <g id="line2d_7">
      <g>
       <use style="stroke:#000000;stroke-width:0.8;" x="36" xlink:href="#m73e216887b" y="141.35187"/>
      </g>
     </g>
     <g id="text_7">
      <!-- 1.5 -->
      <g transform="translate(13.096875 145.151089)scale(0.1 -0.1)">
       <use xlink:href="#DejaVuSans-31"/>
       <use x="63.623047" xlink:href="#DejaVuSans-2e"/>
       <use x="95.410156" xlink:href="#DejaVuSans-35"/>
      </g>
     </g>
    </g>
    <g id="ytick_5">
     <g id="line2d_8">
      <g>
       <use style="stroke:#000000;stroke-width:0.8;" x="36" xlink:href="#m73e216887b" y="104.46916"/>
      </g>
     </g>
     <g id="text_8">
      <!-- 2.0 -->
      <g transform="translate(13.096875 108.268379)scale(0.1 -0.1)">
       <use xlink:href="#DejaVuSans-32"/>
       <use x="63.623047" xlink:href="#DejaVuSans-2e"/>
       <use x="95.410156" xlink:href="#DejaVuSans-30"/>
      </g>
     </g>
    </g>
    <g id="ytick_6">
     <g id="line2d_9">
      <g>
       <use style="stroke:#000000;stroke-width:0.8;" x="36" xlink:href="#m73e216887b" y="67.586451"/>
      </g>
     </g>
     <g id="text_9">
      <!-- 2.5 -->
      <g transform="translate(13.096875 71.385669)scale(0.1 -0.1)">
       <use xlink:href="#DejaVuSans-32"/>
       <use x="63.623047" xlink:href="#DejaVuSans-2e"/>
       <use x="95.410156" xlink:href="#DejaVuSans-35"/>
      </g>
     </g>
    </g>
   </g>
   <g id="line2d_10">
    <path clip-path="url(#p685a2f3939)" d="M 36 44.914286 
L 259.2 44.914286 
" style="fill:none;stroke:#1f77b4;stroke-linecap:square;stroke-width:1.5;"/>
   </g>
   <g id="patch_5">
    <path d="M 36 252 
L 36 34.56 
" style="fill:none;stroke:#000000;stroke-linecap:square;stroke-linejoin:miter;stroke-width:0.8;"/>
   </g>
   <g id="patch_6">
    <path d="M 259.2 252 
L 259.2 34.56 
" style="fill:none;stroke:#000000;stroke-linecap:square;stroke-linejoin:miter;stroke-width:0.8;"/>
   </g>
   <g id="patch_7">
    <path d="M 36 252 
L 259.2 252 
" style="fill:none;stroke:#000000;stroke-linecap:square;stroke-linejoin:miter;stroke-width:0.8;"/>
   </g>
   <g id="patch_8">
    <path d="M 36 34.56 
L 259.2 34.56 
" style="fill:none;stroke:#000000;stroke-linecap:square;stroke-linejoin:miter;stroke-width:0.8;"/>
   </g>
  </g>
 </g>
 <defs>
  <clipPath id="p685a2f3939">
   <rect height="217.44" width="223.2" x="36" y="34.56"/>
  </clipPath>
 </defs>
</svg>
