<?xml version="1.0" encoding="utf-8" standalone="no"?>
<!DOCTYPE svg PUBLIC "-//W3C//DTD SVG 1.1//EN"
  "http://www.w3.org/Graphics/SVG/1.1/DTD/svg11.dtd">
<!-- Created with matplotlib (https://matplotlib.org/) -->
<svg height="360pt" version="1.1" viewBox="0 0 288 360" width="288pt" xmlns="http://www.w3.org/2000/svg" xmlns:xlink="http://www.w3.org/1999/xlink">
 <defs>
  <style type="text/css">
*{stroke-linecap:butt;stroke-linejoin:round;}
  </style>
 </defs>
 <g id="figure_1">
  <g id="patch_1">
   <path d="M 0 360 
L 288 360 
L 288 0 
L 0 0 
z
" style="fill:none;"/>
  </g>
  <g id="axes_1">
   <g id="patch_2">
    <path d="M 28.8 324 
L 259.2 324 
L 259.2 36 
L 28.8 36 
z
" style="fill:none;"/>
   </g>
   <g id="PathCollection_1">
    <defs>
     <path d="M 0 3 
C 0.795609 3 1.55874 2.683901 2.12132 2.12132 
C 2.683901 1.55874 3 0.795609 3 0 
C 3 -0.795609 2.683901 -1.55874 2.12132 -2.12132 
C 1.55874 -2.683901 0.795609 -3 0 -3 
C -0.795609 -3 -1.55874 -2.683901 -2.12132 -2.12132 
C -2.683901 -1.55874 -3 -0.795609 -3 0 
C -3 0.795609 -2.683901 1.55874 -2.12132 2.12132 
C -1.55874 2.683901 -0.795609 3 0 3 
z
" id="mf0314a61ec" style="stroke:#22cf00;"/>
    </defs>
    <g clip-path="url(#pf47e780bb0)">
     <use style="fill:#22cf00;stroke:#22cf00;" x="144" xlink:href="#mf0314a61ec" y="294.675628"/>
     <use style="fill:#22cf00;stroke:#22cf00;" x="144" xlink:href="#mf0314a61ec" y="293.942907"/>
     <use style="fill:#22cf00;stroke:#22cf00;" x="144" xlink:href="#mf0314a61ec" y="290.184723"/>
     <use style="fill:#22cf00;stroke:#22cf00;" x="144" xlink:href="#mf0314a61ec" y="289.764442"/>
     <use style="fill:#22cf00;stroke:#22cf00;" x="144" xlink:href="#mf0314a61ec" y="291.608739"/>
     <use style="fill:#22cf00;stroke:#22cf00;" x="144" xlink:href="#mf0314a61ec" y="294.619908"/>
     <use style="fill:#22cf00;stroke:#22cf00;" x="144" xlink:href="#mf0314a61ec" y="49.975769"/>
     <use style="fill:#22cf00;stroke:#22cf00;" x="144" xlink:href="#mf0314a61ec" y="274.656818"/>
     <use style="fill:#22cf00;stroke:#22cf00;" x="144" xlink:href="#mf0314a61ec" y="294.148843"/>
     <use style="fill:#22cf00;stroke:#22cf00;" x="144" xlink:href="#mf0314a61ec" y="275.883781"/>
     <use style="fill:#22cf00;stroke:#22cf00;" x="144" xlink:href="#mf0314a61ec" y="291.890421"/>
     <use style="fill:#22cf00;stroke:#22cf00;" x="144" xlink:href="#mf0314a61ec" y="279.06052"/>
     <use style="fill:#22cf00;stroke:#22cf00;" x="144" xlink:href="#mf0314a61ec" y="294.191257"/>
     <use style="fill:#22cf00;stroke:#22cf00;" x="144" xlink:href="#mf0314a61ec" y="274.625209"/>
     <use style="fill:#22cf00;stroke:#22cf00;" x="144" xlink:href="#mf0314a61ec" y="289.02825"/>
     <use style="fill:#22cf00;stroke:#22cf00;" x="144" xlink:href="#mf0314a61ec" y="273.353671"/>
     <use style="fill:#22cf00;stroke:#22cf00;" x="144" xlink:href="#mf0314a61ec" y="290.570696"/>
     <use style="fill:#22cf00;stroke:#22cf00;" x="144" xlink:href="#mf0314a61ec" y="276.044748"/>
     <use style="fill:#22cf00;stroke:#22cf00;" x="144" xlink:href="#mf0314a61ec" y="294.452227"/>
     <use style="fill:#22cf00;stroke:#22cf00;" x="144" xlink:href="#mf0314a61ec" y="294.428637"/>
     <use style="fill:#22cf00;stroke:#22cf00;" x="144" xlink:href="#mf0314a61ec" y="294.013866"/>
     <use style="fill:#22cf00;stroke:#22cf00;" x="144" xlink:href="#mf0314a61ec" y="291.463275"/>
     <use style="fill:#22cf00;stroke:#22cf00;" x="144" xlink:href="#mf0314a61ec" y="292.379726"/>
     <use style="fill:#22cf00;stroke:#22cf00;" x="144" xlink:href="#mf0314a61ec" y="298.742859"/>
     <use style="fill:#22cf00;stroke:#22cf00;" x="144" xlink:href="#mf0314a61ec" y="301.302919"/>
     <use style="fill:#22cf00;stroke:#22cf00;" x="144" xlink:href="#mf0314a61ec" y="277.631673"/>
     <use style="fill:#22cf00;stroke:#22cf00;" x="144" xlink:href="#mf0314a61ec" y="293.728874"/>
     <use style="fill:#22cf00;stroke:#22cf00;" x="144" xlink:href="#mf0314a61ec" y="276.275274"/>
     <use style="fill:#22cf00;stroke:#22cf00;" x="144" xlink:href="#mf0314a61ec" y="295.736015"/>
     <use style="fill:#22cf00;stroke:#22cf00;" x="144" xlink:href="#mf0314a61ec" y="274.02922"/>
     <use style="fill:#22cf00;stroke:#22cf00;" x="144" xlink:href="#mf0314a61ec" y="292.971472"/>
     <use style="fill:#22cf00;stroke:#22cf00;" x="144" xlink:href="#mf0314a61ec" y="278.22762"/>
     <use style="fill:#22cf00;stroke:#22cf00;" x="144" xlink:href="#mf0314a61ec" y="296.323671"/>
     <use style="fill:#22cf00;stroke:#22cf00;" x="144" xlink:href="#mf0314a61ec" y="280.359976"/>
     <use style="fill:#22cf00;stroke:#22cf00;" x="144" xlink:href="#mf0314a61ec" y="290.850658"/>
     <use style="fill:#22cf00;stroke:#22cf00;" x="144" xlink:href="#mf0314a61ec" y="289.573807"/>
     <use style="fill:#22cf00;stroke:#22cf00;" x="144" xlink:href="#mf0314a61ec" y="294.880559"/>
     <use style="fill:#22cf00;stroke:#22cf00;" x="144" xlink:href="#mf0314a61ec" y="296.676949"/>
     <use style="fill:#22cf00;stroke:#22cf00;" x="144" xlink:href="#mf0314a61ec" y="296.973005"/>
     <use style="fill:#22cf00;stroke:#22cf00;" x="144" xlink:href="#mf0314a61ec" y="296.817876"/>
     <use style="fill:#22cf00;stroke:#22cf00;" x="144" xlink:href="#mf0314a61ec" y="299.004148"/>
     <use style="fill:#22cf00;stroke:#22cf00;" x="144" xlink:href="#mf0314a61ec" y="294.405874"/>
     <use style="fill:#22cf00;stroke:#22cf00;" x="144" xlink:href="#mf0314a61ec" y="286.228243"/>
     <use style="fill:#22cf00;stroke:#22cf00;" x="144" xlink:href="#mf0314a61ec" y="281.755528"/>
     <use style="fill:#22cf00;stroke:#22cf00;" x="144" xlink:href="#mf0314a61ec" y="293.458854"/>
     <use style="fill:#22cf00;stroke:#22cf00;" x="144" xlink:href="#mf0314a61ec" y="275.895931"/>
     <use style="fill:#22cf00;stroke:#22cf00;" x="144" xlink:href="#mf0314a61ec" y="298.974375"/>
     <use style="fill:#22cf00;stroke:#22cf00;" x="144" xlink:href="#mf0314a61ec" y="292.417284"/>
     <use style="fill:#22cf00;stroke:#22cf00;" x="144" xlink:href="#mf0314a61ec" y="284.675118"/>
     <use style="fill:#22cf00;stroke:#22cf00;" x="144" xlink:href="#mf0314a61ec" y="297.164938"/>
     <use style="fill:#22cf00;stroke:#22cf00;" x="144" xlink:href="#mf0314a61ec" y="281.256032"/>
     <use style="fill:#22cf00;stroke:#22cf00;" x="144" xlink:href="#mf0314a61ec" y="289.462991"/>
     <use style="fill:#22cf00;stroke:#22cf00;" x="144" xlink:href="#mf0314a61ec" y="294.432603"/>
     <use style="fill:#22cf00;stroke:#22cf00;" x="144" xlink:href="#mf0314a61ec" y="282.453416"/>
     <use style="fill:#22cf00;stroke:#22cf00;" x="144" xlink:href="#mf0314a61ec" y="302.334095"/>
     <use style="fill:#22cf00;stroke:#22cf00;" x="144" xlink:href="#mf0314a61ec" y="288.21329"/>
     <use style="fill:#22cf00;stroke:#22cf00;" x="144" xlink:href="#mf0314a61ec" y="285.072046"/>
     <use style="fill:#22cf00;stroke:#22cf00;" x="144" xlink:href="#mf0314a61ec" y="292.82725"/>
     <use style="fill:#22cf00;stroke:#22cf00;" x="144" xlink:href="#mf0314a61ec" y="289.459729"/>
     <use style="fill:#22cf00;stroke:#22cf00;" x="144" xlink:href="#mf0314a61ec" y="281.357172"/>
     <use style="fill:#22cf00;stroke:#22cf00;" x="144" xlink:href="#mf0314a61ec" y="297.148981"/>
     <use style="fill:#22cf00;stroke:#22cf00;" x="144" xlink:href="#mf0314a61ec" y="297.547635"/>
     <use style="fill:#22cf00;stroke:#22cf00;" x="144" xlink:href="#mf0314a61ec" y="297.446805"/>
     <use style="fill:#22cf00;stroke:#22cf00;" x="144" xlink:href="#mf0314a61ec" y="300.648462"/>
     <use style="fill:#22cf00;stroke:#22cf00;" x="144" xlink:href="#mf0314a61ec" y="299.303882"/>
     <use style="fill:#22cf00;stroke:#22cf00;" x="144" xlink:href="#mf0314a61ec" y="299.330043"/>
     <use style="fill:#22cf00;stroke:#22cf00;" x="144" xlink:href="#mf0314a61ec" y="292.122458"/>
     <use style="fill:#22cf00;stroke:#22cf00;" x="144" xlink:href="#mf0314a61ec" y="293.115479"/>
     <use style="fill:#22cf00;stroke:#22cf00;" x="144" xlink:href="#mf0314a61ec" y="278.844684"/>
     <use style="fill:#22cf00;stroke:#22cf00;" x="144" xlink:href="#mf0314a61ec" y="297.386544"/>
     <use style="fill:#22cf00;stroke:#22cf00;" x="144" xlink:href="#mf0314a61ec" y="283.847991"/>
     <use style="fill:#22cf00;stroke:#22cf00;" x="144" xlink:href="#mf0314a61ec" y="297.719741"/>
     <use style="fill:#22cf00;stroke:#22cf00;" x="144" xlink:href="#mf0314a61ec" y="292.25299"/>
     <use style="fill:#22cf00;stroke:#22cf00;" x="144" xlink:href="#mf0314a61ec" y="291.664771"/>
     <use style="fill:#22cf00;stroke:#22cf00;" x="144" xlink:href="#mf0314a61ec" y="282.657395"/>
     <use style="fill:#22cf00;stroke:#22cf00;" x="144" xlink:href="#mf0314a61ec" y="299.26316"/>
     <use style="fill:#22cf00;stroke:#22cf00;" x="144" xlink:href="#mf0314a61ec" y="280.618499"/>
     <use style="fill:#22cf00;stroke:#22cf00;" x="144" xlink:href="#mf0314a61ec" y="294.433747"/>
     <use style="fill:#22cf00;stroke:#22cf00;" x="144" xlink:href="#mf0314a61ec" y="297.443528"/>
     <use style="fill:#22cf00;stroke:#22cf00;" x="144" xlink:href="#mf0314a61ec" y="300.50939"/>
     <use style="fill:#22cf00;stroke:#22cf00;" x="144" xlink:href="#mf0314a61ec" y="302.648023"/>
     <use style="fill:#22cf00;stroke:#22cf00;" x="144" xlink:href="#mf0314a61ec" y="301.5971"/>
     <use style="fill:#22cf00;stroke:#22cf00;" x="144" xlink:href="#mf0314a61ec" y="300.336983"/>
     <use style="fill:#22cf00;stroke:#22cf00;" x="144" xlink:href="#mf0314a61ec" y="299.695165"/>
     <use style="fill:#22cf00;stroke:#22cf00;" x="144" xlink:href="#mf0314a61ec" y="289.84999"/>
     <use style="fill:#22cf00;stroke:#22cf00;" x="144" xlink:href="#mf0314a61ec" y="283.810463"/>
     <use style="fill:#22cf00;stroke:#22cf00;" x="144" xlink:href="#mf0314a61ec" y="300.563674"/>
     <use style="fill:#22cf00;stroke:#22cf00;" x="144" xlink:href="#mf0314a61ec" y="282.799999"/>
     <use style="fill:#22cf00;stroke:#22cf00;" x="144" xlink:href="#mf0314a61ec" y="296.902095"/>
     <use style="fill:#22cf00;stroke:#22cf00;" x="144" xlink:href="#mf0314a61ec" y="295.518039"/>
     <use style="fill:#22cf00;stroke:#22cf00;" x="144" xlink:href="#mf0314a61ec" y="282.651719"/>
     <use style="fill:#22cf00;stroke:#22cf00;" x="144" xlink:href="#mf0314a61ec" y="297.023821"/>
     <use style="fill:#22cf00;stroke:#22cf00;" x="144" xlink:href="#mf0314a61ec" y="282.93067"/>
     <use style="fill:#22cf00;stroke:#22cf00;" x="144" xlink:href="#mf0314a61ec" y="297.8681"/>
     <use style="fill:#22cf00;stroke:#22cf00;" x="144" xlink:href="#mf0314a61ec" y="292.959585"/>
     <use style="fill:#22cf00;stroke:#22cf00;" x="144" xlink:href="#mf0314a61ec" y="280.885285"/>
     <use style="fill:#22cf00;stroke:#22cf00;" x="144" xlink:href="#mf0314a61ec" y="277.391776"/>
     <use style="fill:#22cf00;stroke:#22cf00;" x="144" xlink:href="#mf0314a61ec" y="319.179603"/>
     <use style="fill:#22cf00;stroke:#22cf00;" x="144" xlink:href="#mf0314a61ec" y="270.904925"/>
     <use style="fill:#22cf00;stroke:#22cf00;" x="144" xlink:href="#mf0314a61ec" y="312.536743"/>
     <use style="fill:#22cf00;stroke:#22cf00;" x="144" xlink:href="#mf0314a61ec" y="246.061688"/>
     <use style="fill:#22cf00;stroke:#22cf00;" x="144" xlink:href="#mf0314a61ec" y="308.922775"/>
     <use style="fill:#22cf00;stroke:#22cf00;" x="144" xlink:href="#mf0314a61ec" y="299.644311"/>
     <use style="fill:#22cf00;stroke:#22cf00;" x="144" xlink:href="#mf0314a61ec" y="298.575427"/>
     <use style="fill:#22cf00;stroke:#22cf00;" x="144" xlink:href="#mf0314a61ec" y="298.209856"/>
     <use style="fill:#22cf00;stroke:#22cf00;" x="144" xlink:href="#mf0314a61ec" y="296.554084"/>
     <use style="fill:#22cf00;stroke:#22cf00;" x="144" xlink:href="#mf0314a61ec" y="300.244869"/>
     <use style="fill:#22cf00;stroke:#22cf00;" x="144" xlink:href="#mf0314a61ec" y="300.76543"/>
     <use style="fill:#22cf00;stroke:#22cf00;" x="144" xlink:href="#mf0314a61ec" y="261.357069"/>
     <use style="fill:#22cf00;stroke:#22cf00;" x="144" xlink:href="#mf0314a61ec" y="292.091151"/>
     <use style="fill:#22cf00;stroke:#22cf00;" x="144" xlink:href="#mf0314a61ec" y="295.570999"/>
     <use style="fill:#22cf00;stroke:#22cf00;" x="144" xlink:href="#mf0314a61ec" y="273.294738"/>
     <use style="fill:#22cf00;stroke:#22cf00;" x="144" xlink:href="#mf0314a61ec" y="302.435129"/>
     <use style="fill:#22cf00;stroke:#22cf00;" x="144" xlink:href="#mf0314a61ec" y="291.655134"/>
     <use style="fill:#22cf00;stroke:#22cf00;" x="144" xlink:href="#mf0314a61ec" y="294.523798"/>
     <use style="fill:#22cf00;stroke:#22cf00;" x="144" xlink:href="#mf0314a61ec" y="283.79954"/>
     <use style="fill:#22cf00;stroke:#22cf00;" x="144" xlink:href="#mf0314a61ec" y="305.244789"/>
     <use style="fill:#22cf00;stroke:#22cf00;" x="144" xlink:href="#mf0314a61ec" y="278.897717"/>
     <use style="fill:#22cf00;stroke:#22cf00;" x="144" xlink:href="#mf0314a61ec" y="301.543399"/>
     <use style="fill:#22cf00;stroke:#22cf00;" x="144" xlink:href="#mf0314a61ec" y="293.134545"/>
     <use style="fill:#22cf00;stroke:#22cf00;" x="144" xlink:href="#mf0314a61ec" y="304.752233"/>
     <use style="fill:#22cf00;stroke:#22cf00;" x="144" xlink:href="#mf0314a61ec" y="304.173469"/>
     <use style="fill:#22cf00;stroke:#22cf00;" x="144" xlink:href="#mf0314a61ec" y="300.300389"/>
     <use style="fill:#22cf00;stroke:#22cf00;" x="144" xlink:href="#mf0314a61ec" y="301.826671"/>
     <use style="fill:#22cf00;stroke:#22cf00;" x="144" xlink:href="#mf0314a61ec" y="302.8966"/>
     <use style="fill:#22cf00;stroke:#22cf00;" x="144" xlink:href="#mf0314a61ec" y="303.780811"/>
     <use style="fill:#22cf00;stroke:#22cf00;" x="144" xlink:href="#mf0314a61ec" y="294.021405"/>
     <use style="fill:#22cf00;stroke:#22cf00;" x="144" xlink:href="#mf0314a61ec" y="280.407744"/>
     <use style="fill:#22cf00;stroke:#22cf00;" x="144" xlink:href="#mf0314a61ec" y="305.296687"/>
     <use style="fill:#22cf00;stroke:#22cf00;" x="144" xlink:href="#mf0314a61ec" y="289.347444"/>
     <use style="fill:#22cf00;stroke:#22cf00;" x="144" xlink:href="#mf0314a61ec" y="288.99262"/>
     <use style="fill:#22cf00;stroke:#22cf00;" x="144" xlink:href="#mf0314a61ec" y="302.896223"/>
     <use style="fill:#22cf00;stroke:#22cf00;" x="144" xlink:href="#mf0314a61ec" y="292.665893"/>
     <use style="fill:#22cf00;stroke:#22cf00;" x="144" xlink:href="#mf0314a61ec" y="280.972413"/>
     <use style="fill:#22cf00;stroke:#22cf00;" x="144" xlink:href="#mf0314a61ec" y="311.078922"/>
     <use style="fill:#22cf00;stroke:#22cf00;" x="144" xlink:href="#mf0314a61ec" y="278.562197"/>
     <use style="fill:#22cf00;stroke:#22cf00;" x="144" xlink:href="#mf0314a61ec" y="303.050306"/>
     <use style="fill:#22cf00;stroke:#22cf00;" x="144" xlink:href="#mf0314a61ec" y="300.540275"/>
     <use style="fill:#22cf00;stroke:#22cf00;" x="144" xlink:href="#mf0314a61ec" y="311.223775"/>
     <use style="fill:#22cf00;stroke:#22cf00;" x="144" xlink:href="#mf0314a61ec" y="302.594598"/>
     <use style="fill:#22cf00;stroke:#22cf00;" x="144" xlink:href="#mf0314a61ec" y="295.243642"/>
     <use style="fill:#22cf00;stroke:#22cf00;" x="144" xlink:href="#mf0314a61ec" y="296.895858"/>
     <use style="fill:#22cf00;stroke:#22cf00;" x="144" xlink:href="#mf0314a61ec" y="299.529598"/>
     <use style="fill:#22cf00;stroke:#22cf00;" x="144" xlink:href="#mf0314a61ec" y="280.862145"/>
     <use style="fill:#22cf00;stroke:#22cf00;" x="144" xlink:href="#mf0314a61ec" y="305.475932"/>
     <use style="fill:#22cf00;stroke:#22cf00;" x="144" xlink:href="#mf0314a61ec" y="306.204229"/>
     <use style="fill:#22cf00;stroke:#22cf00;" x="144" xlink:href="#mf0314a61ec" y="301.956548"/>
     <use style="fill:#22cf00;stroke:#22cf00;" x="144" xlink:href="#mf0314a61ec" y="303.716739"/>
     <use style="fill:#22cf00;stroke:#22cf00;" x="144" xlink:href="#mf0314a61ec" y="303.794552"/>
     <use style="fill:#22cf00;stroke:#22cf00;" x="144" xlink:href="#mf0314a61ec" y="304.10855"/>
     <use style="fill:#22cf00;stroke:#22cf00;" x="144" xlink:href="#mf0314a61ec" y="301.070661"/>
     <use style="fill:#22cf00;stroke:#22cf00;" x="144" xlink:href="#mf0314a61ec" y="295.59025"/>
     <use style="fill:#22cf00;stroke:#22cf00;" x="144" xlink:href="#mf0314a61ec" y="300.391883"/>
     <use style="fill:#22cf00;stroke:#22cf00;" x="144" xlink:href="#mf0314a61ec" y="293.958525"/>
     <use style="fill:#22cf00;stroke:#22cf00;" x="144" xlink:href="#mf0314a61ec" y="299.80661"/>
     <use style="fill:#22cf00;stroke:#22cf00;" x="144" xlink:href="#mf0314a61ec" y="283.477665"/>
     <use style="fill:#22cf00;stroke:#22cf00;" x="144" xlink:href="#mf0314a61ec" y="312.445351"/>
     <use style="fill:#22cf00;stroke:#22cf00;" x="144" xlink:href="#mf0314a61ec" y="279.650001"/>
     <use style="fill:#22cf00;stroke:#22cf00;" x="144" xlink:href="#mf0314a61ec" y="302.728983"/>
     <use style="fill:#22cf00;stroke:#22cf00;" x="144" xlink:href="#mf0314a61ec" y="294.583043"/>
     <use style="fill:#22cf00;stroke:#22cf00;" x="144" xlink:href="#mf0314a61ec" y="298.961906"/>
     <use style="fill:#22cf00;stroke:#22cf00;" x="144" xlink:href="#mf0314a61ec" y="293.891177"/>
     <use style="fill:#22cf00;stroke:#22cf00;" x="144" xlink:href="#mf0314a61ec" y="305.677314"/>
     <use style="fill:#22cf00;stroke:#22cf00;" x="144" xlink:href="#mf0314a61ec" y="305.959114"/>
     <use style="fill:#22cf00;stroke:#22cf00;" x="144" xlink:href="#mf0314a61ec" y="306.116832"/>
     <use style="fill:#22cf00;stroke:#22cf00;" x="144" xlink:href="#mf0314a61ec" y="307.25875"/>
     <use style="fill:#22cf00;stroke:#22cf00;" x="144" xlink:href="#mf0314a61ec" y="303.692946"/>
     <use style="fill:#22cf00;stroke:#22cf00;" x="144" xlink:href="#mf0314a61ec" y="304.262623"/>
     <use style="fill:#22cf00;stroke:#22cf00;" x="144" xlink:href="#mf0314a61ec" y="298.132186"/>
     <use style="fill:#22cf00;stroke:#22cf00;" x="144" xlink:href="#mf0314a61ec" y="286.894778"/>
     <use style="fill:#22cf00;stroke:#22cf00;" x="144" xlink:href="#mf0314a61ec" y="311.225524"/>
     <use style="fill:#22cf00;stroke:#22cf00;" x="144" xlink:href="#mf0314a61ec" y="281.587696"/>
     <use style="fill:#22cf00;stroke:#22cf00;" x="144" xlink:href="#mf0314a61ec" y="301.470036"/>
     <use style="fill:#22cf00;stroke:#22cf00;" x="144" xlink:href="#mf0314a61ec" y="297.35822"/>
     <use style="fill:#22cf00;stroke:#22cf00;" x="144" xlink:href="#mf0314a61ec" y="298.465941"/>
     <use style="fill:#22cf00;stroke:#22cf00;" x="144" xlink:href="#mf0314a61ec" y="288.208783"/>
     <use style="fill:#22cf00;stroke:#22cf00;" x="144" xlink:href="#mf0314a61ec" y="313.014436"/>
     <use style="fill:#22cf00;stroke:#22cf00;" x="144" xlink:href="#mf0314a61ec" y="280.753359"/>
     <use style="fill:#22cf00;stroke:#22cf00;" x="144" xlink:href="#mf0314a61ec" y="303.120531"/>
     <use style="fill:#22cf00;stroke:#22cf00;" x="144" xlink:href="#mf0314a61ec" y="300.97172"/>
     <use style="fill:#22cf00;stroke:#22cf00;" x="144" xlink:href="#mf0314a61ec" y="272.161049"/>
     <use style="fill:#22cf00;stroke:#22cf00;" x="144" xlink:href="#mf0314a61ec" y="259.37779"/>
     <use style="fill:#22cf00;stroke:#22cf00;" x="144" xlink:href="#mf0314a61ec" y="253.775331"/>
     <use style="fill:#22cf00;stroke:#22cf00;" x="144" xlink:href="#mf0314a61ec" y="286.026248"/>
     <use style="fill:#22cf00;stroke:#22cf00;" x="144" xlink:href="#mf0314a61ec" y="272.578311"/>
     <use style="fill:#22cf00;stroke:#22cf00;" x="144" xlink:href="#mf0314a61ec" y="266.54355"/>
     <use style="fill:#22cf00;stroke:#22cf00;" x="144" xlink:href="#mf0314a61ec" y="288.985911"/>
     <use style="fill:#22cf00;stroke:#22cf00;" x="144" xlink:href="#mf0314a61ec" y="287.180748"/>
     <use style="fill:#22cf00;stroke:#22cf00;" x="144" xlink:href="#mf0314a61ec" y="290.305361"/>
     <use style="fill:#22cf00;stroke:#22cf00;" x="144" xlink:href="#mf0314a61ec" y="289.549166"/>
     <use style="fill:#22cf00;stroke:#22cf00;" x="144" xlink:href="#mf0314a61ec" y="287.287893"/>
     <use style="fill:#22cf00;stroke:#22cf00;" x="144" xlink:href="#mf0314a61ec" y="283.136604"/>
     <use style="fill:#22cf00;stroke:#22cf00;" x="144" xlink:href="#mf0314a61ec" y="296.597479"/>
     <use style="fill:#22cf00;stroke:#22cf00;" x="144" xlink:href="#mf0314a61ec" y="299.71629"/>
     <use style="fill:#22cf00;stroke:#22cf00;" x="144" xlink:href="#mf0314a61ec" y="273.906033"/>
     <use style="fill:#22cf00;stroke:#22cf00;" x="144" xlink:href="#mf0314a61ec" y="292.469332"/>
     <use style="fill:#22cf00;stroke:#22cf00;" x="144" xlink:href="#mf0314a61ec" y="261.67707"/>
     <use style="fill:#22cf00;stroke:#22cf00;" x="144" xlink:href="#mf0314a61ec" y="285.105735"/>
     <use style="fill:#22cf00;stroke:#22cf00;" x="144" xlink:href="#mf0314a61ec" y="296.858715"/>
     <use style="fill:#22cf00;stroke:#22cf00;" x="144" xlink:href="#mf0314a61ec" y="290.21334"/>
     <use style="fill:#22cf00;stroke:#22cf00;" x="144" xlink:href="#mf0314a61ec" y="282.141394"/>
     <use style="fill:#22cf00;stroke:#22cf00;" x="144" xlink:href="#mf0314a61ec" y="296.912243"/>
     <use style="fill:#22cf00;stroke:#22cf00;" x="144" xlink:href="#mf0314a61ec" y="280.422437"/>
     <use style="fill:#22cf00;stroke:#22cf00;" x="144" xlink:href="#mf0314a61ec" y="291.406537"/>
     <use style="fill:#22cf00;stroke:#22cf00;" x="144" xlink:href="#mf0314a61ec" y="293.9143"/>
     <use style="fill:#22cf00;stroke:#22cf00;" x="144" xlink:href="#mf0314a61ec" y="295.567485"/>
     <use style="fill:#22cf00;stroke:#22cf00;" x="144" xlink:href="#mf0314a61ec" y="292.552532"/>
     <use style="fill:#22cf00;stroke:#22cf00;" x="144" xlink:href="#mf0314a61ec" y="292.937382"/>
     <use style="fill:#22cf00;stroke:#22cf00;" x="144" xlink:href="#mf0314a61ec" y="292.011106"/>
     <use style="fill:#22cf00;stroke:#22cf00;" x="144" xlink:href="#mf0314a61ec" y="287.719945"/>
     <use style="fill:#22cf00;stroke:#22cf00;" x="144" xlink:href="#mf0314a61ec" y="277.704424"/>
     <use style="fill:#22cf00;stroke:#22cf00;" x="144" xlink:href="#mf0314a61ec" y="294.519798"/>
     <use style="fill:#22cf00;stroke:#22cf00;" x="144" xlink:href="#mf0314a61ec" y="279.243853"/>
     <use style="fill:#22cf00;stroke:#22cf00;" x="144" xlink:href="#mf0314a61ec" y="296.000523"/>
     <use style="fill:#22cf00;stroke:#22cf00;" x="144" xlink:href="#mf0314a61ec" y="276.244192"/>
     <use style="fill:#22cf00;stroke:#22cf00;" x="144" xlink:href="#mf0314a61ec" y="293.295922"/>
     <use style="fill:#22cf00;stroke:#22cf00;" x="144" xlink:href="#mf0314a61ec" y="279.939843"/>
     <use style="fill:#22cf00;stroke:#22cf00;" x="144" xlink:href="#mf0314a61ec" y="289.886694"/>
     <use style="fill:#22cf00;stroke:#22cf00;" x="144" xlink:href="#mf0314a61ec" y="279.892399"/>
     <use style="fill:#22cf00;stroke:#22cf00;" x="144" xlink:href="#mf0314a61ec" y="293.252691"/>
     <use style="fill:#22cf00;stroke:#22cf00;" x="144" xlink:href="#mf0314a61ec" y="279.473421"/>
     <use style="fill:#22cf00;stroke:#22cf00;" x="144" xlink:href="#mf0314a61ec" y="299.473785"/>
    </g>
   </g>
   <g id="patch_3">
    <path clip-path="url(#pf47e780bb0)" d="M 39.272727 324 
L 248.727273 324 
L 248.727273 290.795775 
L 39.272727 290.795775 
z
" style="fill:#22cf00;opacity:0.4;"/>
   </g>
   <g id="matplotlib.axis_1">
    <g id="xtick_1">
     <g id="line2d_1">
      <defs>
       <path d="M 0 0 
L 0 3.5 
" id="m59c4af72ed" style="stroke:#000000;stroke-width:0.8;"/>
      </defs>
      <g>
       <use style="stroke:#000000;stroke-width:0.8;" x="60.218182" xlink:href="#m59c4af72ed" y="324"/>
      </g>
     </g>
     <g id="text_1">
      <!-- 0.96 -->
      <defs>
       <path d="M 31.78125 66.40625 
Q 24.171875 66.40625 20.328125 58.90625 
Q 16.5 51.421875 16.5 36.375 
Q 16.5 21.390625 20.328125 13.890625 
Q 24.171875 6.390625 31.78125 6.390625 
Q 39.453125 6.390625 43.28125 13.890625 
Q 47.125 21.390625 47.125 36.375 
Q 47.125 51.421875 43.28125 58.90625 
Q 39.453125 66.40625 31.78125 66.40625 
z
M 31.78125 74.21875 
Q 44.046875 74.21875 50.515625 64.515625 
Q 56.984375 54.828125 56.984375 36.375 
Q 56.984375 17.96875 50.515625 8.265625 
Q 44.046875 -1.421875 31.78125 -1.421875 
Q 19.53125 -1.421875 13.0625 8.265625 
Q 6.59375 17.96875 6.59375 36.375 
Q 6.59375 54.828125 13.0625 64.515625 
Q 19.53125 74.21875 31.78125 74.21875 
z
" id="DejaVuSans-48"/>
       <path d="M 10.6875 12.40625 
L 21 12.40625 
L 21 0 
L 10.6875 0 
z
" id="DejaVuSans-46"/>
       <path d="M 10.984375 1.515625 
L 10.984375 10.5 
Q 14.703125 8.734375 18.5 7.8125 
Q 22.3125 6.890625 25.984375 6.890625 
Q 35.75 6.890625 40.890625 13.453125 
Q 46.046875 20.015625 46.78125 33.40625 
Q 43.953125 29.203125 39.59375 26.953125 
Q 35.25 24.703125 29.984375 24.703125 
Q 19.046875 24.703125 12.671875 31.3125 
Q 6.296875 37.9375 6.296875 49.421875 
Q 6.296875 60.640625 12.9375 67.421875 
Q 19.578125 74.21875 30.609375 74.21875 
Q 43.265625 74.21875 49.921875 64.515625 
Q 56.59375 54.828125 56.59375 36.375 
Q 56.59375 19.140625 48.40625 8.859375 
Q 40.234375 -1.421875 26.421875 -1.421875 
Q 22.703125 -1.421875 18.890625 -0.6875 
Q 15.09375 0.046875 10.984375 1.515625 
z
M 30.609375 32.421875 
Q 37.25 32.421875 41.125 36.953125 
Q 45.015625 41.5 45.015625 49.421875 
Q 45.015625 57.28125 41.125 61.84375 
Q 37.25 66.40625 30.609375 66.40625 
Q 23.96875 66.40625 20.09375 61.84375 
Q 16.21875 57.28125 16.21875 49.421875 
Q 16.21875 41.5 20.09375 36.953125 
Q 23.96875 32.421875 30.609375 32.421875 
z
" id="DejaVuSans-57"/>
       <path d="M 33.015625 40.375 
Q 26.375 40.375 22.484375 35.828125 
Q 18.609375 31.296875 18.609375 23.390625 
Q 18.609375 15.53125 22.484375 10.953125 
Q 26.375 6.390625 33.015625 6.390625 
Q 39.65625 6.390625 43.53125 10.953125 
Q 47.40625 15.53125 47.40625 23.390625 
Q 47.40625 31.296875 43.53125 35.828125 
Q 39.65625 40.375 33.015625 40.375 
z
M 52.59375 71.296875 
L 52.59375 62.3125 
Q 48.875 64.0625 45.09375 64.984375 
Q 41.3125 65.921875 37.59375 65.921875 
Q 27.828125 65.921875 22.671875 59.328125 
Q 17.53125 52.734375 16.796875 39.40625 
Q 19.671875 43.65625 24.015625 45.921875 
Q 28.375 48.1875 33.59375 48.1875 
Q 44.578125 48.1875 50.953125 41.515625 
Q 57.328125 34.859375 57.328125 23.390625 
Q 57.328125 12.15625 50.6875 5.359375 
Q 44.046875 -1.421875 33.015625 -1.421875 
Q 20.359375 -1.421875 13.671875 8.265625 
Q 6.984375 17.96875 6.984375 36.375 
Q 6.984375 53.65625 15.1875 63.9375 
Q 23.390625 74.21875 37.203125 74.21875 
Q 40.921875 74.21875 44.703125 73.484375 
Q 48.484375 72.75 52.59375 71.296875 
z
" id="DejaVuSans-54"/>
      </defs>
      <g transform="translate(49.085369 338.598437)scale(0.1 -0.1)">
       <use xlink:href="#DejaVuSans-48"/>
       <use x="63.623047" xlink:href="#DejaVuSans-46"/>
       <use x="95.410156" xlink:href="#DejaVuSans-57"/>
       <use x="159.033203" xlink:href="#DejaVuSans-54"/>
      </g>
     </g>
    </g>
    <g id="xtick_2">
     <g id="line2d_2">
      <g>
       <use style="stroke:#000000;stroke-width:0.8;" x="102.109091" xlink:href="#m59c4af72ed" y="324"/>
      </g>
     </g>
     <g id="text_2">
      <!-- 0.98 -->
      <defs>
       <path d="M 31.78125 34.625 
Q 24.75 34.625 20.71875 30.859375 
Q 16.703125 27.09375 16.703125 20.515625 
Q 16.703125 13.921875 20.71875 10.15625 
Q 24.75 6.390625 31.78125 6.390625 
Q 38.8125 6.390625 42.859375 10.171875 
Q 46.921875 13.96875 46.921875 20.515625 
Q 46.921875 27.09375 42.890625 30.859375 
Q 38.875 34.625 31.78125 34.625 
z
M 21.921875 38.8125 
Q 15.578125 40.375 12.03125 44.71875 
Q 8.5 49.078125 8.5 55.328125 
Q 8.5 64.0625 14.71875 69.140625 
Q 20.953125 74.21875 31.78125 74.21875 
Q 42.671875 74.21875 48.875 69.140625 
Q 55.078125 64.0625 55.078125 55.328125 
Q 55.078125 49.078125 51.53125 44.71875 
Q 48 40.375 41.703125 38.8125 
Q 48.828125 37.15625 52.796875 32.3125 
Q 56.78125 27.484375 56.78125 20.515625 
Q 56.78125 9.90625 50.3125 4.234375 
Q 43.84375 -1.421875 31.78125 -1.421875 
Q 19.734375 -1.421875 13.25 4.234375 
Q 6.78125 9.90625 6.78125 20.515625 
Q 6.78125 27.484375 10.78125 32.3125 
Q 14.796875 37.15625 21.921875 38.8125 
z
M 18.3125 54.390625 
Q 18.3125 48.734375 21.84375 45.5625 
Q 25.390625 42.390625 31.78125 42.390625 
Q 38.140625 42.390625 41.71875 45.5625 
Q 45.3125 48.734375 45.3125 54.390625 
Q 45.3125 60.0625 41.71875 63.234375 
Q 38.140625 66.40625 31.78125 66.40625 
Q 25.390625 66.40625 21.84375 63.234375 
Q 18.3125 60.0625 18.3125 54.390625 
z
" id="DejaVuSans-56"/>
      </defs>
      <g transform="translate(90.976278 338.598437)scale(0.1 -0.1)">
       <use xlink:href="#DejaVuSans-48"/>
       <use x="63.623047" xlink:href="#DejaVuSans-46"/>
       <use x="95.410156" xlink:href="#DejaVuSans-57"/>
       <use x="159.033203" xlink:href="#DejaVuSans-56"/>
      </g>
     </g>
    </g>
    <g id="xtick_3">
     <g id="line2d_3">
      <g>
       <use style="stroke:#000000;stroke-width:0.8;" x="144" xlink:href="#m59c4af72ed" y="324"/>
      </g>
     </g>
     <g id="text_3">
      <!-- 1.00 -->
      <defs>
       <path d="M 12.40625 8.296875 
L 28.515625 8.296875 
L 28.515625 63.921875 
L 10.984375 60.40625 
L 10.984375 69.390625 
L 28.421875 72.90625 
L 38.28125 72.90625 
L 38.28125 8.296875 
L 54.390625 8.296875 
L 54.390625 0 
L 12.40625 0 
z
" id="DejaVuSans-49"/>
      </defs>
      <g transform="translate(132.867188 338.598437)scale(0.1 -0.1)">
       <use xlink:href="#DejaVuSans-49"/>
       <use x="63.623047" xlink:href="#DejaVuSans-46"/>
       <use x="95.410156" xlink:href="#DejaVuSans-48"/>
       <use x="159.033203" xlink:href="#DejaVuSans-48"/>
      </g>
     </g>
    </g>
    <g id="xtick_4">
     <g id="line2d_4">
      <g>
       <use style="stroke:#000000;stroke-width:0.8;" x="185.890909" xlink:href="#m59c4af72ed" y="324"/>
      </g>
     </g>
     <g id="text_4">
      <!-- 1.02 -->
      <defs>
       <path d="M 19.1875 8.296875 
L 53.609375 8.296875 
L 53.609375 0 
L 7.328125 0 
L 7.328125 8.296875 
Q 12.9375 14.109375 22.625 23.890625 
Q 32.328125 33.6875 34.8125 36.53125 
Q 39.546875 41.84375 41.421875 45.53125 
Q 43.3125 49.21875 43.3125 52.78125 
Q 43.3125 58.59375 39.234375 62.25 
Q 35.15625 65.921875 28.609375 65.921875 
Q 23.96875 65.921875 18.8125 64.3125 
Q 13.671875 62.703125 7.8125 59.421875 
L 7.8125 69.390625 
Q 13.765625 71.78125 18.9375 73 
Q 24.125 74.21875 28.421875 74.21875 
Q 39.75 74.21875 46.484375 68.546875 
Q 53.21875 62.890625 53.21875 53.421875 
Q 53.21875 48.921875 51.53125 44.890625 
Q 49.859375 40.875 45.40625 35.40625 
Q 44.1875 33.984375 37.640625 27.21875 
Q 31.109375 20.453125 19.1875 8.296875 
z
" id="DejaVuSans-50"/>
      </defs>
      <g transform="translate(174.758097 338.598437)scale(0.1 -0.1)">
       <use xlink:href="#DejaVuSans-49"/>
       <use x="63.623047" xlink:href="#DejaVuSans-46"/>
       <use x="95.410156" xlink:href="#DejaVuSans-48"/>
       <use x="159.033203" xlink:href="#DejaVuSans-50"/>
      </g>
     </g>
    </g>
    <g id="xtick_5">
     <g id="line2d_5">
      <g>
       <use style="stroke:#000000;stroke-width:0.8;" x="227.781818" xlink:href="#m59c4af72ed" y="324"/>
      </g>
     </g>
     <g id="text_5">
      <!-- 1.04 -->
      <defs>
       <path d="M 37.796875 64.3125 
L 12.890625 25.390625 
L 37.796875 25.390625 
z
M 35.203125 72.90625 
L 47.609375 72.90625 
L 47.609375 25.390625 
L 58.015625 25.390625 
L 58.015625 17.1875 
L 47.609375 17.1875 
L 47.609375 0 
L 37.796875 0 
L 37.796875 17.1875 
L 4.890625 17.1875 
L 4.890625 26.703125 
z
" id="DejaVuSans-52"/>
      </defs>
      <g transform="translate(216.649006 338.598437)scale(0.1 -0.1)">
       <use xlink:href="#DejaVuSans-49"/>
       <use x="63.623047" xlink:href="#DejaVuSans-46"/>
       <use x="95.410156" xlink:href="#DejaVuSans-48"/>
       <use x="159.033203" xlink:href="#DejaVuSans-52"/>
      </g>
     </g>
    </g>
   </g>
   <g id="matplotlib.axis_2">
    <g id="ytick_1">
     <g id="line2d_6">
      <defs>
       <path d="M 0 0 
L -3.5 0 
" id="m91ceca8ccd" style="stroke:#000000;stroke-width:0.8;"/>
      </defs>
      <g>
       <use style="stroke:#000000;stroke-width:0.8;" x="28.8" xlink:href="#m91ceca8ccd" y="324"/>
      </g>
     </g>
     <g id="text_6">
      <!-- 0.0 -->
      <g transform="translate(5.896875 327.799219)scale(0.1 -0.1)">
       <use xlink:href="#DejaVuSans-48"/>
       <use x="63.623047" xlink:href="#DejaVuSans-46"/>
       <use x="95.410156" xlink:href="#DejaVuSans-48"/>
      </g>
     </g>
    </g>
    <g id="ytick_2">
     <g id="line2d_7">
      <g>
       <use style="stroke:#000000;stroke-width:0.8;" x="28.8" xlink:href="#m91ceca8ccd" y="279.56752"/>
      </g>
     </g>
     <g id="text_7">
      <!-- 0.5 -->
      <defs>
       <path d="M 10.796875 72.90625 
L 49.515625 72.90625 
L 49.515625 64.59375 
L 19.828125 64.59375 
L 19.828125 46.734375 
Q 21.96875 47.46875 24.109375 47.828125 
Q 26.265625 48.1875 28.421875 48.1875 
Q 40.625 48.1875 47.75 41.5 
Q 54.890625 34.8125 54.890625 23.390625 
Q 54.890625 11.625 47.5625 5.09375 
Q 40.234375 -1.421875 26.90625 -1.421875 
Q 22.3125 -1.421875 17.546875 -0.640625 
Q 12.796875 0.140625 7.71875 1.703125 
L 7.71875 11.625 
Q 12.109375 9.234375 16.796875 8.0625 
Q 21.484375 6.890625 26.703125 6.890625 
Q 35.15625 6.890625 40.078125 11.328125 
Q 45.015625 15.765625 45.015625 23.390625 
Q 45.015625 31 40.078125 35.4375 
Q 35.15625 39.890625 26.703125 39.890625 
Q 22.75 39.890625 18.8125 39.015625 
Q 14.890625 38.140625 10.796875 36.28125 
z
" id="DejaVuSans-53"/>
      </defs>
      <g transform="translate(5.896875 283.366738)scale(0.1 -0.1)">
       <use xlink:href="#DejaVuSans-48"/>
       <use x="63.623047" xlink:href="#DejaVuSans-46"/>
       <use x="95.410156" xlink:href="#DejaVuSans-53"/>
      </g>
     </g>
    </g>
    <g id="ytick_3">
     <g id="line2d_8">
      <g>
       <use style="stroke:#000000;stroke-width:0.8;" x="28.8" xlink:href="#m91ceca8ccd" y="235.135039"/>
      </g>
     </g>
     <g id="text_8">
      <!-- 1.0 -->
      <g transform="translate(5.896875 238.934258)scale(0.1 -0.1)">
       <use xlink:href="#DejaVuSans-49"/>
       <use x="63.623047" xlink:href="#DejaVuSans-46"/>
       <use x="95.410156" xlink:href="#DejaVuSans-48"/>
      </g>
     </g>
    </g>
    <g id="ytick_4">
     <g id="line2d_9">
      <g>
       <use style="stroke:#000000;stroke-width:0.8;" x="28.8" xlink:href="#m91ceca8ccd" y="190.702559"/>
      </g>
     </g>
     <g id="text_9">
      <!-- 1.5 -->
      <g transform="translate(5.896875 194.501777)scale(0.1 -0.1)">
       <use xlink:href="#DejaVuSans-49"/>
       <use x="63.623047" xlink:href="#DejaVuSans-46"/>
       <use x="95.410156" xlink:href="#DejaVuSans-53"/>
      </g>
     </g>
    </g>
    <g id="ytick_5">
     <g id="line2d_10">
      <g>
       <use style="stroke:#000000;stroke-width:0.8;" x="28.8" xlink:href="#m91ceca8ccd" y="146.270078"/>
      </g>
     </g>
     <g id="text_10">
      <!-- 2.0 -->
      <g transform="translate(5.896875 150.069297)scale(0.1 -0.1)">
       <use xlink:href="#DejaVuSans-50"/>
       <use x="63.623047" xlink:href="#DejaVuSans-46"/>
       <use x="95.410156" xlink:href="#DejaVuSans-48"/>
      </g>
     </g>
    </g>
    <g id="ytick_6">
     <g id="line2d_11">
      <g>
       <use style="stroke:#000000;stroke-width:0.8;" x="28.8" xlink:href="#m91ceca8ccd" y="101.837598"/>
      </g>
     </g>
     <g id="text_11">
      <!-- 2.5 -->
      <g transform="translate(5.896875 105.636817)scale(0.1 -0.1)">
       <use xlink:href="#DejaVuSans-50"/>
       <use x="63.623047" xlink:href="#DejaVuSans-46"/>
       <use x="95.410156" xlink:href="#DejaVuSans-53"/>
      </g>
     </g>
    </g>
    <g id="ytick_7">
     <g id="line2d_12">
      <g>
       <use style="stroke:#000000;stroke-width:0.8;" x="28.8" xlink:href="#m91ceca8ccd" y="57.405117"/>
      </g>
     </g>
     <g id="text_12">
      <!-- 3.0 -->
      <defs>
       <path d="M 40.578125 39.3125 
Q 47.65625 37.796875 51.625 33 
Q 55.609375 28.21875 55.609375 21.1875 
Q 55.609375 10.40625 48.1875 4.484375 
Q 40.765625 -1.421875 27.09375 -1.421875 
Q 22.515625 -1.421875 17.65625 -0.515625 
Q 12.796875 0.390625 7.625 2.203125 
L 7.625 11.71875 
Q 11.71875 9.328125 16.59375 8.109375 
Q 21.484375 6.890625 26.8125 6.890625 
Q 36.078125 6.890625 40.9375 10.546875 
Q 45.796875 14.203125 45.796875 21.1875 
Q 45.796875 27.640625 41.28125 31.265625 
Q 36.765625 34.90625 28.71875 34.90625 
L 20.21875 34.90625 
L 20.21875 43.015625 
L 29.109375 43.015625 
Q 36.375 43.015625 40.234375 45.921875 
Q 44.09375 48.828125 44.09375 54.296875 
Q 44.09375 59.90625 40.109375 62.90625 
Q 36.140625 65.921875 28.71875 65.921875 
Q 24.65625 65.921875 20.015625 65.03125 
Q 15.375 64.15625 9.8125 62.3125 
L 9.8125 71.09375 
Q 15.4375 72.65625 20.34375 73.4375 
Q 25.25 74.21875 29.59375 74.21875 
Q 40.828125 74.21875 47.359375 69.109375 
Q 53.90625 64.015625 53.90625 55.328125 
Q 53.90625 49.265625 50.4375 45.09375 
Q 46.96875 40.921875 40.578125 39.3125 
z
" id="DejaVuSans-51"/>
      </defs>
      <g transform="translate(5.896875 61.204336)scale(0.1 -0.1)">
       <use xlink:href="#DejaVuSans-51"/>
       <use x="63.623047" xlink:href="#DejaVuSans-46"/>
       <use x="95.410156" xlink:href="#DejaVuSans-48"/>
      </g>
     </g>
    </g>
    <g id="text_13">
     <!-- $Average \; \; \Delta \pi(a \mid s) \; \; over \; \; states$ -->
     <defs>
      <path d="M 36.8125 72.90625 
L 48 72.90625 
L 61.53125 0 
L 51.21875 0 
L 48.1875 18.703125 
L 15.375 18.703125 
L 5.078125 0 
L -5.328125 0 
z
M 40.375 63.1875 
L 19.921875 26.90625 
L 46.6875 26.90625 
z
" id="DejaVuSans-Oblique-65"/>
      <path d="M 7.171875 54.6875 
L 16.703125 54.6875 
L 24.703125 8.203125 
L 50.875 54.6875 
L 60.40625 54.6875 
L 29.296875 0 
L 17.1875 0 
z
" id="DejaVuSans-Oblique-118"/>
      <path d="M 48.09375 32.234375 
Q 48.25 33.015625 48.3125 33.84375 
Q 48.390625 34.671875 48.390625 35.5 
Q 48.390625 41.453125 44.890625 44.921875 
Q 41.40625 48.390625 35.40625 48.390625 
Q 28.71875 48.390625 23.578125 44.15625 
Q 18.453125 39.9375 15.828125 32.171875 
z
M 55.90625 25.203125 
L 14.109375 25.203125 
Q 13.8125 23.34375 13.71875 22.265625 
Q 13.625 21.1875 13.625 20.40625 
Q 13.625 13.625 17.796875 9.90625 
Q 21.96875 6.203125 29.59375 6.203125 
Q 35.453125 6.203125 40.671875 7.515625 
Q 45.90625 8.84375 50.390625 11.375 
L 48.6875 2.484375 
Q 43.84375 0.53125 38.6875 -0.4375 
Q 33.546875 -1.421875 28.21875 -1.421875 
Q 16.84375 -1.421875 10.71875 4.015625 
Q 4.59375 9.46875 4.59375 19.484375 
Q 4.59375 28.03125 7.640625 35.375 
Q 10.6875 42.71875 16.609375 48.484375 
Q 20.40625 52.09375 25.65625 54.046875 
Q 30.90625 56 36.8125 56 
Q 46.09375 56 51.578125 50.4375 
Q 57.078125 44.875 57.078125 35.5 
Q 57.078125 33.25 56.78125 30.6875 
Q 56.5 28.125 55.90625 25.203125 
z
" id="DejaVuSans-Oblique-101"/>
      <path d="M 44.578125 46.390625 
Q 43.21875 47.125 41.453125 47.515625 
Q 39.703125 47.90625 37.703125 47.90625 
Q 30.515625 47.90625 25.140625 42.453125 
Q 19.78125 37.015625 18.015625 27.875 
L 12.5 0 
L 3.515625 0 
L 14.203125 54.6875 
L 23.1875 54.6875 
L 21.484375 46.1875 
Q 25.046875 50.921875 30 53.453125 
Q 34.96875 56 40.578125 56 
Q 42.046875 56 43.453125 55.828125 
Q 44.875 55.671875 46.296875 55.28125 
z
" id="DejaVuSans-Oblique-114"/>
      <path d="M 53.71875 31.203125 
L 47.609375 0 
L 38.625 0 
L 40.28125 8.296875 
Q 36.328125 3.421875 31.265625 1 
Q 26.21875 -1.421875 20.015625 -1.421875 
Q 13.03125 -1.421875 8.5625 2.84375 
Q 4.109375 7.125 4.109375 13.8125 
Q 4.109375 23.390625 11.75 28.953125 
Q 19.390625 34.515625 32.8125 34.515625 
L 45.3125 34.515625 
L 45.796875 36.921875 
Q 45.90625 37.3125 45.953125 37.765625 
Q 46 38.234375 46 39.203125 
Q 46 43.5625 42.453125 45.96875 
Q 38.921875 48.390625 32.515625 48.390625 
Q 28.125 48.390625 23.5 47.265625 
Q 18.890625 46.140625 14.015625 43.890625 
L 15.578125 52.203125 
Q 20.65625 54.109375 25.515625 55.046875 
Q 30.375 56 34.90625 56 
Q 44.578125 56 49.625 51.796875 
Q 54.6875 47.609375 54.6875 39.59375 
Q 54.6875 37.984375 54.4375 35.8125 
Q 54.203125 33.640625 53.71875 31.203125 
z
M 44 27.484375 
L 35.015625 27.484375 
Q 23.96875 27.484375 18.671875 24.53125 
Q 13.375 21.578125 13.375 15.375 
Q 13.375 11.078125 16.078125 8.640625 
Q 18.796875 6.203125 23.578125 6.203125 
Q 30.90625 6.203125 36.375 11.453125 
Q 41.84375 16.703125 43.609375 25.484375 
z
" id="DejaVuSans-Oblique-97"/>
      <path d="M 59.625 54.6875 
L 50.296875 6.78125 
Q 47.609375 -7.125 40.015625 -13.953125 
Q 32.421875 -20.796875 19.578125 -20.796875 
Q 14.84375 -20.796875 10.78125 -20.09375 
Q 6.734375 -19.390625 3.21875 -17.921875 
L 4.890625 -9.1875 
Q 8.203125 -11.328125 11.90625 -12.34375 
Q 15.625 -13.375 19.828125 -13.375 
Q 28.375 -13.375 33.859375 -8.703125 
Q 39.359375 -4.046875 41.109375 4.6875 
L 41.890625 8.796875 
Q 38.140625 4.5 33.15625 2.25 
Q 28.171875 0 22.40625 0 
Q 14.109375 0 9.34375 5.484375 
Q 4.59375 10.984375 4.59375 20.609375 
Q 4.59375 28.171875 7.46875 35.421875 
Q 10.359375 42.671875 15.578125 48.296875 
Q 19.046875 52 23.65625 54 
Q 28.265625 56 33.296875 56 
Q 38.8125 56 42.90625 53.4375 
Q 47.015625 50.875 49.03125 46.1875 
L 50.59375 54.6875 
z
M 46.09375 34.625 
Q 46.09375 41.265625 42.96875 44.875 
Q 39.84375 48.484375 34.078125 48.484375 
Q 30.515625 48.484375 27.296875 47.0625 
Q 24.078125 45.65625 21.78125 43.109375 
Q 18.0625 38.921875 15.984375 33.234375 
Q 13.921875 27.546875 13.921875 21.484375 
Q 13.921875 14.75 17.0625 11.125 
Q 20.21875 7.515625 26.125 7.515625 
Q 34.671875 7.515625 40.375 15.25 
Q 46.09375 23 46.09375 34.625 
z
" id="DejaVuSans-Oblique-103"/>
      <path d="M 34.1875 63.1875 
L 14.15625 8.203125 
L 54.25 8.203125 
z
M 0.78125 0 
L 28.609375 72.90625 
L 39.796875 72.90625 
L 67.578125 0 
z
" id="DejaVuSans-916"/>
      <path d="M 9.125 54.6875 
L 61.53125 54.6875 
L 59.765625 45.703125 
L 52.875 45.703125 
L 46.34375 12.109375 
Q 45.65625 8.59375 46.578125 7.03125 
Q 47.46875 5.515625 50.140625 5.515625 
Q 50.875 5.515625 51.953125 5.671875 
Q 53.078125 5.765625 53.421875 5.8125 
L 52.15625 -0.6875 
Q 50.34375 -1.3125 48.484375 -1.609375 
Q 46.578125 -1.90625 44.78125 -1.90625 
Q 38.921875 -1.90625 37.3125 1.265625 
Q 35.6875 4.5 37.359375 13.09375 
L 43.703125 45.703125 
L 23.53125 45.703125 
L 14.65625 0 
L 5.46875 0 
L 14.359375 45.703125 
L 7.375 45.703125 
z
" id="DejaVuSans-Oblique-960"/>
      <path d="M 31 75.875 
Q 24.46875 64.65625 21.28125 53.65625 
Q 18.109375 42.671875 18.109375 31.390625 
Q 18.109375 20.125 21.3125 9.0625 
Q 24.515625 -2 31 -13.1875 
L 23.1875 -13.1875 
Q 15.875 -1.703125 12.234375 9.375 
Q 8.59375 20.453125 8.59375 31.390625 
Q 8.59375 42.28125 12.203125 53.3125 
Q 15.828125 64.359375 23.1875 75.875 
z
" id="DejaVuSans-40"/>
      <path d="M 21.09375 77.09375 
L 28.90625 77.09375 
L 28.90625 -21.390625 
L 21.09375 -21.390625 
z
" id="DejaVuSans-8739"/>
      <path d="M 50 53.078125 
L 48.296875 44.578125 
Q 44.734375 46.53125 40.765625 47.5 
Q 36.8125 48.484375 32.625 48.484375 
Q 25.53125 48.484375 21.453125 46.0625 
Q 17.390625 43.65625 17.390625 39.5 
Q 17.390625 34.671875 26.859375 32.078125 
Q 27.59375 31.890625 27.9375 31.78125 
L 30.8125 30.90625 
Q 39.796875 28.421875 42.796875 25.6875 
Q 45.796875 22.953125 45.796875 18.21875 
Q 45.796875 9.515625 38.890625 4.046875 
Q 31.984375 -1.421875 20.796875 -1.421875 
Q 16.453125 -1.421875 11.671875 -0.578125 
Q 6.890625 0.25 1.125 2 
L 2.875 11.28125 
Q 7.8125 8.734375 12.59375 7.421875 
Q 17.390625 6.109375 21.78125 6.109375 
Q 28.375 6.109375 32.5 8.9375 
Q 36.625 11.765625 36.625 16.109375 
Q 36.625 20.796875 25.78125 23.6875 
L 24.859375 23.921875 
L 21.78125 24.703125 
Q 14.9375 26.515625 11.765625 29.46875 
Q 8.59375 32.421875 8.59375 37.015625 
Q 8.59375 45.75 15.15625 50.875 
Q 21.734375 56 33.015625 56 
Q 37.453125 56 41.671875 55.265625 
Q 45.90625 54.546875 50 53.078125 
z
" id="DejaVuSans-Oblique-115"/>
      <path d="M 8.015625 75.875 
L 15.828125 75.875 
Q 23.140625 64.359375 26.78125 53.3125 
Q 30.421875 42.28125 30.421875 31.390625 
Q 30.421875 20.453125 26.78125 9.375 
Q 23.140625 -1.703125 15.828125 -13.1875 
L 8.015625 -13.1875 
Q 14.5 -2 17.703125 9.0625 
Q 20.90625 20.125 20.90625 31.390625 
Q 20.90625 42.671875 17.703125 53.65625 
Q 14.5 64.65625 8.015625 75.875 
z
" id="DejaVuSans-41"/>
      <path d="M 25.390625 -1.421875 
Q 15.765625 -1.421875 10.171875 4.515625 
Q 4.59375 10.453125 4.59375 20.703125 
Q 4.59375 26.65625 6.515625 32.828125 
Q 8.453125 39.015625 11.53125 43.21875 
Q 16.359375 49.75 22.3125 52.875 
Q 28.265625 56 35.796875 56 
Q 45.125 56 50.859375 50.1875 
Q 56.59375 44.390625 56.59375 35.015625 
Q 56.59375 28.515625 54.6875 22.0625 
Q 52.78125 15.625 49.703125 11.375 
Q 44.921875 4.828125 38.96875 1.703125 
Q 33.015625 -1.421875 25.390625 -1.421875 
z
M 13.921875 21 
Q 13.921875 13.578125 17.015625 9.890625 
Q 20.125 6.203125 26.421875 6.203125 
Q 35.453125 6.203125 41.375 14.078125 
Q 47.3125 21.96875 47.3125 34.078125 
Q 47.3125 41.15625 44.140625 44.765625 
Q 40.96875 48.390625 34.8125 48.390625 
Q 29.734375 48.390625 25.78125 46.015625 
Q 21.828125 43.65625 18.703125 38.8125 
Q 16.40625 35.203125 15.15625 30.5625 
Q 13.921875 25.921875 13.921875 21 
z
" id="DejaVuSans-Oblique-111"/>
      <path d="M 42.28125 54.6875 
L 40.921875 47.703125 
L 23 47.703125 
L 17.1875 18.015625 
Q 16.890625 16.359375 16.75 15.234375 
Q 16.609375 14.109375 16.609375 13.484375 
Q 16.609375 10.359375 18.484375 8.9375 
Q 20.359375 7.515625 24.515625 7.515625 
L 33.59375 7.515625 
L 32.078125 0 
L 23.484375 0 
Q 15.484375 0 11.546875 3.125 
Q 7.625 6.25 7.625 12.59375 
Q 7.625 13.71875 7.765625 15.0625 
Q 7.90625 16.40625 8.203125 18.015625 
L 14.015625 47.703125 
L 6.390625 47.703125 
L 7.8125 54.6875 
L 15.28125 54.6875 
L 18.3125 70.21875 
L 27.296875 70.21875 
L 24.3125 54.6875 
z
" id="DejaVuSans-Oblique-116"/>
     </defs>
     <g transform="translate(-1.183125 286.19)rotate(-90)scale(0.14 -0.14)">
      <use transform="translate(0 0.90625)" xlink:href="#DejaVuSans-Oblique-65"/>
      <use transform="translate(68.408203 0.90625)" xlink:href="#DejaVuSans-Oblique-118"/>
      <use transform="translate(127.587891 0.90625)" xlink:href="#DejaVuSans-Oblique-101"/>
      <use transform="translate(189.111328 0.90625)" xlink:href="#DejaVuSans-Oblique-114"/>
      <use transform="translate(230.224609 0.90625)" xlink:href="#DejaVuSans-Oblique-97"/>
      <use transform="translate(291.503906 0.90625)" xlink:href="#DejaVuSans-Oblique-103"/>
      <use transform="translate(354.980469 0.90625)" xlink:href="#DejaVuSans-Oblique-101"/>
      <use transform="translate(470.622178 0.90625)" xlink:href="#DejaVuSans-916"/>
      <use transform="translate(539.030381 0.90625)" xlink:href="#DejaVuSans-Oblique-960"/>
      <use transform="translate(599.235459 0.90625)" xlink:href="#DejaVuSans-40"/>
      <use transform="translate(638.249131 0.90625)" xlink:href="#DejaVuSans-Oblique-97"/>
      <use transform="translate(719.01085 0.90625)" xlink:href="#DejaVuSans-8739"/>
      <use transform="translate(788.493271 0.90625)" xlink:href="#DejaVuSans-Oblique-115"/>
      <use transform="translate(840.592881 0.90625)" xlink:href="#DejaVuSans-41"/>
      <use transform="translate(933.724824 0.90625)" xlink:href="#DejaVuSans-Oblique-111"/>
      <use transform="translate(994.906465 0.90625)" xlink:href="#DejaVuSans-Oblique-118"/>
      <use transform="translate(1054.086152 0.90625)" xlink:href="#DejaVuSans-Oblique-101"/>
      <use transform="translate(1115.60959 0.90625)" xlink:href="#DejaVuSans-Oblique-114"/>
      <use transform="translate(1210.841143 0.90625)" xlink:href="#DejaVuSans-Oblique-115"/>
      <use transform="translate(1262.940752 0.90625)" xlink:href="#DejaVuSans-Oblique-116"/>
      <use transform="translate(1302.149736 0.90625)" xlink:href="#DejaVuSans-Oblique-97"/>
      <use transform="translate(1363.429033 0.90625)" xlink:href="#DejaVuSans-Oblique-116"/>
      <use transform="translate(1402.638018 0.90625)" xlink:href="#DejaVuSans-Oblique-101"/>
      <use transform="translate(1464.161455 0.90625)" xlink:href="#DejaVuSans-Oblique-115"/>
     </g>
    </g>
   </g>
   <g id="line2d_13">
    <path clip-path="url(#pf47e780bb0)" d="M 28.8 324 
L 259.2 324 
" style="fill:none;stroke:#000000;stroke-linecap:square;stroke-width:1.5;"/>
   </g>
   <g id="patch_4">
    <path d="M 28.8 324 
L 28.8 36 
" style="fill:none;stroke:#000000;stroke-linecap:square;stroke-linejoin:miter;stroke-width:0.8;"/>
   </g>
   <g id="patch_5">
    <path d="M 259.2 324 
L 259.2 36 
" style="fill:none;stroke:#000000;stroke-linecap:square;stroke-linejoin:miter;stroke-width:0.8;"/>
   </g>
   <g id="patch_6">
    <path d="M 28.8 324 
L 259.2 324 
" style="fill:none;stroke:#000000;stroke-linecap:square;stroke-linejoin:miter;stroke-width:0.8;"/>
   </g>
   <g id="patch_7">
    <path d="M 28.8 36 
L 259.2 36 
" style="fill:none;stroke:#000000;stroke-linecap:square;stroke-linejoin:miter;stroke-width:0.8;"/>
   </g>
  </g>
 </g>
 <defs>
  <clipPath id="pf47e780bb0">
   <rect height="288" width="230.4" x="28.8" y="36"/>
  </clipPath>
 </defs>
</svg>
