<?xml version="1.0" encoding="utf-8" standalone="no"?>
<!DOCTYPE svg PUBLIC "-//W3C//DTD SVG 1.1//EN"
  "http://www.w3.org/Graphics/SVG/1.1/DTD/svg11.dtd">
<!-- Created with matplotlib (https://matplotlib.org/) -->
<svg height="360pt" version="1.1" viewBox="0 0 1008 360" width="1008pt" xmlns="http://www.w3.org/2000/svg" xmlns:xlink="http://www.w3.org/1999/xlink">
 <defs>
  <style type="text/css">
*{stroke-linecap:butt;stroke-linejoin:round;}
  </style>
 </defs>
 <g id="figure_1">
  <g id="patch_1">
   <path d="M 0 360 
L 1008 360 
L 1008 0 
L 0 0 
z
" style="fill:none;"/>
  </g>
  <g id="axes_1">
   <g id="patch_2">
    <path d="M 79.675 301.465625 
L 498.6 301.465625 
L 498.6 30.8 
L 79.675 30.8 
z
" style="fill:none;"/>
   </g>
   <g id="matplotlib.axis_1">
    <g id="xtick_1">
     <g id="line2d_1">
      <defs>
       <path d="M 0 0 
L 0 3.5 
" id="m9e9d770a24" style="stroke:#000000;stroke-width:0.8;"/>
      </defs>
      <g>
       <use style="stroke:#000000;stroke-width:0.8;" x="97.494471" xlink:href="#m9e9d770a24" y="301.465625"/>
      </g>
     </g>
     <g id="text_1">
      <!-- −6 -->
      <defs>
       <path d="M 10.59375 35.5 
L 73.1875 35.5 
L 73.1875 27.203125 
L 10.59375 27.203125 
z
" id="DejaVuSans-8722"/>
       <path d="M 33.015625 40.375 
Q 26.375 40.375 22.484375 35.828125 
Q 18.609375 31.296875 18.609375 23.390625 
Q 18.609375 15.53125 22.484375 10.953125 
Q 26.375 6.390625 33.015625 6.390625 
Q 39.65625 6.390625 43.53125 10.953125 
Q 47.40625 15.53125 47.40625 23.390625 
Q 47.40625 31.296875 43.53125 35.828125 
Q 39.65625 40.375 33.015625 40.375 
z
M 52.59375 71.296875 
L 52.59375 62.3125 
Q 48.875 64.0625 45.09375 64.984375 
Q 41.3125 65.921875 37.59375 65.921875 
Q 27.828125 65.921875 22.671875 59.328125 
Q 17.53125 52.734375 16.796875 39.40625 
Q 19.671875 43.65625 24.015625 45.921875 
Q 28.375 48.1875 33.59375 48.1875 
Q 44.578125 48.1875 50.953125 41.515625 
Q 57.328125 34.859375 57.328125 23.390625 
Q 57.328125 12.15625 50.6875 5.359375 
Q 44.046875 -1.421875 33.015625 -1.421875 
Q 20.359375 -1.421875 13.671875 8.265625 
Q 6.984375 17.96875 6.984375 36.375 
Q 6.984375 53.65625 15.1875 63.9375 
Q 23.390625 74.21875 37.203125 74.21875 
Q 40.921875 74.21875 44.703125 73.484375 
Q 48.484375 72.75 52.59375 71.296875 
z
" id="DejaVuSans-54"/>
      </defs>
      <g transform="translate(87.17494 319.103438)scale(0.14 -0.14)">
       <use xlink:href="#DejaVuSans-8722"/>
       <use x="83.789062" xlink:href="#DejaVuSans-54"/>
      </g>
     </g>
    </g>
    <g id="xtick_2">
     <g id="line2d_2">
      <g>
       <use style="stroke:#000000;stroke-width:0.8;" x="163.135343" xlink:href="#m9e9d770a24" y="301.465625"/>
      </g>
     </g>
     <g id="text_2">
      <!-- −5 -->
      <defs>
       <path d="M 10.796875 72.90625 
L 49.515625 72.90625 
L 49.515625 64.59375 
L 19.828125 64.59375 
L 19.828125 46.734375 
Q 21.96875 47.46875 24.109375 47.828125 
Q 26.265625 48.1875 28.421875 48.1875 
Q 40.625 48.1875 47.75 41.5 
Q 54.890625 34.8125 54.890625 23.390625 
Q 54.890625 11.625 47.5625 5.09375 
Q 40.234375 -1.421875 26.90625 -1.421875 
Q 22.3125 -1.421875 17.546875 -0.640625 
Q 12.796875 0.140625 7.71875 1.703125 
L 7.71875 11.625 
Q 12.109375 9.234375 16.796875 8.0625 
Q 21.484375 6.890625 26.703125 6.890625 
Q 35.15625 6.890625 40.078125 11.328125 
Q 45.015625 15.765625 45.015625 23.390625 
Q 45.015625 31 40.078125 35.4375 
Q 35.15625 39.890625 26.703125 39.890625 
Q 22.75 39.890625 18.8125 39.015625 
Q 14.890625 38.140625 10.796875 36.28125 
z
" id="DejaVuSans-53"/>
      </defs>
      <g transform="translate(152.815812 319.103438)scale(0.14 -0.14)">
       <use xlink:href="#DejaVuSans-8722"/>
       <use x="83.789062" xlink:href="#DejaVuSans-53"/>
      </g>
     </g>
    </g>
    <g id="xtick_3">
     <g id="line2d_3">
      <g>
       <use style="stroke:#000000;stroke-width:0.8;" x="228.776215" xlink:href="#m9e9d770a24" y="301.465625"/>
      </g>
     </g>
     <g id="text_3">
      <!-- −4 -->
      <defs>
       <path d="M 37.796875 64.3125 
L 12.890625 25.390625 
L 37.796875 25.390625 
z
M 35.203125 72.90625 
L 47.609375 72.90625 
L 47.609375 25.390625 
L 58.015625 25.390625 
L 58.015625 17.1875 
L 47.609375 17.1875 
L 47.609375 0 
L 37.796875 0 
L 37.796875 17.1875 
L 4.890625 17.1875 
L 4.890625 26.703125 
z
" id="DejaVuSans-52"/>
      </defs>
      <g transform="translate(218.456684 319.103438)scale(0.14 -0.14)">
       <use xlink:href="#DejaVuSans-8722"/>
       <use x="83.789062" xlink:href="#DejaVuSans-52"/>
      </g>
     </g>
    </g>
    <g id="xtick_4">
     <g id="line2d_4">
      <g>
       <use style="stroke:#000000;stroke-width:0.8;" x="294.417088" xlink:href="#m9e9d770a24" y="301.465625"/>
      </g>
     </g>
     <g id="text_4">
      <!-- −3 -->
      <defs>
       <path d="M 40.578125 39.3125 
Q 47.65625 37.796875 51.625 33 
Q 55.609375 28.21875 55.609375 21.1875 
Q 55.609375 10.40625 48.1875 4.484375 
Q 40.765625 -1.421875 27.09375 -1.421875 
Q 22.515625 -1.421875 17.65625 -0.515625 
Q 12.796875 0.390625 7.625 2.203125 
L 7.625 11.71875 
Q 11.71875 9.328125 16.59375 8.109375 
Q 21.484375 6.890625 26.8125 6.890625 
Q 36.078125 6.890625 40.9375 10.546875 
Q 45.796875 14.203125 45.796875 21.1875 
Q 45.796875 27.640625 41.28125 31.265625 
Q 36.765625 34.90625 28.71875 34.90625 
L 20.21875 34.90625 
L 20.21875 43.015625 
L 29.109375 43.015625 
Q 36.375 43.015625 40.234375 45.921875 
Q 44.09375 48.828125 44.09375 54.296875 
Q 44.09375 59.90625 40.109375 62.90625 
Q 36.140625 65.921875 28.71875 65.921875 
Q 24.65625 65.921875 20.015625 65.03125 
Q 15.375 64.15625 9.8125 62.3125 
L 9.8125 71.09375 
Q 15.4375 72.65625 20.34375 73.4375 
Q 25.25 74.21875 29.59375 74.21875 
Q 40.828125 74.21875 47.359375 69.109375 
Q 53.90625 64.015625 53.90625 55.328125 
Q 53.90625 49.265625 50.4375 45.09375 
Q 46.96875 40.921875 40.578125 39.3125 
z
" id="DejaVuSans-51"/>
      </defs>
      <g transform="translate(284.097556 319.103438)scale(0.14 -0.14)">
       <use xlink:href="#DejaVuSans-8722"/>
       <use x="83.789062" xlink:href="#DejaVuSans-51"/>
      </g>
     </g>
    </g>
    <g id="xtick_5">
     <g id="line2d_5">
      <g>
       <use style="stroke:#000000;stroke-width:0.8;" x="360.05796" xlink:href="#m9e9d770a24" y="301.465625"/>
      </g>
     </g>
     <g id="text_5">
      <!-- −2 -->
      <defs>
       <path d="M 19.1875 8.296875 
L 53.609375 8.296875 
L 53.609375 0 
L 7.328125 0 
L 7.328125 8.296875 
Q 12.9375 14.109375 22.625 23.890625 
Q 32.328125 33.6875 34.8125 36.53125 
Q 39.546875 41.84375 41.421875 45.53125 
Q 43.3125 49.21875 43.3125 52.78125 
Q 43.3125 58.59375 39.234375 62.25 
Q 35.15625 65.921875 28.609375 65.921875 
Q 23.96875 65.921875 18.8125 64.3125 
Q 13.671875 62.703125 7.8125 59.421875 
L 7.8125 69.390625 
Q 13.765625 71.78125 18.9375 73 
Q 24.125 74.21875 28.421875 74.21875 
Q 39.75 74.21875 46.484375 68.546875 
Q 53.21875 62.890625 53.21875 53.421875 
Q 53.21875 48.921875 51.53125 44.890625 
Q 49.859375 40.875 45.40625 35.40625 
Q 44.1875 33.984375 37.640625 27.21875 
Q 31.109375 20.453125 19.1875 8.296875 
z
" id="DejaVuSans-50"/>
      </defs>
      <g transform="translate(349.738429 319.103438)scale(0.14 -0.14)">
       <use xlink:href="#DejaVuSans-8722"/>
       <use x="83.789062" xlink:href="#DejaVuSans-50"/>
      </g>
     </g>
    </g>
    <g id="xtick_6">
     <g id="line2d_6">
      <g>
       <use style="stroke:#000000;stroke-width:0.8;" x="425.698832" xlink:href="#m9e9d770a24" y="301.465625"/>
      </g>
     </g>
     <g id="text_6">
      <!-- −1 -->
      <defs>
       <path d="M 12.40625 8.296875 
L 28.515625 8.296875 
L 28.515625 63.921875 
L 10.984375 60.40625 
L 10.984375 69.390625 
L 28.421875 72.90625 
L 38.28125 72.90625 
L 38.28125 8.296875 
L 54.390625 8.296875 
L 54.390625 0 
L 12.40625 0 
z
" id="DejaVuSans-49"/>
      </defs>
      <g transform="translate(415.379301 319.103438)scale(0.14 -0.14)">
       <use xlink:href="#DejaVuSans-8722"/>
       <use x="83.789062" xlink:href="#DejaVuSans-49"/>
      </g>
     </g>
    </g>
    <g id="xtick_7">
     <g id="line2d_7">
      <g>
       <use style="stroke:#000000;stroke-width:0.8;" x="491.339705" xlink:href="#m9e9d770a24" y="301.465625"/>
      </g>
     </g>
     <g id="text_7">
      <!-- 0 -->
      <defs>
       <path d="M 31.78125 66.40625 
Q 24.171875 66.40625 20.328125 58.90625 
Q 16.5 51.421875 16.5 36.375 
Q 16.5 21.390625 20.328125 13.890625 
Q 24.171875 6.390625 31.78125 6.390625 
Q 39.453125 6.390625 43.28125 13.890625 
Q 47.125 21.390625 47.125 36.375 
Q 47.125 51.421875 43.28125 58.90625 
Q 39.453125 66.40625 31.78125 66.40625 
z
M 31.78125 74.21875 
Q 44.046875 74.21875 50.515625 64.515625 
Q 56.984375 54.828125 56.984375 36.375 
Q 56.984375 17.96875 50.515625 8.265625 
Q 44.046875 -1.421875 31.78125 -1.421875 
Q 19.53125 -1.421875 13.0625 8.265625 
Q 6.59375 17.96875 6.59375 36.375 
Q 6.59375 54.828125 13.0625 64.515625 
Q 19.53125 74.21875 31.78125 74.21875 
z
" id="DejaVuSans-48"/>
      </defs>
      <g transform="translate(486.885955 319.103438)scale(0.14 -0.14)">
       <use xlink:href="#DejaVuSans-48"/>
      </g>
     </g>
    </g>
    <g id="text_8">
     <!-- $Q^{MF}-\widehat{Q}^{MB}$ -->
     <defs>
      <path d="M 36.078125 -1.3125 
Q 35.546875 -1.375 34.953125 -1.390625 
Q 34.375 -1.421875 33.203125 -1.421875 
Q 19.53125 -1.421875 11.8125 6.421875 
Q 4.109375 14.265625 4.109375 28.078125 
Q 4.109375 36.234375 7.0625 44.4375 
Q 10.015625 52.640625 15.28125 59.1875 
Q 21.390625 66.703125 29.03125 70.453125 
Q 36.671875 74.21875 45.90625 74.21875 
Q 59.28125 74.21875 66.984375 66.328125 
Q 74.703125 58.453125 74.703125 44.828125 
Q 74.703125 30.125 66.640625 17.921875 
Q 58.59375 5.71875 45.609375 0.6875 
L 55.515625 -12.890625 
L 44.484375 -12.890625 
z
M 45.609375 66.21875 
Q 37.5 66.21875 31.296875 62.28125 
Q 25.09375 58.34375 20.515625 50.296875 
Q 17.578125 45.171875 16.03125 39.40625 
Q 14.5 33.640625 14.5 27.78125 
Q 14.5 17.625 19.359375 12.109375 
Q 24.21875 6.59375 33.109375 6.59375 
Q 41.109375 6.59375 47.375 10.5625 
Q 53.65625 14.546875 58.109375 22.40625 
Q 61.078125 27.6875 62.640625 33.46875 
Q 64.203125 39.265625 64.203125 45.015625 
Q 64.203125 55.125 59.3125 60.671875 
Q 54.4375 66.21875 45.609375 66.21875 
z
" id="DejaVuSans-Oblique-81"/>
      <path d="M 16.890625 72.90625 
L 31.6875 72.90625 
L 40.1875 23.78125 
L 68.40625 72.90625 
L 83.59375 72.90625 
L 69.390625 0 
L 59.8125 0 
L 72.21875 63.921875 
L 43.609375 14.015625 
L 33.984375 14.015625 
L 24.703125 64.109375 
L 12.3125 0 
L 2.6875 0 
z
" id="DejaVuSans-Oblique-77"/>
      <path d="M 16.890625 72.90625 
L 58.6875 72.90625 
L 57.078125 64.59375 
L 25.09375 64.59375 
L 20.90625 43.109375 
L 49.8125 43.109375 
L 48.1875 34.8125 
L 19.28125 34.8125 
L 12.5 0 
L 2.6875 0 
z
" id="DejaVuSans-Oblique-70"/>
      <path d="M -17.09375 56.40625 
L -27 56.40625 
L -66 70.90625 
L -105.09375 56.40625 
L -115 56.40625 
L -68.40625 77.703125 
L -63.59375 77.703125 
z
" id="STIXSizeTwoSym-Regular-770"/>
      <path d="M 16.890625 72.90625 
L 42.09375 72.90625 
Q 52.34375 72.90625 57.421875 69.09375 
Q 62.5 65.28125 62.5 57.625 
Q 62.5 50.59375 58.125 45.484375 
Q 53.765625 40.375 46.6875 39.3125 
Q 52.734375 37.9375 55.765625 34.078125 
Q 58.796875 30.21875 58.796875 23.78125 
Q 58.796875 12.796875 50.65625 6.390625 
Q 42.53125 0 28.421875 0 
L 2.6875 0 
z
M 19.28125 34.8125 
L 14.109375 8.109375 
L 29.984375 8.109375 
Q 38.921875 8.109375 43.75 12.203125 
Q 48.578125 16.3125 48.578125 23.78125 
Q 48.578125 29.546875 45.375 32.171875 
Q 42.1875 34.8125 35.109375 34.8125 
z
M 25.09375 64.796875 
L 20.796875 42.828125 
L 35.5 42.828125 
Q 43.359375 42.828125 47.78125 46.234375 
Q 52.203125 49.65625 52.203125 55.71875 
Q 52.203125 60.453125 49.21875 62.625 
Q 46.234375 64.796875 39.703125 64.796875 
z
" id="DejaVuSans-Oblique-66"/>
     </defs>
     <g transform="translate(248.8975 341.4075)scale(0.16 -0.16)">
      <use transform="translate(0 0.15625)" xlink:href="#DejaVuSans-Oblique-81"/>
      <use transform="translate(85.911458 38.4375)scale(0.7)" xlink:href="#DejaVuSans-Oblique-77"/>
      <use transform="translate(146.306966 38.4375)scale(0.7)" xlink:href="#DejaVuSans-Oblique-70"/>
      <use transform="translate(208.787435 0.15625)" xlink:href="#DejaVuSans-8722"/>
      <use transform="translate(414.189779 41.53125)scale(0.803942)" xlink:href="#STIXSizeTwoSym-Regular-770"/>
      <use transform="translate(312.058919 0.15625)" xlink:href="#DejaVuSans-Oblique-81"/>
      <use transform="translate(391.726888 38.4375)scale(0.7)" xlink:href="#DejaVuSans-Oblique-77"/>
      <use transform="translate(452.122396 38.4375)scale(0.7)" xlink:href="#DejaVuSans-Oblique-66"/>
     </g>
    </g>
   </g>
   <g id="matplotlib.axis_2">
    <g id="ytick_1">
     <g id="line2d_8">
      <defs>
       <path d="M 0 0 
L -3.5 0 
" id="m26379d668e" style="stroke:#000000;stroke-width:0.8;"/>
      </defs>
      <g>
       <use style="stroke:#000000;stroke-width:0.8;" x="79.675" xlink:href="#m26379d668e" y="301.465625"/>
      </g>
     </g>
     <g id="text_9">
      <!-- −0.15 -->
      <defs>
       <path d="M 10.6875 12.40625 
L 21 12.40625 
L 21 0 
L 10.6875 0 
z
" id="DejaVuSans-46"/>
      </defs>
      <g transform="translate(29.771563 306.784531)scale(0.14 -0.14)">
       <use xlink:href="#DejaVuSans-8722"/>
       <use x="83.789062" xlink:href="#DejaVuSans-48"/>
       <use x="147.412109" xlink:href="#DejaVuSans-46"/>
       <use x="179.199219" xlink:href="#DejaVuSans-49"/>
       <use x="242.822266" xlink:href="#DejaVuSans-53"/>
      </g>
     </g>
    </g>
    <g id="ytick_2">
     <g id="line2d_9">
      <g>
       <use style="stroke:#000000;stroke-width:0.8;" x="79.675" xlink:href="#m26379d668e" y="271.391667"/>
      </g>
     </g>
     <g id="text_10">
      <!-- −0.10 -->
      <g transform="translate(29.771563 276.710573)scale(0.14 -0.14)">
       <use xlink:href="#DejaVuSans-8722"/>
       <use x="83.789062" xlink:href="#DejaVuSans-48"/>
       <use x="147.412109" xlink:href="#DejaVuSans-46"/>
       <use x="179.199219" xlink:href="#DejaVuSans-49"/>
       <use x="242.822266" xlink:href="#DejaVuSans-48"/>
      </g>
     </g>
    </g>
    <g id="ytick_3">
     <g id="line2d_10">
      <g>
       <use style="stroke:#000000;stroke-width:0.8;" x="79.675" xlink:href="#m26379d668e" y="241.317708"/>
      </g>
     </g>
     <g id="text_11">
      <!-- −0.05 -->
      <g transform="translate(29.771563 246.636615)scale(0.14 -0.14)">
       <use xlink:href="#DejaVuSans-8722"/>
       <use x="83.789062" xlink:href="#DejaVuSans-48"/>
       <use x="147.412109" xlink:href="#DejaVuSans-46"/>
       <use x="179.199219" xlink:href="#DejaVuSans-48"/>
       <use x="242.822266" xlink:href="#DejaVuSans-53"/>
      </g>
     </g>
    </g>
    <g id="ytick_4">
     <g id="line2d_11">
      <g>
       <use style="stroke:#000000;stroke-width:0.8;" x="79.675" xlink:href="#m26379d668e" y="211.24375"/>
      </g>
     </g>
     <g id="text_12">
      <!-- 0.00 -->
      <g transform="translate(41.503125 216.562656)scale(0.14 -0.14)">
       <use xlink:href="#DejaVuSans-48"/>
       <use x="63.623047" xlink:href="#DejaVuSans-46"/>
       <use x="95.410156" xlink:href="#DejaVuSans-48"/>
       <use x="159.033203" xlink:href="#DejaVuSans-48"/>
      </g>
     </g>
    </g>
    <g id="ytick_5">
     <g id="line2d_12">
      <g>
       <use style="stroke:#000000;stroke-width:0.8;" x="79.675" xlink:href="#m26379d668e" y="181.169792"/>
      </g>
     </g>
     <g id="text_13">
      <!-- 0.05 -->
      <g transform="translate(41.503125 186.488698)scale(0.14 -0.14)">
       <use xlink:href="#DejaVuSans-48"/>
       <use x="63.623047" xlink:href="#DejaVuSans-46"/>
       <use x="95.410156" xlink:href="#DejaVuSans-48"/>
       <use x="159.033203" xlink:href="#DejaVuSans-53"/>
      </g>
     </g>
    </g>
    <g id="ytick_6">
     <g id="line2d_13">
      <g>
       <use style="stroke:#000000;stroke-width:0.8;" x="79.675" xlink:href="#m26379d668e" y="151.095833"/>
      </g>
     </g>
     <g id="text_14">
      <!-- 0.10 -->
      <g transform="translate(41.503125 156.41474)scale(0.14 -0.14)">
       <use xlink:href="#DejaVuSans-48"/>
       <use x="63.623047" xlink:href="#DejaVuSans-46"/>
       <use x="95.410156" xlink:href="#DejaVuSans-49"/>
       <use x="159.033203" xlink:href="#DejaVuSans-48"/>
      </g>
     </g>
    </g>
    <g id="ytick_7">
     <g id="line2d_14">
      <g>
       <use style="stroke:#000000;stroke-width:0.8;" x="79.675" xlink:href="#m26379d668e" y="121.021875"/>
      </g>
     </g>
     <g id="text_15">
      <!-- 0.15 -->
      <g transform="translate(41.503125 126.340781)scale(0.14 -0.14)">
       <use xlink:href="#DejaVuSans-48"/>
       <use x="63.623047" xlink:href="#DejaVuSans-46"/>
       <use x="95.410156" xlink:href="#DejaVuSans-49"/>
       <use x="159.033203" xlink:href="#DejaVuSans-53"/>
      </g>
     </g>
    </g>
    <g id="ytick_8">
     <g id="line2d_15">
      <g>
       <use style="stroke:#000000;stroke-width:0.8;" x="79.675" xlink:href="#m26379d668e" y="90.947917"/>
      </g>
     </g>
     <g id="text_16">
      <!-- 0.20 -->
      <g transform="translate(41.503125 96.266823)scale(0.14 -0.14)">
       <use xlink:href="#DejaVuSans-48"/>
       <use x="63.623047" xlink:href="#DejaVuSans-46"/>
       <use x="95.410156" xlink:href="#DejaVuSans-50"/>
       <use x="159.033203" xlink:href="#DejaVuSans-48"/>
      </g>
     </g>
    </g>
    <g id="ytick_9">
     <g id="line2d_16">
      <g>
       <use style="stroke:#000000;stroke-width:0.8;" x="79.675" xlink:href="#m26379d668e" y="60.873958"/>
      </g>
     </g>
     <g id="text_17">
      <!-- 0.25 -->
      <g transform="translate(41.503125 66.192865)scale(0.14 -0.14)">
       <use xlink:href="#DejaVuSans-48"/>
       <use x="63.623047" xlink:href="#DejaVuSans-46"/>
       <use x="95.410156" xlink:href="#DejaVuSans-50"/>
       <use x="159.033203" xlink:href="#DejaVuSans-53"/>
      </g>
     </g>
    </g>
    <g id="ytick_10">
     <g id="line2d_17">
      <g>
       <use style="stroke:#000000;stroke-width:0.8;" x="79.675" xlink:href="#m26379d668e" y="30.8"/>
      </g>
     </g>
     <g id="text_18">
      <!-- 0.30 -->
      <g transform="translate(41.503125 36.118906)scale(0.14 -0.14)">
       <use xlink:href="#DejaVuSans-48"/>
       <use x="63.623047" xlink:href="#DejaVuSans-46"/>
       <use x="95.410156" xlink:href="#DejaVuSans-51"/>
       <use x="159.033203" xlink:href="#DejaVuSans-48"/>
      </g>
     </g>
    </g>
    <g id="text_19">
     <!-- Gain -->
     <defs>
      <path d="M 59.515625 10.40625 
L 59.515625 29.984375 
L 43.40625 29.984375 
L 43.40625 38.09375 
L 69.28125 38.09375 
L 69.28125 6.78125 
Q 63.578125 2.734375 56.6875 0.65625 
Q 49.8125 -1.421875 42 -1.421875 
Q 24.90625 -1.421875 15.25 8.5625 
Q 5.609375 18.5625 5.609375 36.375 
Q 5.609375 54.25 15.25 64.234375 
Q 24.90625 74.21875 42 74.21875 
Q 49.125 74.21875 55.546875 72.453125 
Q 61.96875 70.703125 67.390625 67.28125 
L 67.390625 56.78125 
Q 61.921875 61.421875 55.765625 63.765625 
Q 49.609375 66.109375 42.828125 66.109375 
Q 29.4375 66.109375 22.71875 58.640625 
Q 16.015625 51.171875 16.015625 36.375 
Q 16.015625 21.625 22.71875 14.15625 
Q 29.4375 6.6875 42.828125 6.6875 
Q 48.046875 6.6875 52.140625 7.59375 
Q 56.25 8.5 59.515625 10.40625 
z
" id="DejaVuSans-71"/>
      <path d="M 34.28125 27.484375 
Q 23.390625 27.484375 19.1875 25 
Q 14.984375 22.515625 14.984375 16.5 
Q 14.984375 11.71875 18.140625 8.90625 
Q 21.296875 6.109375 26.703125 6.109375 
Q 34.1875 6.109375 38.703125 11.40625 
Q 43.21875 16.703125 43.21875 25.484375 
L 43.21875 27.484375 
z
M 52.203125 31.203125 
L 52.203125 0 
L 43.21875 0 
L 43.21875 8.296875 
Q 40.140625 3.328125 35.546875 0.953125 
Q 30.953125 -1.421875 24.3125 -1.421875 
Q 15.921875 -1.421875 10.953125 3.296875 
Q 6 8.015625 6 15.921875 
Q 6 25.140625 12.171875 29.828125 
Q 18.359375 34.515625 30.609375 34.515625 
L 43.21875 34.515625 
L 43.21875 35.40625 
Q 43.21875 41.609375 39.140625 45 
Q 35.0625 48.390625 27.6875 48.390625 
Q 23 48.390625 18.546875 47.265625 
Q 14.109375 46.140625 10.015625 43.890625 
L 10.015625 52.203125 
Q 14.9375 54.109375 19.578125 55.046875 
Q 24.21875 56 28.609375 56 
Q 40.484375 56 46.34375 49.84375 
Q 52.203125 43.703125 52.203125 31.203125 
z
" id="DejaVuSans-97"/>
      <path d="M 9.421875 54.6875 
L 18.40625 54.6875 
L 18.40625 0 
L 9.421875 0 
z
M 9.421875 75.984375 
L 18.40625 75.984375 
L 18.40625 64.59375 
L 9.421875 64.59375 
z
" id="DejaVuSans-105"/>
      <path d="M 54.890625 33.015625 
L 54.890625 0 
L 45.90625 0 
L 45.90625 32.71875 
Q 45.90625 40.484375 42.875 44.328125 
Q 39.84375 48.1875 33.796875 48.1875 
Q 26.515625 48.1875 22.3125 43.546875 
Q 18.109375 38.921875 18.109375 30.90625 
L 18.109375 0 
L 9.078125 0 
L 9.078125 54.6875 
L 18.109375 54.6875 
L 18.109375 46.1875 
Q 21.34375 51.125 25.703125 53.5625 
Q 30.078125 56 35.796875 56 
Q 45.21875 56 50.046875 50.171875 
Q 54.890625 44.34375 54.890625 33.015625 
z
" id="DejaVuSans-110"/>
     </defs>
     <g transform="translate(22.444063 184.526563)rotate(-90)scale(0.16 -0.16)">
      <use xlink:href="#DejaVuSans-71"/>
      <use x="77.490234" xlink:href="#DejaVuSans-97"/>
      <use x="138.769531" xlink:href="#DejaVuSans-105"/>
      <use x="166.552734" xlink:href="#DejaVuSans-110"/>
     </g>
    </g>
   </g>
   <g id="line2d_18">
    <path clip-path="url(#p848e4fee60)" d="M 204.436863 180.593834 
L 207.066255 180.826747 
L 209.695646 181.060426 
L 212.325037 181.294876 
L 214.954428 181.530098 
L 217.583819 181.766097 
L 220.21321 182.002876 
L 222.842602 182.240438 
L 225.471993 182.478786 
L 228.101384 182.717924 
L 230.730775 182.957855 
L 233.360166 183.198582 
L 235.989557 183.440109 
L 238.618949 183.682439 
L 241.24834 183.925575 
L 243.877731 184.169521 
L 246.507122 184.414281 
L 249.136513 184.659856 
L 251.765904 184.906252 
L 254.395295 185.153471 
L 257.024687 185.401516 
L 259.654078 185.650391 
L 262.283469 185.9001 
L 264.91286 186.150646 
L 267.542251 186.402032 
L 270.171642 186.654261 
L 272.801034 186.907337 
L 275.430425 187.161264 
L 278.059816 187.416044 
L 280.689207 187.671682 
L 283.318598 187.928181 
L 285.947989 188.185543 
L 288.577381 188.443773 
L 291.206772 188.702874 
L 293.836163 188.96285 
L 296.465554 189.223703 
L 299.094945 189.485438 
L 301.724336 189.748057 
L 304.353728 190.011565 
L 306.983119 190.275964 
L 309.61251 190.541258 
L 312.241901 190.807451 
L 314.871292 191.074546 
L 317.500683 191.342547 
L 320.130075 191.611456 
L 322.759466 191.881278 
L 325.388857 192.152016 
L 328.018248 192.423673 
L 330.647639 192.696253 
L 333.27703 192.969759 
L 335.906422 193.244195 
L 338.535813 193.519564 
L 341.165204 193.79587 
L 343.794595 194.073116 
L 346.423986 194.351306 
L 349.053377 194.630443 
L 351.682769 194.91053 
L 354.31216 195.191572 
L 356.941551 195.473571 
L 359.570942 195.756531 
L 362.200333 196.040456 
L 364.829724 196.325348 
L 367.459116 196.611213 
L 370.088507 196.898051 
L 372.717898 197.185869 
L 375.347289 197.474668 
L 377.97668 197.764452 
L 380.606071 198.055225 
L 383.235463 198.34699 
L 385.864854 198.639751 
L 388.494245 198.933511 
L 391.123636 199.228274 
L 393.753027 199.524042 
L 396.382418 199.82082 
L 399.01181 200.11861 
L 401.641201 200.417417 
L 404.270592 200.717243 
L 406.899983 201.018093 
L 409.529374 201.319969 
L 412.158765 201.622875 
L 414.788157 201.926814 
L 417.417548 202.23179 
L 420.046939 202.537806 
L 422.67633 202.844865 
L 425.305721 203.152971 
L 427.935112 203.462127 
L 430.564504 203.772337 
L 433.193895 204.083604 
L 435.823286 204.395931 
L 438.452677 204.709321 
L 441.082068 205.023778 
L 443.711459 205.339306 
L 446.340851 205.655907 
L 448.970242 205.973585 
L 451.599633 206.292342 
L 454.229024 206.612184 
L 456.858415 206.933111 
L 459.487806 207.255129 
L 462.117198 207.57824 
L 464.746589 207.902447 
L 467.37598 208.227754 
L 470.005371 208.554163 
L 472.634762 208.881679 
L 475.264153 209.210303 
L 477.893545 209.54004 
L 480.522936 209.870892 
L 483.152327 210.202863 
L 485.781718 210.535956 
L 488.411109 210.870173 
L 491.0405 211.205519 
L 493.669892 211.541995 
L 496.299283 211.879606 
" style="fill:none;stroke:#0000ff;stroke-linecap:square;stroke-width:1.5;"/>
   </g>
   <g id="line2d_19">
    <path clip-path="url(#p848e4fee60)" d="M 130.312219 122.760237 
L 132.94161 123.319768 
L 135.571001 123.880515 
L 138.200392 124.442481 
L 140.829783 125.005668 
L 143.459174 125.570078 
L 146.088566 126.135714 
L 148.717957 126.702577 
L 151.347348 127.27067 
L 153.976739 127.839995 
L 156.60613 128.410555 
L 159.235521 128.98235 
L 161.864913 129.555384 
L 164.494304 130.129658 
L 167.123695 130.705175 
L 169.753086 131.281935 
L 172.382477 131.859941 
L 175.011868 132.439196 
L 177.64126 133.0197 
L 180.270651 133.601455 
L 182.900042 134.184464 
L 185.529433 134.768728 
L 188.158824 135.354248 
L 190.788215 135.941026 
L 193.417607 136.529064 
L 196.046998 137.118364 
L 198.676389 137.708925 
L 201.30578 138.300751 
L 203.935171 138.893843 
L 206.564562 139.488201 
L 209.193954 140.083828 
L 211.823345 140.680723 
L 214.452736 141.27889 
L 217.082127 141.878328 
L 219.711518 142.479038 
L 222.340909 143.081022 
L 224.970301 143.684282 
L 227.599692 144.288816 
L 230.229083 144.894628 
L 232.858474 145.501716 
L 235.487865 146.110083 
L 238.117256 146.719728 
L 240.746648 147.330653 
L 243.376039 147.942858 
L 246.00543 148.556344 
L 248.634821 149.17111 
L 251.264212 149.787158 
L 253.893603 150.404488 
L 256.522995 151.0231 
L 259.152386 151.642994 
L 261.781777 152.26417 
L 264.411168 152.88663 
L 267.040559 153.510371 
L 269.66995 154.135395 
L 272.299342 154.761702 
L 274.928733 155.389291 
L 277.558124 156.018162 
L 280.187515 156.648314 
L 282.816906 157.279748 
L 285.446297 157.912463 
L 288.075689 158.546457 
L 290.70508 159.181732 
L 293.334471 159.818286 
L 295.963862 160.456117 
L 298.593253 161.095226 
L 301.222644 161.735612 
L 303.852036 162.377273 
L 306.481427 163.020209 
L 309.110818 163.664418 
L 311.740209 164.309899 
L 314.3696 164.95665 
L 316.998991 165.604671 
L 319.628383 166.25396 
L 322.257774 166.904514 
L 324.887165 167.556334 
L 327.516556 168.209416 
L 330.145947 168.863759 
L 332.775338 169.519361 
L 335.40473 170.176221 
L 338.034121 170.834335 
L 340.663512 171.493701 
L 343.292903 172.154318 
L 345.922294 172.816183 
L 348.551685 173.479294 
L 351.181077 174.143647 
L 353.810468 174.809241 
L 356.439859 175.476072 
L 359.06925 176.144137 
L 361.698641 176.813434 
L 364.328032 177.483959 
L 366.957423 178.155709 
L 369.586815 178.828681 
L 372.216206 179.502871 
L 374.845597 180.178276 
L 377.474988 180.854892 
L 380.104379 181.532716 
L 382.73377 182.211743 
L 385.363162 182.89197 
L 387.992553 183.573392 
L 390.621944 184.256005 
L 393.251335 184.939805 
L 395.880726 185.624787 
L 398.510117 186.310947 
L 401.139509 186.998281 
L 403.7689 187.686782 
L 406.398291 188.376447 
L 409.027682 189.06727 
L 411.657073 189.759246 
L 414.286464 190.452369 
L 416.915856 191.146635 
L 419.545247 191.842038 
L 422.174638 192.538571 
" style="fill:none;stroke:#0000ff;stroke-linecap:square;stroke-opacity:0.8;stroke-width:1.5;"/>
   </g>
   <g id="line2d_20">
    <path clip-path="url(#p848e4fee60)" d="M 80.895789 50.88247 
L 83.52518 51.855564 
L 86.154571 52.829868 
L 88.783962 53.805376 
L 91.413353 54.782085 
L 94.042745 55.759991 
L 96.672136 56.73909 
L 99.301527 57.719377 
L 101.930918 58.700847 
L 104.560309 59.683497 
L 107.1897 60.667322 
L 109.819092 61.652317 
L 112.448483 62.638476 
L 115.077874 63.625796 
L 117.707265 64.61427 
L 120.336656 65.603894 
L 122.966047 66.594662 
L 125.595439 67.586568 
L 128.22483 68.579607 
L 130.854221 69.573773 
L 133.483612 70.56906 
L 136.113003 71.565462 
L 138.742394 72.562972 
L 141.371786 73.561585 
L 144.001177 74.561294 
L 146.630568 75.562092 
L 149.259959 76.563972 
L 151.88935 77.566927 
L 154.518741 78.570951 
L 157.148133 79.576036 
L 159.777524 80.582174 
L 162.406915 81.589359 
L 165.036306 82.597582 
L 167.665697 83.606835 
L 170.295088 84.617111 
L 172.92448 85.628402 
L 175.553871 86.640698 
L 178.183262 87.653992 
L 180.812653 88.668275 
L 183.442044 89.683538 
L 186.071435 90.699772 
L 188.700827 91.716968 
L 191.330218 92.735117 
L 193.959609 93.754209 
L 196.589 94.774235 
L 199.218391 95.795184 
L 201.847782 96.817047 
L 204.477174 97.839813 
L 207.106565 98.863472 
L 209.735956 99.888015 
L 212.365347 100.913429 
L 214.994738 101.939704 
L 217.624129 102.966829 
L 220.253521 103.994792 
L 222.882912 105.023583 
L 225.512303 106.053189 
L 228.141694 107.083599 
L 230.771085 108.114801 
L 233.400476 109.146782 
L 236.029868 110.17953 
L 238.659259 111.213033 
L 241.28865 112.247277 
L 243.918041 113.282249 
L 246.547432 114.317937 
L 249.176823 115.354327 
L 251.806215 116.391404 
L 254.435606 117.429157 
L 257.064997 118.467569 
L 259.694388 119.506628 
L 262.323779 120.546318 
L 264.95317 121.586625 
L 267.582562 122.627534 
L 270.211953 123.66903 
L 272.841344 124.711097 
L 275.470735 125.75372 
L 278.100126 126.796884 
L 280.729517 127.840571 
L 283.358909 128.884766 
L 285.9883 129.929452 
L 288.617691 130.974613 
L 291.247082 132.020232 
L 293.876473 133.066291 
L 296.505864 134.112773 
L 299.135255 135.15966 
L 301.764647 136.206935 
L 304.394038 137.25458 
L 307.023429 138.302575 
L 309.65282 139.350903 
L 312.282211 140.399544 
L 314.911602 141.448479 
L 317.540994 142.497689 
L 320.170385 143.547155 
L 322.799776 144.596856 
L 325.429167 145.646772 
L 328.058558 146.696883 
L 330.687949 147.747169 
L 333.317341 148.797607 
L 335.946732 149.848178 
L 338.576123 150.89886 
L 341.205514 151.94963 
L 343.834905 153.000468 
L 346.464296 154.05135 
L 349.093688 155.102255 
L 351.723079 156.153159 
L 354.35247 157.204039 
L 356.981861 158.254872 
L 359.611252 159.305635 
L 362.240643 160.356303 
L 364.870035 161.406852 
L 367.499426 162.457258 
L 370.128817 163.507496 
L 372.758208 164.557541 
" style="fill:none;stroke:#0000ff;stroke-linecap:square;stroke-opacity:0.5;stroke-width:1.5;"/>
   </g>
   <g id="line2d_21">
    <path clip-path="url(#p848e4fee60)" d="M 79.675 211.24375 
L 498.6 211.24375 
" style="fill:none;stroke:#000000;stroke-linecap:square;stroke-opacity:0.5;stroke-width:1.5;"/>
   </g>
   <g id="line2d_22">
    <path clip-path="url(#p848e4fee60)" d="M 491.339705 301.465625 
L 491.339705 30.8 
" style="fill:none;stroke:#000000;stroke-linecap:square;stroke-opacity:0.5;stroke-width:1.5;"/>
   </g>
   <g id="patch_3">
    <path d="M 79.675 301.465625 
L 79.675 30.8 
" style="fill:none;stroke:#000000;stroke-linecap:square;stroke-linejoin:miter;stroke-width:0.8;"/>
   </g>
   <g id="patch_4">
    <path d="M 498.6 301.465625 
L 498.6 30.8 
" style="fill:none;stroke:#000000;stroke-linecap:square;stroke-linejoin:miter;stroke-width:0.8;"/>
   </g>
   <g id="patch_5">
    <path d="M 79.675 301.465625 
L 498.6 301.465625 
" style="fill:none;stroke:#000000;stroke-linecap:square;stroke-linejoin:miter;stroke-width:0.8;"/>
   </g>
   <g id="patch_6">
    <path d="M 79.675 30.8 
L 498.6 30.8 
" style="fill:none;stroke:#000000;stroke-linecap:square;stroke-linejoin:miter;stroke-width:0.8;"/>
   </g>
   <g id="text_20">
    <!-- Suboptimal action -->
    <defs>
     <path d="M 53.515625 70.515625 
L 53.515625 60.890625 
Q 47.90625 63.578125 42.921875 64.890625 
Q 37.9375 66.21875 33.296875 66.21875 
Q 25.25 66.21875 20.875 63.09375 
Q 16.5 59.96875 16.5 54.203125 
Q 16.5 49.359375 19.40625 46.890625 
Q 22.3125 44.4375 30.421875 42.921875 
L 36.375 41.703125 
Q 47.40625 39.59375 52.65625 34.296875 
Q 57.90625 29 57.90625 20.125 
Q 57.90625 9.515625 50.796875 4.046875 
Q 43.703125 -1.421875 29.984375 -1.421875 
Q 24.8125 -1.421875 18.96875 -0.25 
Q 13.140625 0.921875 6.890625 3.21875 
L 6.890625 13.375 
Q 12.890625 10.015625 18.65625 8.296875 
Q 24.421875 6.59375 29.984375 6.59375 
Q 38.421875 6.59375 43.015625 9.90625 
Q 47.609375 13.234375 47.609375 19.390625 
Q 47.609375 24.75 44.3125 27.78125 
Q 41.015625 30.8125 33.5 32.328125 
L 27.484375 33.5 
Q 16.453125 35.6875 11.515625 40.375 
Q 6.59375 45.0625 6.59375 53.421875 
Q 6.59375 63.09375 13.40625 68.65625 
Q 20.21875 74.21875 32.171875 74.21875 
Q 37.3125 74.21875 42.625 73.28125 
Q 47.953125 72.359375 53.515625 70.515625 
z
" id="DejaVuSans-83"/>
     <path d="M 8.5 21.578125 
L 8.5 54.6875 
L 17.484375 54.6875 
L 17.484375 21.921875 
Q 17.484375 14.15625 20.5 10.265625 
Q 23.53125 6.390625 29.59375 6.390625 
Q 36.859375 6.390625 41.078125 11.03125 
Q 45.3125 15.671875 45.3125 23.6875 
L 45.3125 54.6875 
L 54.296875 54.6875 
L 54.296875 0 
L 45.3125 0 
L 45.3125 8.40625 
Q 42.046875 3.421875 37.71875 1 
Q 33.40625 -1.421875 27.6875 -1.421875 
Q 18.265625 -1.421875 13.375 4.4375 
Q 8.5 10.296875 8.5 21.578125 
z
M 31.109375 56 
z
" id="DejaVuSans-117"/>
     <path d="M 48.6875 27.296875 
Q 48.6875 37.203125 44.609375 42.84375 
Q 40.53125 48.484375 33.40625 48.484375 
Q 26.265625 48.484375 22.1875 42.84375 
Q 18.109375 37.203125 18.109375 27.296875 
Q 18.109375 17.390625 22.1875 11.75 
Q 26.265625 6.109375 33.40625 6.109375 
Q 40.53125 6.109375 44.609375 11.75 
Q 48.6875 17.390625 48.6875 27.296875 
z
M 18.109375 46.390625 
Q 20.953125 51.265625 25.265625 53.625 
Q 29.59375 56 35.59375 56 
Q 45.5625 56 51.78125 48.09375 
Q 58.015625 40.1875 58.015625 27.296875 
Q 58.015625 14.40625 51.78125 6.484375 
Q 45.5625 -1.421875 35.59375 -1.421875 
Q 29.59375 -1.421875 25.265625 0.953125 
Q 20.953125 3.328125 18.109375 8.203125 
L 18.109375 0 
L 9.078125 0 
L 9.078125 75.984375 
L 18.109375 75.984375 
z
" id="DejaVuSans-98"/>
     <path d="M 30.609375 48.390625 
Q 23.390625 48.390625 19.1875 42.75 
Q 14.984375 37.109375 14.984375 27.296875 
Q 14.984375 17.484375 19.15625 11.84375 
Q 23.34375 6.203125 30.609375 6.203125 
Q 37.796875 6.203125 41.984375 11.859375 
Q 46.1875 17.53125 46.1875 27.296875 
Q 46.1875 37.015625 41.984375 42.703125 
Q 37.796875 48.390625 30.609375 48.390625 
z
M 30.609375 56 
Q 42.328125 56 49.015625 48.375 
Q 55.71875 40.765625 55.71875 27.296875 
Q 55.71875 13.875 49.015625 6.21875 
Q 42.328125 -1.421875 30.609375 -1.421875 
Q 18.84375 -1.421875 12.171875 6.21875 
Q 5.515625 13.875 5.515625 27.296875 
Q 5.515625 40.765625 12.171875 48.375 
Q 18.84375 56 30.609375 56 
z
" id="DejaVuSans-111"/>
     <path d="M 18.109375 8.203125 
L 18.109375 -20.796875 
L 9.078125 -20.796875 
L 9.078125 54.6875 
L 18.109375 54.6875 
L 18.109375 46.390625 
Q 20.953125 51.265625 25.265625 53.625 
Q 29.59375 56 35.59375 56 
Q 45.5625 56 51.78125 48.09375 
Q 58.015625 40.1875 58.015625 27.296875 
Q 58.015625 14.40625 51.78125 6.484375 
Q 45.5625 -1.421875 35.59375 -1.421875 
Q 29.59375 -1.421875 25.265625 0.953125 
Q 20.953125 3.328125 18.109375 8.203125 
z
M 48.6875 27.296875 
Q 48.6875 37.203125 44.609375 42.84375 
Q 40.53125 48.484375 33.40625 48.484375 
Q 26.265625 48.484375 22.1875 42.84375 
Q 18.109375 37.203125 18.109375 27.296875 
Q 18.109375 17.390625 22.1875 11.75 
Q 26.265625 6.109375 33.40625 6.109375 
Q 40.53125 6.109375 44.609375 11.75 
Q 48.6875 17.390625 48.6875 27.296875 
z
" id="DejaVuSans-112"/>
     <path d="M 18.3125 70.21875 
L 18.3125 54.6875 
L 36.8125 54.6875 
L 36.8125 47.703125 
L 18.3125 47.703125 
L 18.3125 18.015625 
Q 18.3125 11.328125 20.140625 9.421875 
Q 21.96875 7.515625 27.59375 7.515625 
L 36.8125 7.515625 
L 36.8125 0 
L 27.59375 0 
Q 17.1875 0 13.234375 3.875 
Q 9.28125 7.765625 9.28125 18.015625 
L 9.28125 47.703125 
L 2.6875 47.703125 
L 2.6875 54.6875 
L 9.28125 54.6875 
L 9.28125 70.21875 
z
" id="DejaVuSans-116"/>
     <path d="M 52 44.1875 
Q 55.375 50.25 60.0625 53.125 
Q 64.75 56 71.09375 56 
Q 79.640625 56 84.28125 50.015625 
Q 88.921875 44.046875 88.921875 33.015625 
L 88.921875 0 
L 79.890625 0 
L 79.890625 32.71875 
Q 79.890625 40.578125 77.09375 44.375 
Q 74.3125 48.1875 68.609375 48.1875 
Q 61.625 48.1875 57.5625 43.546875 
Q 53.515625 38.921875 53.515625 30.90625 
L 53.515625 0 
L 44.484375 0 
L 44.484375 32.71875 
Q 44.484375 40.625 41.703125 44.40625 
Q 38.921875 48.1875 33.109375 48.1875 
Q 26.21875 48.1875 22.15625 43.53125 
Q 18.109375 38.875 18.109375 30.90625 
L 18.109375 0 
L 9.078125 0 
L 9.078125 54.6875 
L 18.109375 54.6875 
L 18.109375 46.1875 
Q 21.1875 51.21875 25.484375 53.609375 
Q 29.78125 56 35.6875 56 
Q 41.65625 56 45.828125 52.96875 
Q 50 49.953125 52 44.1875 
z
" id="DejaVuSans-109"/>
     <path d="M 9.421875 75.984375 
L 18.40625 75.984375 
L 18.40625 0 
L 9.421875 0 
z
" id="DejaVuSans-108"/>
     <path id="DejaVuSans-32"/>
     <path d="M 48.78125 52.59375 
L 48.78125 44.1875 
Q 44.96875 46.296875 41.140625 47.34375 
Q 37.3125 48.390625 33.40625 48.390625 
Q 24.65625 48.390625 19.8125 42.84375 
Q 14.984375 37.3125 14.984375 27.296875 
Q 14.984375 17.28125 19.8125 11.734375 
Q 24.65625 6.203125 33.40625 6.203125 
Q 37.3125 6.203125 41.140625 7.25 
Q 44.96875 8.296875 48.78125 10.40625 
L 48.78125 2.09375 
Q 45.015625 0.34375 40.984375 -0.53125 
Q 36.96875 -1.421875 32.421875 -1.421875 
Q 20.0625 -1.421875 12.78125 6.34375 
Q 5.515625 14.109375 5.515625 27.296875 
Q 5.515625 40.671875 12.859375 48.328125 
Q 20.21875 56 33.015625 56 
Q 37.15625 56 41.109375 55.140625 
Q 45.0625 54.296875 48.78125 52.59375 
z
" id="DejaVuSans-99"/>
    </defs>
    <g transform="translate(207.411875 24.8)scale(0.18 -0.18)">
     <use xlink:href="#DejaVuSans-83"/>
     <use x="63.476562" xlink:href="#DejaVuSans-117"/>
     <use x="126.855469" xlink:href="#DejaVuSans-98"/>
     <use x="190.332031" xlink:href="#DejaVuSans-111"/>
     <use x="251.513672" xlink:href="#DejaVuSans-112"/>
     <use x="314.990234" xlink:href="#DejaVuSans-116"/>
     <use x="354.199219" xlink:href="#DejaVuSans-105"/>
     <use x="381.982422" xlink:href="#DejaVuSans-109"/>
     <use x="479.394531" xlink:href="#DejaVuSans-97"/>
     <use x="540.673828" xlink:href="#DejaVuSans-108"/>
     <use x="568.457031" xlink:href="#DejaVuSans-32"/>
     <use x="600.244141" xlink:href="#DejaVuSans-97"/>
     <use x="661.523438" xlink:href="#DejaVuSans-99"/>
     <use x="716.503906" xlink:href="#DejaVuSans-116"/>
     <use x="755.712891" xlink:href="#DejaVuSans-105"/>
     <use x="783.496094" xlink:href="#DejaVuSans-111"/>
     <use x="844.677734" xlink:href="#DejaVuSans-110"/>
    </g>
   </g>
  </g>
  <g id="axes_2">
   <g id="patch_7">
    <path d="M 578.275 301.465625 
L 997.2 301.465625 
L 997.2 30.8 
L 578.275 30.8 
z
" style="fill:none;"/>
   </g>
   <g id="matplotlib.axis_3">
    <g id="xtick_8">
     <g id="line2d_23">
      <g>
       <use style="stroke:#000000;stroke-width:0.8;" x="608.858197" xlink:href="#m9e9d770a24" y="301.465625"/>
      </g>
     </g>
     <g id="text_21">
      <!-- −4 -->
      <g transform="translate(598.538665 319.103438)scale(0.14 -0.14)">
       <use xlink:href="#DejaVuSans-8722"/>
       <use x="83.789062" xlink:href="#DejaVuSans-52"/>
      </g>
     </g>
    </g>
    <g id="xtick_9">
     <g id="line2d_24">
      <g>
       <use style="stroke:#000000;stroke-width:0.8;" x="695.229636" xlink:href="#m9e9d770a24" y="301.465625"/>
      </g>
     </g>
     <g id="text_22">
      <!-- −3 -->
      <g transform="translate(684.910104 319.103438)scale(0.14 -0.14)">
       <use xlink:href="#DejaVuSans-8722"/>
       <use x="83.789062" xlink:href="#DejaVuSans-51"/>
      </g>
     </g>
    </g>
    <g id="xtick_10">
     <g id="line2d_25">
      <g>
       <use style="stroke:#000000;stroke-width:0.8;" x="781.601075" xlink:href="#m9e9d770a24" y="301.465625"/>
      </g>
     </g>
     <g id="text_23">
      <!-- −2 -->
      <g transform="translate(771.281543 319.103438)scale(0.14 -0.14)">
       <use xlink:href="#DejaVuSans-8722"/>
       <use x="83.789062" xlink:href="#DejaVuSans-50"/>
      </g>
     </g>
    </g>
    <g id="xtick_11">
     <g id="line2d_26">
      <g>
       <use style="stroke:#000000;stroke-width:0.8;" x="867.972514" xlink:href="#m9e9d770a24" y="301.465625"/>
      </g>
     </g>
     <g id="text_24">
      <!-- −1 -->
      <g transform="translate(857.652982 319.103438)scale(0.14 -0.14)">
       <use xlink:href="#DejaVuSans-8722"/>
       <use x="83.789062" xlink:href="#DejaVuSans-49"/>
      </g>
     </g>
    </g>
    <g id="xtick_12">
     <g id="line2d_27">
      <g>
       <use style="stroke:#000000;stroke-width:0.8;" x="954.343953" xlink:href="#m9e9d770a24" y="301.465625"/>
      </g>
     </g>
     <g id="text_25">
      <!-- 0 -->
      <g transform="translate(949.890203 319.103438)scale(0.14 -0.14)">
       <use xlink:href="#DejaVuSans-48"/>
      </g>
     </g>
    </g>
    <g id="text_26">
     <!-- $Q^{MF}-\widehat{Q}^{MB}$ -->
     <g transform="translate(747.4975 341.4075)scale(0.16 -0.16)">
      <use transform="translate(0 0.15625)" xlink:href="#DejaVuSans-Oblique-81"/>
      <use transform="translate(85.911458 38.4375)scale(0.7)" xlink:href="#DejaVuSans-Oblique-77"/>
      <use transform="translate(146.306966 38.4375)scale(0.7)" xlink:href="#DejaVuSans-Oblique-70"/>
      <use transform="translate(208.787435 0.15625)" xlink:href="#DejaVuSans-8722"/>
      <use transform="translate(414.189779 41.53125)scale(0.803942)" xlink:href="#STIXSizeTwoSym-Regular-770"/>
      <use transform="translate(312.058919 0.15625)" xlink:href="#DejaVuSans-Oblique-81"/>
      <use transform="translate(391.726888 38.4375)scale(0.7)" xlink:href="#DejaVuSans-Oblique-77"/>
      <use transform="translate(452.122396 38.4375)scale(0.7)" xlink:href="#DejaVuSans-Oblique-66"/>
     </g>
    </g>
   </g>
   <g id="matplotlib.axis_4">
    <g id="ytick_11">
     <g id="line2d_28">
      <g>
       <use style="stroke:#000000;stroke-width:0.8;" x="578.275" xlink:href="#m26379d668e" y="301.465625"/>
      </g>
     </g>
     <g id="text_27">
      <!-- −0.15 -->
      <g transform="translate(528.371563 306.784531)scale(0.14 -0.14)">
       <use xlink:href="#DejaVuSans-8722"/>
       <use x="83.789062" xlink:href="#DejaVuSans-48"/>
       <use x="147.412109" xlink:href="#DejaVuSans-46"/>
       <use x="179.199219" xlink:href="#DejaVuSans-49"/>
       <use x="242.822266" xlink:href="#DejaVuSans-53"/>
      </g>
     </g>
    </g>
    <g id="ytick_12">
     <g id="line2d_29">
      <g>
       <use style="stroke:#000000;stroke-width:0.8;" x="578.275" xlink:href="#m26379d668e" y="271.391667"/>
      </g>
     </g>
     <g id="text_28">
      <!-- −0.10 -->
      <g transform="translate(528.371563 276.710573)scale(0.14 -0.14)">
       <use xlink:href="#DejaVuSans-8722"/>
       <use x="83.789062" xlink:href="#DejaVuSans-48"/>
       <use x="147.412109" xlink:href="#DejaVuSans-46"/>
       <use x="179.199219" xlink:href="#DejaVuSans-49"/>
       <use x="242.822266" xlink:href="#DejaVuSans-48"/>
      </g>
     </g>
    </g>
    <g id="ytick_13">
     <g id="line2d_30">
      <g>
       <use style="stroke:#000000;stroke-width:0.8;" x="578.275" xlink:href="#m26379d668e" y="241.317708"/>
      </g>
     </g>
     <g id="text_29">
      <!-- −0.05 -->
      <g transform="translate(528.371563 246.636615)scale(0.14 -0.14)">
       <use xlink:href="#DejaVuSans-8722"/>
       <use x="83.789062" xlink:href="#DejaVuSans-48"/>
       <use x="147.412109" xlink:href="#DejaVuSans-46"/>
       <use x="179.199219" xlink:href="#DejaVuSans-48"/>
       <use x="242.822266" xlink:href="#DejaVuSans-53"/>
      </g>
     </g>
    </g>
    <g id="ytick_14">
     <g id="line2d_31">
      <g>
       <use style="stroke:#000000;stroke-width:0.8;" x="578.275" xlink:href="#m26379d668e" y="211.24375"/>
      </g>
     </g>
     <g id="text_30">
      <!-- 0.00 -->
      <g transform="translate(540.103125 216.562656)scale(0.14 -0.14)">
       <use xlink:href="#DejaVuSans-48"/>
       <use x="63.623047" xlink:href="#DejaVuSans-46"/>
       <use x="95.410156" xlink:href="#DejaVuSans-48"/>
       <use x="159.033203" xlink:href="#DejaVuSans-48"/>
      </g>
     </g>
    </g>
    <g id="ytick_15">
     <g id="line2d_32">
      <g>
       <use style="stroke:#000000;stroke-width:0.8;" x="578.275" xlink:href="#m26379d668e" y="181.169792"/>
      </g>
     </g>
     <g id="text_31">
      <!-- 0.05 -->
      <g transform="translate(540.103125 186.488698)scale(0.14 -0.14)">
       <use xlink:href="#DejaVuSans-48"/>
       <use x="63.623047" xlink:href="#DejaVuSans-46"/>
       <use x="95.410156" xlink:href="#DejaVuSans-48"/>
       <use x="159.033203" xlink:href="#DejaVuSans-53"/>
      </g>
     </g>
    </g>
    <g id="ytick_16">
     <g id="line2d_33">
      <g>
       <use style="stroke:#000000;stroke-width:0.8;" x="578.275" xlink:href="#m26379d668e" y="151.095833"/>
      </g>
     </g>
     <g id="text_32">
      <!-- 0.10 -->
      <g transform="translate(540.103125 156.41474)scale(0.14 -0.14)">
       <use xlink:href="#DejaVuSans-48"/>
       <use x="63.623047" xlink:href="#DejaVuSans-46"/>
       <use x="95.410156" xlink:href="#DejaVuSans-49"/>
       <use x="159.033203" xlink:href="#DejaVuSans-48"/>
      </g>
     </g>
    </g>
    <g id="ytick_17">
     <g id="line2d_34">
      <g>
       <use style="stroke:#000000;stroke-width:0.8;" x="578.275" xlink:href="#m26379d668e" y="121.021875"/>
      </g>
     </g>
     <g id="text_33">
      <!-- 0.15 -->
      <g transform="translate(540.103125 126.340781)scale(0.14 -0.14)">
       <use xlink:href="#DejaVuSans-48"/>
       <use x="63.623047" xlink:href="#DejaVuSans-46"/>
       <use x="95.410156" xlink:href="#DejaVuSans-49"/>
       <use x="159.033203" xlink:href="#DejaVuSans-53"/>
      </g>
     </g>
    </g>
    <g id="ytick_18">
     <g id="line2d_35">
      <g>
       <use style="stroke:#000000;stroke-width:0.8;" x="578.275" xlink:href="#m26379d668e" y="90.947917"/>
      </g>
     </g>
     <g id="text_34">
      <!-- 0.20 -->
      <g transform="translate(540.103125 96.266823)scale(0.14 -0.14)">
       <use xlink:href="#DejaVuSans-48"/>
       <use x="63.623047" xlink:href="#DejaVuSans-46"/>
       <use x="95.410156" xlink:href="#DejaVuSans-50"/>
       <use x="159.033203" xlink:href="#DejaVuSans-48"/>
      </g>
     </g>
    </g>
    <g id="ytick_19">
     <g id="line2d_36">
      <g>
       <use style="stroke:#000000;stroke-width:0.8;" x="578.275" xlink:href="#m26379d668e" y="60.873958"/>
      </g>
     </g>
     <g id="text_35">
      <!-- 0.25 -->
      <g transform="translate(540.103125 66.192865)scale(0.14 -0.14)">
       <use xlink:href="#DejaVuSans-48"/>
       <use x="63.623047" xlink:href="#DejaVuSans-46"/>
       <use x="95.410156" xlink:href="#DejaVuSans-50"/>
       <use x="159.033203" xlink:href="#DejaVuSans-53"/>
      </g>
     </g>
    </g>
    <g id="ytick_20">
     <g id="line2d_37">
      <g>
       <use style="stroke:#000000;stroke-width:0.8;" x="578.275" xlink:href="#m26379d668e" y="30.8"/>
      </g>
     </g>
     <g id="text_36">
      <!-- 0.30 -->
      <g transform="translate(540.103125 36.118906)scale(0.14 -0.14)">
       <use xlink:href="#DejaVuSans-48"/>
       <use x="63.623047" xlink:href="#DejaVuSans-46"/>
       <use x="95.410156" xlink:href="#DejaVuSans-51"/>
       <use x="159.033203" xlink:href="#DejaVuSans-48"/>
      </g>
     </g>
    </g>
    <g id="text_37">
     <!-- Gain -->
     <g transform="translate(521.044063 184.526563)rotate(-90)scale(0.16 -0.16)">
      <use xlink:href="#DejaVuSans-71"/>
      <use x="77.490234" xlink:href="#DejaVuSans-97"/>
      <use x="138.769531" xlink:href="#DejaVuSans-105"/>
      <use x="166.552734" xlink:href="#DejaVuSans-110"/>
     </g>
    </g>
   </g>
   <g id="line2d_38">
    <path clip-path="url(#p25a10074b2)" d="M 578.707475 254.895786 
L 582.167275 254.425855 
L 585.627075 253.957178 
L 589.086875 253.48976 
L 592.546676 253.023601 
L 596.006476 252.558703 
L 599.466276 252.095069 
L 602.926076 251.6327 
L 606.385876 251.171598 
L 609.845676 250.711764 
L 613.305476 250.2532 
L 616.765276 249.795907 
L 620.225077 249.339886 
L 623.684877 248.885139 
L 627.144677 248.431666 
L 630.604477 247.97947 
L 634.064277 247.52855 
L 637.524077 247.078908 
L 640.983877 246.630544 
L 644.443678 246.18346 
L 647.903478 245.737655 
L 651.363278 245.293131 
L 654.823078 244.849888 
L 658.282878 244.407926 
L 661.742678 243.967246 
L 665.202478 243.527849 
L 668.662278 243.089733 
L 672.122079 242.6529 
L 675.581879 242.217349 
L 679.041679 241.783081 
L 682.501479 241.350096 
L 685.961279 240.918393 
L 689.421079 240.487972 
L 692.880879 240.058833 
L 696.340679 239.630976 
L 699.80048 239.2044 
L 703.26028 238.779105 
L 706.72008 238.355091 
L 710.17988 237.932356 
L 713.63968 237.5109 
L 717.09948 237.090723 
L 720.55928 236.671824 
L 724.019081 236.254202 
L 727.478881 235.837857 
L 730.938681 235.422786 
L 734.398481 235.008991 
L 737.858281 234.596468 
L 741.318081 234.185218 
L 744.777881 233.775239 
L 748.237681 233.366531 
L 751.697482 232.959091 
L 755.157282 232.552919 
L 758.617082 232.148014 
L 762.076882 231.744373 
L 765.536682 231.341996 
L 768.996482 230.940882 
L 772.456282 230.541028 
L 775.916083 230.142433 
L 779.375883 229.745096 
L 782.835683 229.349015 
L 786.295483 228.954189 
L 789.755283 228.560615 
L 793.215083 228.168292 
L 796.674883 227.777218 
L 800.134683 227.387391 
L 803.594484 226.99881 
L 807.054284 226.611473 
L 810.514084 226.225377 
L 813.973884 225.840521 
L 817.433684 225.456902 
L 820.893484 225.074519 
L 824.353284 224.69337 
L 827.813084 224.313451 
L 831.272885 223.934762 
L 834.732685 223.5573 
L 838.192485 223.181063 
L 841.652285 222.806049 
L 845.112085 222.432254 
L 848.571885 222.059678 
L 852.031685 221.688317 
L 855.491486 221.318169 
L 858.951286 220.949232 
L 862.411086 220.581503 
L 865.870886 220.214981 
L 869.330686 219.849661 
L 872.790486 219.485543 
L 876.250286 219.122622 
L 879.710086 218.760898 
L 883.169887 218.400366 
L 886.629687 218.041025 
L 890.089487 217.682872 
L 893.549287 217.325904 
L 897.009087 216.970118 
L 900.468887 216.615512 
L 903.928687 216.262083 
L 907.388488 215.909828 
L 910.848288 215.558745 
L 914.308088 215.208829 
L 917.767888 214.86008 
L 921.227688 214.512493 
L 924.687488 214.166067 
L 928.147288 213.820797 
L 931.607088 213.476681 
L 935.066889 213.133717 
L 938.526689 212.791901 
L 941.986489 212.45123 
L 945.446289 212.111701 
L 948.906089 211.773311 
L 952.365889 211.436058 
L 955.825689 211.099937 
L 959.285489 210.764947 
L 962.74529 210.431084 
L 966.20509 210.098344 
" style="fill:none;stroke:#ffa500;stroke-linecap:square;stroke-width:1.5;"/>
   </g>
   <g id="line2d_39">
    <path clip-path="url(#p25a10074b2)" d="M 596.85959 288.121877 
L 600.31939 287.396208 
L 603.77919 286.669203 
L 607.23899 285.940899 
L 610.69879 285.211332 
L 614.15859 284.480538 
L 617.618391 283.748554 
L 621.078191 283.015414 
L 624.537991 282.281153 
L 627.997791 281.545808 
L 631.457591 280.809411 
L 634.917391 280.071997 
L 638.377191 279.3336 
L 641.836991 278.594253 
L 645.296792 277.85399 
L 648.756592 277.112842 
L 652.216392 276.370843 
L 655.676192 275.628025 
L 659.135992 274.884419 
L 662.595792 274.140057 
L 666.055592 273.394971 
L 669.515392 272.64919 
L 672.975193 271.902745 
L 676.434993 271.155667 
L 679.894793 270.407986 
L 683.354593 269.65973 
L 686.814393 268.91093 
L 690.274193 268.161614 
L 693.733993 267.411811 
L 697.193794 266.661549 
L 700.653594 265.910856 
L 704.113394 265.15976 
L 707.573194 264.408289 
L 711.032994 263.656469 
L 714.492794 262.904327 
L 717.952594 262.151889 
L 721.412394 261.399183 
L 724.872195 260.646234 
L 728.331995 259.893067 
L 731.791795 259.139708 
L 735.251595 258.386181 
L 738.711395 257.632513 
L 742.171195 256.878726 
L 745.630995 256.124846 
L 749.090796 255.370895 
L 752.550596 254.616899 
L 756.010396 253.86288 
L 759.470196 253.108861 
L 762.929996 252.354865 
L 766.389796 251.600914 
L 769.849596 250.847031 
L 773.309396 250.093238 
L 776.769197 249.339556 
L 780.228997 248.586008 
L 783.688797 247.832613 
L 787.148597 247.079393 
L 790.608397 246.326369 
L 794.068197 245.573561 
L 797.527997 244.820989 
L 800.987797 244.068672 
L 804.447598 243.316632 
L 807.907398 242.564886 
L 811.367198 241.813455 
L 814.826998 241.062356 
L 818.286798 240.31161 
L 821.746598 239.561233 
L 825.206398 238.811244 
L 828.666199 238.061661 
L 832.125999 237.312502 
L 835.585799 236.563784 
L 839.045599 235.815524 
L 842.505399 235.067739 
L 845.965199 234.320446 
L 849.424999 233.573662 
L 852.884799 232.827402 
L 856.3446 232.081682 
L 859.8044 231.33652 
L 863.2642 230.591929 
L 866.724 229.847925 
L 870.1838 229.104524 
L 873.6436 228.36174 
L 877.1034 227.619589 
L 880.563201 226.878084 
L 884.023001 226.137239 
L 887.482801 225.39707 
L 890.942601 224.657589 
L 894.402401 223.918811 
L 897.862201 223.180748 
L 901.322001 222.443414 
L 904.781801 221.706822 
L 908.241602 220.970986 
L 911.701402 220.235916 
L 915.161202 219.501626 
L 918.621002 218.768129 
L 922.080802 218.035435 
L 925.540602 217.303558 
L 929.000402 216.572508 
L 932.460202 215.842297 
L 935.920003 215.112936 
L 939.379803 214.384437 
L 942.839603 213.65681 
L 946.299403 212.930066 
L 949.759203 212.204216 
L 953.219003 211.479269 
L 956.678803 210.755236 
L 960.138604 210.032128 
L 963.598404 209.309953 
L 967.058204 208.588722 
L 970.518004 207.868444 
L 973.977804 207.149128 
L 977.437604 206.430783 
L 980.897404 205.713419 
L 984.357204 204.997044 
" style="fill:none;stroke:#ffa500;stroke-linecap:square;stroke-opacity:0.8;stroke-width:1.5;"/>
   </g>
   <g id="line2d_40">
    <path clip-path="url(#p25a10074b2)" d="M 608.961 295.443844 
L 612.4208 294.858999 
L 615.8806 294.26677 
L 619.3404 293.667229 
L 622.8002 293.06045 
L 626.26 292.446504 
L 629.7198 291.825464 
L 633.1796 291.197402 
L 636.639401 290.562389 
L 640.099201 289.920497 
L 643.559001 289.271797 
L 647.018801 288.61636 
L 650.478601 287.954257 
L 653.938401 287.285558 
L 657.398201 286.610333 
L 660.858001 285.928652 
L 664.317802 285.240586 
L 667.777602 284.546202 
L 671.237402 283.845571 
L 674.697202 283.138761 
L 678.157002 282.425841 
L 681.616802 281.706879 
L 685.076602 280.981942 
L 688.536403 280.251099 
L 691.996203 279.514417 
L 695.456003 278.771963 
L 698.915803 278.023804 
L 702.375603 277.270006 
L 705.835403 276.510635 
L 709.295203 275.745757 
L 712.755003 274.975438 
L 716.214804 274.199743 
L 719.674604 273.418737 
L 723.134404 272.632485 
L 726.594204 271.84105 
L 730.054004 271.044496 
L 733.513804 270.242888 
L 736.973604 269.436288 
L 740.433405 268.62476 
L 743.893205 267.808365 
L 747.353005 266.987167 
L 750.812805 266.161227 
L 754.272605 265.330607 
L 757.732405 264.495368 
L 761.192205 263.655571 
L 764.652005 262.811276 
L 768.111806 261.962544 
L 771.571606 261.109435 
L 775.031406 260.252008 
L 778.491206 259.390322 
L 781.951006 258.524436 
L 785.410806 257.654409 
L 788.870606 256.780299 
L 792.330406 255.902163 
L 795.790207 255.020059 
L 799.250007 254.134043 
L 802.709807 253.244174 
L 806.169607 252.350506 
L 809.629407 251.453096 
L 813.089207 250.552 
L 816.549007 249.647273 
L 820.008808 248.738969 
L 823.468608 247.827143 
L 826.928408 246.911849 
L 830.388208 245.993142 
L 833.848008 245.071073 
L 837.307808 244.145698 
L 840.767608 243.217067 
L 844.227408 242.285234 
L 847.687209 241.350251 
L 851.147009 240.412169 
L 854.606809 239.471039 
L 858.066609 238.526912 
L 861.526409 237.579838 
L 864.986209 236.629869 
L 868.446009 235.677053 
L 871.90581 234.721439 
L 875.36561 233.763078 
L 878.82541 232.802017 
L 882.28521 231.838305 
L 885.74501 230.871989 
L 889.20481 229.903118 
L 892.66461 228.931738 
L 896.12441 227.957897 
L 899.584211 226.98164 
L 903.044011 226.003014 
L 906.503811 225.022064 
L 909.963611 224.038836 
L 913.423411 223.053375 
L 916.883211 222.065725 
L 920.343011 221.075931 
L 923.802811 220.084036 
L 927.262612 219.090084 
L 930.722412 218.094119 
L 934.182212 217.096183 
L 937.642012 216.096318 
L 941.101812 215.094566 
L 944.561612 214.09097 
L 948.021412 213.085571 
L 951.481213 212.078409 
L 954.941013 211.069525 
L 958.400813 210.05896 
L 961.860613 209.046754 
L 965.320413 208.032945 
L 968.780213 207.017574 
L 972.240013 206.000679 
L 975.699813 204.982299 
L 979.159614 203.962472 
L 982.619414 202.941236 
L 986.079214 201.918628 
L 989.539014 200.894686 
L 992.998814 199.869445 
L 996.458614 198.842944 
" style="fill:none;stroke:#ffa500;stroke-linecap:square;stroke-opacity:0.5;stroke-width:1.5;"/>
   </g>
   <g id="line2d_41">
    <path clip-path="url(#p25a10074b2)" d="M 578.275 211.24375 
L 997.2 211.24375 
" style="fill:none;stroke:#000000;stroke-linecap:square;stroke-opacity:0.5;stroke-width:1.5;"/>
   </g>
   <g id="line2d_42">
    <path clip-path="url(#p25a10074b2)" d="M 954.343953 301.465625 
L 954.343953 30.8 
" style="fill:none;stroke:#000000;stroke-linecap:square;stroke-opacity:0.5;stroke-width:1.5;"/>
   </g>
   <g id="patch_8">
    <path d="M 578.275 301.465625 
L 578.275 30.8 
" style="fill:none;stroke:#000000;stroke-linecap:square;stroke-linejoin:miter;stroke-width:0.8;"/>
   </g>
   <g id="patch_9">
    <path d="M 997.2 301.465625 
L 997.2 30.8 
" style="fill:none;stroke:#000000;stroke-linecap:square;stroke-linejoin:miter;stroke-width:0.8;"/>
   </g>
   <g id="patch_10">
    <path d="M 578.275 301.465625 
L 997.2 301.465625 
" style="fill:none;stroke:#000000;stroke-linecap:square;stroke-linejoin:miter;stroke-width:0.8;"/>
   </g>
   <g id="patch_11">
    <path d="M 578.275 30.8 
L 997.2 30.8 
" style="fill:none;stroke:#000000;stroke-linecap:square;stroke-linejoin:miter;stroke-width:0.8;"/>
   </g>
   <g id="text_38">
    <!-- Optimal action -->
    <defs>
     <path d="M 39.40625 66.21875 
Q 28.65625 66.21875 22.328125 58.203125 
Q 16.015625 50.203125 16.015625 36.375 
Q 16.015625 22.609375 22.328125 14.59375 
Q 28.65625 6.59375 39.40625 6.59375 
Q 50.140625 6.59375 56.421875 14.59375 
Q 62.703125 22.609375 62.703125 36.375 
Q 62.703125 50.203125 56.421875 58.203125 
Q 50.140625 66.21875 39.40625 66.21875 
z
M 39.40625 74.21875 
Q 54.734375 74.21875 63.90625 63.9375 
Q 73.09375 53.65625 73.09375 36.375 
Q 73.09375 19.140625 63.90625 8.859375 
Q 54.734375 -1.421875 39.40625 -1.421875 
Q 24.03125 -1.421875 14.8125 8.828125 
Q 5.609375 19.09375 5.609375 36.375 
Q 5.609375 53.65625 14.8125 63.9375 
Q 24.03125 74.21875 39.40625 74.21875 
z
" id="DejaVuSans-79"/>
    </defs>
    <g transform="translate(721.565 24.8)scale(0.18 -0.18)">
     <use xlink:href="#DejaVuSans-79"/>
     <use x="78.710938" xlink:href="#DejaVuSans-112"/>
     <use x="142.1875" xlink:href="#DejaVuSans-116"/>
     <use x="181.396484" xlink:href="#DejaVuSans-105"/>
     <use x="209.179688" xlink:href="#DejaVuSans-109"/>
     <use x="306.591797" xlink:href="#DejaVuSans-97"/>
     <use x="367.871094" xlink:href="#DejaVuSans-108"/>
     <use x="395.654297" xlink:href="#DejaVuSans-32"/>
     <use x="427.441406" xlink:href="#DejaVuSans-97"/>
     <use x="488.720703" xlink:href="#DejaVuSans-99"/>
     <use x="543.701172" xlink:href="#DejaVuSans-116"/>
     <use x="582.910156" xlink:href="#DejaVuSans-105"/>
     <use x="610.693359" xlink:href="#DejaVuSans-111"/>
     <use x="671.875" xlink:href="#DejaVuSans-110"/>
    </g>
   </g>
  </g>
 </g>
 <defs>
  <clipPath id="p848e4fee60">
   <rect height="270.665625" width="418.925" x="79.675" y="30.8"/>
  </clipPath>
  <clipPath id="p25a10074b2">
   <rect height="270.665625" width="418.925" x="578.275" y="30.8"/>
  </clipPath>
 </defs>
</svg>
