<?xml version="1.0" encoding="utf-8" standalone="no"?>
<!DOCTYPE svg PUBLIC "-//W3C//DTD SVG 1.1//EN"
  "http://www.w3.org/Graphics/SVG/1.1/DTD/svg11.dtd">
<svg height="360pt" version="1.1" viewBox="0 0 288 360" width="288pt" xmlns="http://www.w3.org/2000/svg" xmlns:xlink="http://www.w3.org/1999/xlink">
 <metadata>
  <rdf:RDF xmlns:cc="http://creativecommons.org/ns#" xmlns:dc="http://purl.org/dc/elements/1.1/" xmlns:rdf="http://www.w3.org/1999/02/22-rdf-syntax-ns#">
   <cc:Work>
    <dc:type rdf:resource="http://purl.org/dc/dcmitype/StillImage"/>
    <dc:date>2021-09-04T14:35:28.289889</dc:date>
    <dc:format>image/svg+xml</dc:format>
    <dc:creator>
     <cc:Agent>
      <dc:title>Matplotlib v3.4.2, https://matplotlib.org/</dc:title>
     </cc:Agent>
    </dc:creator>
   </cc:Work>
  </rdf:RDF>
 </metadata>
 <defs>
  <style type="text/css">*{stroke-linecap:butt;stroke-linejoin:round;}</style>
 </defs>
 <g id="figure_1">
  <g id="patch_1">
   <path d="M 0 360 
L 288 360 
L 288 0 
L 0 0 
z
" style="fill:none;"/>
  </g>
  <g id="axes_1">
   <g id="patch_2">
    <path d="M 28.8 324 
L 259.2 324 
L 259.2 36 
L 28.8 36 
z
" style="fill:none;"/>
   </g>
   <g id="PathCollection_1">
    <defs>
     <path d="M 0 3 
C 0.795609 3 1.55874 2.683901 2.12132 2.12132 
C 2.683901 1.55874 3 0.795609 3 0 
C 3 -0.795609 2.683901 -1.55874 2.12132 -2.12132 
C 1.55874 -2.683901 0.795609 -3 0 -3 
C -0.795609 -3 -1.55874 -2.683901 -2.12132 -2.12132 
C -2.683901 -1.55874 -3 -0.795609 -3 0 
C -3 0.795609 -2.683901 1.55874 -2.12132 2.12132 
C -1.55874 2.683901 -0.795609 3 0 3 
z
" id="m0c02c67f68" style="stroke:#22cf00;"/>
    </defs>
    <g clip-path="url(#pd8a4d4e7d6)">
     <use style="fill:#22cf00;stroke:#22cf00;" x="144" xlink:href="#m0c02c67f68" y="309.874314"/>
     <use style="fill:#22cf00;stroke:#22cf00;" x="144" xlink:href="#m0c02c67f68" y="310.108887"/>
     <use style="fill:#22cf00;stroke:#22cf00;" x="144" xlink:href="#m0c02c67f68" y="310.005728"/>
     <use style="fill:#22cf00;stroke:#22cf00;" x="144" xlink:href="#m0c02c67f68" y="310.03196"/>
     <use style="fill:#22cf00;stroke:#22cf00;" x="144" xlink:href="#m0c02c67f68" y="309.789011"/>
     <use style="fill:#22cf00;stroke:#22cf00;" x="144" xlink:href="#m0c02c67f68" y="304.871333"/>
     <use style="fill:#22cf00;stroke:#22cf00;" x="144" xlink:href="#m0c02c67f68" y="49.090909"/>
     <use style="fill:#22cf00;stroke:#22cf00;" x="144" xlink:href="#m0c02c67f68" y="310.085193"/>
     <use style="fill:#22cf00;stroke:#22cf00;" x="144" xlink:href="#m0c02c67f68" y="302.622445"/>
     <use style="fill:#22cf00;stroke:#22cf00;" x="144" xlink:href="#m0c02c67f68" y="300.623062"/>
     <use style="fill:#22cf00;stroke:#22cf00;" x="144" xlink:href="#m0c02c67f68" y="307.969625"/>
     <use style="fill:#22cf00;stroke:#22cf00;" x="144" xlink:href="#m0c02c67f68" y="303.576336"/>
     <use style="fill:#22cf00;stroke:#22cf00;" x="144" xlink:href="#m0c02c67f68" y="302.203621"/>
     <use style="fill:#22cf00;stroke:#22cf00;" x="144" xlink:href="#m0c02c67f68" y="308.720402"/>
     <use style="fill:#22cf00;stroke:#22cf00;" x="144" xlink:href="#m0c02c67f68" y="303.39191"/>
     <use style="fill:#22cf00;stroke:#22cf00;" x="144" xlink:href="#m0c02c67f68" y="305.559835"/>
     <use style="fill:#22cf00;stroke:#22cf00;" x="144" xlink:href="#m0c02c67f68" y="309.218864"/>
     <use style="fill:#22cf00;stroke:#22cf00;" x="144" xlink:href="#m0c02c67f68" y="310.122315"/>
     <use style="fill:#22cf00;stroke:#22cf00;" x="144" xlink:href="#m0c02c67f68" y="301.473529"/>
     <use style="fill:#22cf00;stroke:#22cf00;" x="144" xlink:href="#m0c02c67f68" y="310.366611"/>
     <use style="fill:#22cf00;stroke:#22cf00;" x="144" xlink:href="#m0c02c67f68" y="310.364018"/>
     <use style="fill:#22cf00;stroke:#22cf00;" x="144" xlink:href="#m0c02c67f68" y="310.361576"/>
     <use style="fill:#22cf00;stroke:#22cf00;" x="144" xlink:href="#m0c02c67f68" y="310.358745"/>
     <use style="fill:#22cf00;stroke:#22cf00;" x="144" xlink:href="#m0c02c67f68" y="310.355919"/>
     <use style="fill:#22cf00;stroke:#22cf00;" x="144" xlink:href="#m0c02c67f68" y="309.250443"/>
     <use style="fill:#22cf00;stroke:#22cf00;" x="144" xlink:href="#m0c02c67f68" y="310.224255"/>
     <use style="fill:#22cf00;stroke:#22cf00;" x="144" xlink:href="#m0c02c67f68" y="304.145494"/>
     <use style="fill:#22cf00;stroke:#22cf00;" x="144" xlink:href="#m0c02c67f68" y="307.416689"/>
     <use style="fill:#22cf00;stroke:#22cf00;" x="144" xlink:href="#m0c02c67f68" y="309.459384"/>
     <use style="fill:#22cf00;stroke:#22cf00;" x="144" xlink:href="#m0c02c67f68" y="310.016441"/>
     <use style="fill:#22cf00;stroke:#22cf00;" x="144" xlink:href="#m0c02c67f68" y="303.022136"/>
     <use style="fill:#22cf00;stroke:#22cf00;" x="144" xlink:href="#m0c02c67f68" y="303.537495"/>
     <use style="fill:#22cf00;stroke:#22cf00;" x="144" xlink:href="#m0c02c67f68" y="307.400272"/>
     <use style="fill:#22cf00;stroke:#22cf00;" x="144" xlink:href="#m0c02c67f68" y="309.959083"/>
     <use style="fill:#22cf00;stroke:#22cf00;" x="144" xlink:href="#m0c02c67f68" y="306.954233"/>
     <use style="fill:#22cf00;stroke:#22cf00;" x="144" xlink:href="#m0c02c67f68" y="309.78579"/>
     <use style="fill:#22cf00;stroke:#22cf00;" x="144" xlink:href="#m0c02c67f68" y="310.259747"/>
     <use style="fill:#22cf00;stroke:#22cf00;" x="144" xlink:href="#m0c02c67f68" y="307.491947"/>
     <use style="fill:#22cf00;stroke:#22cf00;" x="144" xlink:href="#m0c02c67f68" y="309.978814"/>
     <use style="fill:#22cf00;stroke:#22cf00;" x="144" xlink:href="#m0c02c67f68" y="304.531843"/>
     <use style="fill:#22cf00;stroke:#22cf00;" x="144" xlink:href="#m0c02c67f68" y="308.915392"/>
     <use style="fill:#22cf00;stroke:#22cf00;" x="144" xlink:href="#m0c02c67f68" y="304.61415"/>
     <use style="fill:#22cf00;stroke:#22cf00;" x="144" xlink:href="#m0c02c67f68" y="309.474432"/>
     <use style="fill:#22cf00;stroke:#22cf00;" x="144" xlink:href="#m0c02c67f68" y="309.690393"/>
     <use style="fill:#22cf00;stroke:#22cf00;" x="144" xlink:href="#m0c02c67f68" y="302.614106"/>
     <use style="fill:#22cf00;stroke:#22cf00;" x="144" xlink:href="#m0c02c67f68" y="302.644038"/>
     <use style="fill:#22cf00;stroke:#22cf00;" x="144" xlink:href="#m0c02c67f68" y="310.909091"/>
     <use style="fill:#22cf00;stroke:#22cf00;" x="144" xlink:href="#m0c02c67f68" y="308.639379"/>
     <use style="fill:#22cf00;stroke:#22cf00;" x="144" xlink:href="#m0c02c67f68" y="306.017926"/>
     <use style="fill:#22cf00;stroke:#22cf00;" x="144" xlink:href="#m0c02c67f68" y="310.03065"/>
     <use style="fill:#22cf00;stroke:#22cf00;" x="144" xlink:href="#m0c02c67f68" y="307.972731"/>
     <use style="fill:#22cf00;stroke:#22cf00;" x="144" xlink:href="#m0c02c67f68" y="304.61905"/>
     <use style="fill:#22cf00;stroke:#22cf00;" x="144" xlink:href="#m0c02c67f68" y="309.054208"/>
     <use style="fill:#22cf00;stroke:#22cf00;" x="144" xlink:href="#m0c02c67f68" y="309.568697"/>
     <use style="fill:#22cf00;stroke:#22cf00;" x="144" xlink:href="#m0c02c67f68" y="306.592802"/>
     <use style="fill:#22cf00;stroke:#22cf00;" x="144" xlink:href="#m0c02c67f68" y="308.400097"/>
     <use style="fill:#22cf00;stroke:#22cf00;" x="144" xlink:href="#m0c02c67f68" y="292.146087"/>
     <use style="fill:#22cf00;stroke:#22cf00;" x="144" xlink:href="#m0c02c67f68" y="310.33425"/>
     <use style="fill:#22cf00;stroke:#22cf00;" x="144" xlink:href="#m0c02c67f68" y="305.745584"/>
     <use style="fill:#22cf00;stroke:#22cf00;" x="144" xlink:href="#m0c02c67f68" y="307.47303"/>
     <use style="fill:#22cf00;stroke:#22cf00;" x="144" xlink:href="#m0c02c67f68" y="307.586909"/>
     <use style="fill:#22cf00;stroke:#22cf00;" x="144" xlink:href="#m0c02c67f68" y="308.684844"/>
     <use style="fill:#22cf00;stroke:#22cf00;" x="144" xlink:href="#m0c02c67f68" y="307.933055"/>
     <use style="fill:#22cf00;stroke:#22cf00;" x="144" xlink:href="#m0c02c67f68" y="309.943734"/>
     <use style="fill:#22cf00;stroke:#22cf00;" x="144" xlink:href="#m0c02c67f68" y="305.471135"/>
     <use style="fill:#22cf00;stroke:#22cf00;" x="144" xlink:href="#m0c02c67f68" y="308.283542"/>
     <use style="fill:#22cf00;stroke:#22cf00;" x="144" xlink:href="#m0c02c67f68" y="306.602152"/>
     <use style="fill:#22cf00;stroke:#22cf00;" x="144" xlink:href="#m0c02c67f68" y="305.564392"/>
     <use style="fill:#22cf00;stroke:#22cf00;" x="144" xlink:href="#m0c02c67f68" y="309.676968"/>
     <use style="fill:#22cf00;stroke:#22cf00;" x="144" xlink:href="#m0c02c67f68" y="305.794061"/>
     <use style="fill:#22cf00;stroke:#22cf00;" x="144" xlink:href="#m0c02c67f68" y="310.351833"/>
     <use style="fill:#22cf00;stroke:#22cf00;" x="144" xlink:href="#m0c02c67f68" y="307.674056"/>
     <use style="fill:#22cf00;stroke:#22cf00;" x="144" xlink:href="#m0c02c67f68" y="307.183763"/>
     <use style="fill:#22cf00;stroke:#22cf00;" x="144" xlink:href="#m0c02c67f68" y="309.684837"/>
     <use style="fill:#22cf00;stroke:#22cf00;" x="144" xlink:href="#m0c02c67f68" y="309.209051"/>
     <use style="fill:#22cf00;stroke:#22cf00;" x="144" xlink:href="#m0c02c67f68" y="309.076927"/>
     <use style="fill:#22cf00;stroke:#22cf00;" x="144" xlink:href="#m0c02c67f68" y="308.09136"/>
     <use style="fill:#22cf00;stroke:#22cf00;" x="144" xlink:href="#m0c02c67f68" y="308.828331"/>
     <use style="fill:#22cf00;stroke:#22cf00;" x="144" xlink:href="#m0c02c67f68" y="305.351455"/>
     <use style="fill:#22cf00;stroke:#22cf00;" x="144" xlink:href="#m0c02c67f68" y="307.064735"/>
     <use style="fill:#22cf00;stroke:#22cf00;" x="144" xlink:href="#m0c02c67f68" y="307.381204"/>
     <use style="fill:#22cf00;stroke:#22cf00;" x="144" xlink:href="#m0c02c67f68" y="309.659984"/>
     <use style="fill:#22cf00;stroke:#22cf00;" x="144" xlink:href="#m0c02c67f68" y="304.70598"/>
     <use style="fill:#22cf00;stroke:#22cf00;" x="144" xlink:href="#m0c02c67f68" y="310.361994"/>
     <use style="fill:#22cf00;stroke:#22cf00;" x="144" xlink:href="#m0c02c67f68" y="309.743429"/>
     <use style="fill:#22cf00;stroke:#22cf00;" x="144" xlink:href="#m0c02c67f68" y="309.640497"/>
     <use style="fill:#22cf00;stroke:#22cf00;" x="144" xlink:href="#m0c02c67f68" y="307.581281"/>
     <use style="fill:#22cf00;stroke:#22cf00;" x="144" xlink:href="#m0c02c67f68" y="308.046805"/>
     <use style="fill:#22cf00;stroke:#22cf00;" x="144" xlink:href="#m0c02c67f68" y="308.370854"/>
     <use style="fill:#22cf00;stroke:#22cf00;" x="144" xlink:href="#m0c02c67f68" y="308.046285"/>
     <use style="fill:#22cf00;stroke:#22cf00;" x="144" xlink:href="#m0c02c67f68" y="304.125092"/>
     <use style="fill:#22cf00;stroke:#22cf00;" x="144" xlink:href="#m0c02c67f68" y="310.233057"/>
     <use style="fill:#22cf00;stroke:#22cf00;" x="144" xlink:href="#m0c02c67f68" y="310.222943"/>
     <use style="fill:#22cf00;stroke:#22cf00;" x="144" xlink:href="#m0c02c67f68" y="310.062819"/>
     <use style="fill:#22cf00;stroke:#22cf00;" x="144" xlink:href="#m0c02c67f68" y="310.278166"/>
     <use style="fill:#22cf00;stroke:#22cf00;" x="144" xlink:href="#m0c02c67f68" y="310.26222"/>
     <use style="fill:#22cf00;stroke:#22cf00;" x="144" xlink:href="#m0c02c67f68" y="308.974051"/>
     <use style="fill:#22cf00;stroke:#22cf00;" x="144" xlink:href="#m0c02c67f68" y="308.888586"/>
     <use style="fill:#22cf00;stroke:#22cf00;" x="144" xlink:href="#m0c02c67f68" y="306.515807"/>
     <use style="fill:#22cf00;stroke:#22cf00;" x="144" xlink:href="#m0c02c67f68" y="309.181438"/>
     <use style="fill:#22cf00;stroke:#22cf00;" x="144" xlink:href="#m0c02c67f68" y="308.663839"/>
     <use style="fill:#22cf00;stroke:#22cf00;" x="144" xlink:href="#m0c02c67f68" y="308.942231"/>
     <use style="fill:#22cf00;stroke:#22cf00;" x="144" xlink:href="#m0c02c67f68" y="300.89469"/>
     <use style="fill:#22cf00;stroke:#22cf00;" x="144" xlink:href="#m0c02c67f68" y="305.113457"/>
     <use style="fill:#22cf00;stroke:#22cf00;" x="144" xlink:href="#m0c02c67f68" y="305.139922"/>
     <use style="fill:#22cf00;stroke:#22cf00;" x="144" xlink:href="#m0c02c67f68" y="307.027108"/>
     <use style="fill:#22cf00;stroke:#22cf00;" x="144" xlink:href="#m0c02c67f68" y="302.078249"/>
     <use style="fill:#22cf00;stroke:#22cf00;" x="144" xlink:href="#m0c02c67f68" y="309.336082"/>
     <use style="fill:#22cf00;stroke:#22cf00;" x="144" xlink:href="#m0c02c67f68" y="310.170048"/>
     <use style="fill:#22cf00;stroke:#22cf00;" x="144" xlink:href="#m0c02c67f68" y="310.1901"/>
     <use style="fill:#22cf00;stroke:#22cf00;" x="144" xlink:href="#m0c02c67f68" y="310.288378"/>
     <use style="fill:#22cf00;stroke:#22cf00;" x="144" xlink:href="#m0c02c67f68" y="310.19932"/>
     <use style="fill:#22cf00;stroke:#22cf00;" x="144" xlink:href="#m0c02c67f68" y="302.866223"/>
     <use style="fill:#22cf00;stroke:#22cf00;" x="144" xlink:href="#m0c02c67f68" y="310.187909"/>
     <use style="fill:#22cf00;stroke:#22cf00;" x="144" xlink:href="#m0c02c67f68" y="305.333093"/>
     <use style="fill:#22cf00;stroke:#22cf00;" x="144" xlink:href="#m0c02c67f68" y="307.98116"/>
     <use style="fill:#22cf00;stroke:#22cf00;" x="144" xlink:href="#m0c02c67f68" y="308.261666"/>
     <use style="fill:#22cf00;stroke:#22cf00;" x="144" xlink:href="#m0c02c67f68" y="305.544245"/>
     <use style="fill:#22cf00;stroke:#22cf00;" x="144" xlink:href="#m0c02c67f68" y="301.496031"/>
     <use style="fill:#22cf00;stroke:#22cf00;" x="144" xlink:href="#m0c02c67f68" y="304.468191"/>
     <use style="fill:#22cf00;stroke:#22cf00;" x="144" xlink:href="#m0c02c67f68" y="305.515777"/>
     <use style="fill:#22cf00;stroke:#22cf00;" x="144" xlink:href="#m0c02c67f68" y="308.435832"/>
     <use style="fill:#22cf00;stroke:#22cf00;" x="144" xlink:href="#m0c02c67f68" y="305.687115"/>
     <use style="fill:#22cf00;stroke:#22cf00;" x="144" xlink:href="#m0c02c67f68" y="305.315371"/>
     <use style="fill:#22cf00;stroke:#22cf00;" x="144" xlink:href="#m0c02c67f68" y="308.052424"/>
     <use style="fill:#22cf00;stroke:#22cf00;" x="144" xlink:href="#m0c02c67f68" y="307.880399"/>
     <use style="fill:#22cf00;stroke:#22cf00;" x="144" xlink:href="#m0c02c67f68" y="310.179456"/>
     <use style="fill:#22cf00;stroke:#22cf00;" x="144" xlink:href="#m0c02c67f68" y="309.626595"/>
     <use style="fill:#22cf00;stroke:#22cf00;" x="144" xlink:href="#m0c02c67f68" y="309.017942"/>
     <use style="fill:#22cf00;stroke:#22cf00;" x="144" xlink:href="#m0c02c67f68" y="309.29423"/>
     <use style="fill:#22cf00;stroke:#22cf00;" x="144" xlink:href="#m0c02c67f68" y="308.896125"/>
     <use style="fill:#22cf00;stroke:#22cf00;" x="144" xlink:href="#m0c02c67f68" y="308.085693"/>
     <use style="fill:#22cf00;stroke:#22cf00;" x="144" xlink:href="#m0c02c67f68" y="307.438457"/>
     <use style="fill:#22cf00;stroke:#22cf00;" x="144" xlink:href="#m0c02c67f68" y="297.575421"/>
     <use style="fill:#22cf00;stroke:#22cf00;" x="144" xlink:href="#m0c02c67f68" y="309.213311"/>
     <use style="fill:#22cf00;stroke:#22cf00;" x="144" xlink:href="#m0c02c67f68" y="309.064145"/>
     <use style="fill:#22cf00;stroke:#22cf00;" x="144" xlink:href="#m0c02c67f68" y="305.743419"/>
     <use style="fill:#22cf00;stroke:#22cf00;" x="144" xlink:href="#m0c02c67f68" y="309.079438"/>
     <use style="fill:#22cf00;stroke:#22cf00;" x="144" xlink:href="#m0c02c67f68" y="305.370913"/>
     <use style="fill:#22cf00;stroke:#22cf00;" x="144" xlink:href="#m0c02c67f68" y="305.623499"/>
     <use style="fill:#22cf00;stroke:#22cf00;" x="144" xlink:href="#m0c02c67f68" y="309.302977"/>
     <use style="fill:#22cf00;stroke:#22cf00;" x="144" xlink:href="#m0c02c67f68" y="310.049318"/>
     <use style="fill:#22cf00;stroke:#22cf00;" x="144" xlink:href="#m0c02c67f68" y="306.481248"/>
     <use style="fill:#22cf00;stroke:#22cf00;" x="144" xlink:href="#m0c02c67f68" y="305.553164"/>
     <use style="fill:#22cf00;stroke:#22cf00;" x="144" xlink:href="#m0c02c67f68" y="303.544167"/>
     <use style="fill:#22cf00;stroke:#22cf00;" x="144" xlink:href="#m0c02c67f68" y="306.353483"/>
     <use style="fill:#22cf00;stroke:#22cf00;" x="144" xlink:href="#m0c02c67f68" y="310.371952"/>
     <use style="fill:#22cf00;stroke:#22cf00;" x="144" xlink:href="#m0c02c67f68" y="306.047429"/>
     <use style="fill:#22cf00;stroke:#22cf00;" x="144" xlink:href="#m0c02c67f68" y="308.494705"/>
     <use style="fill:#22cf00;stroke:#22cf00;" x="144" xlink:href="#m0c02c67f68" y="306.125079"/>
     <use style="fill:#22cf00;stroke:#22cf00;" x="144" xlink:href="#m0c02c67f68" y="306.430326"/>
     <use style="fill:#22cf00;stroke:#22cf00;" x="144" xlink:href="#m0c02c67f68" y="309.309031"/>
     <use style="fill:#22cf00;stroke:#22cf00;" x="144" xlink:href="#m0c02c67f68" y="305.65086"/>
     <use style="fill:#22cf00;stroke:#22cf00;" x="144" xlink:href="#m0c02c67f68" y="309.856458"/>
     <use style="fill:#22cf00;stroke:#22cf00;" x="144" xlink:href="#m0c02c67f68" y="309.376733"/>
     <use style="fill:#22cf00;stroke:#22cf00;" x="144" xlink:href="#m0c02c67f68" y="308.135948"/>
     <use style="fill:#22cf00;stroke:#22cf00;" x="144" xlink:href="#m0c02c67f68" y="306.858456"/>
     <use style="fill:#22cf00;stroke:#22cf00;" x="144" xlink:href="#m0c02c67f68" y="306.220331"/>
     <use style="fill:#22cf00;stroke:#22cf00;" x="144" xlink:href="#m0c02c67f68" y="304.9775"/>
     <use style="fill:#22cf00;stroke:#22cf00;" x="144" xlink:href="#m0c02c67f68" y="310.350118"/>
     <use style="fill:#22cf00;stroke:#22cf00;" x="144" xlink:href="#m0c02c67f68" y="310.178088"/>
     <use style="fill:#22cf00;stroke:#22cf00;" x="144" xlink:href="#m0c02c67f68" y="310.183633"/>
     <use style="fill:#22cf00;stroke:#22cf00;" x="144" xlink:href="#m0c02c67f68" y="306.827576"/>
     <use style="fill:#22cf00;stroke:#22cf00;" x="144" xlink:href="#m0c02c67f68" y="309.296703"/>
     <use style="fill:#22cf00;stroke:#22cf00;" x="144" xlink:href="#m0c02c67f68" y="309.072304"/>
     <use style="fill:#22cf00;stroke:#22cf00;" x="144" xlink:href="#m0c02c67f68" y="307.784091"/>
     <use style="fill:#22cf00;stroke:#22cf00;" x="144" xlink:href="#m0c02c67f68" y="310.119985"/>
     <use style="fill:#22cf00;stroke:#22cf00;" x="144" xlink:href="#m0c02c67f68" y="305.019442"/>
     <use style="fill:#22cf00;stroke:#22cf00;" x="144" xlink:href="#m0c02c67f68" y="310.067241"/>
     <use style="fill:#22cf00;stroke:#22cf00;" x="144" xlink:href="#m0c02c67f68" y="308.216889"/>
     <use style="fill:#22cf00;stroke:#22cf00;" x="144" xlink:href="#m0c02c67f68" y="310.12963"/>
     <use style="fill:#22cf00;stroke:#22cf00;" x="144" xlink:href="#m0c02c67f68" y="310.103336"/>
     <use style="fill:#22cf00;stroke:#22cf00;" x="144" xlink:href="#m0c02c67f68" y="308.124717"/>
     <use style="fill:#22cf00;stroke:#22cf00;" x="144" xlink:href="#m0c02c67f68" y="307.835976"/>
     <use style="fill:#22cf00;stroke:#22cf00;" x="144" xlink:href="#m0c02c67f68" y="308.305416"/>
     <use style="fill:#22cf00;stroke:#22cf00;" x="144" xlink:href="#m0c02c67f68" y="308.631987"/>
     <use style="fill:#22cf00;stroke:#22cf00;" x="144" xlink:href="#m0c02c67f68" y="306.284771"/>
     <use style="fill:#22cf00;stroke:#22cf00;" x="144" xlink:href="#m0c02c67f68" y="305.270995"/>
     <use style="fill:#22cf00;stroke:#22cf00;" x="144" xlink:href="#m0c02c67f68" y="308.121785"/>
     <use style="fill:#22cf00;stroke:#22cf00;" x="144" xlink:href="#m0c02c67f68" y="306.381107"/>
     <use style="fill:#22cf00;stroke:#22cf00;" x="144" xlink:href="#m0c02c67f68" y="307.953762"/>
     <use style="fill:#22cf00;stroke:#22cf00;" x="144" xlink:href="#m0c02c67f68" y="308.763127"/>
     <use style="fill:#22cf00;stroke:#22cf00;" x="144" xlink:href="#m0c02c67f68" y="304.955387"/>
     <use style="fill:#22cf00;stroke:#22cf00;" x="144" xlink:href="#m0c02c67f68" y="302.966398"/>
     <use style="fill:#22cf00;stroke:#22cf00;" x="144" xlink:href="#m0c02c67f68" y="310.086281"/>
     <use style="fill:#22cf00;stroke:#22cf00;" x="144" xlink:href="#m0c02c67f68" y="310.113339"/>
     <use style="fill:#22cf00;stroke:#22cf00;" x="144" xlink:href="#m0c02c67f68" y="310.083045"/>
     <use style="fill:#22cf00;stroke:#22cf00;" x="144" xlink:href="#m0c02c67f68" y="310.205705"/>
     <use style="fill:#22cf00;stroke:#22cf00;" x="144" xlink:href="#m0c02c67f68" y="310.013836"/>
     <use style="fill:#22cf00;stroke:#22cf00;" x="144" xlink:href="#m0c02c67f68" y="308.885372"/>
     <use style="fill:#22cf00;stroke:#22cf00;" x="144" xlink:href="#m0c02c67f68" y="306.672694"/>
     <use style="fill:#22cf00;stroke:#22cf00;" x="144" xlink:href="#m0c02c67f68" y="309.379454"/>
     <use style="fill:#22cf00;stroke:#22cf00;" x="144" xlink:href="#m0c02c67f68" y="303.794058"/>
     <use style="fill:#22cf00;stroke:#22cf00;" x="144" xlink:href="#m0c02c67f68" y="308.276348"/>
     <use style="fill:#22cf00;stroke:#22cf00;" x="144" xlink:href="#m0c02c67f68" y="309.329005"/>
     <use style="fill:#22cf00;stroke:#22cf00;" x="144" xlink:href="#m0c02c67f68" y="305.659783"/>
     <use style="fill:#22cf00;stroke:#22cf00;" x="144" xlink:href="#m0c02c67f68" y="309.946516"/>
     <use style="fill:#22cf00;stroke:#22cf00;" x="144" xlink:href="#m0c02c67f68" y="305.861577"/>
     <use style="fill:#22cf00;stroke:#22cf00;" x="144" xlink:href="#m0c02c67f68" y="298.47541"/>
     <use style="fill:#22cf00;stroke:#22cf00;" x="144" xlink:href="#m0c02c67f68" y="304.413209"/>
     <use style="fill:#22cf00;stroke:#22cf00;" x="144" xlink:href="#m0c02c67f68" y="308.68241"/>
     <use style="fill:#22cf00;stroke:#22cf00;" x="144" xlink:href="#m0c02c67f68" y="309.439251"/>
    </g>
   </g>
   <g id="patch_3">
    <path clip-path="url(#pd8a4d4e7d6)" d="M 39.272727 310.390062 
L 248.727273 310.390062 
L 248.727273 306.282447 
L 39.272727 306.282447 
z
" style="fill:#22cf00;opacity:0.4;"/>
   </g>
   <g id="matplotlib.axis_1">
    <g id="xtick_1">
     <g id="line2d_1">
      <defs>
       <path d="M 0 0 
L 0 3.5 
" id="mbb92349987" style="stroke:#000000;stroke-width:0.8;"/>
      </defs>
      <g>
       <use style="stroke:#000000;stroke-width:0.8;" x="60.218182" xlink:href="#mbb92349987" y="324"/>
      </g>
     </g>
     <g id="text_1">
      <!-- 0.96 -->
      <g transform="translate(49.085369 338.598437)scale(0.1 -0.1)">
       <defs>
        <path d="M 2034 4250 
Q 1547 4250 1301 3770 
Q 1056 3291 1056 2328 
Q 1056 1369 1301 889 
Q 1547 409 2034 409 
Q 2525 409 2770 889 
Q 3016 1369 3016 2328 
Q 3016 3291 2770 3770 
Q 2525 4250 2034 4250 
z
M 2034 4750 
Q 2819 4750 3233 4129 
Q 3647 3509 3647 2328 
Q 3647 1150 3233 529 
Q 2819 -91 2034 -91 
Q 1250 -91 836 529 
Q 422 1150 422 2328 
Q 422 3509 836 4129 
Q 1250 4750 2034 4750 
z
" id="DejaVuSans-30" transform="scale(0.015625)"/>
        <path d="M 684 794 
L 1344 794 
L 1344 0 
L 684 0 
L 684 794 
z
" id="DejaVuSans-2e" transform="scale(0.015625)"/>
        <path d="M 703 97 
L 703 672 
Q 941 559 1184 500 
Q 1428 441 1663 441 
Q 2288 441 2617 861 
Q 2947 1281 2994 2138 
Q 2813 1869 2534 1725 
Q 2256 1581 1919 1581 
Q 1219 1581 811 2004 
Q 403 2428 403 3163 
Q 403 3881 828 4315 
Q 1253 4750 1959 4750 
Q 2769 4750 3195 4129 
Q 3622 3509 3622 2328 
Q 3622 1225 3098 567 
Q 2575 -91 1691 -91 
Q 1453 -91 1209 -44 
Q 966 3 703 97 
z
M 1959 2075 
Q 2384 2075 2632 2365 
Q 2881 2656 2881 3163 
Q 2881 3666 2632 3958 
Q 2384 4250 1959 4250 
Q 1534 4250 1286 3958 
Q 1038 3666 1038 3163 
Q 1038 2656 1286 2365 
Q 1534 2075 1959 2075 
z
" id="DejaVuSans-39" transform="scale(0.015625)"/>
        <path d="M 2113 2584 
Q 1688 2584 1439 2293 
Q 1191 2003 1191 1497 
Q 1191 994 1439 701 
Q 1688 409 2113 409 
Q 2538 409 2786 701 
Q 3034 994 3034 1497 
Q 3034 2003 2786 2293 
Q 2538 2584 2113 2584 
z
M 3366 4563 
L 3366 3988 
Q 3128 4100 2886 4159 
Q 2644 4219 2406 4219 
Q 1781 4219 1451 3797 
Q 1122 3375 1075 2522 
Q 1259 2794 1537 2939 
Q 1816 3084 2150 3084 
Q 2853 3084 3261 2657 
Q 3669 2231 3669 1497 
Q 3669 778 3244 343 
Q 2819 -91 2113 -91 
Q 1303 -91 875 529 
Q 447 1150 447 2328 
Q 447 3434 972 4092 
Q 1497 4750 2381 4750 
Q 2619 4750 2861 4703 
Q 3103 4656 3366 4563 
z
" id="DejaVuSans-36" transform="scale(0.015625)"/>
       </defs>
       <use xlink:href="#DejaVuSans-30"/>
       <use x="63.623047" xlink:href="#DejaVuSans-2e"/>
       <use x="95.410156" xlink:href="#DejaVuSans-39"/>
       <use x="159.033203" xlink:href="#DejaVuSans-36"/>
      </g>
     </g>
    </g>
    <g id="xtick_2">
     <g id="line2d_2">
      <g>
       <use style="stroke:#000000;stroke-width:0.8;" x="102.109091" xlink:href="#mbb92349987" y="324"/>
      </g>
     </g>
     <g id="text_2">
      <!-- 0.98 -->
      <g transform="translate(90.976278 338.598437)scale(0.1 -0.1)">
       <defs>
        <path d="M 2034 2216 
Q 1584 2216 1326 1975 
Q 1069 1734 1069 1313 
Q 1069 891 1326 650 
Q 1584 409 2034 409 
Q 2484 409 2743 651 
Q 3003 894 3003 1313 
Q 3003 1734 2745 1975 
Q 2488 2216 2034 2216 
z
M 1403 2484 
Q 997 2584 770 2862 
Q 544 3141 544 3541 
Q 544 4100 942 4425 
Q 1341 4750 2034 4750 
Q 2731 4750 3128 4425 
Q 3525 4100 3525 3541 
Q 3525 3141 3298 2862 
Q 3072 2584 2669 2484 
Q 3125 2378 3379 2068 
Q 3634 1759 3634 1313 
Q 3634 634 3220 271 
Q 2806 -91 2034 -91 
Q 1263 -91 848 271 
Q 434 634 434 1313 
Q 434 1759 690 2068 
Q 947 2378 1403 2484 
z
M 1172 3481 
Q 1172 3119 1398 2916 
Q 1625 2713 2034 2713 
Q 2441 2713 2670 2916 
Q 2900 3119 2900 3481 
Q 2900 3844 2670 4047 
Q 2441 4250 2034 4250 
Q 1625 4250 1398 4047 
Q 1172 3844 1172 3481 
z
" id="DejaVuSans-38" transform="scale(0.015625)"/>
       </defs>
       <use xlink:href="#DejaVuSans-30"/>
       <use x="63.623047" xlink:href="#DejaVuSans-2e"/>
       <use x="95.410156" xlink:href="#DejaVuSans-39"/>
       <use x="159.033203" xlink:href="#DejaVuSans-38"/>
      </g>
     </g>
    </g>
    <g id="xtick_3">
     <g id="line2d_3">
      <g>
       <use style="stroke:#000000;stroke-width:0.8;" x="144" xlink:href="#mbb92349987" y="324"/>
      </g>
     </g>
     <g id="text_3">
      <!-- 1.00 -->
      <g transform="translate(132.867188 338.598437)scale(0.1 -0.1)">
       <defs>
        <path d="M 794 531 
L 1825 531 
L 1825 4091 
L 703 3866 
L 703 4441 
L 1819 4666 
L 2450 4666 
L 2450 531 
L 3481 531 
L 3481 0 
L 794 0 
L 794 531 
z
" id="DejaVuSans-31" transform="scale(0.015625)"/>
       </defs>
       <use xlink:href="#DejaVuSans-31"/>
       <use x="63.623047" xlink:href="#DejaVuSans-2e"/>
       <use x="95.410156" xlink:href="#DejaVuSans-30"/>
       <use x="159.033203" xlink:href="#DejaVuSans-30"/>
      </g>
     </g>
    </g>
    <g id="xtick_4">
     <g id="line2d_4">
      <g>
       <use style="stroke:#000000;stroke-width:0.8;" x="185.890909" xlink:href="#mbb92349987" y="324"/>
      </g>
     </g>
     <g id="text_4">
      <!-- 1.02 -->
      <g transform="translate(174.758097 338.598437)scale(0.1 -0.1)">
       <defs>
        <path d="M 1228 531 
L 3431 531 
L 3431 0 
L 469 0 
L 469 531 
Q 828 903 1448 1529 
Q 2069 2156 2228 2338 
Q 2531 2678 2651 2914 
Q 2772 3150 2772 3378 
Q 2772 3750 2511 3984 
Q 2250 4219 1831 4219 
Q 1534 4219 1204 4116 
Q 875 4013 500 3803 
L 500 4441 
Q 881 4594 1212 4672 
Q 1544 4750 1819 4750 
Q 2544 4750 2975 4387 
Q 3406 4025 3406 3419 
Q 3406 3131 3298 2873 
Q 3191 2616 2906 2266 
Q 2828 2175 2409 1742 
Q 1991 1309 1228 531 
z
" id="DejaVuSans-32" transform="scale(0.015625)"/>
       </defs>
       <use xlink:href="#DejaVuSans-31"/>
       <use x="63.623047" xlink:href="#DejaVuSans-2e"/>
       <use x="95.410156" xlink:href="#DejaVuSans-30"/>
       <use x="159.033203" xlink:href="#DejaVuSans-32"/>
      </g>
     </g>
    </g>
    <g id="xtick_5">
     <g id="line2d_5">
      <g>
       <use style="stroke:#000000;stroke-width:0.8;" x="227.781818" xlink:href="#mbb92349987" y="324"/>
      </g>
     </g>
     <g id="text_5">
      <!-- 1.04 -->
      <g transform="translate(216.649006 338.598437)scale(0.1 -0.1)">
       <defs>
        <path d="M 2419 4116 
L 825 1625 
L 2419 1625 
L 2419 4116 
z
M 2253 4666 
L 3047 4666 
L 3047 1625 
L 3713 1625 
L 3713 1100 
L 3047 1100 
L 3047 0 
L 2419 0 
L 2419 1100 
L 313 1100 
L 313 1709 
L 2253 4666 
z
" id="DejaVuSans-34" transform="scale(0.015625)"/>
       </defs>
       <use xlink:href="#DejaVuSans-31"/>
       <use x="63.623047" xlink:href="#DejaVuSans-2e"/>
       <use x="95.410156" xlink:href="#DejaVuSans-30"/>
       <use x="159.033203" xlink:href="#DejaVuSans-34"/>
      </g>
     </g>
    </g>
   </g>
   <g id="matplotlib.axis_2">
    <g id="ytick_1">
     <g id="line2d_6">
      <defs>
       <path d="M 0 0 
L -3.5 0 
" id="mcc7d7f50af" style="stroke:#000000;stroke-width:0.8;"/>
      </defs>
      <g>
       <use style="stroke:#000000;stroke-width:0.8;" x="28.8" xlink:href="#mcc7d7f50af" y="310.390062"/>
      </g>
     </g>
     <g id="text_6">
      <!-- 0 -->
      <g transform="translate(15.4375 314.18928)scale(0.1 -0.1)">
       <use xlink:href="#DejaVuSans-30"/>
      </g>
     </g>
    </g>
    <g id="ytick_2">
     <g id="line2d_7">
      <g>
       <use style="stroke:#000000;stroke-width:0.8;" x="28.8" xlink:href="#mcc7d7f50af" y="265.958234"/>
      </g>
     </g>
     <g id="text_7">
      <!-- 1 -->
      <g transform="translate(15.4375 269.757453)scale(0.1 -0.1)">
       <use xlink:href="#DejaVuSans-31"/>
      </g>
     </g>
    </g>
    <g id="ytick_3">
     <g id="line2d_8">
      <g>
       <use style="stroke:#000000;stroke-width:0.8;" x="28.8" xlink:href="#mcc7d7f50af" y="221.526406"/>
      </g>
     </g>
     <g id="text_8">
      <!-- 2 -->
      <g transform="translate(15.4375 225.325625)scale(0.1 -0.1)">
       <use xlink:href="#DejaVuSans-32"/>
      </g>
     </g>
    </g>
    <g id="ytick_4">
     <g id="line2d_9">
      <g>
       <use style="stroke:#000000;stroke-width:0.8;" x="28.8" xlink:href="#mcc7d7f50af" y="177.094579"/>
      </g>
     </g>
     <g id="text_9">
      <!-- 3 -->
      <g transform="translate(15.4375 180.893798)scale(0.1 -0.1)">
       <defs>
        <path d="M 2597 2516 
Q 3050 2419 3304 2112 
Q 3559 1806 3559 1356 
Q 3559 666 3084 287 
Q 2609 -91 1734 -91 
Q 1441 -91 1130 -33 
Q 819 25 488 141 
L 488 750 
Q 750 597 1062 519 
Q 1375 441 1716 441 
Q 2309 441 2620 675 
Q 2931 909 2931 1356 
Q 2931 1769 2642 2001 
Q 2353 2234 1838 2234 
L 1294 2234 
L 1294 2753 
L 1863 2753 
Q 2328 2753 2575 2939 
Q 2822 3125 2822 3475 
Q 2822 3834 2567 4026 
Q 2313 4219 1838 4219 
Q 1578 4219 1281 4162 
Q 984 4106 628 3988 
L 628 4550 
Q 988 4650 1302 4700 
Q 1616 4750 1894 4750 
Q 2613 4750 3031 4423 
Q 3450 4097 3450 3541 
Q 3450 3153 3228 2886 
Q 3006 2619 2597 2516 
z
" id="DejaVuSans-33" transform="scale(0.015625)"/>
       </defs>
       <use xlink:href="#DejaVuSans-33"/>
      </g>
     </g>
    </g>
    <g id="ytick_5">
     <g id="line2d_10">
      <g>
       <use style="stroke:#000000;stroke-width:0.8;" x="28.8" xlink:href="#mcc7d7f50af" y="132.662751"/>
      </g>
     </g>
     <g id="text_10">
      <!-- 4 -->
      <g transform="translate(15.4375 136.46197)scale(0.1 -0.1)">
       <use xlink:href="#DejaVuSans-34"/>
      </g>
     </g>
    </g>
    <g id="ytick_6">
     <g id="line2d_11">
      <g>
       <use style="stroke:#000000;stroke-width:0.8;" x="28.8" xlink:href="#mcc7d7f50af" y="88.230924"/>
      </g>
     </g>
     <g id="text_11">
      <!-- 5 -->
      <g transform="translate(15.4375 92.030143)scale(0.1 -0.1)">
       <defs>
        <path d="M 691 4666 
L 3169 4666 
L 3169 4134 
L 1269 4134 
L 1269 2991 
Q 1406 3038 1543 3061 
Q 1681 3084 1819 3084 
Q 2600 3084 3056 2656 
Q 3513 2228 3513 1497 
Q 3513 744 3044 326 
Q 2575 -91 1722 -91 
Q 1428 -91 1123 -41 
Q 819 9 494 109 
L 494 744 
Q 775 591 1075 516 
Q 1375 441 1709 441 
Q 2250 441 2565 725 
Q 2881 1009 2881 1497 
Q 2881 1984 2565 2268 
Q 2250 2553 1709 2553 
Q 1456 2553 1204 2497 
Q 953 2441 691 2322 
L 691 4666 
z
" id="DejaVuSans-35" transform="scale(0.015625)"/>
       </defs>
       <use xlink:href="#DejaVuSans-35"/>
      </g>
     </g>
    </g>
    <g id="ytick_7">
     <g id="line2d_12">
      <g>
       <use style="stroke:#000000;stroke-width:0.8;" x="28.8" xlink:href="#mcc7d7f50af" y="43.799096"/>
      </g>
     </g>
     <g id="text_12">
      <!-- 6 -->
      <g transform="translate(15.4375 47.598315)scale(0.1 -0.1)">
       <use xlink:href="#DejaVuSans-36"/>
      </g>
     </g>
    </g>
    <g id="text_13">
     <!-- $Average \; \; \Delta \pi(a \mid s) \; \; over \; \; states$ -->
     <g transform="translate(8.3575 286.19)rotate(-90)scale(0.14 -0.14)">
      <defs>
       <path d="M 2356 4666 
L 3072 4666 
L 3938 0 
L 3278 0 
L 3084 1197 
L 984 1197 
L 325 0 
L -341 0 
L 2356 4666 
z
M 2584 4044 
L 1275 1722 
L 2988 1722 
L 2584 4044 
z
" id="DejaVuSans-Oblique-41" transform="scale(0.015625)"/>
       <path d="M 459 3500 
L 1069 3500 
L 1581 525 
L 3256 3500 
L 3866 3500 
L 1875 0 
L 1100 0 
L 459 3500 
z
" id="DejaVuSans-Oblique-76" transform="scale(0.015625)"/>
       <path d="M 3078 2063 
Q 3088 2113 3092 2166 
Q 3097 2219 3097 2272 
Q 3097 2653 2873 2875 
Q 2650 3097 2266 3097 
Q 1838 3097 1509 2826 
Q 1181 2556 1013 2059 
L 3078 2063 
z
M 3578 1613 
L 903 1613 
Q 884 1494 878 1425 
Q 872 1356 872 1306 
Q 872 872 1139 634 
Q 1406 397 1894 397 
Q 2269 397 2603 481 
Q 2938 566 3225 728 
L 3116 159 
Q 2806 34 2476 -28 
Q 2147 -91 1806 -91 
Q 1078 -91 686 257 
Q 294 606 294 1247 
Q 294 1794 489 2264 
Q 684 2734 1063 3103 
Q 1306 3334 1642 3459 
Q 1978 3584 2356 3584 
Q 2950 3584 3301 3228 
Q 3653 2872 3653 2272 
Q 3653 2128 3634 1964 
Q 3616 1800 3578 1613 
z
" id="DejaVuSans-Oblique-65" transform="scale(0.015625)"/>
       <path d="M 2853 2969 
Q 2766 3016 2653 3041 
Q 2541 3066 2413 3066 
Q 1953 3066 1609 2717 
Q 1266 2369 1153 1784 
L 800 0 
L 225 0 
L 909 3500 
L 1484 3500 
L 1375 2956 
Q 1603 3259 1920 3421 
Q 2238 3584 2597 3584 
Q 2691 3584 2781 3573 
Q 2872 3563 2963 3538 
L 2853 2969 
z
" id="DejaVuSans-Oblique-72" transform="scale(0.015625)"/>
       <path d="M 3438 1997 
L 3047 0 
L 2472 0 
L 2578 531 
Q 2325 219 2001 64 
Q 1678 -91 1281 -91 
Q 834 -91 548 182 
Q 263 456 263 884 
Q 263 1497 752 1853 
Q 1241 2209 2100 2209 
L 2900 2209 
L 2931 2363 
Q 2938 2388 2941 2417 
Q 2944 2447 2944 2509 
Q 2944 2788 2717 2942 
Q 2491 3097 2081 3097 
Q 1800 3097 1504 3025 
Q 1209 2953 897 2809 
L 997 3341 
Q 1322 3463 1633 3523 
Q 1944 3584 2234 3584 
Q 2853 3584 3176 3315 
Q 3500 3047 3500 2534 
Q 3500 2431 3484 2292 
Q 3469 2153 3438 1997 
z
M 2816 1759 
L 2241 1759 
Q 1534 1759 1195 1570 
Q 856 1381 856 984 
Q 856 709 1029 553 
Q 1203 397 1509 397 
Q 1978 397 2328 733 
Q 2678 1069 2791 1631 
L 2816 1759 
z
" id="DejaVuSans-Oblique-61" transform="scale(0.015625)"/>
       <path d="M 3816 3500 
L 3219 434 
Q 3047 -456 2561 -893 
Q 2075 -1331 1253 -1331 
Q 950 -1331 690 -1286 
Q 431 -1241 206 -1147 
L 313 -588 
Q 525 -725 762 -790 
Q 1000 -856 1269 -856 
Q 1816 -856 2167 -557 
Q 2519 -259 2631 300 
L 2681 563 
Q 2441 288 2122 144 
Q 1803 0 1434 0 
Q 903 0 598 351 
Q 294 703 294 1319 
Q 294 1803 478 2267 
Q 663 2731 997 3091 
Q 1219 3328 1514 3456 
Q 1809 3584 2131 3584 
Q 2484 3584 2746 3420 
Q 3009 3256 3138 2956 
L 3238 3500 
L 3816 3500 
z
M 2950 2216 
Q 2950 2641 2750 2872 
Q 2550 3103 2181 3103 
Q 1953 3103 1747 3012 
Q 1541 2922 1394 2759 
Q 1156 2491 1023 2127 
Q 891 1763 891 1375 
Q 891 944 1092 712 
Q 1294 481 1672 481 
Q 2219 481 2584 976 
Q 2950 1472 2950 2216 
z
" id="DejaVuSans-Oblique-67" transform="scale(0.015625)"/>
       <path d="M 2188 4044 
L 906 525 
L 3472 525 
L 2188 4044 
z
M 50 0 
L 1831 4666 
L 2547 4666 
L 4325 0 
L 50 0 
z
" id="DejaVuSans-394" transform="scale(0.015625)"/>
       <path d="M 584 3500 
L 3938 3500 
L 3825 2925 
L 3384 2925 
L 2966 775 
Q 2922 550 2981 450 
Q 3038 353 3209 353 
Q 3256 353 3325 363 
Q 3397 369 3419 372 
L 3338 -44 
Q 3222 -84 3103 -103 
Q 2981 -122 2866 -122 
Q 2491 -122 2388 81 
Q 2284 288 2391 838 
L 2797 2925 
L 1506 2925 
L 938 0 
L 350 0 
L 919 2925 
L 472 2925 
L 584 3500 
z
" id="DejaVuSans-Oblique-3c0" transform="scale(0.015625)"/>
       <path d="M 1984 4856 
Q 1566 4138 1362 3434 
Q 1159 2731 1159 2009 
Q 1159 1288 1364 580 
Q 1569 -128 1984 -844 
L 1484 -844 
Q 1016 -109 783 600 
Q 550 1309 550 2009 
Q 550 2706 781 3412 
Q 1013 4119 1484 4856 
L 1984 4856 
z
" id="DejaVuSans-28" transform="scale(0.015625)"/>
       <path d="M 1350 4934 
L 1850 4934 
L 1850 -1369 
L 1350 -1369 
L 1350 4934 
z
" id="DejaVuSans-2223" transform="scale(0.015625)"/>
       <path d="M 3200 3397 
L 3091 2853 
Q 2863 2978 2609 3040 
Q 2356 3103 2088 3103 
Q 1634 3103 1373 2948 
Q 1113 2794 1113 2528 
Q 1113 2219 1719 2053 
Q 1766 2041 1788 2034 
L 1972 1978 
Q 2547 1819 2739 1644 
Q 2931 1469 2931 1166 
Q 2931 609 2489 259 
Q 2047 -91 1331 -91 
Q 1053 -91 747 -37 
Q 441 16 72 128 
L 184 722 
Q 500 559 806 475 
Q 1113 391 1394 391 
Q 1816 391 2080 572 
Q 2344 753 2344 1031 
Q 2344 1331 1650 1516 
L 1591 1531 
L 1394 1581 
Q 956 1697 753 1886 
Q 550 2075 550 2369 
Q 550 2928 970 3256 
Q 1391 3584 2113 3584 
Q 2397 3584 2667 3537 
Q 2938 3491 3200 3397 
z
" id="DejaVuSans-Oblique-73" transform="scale(0.015625)"/>
       <path d="M 513 4856 
L 1013 4856 
Q 1481 4119 1714 3412 
Q 1947 2706 1947 2009 
Q 1947 1309 1714 600 
Q 1481 -109 1013 -844 
L 513 -844 
Q 928 -128 1133 580 
Q 1338 1288 1338 2009 
Q 1338 2731 1133 3434 
Q 928 4138 513 4856 
z
" id="DejaVuSans-29" transform="scale(0.015625)"/>
       <path d="M 1625 -91 
Q 1009 -91 651 289 
Q 294 669 294 1325 
Q 294 1706 417 2101 
Q 541 2497 738 2766 
Q 1047 3184 1428 3384 
Q 1809 3584 2291 3584 
Q 2888 3584 3255 3212 
Q 3622 2841 3622 2241 
Q 3622 1825 3500 1412 
Q 3378 1000 3181 728 
Q 2875 309 2494 109 
Q 2113 -91 1625 -91 
z
M 891 1344 
Q 891 869 1089 633 
Q 1288 397 1691 397 
Q 2269 397 2648 901 
Q 3028 1406 3028 2181 
Q 3028 2634 2825 2865 
Q 2622 3097 2228 3097 
Q 1903 3097 1650 2945 
Q 1397 2794 1197 2484 
Q 1050 2253 970 1956 
Q 891 1659 891 1344 
z
" id="DejaVuSans-Oblique-6f" transform="scale(0.015625)"/>
       <path d="M 2706 3500 
L 2619 3053 
L 1472 3053 
L 1100 1153 
Q 1081 1047 1072 975 
Q 1063 903 1063 863 
Q 1063 663 1183 572 
Q 1303 481 1569 481 
L 2150 481 
L 2053 0 
L 1503 0 
Q 991 0 739 200 
Q 488 400 488 806 
Q 488 878 497 964 
Q 506 1050 525 1153 
L 897 3053 
L 409 3053 
L 500 3500 
L 978 3500 
L 1172 4494 
L 1747 4494 
L 1556 3500 
L 2706 3500 
z
" id="DejaVuSans-Oblique-74" transform="scale(0.015625)"/>
      </defs>
      <use transform="translate(0 0.90625)" xlink:href="#DejaVuSans-Oblique-41"/>
      <use transform="translate(68.408203 0.90625)" xlink:href="#DejaVuSans-Oblique-76"/>
      <use transform="translate(127.587891 0.90625)" xlink:href="#DejaVuSans-Oblique-65"/>
      <use transform="translate(189.111328 0.90625)" xlink:href="#DejaVuSans-Oblique-72"/>
      <use transform="translate(230.224609 0.90625)" xlink:href="#DejaVuSans-Oblique-61"/>
      <use transform="translate(291.503906 0.90625)" xlink:href="#DejaVuSans-Oblique-67"/>
      <use transform="translate(354.980469 0.90625)" xlink:href="#DejaVuSans-Oblique-65"/>
      <use transform="translate(470.622178 0.90625)" xlink:href="#DejaVuSans-394"/>
      <use transform="translate(539.030381 0.90625)" xlink:href="#DejaVuSans-Oblique-3c0"/>
      <use transform="translate(599.235459 0.90625)" xlink:href="#DejaVuSans-28"/>
      <use transform="translate(638.249131 0.90625)" xlink:href="#DejaVuSans-Oblique-61"/>
      <use transform="translate(719.01085 0.90625)" xlink:href="#DejaVuSans-2223"/>
      <use transform="translate(788.493271 0.90625)" xlink:href="#DejaVuSans-Oblique-73"/>
      <use transform="translate(840.592881 0.90625)" xlink:href="#DejaVuSans-29"/>
      <use transform="translate(933.724824 0.90625)" xlink:href="#DejaVuSans-Oblique-6f"/>
      <use transform="translate(994.906465 0.90625)" xlink:href="#DejaVuSans-Oblique-76"/>
      <use transform="translate(1054.086152 0.90625)" xlink:href="#DejaVuSans-Oblique-65"/>
      <use transform="translate(1115.60959 0.90625)" xlink:href="#DejaVuSans-Oblique-72"/>
      <use transform="translate(1210.841143 0.90625)" xlink:href="#DejaVuSans-Oblique-73"/>
      <use transform="translate(1262.940752 0.90625)" xlink:href="#DejaVuSans-Oblique-74"/>
      <use transform="translate(1302.149736 0.90625)" xlink:href="#DejaVuSans-Oblique-61"/>
      <use transform="translate(1363.429033 0.90625)" xlink:href="#DejaVuSans-Oblique-74"/>
      <use transform="translate(1402.638018 0.90625)" xlink:href="#DejaVuSans-Oblique-65"/>
      <use transform="translate(1464.161455 0.90625)" xlink:href="#DejaVuSans-Oblique-73"/>
     </g>
    </g>
   </g>
   <g id="line2d_13">
    <path clip-path="url(#pd8a4d4e7d6)" d="M 28.8 310.390062 
L 259.2 310.390062 
" style="fill:none;stroke:#000000;stroke-linecap:square;stroke-width:1.5;"/>
   </g>
   <g id="patch_4">
    <path d="M 28.8 324 
L 28.8 36 
" style="fill:none;stroke:#000000;stroke-linecap:square;stroke-linejoin:miter;stroke-width:0.8;"/>
   </g>
   <g id="patch_5">
    <path d="M 259.2 324 
L 259.2 36 
" style="fill:none;stroke:#000000;stroke-linecap:square;stroke-linejoin:miter;stroke-width:0.8;"/>
   </g>
   <g id="patch_6">
    <path d="M 28.8 324 
L 259.2 324 
" style="fill:none;stroke:#000000;stroke-linecap:square;stroke-linejoin:miter;stroke-width:0.8;"/>
   </g>
   <g id="patch_7">
    <path d="M 28.8 36 
L 259.2 36 
" style="fill:none;stroke:#000000;stroke-linecap:square;stroke-linejoin:miter;stroke-width:0.8;"/>
   </g>
  </g>
 </g>
 <defs>
  <clipPath id="pd8a4d4e7d6">
   <rect height="288" width="230.4" x="28.8" y="36"/>
  </clipPath>
 </defs>
</svg>
