<?xml version="1.0" encoding="utf-8" standalone="no"?>
<!DOCTYPE svg PUBLIC "-//W3C//DTD SVG 1.1//EN"
  "http://www.w3.org/Graphics/SVG/1.1/DTD/svg11.dtd">
<!-- Created with matplotlib (https://matplotlib.org/) -->
<svg height="288pt" version="1.1" viewBox="0 0 1008 288" width="1008pt" xmlns="http://www.w3.org/2000/svg" xmlns:xlink="http://www.w3.org/1999/xlink">
 <defs>
  <style type="text/css">
*{stroke-linecap:butt;stroke-linejoin:round;}
  </style>
 </defs>
 <g id="figure_1">
  <g id="patch_1">
   <path d="M 0 288 
L 1008 288 
L 1008 0 
L 0 0 
z
" style="fill:none;"/>
  </g>
  <g id="axes_1">
   <g id="patch_2">
    <path d="M 33.73 242.44 
L 485.575 242.44 
L 485.575 10.8 
L 33.73 10.8 
z
" style="fill:none;"/>
   </g>
   <g id="patch_3">
    <path clip-path="url(#p201463487d)" d="M 33.73 242.44 
L 74.806818 242.44 
L 74.806818 132.135238 
L 33.73 132.135238 
z
" style="fill:#0000ff;"/>
   </g>
   <g id="patch_4">
    <path clip-path="url(#p201463487d)" d="M 74.806818 242.44 
L 115.883636 242.44 
L 115.883636 65.952381 
L 74.806818 65.952381 
z
" style="fill:#0000ff;"/>
   </g>
   <g id="patch_5">
    <path clip-path="url(#p201463487d)" d="M 115.883636 242.44 
L 156.960455 242.44 
L 156.960455 176.257143 
L 115.883636 176.257143 
z
" style="fill:#0000ff;"/>
   </g>
   <g id="patch_6">
    <path clip-path="url(#p201463487d)" d="M 156.960455 242.44 
L 198.037273 242.44 
L 198.037273 242.44 
L 156.960455 242.44 
z
" style="fill:#0000ff;"/>
   </g>
   <g id="patch_7">
    <path clip-path="url(#p201463487d)" d="M 198.037273 242.44 
L 239.114091 242.44 
L 239.114091 176.257143 
L 198.037273 176.257143 
z
" style="fill:#0000ff;"/>
   </g>
   <g id="patch_8">
    <path clip-path="url(#p201463487d)" d="M 239.114091 242.44 
L 280.190909 242.44 
L 280.190909 242.44 
L 239.114091 242.44 
z
" style="fill:#0000ff;"/>
   </g>
   <g id="patch_9">
    <path clip-path="url(#p201463487d)" d="M 280.190909 242.44 
L 321.267727 242.44 
L 321.267727 242.44 
L 280.190909 242.44 
z
" style="fill:#0000ff;"/>
   </g>
   <g id="patch_10">
    <path clip-path="url(#p201463487d)" d="M 321.267727 242.44 
L 362.344545 242.44 
L 362.344545 242.44 
L 321.267727 242.44 
z
" style="fill:#0000ff;"/>
   </g>
   <g id="patch_11">
    <path clip-path="url(#p201463487d)" d="M 362.344545 242.44 
L 403.421364 242.44 
L 403.421364 242.44 
L 362.344545 242.44 
z
" style="fill:#0000ff;"/>
   </g>
   <g id="patch_12">
    <path clip-path="url(#p201463487d)" d="M 403.421364 242.44 
L 444.498182 242.44 
L 444.498182 242.44 
L 403.421364 242.44 
z
" style="fill:#0000ff;"/>
   </g>
   <g id="patch_13">
    <path clip-path="url(#p201463487d)" d="M 444.498182 242.44 
L 485.575 242.44 
L 485.575 220.379048 
L 444.498182 220.379048 
z
" style="fill:#0000ff;"/>
   </g>
   <g id="patch_14">
    <path clip-path="url(#p201463487d)" d="M 33.73 242.44 
L 74.806818 242.44 
L 74.806818 21.830476 
L 33.73 21.830476 
z
" style="fill:#ffa500;opacity:0.8;"/>
   </g>
   <g id="patch_15">
    <path clip-path="url(#p201463487d)" d="M 74.806818 242.44 
L 115.883636 242.44 
L 115.883636 88.013333 
L 74.806818 88.013333 
z
" style="fill:#ffa500;opacity:0.8;"/>
   </g>
   <g id="patch_16">
    <path clip-path="url(#p201463487d)" d="M 115.883636 242.44 
L 156.960455 242.44 
L 156.960455 198.318095 
L 115.883636 198.318095 
z
" style="fill:#ffa500;opacity:0.8;"/>
   </g>
   <g id="patch_17">
    <path clip-path="url(#p201463487d)" d="M 156.960455 242.44 
L 198.037273 242.44 
L 198.037273 220.379048 
L 156.960455 220.379048 
z
" style="fill:#ffa500;opacity:0.8;"/>
   </g>
   <g id="matplotlib.axis_1">
    <g id="xtick_1">
     <g id="line2d_1">
      <defs>
       <path d="M 0 0 
L 0 3.5 
" id="mba484e3379" style="stroke:#000000;stroke-width:0.8;"/>
      </defs>
      <g>
       <use style="stroke:#000000;stroke-width:0.8;" x="54.268409" xlink:href="#mba484e3379" y="242.44"/>
      </g>
     </g>
     <g id="text_1">
      <!-- 0 -->
      <defs>
       <path d="M 31.78125 66.40625 
Q 24.171875 66.40625 20.328125 58.90625 
Q 16.5 51.421875 16.5 36.375 
Q 16.5 21.390625 20.328125 13.890625 
Q 24.171875 6.390625 31.78125 6.390625 
Q 39.453125 6.390625 43.28125 13.890625 
Q 47.125 21.390625 47.125 36.375 
Q 47.125 51.421875 43.28125 58.90625 
Q 39.453125 66.40625 31.78125 66.40625 
z
M 31.78125 74.21875 
Q 44.046875 74.21875 50.515625 64.515625 
Q 56.984375 54.828125 56.984375 36.375 
Q 56.984375 17.96875 50.515625 8.265625 
Q 44.046875 -1.421875 31.78125 -1.421875 
Q 19.53125 -1.421875 13.0625 8.265625 
Q 6.59375 17.96875 6.59375 36.375 
Q 6.59375 54.828125 13.0625 64.515625 
Q 19.53125 74.21875 31.78125 74.21875 
z
" id="DejaVuSans-48"/>
      </defs>
      <g transform="translate(51.087159 257.038437)scale(0.1 -0.1)">
       <use xlink:href="#DejaVuSans-48"/>
      </g>
     </g>
    </g>
    <g id="xtick_2">
     <g id="line2d_2">
      <g>
       <use style="stroke:#000000;stroke-width:0.8;" x="136.422045" xlink:href="#mba484e3379" y="242.44"/>
      </g>
     </g>
     <g id="text_2">
      <!-- 2 -->
      <defs>
       <path d="M 19.1875 8.296875 
L 53.609375 8.296875 
L 53.609375 0 
L 7.328125 0 
L 7.328125 8.296875 
Q 12.9375 14.109375 22.625 23.890625 
Q 32.328125 33.6875 34.8125 36.53125 
Q 39.546875 41.84375 41.421875 45.53125 
Q 43.3125 49.21875 43.3125 52.78125 
Q 43.3125 58.59375 39.234375 62.25 
Q 35.15625 65.921875 28.609375 65.921875 
Q 23.96875 65.921875 18.8125 64.3125 
Q 13.671875 62.703125 7.8125 59.421875 
L 7.8125 69.390625 
Q 13.765625 71.78125 18.9375 73 
Q 24.125 74.21875 28.421875 74.21875 
Q 39.75 74.21875 46.484375 68.546875 
Q 53.21875 62.890625 53.21875 53.421875 
Q 53.21875 48.921875 51.53125 44.890625 
Q 49.859375 40.875 45.40625 35.40625 
Q 44.1875 33.984375 37.640625 27.21875 
Q 31.109375 20.453125 19.1875 8.296875 
z
" id="DejaVuSans-50"/>
      </defs>
      <g transform="translate(133.240795 257.038437)scale(0.1 -0.1)">
       <use xlink:href="#DejaVuSans-50"/>
      </g>
     </g>
    </g>
    <g id="xtick_3">
     <g id="line2d_3">
      <g>
       <use style="stroke:#000000;stroke-width:0.8;" x="218.575682" xlink:href="#mba484e3379" y="242.44"/>
      </g>
     </g>
     <g id="text_3">
      <!-- 4 -->
      <defs>
       <path d="M 37.796875 64.3125 
L 12.890625 25.390625 
L 37.796875 25.390625 
z
M 35.203125 72.90625 
L 47.609375 72.90625 
L 47.609375 25.390625 
L 58.015625 25.390625 
L 58.015625 17.1875 
L 47.609375 17.1875 
L 47.609375 0 
L 37.796875 0 
L 37.796875 17.1875 
L 4.890625 17.1875 
L 4.890625 26.703125 
z
" id="DejaVuSans-52"/>
      </defs>
      <g transform="translate(215.394432 257.038437)scale(0.1 -0.1)">
       <use xlink:href="#DejaVuSans-52"/>
      </g>
     </g>
    </g>
    <g id="xtick_4">
     <g id="line2d_4">
      <g>
       <use style="stroke:#000000;stroke-width:0.8;" x="300.729318" xlink:href="#mba484e3379" y="242.44"/>
      </g>
     </g>
     <g id="text_4">
      <!-- 6 -->
      <defs>
       <path d="M 33.015625 40.375 
Q 26.375 40.375 22.484375 35.828125 
Q 18.609375 31.296875 18.609375 23.390625 
Q 18.609375 15.53125 22.484375 10.953125 
Q 26.375 6.390625 33.015625 6.390625 
Q 39.65625 6.390625 43.53125 10.953125 
Q 47.40625 15.53125 47.40625 23.390625 
Q 47.40625 31.296875 43.53125 35.828125 
Q 39.65625 40.375 33.015625 40.375 
z
M 52.59375 71.296875 
L 52.59375 62.3125 
Q 48.875 64.0625 45.09375 64.984375 
Q 41.3125 65.921875 37.59375 65.921875 
Q 27.828125 65.921875 22.671875 59.328125 
Q 17.53125 52.734375 16.796875 39.40625 
Q 19.671875 43.65625 24.015625 45.921875 
Q 28.375 48.1875 33.59375 48.1875 
Q 44.578125 48.1875 50.953125 41.515625 
Q 57.328125 34.859375 57.328125 23.390625 
Q 57.328125 12.15625 50.6875 5.359375 
Q 44.046875 -1.421875 33.015625 -1.421875 
Q 20.359375 -1.421875 13.671875 8.265625 
Q 6.984375 17.96875 6.984375 36.375 
Q 6.984375 53.65625 15.1875 63.9375 
Q 23.390625 74.21875 37.203125 74.21875 
Q 40.921875 74.21875 44.703125 73.484375 
Q 48.484375 72.75 52.59375 71.296875 
z
" id="DejaVuSans-54"/>
      </defs>
      <g transform="translate(297.548068 257.038437)scale(0.1 -0.1)">
       <use xlink:href="#DejaVuSans-54"/>
      </g>
     </g>
    </g>
    <g id="xtick_5">
     <g id="line2d_5">
      <g>
       <use style="stroke:#000000;stroke-width:0.8;" x="382.882955" xlink:href="#mba484e3379" y="242.44"/>
      </g>
     </g>
     <g id="text_5">
      <!-- 8 -->
      <defs>
       <path d="M 31.78125 34.625 
Q 24.75 34.625 20.71875 30.859375 
Q 16.703125 27.09375 16.703125 20.515625 
Q 16.703125 13.921875 20.71875 10.15625 
Q 24.75 6.390625 31.78125 6.390625 
Q 38.8125 6.390625 42.859375 10.171875 
Q 46.921875 13.96875 46.921875 20.515625 
Q 46.921875 27.09375 42.890625 30.859375 
Q 38.875 34.625 31.78125 34.625 
z
M 21.921875 38.8125 
Q 15.578125 40.375 12.03125 44.71875 
Q 8.5 49.078125 8.5 55.328125 
Q 8.5 64.0625 14.71875 69.140625 
Q 20.953125 74.21875 31.78125 74.21875 
Q 42.671875 74.21875 48.875 69.140625 
Q 55.078125 64.0625 55.078125 55.328125 
Q 55.078125 49.078125 51.53125 44.71875 
Q 48 40.375 41.703125 38.8125 
Q 48.828125 37.15625 52.796875 32.3125 
Q 56.78125 27.484375 56.78125 20.515625 
Q 56.78125 9.90625 50.3125 4.234375 
Q 43.84375 -1.421875 31.78125 -1.421875 
Q 19.734375 -1.421875 13.25 4.234375 
Q 6.78125 9.90625 6.78125 20.515625 
Q 6.78125 27.484375 10.78125 32.3125 
Q 14.796875 37.15625 21.921875 38.8125 
z
M 18.3125 54.390625 
Q 18.3125 48.734375 21.84375 45.5625 
Q 25.390625 42.390625 31.78125 42.390625 
Q 38.140625 42.390625 41.71875 45.5625 
Q 45.3125 48.734375 45.3125 54.390625 
Q 45.3125 60.0625 41.71875 63.234375 
Q 38.140625 66.40625 31.78125 66.40625 
Q 25.390625 66.40625 21.84375 63.234375 
Q 18.3125 60.0625 18.3125 54.390625 
z
" id="DejaVuSans-56"/>
      </defs>
      <g transform="translate(379.701705 257.038437)scale(0.1 -0.1)">
       <use xlink:href="#DejaVuSans-56"/>
      </g>
     </g>
    </g>
    <g id="xtick_6">
     <g id="line2d_6">
      <g>
       <use style="stroke:#000000;stroke-width:0.8;" x="465.036591" xlink:href="#mba484e3379" y="242.44"/>
      </g>
     </g>
     <g id="text_6">
      <!-- 10 -->
      <defs>
       <path d="M 12.40625 8.296875 
L 28.515625 8.296875 
L 28.515625 63.921875 
L 10.984375 60.40625 
L 10.984375 69.390625 
L 28.421875 72.90625 
L 38.28125 72.90625 
L 38.28125 8.296875 
L 54.390625 8.296875 
L 54.390625 0 
L 12.40625 0 
z
" id="DejaVuSans-49"/>
      </defs>
      <g transform="translate(458.674091 257.038437)scale(0.1 -0.1)">
       <use xlink:href="#DejaVuSans-49"/>
       <use x="63.623047" xlink:href="#DejaVuSans-48"/>
      </g>
     </g>
    </g>
    <g id="text_7">
     <!-- Number of replays per trial -->
     <defs>
      <path d="M 9.8125 72.90625 
L 23.09375 72.90625 
L 55.421875 11.921875 
L 55.421875 72.90625 
L 64.984375 72.90625 
L 64.984375 0 
L 51.703125 0 
L 19.390625 60.984375 
L 19.390625 0 
L 9.8125 0 
z
" id="DejaVuSans-78"/>
      <path d="M 8.5 21.578125 
L 8.5 54.6875 
L 17.484375 54.6875 
L 17.484375 21.921875 
Q 17.484375 14.15625 20.5 10.265625 
Q 23.53125 6.390625 29.59375 6.390625 
Q 36.859375 6.390625 41.078125 11.03125 
Q 45.3125 15.671875 45.3125 23.6875 
L 45.3125 54.6875 
L 54.296875 54.6875 
L 54.296875 0 
L 45.3125 0 
L 45.3125 8.40625 
Q 42.046875 3.421875 37.71875 1 
Q 33.40625 -1.421875 27.6875 -1.421875 
Q 18.265625 -1.421875 13.375 4.4375 
Q 8.5 10.296875 8.5 21.578125 
z
M 31.109375 56 
z
" id="DejaVuSans-117"/>
      <path d="M 52 44.1875 
Q 55.375 50.25 60.0625 53.125 
Q 64.75 56 71.09375 56 
Q 79.640625 56 84.28125 50.015625 
Q 88.921875 44.046875 88.921875 33.015625 
L 88.921875 0 
L 79.890625 0 
L 79.890625 32.71875 
Q 79.890625 40.578125 77.09375 44.375 
Q 74.3125 48.1875 68.609375 48.1875 
Q 61.625 48.1875 57.5625 43.546875 
Q 53.515625 38.921875 53.515625 30.90625 
L 53.515625 0 
L 44.484375 0 
L 44.484375 32.71875 
Q 44.484375 40.625 41.703125 44.40625 
Q 38.921875 48.1875 33.109375 48.1875 
Q 26.21875 48.1875 22.15625 43.53125 
Q 18.109375 38.875 18.109375 30.90625 
L 18.109375 0 
L 9.078125 0 
L 9.078125 54.6875 
L 18.109375 54.6875 
L 18.109375 46.1875 
Q 21.1875 51.21875 25.484375 53.609375 
Q 29.78125 56 35.6875 56 
Q 41.65625 56 45.828125 52.96875 
Q 50 49.953125 52 44.1875 
z
" id="DejaVuSans-109"/>
      <path d="M 48.6875 27.296875 
Q 48.6875 37.203125 44.609375 42.84375 
Q 40.53125 48.484375 33.40625 48.484375 
Q 26.265625 48.484375 22.1875 42.84375 
Q 18.109375 37.203125 18.109375 27.296875 
Q 18.109375 17.390625 22.1875 11.75 
Q 26.265625 6.109375 33.40625 6.109375 
Q 40.53125 6.109375 44.609375 11.75 
Q 48.6875 17.390625 48.6875 27.296875 
z
M 18.109375 46.390625 
Q 20.953125 51.265625 25.265625 53.625 
Q 29.59375 56 35.59375 56 
Q 45.5625 56 51.78125 48.09375 
Q 58.015625 40.1875 58.015625 27.296875 
Q 58.015625 14.40625 51.78125 6.484375 
Q 45.5625 -1.421875 35.59375 -1.421875 
Q 29.59375 -1.421875 25.265625 0.953125 
Q 20.953125 3.328125 18.109375 8.203125 
L 18.109375 0 
L 9.078125 0 
L 9.078125 75.984375 
L 18.109375 75.984375 
z
" id="DejaVuSans-98"/>
      <path d="M 56.203125 29.59375 
L 56.203125 25.203125 
L 14.890625 25.203125 
Q 15.484375 15.921875 20.484375 11.0625 
Q 25.484375 6.203125 34.421875 6.203125 
Q 39.59375 6.203125 44.453125 7.46875 
Q 49.3125 8.734375 54.109375 11.28125 
L 54.109375 2.78125 
Q 49.265625 0.734375 44.1875 -0.34375 
Q 39.109375 -1.421875 33.890625 -1.421875 
Q 20.796875 -1.421875 13.15625 6.1875 
Q 5.515625 13.8125 5.515625 26.8125 
Q 5.515625 40.234375 12.765625 48.109375 
Q 20.015625 56 32.328125 56 
Q 43.359375 56 49.78125 48.890625 
Q 56.203125 41.796875 56.203125 29.59375 
z
M 47.21875 32.234375 
Q 47.125 39.59375 43.09375 43.984375 
Q 39.0625 48.390625 32.421875 48.390625 
Q 24.90625 48.390625 20.390625 44.140625 
Q 15.875 39.890625 15.1875 32.171875 
z
" id="DejaVuSans-101"/>
      <path d="M 41.109375 46.296875 
Q 39.59375 47.171875 37.8125 47.578125 
Q 36.03125 48 33.890625 48 
Q 26.265625 48 22.1875 43.046875 
Q 18.109375 38.09375 18.109375 28.8125 
L 18.109375 0 
L 9.078125 0 
L 9.078125 54.6875 
L 18.109375 54.6875 
L 18.109375 46.1875 
Q 20.953125 51.171875 25.484375 53.578125 
Q 30.03125 56 36.53125 56 
Q 37.453125 56 38.578125 55.875 
Q 39.703125 55.765625 41.0625 55.515625 
z
" id="DejaVuSans-114"/>
      <path id="DejaVuSans-32"/>
      <path d="M 30.609375 48.390625 
Q 23.390625 48.390625 19.1875 42.75 
Q 14.984375 37.109375 14.984375 27.296875 
Q 14.984375 17.484375 19.15625 11.84375 
Q 23.34375 6.203125 30.609375 6.203125 
Q 37.796875 6.203125 41.984375 11.859375 
Q 46.1875 17.53125 46.1875 27.296875 
Q 46.1875 37.015625 41.984375 42.703125 
Q 37.796875 48.390625 30.609375 48.390625 
z
M 30.609375 56 
Q 42.328125 56 49.015625 48.375 
Q 55.71875 40.765625 55.71875 27.296875 
Q 55.71875 13.875 49.015625 6.21875 
Q 42.328125 -1.421875 30.609375 -1.421875 
Q 18.84375 -1.421875 12.171875 6.21875 
Q 5.515625 13.875 5.515625 27.296875 
Q 5.515625 40.765625 12.171875 48.375 
Q 18.84375 56 30.609375 56 
z
" id="DejaVuSans-111"/>
      <path d="M 37.109375 75.984375 
L 37.109375 68.5 
L 28.515625 68.5 
Q 23.6875 68.5 21.796875 66.546875 
Q 19.921875 64.59375 19.921875 59.515625 
L 19.921875 54.6875 
L 34.71875 54.6875 
L 34.71875 47.703125 
L 19.921875 47.703125 
L 19.921875 0 
L 10.890625 0 
L 10.890625 47.703125 
L 2.296875 47.703125 
L 2.296875 54.6875 
L 10.890625 54.6875 
L 10.890625 58.5 
Q 10.890625 67.625 15.140625 71.796875 
Q 19.390625 75.984375 28.609375 75.984375 
z
" id="DejaVuSans-102"/>
      <path d="M 18.109375 8.203125 
L 18.109375 -20.796875 
L 9.078125 -20.796875 
L 9.078125 54.6875 
L 18.109375 54.6875 
L 18.109375 46.390625 
Q 20.953125 51.265625 25.265625 53.625 
Q 29.59375 56 35.59375 56 
Q 45.5625 56 51.78125 48.09375 
Q 58.015625 40.1875 58.015625 27.296875 
Q 58.015625 14.40625 51.78125 6.484375 
Q 45.5625 -1.421875 35.59375 -1.421875 
Q 29.59375 -1.421875 25.265625 0.953125 
Q 20.953125 3.328125 18.109375 8.203125 
z
M 48.6875 27.296875 
Q 48.6875 37.203125 44.609375 42.84375 
Q 40.53125 48.484375 33.40625 48.484375 
Q 26.265625 48.484375 22.1875 42.84375 
Q 18.109375 37.203125 18.109375 27.296875 
Q 18.109375 17.390625 22.1875 11.75 
Q 26.265625 6.109375 33.40625 6.109375 
Q 40.53125 6.109375 44.609375 11.75 
Q 48.6875 17.390625 48.6875 27.296875 
z
" id="DejaVuSans-112"/>
      <path d="M 9.421875 75.984375 
L 18.40625 75.984375 
L 18.40625 0 
L 9.421875 0 
z
" id="DejaVuSans-108"/>
      <path d="M 34.28125 27.484375 
Q 23.390625 27.484375 19.1875 25 
Q 14.984375 22.515625 14.984375 16.5 
Q 14.984375 11.71875 18.140625 8.90625 
Q 21.296875 6.109375 26.703125 6.109375 
Q 34.1875 6.109375 38.703125 11.40625 
Q 43.21875 16.703125 43.21875 25.484375 
L 43.21875 27.484375 
z
M 52.203125 31.203125 
L 52.203125 0 
L 43.21875 0 
L 43.21875 8.296875 
Q 40.140625 3.328125 35.546875 0.953125 
Q 30.953125 -1.421875 24.3125 -1.421875 
Q 15.921875 -1.421875 10.953125 3.296875 
Q 6 8.015625 6 15.921875 
Q 6 25.140625 12.171875 29.828125 
Q 18.359375 34.515625 30.609375 34.515625 
L 43.21875 34.515625 
L 43.21875 35.40625 
Q 43.21875 41.609375 39.140625 45 
Q 35.0625 48.390625 27.6875 48.390625 
Q 23 48.390625 18.546875 47.265625 
Q 14.109375 46.140625 10.015625 43.890625 
L 10.015625 52.203125 
Q 14.9375 54.109375 19.578125 55.046875 
Q 24.21875 56 28.609375 56 
Q 40.484375 56 46.34375 49.84375 
Q 52.203125 43.703125 52.203125 31.203125 
z
" id="DejaVuSans-97"/>
      <path d="M 32.171875 -5.078125 
Q 28.375 -14.84375 24.75 -17.8125 
Q 21.140625 -20.796875 15.09375 -20.796875 
L 7.90625 -20.796875 
L 7.90625 -13.28125 
L 13.1875 -13.28125 
Q 16.890625 -13.28125 18.9375 -11.515625 
Q 21 -9.765625 23.484375 -3.21875 
L 25.09375 0.875 
L 2.984375 54.6875 
L 12.5 54.6875 
L 29.59375 11.921875 
L 46.6875 54.6875 
L 56.203125 54.6875 
z
" id="DejaVuSans-121"/>
      <path d="M 44.28125 53.078125 
L 44.28125 44.578125 
Q 40.484375 46.53125 36.375 47.5 
Q 32.28125 48.484375 27.875 48.484375 
Q 21.1875 48.484375 17.84375 46.4375 
Q 14.5 44.390625 14.5 40.28125 
Q 14.5 37.15625 16.890625 35.375 
Q 19.28125 33.59375 26.515625 31.984375 
L 29.59375 31.296875 
Q 39.15625 29.25 43.1875 25.515625 
Q 47.21875 21.78125 47.21875 15.09375 
Q 47.21875 7.46875 41.1875 3.015625 
Q 35.15625 -1.421875 24.609375 -1.421875 
Q 20.21875 -1.421875 15.453125 -0.5625 
Q 10.6875 0.296875 5.421875 2 
L 5.421875 11.28125 
Q 10.40625 8.6875 15.234375 7.390625 
Q 20.0625 6.109375 24.8125 6.109375 
Q 31.15625 6.109375 34.5625 8.28125 
Q 37.984375 10.453125 37.984375 14.40625 
Q 37.984375 18.0625 35.515625 20.015625 
Q 33.0625 21.96875 24.703125 23.78125 
L 21.578125 24.515625 
Q 13.234375 26.265625 9.515625 29.90625 
Q 5.8125 33.546875 5.8125 39.890625 
Q 5.8125 47.609375 11.28125 51.796875 
Q 16.75 56 26.8125 56 
Q 31.78125 56 36.171875 55.265625 
Q 40.578125 54.546875 44.28125 53.078125 
z
" id="DejaVuSans-115"/>
      <path d="M 18.3125 70.21875 
L 18.3125 54.6875 
L 36.8125 54.6875 
L 36.8125 47.703125 
L 18.3125 47.703125 
L 18.3125 18.015625 
Q 18.3125 11.328125 20.140625 9.421875 
Q 21.96875 7.515625 27.59375 7.515625 
L 36.8125 7.515625 
L 36.8125 0 
L 27.59375 0 
Q 17.1875 0 13.234375 3.875 
Q 9.28125 7.765625 9.28125 18.015625 
L 9.28125 47.703125 
L 2.6875 47.703125 
L 2.6875 54.6875 
L 9.28125 54.6875 
L 9.28125 70.21875 
z
" id="DejaVuSans-116"/>
      <path d="M 9.421875 54.6875 
L 18.40625 54.6875 
L 18.40625 0 
L 9.421875 0 
z
M 9.421875 75.984375 
L 18.40625 75.984375 
L 18.40625 64.59375 
L 9.421875 64.59375 
z
" id="DejaVuSans-105"/>
     </defs>
     <g transform="translate(164.805781 273.755938)scale(0.14 -0.14)">
      <use xlink:href="#DejaVuSans-78"/>
      <use x="74.804688" xlink:href="#DejaVuSans-117"/>
      <use x="138.183594" xlink:href="#DejaVuSans-109"/>
      <use x="235.595703" xlink:href="#DejaVuSans-98"/>
      <use x="299.072266" xlink:href="#DejaVuSans-101"/>
      <use x="360.595703" xlink:href="#DejaVuSans-114"/>
      <use x="401.708984" xlink:href="#DejaVuSans-32"/>
      <use x="433.496094" xlink:href="#DejaVuSans-111"/>
      <use x="494.677734" xlink:href="#DejaVuSans-102"/>
      <use x="529.882812" xlink:href="#DejaVuSans-32"/>
      <use x="561.669922" xlink:href="#DejaVuSans-114"/>
      <use x="602.751953" xlink:href="#DejaVuSans-101"/>
      <use x="664.275391" xlink:href="#DejaVuSans-112"/>
      <use x="727.751953" xlink:href="#DejaVuSans-108"/>
      <use x="755.535156" xlink:href="#DejaVuSans-97"/>
      <use x="816.814453" xlink:href="#DejaVuSans-121"/>
      <use x="875.994141" xlink:href="#DejaVuSans-115"/>
      <use x="928.09375" xlink:href="#DejaVuSans-32"/>
      <use x="959.880859" xlink:href="#DejaVuSans-112"/>
      <use x="1023.357422" xlink:href="#DejaVuSans-101"/>
      <use x="1084.880859" xlink:href="#DejaVuSans-114"/>
      <use x="1125.994141" xlink:href="#DejaVuSans-32"/>
      <use x="1157.78125" xlink:href="#DejaVuSans-116"/>
      <use x="1196.990234" xlink:href="#DejaVuSans-114"/>
      <use x="1238.103516" xlink:href="#DejaVuSans-105"/>
      <use x="1265.886719" xlink:href="#DejaVuSans-97"/>
      <use x="1327.166016" xlink:href="#DejaVuSans-108"/>
     </g>
    </g>
   </g>
   <g id="matplotlib.axis_2">
    <g id="ytick_1">
     <g id="line2d_7">
      <defs>
       <path d="M 0 0 
L -3.5 0 
" id="md9b3924735" style="stroke:#000000;stroke-width:0.8;"/>
      </defs>
      <g>
       <use style="stroke:#000000;stroke-width:0.8;" x="33.73" xlink:href="#md9b3924735" y="242.44"/>
      </g>
     </g>
     <g id="text_8">
      <!-- 0.0 -->
      <defs>
       <path d="M 10.6875 12.40625 
L 21 12.40625 
L 21 0 
L 10.6875 0 
z
" id="DejaVuSans-46"/>
      </defs>
      <g transform="translate(10.826875 246.239219)scale(0.1 -0.1)">
       <use xlink:href="#DejaVuSans-48"/>
       <use x="63.623047" xlink:href="#DejaVuSans-46"/>
       <use x="95.410156" xlink:href="#DejaVuSans-48"/>
      </g>
     </g>
    </g>
    <g id="ytick_2">
     <g id="line2d_8">
      <g>
       <use style="stroke:#000000;stroke-width:0.8;" x="33.73" xlink:href="#md9b3924735" y="198.318095"/>
      </g>
     </g>
     <g id="text_9">
      <!-- 0.1 -->
      <g transform="translate(10.826875 202.117314)scale(0.1 -0.1)">
       <use xlink:href="#DejaVuSans-48"/>
       <use x="63.623047" xlink:href="#DejaVuSans-46"/>
       <use x="95.410156" xlink:href="#DejaVuSans-49"/>
      </g>
     </g>
    </g>
    <g id="ytick_3">
     <g id="line2d_9">
      <g>
       <use style="stroke:#000000;stroke-width:0.8;" x="33.73" xlink:href="#md9b3924735" y="154.19619"/>
      </g>
     </g>
     <g id="text_10">
      <!-- 0.2 -->
      <g transform="translate(10.826875 157.995409)scale(0.1 -0.1)">
       <use xlink:href="#DejaVuSans-48"/>
       <use x="63.623047" xlink:href="#DejaVuSans-46"/>
       <use x="95.410156" xlink:href="#DejaVuSans-50"/>
      </g>
     </g>
    </g>
    <g id="ytick_4">
     <g id="line2d_10">
      <g>
       <use style="stroke:#000000;stroke-width:0.8;" x="33.73" xlink:href="#md9b3924735" y="110.074286"/>
      </g>
     </g>
     <g id="text_11">
      <!-- 0.3 -->
      <defs>
       <path d="M 40.578125 39.3125 
Q 47.65625 37.796875 51.625 33 
Q 55.609375 28.21875 55.609375 21.1875 
Q 55.609375 10.40625 48.1875 4.484375 
Q 40.765625 -1.421875 27.09375 -1.421875 
Q 22.515625 -1.421875 17.65625 -0.515625 
Q 12.796875 0.390625 7.625 2.203125 
L 7.625 11.71875 
Q 11.71875 9.328125 16.59375 8.109375 
Q 21.484375 6.890625 26.8125 6.890625 
Q 36.078125 6.890625 40.9375 10.546875 
Q 45.796875 14.203125 45.796875 21.1875 
Q 45.796875 27.640625 41.28125 31.265625 
Q 36.765625 34.90625 28.71875 34.90625 
L 20.21875 34.90625 
L 20.21875 43.015625 
L 29.109375 43.015625 
Q 36.375 43.015625 40.234375 45.921875 
Q 44.09375 48.828125 44.09375 54.296875 
Q 44.09375 59.90625 40.109375 62.90625 
Q 36.140625 65.921875 28.71875 65.921875 
Q 24.65625 65.921875 20.015625 65.03125 
Q 15.375 64.15625 9.8125 62.3125 
L 9.8125 71.09375 
Q 15.4375 72.65625 20.34375 73.4375 
Q 25.25 74.21875 29.59375 74.21875 
Q 40.828125 74.21875 47.359375 69.109375 
Q 53.90625 64.015625 53.90625 55.328125 
Q 53.90625 49.265625 50.4375 45.09375 
Q 46.96875 40.921875 40.578125 39.3125 
z
" id="DejaVuSans-51"/>
      </defs>
      <g transform="translate(10.826875 113.873504)scale(0.1 -0.1)">
       <use xlink:href="#DejaVuSans-48"/>
       <use x="63.623047" xlink:href="#DejaVuSans-46"/>
       <use x="95.410156" xlink:href="#DejaVuSans-51"/>
      </g>
     </g>
    </g>
    <g id="ytick_5">
     <g id="line2d_11">
      <g>
       <use style="stroke:#000000;stroke-width:0.8;" x="33.73" xlink:href="#md9b3924735" y="65.952381"/>
      </g>
     </g>
     <g id="text_12">
      <!-- 0.4 -->
      <g transform="translate(10.826875 69.7516)scale(0.1 -0.1)">
       <use xlink:href="#DejaVuSans-48"/>
       <use x="63.623047" xlink:href="#DejaVuSans-46"/>
       <use x="95.410156" xlink:href="#DejaVuSans-52"/>
      </g>
     </g>
    </g>
    <g id="ytick_6">
     <g id="line2d_12">
      <g>
       <use style="stroke:#000000;stroke-width:0.8;" x="33.73" xlink:href="#md9b3924735" y="21.830476"/>
      </g>
     </g>
     <g id="text_13">
      <!-- 0.5 -->
      <defs>
       <path d="M 10.796875 72.90625 
L 49.515625 72.90625 
L 49.515625 64.59375 
L 19.828125 64.59375 
L 19.828125 46.734375 
Q 21.96875 47.46875 24.109375 47.828125 
Q 26.265625 48.1875 28.421875 48.1875 
Q 40.625 48.1875 47.75 41.5 
Q 54.890625 34.8125 54.890625 23.390625 
Q 54.890625 11.625 47.5625 5.09375 
Q 40.234375 -1.421875 26.90625 -1.421875 
Q 22.3125 -1.421875 17.546875 -0.640625 
Q 12.796875 0.140625 7.71875 1.703125 
L 7.71875 11.625 
Q 12.109375 9.234375 16.796875 8.0625 
Q 21.484375 6.890625 26.703125 6.890625 
Q 35.15625 6.890625 40.078125 11.328125 
Q 45.015625 15.765625 45.015625 23.390625 
Q 45.015625 31 40.078125 35.4375 
Q 35.15625 39.890625 26.703125 39.890625 
Q 22.75 39.890625 18.8125 39.015625 
Q 14.890625 38.140625 10.796875 36.28125 
z
" id="DejaVuSans-53"/>
      </defs>
      <g transform="translate(10.826875 25.629695)scale(0.1 -0.1)">
       <use xlink:href="#DejaVuSans-48"/>
       <use x="63.623047" xlink:href="#DejaVuSans-46"/>
       <use x="95.410156" xlink:href="#DejaVuSans-53"/>
      </g>
     </g>
    </g>
   </g>
   <g id="patch_18">
    <path d="M 33.73 242.44 
L 33.73 10.8 
" style="fill:none;stroke:#000000;stroke-linecap:square;stroke-linejoin:miter;stroke-width:0.8;"/>
   </g>
   <g id="patch_19">
    <path d="M 485.575 242.44 
L 485.575 10.8 
" style="fill:none;stroke:#000000;stroke-linecap:square;stroke-linejoin:miter;stroke-width:0.8;"/>
   </g>
   <g id="patch_20">
    <path d="M 33.73 242.44 
L 485.575 242.44 
" style="fill:none;stroke:#000000;stroke-linecap:square;stroke-linejoin:miter;stroke-width:0.8;"/>
   </g>
   <g id="patch_21">
    <path d="M 33.73 10.8 
L 485.575 10.8 
" style="fill:none;stroke:#000000;stroke-linecap:square;stroke-linejoin:miter;stroke-width:0.8;"/>
   </g>
  </g>
  <g id="axes_2">
   <g id="patch_22">
    <path d="M 545.355 242.44 
L 997.2 242.44 
L 997.2 10.8 
L 545.355 10.8 
z
" style="fill:none;"/>
   </g>
   <g id="patch_23">
    <path clip-path="url(#p8e41bb0b96)" d="M 545.355 126.62 
L 556.940769 126.62 
L 556.940769 126.62 
L 545.355 126.62 
z
" style="fill:#0000ff;"/>
   </g>
   <g id="patch_24">
    <path clip-path="url(#p8e41bb0b96)" d="M 556.940769 126.62 
L 568.526538 126.62 
L 568.526538 125.779804 
L 556.940769 125.779804 
z
" style="fill:#0000ff;"/>
   </g>
   <g id="patch_25">
    <path clip-path="url(#p8e41bb0b96)" d="M 568.526538 126.62 
L 580.112308 126.62 
L 580.112308 126.199902 
L 568.526538 126.199902 
z
" style="fill:#0000ff;"/>
   </g>
   <g id="patch_26">
    <path clip-path="url(#p8e41bb0b96)" d="M 580.112308 126.62 
L 591.698077 126.62 
L 591.698077 118.638134 
L 580.112308 118.638134 
z
" style="fill:#0000ff;"/>
   </g>
   <g id="patch_27">
    <path clip-path="url(#p8e41bb0b96)" d="M 591.698077 126.62 
L 603.283846 126.62 
L 603.283846 111.356433 
L 591.698077 111.356433 
z
" style="fill:#0000ff;"/>
   </g>
   <g id="patch_28">
    <path clip-path="url(#p8e41bb0b96)" d="M 603.283846 126.62 
L 614.869615 126.62 
L 614.869615 118.358069 
L 603.283846 118.358069 
z
" style="fill:#0000ff;"/>
   </g>
   <g id="patch_29">
    <path clip-path="url(#p8e41bb0b96)" d="M 614.869615 126.62 
L 626.455385 126.62 
L 626.455385 122.419018 
L 614.869615 122.419018 
z
" style="fill:#0000ff;"/>
   </g>
   <g id="patch_30">
    <path clip-path="url(#p8e41bb0b96)" d="M 626.455385 126.62 
L 638.041154 126.62 
L 638.041154 120.598593 
L 626.455385 120.598593 
z
" style="fill:#0000ff;"/>
   </g>
   <g id="patch_31">
    <path clip-path="url(#p8e41bb0b96)" d="M 638.041154 126.62 
L 649.626923 126.62 
L 649.626923 124.379476 
L 638.041154 124.379476 
z
" style="fill:#0000ff;"/>
   </g>
   <g id="patch_32">
    <path clip-path="url(#p8e41bb0b96)" d="M 649.626923 126.62 
L 661.212692 126.62 
L 661.212692 121.158724 
L 649.626923 121.158724 
z
" style="fill:#0000ff;"/>
   </g>
   <g id="patch_33">
    <path clip-path="url(#p8e41bb0b96)" d="M 661.212692 126.62 
L 672.798462 126.62 
L 672.798462 119.198265 
L 661.212692 119.198265 
z
" style="fill:#0000ff;"/>
   </g>
   <g id="patch_34">
    <path clip-path="url(#p8e41bb0b96)" d="M 672.798462 126.62 
L 684.384231 126.62 
L 684.384231 121.018691 
L 672.798462 121.018691 
z
" style="fill:#0000ff;"/>
   </g>
   <g id="patch_35">
    <path clip-path="url(#p8e41bb0b96)" d="M 684.384231 126.62 
L 695.97 126.62 
L 695.97 121.99892 
L 684.384231 121.99892 
z
" style="fill:#0000ff;"/>
   </g>
   <g id="patch_36">
    <path clip-path="url(#p8e41bb0b96)" d="M 695.97 126.62 
L 707.555769 126.62 
L 707.555769 114.717218 
L 695.97 114.717218 
z
" style="fill:#0000ff;"/>
   </g>
   <g id="patch_37">
    <path clip-path="url(#p8e41bb0b96)" d="M 707.555769 126.62 
L 719.141538 126.62 
L 719.141538 113.176858 
L 707.555769 113.176858 
z
" style="fill:#0000ff;"/>
   </g>
   <g id="patch_38">
    <path clip-path="url(#p8e41bb0b96)" d="M 719.141538 126.62 
L 730.727308 126.62 
L 730.727308 107.155451 
L 719.141538 107.155451 
z
" style="fill:#0000ff;"/>
   </g>
   <g id="patch_39">
    <path clip-path="url(#p8e41bb0b96)" d="M 730.727308 126.62 
L 742.313077 126.62 
L 742.313077 111.776531 
L 730.727308 111.776531 
z
" style="fill:#0000ff;"/>
   </g>
   <g id="patch_40">
    <path clip-path="url(#p8e41bb0b96)" d="M 742.313077 126.62 
L 753.898846 126.62 
L 753.898846 81.809527 
L 742.313077 81.809527 
z
" style="fill:#0000ff;"/>
   </g>
   <g id="patch_41">
    <path clip-path="url(#p8e41bb0b96)" d="M 753.898846 126.62 
L 765.484615 126.62 
L 765.484615 121.99892 
L 753.898846 121.99892 
z
" style="fill:#0000ff;"/>
   </g>
   <g id="patch_42">
    <path clip-path="url(#p8e41bb0b96)" d="M 765.484615 126.62 
L 777.070385 126.62 
L 777.070385 119.198265 
L 765.484615 119.198265 
z
" style="fill:#0000ff;"/>
   </g>
   <g id="patch_43">
    <path clip-path="url(#p8e41bb0b96)" d="M 777.070385 126.62 
L 788.656154 126.62 
L 788.656154 67.386156 
L 777.070385 67.386156 
z
" style="fill:#0000ff;"/>
   </g>
   <g id="patch_44">
    <path clip-path="url(#p8e41bb0b96)" d="M 788.656154 126.62 
L 800.241923 126.62 
L 800.241923 126.62 
L 788.656154 126.62 
z
" style="fill:#0000ff;"/>
   </g>
   <g id="patch_45">
    <path clip-path="url(#p8e41bb0b96)" d="M 800.241923 126.62 
L 811.827692 126.62 
L 811.827692 126.62 
L 800.241923 126.62 
z
" style="fill:#0000ff;"/>
   </g>
   <g id="patch_46">
    <path clip-path="url(#p8e41bb0b96)" d="M 811.827692 126.62 
L 823.413462 126.62 
L 823.413462 126.62 
L 811.827692 126.62 
z
" style="fill:#0000ff;"/>
   </g>
   <g id="patch_47">
    <path clip-path="url(#p8e41bb0b96)" d="M 823.413462 126.62 
L 834.999231 126.62 
L 834.999231 126.62 
L 823.413462 126.62 
z
" style="fill:#0000ff;"/>
   </g>
   <g id="patch_48">
    <path clip-path="url(#p8e41bb0b96)" d="M 834.999231 126.62 
L 846.585 126.62 
L 846.585 126.62 
L 834.999231 126.62 
z
" style="fill:#0000ff;"/>
   </g>
   <g id="patch_49">
    <path clip-path="url(#p8e41bb0b96)" d="M 846.585 126.62 
L 858.170769 126.62 
L 858.170769 126.62 
L 846.585 126.62 
z
" style="fill:#0000ff;"/>
   </g>
   <g id="patch_50">
    <path clip-path="url(#p8e41bb0b96)" d="M 858.170769 126.62 
L 869.756538 126.62 
L 869.756538 126.62 
L 858.170769 126.62 
z
" style="fill:#0000ff;"/>
   </g>
   <g id="patch_51">
    <path clip-path="url(#p8e41bb0b96)" d="M 869.756538 126.62 
L 881.342308 126.62 
L 881.342308 126.62 
L 869.756538 126.62 
z
" style="fill:#0000ff;"/>
   </g>
   <g id="patch_52">
    <path clip-path="url(#p8e41bb0b96)" d="M 881.342308 126.62 
L 892.928077 126.62 
L 892.928077 126.62 
L 881.342308 126.62 
z
" style="fill:#0000ff;"/>
   </g>
   <g id="patch_53">
    <path clip-path="url(#p8e41bb0b96)" d="M 892.928077 126.62 
L 904.513846 126.62 
L 904.513846 126.62 
L 892.928077 126.62 
z
" style="fill:#0000ff;"/>
   </g>
   <g id="patch_54">
    <path clip-path="url(#p8e41bb0b96)" d="M 904.513846 126.62 
L 916.099615 126.62 
L 916.099615 126.62 
L 904.513846 126.62 
z
" style="fill:#0000ff;"/>
   </g>
   <g id="patch_55">
    <path clip-path="url(#p8e41bb0b96)" d="M 916.099615 126.62 
L 927.685385 126.62 
L 927.685385 126.62 
L 916.099615 126.62 
z
" style="fill:#0000ff;"/>
   </g>
   <g id="patch_56">
    <path clip-path="url(#p8e41bb0b96)" d="M 927.685385 126.62 
L 939.271154 126.62 
L 939.271154 126.62 
L 927.685385 126.62 
z
" style="fill:#0000ff;"/>
   </g>
   <g id="patch_57">
    <path clip-path="url(#p8e41bb0b96)" d="M 939.271154 126.62 
L 950.856923 126.62 
L 950.856923 126.62 
L 939.271154 126.62 
z
" style="fill:#0000ff;"/>
   </g>
   <g id="patch_58">
    <path clip-path="url(#p8e41bb0b96)" d="M 950.856923 126.62 
L 962.442692 126.62 
L 962.442692 126.62 
L 950.856923 126.62 
z
" style="fill:#0000ff;"/>
   </g>
   <g id="patch_59">
    <path clip-path="url(#p8e41bb0b96)" d="M 962.442692 126.62 
L 974.028462 126.62 
L 974.028462 126.62 
L 962.442692 126.62 
z
" style="fill:#0000ff;"/>
   </g>
   <g id="patch_60">
    <path clip-path="url(#p8e41bb0b96)" d="M 974.028462 126.62 
L 985.614231 126.62 
L 985.614231 126.62 
L 974.028462 126.62 
z
" style="fill:#0000ff;"/>
   </g>
   <g id="patch_61">
    <path clip-path="url(#p8e41bb0b96)" d="M 985.614231 126.62 
L 997.2 126.62 
L 997.2 126.62 
L 985.614231 126.62 
z
" style="fill:#0000ff;"/>
   </g>
   <g id="patch_62">
    <path clip-path="url(#p8e41bb0b96)" d="M 545.355 126.62 
L 556.940769 126.62 
L 556.940769 126.62 
L 545.355 126.62 
z
" style="fill:#ffa500;opacity:0.8;"/>
   </g>
   <g id="patch_63">
    <path clip-path="url(#p8e41bb0b96)" d="M 556.940769 126.62 
L 568.526538 126.62 
L 568.526538 126.375311 
L 556.940769 126.375311 
z
" style="fill:#ffa500;opacity:0.8;"/>
   </g>
   <g id="patch_64">
    <path clip-path="url(#p8e41bb0b96)" d="M 568.526538 126.62 
L 580.112308 126.62 
L 580.112308 99.337202 
L 568.526538 99.337202 
z
" style="fill:#ffa500;opacity:0.8;"/>
   </g>
   <g id="patch_65">
    <path clip-path="url(#p8e41bb0b96)" d="M 580.112308 126.62 
L 591.698077 126.62 
L 591.698077 86.368698 
L 580.112308 86.368698 
z
" style="fill:#ffa500;opacity:0.8;"/>
   </g>
   <g id="patch_66">
    <path clip-path="url(#p8e41bb0b96)" d="M 591.698077 126.62 
L 603.283846 126.62 
L 603.283846 108.268342 
L 591.698077 108.268342 
z
" style="fill:#ffa500;opacity:0.8;"/>
   </g>
   <g id="patch_67">
    <path clip-path="url(#p8e41bb0b96)" d="M 603.283846 126.62 
L 614.869615 126.62 
L 614.869615 111.204608 
L 603.283846 111.204608 
z
" style="fill:#ffa500;opacity:0.8;"/>
   </g>
   <g id="patch_68">
    <path clip-path="url(#p8e41bb0b96)" d="M 614.869615 126.62 
L 626.455385 126.62 
L 626.455385 121.359191 
L 614.869615 121.359191 
z
" style="fill:#ffa500;opacity:0.8;"/>
   </g>
   <g id="patch_69">
    <path clip-path="url(#p8e41bb0b96)" d="M 626.455385 126.62 
L 638.041154 126.62 
L 638.041154 122.337947 
L 626.455385 122.337947 
z
" style="fill:#ffa500;opacity:0.8;"/>
   </g>
   <g id="patch_70">
    <path clip-path="url(#p8e41bb0b96)" d="M 638.041154 126.62 
L 649.626923 126.62 
L 649.626923 122.70498 
L 638.041154 122.70498 
z
" style="fill:#ffa500;opacity:0.8;"/>
   </g>
   <g id="patch_71">
    <path clip-path="url(#p8e41bb0b96)" d="M 649.626923 126.62 
L 661.212692 126.62 
L 661.212692 114.997283 
L 649.626923 114.997283 
z
" style="fill:#ffa500;opacity:0.8;"/>
   </g>
   <g id="patch_72">
    <path clip-path="url(#p8e41bb0b96)" d="M 661.212692 126.62 
L 672.798462 126.62 
L 672.798462 114.263217 
L 661.212692 114.263217 
z
" style="fill:#ffa500;opacity:0.8;"/>
   </g>
   <g id="patch_73">
    <path clip-path="url(#p8e41bb0b96)" d="M 672.798462 126.62 
L 684.384231 126.62 
L 684.384231 119.768714 
L 672.798462 119.768714 
z
" style="fill:#ffa500;opacity:0.8;"/>
   </g>
   <g id="patch_74">
    <path clip-path="url(#p8e41bb0b96)" d="M 684.384231 126.62 
L 695.97 126.62 
L 695.97 120.013403 
L 684.384231 120.013403 
z
" style="fill:#ffa500;opacity:0.8;"/>
   </g>
   <g id="patch_75">
    <path clip-path="url(#p8e41bb0b96)" d="M 695.97 126.62 
L 707.555769 126.62 
L 707.555769 118.789959 
L 695.97 118.789959 
z
" style="fill:#ffa500;opacity:0.8;"/>
   </g>
   <g id="patch_76">
    <path clip-path="url(#p8e41bb0b96)" d="M 707.555769 126.62 
L 719.141538 126.62 
L 719.141538 113.162118 
L 707.555769 113.162118 
z
" style="fill:#ffa500;opacity:0.8;"/>
   </g>
   <g id="patch_77">
    <path clip-path="url(#p8e41bb0b96)" d="M 719.141538 126.62 
L 730.727308 126.62 
L 730.727308 104.230978 
L 719.141538 104.230978 
z
" style="fill:#ffa500;opacity:0.8;"/>
   </g>
   <g id="patch_78">
    <path clip-path="url(#p8e41bb0b96)" d="M 730.727308 126.62 
L 742.313077 126.62 
L 742.313077 111.204608 
L 730.727308 111.204608 
z
" style="fill:#ffa500;opacity:0.8;"/>
   </g>
   <g id="patch_79">
    <path clip-path="url(#p8e41bb0b96)" d="M 742.313077 126.62 
L 753.898846 126.62 
L 753.898846 121.726225 
L 742.313077 121.726225 
z
" style="fill:#ffa500;opacity:0.8;"/>
   </g>
   <g id="patch_80">
    <path clip-path="url(#p8e41bb0b96)" d="M 753.898846 126.62 
L 765.484615 126.62 
L 765.484615 124.417801 
L 753.898846 124.417801 
z
" style="fill:#ffa500;opacity:0.8;"/>
   </g>
   <g id="patch_81">
    <path clip-path="url(#p8e41bb0b96)" d="M 765.484615 126.62 
L 777.070385 126.62 
L 777.070385 122.827324 
L 765.484615 122.827324 
z
" style="fill:#ffa500;opacity:0.8;"/>
   </g>
   <g id="patch_82">
    <path clip-path="url(#p8e41bb0b96)" d="M 777.070385 126.62 
L 788.656154 126.62 
L 788.656154 104.965044 
L 777.070385 104.965044 
z
" style="fill:#ffa500;opacity:0.8;"/>
   </g>
   <g id="patch_83">
    <path clip-path="url(#p8e41bb0b96)" d="M 788.656154 126.62 
L 800.241923 126.62 
L 800.241923 126.62 
L 788.656154 126.62 
z
" style="fill:#ffa500;opacity:0.8;"/>
   </g>
   <g id="patch_84">
    <path clip-path="url(#p8e41bb0b96)" d="M 800.241923 126.62 
L 811.827692 126.62 
L 811.827692 126.62 
L 800.241923 126.62 
z
" style="fill:#ffa500;opacity:0.8;"/>
   </g>
   <g id="patch_85">
    <path clip-path="url(#p8e41bb0b96)" d="M 811.827692 126.62 
L 823.413462 126.62 
L 823.413462 126.62 
L 811.827692 126.62 
z
" style="fill:#ffa500;opacity:0.8;"/>
   </g>
   <g id="patch_86">
    <path clip-path="url(#p8e41bb0b96)" d="M 823.413462 126.62 
L 834.999231 126.62 
L 834.999231 126.62 
L 823.413462 126.62 
z
" style="fill:#ffa500;opacity:0.8;"/>
   </g>
   <g id="patch_87">
    <path clip-path="url(#p8e41bb0b96)" d="M 834.999231 126.62 
L 846.585 126.62 
L 846.585 126.62 
L 834.999231 126.62 
z
" style="fill:#ffa500;opacity:0.8;"/>
   </g>
   <g id="patch_88">
    <path clip-path="url(#p8e41bb0b96)" d="M 846.585 126.62 
L 858.170769 126.62 
L 858.170769 126.62 
L 846.585 126.62 
z
" style="fill:#ffa500;opacity:0.8;"/>
   </g>
   <g id="patch_89">
    <path clip-path="url(#p8e41bb0b96)" d="M 858.170769 126.62 
L 869.756538 126.62 
L 869.756538 126.62 
L 858.170769 126.62 
z
" style="fill:#ffa500;opacity:0.8;"/>
   </g>
   <g id="patch_90">
    <path clip-path="url(#p8e41bb0b96)" d="M 869.756538 126.62 
L 881.342308 126.62 
L 881.342308 126.62 
L 869.756538 126.62 
z
" style="fill:#ffa500;opacity:0.8;"/>
   </g>
   <g id="patch_91">
    <path clip-path="url(#p8e41bb0b96)" d="M 881.342308 126.62 
L 892.928077 126.62 
L 892.928077 126.62 
L 881.342308 126.62 
z
" style="fill:#ffa500;opacity:0.8;"/>
   </g>
   <g id="patch_92">
    <path clip-path="url(#p8e41bb0b96)" d="M 892.928077 126.62 
L 904.513846 126.62 
L 904.513846 126.62 
L 892.928077 126.62 
z
" style="fill:#ffa500;opacity:0.8;"/>
   </g>
   <g id="patch_93">
    <path clip-path="url(#p8e41bb0b96)" d="M 904.513846 126.62 
L 916.099615 126.62 
L 916.099615 126.62 
L 904.513846 126.62 
z
" style="fill:#ffa500;opacity:0.8;"/>
   </g>
   <g id="patch_94">
    <path clip-path="url(#p8e41bb0b96)" d="M 916.099615 126.62 
L 927.685385 126.62 
L 927.685385 126.62 
L 916.099615 126.62 
z
" style="fill:#ffa500;opacity:0.8;"/>
   </g>
   <g id="patch_95">
    <path clip-path="url(#p8e41bb0b96)" d="M 927.685385 126.62 
L 939.271154 126.62 
L 939.271154 126.62 
L 927.685385 126.62 
z
" style="fill:#ffa500;opacity:0.8;"/>
   </g>
   <g id="patch_96">
    <path clip-path="url(#p8e41bb0b96)" d="M 939.271154 126.62 
L 950.856923 126.62 
L 950.856923 126.62 
L 939.271154 126.62 
z
" style="fill:#ffa500;opacity:0.8;"/>
   </g>
   <g id="patch_97">
    <path clip-path="url(#p8e41bb0b96)" d="M 950.856923 126.62 
L 962.442692 126.62 
L 962.442692 126.62 
L 950.856923 126.62 
z
" style="fill:#ffa500;opacity:0.8;"/>
   </g>
   <g id="patch_98">
    <path clip-path="url(#p8e41bb0b96)" d="M 962.442692 126.62 
L 974.028462 126.62 
L 974.028462 126.62 
L 962.442692 126.62 
z
" style="fill:#ffa500;opacity:0.8;"/>
   </g>
   <g id="patch_99">
    <path clip-path="url(#p8e41bb0b96)" d="M 974.028462 126.62 
L 985.614231 126.62 
L 985.614231 126.62 
L 974.028462 126.62 
z
" style="fill:#ffa500;opacity:0.8;"/>
   </g>
   <g id="patch_100">
    <path clip-path="url(#p8e41bb0b96)" d="M 985.614231 126.62 
L 997.2 126.62 
L 997.2 126.62 
L 985.614231 126.62 
z
" style="fill:#ffa500;opacity:0.8;"/>
   </g>
   <g id="patch_101">
    <path clip-path="url(#p8e41bb0b96)" d="M 545.355 126.62 
L 556.940769 126.62 
L 556.940769 126.62 
L 545.355 126.62 
z
" style="fill:#0000ff;"/>
   </g>
   <g id="patch_102">
    <path clip-path="url(#p8e41bb0b96)" d="M 556.940769 126.62 
L 568.526538 126.62 
L 568.526538 126.62 
L 556.940769 126.62 
z
" style="fill:#0000ff;"/>
   </g>
   <g id="patch_103">
    <path clip-path="url(#p8e41bb0b96)" d="M 568.526538 126.62 
L 580.112308 126.62 
L 580.112308 126.62 
L 568.526538 126.62 
z
" style="fill:#0000ff;"/>
   </g>
   <g id="patch_104">
    <path clip-path="url(#p8e41bb0b96)" d="M 580.112308 126.62 
L 591.698077 126.62 
L 591.698077 126.62 
L 580.112308 126.62 
z
" style="fill:#0000ff;"/>
   </g>
   <g id="patch_105">
    <path clip-path="url(#p8e41bb0b96)" d="M 591.698077 126.62 
L 603.283846 126.62 
L 603.283846 126.723642 
L 591.698077 126.723642 
z
" style="fill:#0000ff;"/>
   </g>
   <g id="patch_106">
    <path clip-path="url(#p8e41bb0b96)" d="M 603.283846 126.62 
L 614.869615 126.62 
L 614.869615 127.760063 
L 603.283846 127.760063 
z
" style="fill:#0000ff;"/>
   </g>
   <g id="patch_107">
    <path clip-path="url(#p8e41bb0b96)" d="M 614.869615 126.62 
L 626.455385 126.62 
L 626.455385 127.760063 
L 614.869615 127.760063 
z
" style="fill:#0000ff;"/>
   </g>
   <g id="patch_108">
    <path clip-path="url(#p8e41bb0b96)" d="M 626.455385 126.62 
L 638.041154 126.62 
L 638.041154 133.460376 
L 626.455385 133.460376 
z
" style="fill:#0000ff;"/>
   </g>
   <g id="patch_109">
    <path clip-path="url(#p8e41bb0b96)" d="M 638.041154 126.62 
L 649.626923 126.62 
L 649.626923 134.704081 
L 638.041154 134.704081 
z
" style="fill:#0000ff;"/>
   </g>
   <g id="patch_110">
    <path clip-path="url(#p8e41bb0b96)" d="M 649.626923 126.62 
L 661.212692 126.62 
L 661.212692 130.454756 
L 649.626923 130.454756 
z
" style="fill:#0000ff;"/>
   </g>
   <g id="patch_111">
    <path clip-path="url(#p8e41bb0b96)" d="M 661.212692 126.62 
L 672.798462 126.62 
L 672.798462 129.62562 
L 661.212692 129.62562 
z
" style="fill:#0000ff;"/>
   </g>
   <g id="patch_112">
    <path clip-path="url(#p8e41bb0b96)" d="M 672.798462 126.62 
L 684.384231 126.62 
L 684.384231 129.832904 
L 672.798462 129.832904 
z
" style="fill:#0000ff;"/>
   </g>
   <g id="patch_113">
    <path clip-path="url(#p8e41bb0b96)" d="M 684.384231 126.62 
L 695.97 126.62 
L 695.97 129.003767 
L 684.384231 129.003767 
z
" style="fill:#0000ff;"/>
   </g>
   <g id="patch_114">
    <path clip-path="url(#p8e41bb0b96)" d="M 695.97 126.62 
L 707.555769 126.62 
L 707.555769 127.760063 
L 695.97 127.760063 
z
" style="fill:#0000ff;"/>
   </g>
   <g id="patch_115">
    <path clip-path="url(#p8e41bb0b96)" d="M 707.555769 126.62 
L 719.141538 126.62 
L 719.141538 129.729262 
L 707.555769 129.729262 
z
" style="fill:#0000ff;"/>
   </g>
   <g id="patch_116">
    <path clip-path="url(#p8e41bb0b96)" d="M 719.141538 126.62 
L 730.727308 126.62 
L 730.727308 129.107409 
L 719.141538 129.107409 
z
" style="fill:#0000ff;"/>
   </g>
   <g id="patch_117">
    <path clip-path="url(#p8e41bb0b96)" d="M 730.727308 126.62 
L 742.313077 126.62 
L 742.313077 129.107409 
L 730.727308 129.107409 
z
" style="fill:#0000ff;"/>
   </g>
   <g id="patch_118">
    <path clip-path="url(#p8e41bb0b96)" d="M 742.313077 126.62 
L 753.898846 126.62 
L 753.898846 128.278273 
L 742.313077 128.278273 
z
" style="fill:#0000ff;"/>
   </g>
   <g id="patch_119">
    <path clip-path="url(#p8e41bb0b96)" d="M 753.898846 126.62 
L 765.484615 126.62 
L 765.484615 128.278273 
L 753.898846 128.278273 
z
" style="fill:#0000ff;"/>
   </g>
   <g id="patch_120">
    <path clip-path="url(#p8e41bb0b96)" d="M 765.484615 126.62 
L 777.070385 126.62 
L 777.070385 131.491177 
L 765.484615 131.491177 
z
" style="fill:#0000ff;"/>
   </g>
   <g id="patch_121">
    <path clip-path="url(#p8e41bb0b96)" d="M 777.070385 126.62 
L 788.656154 126.62 
L 788.656154 131.594819 
L 777.070385 131.594819 
z
" style="fill:#0000ff;"/>
   </g>
   <g id="patch_122">
    <path clip-path="url(#p8e41bb0b96)" d="M 788.656154 126.62 
L 800.241923 126.62 
L 800.241923 133.874944 
L 788.656154 133.874944 
z
" style="fill:#0000ff;"/>
   </g>
   <g id="patch_123">
    <path clip-path="url(#p8e41bb0b96)" d="M 800.241923 126.62 
L 811.827692 126.62 
L 811.827692 132.216671 
L 800.241923 132.216671 
z
" style="fill:#0000ff;"/>
   </g>
   <g id="patch_124">
    <path clip-path="url(#p8e41bb0b96)" d="M 811.827692 126.62 
L 823.413462 126.62 
L 823.413462 129.832904 
L 811.827692 129.832904 
z
" style="fill:#0000ff;"/>
   </g>
   <g id="patch_125">
    <path clip-path="url(#p8e41bb0b96)" d="M 823.413462 126.62 
L 834.999231 126.62 
L 834.999231 130.454756 
L 823.413462 130.454756 
z
" style="fill:#0000ff;"/>
   </g>
   <g id="patch_126">
    <path clip-path="url(#p8e41bb0b96)" d="M 834.999231 126.62 
L 846.585 126.62 
L 846.585 129.418336 
L 834.999231 129.418336 
z
" style="fill:#0000ff;"/>
   </g>
   <g id="patch_127">
    <path clip-path="url(#p8e41bb0b96)" d="M 846.585 126.62 
L 858.170769 126.62 
L 858.170769 130.351114 
L 846.585 130.351114 
z
" style="fill:#0000ff;"/>
   </g>
   <g id="patch_128">
    <path clip-path="url(#p8e41bb0b96)" d="M 858.170769 126.62 
L 869.756538 126.62 
L 869.756538 131.698461 
L 858.170769 131.698461 
z
" style="fill:#0000ff;"/>
   </g>
   <g id="patch_129">
    <path clip-path="url(#p8e41bb0b96)" d="M 869.756538 126.62 
L 881.342308 126.62 
L 881.342308 132.734881 
L 869.756538 132.734881 
z
" style="fill:#0000ff;"/>
   </g>
   <g id="patch_130">
    <path clip-path="url(#p8e41bb0b96)" d="M 881.342308 126.62 
L 892.928077 126.62 
L 892.928077 130.040188 
L 881.342308 130.040188 
z
" style="fill:#0000ff;"/>
   </g>
   <g id="patch_131">
    <path clip-path="url(#p8e41bb0b96)" d="M 892.928077 126.62 
L 904.513846 126.62 
L 904.513846 133.66766 
L 892.928077 133.66766 
z
" style="fill:#0000ff;"/>
   </g>
   <g id="patch_132">
    <path clip-path="url(#p8e41bb0b96)" d="M 904.513846 126.62 
L 916.099615 126.62 
L 916.099615 133.045808 
L 904.513846 133.045808 
z
" style="fill:#0000ff;"/>
   </g>
   <g id="patch_133">
    <path clip-path="url(#p8e41bb0b96)" d="M 916.099615 126.62 
L 927.685385 126.62 
L 927.685385 133.564018 
L 916.099615 133.564018 
z
" style="fill:#0000ff;"/>
   </g>
   <g id="patch_134">
    <path clip-path="url(#p8e41bb0b96)" d="M 927.685385 126.62 
L 939.271154 126.62 
L 939.271154 130.972966 
L 927.685385 130.972966 
z
" style="fill:#0000ff;"/>
   </g>
   <g id="patch_135">
    <path clip-path="url(#p8e41bb0b96)" d="M 939.271154 126.62 
L 950.856923 126.62 
L 950.856923 129.729262 
L 939.271154 129.729262 
z
" style="fill:#0000ff;"/>
   </g>
   <g id="patch_136">
    <path clip-path="url(#p8e41bb0b96)" d="M 950.856923 126.62 
L 962.442692 126.62 
L 962.442692 135.947785 
L 950.856923 135.947785 
z
" style="fill:#0000ff;"/>
   </g>
   <g id="patch_137">
    <path clip-path="url(#p8e41bb0b96)" d="M 962.442692 126.62 
L 974.028462 126.62 
L 974.028462 138.538837 
L 962.442692 138.538837 
z
" style="fill:#0000ff;"/>
   </g>
   <g id="patch_138">
    <path clip-path="url(#p8e41bb0b96)" d="M 974.028462 126.62 
L 985.614231 126.62 
L 985.614231 136.984206 
L 974.028462 136.984206 
z
" style="fill:#0000ff;"/>
   </g>
   <g id="patch_139">
    <path clip-path="url(#p8e41bb0b96)" d="M 985.614231 126.62 
L 997.2 126.62 
L 997.2 218.032295 
L 985.614231 218.032295 
z
" style="fill:#0000ff;"/>
   </g>
   <g id="patch_140">
    <path clip-path="url(#p8e41bb0b96)" d="M 545.355 126.62 
L 556.940769 126.62 
L 556.940769 126.62 
L 545.355 126.62 
z
" style="fill:#ffa500;opacity:0.8;"/>
   </g>
   <g id="patch_141">
    <path clip-path="url(#p8e41bb0b96)" d="M 556.940769 126.62 
L 568.526538 126.62 
L 568.526538 126.62 
L 556.940769 126.62 
z
" style="fill:#ffa500;opacity:0.8;"/>
   </g>
   <g id="patch_142">
    <path clip-path="url(#p8e41bb0b96)" d="M 568.526538 126.62 
L 580.112308 126.62 
L 580.112308 126.62 
L 568.526538 126.62 
z
" style="fill:#ffa500;opacity:0.8;"/>
   </g>
   <g id="patch_143">
    <path clip-path="url(#p8e41bb0b96)" d="M 580.112308 126.62 
L 591.698077 126.62 
L 591.698077 126.62 
L 580.112308 126.62 
z
" style="fill:#ffa500;opacity:0.8;"/>
   </g>
   <g id="patch_144">
    <path clip-path="url(#p8e41bb0b96)" d="M 591.698077 126.62 
L 603.283846 126.62 
L 603.283846 126.62 
L 591.698077 126.62 
z
" style="fill:#ffa500;opacity:0.8;"/>
   </g>
   <g id="patch_145">
    <path clip-path="url(#p8e41bb0b96)" d="M 603.283846 126.62 
L 614.869615 126.62 
L 614.869615 128.043783 
L 603.283846 128.043783 
z
" style="fill:#ffa500;opacity:0.8;"/>
   </g>
   <g id="patch_146">
    <path clip-path="url(#p8e41bb0b96)" d="M 614.869615 126.62 
L 626.455385 126.62 
L 626.455385 139.434045 
L 614.869615 139.434045 
z
" style="fill:#ffa500;opacity:0.8;"/>
   </g>
   <g id="patch_147">
    <path clip-path="url(#p8e41bb0b96)" d="M 626.455385 126.62 
L 638.041154 126.62 
L 638.041154 135.569492 
L 626.455385 135.569492 
z
" style="fill:#ffa500;opacity:0.8;"/>
   </g>
   <g id="patch_148">
    <path clip-path="url(#p8e41bb0b96)" d="M 638.041154 126.62 
L 649.626923 126.62 
L 649.626923 143.298598 
L 638.041154 143.298598 
z
" style="fill:#ffa500;opacity:0.8;"/>
   </g>
   <g id="patch_149">
    <path clip-path="url(#p8e41bb0b96)" d="M 649.626923 126.62 
L 661.212692 126.62 
L 661.212692 142.688406 
L 649.626923 142.688406 
z
" style="fill:#ffa500;opacity:0.8;"/>
   </g>
   <g id="patch_150">
    <path clip-path="url(#p8e41bb0b96)" d="M 661.212692 126.62 
L 672.798462 126.62 
L 672.798462 135.162697 
L 661.212692 135.162697 
z
" style="fill:#ffa500;opacity:0.8;"/>
   </g>
   <g id="patch_151">
    <path clip-path="url(#p8e41bb0b96)" d="M 672.798462 126.62 
L 684.384231 126.62 
L 684.384231 140.65443 
L 672.798462 140.65443 
z
" style="fill:#ffa500;opacity:0.8;"/>
   </g>
   <g id="patch_152">
    <path clip-path="url(#p8e41bb0b96)" d="M 684.384231 126.62 
L 695.97 126.62 
L 695.97 131.298143 
L 684.384231 131.298143 
z
" style="fill:#ffa500;opacity:0.8;"/>
   </g>
   <g id="patch_153">
    <path clip-path="url(#p8e41bb0b96)" d="M 695.97 126.62 
L 707.555769 126.62 
L 707.555769 132.111734 
L 695.97 132.111734 
z
" style="fill:#ffa500;opacity:0.8;"/>
   </g>
   <g id="patch_154">
    <path clip-path="url(#p8e41bb0b96)" d="M 707.555769 126.62 
L 719.141538 126.62 
L 719.141538 132.518529 
L 707.555769 132.518529 
z
" style="fill:#ffa500;opacity:0.8;"/>
   </g>
   <g id="patch_155">
    <path clip-path="url(#p8e41bb0b96)" d="M 719.141538 126.62 
L 730.727308 126.62 
L 730.727308 132.111734 
L 719.141538 132.111734 
z
" style="fill:#ffa500;opacity:0.8;"/>
   </g>
   <g id="patch_156">
    <path clip-path="url(#p8e41bb0b96)" d="M 730.727308 126.62 
L 742.313077 126.62 
L 742.313077 129.467566 
L 730.727308 129.467566 
z
" style="fill:#ffa500;opacity:0.8;"/>
   </g>
   <g id="patch_157">
    <path clip-path="url(#p8e41bb0b96)" d="M 742.313077 126.62 
L 753.898846 126.62 
L 753.898846 129.467566 
L 742.313077 129.467566 
z
" style="fill:#ffa500;opacity:0.8;"/>
   </g>
   <g id="patch_158">
    <path clip-path="url(#p8e41bb0b96)" d="M 753.898846 126.62 
L 765.484615 126.62 
L 765.484615 128.653975 
L 753.898846 128.653975 
z
" style="fill:#ffa500;opacity:0.8;"/>
   </g>
   <g id="patch_159">
    <path clip-path="url(#p8e41bb0b96)" d="M 765.484615 126.62 
L 777.070385 126.62 
L 777.070385 128.857373 
L 765.484615 128.857373 
z
" style="fill:#ffa500;opacity:0.8;"/>
   </g>
   <g id="patch_160">
    <path clip-path="url(#p8e41bb0b96)" d="M 777.070385 126.62 
L 788.656154 126.62 
L 788.656154 128.043783 
L 777.070385 128.043783 
z
" style="fill:#ffa500;opacity:0.8;"/>
   </g>
   <g id="patch_161">
    <path clip-path="url(#p8e41bb0b96)" d="M 788.656154 126.62 
L 800.241923 126.62 
L 800.241923 130.077758 
L 788.656154 130.077758 
z
" style="fill:#ffa500;opacity:0.8;"/>
   </g>
   <g id="patch_162">
    <path clip-path="url(#p8e41bb0b96)" d="M 800.241923 126.62 
L 811.827692 126.62 
L 811.827692 130.687951 
L 800.241923 130.687951 
z
" style="fill:#ffa500;opacity:0.8;"/>
   </g>
   <g id="patch_163">
    <path clip-path="url(#p8e41bb0b96)" d="M 811.827692 126.62 
L 823.413462 126.62 
L 823.413462 130.484553 
L 811.827692 130.484553 
z
" style="fill:#ffa500;opacity:0.8;"/>
   </g>
   <g id="patch_164">
    <path clip-path="url(#p8e41bb0b96)" d="M 823.413462 126.62 
L 834.999231 126.62 
L 834.999231 128.653975 
L 823.413462 128.653975 
z
" style="fill:#ffa500;opacity:0.8;"/>
   </g>
   <g id="patch_165">
    <path clip-path="url(#p8e41bb0b96)" d="M 834.999231 126.62 
L 846.585 126.62 
L 846.585 130.687951 
L 834.999231 130.687951 
z
" style="fill:#ffa500;opacity:0.8;"/>
   </g>
   <g id="patch_166">
    <path clip-path="url(#p8e41bb0b96)" d="M 846.585 126.62 
L 858.170769 126.62 
L 858.170769 128.450578 
L 846.585 128.450578 
z
" style="fill:#ffa500;opacity:0.8;"/>
   </g>
   <g id="patch_167">
    <path clip-path="url(#p8e41bb0b96)" d="M 858.170769 126.62 
L 869.756538 126.62 
L 869.756538 129.874361 
L 858.170769 129.874361 
z
" style="fill:#ffa500;opacity:0.8;"/>
   </g>
   <g id="patch_168">
    <path clip-path="url(#p8e41bb0b96)" d="M 869.756538 126.62 
L 881.342308 126.62 
L 881.342308 131.908336 
L 869.756538 131.908336 
z
" style="fill:#ffa500;opacity:0.8;"/>
   </g>
   <g id="patch_169">
    <path clip-path="url(#p8e41bb0b96)" d="M 881.342308 126.62 
L 892.928077 126.62 
L 892.928077 131.501541 
L 881.342308 131.501541 
z
" style="fill:#ffa500;opacity:0.8;"/>
   </g>
   <g id="patch_170">
    <path clip-path="url(#p8e41bb0b96)" d="M 892.928077 126.62 
L 904.513846 126.62 
L 904.513846 135.162697 
L 892.928077 135.162697 
z
" style="fill:#ffa500;opacity:0.8;"/>
   </g>
   <g id="patch_171">
    <path clip-path="url(#p8e41bb0b96)" d="M 904.513846 126.62 
L 916.099615 126.62 
L 916.099615 135.772889 
L 904.513846 135.772889 
z
" style="fill:#ffa500;opacity:0.8;"/>
   </g>
   <g id="patch_172">
    <path clip-path="url(#p8e41bb0b96)" d="M 916.099615 126.62 
L 927.685385 126.62 
L 927.685385 131.704938 
L 916.099615 131.704938 
z
" style="fill:#ffa500;opacity:0.8;"/>
   </g>
   <g id="patch_173">
    <path clip-path="url(#p8e41bb0b96)" d="M 927.685385 126.62 
L 939.271154 126.62 
L 939.271154 129.06077 
L 927.685385 129.06077 
z
" style="fill:#ffa500;opacity:0.8;"/>
   </g>
   <g id="patch_174">
    <path clip-path="url(#p8e41bb0b96)" d="M 939.271154 126.62 
L 950.856923 126.62 
L 950.856923 127.43359 
L 939.271154 127.43359 
z
" style="fill:#ffa500;opacity:0.8;"/>
   </g>
   <g id="patch_175">
    <path clip-path="url(#p8e41bb0b96)" d="M 950.856923 126.62 
L 962.442692 126.62 
L 962.442692 133.738914 
L 950.856923 133.738914 
z
" style="fill:#ffa500;opacity:0.8;"/>
   </g>
   <g id="patch_176">
    <path clip-path="url(#p8e41bb0b96)" d="M 962.442692 126.62 
L 974.028462 126.62 
L 974.028462 131.298143 
L 962.442692 131.298143 
z
" style="fill:#ffa500;opacity:0.8;"/>
   </g>
   <g id="patch_177">
    <path clip-path="url(#p8e41bb0b96)" d="M 974.028462 126.62 
L 985.614231 126.62 
L 985.614231 134.552504 
L 974.028462 134.552504 
z
" style="fill:#ffa500;opacity:0.8;"/>
   </g>
   <g id="patch_178">
    <path clip-path="url(#p8e41bb0b96)" d="M 985.614231 126.62 
L 997.2 126.62 
L 997.2 180.723745 
L 985.614231 180.723745 
z
" style="fill:#ffa500;opacity:0.8;"/>
   </g>
   <g id="matplotlib.axis_3">
    <g id="xtick_7">
     <g id="line2d_13">
      <g>
       <use style="stroke:#000000;stroke-width:0.8;" x="551.147885" xlink:href="#mba484e3379" y="242.44"/>
      </g>
     </g>
     <g id="text_14">
      <!-- 0 -->
      <g transform="translate(547.966635 257.038437)scale(0.1 -0.1)">
       <use xlink:href="#DejaVuSans-48"/>
      </g>
     </g>
    </g>
    <g id="xtick_8">
     <g id="line2d_14">
      <g>
       <use style="stroke:#000000;stroke-width:0.8;" x="634.942099" xlink:href="#mba484e3379" y="242.44"/>
      </g>
     </g>
     <g id="text_15">
      <!-- 1 -->
      <g transform="translate(631.760849 257.038437)scale(0.1 -0.1)">
       <use xlink:href="#DejaVuSans-49"/>
      </g>
     </g>
    </g>
    <g id="xtick_9">
     <g id="line2d_15">
      <g>
       <use style="stroke:#000000;stroke-width:0.8;" x="718.736313" xlink:href="#mba484e3379" y="242.44"/>
      </g>
     </g>
     <g id="text_16">
      <!-- 2 -->
      <g transform="translate(715.555063 257.038437)scale(0.1 -0.1)">
       <use xlink:href="#DejaVuSans-50"/>
      </g>
     </g>
    </g>
    <g id="xtick_10">
     <g id="line2d_16">
      <g>
       <use style="stroke:#000000;stroke-width:0.8;" x="802.530527" xlink:href="#mba484e3379" y="242.44"/>
      </g>
     </g>
     <g id="text_17">
      <!-- 3 -->
      <g transform="translate(799.349277 257.038437)scale(0.1 -0.1)">
       <use xlink:href="#DejaVuSans-51"/>
      </g>
     </g>
    </g>
    <g id="xtick_11">
     <g id="line2d_17">
      <g>
       <use style="stroke:#000000;stroke-width:0.8;" x="886.324741" xlink:href="#mba484e3379" y="242.44"/>
      </g>
     </g>
     <g id="text_18">
      <!-- 4 -->
      <g transform="translate(883.143491 257.038437)scale(0.1 -0.1)">
       <use xlink:href="#DejaVuSans-52"/>
      </g>
     </g>
    </g>
    <g id="xtick_12">
     <g id="line2d_18">
      <g>
       <use style="stroke:#000000;stroke-width:0.8;" x="970.118955" xlink:href="#mba484e3379" y="242.44"/>
      </g>
     </g>
     <g id="text_19">
      <!-- 5 -->
      <g transform="translate(966.937705 257.038437)scale(0.1 -0.1)">
       <use xlink:href="#DejaVuSans-53"/>
      </g>
     </g>
    </g>
    <g id="text_20">
     <!-- Action entropy -->
     <defs>
      <path d="M 34.1875 63.1875 
L 20.796875 26.90625 
L 47.609375 26.90625 
z
M 28.609375 72.90625 
L 39.796875 72.90625 
L 67.578125 0 
L 57.328125 0 
L 50.6875 18.703125 
L 17.828125 18.703125 
L 11.1875 0 
L 0.78125 0 
z
" id="DejaVuSans-65"/>
      <path d="M 48.78125 52.59375 
L 48.78125 44.1875 
Q 44.96875 46.296875 41.140625 47.34375 
Q 37.3125 48.390625 33.40625 48.390625 
Q 24.65625 48.390625 19.8125 42.84375 
Q 14.984375 37.3125 14.984375 27.296875 
Q 14.984375 17.28125 19.8125 11.734375 
Q 24.65625 6.203125 33.40625 6.203125 
Q 37.3125 6.203125 41.140625 7.25 
Q 44.96875 8.296875 48.78125 10.40625 
L 48.78125 2.09375 
Q 45.015625 0.34375 40.984375 -0.53125 
Q 36.96875 -1.421875 32.421875 -1.421875 
Q 20.0625 -1.421875 12.78125 6.34375 
Q 5.515625 14.109375 5.515625 27.296875 
Q 5.515625 40.671875 12.859375 48.328125 
Q 20.21875 56 33.015625 56 
Q 37.15625 56 41.109375 55.140625 
Q 45.0625 54.296875 48.78125 52.59375 
z
" id="DejaVuSans-99"/>
      <path d="M 54.890625 33.015625 
L 54.890625 0 
L 45.90625 0 
L 45.90625 32.71875 
Q 45.90625 40.484375 42.875 44.328125 
Q 39.84375 48.1875 33.796875 48.1875 
Q 26.515625 48.1875 22.3125 43.546875 
Q 18.109375 38.921875 18.109375 30.90625 
L 18.109375 0 
L 9.078125 0 
L 9.078125 54.6875 
L 18.109375 54.6875 
L 18.109375 46.1875 
Q 21.34375 51.125 25.703125 53.5625 
Q 30.078125 56 35.796875 56 
Q 45.21875 56 50.046875 50.171875 
Q 54.890625 44.34375 54.890625 33.015625 
z
" id="DejaVuSans-110"/>
     </defs>
     <g transform="translate(719.775 273.755938)scale(0.14 -0.14)">
      <use xlink:href="#DejaVuSans-65"/>
      <use x="68.392578" xlink:href="#DejaVuSans-99"/>
      <use x="123.373047" xlink:href="#DejaVuSans-116"/>
      <use x="162.582031" xlink:href="#DejaVuSans-105"/>
      <use x="190.365234" xlink:href="#DejaVuSans-111"/>
      <use x="251.546875" xlink:href="#DejaVuSans-110"/>
      <use x="314.925781" xlink:href="#DejaVuSans-32"/>
      <use x="346.712891" xlink:href="#DejaVuSans-101"/>
      <use x="408.236328" xlink:href="#DejaVuSans-110"/>
      <use x="471.615234" xlink:href="#DejaVuSans-116"/>
      <use x="510.824219" xlink:href="#DejaVuSans-114"/>
      <use x="551.90625" xlink:href="#DejaVuSans-111"/>
      <use x="613.087891" xlink:href="#DejaVuSans-112"/>
      <use x="676.564453" xlink:href="#DejaVuSans-121"/>
     </g>
    </g>
   </g>
   <g id="matplotlib.axis_4">
    <g id="ytick_7">
     <g id="line2d_19">
      <g>
       <use style="stroke:#000000;stroke-width:0.8;" x="545.355" xlink:href="#md9b3924735" y="224.250819"/>
      </g>
     </g>
     <g id="text_21">
      <!-- 0.4 -->
      <defs>
       <path d="M 10.59375 35.5 
L 73.1875 35.5 
L 73.1875 27.203125 
L 10.59375 27.203125 
z
" id="DejaVuSans-8722"/>
      </defs>
      <g transform="translate(514.072188 228.050038)scale(0.1 -0.1)">
       <use xlink:href="#DejaVuSans-8722"/>
       <use x="83.789062" xlink:href="#DejaVuSans-48"/>
       <use x="147.412109" xlink:href="#DejaVuSans-46"/>
       <use x="179.199219" xlink:href="#DejaVuSans-52"/>
      </g>
     </g>
    </g>
    <g id="ytick_8">
     <g id="line2d_20">
      <g>
       <use style="stroke:#000000;stroke-width:0.8;" x="545.355" xlink:href="#md9b3924735" y="175.435409"/>
      </g>
     </g>
     <g id="text_22">
      <!-- 0.2 -->
      <g transform="translate(514.072188 179.234628)scale(0.1 -0.1)">
       <use xlink:href="#DejaVuSans-8722"/>
       <use x="83.789062" xlink:href="#DejaVuSans-48"/>
       <use x="147.412109" xlink:href="#DejaVuSans-46"/>
       <use x="179.199219" xlink:href="#DejaVuSans-50"/>
      </g>
     </g>
    </g>
    <g id="ytick_9">
     <g id="line2d_21">
      <g>
       <use style="stroke:#000000;stroke-width:0.8;" x="545.355" xlink:href="#md9b3924735" y="126.62"/>
      </g>
     </g>
     <g id="text_23">
      <!-- 0.0 -->
      <g transform="translate(522.451875 130.419219)scale(0.1 -0.1)">
       <use xlink:href="#DejaVuSans-48"/>
       <use x="63.623047" xlink:href="#DejaVuSans-46"/>
       <use x="95.410156" xlink:href="#DejaVuSans-48"/>
      </g>
     </g>
    </g>
    <g id="ytick_10">
     <g id="line2d_22">
      <g>
       <use style="stroke:#000000;stroke-width:0.8;" x="545.355" xlink:href="#md9b3924735" y="77.804591"/>
      </g>
     </g>
     <g id="text_24">
      <!-- 0.2 -->
      <g transform="translate(522.451875 81.603809)scale(0.1 -0.1)">
       <use xlink:href="#DejaVuSans-48"/>
       <use x="63.623047" xlink:href="#DejaVuSans-46"/>
       <use x="95.410156" xlink:href="#DejaVuSans-50"/>
      </g>
     </g>
    </g>
    <g id="ytick_11">
     <g id="line2d_23">
      <g>
       <use style="stroke:#000000;stroke-width:0.8;" x="545.355" xlink:href="#md9b3924735" y="28.989181"/>
      </g>
     </g>
     <g id="text_25">
      <!-- 0.4 -->
      <g transform="translate(522.451875 32.7884)scale(0.1 -0.1)">
       <use xlink:href="#DejaVuSans-48"/>
       <use x="63.623047" xlink:href="#DejaVuSans-46"/>
       <use x="95.410156" xlink:href="#DejaVuSans-52"/>
      </g>
     </g>
    </g>
    <g id="text_26">
     <!-- Proportion of replays -->
     <defs>
      <path d="M 19.671875 64.796875 
L 19.671875 37.40625 
L 32.078125 37.40625 
Q 38.96875 37.40625 42.71875 40.96875 
Q 46.484375 44.53125 46.484375 51.125 
Q 46.484375 57.671875 42.71875 61.234375 
Q 38.96875 64.796875 32.078125 64.796875 
z
M 9.8125 72.90625 
L 32.078125 72.90625 
Q 44.34375 72.90625 50.609375 67.359375 
Q 56.890625 61.8125 56.890625 51.125 
Q 56.890625 40.328125 50.609375 34.8125 
Q 44.34375 29.296875 32.078125 29.296875 
L 19.671875 29.296875 
L 19.671875 0 
L 9.8125 0 
z
" id="DejaVuSans-80"/>
     </defs>
     <g transform="translate(507.160625 199.858594)rotate(-90)scale(0.14 -0.14)">
      <use xlink:href="#DejaVuSans-80"/>
      <use x="60.287109" xlink:href="#DejaVuSans-114"/>
      <use x="101.369141" xlink:href="#DejaVuSans-111"/>
      <use x="162.550781" xlink:href="#DejaVuSans-112"/>
      <use x="226.027344" xlink:href="#DejaVuSans-111"/>
      <use x="287.208984" xlink:href="#DejaVuSans-114"/>
      <use x="328.322266" xlink:href="#DejaVuSans-116"/>
      <use x="367.53125" xlink:href="#DejaVuSans-105"/>
      <use x="395.314453" xlink:href="#DejaVuSans-111"/>
      <use x="456.496094" xlink:href="#DejaVuSans-110"/>
      <use x="519.875" xlink:href="#DejaVuSans-32"/>
      <use x="551.662109" xlink:href="#DejaVuSans-111"/>
      <use x="612.84375" xlink:href="#DejaVuSans-102"/>
      <use x="648.048828" xlink:href="#DejaVuSans-32"/>
      <use x="679.835938" xlink:href="#DejaVuSans-114"/>
      <use x="720.917969" xlink:href="#DejaVuSans-101"/>
      <use x="782.441406" xlink:href="#DejaVuSans-112"/>
      <use x="845.917969" xlink:href="#DejaVuSans-108"/>
      <use x="873.701172" xlink:href="#DejaVuSans-97"/>
      <use x="934.980469" xlink:href="#DejaVuSans-121"/>
      <use x="994.160156" xlink:href="#DejaVuSans-115"/>
     </g>
    </g>
   </g>
   <g id="line2d_24">
    <path clip-path="url(#p8e41bb0b96)" d="M 545.355 126.62 
L 997.2 126.62 
" style="fill:none;stroke:#000000;stroke-linecap:square;stroke-width:1.5;"/>
   </g>
   <g id="patch_179">
    <path d="M 545.355 242.44 
L 545.355 10.8 
" style="fill:none;stroke:#000000;stroke-linecap:square;stroke-linejoin:miter;stroke-width:0.8;"/>
   </g>
   <g id="patch_180">
    <path d="M 997.2 242.44 
L 997.2 10.8 
" style="fill:none;stroke:#000000;stroke-linecap:square;stroke-linejoin:miter;stroke-width:0.8;"/>
   </g>
   <g id="patch_181">
    <path d="M 545.355 242.44 
L 997.2 242.44 
" style="fill:none;stroke:#000000;stroke-linecap:square;stroke-linejoin:miter;stroke-width:0.8;"/>
   </g>
   <g id="patch_182">
    <path d="M 545.355 10.8 
L 997.2 10.8 
" style="fill:none;stroke:#000000;stroke-linecap:square;stroke-linejoin:miter;stroke-width:0.8;"/>
   </g>
  </g>
 </g>
 <defs>
  <clipPath id="p201463487d">
   <rect height="231.64" width="451.845" x="33.73" y="10.8"/>
  </clipPath>
  <clipPath id="p8e41bb0b96">
   <rect height="231.64" width="451.845" x="545.355" y="10.8"/>
  </clipPath>
 </defs>
</svg>
